<svg xmlns="http://www.w3.org/2000/svg" xmlns:xlink="http://www.w3.org/1999/xlink" viewBox="0 0 791.62 1428.89"><defs><style>.cls-1{fill:#ec918c;}.cls-2{clip-path:url(#clip-path);}.cls-3{fill:#ffe7e1;}.cls-4{fill:none;}.cls-5{fill:#1f3428;}</style><clipPath id="clip-path" transform="translate(147.31 195.15)"><rect class="cls-1" width="470.72" height="836.84"/></clipPath></defs><g id="Layer_2" data-name="Layer 2"><g id="ëÎÓÈ_1" data-name="ëÎÓÈ 1"><rect class="cls-1" x="147.31" y="195.15" width="470.72" height="836.84"/><g class="cls-2"><path class="cls-3" d="M256.63-195.13c-.93,0-1.85,0-2.78.06-2,.07-4,.12-6,.26s-4.15.26-6.21.51c-2.25.26-4.5.49-6.74.8l-7.2,1c-1.88.26-3.75.62-5.61.93-2,.34-4,.71-6.07,1.09s-4,.77-6,1.18-4.23,1-6.34,1.5c-1.61.4-3.22.81-4.82,1.26l-4.27,1.18c-.79.22-1.59.42-2.37.67-4,1.24-7.93,2.47-11.87,3.79l-6.27,2.1c-2.22.74-4.41,1.56-6.62,2.35-7.57,2.69-15.23,5.13-22.87,7.64-4.26,1.4-8.52,2.84-12.77,4.29-3.43,1.18-6.88,2.28-10.26,3.6l-6.22,2.43c-.61.23-1.2.54-1.79.81l-4.32,2-3.41,1.59c-.35.17-.72.33-1.07.51l-7,3.73c-1.3.68-2.62,1.33-3.88,2.08l-7.12,4.2c-1.55.91-3.07,1.88-4.6,2.82-1.83,1.14-3.62,2.33-5.42,3.52-.64.44-1.26.92-1.89,1.38L72-133.77c-.52.39-1,.8-1.53,1.2l-3.69,2.9c-1.53,1.2-3,2.56-4.4,3.85a47.93,47.93,0,0,0-4.17,4.26c-1.06,1.21-2,2.52-3,3.83q-3.9,5.28-7.57,10.72c-1.15,1.69-2.27,3.39-3.4,5.1s-2.12,3.18-3.16,4.78c-2.33,3.59-4.59,7.21-6.82,10.87-.45.75-.89,1.52-1.33,2.27s-.79,1.32-1.13,2l-1.73,3.41c-.47.93-.88,1.89-1.32,2.83-1.6,3.5-3.16,7-4.53,10.6-.65,1.7-1.3,3.4-1.89,5.12q-1,2.85-2,5.67c-2.92,7.88-6.12,15.63-9.18,23.45q-2.14,5.44-4,11C6-16.39,5-12.81,4.08-9.22c-.69,2.68-1.44,5.36-2.21,8S.24,4-.55,6.65s-1.42,5-2,7.59c-.3,1.22-.56,2.45-.83,3.68a33.07,33.07,0,0,1-1.1,4.16,4.08,4.08,0,0,1-.36.61l0,0-.54-.62a16.46,16.46,0,0,1-1-1.46c-.36-.59-.69-1.2-1-1.81-.72-1.33-1.32-2.74-1.94-4.12s-1.31-3-2-4.44-1.31-2.74-2-4.09C-14.95,3.11-16.65.09-18.22-3c-1.48-2.87-3-5.7-4.54-8.56a96.5,96.5,0,0,0-4.85-8.65c-.4-.62-.84-1.21-1.28-1.81-.27-.37-.56-.74-.85-1.1-.52-.63-1-1.17-1.58-1.77a13,13,0,0,0-1.16-.95c-.76-.6-1.55-1.13-2.37-1.66s-1.4-.84-2.11-1.22C-40-30.29-43-31.76-46-33.31q-2.15-1.11-4.23-2.33a38.14,38.14,0,0,1-3.66-2.56c-1.52-1.22-3-2.46-4.51-3.72-.66-.57-1.29-1.17-1.93-1.76L-63-46.09c-3-2.68-6.18-5.08-9.35-7.51q-2.28-1.78-4.45-3.69a30.25,30.25,0,0,1-3.92-4.46c-1.15-1.51-2.29-3-3.41-4.53s-2.17-2.91-3.32-4.31a49.85,49.85,0,0,0-4.24-4.36c-1.36-1.31-2.78-2.57-4.23-3.79s-2.85-2.3-4.27-3.47c-.63-.52-1.26-1-1.87-1.59A29.9,29.9,0,0,1-104.27-86c-.58-.63-1.1-1.3-1.64-2s-1.27-1.55-1.89-2.33c-1-1.27-2-2.52-3-3.79-2.25-3-4.28-6.11-6.61-9q-2-2.52-4.19-4.91c-.71-.79-1.43-1.56-2.14-2.34-2.33-3.65-4.67-7.3-7-11-1.12-1.79-2.25-3.58-3.33-5.41l-1.08-1.82c-.52-1-1-2.06-1.58-3.09a1.67,1.67,0,0,0-.57-.64c-.8-1.5-1.53-3-2.21-4.6-1.49-3.74-2.67-7.61-3.85-11.46a2,2,0,0,0-2.47-1.4,2,2,0,0,0-1.41,2.47c.7,2.26,1.42,4.51,2.14,6.77a66.87,66.87,0,0,0,3.53,8.85c.63,1.3,1.33,2.57,2,3.83,1,2.12,2,4.21,3,6.31.64,1.33,1.29,2.65,2,3.94s1.56,2.73,2.4,4,1.76,2.45,2.67,3.63,1.84,2.26,2.78,3.37c1.79,2.9,3.56,5.81,5.21,8.79,2,3.6,3.94,7.23,6.22,10.65.57.84,1.1,1.7,1.72,2.5s1.42,1.8,2.12,2.69c.55.7,1.15,1.33,1.74,2s1.42,1.56,2.18,2.3l2.4,2.33c.27.27.58.51.86.75l1.61,1.4c1.55,1.35,3.13,2.67,4.72,4,3.18,2.66,6.2,5.51,9.27,8.3l1.25,1.11c1.26,1.68,2.56,3.34,3.88,5a31.39,31.39,0,0,0,4.71,4.36c1.8,1.47,3.65,2.86,5.49,4.26q2,1.53,3.91,3.12c1.51,1.25,3,2.56,4.43,3.87L-63.64-38c2.51,3,4.86,6.13,7.4,9.09,1.71,2,3.46,3.93,5.18,5.91.88,1,1.8,2,2.65,3.06s1.61,2,2.42,3l2.11,3c.64.91,1.22,1.87,1.81,2.81,1.24,2,2.35,4,3.43,6.05.52,1,1.06,2,1.58,3s1.17,2.22,1.7,3.35l1.62,3.44c.53,1.14,1,2.32,1.49,3.48q.93,2.21,1.83,4.42c.61,1.48,1.07,3,1.54,4.55s.92,3.13,1.34,4.7.71,3.39,1,5.08c.1.75.2,1.5.29,2.25.12.93.17,1.87.25,2.8s.15,1.76.17,2.63c0,.55,0,1.09.05,1.64A27.21,27.21,0,0,1-26,40a37.5,37.5,0,0,1-1.8,7.47c-.53,1.39-1.06,2.79-1.58,4.18.07-.19.15-.37.23-.56-.7,1.67-1.36,3.36-2.12,5-1,2.18-2,4.37-3.06,6.53-.74,1.53-1.54,3-2.37,4.52-1,1.86-2,3.73-3.11,5.57l-1.87,3.22c-.45.76-.94,1.5-1.41,2.25-1.21,1.91-2.46,3.79-3.72,5.66-1.06,1.58-2.08,3.18-3.11,4.78-.39.61-.81,1.22-1.18,1.85l-2.16,3.72A77.14,77.14,0,0,0-58.3,105c-.74,1.89-1.46,3.77-2.13,5.68-.4,1.14-.79,2.29-1.19,3.43s-.64,2-1,3c-1.17,3.74-2.33,7.49-3.35,11.27-1.09,4.06-2.15,8.11-3.18,12.18-.53,2.1-1.07,4.21-1.6,6.32-.18.7-.32,1.41-.48,2.12-.34,1.51-.67,3-1,4.52-.43,1.93-.73,3.89-1.08,5.83-.38,2.11-.74,4.23-1.09,6.34-.66,3.83-1.18,7.68-1.65,11.53s-1,8-1.33,12c-.18,2-.39,3.91-.53,5.86-.14,2.12-.3,4.23-.43,6.34s-.31,4.19-.38,6.29c0,1.14-.08,2.28-.11,3.43,0,1-.1,1.94-.1,2.91,0,1.94,0,3.89,0,5.83s0,4,.18,6,.18,3.9.4,5.84c.23,2.09.45,4.17.72,6.26.59,4.57,1.19,9.13,1.93,13.67.7,4.31,1.51,8.59,2.13,12.91.31,2.15.6,4.31.9,6.46s.65,4.07,1,6.1q1.09,6.76,2.06,13.54c.21,1.68.42,3.35.62,5,.26,2.26.47,4.52.68,6.78.35,3.87.63,7.74.9,11.61.27,4.11.49,8.22.78,12.33s.61,8.1.88,12.16q.86,12.71,1.58,25.42c.47,8.19,1.23,16.36,2.05,24.53.41,4.11.89,8.21,1.36,12.31.22,1.95.46,3.88.7,5.83s.62,4.14.94,6.2c.29,1.88.68,3.75,1,5.62s.85,3.91,1.28,5.86c.21,1,.49,1.93.74,2.89s.5,1.92.74,2.89c.52,2,1,4,1.58,6,1,3.87,2.11,7.72,3.18,11.57q1.71,6.12,3.53,12.2c1.19,4,2.39,7.94,3.55,11.93s2.4,7.95,3.62,11.92,2.42,8,3.56,12c1.09,3.78,2,7.62,3,11.42,2,7.8,4.17,15.57,6.05,23.41.92,3.78,1.82,7.55,2.8,11.32.48,1.84,1,3.69,1.45,5.54s.84,3.65,1.24,5.47c.9,4,1.74,7.91,2.64,11.85.79,3.46,1.53,6.92,2.64,10.29a35.94,35.94,0,0,0,1.35,3.49c.2.45.43.89.67,1.33a4.94,4.94,0,0,0,.51.75,2.65,2.65,0,0,0,1.29.57,1.67,1.67,0,0,0,1.62-.43,6,6,0,0,0,.66-.76c.15-.36.3-.71.44-1.07a25.12,25.12,0,0,0,1.14-4.16c.36-1.65.71-3.29,1-5,.24-1.25.39-2.53.56-3.8l.69-5.16c.76-5.79,1.48-11.58,2.2-17.38,1-7.66,2.29-15.29,3.86-22.87.39-1.92.78-3.84,1.22-5.75.51-2.21,1-4.43,1.55-6.64,1-4,1.92-8,3.14-11.94s2.59-8,3.78-12c.57-1.94,1.12-3.86,1.64-5.82l.81-3.1c.32-1.23.56-2.48.84-3.72,1.72-7.58,3.08-15.23,4.14-22.94.56-4.09,1.14-8.18,1.62-12.29.24-2,.47-4,.65-6.05q.3-3.37.56-6.75c.33-4.24.55-8.48.7-12.73s.18-8.42.23-12.63,0-8.29-.15-12.44c-.05-1.91-.13-3.83-.2-5.75,0-.84-.1-1.68-.15-2.52-.06-1.1-.11-2.19-.2-3.28-.34-4.19-.7-8.37-1.16-12.55-.48-4.38-1-8.75-1.64-13.12-.44-3.23-1-6.44-1.56-9.66s-1.1-6.3-1.62-9.46-1-6.35-1.55-9.53-1.11-6.44-1.71-9.65c-.54-3-1.07-5.93-1.69-8.87q-1.08-5-2.14-10.09c-1.32-6.33-2.17-12.76-3-19.17,0,.18,0,.36.07.54-.84-8-1.75-16-2.17-24-.23-4.39-.49-8.76-.84-13.14-.16-2-.34-4-.51-6-.08-.87-.21-1.74-.32-2.6s-.24-2-.39-2.94c-.27-1.91-.53-3.81-.88-5.7-.18-1-.35-1.91-.57-2.85-.26-1.13-.53-2.26-.82-3.39-1-3.73-2-7.45-3.09-11.15s-2.31-7.6-3.74-11.29c-.38-1-.72-1.93-1.13-2.87L-12,184c-.35-.8-.77-1.58-1.15-2.37-.46-1-1-1.9-1.51-2.83-1.14-2.07-2.29-4.12-3.42-6.2-1-1.84-1.82-3.75-2.64-5.66l0,.08a90.09,90.09,0,0,1-3.62-11.82c-.54-2.22-1-4.45-1.45-6.7-.39-2-.68-4.11-1-6.17q-.77-6.91-1.06-13.87c-.19-4.2-.19-8.4-.22-12.61,0-4.48-.1-9-.12-13.43,0-1,.09-2,.16-2.94s.14-2.22.18-3.33c.09-2,.27-4.07.52-6.1a88.45,88.45,0,0,1,2.09-9.53c.44-1.66.94-3.32,1.47-5s1.1-3,1.71-4.45,1.45-3,2.24-4.49a34.67,34.67,0,0,1,2.66-4.31,12.94,12.94,0,0,1,1.54-1.6,5.3,5.3,0,0,1,.73-.42,5.62,5.62,0,0,1,.55-.15h.3l.62.27a16.4,16.4,0,0,1,2.17,1.45l-.28-.22.64.55a13.77,13.77,0,0,1,1.54,1.61c1.8,2.36,3.45,4.82,5.18,7.23.73,1,1.51,2,2.28,3,1,1.23,1.92,2.48,3,3.65,2,2.29,4.08,4.53,6,6.87s3.92,4.63,5.79,7q1.6,2.11,3.23,4.21l-.06-.07c2.11,2.82,4.12,5.7,6.07,8.63,1,1.55,2,3.14,2.85,4.77s1.62,3.22,2.33,4.88v0c.29.76.6,1.52.86,2.29l.51,1.51c.21.63.33,1.31.49,2,.24,1,.39,1.93.58,2.89s.32,2.06.47,3.09c.23,1.77.44,3.55.64,5.33.24,2.06.36,4.14.5,6.21.25,3.77.27,7.57.3,11.35,0,4,0,8,.24,11.93.2,4.15.62,8.28,1,12.42.35,4,.79,8,1.11,11.94.35,4.24.71,8.47,1,12.71s.52,8.24.74,12.36c.09,1.71.19,3.41.39,5.11l.39,3.34c.12,1.05.33,2.1.51,3.14.25,1.47.46,3,.76,4.44.46,2.22.93,4.44,1.39,6.66q1.07,5.13,2.11,10.28c.67,3.27,1.36,6.53,2,9.8.19.91.32,1.84.48,2.77.13.77.25,1.54.37,2.31.27,1.87.54,3.74.79,5.61l-.06-.46c.28,2.14.57,4.29.87,6.43.44,3.65.8,7.3,1.21,11,.43,3.9.85,7.81,1.29,11.71s.81,7.58,1.28,11.37c.53,4.28,1.06,8.56,1.54,12.86q.68,6.06,1.34,12.12c.45,4.08.85,8.16,1.38,12.22,1.07,8.33,2.14,16.67,3.39,25l1.11,7.31c.28,1.86.51,3.74.84,5.59q1.24,6.87,2.48,13.74c.22,1.21.48,2.41.72,3.61l1.8,9c.76,3.8,1.69,7.56,2.58,11.32.5,2.12,1,4.23,1.49,6.34.38,1.62.89,3.22,1.34,4.82,1.1,3.93,2.18,7.86,3.36,11.77s2.4,8.06,3.69,12.06c2,6.22,4,12.45,6.18,18.6a151,151,0,0,0,6.58,15.11c1.06,2.17,2.24,4.29,3.38,6.43,1,1.91,2,3.83,3.07,5.74.23.43.52.85.77,1.27l2.51,4.06,2,3.2c.2.33.4.67.62,1l4.52,6.33,2.18,3.06c.33.46.66.94,1,1.39l4,5,4,5c.34.43.71.84,1.07,1.27l3.28,3.84c1,1.22,2.07,2.45,3.16,3.63l4.95,5.41c1.47,1.61,3,3.15,4.53,4.72s3,3,4.48,4.55q3.94,4,8.11,7.74l1.52,1.37a15.22,15.22,0,0,0,1.49,1.28,5.06,5.06,0,0,0,1.45.86,1.71,1.71,0,0,0,1.27.17,1.74,1.74,0,0,0,1.15-1.15,3.18,3.18,0,0,0,.54-1.58l0-1-.18-2c-.08-.76-.21-1.52-.35-2.27-.3-1.69-.63-3.38-.91-5.07q-.89-5.45-1.78-10.87-.73-6.74-1.49-13.47c-.13-1.2-.16-2.41-.23-3.61-.18-3.14-.37-6.28-.55-9.42-.08-1.32-.19-2.64-.22-4q-.08-3.4-.14-6.79c-.08-3.91-.22-7.82-.22-11.73q0-7.79,0-15.56c0-1.08,0-2.16.07-3.25.08-3.06.15-6.13.23-9.2.19-7.88.53-15.74,1-23.61.23-4.1.45-8.19.74-12.28s.6-8.46.85-12.69q.24-3.94.47-7.89c.1-1.7.1-3.42.14-5.12l.18-7.38c0-.39,0-.78,0-1.17l-.09-4.47c-.05-2.05-.09-4.1-.14-6.15,0-1.39-.17-2.79-.27-4.18s-.24-2.79-.38-4.18c-.3-3-.74-5.89-1.23-8.82-.93-5.52-2.3-10.94-3.56-16.39l-2.67-11.49c-.89-3.81-1.61-7.66-2.53-11.45l-1.53-6.29-.66-2.73c-.37-1.51-.82-3-1.25-4.49a105.24,105.24,0,0,0-5.07-13.63,88.38,88.38,0,0,0-7-12.37c-1.28-1.94-2.65-3.82-4-5.72-.94-1.32-2-2.58-3-3.86s-2.11-2.67-3.21-4-2.28-2.78-3.42-4.18c-1.28-1.68-2.58-3.35-3.78-5.09a73.75,73.75,0,0,1-6.79-12.39c-.77-1.88-1.45-3.78-2-5.73-.68-2.22-1.17-4.49-1.63-6.76s-.85-4.63-1.24-6.94c-.23-1.38-.47-2.76-.69-4.14l-.57-3.45c-.12-.75-.22-1.5-.36-2.24-.4-1.95-.79-3.91-1.18-5.86-.32-1.57-.7-3.12-1.07-4.68-.84-3.6-1.76-7.18-2.67-10.77-.37-1.47-.81-2.94-1.21-4.41-.45-1.63-.9-3.24-1.43-4.84L86.19,186c-.15-.46-.3-.91-.49-1.35l-1.32-3.15c-.28-.66-.53-1.33-.83-2q-2.47-5.21-5-10.4c-1.4-2.91-2.68-5.89-3.93-8.87l0,.09-.17-.42-.15-.35-.84-2,.06.15-.12-.28-.15-.36c-.94-2.22-1.87-4.45-2.91-6.63-.51-1.08-1-2.18-1.58-3.23s-1.29-2.41-2-3.58c-2.66-4.42-5.38-8.81-8.12-13.19-1.2-1.91-2.43-3.8-3.65-5.7-1.37-2.15-2.73-4.32-4.11-6.47-1.24-1.92-2.44-3.86-3.7-5.77l-1.51-2.31a14.54,14.54,0,0,1-1.22-2.35c-.29-.75-.56-1.5-.83-2.25.3.15.59.32.88.5a19.51,19.51,0,0,1,1.63,1.11q4.05,3.13,8.12,6.24c2.13,1.62,4.36,3.12,6.54,4.67s4.33,2.9,6.5,4.34,4.51,2.9,6.77,4.34c2,1.27,4,2.53,6.07,3.76,2.43,1.45,4.87,2.89,7.28,4.37l4.82,3c.87.53,1.79,1,2.62,1.62l7.3,5.1c3,2.35,6.05,4.7,9,7.1a110.22,110.22,0,0,1,17.81,18.12l0,0c1.14,1.52,2.31,3,3.35,4.64l1.93,3c1.06,1.63,2.14,3.24,3.14,4.9l3.77,6.19c1.2,2,2.33,4,3.5,6q1.34,2.3,2.65,4.59l1.6,2.78c.44.76.8,1.56,1.2,2.34l1.93,3.77c.24.47.5.94.71,1.42l3.26,7.28c.81,1.81,1.57,3.63,2.36,5.44s1.67,3.5,2.55,5.24l1.86,3.65c.58,1.16,1.21,2.28,1.85,3.4a117,117,0,0,0,9.7,14.43c1.51,1.93,3.12,3.78,4.69,5.64,2.26,2.68,4.56,5.31,6.94,7.88a117.6,117.6,0,0,0,20,16.84l6.47,4.41c1.48,1,3,1.94,4.54,2.9l5.33,3.38c.56.35,1.17.65,1.75,1l4.36,2.43c1.33.74,2.65,1.54,4,2.21l7.62,3.69c3.79,1.84,7.65,3.53,11.49,5.28,3.69,1.68,7.37,3.41,11.05,5.13,1.37.64,2.7,1.38,4,2.08l6.18,3.24c.57.3,1.13.64,1.69,1l3.66,2.06c1.65.93,3.31,1.84,4.95,2.79,3.64,2.11,7.28,4.21,10.92,6.34l6.87,4c1.49.87,3.06,1.62,4.6,2.41l6,3.1c1.89,1,3.82,1.85,5.73,2.78,1.39.67,2.8,1.3,4.15,2l7.49,4c3.79,2,7.51,4.16,11.26,6.26,3.23,1.81,6.41,3.72,9.62,5.56l6,3.42c1.52.87,3,1.77,4.57,2.6,3.95,2.09,7.9,4.19,11.9,6.2s7.7,3.95,11.54,5.95c2.82,1.48,5.6,3,8.4,4.54,2.52,1.37,5.08,2.7,7.55,4.17l.22.19a1.94,1.94,0,0,0,1.33.56,1.82,1.82,0,0,0,1.34-.56l.08-.09a2.1,2.1,0,0,0,.56-1.36,2,2,0,0,0-1-1.65l-.95-.62c-.19-.17-.39-.35-.57-.53-.62-.64-1.2-1.31-1.76-2-.72-.95-1.4-1.92-2.05-2.92s-1.34-2.23-2-3.37c-.79-1.41-1.54-2.84-2.22-4.3q-2-4.25-4-8.48c-1.89-4-3.81-8.08-5.72-12.11-1.73-3.67-3.58-7.27-5.17-11l-6.12-14.38q-4.53-11.62-9-23.27c-.39-1-.78-2.05-1.18-3.07-.28-.75-.54-1.52-.88-2.25l-3.35-7c-.66-1.38-1.38-2.72-2.08-4.07L352,275.41c-.4-.76-.84-1.49-1.26-2.24l-1.95-3.45c-1.05-1.88-2.24-3.68-3.37-5.52-2.06-3.35-4.2-6.65-6.54-9.82-1.57-2.12-3.22-4.17-4.89-6.21-1.07-1.31-2.16-2.63-3.31-3.87q-5-5.4-10-10.79c-.91-1-1.85-1.93-2.78-2.89l-6.38-6.6c-5.46-5.65-11-11.26-16.59-16.76l-5.63-5.51c-3.21-3.15-6.4-6.32-9.72-9.36-4-3.66-8.26-7-12.55-10.29-2.3-1.75-4.66-3.41-7-5-1.2-.82-2.41-1.62-3.61-2.42s-2.44-1.64-3.69-2.4l-11.41-6.87c-.45-.26-.94-.48-1.39-.72l-3.32-1.73-7.68-4c-.93-.49-1.87-.9-2.84-1.31l-8.3-3.57-3.11-1.34c-.53-.23-1.06-.49-1.6-.69-2-.74-4.07-1.48-6.09-2.23l-6.61-2.42c-.37-.14-.76-.25-1.14-.37l-3.73-1.16-6.13-1.92c-2.68-.83-5.39-1.54-8.07-2.38s-5.12-1.81-7.63-2.84a123.25,123.25,0,0,1-11.17-5.53l-6.14-3.41-10.85-6.05c-2.32-1.3-4.64-2.62-7-3.83a74.37,74.37,0,0,0-6.85-3c-1.38-.54-2.8-1-4.22-1.46-3.93-1.33-7.93-2.47-11.92-3.64-3.72-1.1-7.41-2.33-11.07-3.61q-6-2.12-12.11-4.1c-1.68-.54-3.38-1-5.07-1.55-1-.3-2.06-.51-3.09-.77-.27-.07-.54-.11-.81-.16l-2.75-.48c-.79-.13-1.58-.24-2.37-.34-1-.13-1.91-.28-2.87-.39q-3-.35-6-.66l-3.53-.37.7-.13c1.06-.19,2.12-.36,3.18-.52l5.19-.76q6.09-.57,12.2-1.18l3.9-.4c.52,0,1-.1,1.53-.17L100,95l2.6-.4c.47-.07.94-.21,1.41-.32l8.75-2c4.19-1,8.33-2.15,12.48-3.25,8-2.12,16-4.19,24-6.31,4-1.08,8.06-2.29,12.08-3.45s8.15-2.51,12.22-3.77,7.86-2.53,11.79-3.81,7.82-2.45,11.74-3.68c3.72-1.16,7.47-2.27,11.2-3.41.63-.19,1.25-.46,1.87-.69l4-1.48L218,61c1.32-.48,2.61-1,3.91-1.54,2.27-.95,4.53-1.94,6.76-3,2.5-1.15,4.93-2.45,7.33-3.79,3-1.66,5.89-3.44,8.78-5.27,3.73-2.38,7.46-4.76,11.16-7.2l5.75-3.78c1.58-1,3.1-2.17,4.65-3.26l6-4.24c1.26-.88,2.48-1.81,3.71-2.72Q284.51,20,293,13.86c2.52-1.85,5-3.8,7.44-5.71s4.64-3.63,6.95-5.46q6.86-5.44,13.6-11c2.37-2,4.72-3.95,7.12-5.87l8.12-6.47c3.25-2.4,6.48-4.83,9.77-7.18l10.61-7.58c1.8-1.28,3.63-2.51,5.44-3.76,1.32-.91,2.61-1.83,4-2.67l6.91-4.26c1.43-.88,2.84-1.78,4.28-2.63l12.94-7.68c1.06-.63,2.16-1.21,3.25-1.81l7.47-4.12c1.31-.72,2.65-1.39,4-2.08,1.84-1,3.66-2,5.55-2.85l6.35-3c.71-.33,1.43-.62,2.15-.92l3-1.3c3.54-1.44,7.1-2.86,10.62-4.39a7.44,7.44,0,0,0,3.18-2.19,2.29,2.29,0,0,0,.56-1.41,2.94,2.94,0,0,0-.4-1.41l-.26-.36a3.79,3.79,0,0,0-1.23-1.16,14.4,14.4,0,0,0-2.62-1.49,29,29,0,0,0-2.89-1.16,43.21,43.21,0,0,0-5.48-1.53A70.81,70.81,0,0,0,416-88.73c-1-.11-2-.21-2.95-.29l-8.21-.69c-.4,0-.79,0-1.19-.05l-3.69-.11-7.56-.21c-.93,0-2,0-2.9,0-1.42,0-2.84.06-4.25.1-2.88.09-5.74.28-8.6.53-3,.25-6.07.64-9.09,1-2.72.36-5.46.7-8.17,1.16l-14.66,2.45c-1,.17-2,.32-3,.54L334-82.58c-3.59.78-7.2,1.48-10.76,2.4l-16,4.13c-.83.21-1.64.44-2.47.7l-7.87,2.48-7.75,2.44c-1,.3-1.93.59-2.87,1l-15.11,5.77c-1,.39-2.07.76-3.09,1.18l-5.79,2.41-12.81,5.34c-1.24.51-2.44,1.13-3.65,1.7l-8.27,3.9-6.92,3.27c-.88.42-1.76.83-2.63,1.28L215.23-38c-2.83,1.47-5.68,2.88-8.53,4.31l-5.57,2.8c-1.33.66-2.71,1.25-4.06,1.87l-5.23,2.4c-1.71.78-3.46,1.48-5.18,2.22s-3.18,1.24-4.8,1.81c-2,.7-4,1.39-5.93,2.11L172-19c-.68.25-1.37.47-2,.74l-7.05,2.82c-1.44.57-2.84,1.23-4.25,1.88l-4,1.84c-.63.3-1.28.58-1.9.9l-6.06,3.1C145-6.89,143.3-5.93,141.6-5c-3.43,1.85-6.88,3.69-10.41,5.34l-5.52,2.59c-1.85.86-3.73,1.69-5.54,2.64L117,7.21c-.7.37-1.37.79-2,1.18-1.93,1.13-3.84,2.29-5.74,3.46-3.48,2.16-6.85,4.49-10.24,6.79-1.2.81-2.35,1.68-3.52,2.53-1.38,1-2.73,2-4.08,3-1.15.88-2.27,1.79-3.39,2.7S85.49,29,84.28,30c-2.14,1.88-4.12,3.94-6.07,6s-3.85,4.21-5.68,6.41a67.59,67.59,0,0,0-5.1,6.82,43.37,43.37,0,0,0-3.69,7,75.6,75.6,0,0,0-2.62,7.87c-.4,1.46-.75,2.92-1.18,4.37A33.52,33.52,0,0,1,58.72,72a18.07,18.07,0,0,1-1.59,2.77,5,5,0,0,1-.6.62,7.82,7.82,0,0,1-1.22.72,5.36,5.36,0,0,1-1,.27,27.64,27.64,0,0,1-6.23-.15,37.86,37.86,0,0,1-8.4-2A40.35,40.35,0,0,1,35,71.46c-.89-.57-1.72-1.18-2.56-1.81l-1-.83c-.39-.37-.77-.76-1.12-1.16s-.88-1-1.32-1.54c-.7-.83-1.4-1.67-2.09-2.51-1.07-1.45-2.11-2.91-3.18-4.35-1.28-1.71-2.62-3.36-4-5-2.21-2.51-4.45-5-6.57-7.61a8.25,8.25,0,0,1-.65-1.11v0l.21-.76a28.71,28.71,0,0,1,1.93-3.3,9,9,0,0,1,.71-.8,18.05,18.05,0,0,1,1.55-1.35c3.59-2.71,7.39-5.12,11.17-7.57,1.57-1,3.12-2.05,4.67-3.1,1.87-1.28,3.69-2.62,5.52-4,1.55-1.13,3-2.39,4.5-3.6,1.69-1.36,3.27-2.86,4.88-4.3,1.31-1.17,2.58-2.38,3.85-3.58s2.76-2.6,4.1-3.94l3-3c.45-.45.92-.89,1.36-1.36L65-.43Q69-4.66,72.88-9C78.32-15,83.64-21.2,89.11-27.23c1.7-1.87,3.39-3.76,5.11-5.63C95.81-34.58,97.42-36.3,99-38l2.82-3.16c.26-.29.49-.6.73-.89l1.81-2.27c1.53-1.91,3-3.87,4.39-5.88,1.51-2.17,3-4.34,4.44-6.55,1.31-2,2.63-4,4-6,2.75-4,5.65-7.92,8.61-11.78q2.51-3.15,5.07-6.25c1.74-2.08,3.52-4.15,5.26-6.23.93-1.11,1.94-2.17,2.91-3.25.81-.9,1.63-1.76,2.47-2.61l3-3c1.17-1.19,2.42-2.32,3.63-3.48,2-1.88,4-3.69,6-5.55s3.91-3.75,5.84-5.66c1-1,2-2.06,3-3.09s2-2.09,3-3.13c.84-.84,1.74-1.61,2.63-2.39l3.56-3.13,4.93-3.71c1.67-1.25,3.41-2.4,5.13-3.58l4.33-2.92c1.56-1.05,3.06-2.19,4.59-3.27l5.95-4.2c.5-.36,1-.67,1.54-1l4.09-2.66q4.74-3.07,9.58-6c1.65-1,3.29-2,5-3,1.88-1.08,3.74-2.23,5.67-3.25l3.27-1.72c.68-.36,1.38-.67,2.08-1,2.13-1,4.27-1.92,6.42-2.85,3.59-1.55,7.21-3.06,10.77-4.67,3.86-1.75,7.69-3.58,11.52-5.39.94-.44,1.87-.94,2.8-1.41.75-.37,1.5-.74,2.24-1.13L268-177.2q2.58-1.37,5.11-2.79c1.73-1,3.37-2.15,5-3.27.64-.43,1.26-.89,1.87-1.35l1.05-.84c.17-.17.35-.33.53-.49s.5-.58.72-.89a3.8,3.8,0,0,0,.56-2.93,3.62,3.62,0,0,0-.82-1.42c-.38-.3-.77-.59-1.17-.89a10.56,10.56,0,0,0-1.51-.74l-1.11-.46a16.79,16.79,0,0,0-1.85-.49c-.47-.12-1-.19-1.44-.28-.95-.18-1.9-.29-2.86-.4-2-.23-4-.37-6-.46s-4-.17-6-.24H259l-2.34,0Zm-12.24,5,4.91-.34c.76-.06,1.54-.06,2.31-.08l3.38-.12c1.48-.05,3,0,4.46,0s2.73.06,4.09.12c1.68.07,3.37.15,5,.25.73,0,1.46.07,2.18.16l2.38.26,1.79.32c.4.07.79.16,1.17.26a10,10,0,0,1,1.61.5l.29.12.14.06,0,0,.25.13c-.17.17-.34.33-.53.49l-.69.55,0,0c-1.41,1-2.86,2-4.3,3-1.76,1.18-3.64,2.17-5.5,3.19-3.59,2-7.23,3.86-10.89,5.71-1.86.93-3.74,1.82-5.62,2.71s-3.49,1.67-5.24,2.48-3.58,1.65-5.39,2.43q-3.25,1.4-6.49,2.82c-3.53,1.54-7.09,3.05-10.49,4.87l-2.67,1.42c-.79.42-1.56.91-2.33,1.36-1.77,1-3.54,2.07-5.29,3.14-3.59,2.21-7.19,4.4-10.71,6.72l-5.94,3.91c-1.67,1.1-3.28,2.29-4.91,3.45s-3.12,2.23-4.66,3.36c-1.78,1.3-3.58,2.54-5.39,3.79-1.65,1.14-3.29,2.3-4.93,3.45-.53.36-1,.77-1.53,1.15l-3.77,2.87c-.46.35-1,.68-1.38,1.06l-2.43,2.15L164.53-120c-.65.57-1.22,1.22-1.82,1.83l-4.34,4.5c-1.54,1.61-3.15,3.16-4.73,4.73-2.68,2.64-5.53,5.11-8.24,7.71-3,2.84-5.93,5.67-8.66,8.73-1.35,1.52-2.72,3-4,4.59s-2.75,3.27-4.14,4.89c-2.59,3-5.07,6.15-7.5,9.3-3.12,4-6.14,8.15-9,12.37-1.48,2.19-3,4.37-4.47,6.54s-3.27,4.52-4.93,6.76l-1.86,2.3c-.53.65-1,1.34-1.6,2C98-42.43,96.72-41,95.45-39.65q-4.5,4.88-9,9.81C81.2-24,76.07-18,70.81-12.08c-2.67,3-5.38,5.92-8.09,8.87-1.49,1.62-3,3.21-4.5,4.82C56.88,3,55.47,4.41,54.09,5.8,52.91,7,51.74,8.15,50.53,9.3c-1.45,1.39-2.88,2.82-4.37,4.17q-2.53,2.26-5,4.55c-.56.5-1.17,1-1.75,1.43l-2.62,2.14c-1.55,1.15-3.1,2.34-4.69,3.44-1.87,1.3-3.74,2.59-5.64,3.85A149.54,149.54,0,0,0,14,37.63a12.47,12.47,0,0,0-2.86,3.56c-.3.53-.58,1.05-.87,1.59a6.27,6.27,0,0,0-.86,2.67,5.56,5.56,0,0,0,1.46,3.2c.52.65,1,1.28,1.57,1.91C13.64,52,14.8,53.44,16,54.86s2.56,3,3.79,4.52c1.49,2,2.93,4.07,4.42,6.09.78,1,1.65,2,2.48,3,.61.72,1.23,1.43,1.88,2.12a18.11,18.11,0,0,0,2.61,2.17c1.13.83,2.32,1.56,3.51,2.3.91.56,1.82,1.07,2.77,1.56a18.59,18.59,0,0,0,2.77,1.06,41.2,41.2,0,0,0,7.86,1.44,35.63,35.63,0,0,0,3.72.18c.63,0,1.26-.06,1.88-.12a7.33,7.33,0,0,0,2.83-.74,9.15,9.15,0,0,0,1.75-1.22,8.6,8.6,0,0,0,1.5-1.94,20.22,20.22,0,0,0,1.53-3,73.77,73.77,0,0,0,2.48-7.81,76.33,76.33,0,0,1,2.62-7.49,52.76,52.76,0,0,1,2.83-5.3c.48-.81,1-1.63,1.52-2.39l1.91-2.55c1.44-1.8,2.93-3.56,4.44-5.31s3.08-3.33,4.64-5c.7-.74,1.43-1.44,2.15-2.15s1.57-1.5,2.39-2.21L89,29.73c1-.87,2.07-1.68,3.1-2.51,1.18-.89,2.34-1.81,3.54-2.68L100,21.37c1.46-1.06,3-2,4.5-3s2.91-1.91,4.36-2.86c2.81-1.84,5.74-3.5,8.65-5.16s5.91-3,8.93-4.41c2.85-1.31,5.71-2.59,8.53-4,1.41-.69,2.84-1.35,4.23-2.08L144-2.66c1.44-.76,2.87-1.55,4.33-2.28l5.73-2.87c1.15-.58,2.34-1.1,3.51-1.63L163-11.91l5.8-2.27c1.58-.62,3.16-1.19,4.77-1.75,3.69-1.29,7.42-2.51,11.1-3.83l3-1.08c.94-.34,1.87-.76,2.8-1.14,1.58-.64,3.15-1.28,4.7-2l7.18-3.18c1.26-.56,2.49-1.2,3.73-1.81,3.44-1.69,6.91-3.34,10.32-5.08l13.7-7c.74-.38,1.49-.73,2.24-1.08L239-45.24q6-2.8,12-5.63L263.44-56l5.63-2.33c1.07-.44,2.17-.83,3.25-1.24l15.12-5.74c.8-.31,1.6-.56,2.42-.81l8.2-2.57L305.54-71c1-.3,1.9-.58,2.87-.83l16-4.12c3.56-.91,7.17-1.62,10.76-2.39l7.37-1.59c1.11-.24,2.23-.42,3.35-.61l10.5-1.76,3.83-.64c2.63-.44,5.28-.77,7.93-1.13l-.59.08c4-.52,8-1,12-1.28,3.77-.28,7.56-.37,11.34-.42,3.26,0,6.52.12,9.77.21l3.81.1c1,0,1.93.15,2.9.23l5.65.45c1.88.14,3.74.35,5.61.58,1.68.25,3.35.54,5,.91a39.46,39.46,0,0,1,6.17,2c.44.2.87.42,1.29.65-.19.1-.4.19-.61.28l-1.09.48c-3.34,1.37-6.7,2.7-10,4.12-1.77.76-3.57,1.49-5.31,2.32l-3.68,1.74c-.82.39-1.65.75-2.45,1.17-3.49,1.81-7,3.6-10.43,5.51s-7.08,3.85-10.53,5.92l-7.36,4.38c-1.54.92-3.09,1.82-4.62,2.76l-11.8,7.31c-.35.22-.7.47-1,.71l-3.32,2.31c-1.53,1.06-3.07,2.11-4.59,3.19-3.48,2.48-7,4.93-10.46,7.47l-8.16,6c-1.71,1.25-3.35,2.57-5,3.88-2.06,1.65-4.16,3.26-6.19,4.93L316.86-9.9q-6.06,5-12.22,9.89c-4.27,3.39-8.58,6.73-12.9,10.07q-7,5.15-13.95,10.29l-4.66,3.45c-.76.57-1.52,1.16-2.31,1.71L262.2,31.6c-1.85,1.3-3.71,2.55-5.59,3.79-2.5,1.66-5,3.35-7.52,5L240.3,46c-.84.54-1.71,1-2.57,1.54q-3,1.75-6,3.4c-3.64,2-7.44,3.67-11.25,5.29l.42-.18c-4.48,1.87-9.06,3.47-13.62,5.16-.63.23-1.3.4-1.95.6L201.25,63l-5.13,1.58c-3.91,1.22-7.84,2.42-11.73,3.69s-7.84,2.6-11.79,3.82-8.13,2.59-12.22,3.77-8,2.37-12.08,3.45c-8,2.13-16,4.2-24,6.35l-10.1,2.72c-2.39.64-4.81,1.15-7.21,1.72l-4.73,1.12c-.65.15-1.31.24-2,.35L91.7,93c-4.55.49-9.11,1-13.66,1.45l-3.31.33c-1.09.12-2.17.33-3.24.49l-3.56.55c-1.55.24-3.09.55-4.62.88a14.52,14.52,0,0,0-2.65.75,3.78,3.78,0,0,0-1.15.66,1.6,1.6,0,0,0-.71.92,1.72,1.72,0,0,0,.16,1.18,1.39,1.39,0,0,0,.36.59c.2.16.41.31.63.46s.55.25.84.37a12.8,12.8,0,0,0,1.85.45c1.18.2,2.36.35,3.55.5L75,103.67l3.47.52c1.09.17,2.17.39,3.26.6a59.1,59.1,0,0,1,6.87,1.86c4.55,1.43,9.05,3,13.53,4.66s8.85,3.13,13.33,4.51c5.43,1.68,10.87,3.33,16.14,5.46a74.45,74.45,0,0,1,7.49,3.71l4.19,2.41c2,1.15,4,2.31,6,3.45l7.11,4.06c4.25,2.42,8.48,4.82,12.89,6.92,3.05,1.44,6.2,2.66,9.37,3.82s6.29,1.95,9.42,3l9.29,3c2.06.66,4.06,1.45,6.08,2.21l8.07,3,12.35,5.39,1.39.61c.47.21.93.49,1.39.73l7.89,4.14,3.09,1.62c.34.18.7.35,1,.55l6.34,3.82c2.1,1.26,4.22,2.51,6.29,3.83,5.13,3.3,10.14,6.77,15,10.47q4.95,3.84,9.65,8c3.18,2.8,6.16,5.83,9.21,8.76,2.44,2.34,4.85,4.7,7.28,7,4.51,4.36,8.9,8.83,13.32,13.27,1.74,1.76,3.46,3.53,5.18,5.3,2.09,2.13,4.22,4.23,6.27,6.41l7.1,7.56,3.29,3.49c.76.81,1.47,1.67,2.19,2.52,1.53,1.79,3,3.62,4.45,5.47,2.23,2.93,4.34,5.94,6.3,9.05l3.35,5.29c1.54,2.43,2.93,5,4.38,7.44.69,1.21,1.31,2.46,2,3.68,1,1.81,1.93,3.62,2.9,5.42.63,1.18,1.19,2.41,1.78,3.61q1.13,2.34,2.27,4.66c2.73,6.7,5.38,13.44,8.05,20.17,1.16,2.92,2.26,5.85,3.5,8.74l5.76,13.37c.4.92.78,1.85,1.21,2.75,1.08,2.21,2.16,4.43,3.23,6.64,1.62,3.34,3.2,6.69,4.8,10s3.1,6.55,4.64,9.82l1.3,2.76c.5,1.07,1.05,2.11,1.6,3.16s1.28,2.37,2,3.52l-1.83-1c-3.48-1.91-7-3.76-10.51-5.58-1.76-.91-3.52-1.82-5.29-2.7s-3.64-1.79-5.43-2.73l-7-3.68c-1.4-.73-2.76-1.51-4.13-2.29q-5.85-3.31-11.67-6.64c-3.94-2.26-7.91-4.47-11.89-6.67-3.75-2.08-7.57-4.05-11.37-6.06-1.21-.64-2.44-1.22-3.68-1.81l-6.88-3.29c-1.63-.78-3.22-1.64-4.82-2.46L305,329.13c-.59-.3-1.21-.58-1.78-.91-3.5-2-7-4.05-10.51-6.06-3.8-2.19-7.61-4.38-11.44-6.52q-3.21-1.81-6.44-3.61c-1.67-.93-3.39-1.77-5.08-2.66-1.2-.62-2.4-1.24-3.59-1.87-.45-.23-.89-.48-1.34-.69l-6.77-3.12c-3.85-1.78-7.72-3.52-11.59-5.27S238.81,294.83,235,293c-1.23-.6-2.42-1.25-3.62-1.91l-7.11-3.94c-.36-.19-.7-.42-1-.64l-3.25-2-3.62-2.28c-.6-.37-1.2-.73-1.78-1.12l-6.39-4.31q-4.26-2.88-8.36-6A117.74,117.74,0,0,1,183.4,254.9l-3.63-4.25c-.66-.76-1.31-1.53-2-2.29s-1.37-1.69-2-2.56c-1.73-2.26-3.38-4.56-5-6.93s-2.93-4.73-4.3-7.14-2.49-4.76-3.7-7.16c-.44-.85-.88-1.71-1.31-2.57-.32-.62-.57-1.3-.84-1.94-.82-1.88-1.62-3.77-2.46-5.64l-3-6.72c-.27-.59-.59-1.16-.88-1.74l-2.22-4.38c-.8-1.57-1.69-3.09-2.56-4.63-1-1.7-1.93-3.4-2.91-5.09-2.29-4-4.63-7.89-7-11.82-1-1.62-2-3.2-3.05-4.79L135,172.68c-.49-.77-1.07-1.55-1.59-2.29-.86-1.22-1.74-2.41-2.66-3.58-1.73-2.23-3.55-4.38-5.43-6.48s-3.77-4-5.73-5.85c-3.11-3-6.47-5.73-9.86-8.41l-5.31-4.22c-.57-.45-1.17-.85-1.76-1.26l-4.06-2.88c-.66-.46-1.3-1-2-1.39l-3.11-1.94c-1.88-1.16-3.76-2.36-5.66-3.5l-7.74-4.65c-2-1.21-4-2.52-6-3.78q-2.46-1.56-4.9-3.16c-2-1.34-4.11-2.64-6.1-4.05l-6.33-4.48c-.9-.65-1.77-1.35-2.66-2L51,106.33c-1.49-1.17-3-2.36-4.55-3.39l-.84-.49a15.52,15.52,0,0,0-1.65-.77l-1-.32c-.47-.07-1-.13-1.42-.17a1.74,1.74,0,0,0-1.31.54,2.53,2.53,0,0,0-.81,1.15c0,.16-.05.33-.07.49,0,.32.08.64.13,1,.13.53.29,1,.47,1.58a34.13,34.13,0,0,0,2,4.89,42.34,42.34,0,0,0,2.51,3.85c1,1.44,1.9,2.91,2.84,4.37,1.06,1.66,2.15,3.32,3.21,5,2.09,3.25,4.21,6.46,6.3,9.72s4.35,6.78,6.47,10.2c1.08,1.73,2.08,3.5,3.1,5.27.4.71.74,1.48,1.11,2.22s.87,1.7,1.25,2.57c1.78,4,3.51,8,5.32,12,.8,1.74,1.59,3.48,2.44,5.19,1,2,1.94,3.9,2.9,5.86.42.87.84,1.74,1.27,2.6.24.5.51,1,.73,1.52q1,2.35,2.05,4.73c.56,1.61,1.11,3.21,1.66,4.82.4,1.16.72,2.33,1.06,3.51.45,1.6.9,3.19,1.36,4.79.51,1.79.94,3.62,1.41,5.42.79,3.06,1.51,6.13,2.24,9.2.3,1.24.52,2.48.78,3.72.29,1.42.6,2.83.83,4.26q.8,4.78,1.6,9.57c.36,2.08.72,4.14,1.11,6.22A67.67,67.67,0,0,0,99.09,250a74.41,74.41,0,0,0,4.57,9.21c.49.85,1,1.68,1.52,2.5s1.11,1.76,1.7,2.56,1.25,1.7,1.88,2.54c1.76,2.39,3.62,4.71,5.46,7s3.66,4.85,5.36,7.37c1.32,2,2.64,3.92,3.91,5.92a91.74,91.74,0,0,1,6.61,12.52c1.05,2.58,2,5.2,2.87,7.86.42,1.29.8,2.61,1.17,3.91s.77,2.67,1.08,4c.62,2.7,1.25,5.4,1.87,8.09,1,4.27,1.84,8.58,2.75,12.87.83,4,1.77,7.91,2.66,11.86l1.86,8.18q1.33,6,2.18,12c.34,2.61.6,5.21.81,7.83.12,1.57.24,3.14.28,4.72.07,2.82.13,5.63.2,8.45,0,1.31,0,2.61,0,3.93l-.18,8.93c-.09,4.28-.4,8.56-.63,12.84s-.53,8.49-.81,12.74-.43,8.35-.64,12.53-.32,8.1-.45,12.16c-.13,3.83-.22,7.66-.29,11.49s-.18,7.57-.17,11.35q0,6.46,0,12.93c0,2.46.09,4.92.15,7.39l.3,11.81c0,.79.08,1.58.13,2.37.15,2.32.29,4.63.44,6.95.12,2,.25,3.94.37,5.91,0,.77.1,1.52.19,2.29q.72,6.3,1.45,12.59c.1.91.24,1.8.39,2.7q.6,3.51,1.18,7c.2,1.19.39,2.39.61,3.59.34,1.83.72,3.67,1,5.52l.09.85c0,.12,0,.24,0,.36-.7-.63-1.39-1.29-2.08-1.93l-2.5-2.35c-1.49-1.42-3-2.85-4.42-4.33-1.75-1.78-3.51-3.54-5.22-5.35s-3.36-3.47-5-5.26L128.72,535c-.71-.79-1.47-1.57-2.16-2.39l-5.9-7c-1.31-1.54-2.52-3.14-3.76-4.72L112.23,515l-6.45-9.07c-.53-.74-1-1.47-1.52-2.25L100.75,498c-.61-1-1.28-2-1.83-3q-1.31-2.47-2.63-4.93l-2.85-5.35c-.54-1-1-2-1.52-3.06q-1.89-3.87-3.6-7.85c-2.83-6.87-5-14-7.31-21-.53-1.65-1.09-3.28-1.59-4.94-.71-2.33-1.41-4.66-2.12-7-.57-1.86-1.13-3.73-1.7-5.59s-1.13-4-1.69-6.05l-2-7.07c-.38-1.37-.67-2.78-1-4.17l-2-8.4c-.3-1.28-.62-2.55-.88-3.83q-1.41-7-2.81-14c-.31-1.54-.56-3.09-.83-4.64-.52-2.83-1-5.67-1.54-8.5-.2-1.12-.37-2.23-.53-3.35-.45-2.95-.9-5.91-1.34-8.86-.78-5.15-1.48-10.31-2.21-15.46q-.8-6.28-1.6-12.55c-.21-1.63-.36-3.28-.54-4.91-.29-2.7-.58-5.39-.88-8.09-.45-4.18-.93-8.36-1.4-12.54-.43-3.85-.94-7.7-1.41-11.55-.51-4-.91-8.09-1.35-12.13-.42-3.82-.88-7.63-1.28-11.46s-.89-7.68-1.43-11.52-1-7.77-1.72-11.62c-.27-1.5-.54-3-.86-4.46s-.65-3-1-4.48q-1.07-5-2.12-10c-.64-3.07-1.3-6.16-2-9.23-.58-2.76-1-5.56-1.51-8.34-.22-1.77-.46-3.55-.58-5.33q-.24-3.26-.43-6.52c-.12-2.06-.29-4.13-.44-6.2s-.25-3.85-.42-5.77c-.35-4.07-.72-8.15-1.15-12.21s-.85-8.4-1.3-12.6c-.21-2.06-.42-4.12-.6-6.18s-.26-3.89-.37-5.83c-.23-4-.23-8-.32-12.06-.1-3.76-.22-7.54-.58-11.29q-.59-5.94-1.47-11.84c-.11-.71-.29-1.42-.43-2.13-.1-.51-.21-1-.34-1.51a30.43,30.43,0,0,0-1-3.41c-.47-1.24-1-2.46-1.48-3.68s-1.05-2.2-1.6-3.28a68.89,68.89,0,0,0-3.72-6.24q-2.16-3.32-4.5-6.5c-1.46-2-3-4-4.46-5.93s-3-3.81-4.57-5.68c-.82-1-1.61-2-2.43-3S6,79,5.13,78s-1.61-1.78-2.36-2.71C1.86,74.21,1,73.08.08,72-1,70.49-2.12,69-3.18,67.54s-2.23-3.16-3.37-4.72c-.41-.57-.86-1.11-1.32-1.65a11.64,11.64,0,0,0-1.42-1.29c-.48-.41-1-.76-1.5-1.13a11.22,11.22,0,0,0-2.51-1.28l-.37,0a2.7,2.7,0,0,0-1,0,5,5,0,0,0-1.4.44,8.65,8.65,0,0,0-2.39,1.86,22.48,22.48,0,0,0-2.62,3.67c-1,1.64-1.91,3.35-2.77,5.07-.74,1.47-1.32,3-1.94,4.55a52.39,52.39,0,0,0-1.88,5.72A87.91,87.91,0,0,0-30.2,89.59c-.24,1.58-.46,3.16-.58,4.75-.15,1.8-.26,3.6-.43,5.4-.34,3.71-.26,7.45-.29,11.18s-.06,7.28-.1,10.92c0,2.62-.06,5.23,0,7.84.09,3.27.28,6.52.53,9.77.23,3.05.73,6.07,1.2,9.08.44,2.79,1.05,5.54,1.74,8.28s1.41,5.32,2.29,7.93a74.17,74.17,0,0,0,3.19,7.72c1.26,2.66,2.84,5.18,4.29,7.74.74,1.31,1.49,2.63,2.16,4s1.33,2.78,2,4.19,1.05,2.61,1.53,3.93c.57,1.56,1.11,3.12,1.64,4.69,1.06,3.12,2,6.3,2.85,9.47s1.74,6.15,2.45,9.27,1.14,6.33,1.59,9.52c.2,1.74.43,3.47.57,5.22q.28,3.54.54,7.08c.15,2,.26,4,.38,6s.15,3.78.26,5.67.19,3.8.35,5.7c.18,2.11.35,4.23.54,6.35s.35,3.94.55,5.91.37,4.21.64,6.31c.56,4.33,1.12,8.66,1.79,13,.64,4.1,1.42,8.17,2.22,12.23.72,3.62,1.36,7.24,2,10.87.73,4.26,1.47,8.51,2.12,12.78q1.25,8.06,2.61,16.08c.88,5.1,1.66,10.23,2.37,15.36.85,7.17,1.7,14.37,2.13,21.58.45,7.44.72,14.89.65,22.35q-.06,5.71-.17,11.43c-.07,3.8-.3,7.59-.51,11.38-.11,2-.31,4-.47,6s-.35,4-.53,5.95c-.17,1.82-.43,3.63-.64,5.44s-.48,3.57-.72,5.36l.09-.65c-.53,3.8-1,7.61-1.66,11.39-.33,1.95-.64,3.89-1,5.82-.42,2.22-.86,4.42-1.33,6.63-.42,2-.87,4-1.32,6-.5,2.2-1.09,4.39-1.66,6.58-.49,1.89-1.08,3.75-1.63,5.61s-1.18,3.76-1.78,5.64-1.13,3.59-1.64,5.4c-.32,1.16-.64,2.33-1,3.5s-.58,2.29-.86,3.44c-1,4.1-1.88,8.26-2.8,12.39-.45,2-.81,4.08-1.21,6.12s-.74,4.09-1.11,6.13c-.68,3.8-1.21,7.62-1.75,11.44-.37,2.63-.65,5.29-.94,7.94-.26,2.35-.54,4.7-.8,7-.58,5.12-1.11,10.26-1.63,15.4q-.24,1.74-.54,3.48c-.15.87-.3,1.74-.46,2.62-.09.45-.18.9-.29,1.35-.3-.55-.58-1.12-.84-1.7a67.56,67.56,0,0,1-3-10.12c-.87-3.68-1.67-7.38-2.5-11.07l-1.38-6.12c-.44-1.94-1-3.86-1.47-5.78-.93-3.57-1.74-7.17-2.57-10.76-1.82-7.81-3.86-15.57-5.82-23.34-1-3.89-1.82-7.83-2.89-11.7s-2.14-7.72-3.29-11.56q-1.55-5.19-3.08-10.38c-.92-3.1-1.75-6.21-2.65-9.31-1.81-6.23-3.61-12.47-5.28-18.74q-1.41-5.28-2.81-10.55c-.81-3-1.54-6-2.3-9s-1.49-6.13-2.05-9.22c-.29-1.62-.62-3.23-.87-4.86l-.81-5.37c-.93-7.82-1.83-15.63-2.54-23.47-.36-4.06-.75-8.11-1-12.18-.29-4.24-.54-8.48-.8-12.72-.52-8.32-1-16.65-1.61-25q-.46-6.19-.8-12.4c-.23-4.2-.52-8.39-.8-12.59-.22-3.3-.53-6.61-.81-9.91-.13-1.5-.31-3-.48-4.5-.14-1.33-.29-2.66-.47-4-.88-6.66-1.89-13.28-2.9-19.91-.47-3.73-.91-7.46-1.48-11.17s-1.16-7.51-1.72-11.26c-.38-3.05-.76-6.1-1.11-9.15-.15-1.27-.28-2.54-.41-3.82-.14-1.48-.31-3-.39-4.43-.09-1.65-.18-3.29-.26-4.94,0-.71,0-1.43,0-2.14,0-1,0-2.09,0-3.13q-.06-4.17.13-8.34c.07-1.45.09-2.91.2-4.36.13-1.86.27-3.73.4-5.59.19-2.68.36-5.36.64-8q.54-5.2,1.15-10.4c.32-2.78.69-5.54,1-8.31s.78-5.37,1.26-8c.57-3.27,1.17-6.53,1.77-9.79,1.1-5.86,2.65-11.62,4.12-17.4,1.54-6.07,3.15-12.11,5-18.1.78-2.57,1.55-5.13,2.42-7.67.5-1.44,1-2.9,1.5-4.33q.91-2.41,1.85-4.85c.68-1.62,1.36-3.24,2.15-4.81.43-.87.84-1.77,1.32-2.62L-47,93.83c1-1.69,2-3.32,3.08-5s2.28-3.5,3.42-5.25c2.08-3.15,4-6.42,5.78-9.74,1-1.78,1.95-3.56,2.87-5.36l1.44-2.82c.53-1,1-2.14,1.47-3.21,1.73-3.73,3.33-7.55,4.75-11.42.44-1.2.88-2.38,1.27-3.6a37.9,37.9,0,0,0,1.48-7.14c.14-1.29.23-2.54.25-3.83,0-.45,0-.9,0-1.35,0-1-.12-2.1-.18-3.14-.13-1.86-.37-3.7-.61-5.55s-.68-3.87-1.11-5.78-1-3.55-1.52-5.31c-.25-.84-.52-1.66-.81-2.48-.39-1.11-.83-2.19-1.27-3.28-.65-1.6-1.33-3.19-2-4.78-.36-.85-.71-1.72-1.1-2.56C-30.42,1.12-31,0-31.49-1.18c-.45-.95-1-1.88-1.44-2.81-.37-.72-.74-1.43-1.12-2.14-1.08-2-2.2-4.06-3.32-6.08-.48-.86-1.05-1.67-1.58-2.49s-.88-1.36-1.35-2l-1.87-2.64c-.75-1-1.61-2-2.42-3-1.59-2-3.29-3.87-5-5.77.94.49,1.89,1,2.85,1.42,3.66,1.77,7.49,3.4,10.8,5.79a19.07,19.07,0,0,1,2,2c.29.34.56.69.83,1,1,1.37,1.87,2.77,2.77,4.19,1,1.67,2,3.43,2.91,5.15,1.85,3.3,3.72,6.6,5.52,9.93C-21,3-20.06,4.63-19.11,6.23s1.94,3.36,2.86,5.06q1.17,2.13,2.25,4.32c.84,1.7,1.66,3.4,2.63,5A22,22,0,0,0-10,22.71a23.88,23.88,0,0,0,1.8,2.09,8.73,8.73,0,0,0,2,1.51,2.43,2.43,0,0,0,1.5.21c1.16-.08,1.82-1.06,2.35-2a11.94,11.94,0,0,0,1-2.84c.22-.83.38-1.68.56-2.53.35-1.66.7-3.31,1.09-5C1.21,10.77,2.23,7.36,3.32,4c.48-1.47,1-2.94,1.42-4.41C5.33-2.33,5.83-4.27,6.4-6.2c.32-1.11.6-2.24.89-3.37.35-1.33.73-2.64,1.13-3.95q1.19-4,2.53-7.9C12.76-26.7,14.9-31.86,17-37q3.52-8.67,6.79-17.43c.92-2.47,1.68-5,2.62-7.44s2-5,3-7.53c1-2.18,2-4.36,3-6.53.41-.91.88-1.79,1.33-2.67s.87-1.78,1.37-2.62c2.37-4,4.79-8,7.36-12s5.35-8.09,8.08-12.09c1.45-2.11,2.9-4.2,4.39-6.29,1.33-1.86,2.71-3.68,4.08-5.51a47,47,0,0,1,5.57-6l3.69-3.24c.8-.7,1.66-1.32,2.5-2l3-2.31,4.67-3.34c.89-.64,1.85-1.2,2.78-1.79.74-.48,1.48-.93,2.23-1.39,1.61-1,3.22-2,4.84-2.91l7.15-4.14c1.2-.69,2.43-1.32,3.66-2l7.43-3.87c1.33-.69,2.72-1.28,4.08-1.9l6-2.78,6-2.29c1.75-.67,3.51-1.26,5.28-1.85l12.21-4.1c3.93-1.32,7.9-2.55,11.84-3.82,4.18-1.35,8.34-2.75,12.51-4.13,3.6-1.2,7.16-2.52,10.74-3.79,2.08-.73,4.18-1.39,6.27-2.09,1.67-.56,3.33-1.12,5-1.64l6.86-2.14c.58-.18,1.17-.33,1.75-.49l4.89-1.35c1.61-.44,3.21-.86,4.82-1.26,2.11-.52,4.21-1.06,6.35-1.48,4-.81,8-1.57,12.07-2.24,1.87-.31,3.74-.66,5.62-.92l6.68-.91c2.94-.35,5.88-.75,8.83-1ZM-111.19-94.54l.25.32-.25-.32Zm30.06,32.31c.06.09.13.17.19.25-.06-.08-.13-.16-.19-.25ZM-32.46,7.69l.21.51-.21-.51Zm324.11,2.45-.24.18.24-.18ZM-5.42,23.23l-.11.08.11-.08ZM92,27.3l-.13.09L92,27.3ZM17.18,39.12l-.17.13.17-.13Zm-2.56,2.39c-.07.09-.13.18-.2.26l.2-.26Zm58.2,5a.86.86,0,0,1-.07.1.86.86,0,0,0,.07-.1ZM-13.93,60h0Zm-.94.24-.15.06.15-.06ZM57.3,74.53l-.12.15.12-.15Zm-9.14,1.68.33,0-.33,0Zm27,27.48.15,0-.15,0ZM-4.17,225.35c0,.09,0,.18,0,.27a2.51,2.51,0,0,1,0-.27ZM101.33,249s0,.11.08.16l-.08-.16Zm.09.21a.3.3,0,0,1,0,.08.3.3,0,0,0,0-.08Zm-170,21.23a1.11,1.11,0,0,1,0,.17,1.11,1.11,0,0,0,0-.17Zm215.09,97.48.06.44-.06-.44ZM-11.45,568.54l0,.25,0-.25ZM278.1-188.66l-.09,0-.29-.12-.09,0,.47.19Z" transform="translate(147.31 195.15)"/><rect class="cls-4" x="147.31" y="195.15" width="470.72" height="836.84"/><path class="cls-5" d="M244.64,1233.28c.93-.07,1.85-.15,2.77-.25,2-.21,4-.4,6-.69s4.12-.54,6.16-.93c2.22-.42,4.46-.81,6.67-1.27l7.11-1.5c1.86-.39,3.69-.88,5.54-1.32s4-1,6-1.51,3.94-1,5.91-1.59,4.15-1.26,6.21-1.94c1.59-.51,3.16-1,4.73-1.59l4.17-1.48c.77-.27,1.56-.53,2.32-.83,3.87-1.51,7.74-3,11.58-4.6l6.1-2.53c2.17-.9,4.3-1.87,6.45-2.81,7.36-3.21,14.84-6.19,22.28-9.22q6.24-2.54,12.44-5.17c3.34-1.41,6.71-2.75,10-4.3l6-2.86c.59-.27,1.16-.61,1.73-.93l4.16-2.31,3.3-1.82,1-.58L400,1177c1.24-.77,2.51-1.52,3.72-2.35l6.81-4.68c1.48-1,2.93-2.09,4.39-3.14,1.75-1.26,3.46-2.58,5.16-3.89.62-.47,1.2-1,1.79-1.5l2.69-2.27c.49-.42,1-.86,1.44-1.3l3.48-3.15c1.44-1.3,2.76-2.75,4.12-4.15a50.68,50.68,0,0,0,3.86-4.53c1-1.29,1.85-2.66,2.71-4q3.54-5.55,6.81-11.22c1-1.77,2-3.55,3-5.33s1.91-3.32,2.83-5q3.11-5.61,6-11.31c.41-.78.79-1.58,1.18-2.37s.69-1.36,1-2.06c.49-1.18,1-2.36,1.48-3.53.41-1,.75-1.94,1.12-2.92,1.35-3.59,2.66-7.2,3.78-10.88.53-1.75,1.07-3.48,1.53-5.25.51-1.93,1-3.87,1.6-5.79,2.36-8.06,5-16,7.52-24q1.75-5.58,3.2-11.25c.92-3.59,1.68-7.24,2.35-10.88.5-2.73,1.05-5.44,1.64-8.15s1.26-5.33,1.86-8,1.07-5.13,1.51-7.72c.2-1.23.38-2.48.56-3.72a31.58,31.58,0,0,1,.81-4.23,4.78,4.78,0,0,1,.32-.64l0,0,.58.58a16.74,16.74,0,0,1,1.11,1.38c.39.57.76,1.15,1.14,1.74.8,1.28,1.5,2.64,2.21,4s1.51,2.87,2.28,4.3,1.51,2.63,2.29,3.93c1.78,3,3.69,5.85,5.47,8.8,1.67,2.77,3.43,5.48,5.13,8.23A98.41,98.41,0,0,0,516,1039c.45.59.93,1.15,1.41,1.72.3.35.61.69.93,1,.56.59,1.08,1.1,1.7,1.66a14.82,14.82,0,0,0,1.21.87c.81.54,1.64,1,2.48,1.48s1.46.75,2.2,1.08c3.1,1.38,6.26,2.63,9.38,4,1.48.63,2.93,1.31,4.38,2a39.22,39.22,0,0,1,3.83,2.3q2.4,1.67,4.76,3.4c.7.52,1.37,1.08,2.05,1.62l2.82,2.22c3.15,2.46,6.52,4.64,9.85,6.84,1.6,1.09,3.16,2.2,4.7,3.37a30.31,30.31,0,0,1,4.22,4.18c1.25,1.42,2.5,2.84,3.72,4.29s2.37,2.74,3.62,4.06a49.76,49.76,0,0,0,4.52,4.06q2.18,1.81,4.49,3.48c1.49,1.07,3,2.1,4.5,3.16.66.48,1.33,1,2,1.46a30,30,0,0,1,2.32,2c.62.58,1.19,1.22,1.77,1.83s1.38,1.46,2.06,2.2c1.09,1.19,2.19,2.37,3.27,3.57,2.45,2.8,4.69,5.8,7.22,8.54q2.18,2.37,4.52,4.61l2.29,2.18c2.59,3.48,5.18,7,7.72,10.45,1.25,1.72,2.5,3.42,3.71,5.17l1.2,1.74c.59,1,1.18,2,1.79,3a1.6,1.6,0,0,0,.61.6q1.35,2.17,2.52,4.44c1.76,3.63,3.2,7.4,4.65,11.16A2,2,0,0,0,643,1160a2,2,0,0,0,1.23-2.56c-.85-2.21-1.73-4.41-2.6-6.61a67.09,67.09,0,0,0-4.14-8.58c-.72-1.26-1.51-2.48-2.31-3.69-1.13-2-2.3-4-3.46-6.07-.74-1.28-1.48-2.55-2.27-3.8s-1.75-2.61-2.68-3.87-1.92-2.32-2.92-3.44-2-2.12-3-3.16c-2-2.77-3.95-5.55-5.8-8.41-2.24-3.45-4.43-6.94-7-10.19-.62-.8-1.21-1.62-1.89-2.37l-2.3-2.54c-.59-.66-1.24-1.25-1.88-1.86s-1.52-1.45-2.33-2.13l-2.56-2.17c-.28-.24-.61-.46-.91-.69l-1.7-1.27c-1.64-1.25-3.31-2.46-5-3.66-3.37-2.43-6.57-5.06-9.83-7.63l-1.32-1q-2.07-2.38-4.22-4.68a31.37,31.37,0,0,0-5-4c-1.89-1.33-3.84-2.59-5.77-3.86-1.38-.93-2.76-1.88-4.11-2.84-1.6-1.14-3.15-2.35-4.69-3.55l-1.35-1c-2.71-2.81-5.27-5.77-8-8.55-1.83-1.86-3.72-3.68-5.57-5.53-1-1-1.94-1.88-2.85-2.87l-2.63-2.85-2.32-2.83c-.7-.86-1.34-1.78-2-2.67-1.37-1.87-2.61-3.84-3.83-5.81-.6-1-1.21-1.92-1.8-2.9s-1.32-2.13-1.93-3.22l-1.85-3.31c-.61-1.11-1.15-2.25-1.73-3.38q-1.08-2.13-2.14-4.28c-.71-1.43-1.27-2.94-1.84-4.43s-1.14-3-1.67-4.6-.95-3.32-1.37-5c-.14-.74-.29-1.48-.44-2.22-.18-.92-.29-1.85-.44-2.77s-.27-1.74-.36-2.62c-.05-.54-.1-1.08-.16-1.63a27.17,27.17,0,0,1,0-3.72,37.41,37.41,0,0,1,1.27-7.58l1.29-4.28-.2.57c.59-1.71,1.13-3.44,1.77-5.14.85-2.25,1.7-4.5,2.6-6.73.63-1.57,1.32-3.14,2-4.67.9-1.93,1.78-3.87,2.72-5.78.54-1.11,1.09-2.22,1.64-3.34.39-.79.83-1.56,1.25-2.34,1.07-2,2.18-3.95,3.31-5.9,1-1.65,1.85-3.32,2.77-5,.35-.64.72-1.27,1.05-1.93l1.89-3.86a76.74,76.74,0,0,0,4.3-11.14c.6-1.94,1.19-3.87,1.73-5.82.32-1.17.63-2.34,1-3.51s.5-2,.74-3.08c.91-3.81,1.81-7.63,2.56-11.48q1.22-6.18,2.32-12.37c.38-2.13.78-4.27,1.16-6.41.13-.71.22-1.44.33-2.15.24-1.53.47-3.06.7-4.59.29-1.95.45-3.93.67-5.89.23-2.13.44-4.26.65-6.39.39-3.87.63-7.75.83-11.62s.4-8,.5-12c0-2,.12-3.92.12-5.88,0-2.12,0-4.24,0-6.36s0-4.2-.06-6.29l-.12-3.43c0-1,0-1.95-.11-2.91-.15-1.94-.25-3.88-.44-5.82s-.33-4-.6-6-.46-3.88-.81-5.79c-.38-2.07-.74-4.14-1.15-6.2-.91-4.52-1.82-9-2.88-13.51-1-4.24-2.1-8.46-3-12.72-.46-2.13-.9-4.26-1.35-6.39s-.93-4-1.41-6q-1.56-6.67-3-13.37c-.33-1.66-.65-3.31-1-5-.41-2.23-.78-4.47-1.15-6.71-.62-3.83-1.17-7.67-1.7-11.52-.56-4.08-1.07-8.16-1.64-12.24s-1.17-8-1.73-12.07q-1.74-12.61-3.34-25.25c-1-8.14-2.37-16.24-3.75-24.33-.7-4.07-1.46-8.13-2.21-12.19-.36-1.92-.74-3.84-1.11-5.76s-.9-4.09-1.37-6.12c-.42-1.86-.94-3.7-1.41-5.54s-1.12-3.84-1.68-5.76c-.28-1-.63-1.88-.94-2.82s-.63-1.89-.94-2.83c-.66-2-1.33-3.94-2-5.9-1.28-3.79-2.65-7.56-4-11.33q-2.12-6-4.37-11.92c-1.45-3.88-2.93-7.76-4.37-11.65s-2.94-7.76-4.44-11.64-3-7.77-4.38-11.68c-1.35-3.69-2.48-7.47-3.74-11.19-2.58-7.64-5.24-15.24-7.67-22.93-1.17-3.71-2.34-7.41-3.57-11.1-.61-1.81-1.23-3.61-1.84-5.42s-1.08-3.58-1.62-5.38c-1.16-3.87-2.28-7.76-3.45-11.64-1-3.39-2-6.79-3.35-10.07a36.16,36.16,0,0,0-1.59-3.39c-.24-.44-.49-.86-.76-1.28a4.92,4.92,0,0,0-.57-.71,2.61,2.61,0,0,0-1.32-.48,1.67,1.67,0,0,0-1.58.53,5.92,5.92,0,0,0-.61.81c-.12.37-.25.73-.37,1.1a24.36,24.36,0,0,0-.84,4.23c-.25,1.67-.49,3.33-.69,5-.16,1.28-.22,2.56-.3,3.84-.12,1.73-.22,3.47-.33,5.2-.36,5.83-.67,11.65-1,17.48-.51,7.72-1.23,15.42-2.26,23.08-.26,1.95-.51,3.89-.82,5.83-.36,2.24-.71,4.49-1.08,6.73-.67,4.06-1.36,8.13-2.31,12.14s-2,8.16-2.93,12.27c-.43,2-.85,3.93-1.23,5.91-.2,1-.39,2.1-.59,3.15-.24,1.25-.39,2.52-.58,3.77q-1.78,11.54-2.53,23.17c-.28,4.13-.57,8.25-.77,12.38-.09,2-.18,4-.22,6.08q-.08,3.39-.1,6.78c0,4.25.05,8.49.19,12.74s.41,8.41.66,12.61.61,8.27,1,12.4c.18,1.91.4,3.82.6,5.72.09.84.22,1.68.33,2.51.14,1.09.26,2.18.42,3.26.63,4.16,1.29,8.3,2,12.44.78,4.34,1.64,8.65,2.54,13,.67,3.19,1.48,6.35,2.23,9.53s1.53,6.21,2.28,9.33,1.46,6.26,2.2,9.39,1.56,6.35,2.38,9.51c.75,2.91,1.48,5.84,2.31,8.73q1.43,4.95,2.84,9.91c1.75,6.23,3.05,12.59,4.36,18.92,0-.18-.07-.36-.11-.54,1.4,7.92,2.87,15.84,3.84,23.83.54,4.36,1.1,8.7,1.76,13,.3,2,.61,4,.92,6,.14.86.33,1.71.5,2.56s.38,2,.59,2.92c.41,1.88.79,3.76,1.28,5.62.25.94.48,1.88.76,2.81.35,1.11.7,2.21,1.06,3.31,1.22,3.66,2.52,7.3,3.86,10.91s2.83,7.42,4.52,11c.44.93.85,1.87,1.32,2.78l1.37,2.62c.4.78.87,1.53,1.3,2.28.54.93,1.13,1.83,1.71,2.73,1.28,2,2.58,4,3.84,5.94,1.12,1.77,2.09,3.61,3,5.47l0-.09a90.15,90.15,0,0,1,4.43,11.55c.69,2.18,1.33,4.36,1.92,6.58.52,2,1,4,1.41,6.08q1.23,6.85,2,13.76c.48,4.18.77,8.38,1.09,12.57.35,4.47.73,8.93,1.06,13.39.07,1,0,2,0,2.94s0,2.23.05,3.34c.06,2,0,4.08-.1,6.13a87.12,87.12,0,0,1-1.41,9.64c-.33,1.7-.71,3.38-1.12,5.06s-.9,3-1.4,4.55-1.23,3.11-1.92,4.64a36,36,0,0,1-2.35,4.48,13,13,0,0,1-1.43,1.7,5.35,5.35,0,0,1-.7.47c-.18.08-.36.14-.54.2h-.3l-.64-.22a16.87,16.87,0,0,1-2.26-1.29l.3.19-.68-.5a13.06,13.06,0,0,1-1.65-1.5c-2-2.23-3.77-4.57-5.67-6.85-.8-1-1.64-1.9-2.48-2.82-1.06-1.16-2.09-2.34-3.2-3.43-2.18-2.15-4.39-4.24-6.5-6.44s-4.23-4.34-6.26-6.6c-1.16-1.34-2.34-2.66-3.51-4l.06.07q-3.45-4-6.65-8.18c-1.13-1.48-2.18-3-3.18-4.57s-1.84-3.09-2.67-4.7l0,0c-.35-.74-.71-1.47-1-2.22l-.61-1.48c-.26-.61-.42-1.27-.62-1.9-.31-.94-.53-1.9-.79-2.85s-.46-2-.69-3c-.34-1.76-.68-3.52-1-5.28-.39-2-.65-4.1-.93-6.16-.51-3.75-.8-7.54-1.09-11.3-.3-4-.6-7.93-1.07-11.89-.49-4.12-1.2-8.21-1.85-12.31s-1.33-7.89-1.94-11.84c-.64-4.2-1.29-8.4-1.85-12.61s-1.09-8.19-1.59-12.28c-.21-1.7-.43-3.39-.75-5.07-.2-1.1-.41-2.21-.61-3.31s-.49-2.07-.74-3.09c-.35-1.46-.66-2.93-1.07-4.38-.61-2.18-1.23-4.36-1.84-6.55-.95-3.36-1.89-6.74-2.82-10.11q-1.35-4.82-2.71-9.63c-.25-.9-.45-1.82-.67-2.73s-.36-1.52-.53-2.28c-.4-1.85-.8-3.7-1.18-5.55,0,.16.06.31.1.47l-1.32-6.36c-.7-3.61-1.31-7.23-2-10.85-.71-3.86-1.4-7.73-2.1-11.59s-1.34-7.51-2.08-11.25c-.82-4.24-1.65-8.47-2.42-12.72q-1.11-6-2.19-12c-.73-4-1.42-8.08-2.22-12.1-1.65-8.24-3.3-16.48-5.13-24.68-.53-2.4-1.07-4.8-1.6-7.2-.42-1.84-.77-3.7-1.24-5.53q-1.71-6.76-3.43-13.53c-.3-1.19-.64-2.37-1-3.55-.8-2.95-1.61-5.89-2.42-8.84-1-3.73-2.21-7.41-3.36-11.11-.64-2.07-1.28-4.15-1.93-6.22-.49-1.59-1.11-3.14-1.67-4.71-1.37-3.85-2.72-7.69-4.17-11.51s-2.95-7.87-4.52-11.77C376.79,570,374.4,564,371.76,558a150,150,0,0,0-7.61-14.61c-1.22-2.1-2.54-4.13-3.83-6.18l-3.45-5.51c-.26-.42-.58-.81-.87-1.22l-2.78-3.87-2.2-3.06c-.22-.32-.44-.64-.69-.94l-4.94-6c-.8-1-1.6-1.93-2.39-2.9-.36-.44-.72-.89-1.11-1.32l-4.33-4.76-4.29-4.72c-.37-.41-.78-.79-1.17-1.19l-3.53-3.6c-1.13-1.15-2.24-2.3-3.4-3.4l-5.33-5.06c-1.57-1.5-3.23-2.93-4.84-4.39s-3.19-2.83-4.79-4.23q-4.2-3.7-8.62-7.16L300,472.6a16.54,16.54,0,0,0-1.58-1.17,4.88,4.88,0,0,0-1.51-.76,1.67,1.67,0,0,0-1.28-.08,1.77,1.77,0,0,0-1.07,1.23,3.31,3.31,0,0,0-.42,1.61c0,.35,0,.7,0,1.05.11.65.22,1.3.32,1.95s.31,1.5.5,2.25c.42,1.66.87,3.32,1.27,5l2.52,10.72,2.43,13.33c.22,1.19.33,2.39.48,3.59l1.2,9.35c.17,1.31.38,2.62.5,3.94.21,2.26.41,4.51.62,6.77.35,3.89.76,7.78,1,11.68q.53,7.77,1.06,15.53c.07,1.08.11,2.15.16,3.24.14,3.06.27,6.13.41,9.2q.52,11.81.68,23.61c.07,4.11.12,8.21.12,12.31s0,8.48,0,12.72l.09,7.9c0,1.71.14,3.41.21,5.12q.18,3.69.34,7.37c0,.39.06.78.1,1.17.13,1.48.27,3,.4,4.45l.57,6.12c.13,1.39.36,2.78.56,4.16s.43,2.76.67,4.14c.5,2.93,1.15,5.82,1.84,8.71,1.31,5.44,3.06,10.76,4.69,16.1,1.16,3.77,2.31,7.52,3.47,11.28s2.13,7.53,3.32,11.25c.65,2.06,1.31,4.11,2,6.16.28.9.57,1.79.85,2.68.47,1.48,1,2.94,1.56,4.39a105.2,105.2,0,0,0,6,13.25A88.4,88.4,0,0,0,342,745.76c1.41,1.85,2.91,3.63,4.38,5.43,1,1.25,2.14,2.43,3.22,3.64s2.29,2.52,3.47,3.74,2.48,2.62,3.71,3.94c1.39,1.59,2.8,3.16,4.12,4.81a73.56,73.56,0,0,1,7.64,11.89c.9,1.83,1.71,3.68,2.44,5.57.84,2.17,1.48,4.4,2.1,6.64s1.17,4.55,1.72,6.83c.33,1.36.66,2.72,1,4.08.27,1.14.54,2.28.8,3.41.18.73.33,1.48.53,2.2q.78,2.89,1.58,5.77c.42,1.54.92,3.07,1.39,4.59,1.08,3.54,2.25,7,3.41,10.56.48,1.45,1,2.88,1.52,4.32.56,1.59,1.12,3.17,1.76,4.72l1.36,3.3c.19.45.37.88.59,1.31l1.53,3.06c.32.63.62,1.29,1,1.91q2.83,5,5.69,10c1.6,2.81,3.08,5.7,4.54,8.58l0-.08.2.4.17.34c.33.64.66,1.28,1,1.93l-.07-.15.14.28.17.34c1.09,2.16,2.17,4.31,3.36,6.41.6,1,1.16,2.11,1.81,3.11s1.45,2.32,2.23,3.43q4.45,6.35,9,12.6c1.33,1.82,2.69,3.62,4,5.43,1.52,2.06,3,4.12,4.55,6.17,1.37,1.83,2.7,3.68,4.09,5.5l1.67,2.19a15.44,15.44,0,0,1,1.38,2.27c.34.72.67,1.45,1,2.19-.3-.14-.61-.28-.9-.44a18.1,18.1,0,0,1-1.71-1q-4.26-2.85-8.53-5.66c-2.24-1.48-4.57-2.81-6.86-4.21s-4.52-2.59-6.78-3.87-4.7-2.59-7.06-3.87q-3.14-1.7-6.31-3.32c-2.53-1.28-5.07-2.54-7.57-3.86l-5-2.62c-.9-.48-1.85-.91-2.72-1.43L375,883.58c-3.18-2.13-6.36-4.26-9.51-6.45a110.05,110.05,0,0,1-19-16.84l0,0c-1.25-1.44-2.52-2.87-3.67-4.4l-2.13-2.83c-1.17-1.55-2.36-3.08-3.48-4.66l-4.19-5.92c-1.33-1.88-2.6-3.8-3.9-5.7-1-1.46-2-2.93-3-4.39-.6-.89-1.19-1.78-1.79-2.66s-.91-1.51-1.36-2.26l-2.19-3.62c-.27-.45-.56-.9-.8-1.36l-3.77-7c-.92-1.74-1.82-3.5-2.72-5.26s-1.92-3.37-2.92-5l-2.1-3.52c-.66-1.11-1.37-2.18-2.09-3.26a115.17,115.17,0,0,0-10.68-13.72c-1.64-1.82-3.37-3.55-5.07-5.3-2.44-2.51-4.91-5-7.47-7.38a117,117,0,0,0-21.12-15.4l-6.76-4c-1.55-.91-3.15-1.73-4.73-2.58l-5.55-3c-.59-.32-1.22-.57-1.82-.85l-4.52-2.13c-1.38-.65-2.75-1.35-4.16-1.92L226.71,739c-3.91-1.56-7.88-3-11.83-4.46-3.8-1.42-7.59-2.89-11.38-4.35-1.42-.54-2.79-1.19-4.17-1.8l-6.38-2.8c-.59-.26-1.18-.56-1.76-.83l-3.8-1.81c-1.71-.81-3.43-1.61-5.12-2.44-3.78-1.85-7.57-3.69-11.34-5.55l-7.13-3.52c-1.55-.77-3.17-1.4-4.76-2.09l-6.21-2.67c-2-.84-3.94-1.58-5.91-2.37-1.43-.57-2.88-1.11-4.29-1.74l-7.74-3.46c-3.92-1.75-7.78-3.62-11.67-5.46-3.35-1.58-6.65-3.26-10-4.88l-6.19-3c-1.58-.76-3.14-1.56-4.75-2.27-4.09-1.82-8.16-3.64-12.3-5.37-4-1.66-8-3.39-11.92-5.13-2.92-1.28-5.8-2.63-8.7-4-2.61-1.18-5.26-2.33-7.82-3.63l-.23-.17A1.92,1.92,0,0,0,60,664.8a1.8,1.8,0,0,0-1.3.64l-.07.1a2.1,2.1,0,0,0-.47,1.4,2,2,0,0,0,1.06,1.58l1,.55.61.48c.65.6,1.29,1.23,1.89,1.89.78.9,1.52,1.82,2.25,2.77s1.49,2.13,2.2,3.22c.88,1.36,1.73,2.73,2.51,4.14q2.3,4.09,4.58,8.18,3.26,5.85,6.55,11.69c2,3.53,4.08,7,5.92,10.6L93.79,726q5.33,11.28,10.57,22.58c.47,1,.93,2,1.39,3,.34.73.65,1.48,1,2.17,1.28,2.27,2.56,4.53,3.83,6.8.76,1.33,1.57,2.62,2.36,3.92l3.75,6.09c.45.72.94,1.43,1.41,2.14l2.18,3.31c1.18,1.8,2.49,3.52,3.75,5.27,2.29,3.2,4.65,6.35,7.21,9.35,1.71,2,3.5,3.93,5.31,5.85,1.16,1.23,2.33,2.47,3.57,3.63l10.76,10.07c1,.91,2,1.79,3,2.68l6.82,6.14c5.84,5.26,11.74,10.47,17.72,15.57l6,5.1c3.42,2.92,6.82,5.87,10.35,8.67,4.23,3.37,8.72,6.42,13.24,9.39,2.41,1.58,4.88,3.08,7.37,4.54,1.25.74,2.51,1.45,3.77,2.17s2.55,1.47,3.85,2.13l11.86,6.06c.46.23,1,.42,1.44.62l3.43,1.5,7.93,3.45c1,.43,1.94.77,2.93,1.12l8.52,3,3.21,1.12c.54.19,1.09.41,1.64.57l6.23,1.81,6.76,2c.38.11.77.2,1.16.29l3.8.9,6.26,1.48c2.73.65,5.48,1.17,8.21,1.82s5.23,1.45,7.81,2.3a124.08,124.08,0,0,1,11.53,4.74l6.36,3q5.63,2.63,11.24,5.28c2.41,1.13,4.82,2.28,7.27,3.32a73,73,0,0,0,7.05,2.52c1.41.45,2.86.8,4.3,1.17,4,1,8.09,1.9,12.15,2.8,3.79.83,7.56,1.8,11.3,2.83q6.16,1.7,12.36,3.24c1.72.43,3.44.81,5.17,1.19,1,.23,2.09.38,3.13.56.28,0,.55.07.82.1l2.78.29c.79.08,1.59.13,2.38.18,1,.06,1.94.15,2.9.19l6.07.23,3.56.12-.69.18c-1,.27-2.09.51-3.14.74l-5.12,1.12q-6,1-12.09,2l-3.87.67c-.51.09-1,.17-1.51.28l-7.45,1.67-2.56.58c-.47.1-.93.28-1.39.42l-8.59,2.62c-4.11,1.26-8.16,2.72-12.22,4.11-7.83,2.67-15.68,5.29-23.5,8-4,1.35-7.88,2.84-11.82,4.28s-8,3.07-11.93,4.61-7.66,3.08-11.49,4.62-7.63,3-11.45,4.49c-3.64,1.41-7.3,2.79-10.94,4.18-.62.23-1.22.54-1.82.81l-3.92,1.76-3.72,1.68c-1.28.57-2.53,1.19-3.79,1.81q-3.3,1.65-6.54,3.44c-2.41,1.33-4.74,2.79-7.05,4.29-2.86,1.87-5.64,3.85-8.38,5.87-3.57,2.63-7.12,5.27-10.64,8l-5.47,4.17c-1.51,1.14-3,2.39-4.41,3.57l-5.74,4.66c-1.19,1-2.34,2-3.51,3q-8,6.78-16,13.53c-2.39,2-4.7,4.14-7,6.21s-4.38,4-6.55,5.94q-6.47,5.9-12.8,11.94c-2.23,2.12-4.43,4.27-6.7,6.35l-7.65,7c-3.07,2.61-6.12,5.27-9.24,7.84l-10.06,8.3c-1.7,1.4-3.45,2.76-5.17,4.13-1.24,1-2.47,2-3.77,2.94l-6.6,4.73c-1.36,1-2.7,2-4.08,2.92l-12.37,8.56c-1,.7-2.07,1.36-3.12,2l-7.17,4.63c-1.26.81-2.54,1.58-3.82,2.35-1.77,1.08-3.52,2.22-5.34,3.23l-6.13,3.43c-.68.38-1.38.71-2.07,1.07l-3,1.5c-3.44,1.69-6.89,3.36-10.29,5.12a7.44,7.44,0,0,0-3,2.41,2.27,2.27,0,0,0-.46,1.44,2.9,2.9,0,0,0,.49,1.38c.1.12.2.23.29.35a3.66,3.66,0,0,0,1.31,1.06,14.2,14.2,0,0,0,2.72,1.31,30.06,30.06,0,0,0,3,1,44,44,0,0,0,5.57,1.15,71.61,71.61,0,0,0,7.47.59c1,0,2,.07,3,.09l8.25.11c.39,0,.79,0,1.18,0l3.69-.15,7.56-.31c.93,0,2-.15,2.89-.22,1.42-.12,2.83-.26,4.24-.4,2.86-.29,5.7-.68,8.54-1.12,3-.47,6-1.07,9-1.67,2.69-.55,5.4-1.08,8.08-1.72l14.45-3.47c1-.24,2-.46,3-.74l7.56-2.21c3.53-1,7.08-2,10.57-3.14l15.62-5.23c.82-.27,1.62-.56,2.42-.87l7.68-3,7.56-3c1-.37,1.88-.73,2.8-1.16l14.67-6.8c1-.46,2-.9,3-1.39l5.61-2.81,12.41-6.22c1.2-.6,2.35-1.29,3.52-2l8-4.47,6.68-3.74c.85-.48,1.69-.95,2.53-1.46l12.3-7.52c2.71-1.66,5.46-3.27,8.2-4.9l5.37-3.18c1.28-.75,2.61-1.43,3.92-2.15l5.05-2.75c1.65-.9,3.34-1.72,5-2.58s3.09-1.46,4.66-2.14c1.92-.83,3.85-1.66,5.77-2.51l3.86-1.7c.65-.29,1.32-.56,2-.88l6.83-3.3c1.4-.67,2.75-1.42,4.11-2.17l3.85-2.12c.61-.34,1.24-.66,1.83-1l5.84-3.52c1.65-1,3.25-2.06,4.88-3.09,3.3-2.08,6.6-4.16,10-6l5.33-3c1.79-1,3.6-1.94,5.34-3l3.05-1.87c.67-.42,1.31-.88,2-1.33,1.85-1.26,3.67-2.54,5.49-3.85,3.32-2.39,6.52-4.95,9.74-7.48,1.14-.89,2.23-1.84,3.34-2.77q1.95-1.63,3.85-3.32c1.09-1,2.15-1.94,3.2-2.92s2.3-2.25,3.43-3.39c2-2,3.84-4.21,5.64-6.41s3.55-4.47,5.22-6.79a68.14,68.14,0,0,0,4.61-7.16,42.17,42.17,0,0,0,3.19-7.29,71.61,71.61,0,0,0,2.06-8c.3-1.48.56-3,.89-4.44a34.46,34.46,0,0,1,1-3.48,18.58,18.58,0,0,1,1.4-2.87,4.38,4.38,0,0,1,.55-.66,7.77,7.77,0,0,1,1.16-.81,5.63,5.63,0,0,1,1-.33,28.25,28.25,0,0,1,6.23-.29,37.88,37.88,0,0,1,8.52,1.44,42.15,42.15,0,0,1,4.87,2.38c.91.51,1.79,1.06,2.67,1.63l1,.76a15.25,15.25,0,0,1,1.19,1.08c.49.46.95,1,1.42,1.44.77.78,1.52,1.57,2.27,2.36,1.17,1.37,2.31,2.75,3.48,4.11,1.39,1.63,2.84,3.18,4.36,4.68,2.38,2.36,4.78,4.7,7.08,7.14a8.66,8.66,0,0,1,.73,1.06v.05c-.05.25-.1.51-.16.76a28,28,0,0,1-1.69,3.43,10.61,10.61,0,0,1-.65.85c-.46.51-1,1-1.46,1.46-3.39,2.95-7,5.62-10.61,8.32-1.5,1.12-3,2.26-4.44,3.42-1.78,1.41-3.5,2.87-5.24,4.34-1.46,1.23-2.83,2.59-4.23,3.89-1.59,1.48-3.07,3.09-4.58,4.64-1.22,1.25-2.4,2.55-3.58,3.84s-2.58,2.78-3.82,4.21l-2.78,3.18c-.42.48-.85,1-1.25,1.44l-4.68,5.71q-3.67,4.5-7.24,9.08c-5,6.42-9.9,12.94-14.93,19.33-1.57,2-3.12,4-4.7,6s-3,3.66-4.4,5.52l-2.6,3.34c-.23.31-.44.63-.66,1l-1.65,2.38c-1.39,2-2.72,4.08-4,6.18-1.36,2.26-2.69,4.53-4,6.84-1.17,2.09-2.35,4.16-3.56,6.22-2.46,4.2-5.08,8.29-7.76,12.35q-2.28,3.32-4.63,6.59c-1.59,2.2-3.22,4.38-4.82,6.58-.85,1.18-1.78,2.3-2.67,3.45-.74,1-1.5,1.86-2.29,2.77l-2.73,3.19c-1.08,1.27-2.25,2.48-3.38,3.72-1.83,2-3.73,4-5.59,5.95s-3.63,4-5.43,6.06c-.95,1.07-1.86,2.2-2.78,3.29s-1.89,2.22-2.84,3.33c-.77.91-1.61,1.73-2.44,2.57l-3.34,3.37-4.66,4c-1.58,1.37-3.24,2.64-4.87,3.94-1.37,1.08-2.74,2.14-4.12,3.21s-2.89,2.4-4.35,3.58l-5.64,4.61c-.47.39-1,.74-1.47,1.11l-3.89,2.93c-3,2.28-6.06,4.49-9.14,6.67-1.58,1.11-3.14,2.25-4.74,3.33-1.8,1.21-3.58,2.49-5.43,3.63l-3.14,2c-.66.41-1.34.76-2,1.14-2,1.13-4.12,2.21-6.21,3.29-3.47,1.8-7,3.55-10.41,5.41-3.73,2-7.42,4.1-11.12,6.18-.91.51-1.8,1.06-2.69,1.59-.72.43-1.45.85-2.16,1.29-1.91,1.18-3.81,2.35-5.71,3.54q-2.47,1.53-4.9,3.14c-1.66,1.09-3.21,2.37-4.77,3.6-.61.48-1.19,1-1.78,1.49l-1,.91-.49.52c-.24.31-.46.62-.67.94a3.78,3.78,0,0,0-.34,3,3.47,3.47,0,0,0,.91,1.36l1.23.81a10.6,10.6,0,0,0,1.56.63l1.13.38a17.3,17.3,0,0,0,1.88.36c.48.09,1,.12,1.46.18,1,.11,1.91.16,2.88.2,2,.09,4,.09,6,0l6-.18c.36,0,.71,0,1.06-.06.78,0,1.55-.13,2.33-.18Zm11.87-5.84-4.87.68c-.76.11-1.54.16-2.3.24l-3.37.36c-1.48.15-3,.22-4.45.32s-2.73.13-4.09.17c-1.68,0-3.37.09-5.05.1-.73,0-1.46,0-2.19,0l-2.39-.1L226,1229c-.4,0-.79-.1-1.18-.17a11.64,11.64,0,0,1-1.65-.39l-.3-.1-.13,0,.05,0-.27-.11c.16-.18.32-.36.5-.53s.43-.4.65-.6l0,0c1.34-1.11,2.71-2.19,4.09-3.25,1.67-1.3,3.48-2.43,5.26-3.57,3.45-2.22,6.95-4.35,10.47-6.45,1.79-1.07,3.6-2.08,5.41-3.1s3.37-1.91,5.06-2.84,3.46-1.9,5.21-2.8l6.27-3.26c3.42-1.79,6.86-3.54,10.13-5.59l2.57-1.61c.75-.47,1.48-1,2.23-1.52,1.69-1.15,3.38-2.3,5.05-3.5,3.43-2.45,6.87-4.89,10.22-7.44l5.65-4.32c1.59-1.21,3.12-2.51,4.66-3.78s3-2.44,4.42-3.68c1.68-1.41,3.39-2.78,5.11-4.16,1.57-1.24,3.12-2.51,4.68-3.77.5-.4,1-.85,1.45-1.26q1.77-1.57,3.56-3.13c.43-.38.9-.74,1.3-1.15.76-.77,1.51-1.55,2.27-2.31l2.61-2.66c.6-.61,1.13-1.3,1.68-2q2-2.38,4-4.78c1.43-1.72,2.93-3.38,4.4-5,2.49-2.82,5.16-5.48,7.68-8.27,2.75-3,5.52-6.07,8-9.3,1.25-1.61,2.5-3.21,3.7-4.86s2.52-3.46,3.79-5.18c2.37-3.19,4.63-6.48,6.84-9.79,2.83-4.24,5.55-8.56,8.11-13q2-3.43,4-6.84c1.43-2.39,2.95-4.74,4.46-7.09.56-.8,1.12-1.61,1.69-2.41s.94-1.42,1.46-2.09c1.16-1.47,2.29-2.95,3.46-4.41q4.15-5.19,8.25-10.41c4.88-6.22,9.58-12.57,14.42-18.81,2.45-3.17,5-6.29,7.45-9.42,1.37-1.71,2.77-3.41,4.15-5.11,1.24-1.53,2.54-3,3.83-4.47,1.09-1.26,2.18-2.52,3.3-3.74,1.36-1.49,2.68-3,4.08-4.46l4.72-4.89c.52-.55,1.09-1,1.64-1.56l2.46-2.31c1.48-1.26,2.93-2.55,4.44-3.76,1.78-1.43,3.56-2.84,5.37-4.24a148,148,0,0,0,11.75-9.59,12.05,12.05,0,0,0,2.61-3.75c.26-.55.51-1.09.75-1.64a6.22,6.22,0,0,0,.68-2.72,5.6,5.6,0,0,0-1.68-3.1c-.56-.61-1.12-1.21-1.7-1.8-1.28-1.34-2.55-2.7-3.84-4s-2.77-2.8-4.11-4.25c-1.63-1.9-3.2-3.86-4.83-5.77-.84-1-1.79-1.89-2.69-2.82-.65-.67-1.32-1.34-2-2a18,18,0,0,0-2.76-2c-1.19-.75-2.43-1.4-3.66-2.05-.94-.5-1.9-.94-2.87-1.36a16.91,16.91,0,0,0-2.84-.87,40.75,40.75,0,0,0-7.94-.89,35.47,35.47,0,0,0-3.72.08c-.63,0-1.25.15-1.88.24a7.3,7.3,0,0,0-2.76.94,9.72,9.72,0,0,0-1.67,1.34,8.22,8.22,0,0,0-1.35,2,20.18,20.18,0,0,0-1.32,3.15,77.09,77.09,0,0,0-1.93,8,75.27,75.27,0,0,1-2.1,7.65,54.73,54.73,0,0,1-2.44,5.48c-.43.84-.86,1.69-1.36,2.49s-1.14,1.79-1.73,2.68c-1.31,1.9-2.67,3.76-4.06,5.61s-2.84,3.53-4.28,5.28c-.64.78-1.32,1.53-2,2.29s-1.47,1.61-2.23,2.37l-2.5,2.51c-.93.93-1.94,1.81-2.91,2.71-1.12,1-2.21,2-3.35,2.92l-4.2,3.48c-1.38,1.15-2.85,2.22-4.27,3.33s-2.77,2.11-4.16,3.16c-2.67,2-5.48,3.88-8.26,5.75s-5.69,3.43-8.6,5c-2.76,1.5-5.52,3-8.24,4.55-1.35.79-2.73,1.54-4.07,2.37l-4.61,2.84c-1.38.86-2.75,1.75-4.16,2.58l-5.51,3.27c-1.11.65-2.26,1.25-3.39,1.86l-5.25,2.84-5.63,2.67c-1.53.73-3.07,1.41-4.63,2.08-3.59,1.55-7.22,3-10.81,4.59l-2.92,1.29c-.92.4-1.82.89-2.72,1.33-1.53.75-3.05,1.5-4.55,2.3l-6.94,3.67c-1.22.65-2.4,1.37-3.6,2.06-3.31,1.93-6.65,3.82-9.93,5.79l-13.19,8c-.71.43-1.43.84-2.16,1.24l-6.42,3.57-11.6,6.45-12,6-5.46,2.71c-1,.52-2.1,1-3.16,1.47l-14.68,6.78c-.77.36-1.56.66-2.36,1l-8,3.13-7.29,2.86c-.94.36-1.86.71-2.81,1l-15.64,5.22c-3.48,1.16-7,2.11-10.57,3.14l-7.23,2.1c-1.09.31-2.2.57-3.31.84l-10.34,2.48-3.78.91c-2.59.62-5.22,1.13-7.83,1.68.19,0,.39-.09.58-.12-4,.8-7.91,1.52-11.9,2.11-3.75.54-7.52.89-11.29,1.21-3.24.27-6.51.33-9.76.47l-3.8.16c-1,.05-1.94,0-2.91,0L81,1134c-1.87,0-3.75-.09-5.63-.19-1.7-.13-3.38-.31-5.07-.56a38.92,38.92,0,0,1-6.29-1.51c-.45-.18-.9-.36-1.34-.56l.59-.33,1.07-.55c3.23-1.6,6.49-3.16,9.69-4.81,1.72-.88,3.46-1.73,5.14-2.68l3.55-2c.78-.44,1.59-.87,2.35-1.34,3.36-2,6.73-4.08,10-6.22s6.79-4.34,10.09-6.64l7-4.89c1.47-1,3-2,4.41-3.07l11.26-8.11c.35-.24.67-.52,1-.78l3.15-2.53c1.46-1.17,2.92-2.32,4.36-3.5,3.3-2.73,6.65-5.42,9.91-8.18L154,1069c1.62-1.36,3.17-2.79,4.73-4.21,1.94-1.79,3.92-3.54,5.83-5.35q3.55-3.39,7.12-6.77,5.69-5.42,11.5-10.72c4-3.68,8.09-7.31,12.16-11q6.61-5.61,13.21-11.23l4.4-3.76c.73-.62,1.44-1.26,2.19-1.87l8.18-6.67c1.75-1.43,3.52-2.81,5.31-4.18,2.38-1.83,4.75-3.69,7.16-5.48l8.37-6.21c.8-.6,1.64-1.15,2.46-1.72,1.88-1.31,3.79-2.57,5.71-3.81,3.49-2.23,7.16-4.18,10.85-6.06l-.41.21c4.34-2.17,8.81-4.09,13.23-6.09.62-.28,1.28-.49,1.91-.73l4-1.55c1.67-.64,3.34-1.27,5-1.93,3.82-1.49,7.65-3,11.45-4.49s7.64-3.14,11.49-4.63,7.92-3.15,11.93-4.61,7.85-2.93,11.81-4.29c7.82-2.68,15.67-5.3,23.48-8L367,940.5c2.34-.8,4.72-1.48,7.08-2.22l4.63-1.44c.64-.2,1.3-.34,1.95-.49l8.48-2c4.51-.81,9-1.62,13.53-2.4l3.27-.56c1.08-.19,2.14-.48,3.21-.72l3.51-.79c1.52-.35,3-.76,4.54-1.2a14.91,14.91,0,0,0,2.6-.93,3.87,3.87,0,0,0,1.1-.74,1.67,1.67,0,0,0,.64-1,1.74,1.74,0,0,0-.24-1.18,1.37,1.37,0,0,0-.4-.55,5.67,5.67,0,0,0-.66-.42c-.28-.11-.57-.22-.86-.31a11.91,11.91,0,0,0-1.88-.32c-1.19-.12-2.38-.19-3.58-.25l-8.9-.5-3.5-.28c-1.09-.08-2.19-.23-3.28-.36a61.68,61.68,0,0,1-7-1.38c-4.63-1.11-9.23-2.41-13.82-3.72s-9-2.5-13.61-3.57c-5.53-1.29-11.07-2.56-16.48-4.32a70.14,70.14,0,0,1-7.73-3.18l-4.35-2.1c-2.07-1-4.14-2-6.22-3l-7.39-3.55c-4.39-2.11-8.78-4.22-13.33-6-3.14-1.23-6.37-2.23-9.61-3.16s-6.41-1.51-9.61-2.3l-9.48-2.35c-2.09-.52-4.15-1.17-6.22-1.79L265.12,879l-12.69-4.52L251,874c-.49-.17-1-.42-1.43-.63l-8.17-3.58-3.19-1.4c-.35-.16-.72-.3-1.07-.48l-6.59-3.36c-2.18-1.12-4.38-2.21-6.53-3.39q-8-4.39-15.69-9.4c-3.47-2.33-6.87-4.75-10.18-7.29s-6.55-5.39-9.8-8.1c-2.59-2.16-5.17-4.35-7.75-6.52-4.8-4-9.49-8.19-14.21-12.31-1.86-1.63-3.7-3.28-5.54-4.92-2.23-2-4.5-3.93-6.7-6l-7.61-7L143,796.33c-.81-.76-1.58-1.57-2.35-2.36-1.65-1.68-3.24-3.4-4.82-5.15q-3.65-4.14-6.92-8.59l-3.71-5c-1.7-2.32-3.27-4.74-4.88-7.12-.78-1.15-1.48-2.36-2.22-3.53l-3.27-5.21c-.71-1.13-1.35-2.32-2-3.48l-2.6-4.49c-3.19-6.49-6.3-13-9.43-19.56-1.35-2.83-2.66-5.68-4.1-8.47L90,710.39c-.46-.89-.9-1.79-1.4-2.65-1.22-2.14-2.45-4.27-3.68-6.41-1.85-3.21-3.66-6.45-5.48-9.67s-3.55-6.32-5.32-9.48l-1.48-2.66c-.58-1-1.2-2-1.82-3s-1.45-2.28-2.22-3.38l1.9.88q5.4,2.49,10.86,4.84c1.82.78,3.64,1.57,5.47,2.33s3.76,1.52,5.61,2.33l7.27,3.19c1.44.63,2.86,1.31,4.28,2q6.06,2.9,12.1,5.81c4.09,2,8.21,3.9,12.32,5.82,3.89,1.82,7.84,3.52,11.77,5.25,1.25.56,2.52,1.06,3.79,1.56l7.1,2.8c1.68.66,3.32,1.41,5,2.12l3.83,1.62c.61.27,1.25.5,1.84.79l10.9,5.31c4,1.92,7.9,3.84,11.87,5.72l6.68,3.14c1.73.82,3.5,1.54,5.25,2.3l3.72,1.62c.45.2.91.42,1.38.59l7,2.65c4,1.5,7.95,3,11.92,4.44s7.9,3.06,11.84,4.62c1.27.51,2.5,1.07,3.74,1.65l7.37,3.43c.37.17.73.37,1.09.57l3.38,1.8,3.78,2c.61.33,1.24.64,1.85,1l6.67,3.85q4.46,2.58,8.76,5.42a119.06,119.06,0,0,1,17.48,14.68l3.92,4c.7.72,1.4,1.43,2.11,2.14s1.48,1.6,2.21,2.41c1.88,2.14,3.69,4.32,5.42,6.58s3.25,4.51,4.79,6.82,2.81,4.58,4.19,6.88l1.48,2.48c.36.6.65,1.25,1,1.87.94,1.82,1.87,3.65,2.84,5.46,1.15,2.17,2.3,4.33,3.44,6.5.31.57.67,1.11,1,1.67l2.52,4.22c.91,1.51,1.9,3,2.88,4.43,1.08,1.64,2.16,3.26,3.25,4.88,2.56,3.79,5.17,7.55,7.79,11.31,1.08,1.55,2.25,3,3.38,4.57l1.81,2.45c.55.72,1.17,1.46,1.75,2.17.93,1.15,1.9,2.28,2.89,3.39,1.89,2.09,3.85,4.11,5.88,6.08s4,3.68,6.12,5.43c3.31,2.78,6.85,5.27,10.42,7.71l5.59,3.84c.6.4,1.22.76,1.84,1.14l4.26,2.58c.68.42,1.36.88,2.07,1.26l3.23,1.71c2,1,3.92,2.09,5.9,3.1l8,4.1c2.11,1.07,4.16,2.23,6.24,3.36,1.7.92,3.41,1.85,5.1,2.81,2.12,1.2,4.28,2.35,6.37,3.61l6.63,4c.95.58,1.86,1.23,2.79,1.84l3.32,2.17c1.56,1.07,3.11,2.15,4.77,3.07l.87.43a16.61,16.61,0,0,0,1.7.66l1.07.24c.48,0,.95.06,1.43.07a1.78,1.78,0,0,0,1.27-.63,2.62,2.62,0,0,0,.73-1.2l0-.5c-.06-.31-.13-.63-.19-.94-.18-.53-.37-1-.59-1.55a33.59,33.59,0,0,0-2.33-4.74,45.2,45.2,0,0,0-2.77-3.67c-1.07-1.37-2.1-2.76-3.14-4.16-1.18-1.58-2.37-3.16-3.55-4.75-2.31-3.09-4.65-6.15-7-9.26s-4.81-6.46-7.17-9.72c-1.19-1.65-2.31-3.35-3.45-5-.46-.69-.85-1.43-1.27-2.14s-1-1.64-1.42-2.48c-2.06-3.85-4.06-7.72-6.15-11.56-.91-1.68-1.82-3.36-2.79-5q-1.65-2.82-3.29-5.64l-1.45-2.51c-.28-.48-.58-1-.84-1.46L391,841.17c-.67-1.57-1.33-3.14-2-4.7-.48-1.13-.87-2.28-1.29-3.43l-1.7-4.68c-.63-1.76-1.19-3.55-1.78-5.31-1-3-1.94-6-2.88-9-.38-1.21-.69-2.44-1-3.66-.39-1.4-.79-2.78-1.13-4.19q-1.12-4.73-2.26-9.44-.75-3.06-1.54-6.12a68,68,0,0,0-4.53-12.33,76.46,76.46,0,0,0-5.2-8.87c-.55-.81-1.12-1.61-1.7-2.39s-1.23-1.68-1.87-2.44-1.37-1.6-2.05-2.4c-1.93-2.26-3.94-4.44-5.94-6.64s-4-4.58-5.86-7c-1.45-1.86-2.91-3.72-4.31-5.63a91.33,91.33,0,0,1-7.46-12c-1.24-2.5-2.37-5-3.42-7.64-.51-1.26-1-2.55-1.44-3.82s-.95-2.61-1.35-3.93l-2.43-7.94c-1.29-4.19-2.44-8.42-3.64-12.64-1.1-3.9-2.32-7.77-3.48-11.65-.81-2.68-1.61-5.36-2.42-8-1.17-3.91-2.16-7.86-3-11.85q-.76-3.85-1.35-7.75c-.23-1.56-.46-3.12-.61-4.69l-.78-8.42c-.12-1.31-.24-2.6-.31-3.91-.15-3-.29-5.95-.44-8.93-.21-4.28-.2-8.57-.27-12.85s-.05-8.51-.08-12.76-.14-8.37-.23-12.55-.25-8.1-.4-12.16c-.13-3.83-.31-7.65-.5-11.48s-.35-7.56-.63-11.34q-.47-6.45-.94-12.89c-.18-2.46-.43-4.91-.66-7.36-.37-3.92-.75-7.85-1.12-11.76-.07-.79-.2-1.58-.3-2.36q-.45-3.45-.92-6.9l-.78-5.87c-.11-.76-.2-1.52-.35-2.28q-1.15-6.22-2.32-12.46c-.17-.89-.37-1.78-.58-2.66q-.84-3.46-1.66-6.91c-.28-1.18-.56-2.36-.87-3.54-.46-1.81-1-3.61-1.37-5.43,0-.29-.09-.57-.14-.85,0-.12-.06-.24-.08-.36l2.22,1.79c.88.71,1.76,1.45,2.65,2.17,1.58,1.3,3.17,2.64,4.71,4,1.87,1.66,3.75,3.3,5.58,5s3.59,3.23,5.33,4.9c1.13,1.08,2.25,2.17,3.38,3.24.78.75,1.58,1.47,2.33,2.24l6.37,6.54c1.41,1.44,2.73,2.95,4.08,4.44l5.07,5.61,7.07,8.6c.58.7,1.14,1.4,1.67,2.13l3.9,5.44c.67,1,1.41,1.87,2,2.86l3,4.74,3.21,5.14c.61,1,1.16,2,1.73,2.94,1.44,2.49,2.82,0,4.14,2.58,3.3,6.66,6,18.59,8.76,25.49.64,1.6,1.31,3.19,1.93,4.81l2.6,6.84,2.08,5.46c.74,2,1.41,4,2.11,5.92.82,2.3,1.65,4.6,2.47,6.91.48,1.34.86,2.73,1.29,4.09.85,2.75,1.71,5.5,2.56,8.25.38,1.24.79,2.49,1.14,3.75q1.89,6.88,3.77,13.77c.42,1.51.78,3,1.16,4.56q1.06,4.18,2.12,8.38c.28,1.09.53,2.19.77,3.3l1.95,8.75c1.13,5.08,2.19,10.18,3.28,15.27q1.23,6.2,2.48,12.4c.32,1.61.58,3.25.87,4.87l1.44,8c.74,4.14,1.51,8.27,2.27,12.41.7,3.82,1.48,7.62,2.22,11.43.78,4,1.46,8,2.19,12,.68,3.78,1.4,7.56,2.07,11.35s1.42,7.6,2.23,11.39,1.57,7.67,2.52,11.47c.38,1.47.75,2.94,1.17,4.39s.85,2.94,1.28,4.41c.94,3.28,1.87,6.55,2.81,9.84.85,3,1.72,6.05,2.59,9.08.77,2.71,1.41,5.46,2.08,8.2.34,1.76.71,3.51,1,5.29.31,2.15.59,4.31.88,6.47s.57,4.1.87,6.15.51,3.82.82,5.73c.63,4,1.28,8.08,2,12.1s1.44,8.32,2.18,12.48c.35,2,.7,4.08,1,6.13s.53,3.85.78,5.78c.5,4,.78,8,1.16,12,.35,3.75.74,7.51,1.36,11.22q1,5.9,2.29,11.71c.16.71.38,1.4.57,2.1.13.5.28,1,.44,1.48a32.55,32.55,0,0,0,1.26,3.33c.56,1.21,1.14,2.39,1.73,3.57s1.2,2.12,1.83,3.16a69.88,69.88,0,0,0,4.15,6q2.38,3.15,4.94,6.17c1.59,1.89,3.23,3.74,4.86,5.61s3.28,3.58,4.95,5.34c.89.92,1.75,1.85,2.64,2.77s1.74,1.76,2.63,2.63,1.73,1.66,2.54,2.54c1,1.05,2,2.11,2.93,3.18,1.2,1.38,2.39,2.76,3.56,4.17s2.43,3,3.68,4.47c.45.54.94,1,1.43,1.55a11.7,11.7,0,0,0,1.51,1.2c.5.37,1,.69,1.57,1a11,11,0,0,0,2.6,1.1l.37,0a2.65,2.65,0,0,0,1-.09,5.28,5.28,0,0,0,1.38-.54,8.66,8.66,0,0,0,2.25-2,23,23,0,0,0,2.36-3.85c.88-1.7,1.67-3.47,2.4-5.24.64-1.52,1.11-3.11,1.63-4.67a55.6,55.6,0,0,0,1.47-5.85,85,85,0,0,0,1.79-11c.13-1.59.24-3.18.25-4.77,0-1.81,0-3.61.05-5.42.08-3.72-.26-7.45-.49-11.17l-.66-10.9c-.15-2.62-.3-5.22-.55-7.83-.31-3.25-.72-6.48-1.2-9.71-.44-3-1.15-6-1.83-9-.63-2.75-1.44-5.45-2.31-8.14s-1.78-5.21-2.84-7.75a73.17,73.17,0,0,0-3.72-7.47c-1.44-2.57-3.19-5-4.81-7.43-.84-1.26-1.67-2.52-2.44-3.82s-1.52-2.69-2.25-4-1.22-2.53-1.8-3.81c-.67-1.51-1.32-3-2-4.57-1.27-3-2.39-6.14-3.5-9.24s-2.16-6-3.09-9.08-1.58-6.23-2.24-9.38c-.33-1.72-.68-3.44-.94-5.17-.35-2.34-.7-4.68-1-7-.29-2-.54-4-.79-5.94s-.41-3.76-.66-5.63-.45-3.78-.75-5.67c-.33-2.09-.64-4.19-1-6.29-.32-1.95-.62-3.91-.95-5.86s-.67-4.18-1.08-6.25c-.86-4.29-1.73-8.56-2.7-12.83-.91-4-2-8.05-3.06-12-1-3.56-1.86-7.13-2.74-10.71-1-4.2-2.06-8.39-3-12.6q-1.8-7.95-3.73-15.86-1.85-7.54-3.43-15.15c-1.35-7.1-2.69-14.22-3.63-21.38-1-7.39-1.75-14.81-2.2-22.26-.22-3.8-.44-7.61-.63-11.41S443,606.1,443,602.3c0-2,0-4,.05-6s.08-4,.12-6c0-1.82.17-3.65.26-5.47s.23-3.6.34-5.4c0,.22,0,.44,0,.66.26-3.83.5-7.66.86-11.48.19-2,.37-3.92.6-5.88.27-2.24.55-4.47.86-6.7.29-2,.6-4,.91-6.06.35-2.23.78-4.46,1.2-6.68.36-1.92.82-3.81,1.23-5.71s.92-3.83,1.39-5.74.87-3.67,1.25-5.51c.24-1.18.49-2.37.73-3.56s.41-2.33.62-3.49c.73-4.16,1.3-8.37,1.93-12.55.31-2.06.52-4.13.78-6.19s.46-4.13.68-6.2c.41-3.83.68-7.68.95-11.53.19-2.66.28-5.33.39-8,.09-2.36.21-4.72.31-7.08.22-5.16.39-10.32.55-15.48.08-1.17.17-2.34.29-3.51.09-.88.18-1.76.28-2.64.05-.47.12-.92.2-1.38.34.53.65,1.08.95,1.64a66.65,66.65,0,0,1,3.66,9.89c1.13,3.61,2.19,7.25,3.27,10.87l1.81,6c.57,1.9,1.22,3.78,1.86,5.66,1.18,3.5,2.24,7,3.32,10.56,2.36,7.67,4.93,15.26,7.43,22.88,1.25,3.81,2.36,7.68,3.69,11.47s2.68,7.55,4.09,11.3q1.9,5.07,3.8,10.14c1.13,3,2.18,6.08,3.29,9.11,2.24,6.09,4.46,12.18,6.57,18.32L507,583c1,2.94,1.95,5.91,2.92,8.86s1.91,6,2.68,9.06c.41,1.59.86,3.17,1.21,4.78.4,1.77.79,3.53,1.19,5.3,1.46,7.74,2.91,15.47,4.16,23.24.65,4,1.32,8,1.88,12.07.59,4.21,1.14,8.42,1.69,12.64,1.09,8.27,2.14,16.54,3.35,24.79.6,4.1,1.14,8.21,1.65,12.32s1.11,8.34,1.68,12.5c.45,3.28,1,6.56,1.5,9.83.23,1.49.52,3,.79,4.46.23,1.31.48,2.63.74,3.94,1.35,6.57,2.82,13.12,4.28,19.66.73,3.69,1.43,7.38,2.26,11s1.68,7.4,2.49,11.11c.6,3,1.19,6,1.76,9.05.23,1.26.45,2.52.67,3.78.24,1.47.51,2.92.7,4.4l.6,4.9c.09.71.12,1.43.18,2.14l.27,3.12q.35,4.15.44,8.33c0,1.45.11,2.9.11,4.36,0,1.87,0,3.74,0,5.61,0,2.68,0,5.36-.08,8-.12,3.49-.25,7-.42,10.47-.13,2.78-.31,5.57-.47,8.35s-.41,5.41-.7,8.11c-.34,3.3-.71,6.59-1.09,9.88-.69,5.93-1.83,11.78-2.89,17.65-1.12,6.16-2.31,12.29-3.7,18.4-.59,2.61-1.18,5.23-1.87,7.82-.4,1.47-.75,3-1.19,4.42-.51,1.66-1,3.31-1.51,5s-1.13,3.32-1.81,4.94c-.38.9-.72,1.83-1.14,2.71-.62,1.29-1.24,2.59-1.87,3.88-.84,1.76-1.8,3.46-2.72,5.17s-2,3.66-3,5.48c-1.85,3.29-3.52,6.68-5.08,10.12-.84,1.84-1.7,3.68-2.5,5.55l-1.23,2.91c-.46,1.08-.84,2.21-1.25,3.3-1.46,3.85-2.8,7.77-3.94,11.73-.36,1.22-.72,2.44-1,3.68a37.43,37.43,0,0,0-1,7.23c-.05,1.29-.05,2.55,0,3.83,0,.45.09.9.13,1.34.11,1,.26,2.09.41,3.13.25,1.84.62,3.66,1,5.48s.95,3.82,1.51,5.7,1.23,3.47,1.89,5.19c.31.81.64,1.62,1,2.42.47,1.08,1,2.13,1.5,3.18q1.14,2.32,2.33,4.63c.43.82.83,1.66,1.28,2.47l1.85,3.32c.51.92,1.08,1.81,1.63,2.71.41.69.84,1.37,1.26,2.06,1.22,2,2.48,3.89,3.74,5.83.54.82,1.17,1.59,1.74,2.38s1,1.28,1.49,1.91l2.06,2.5c.81,1,1.75,1.91,2.62,2.85,1.73,1.87,3.55,3.64,5.37,5.41-1-.42-2-.83-2.94-1.22-3.78-1.51-7.71-2.87-11.18-5a20.13,20.13,0,0,1-2.14-1.88c-.31-.32-.6-.65-.9-1-1.05-1.3-2.06-2.63-3.05-4-1.15-1.59-2.19-3.28-3.27-4.93-2.07-3.17-4.16-6.32-6.19-9.52-1-1.57-2.05-3.11-3.12-4.64s-2.16-3.21-3.2-4.84c-.87-1.37-1.72-2.75-2.54-4.16-.95-1.63-1.89-3.27-3-4.83a21.13,21.13,0,0,0-1.53-2,22.54,22.54,0,0,0-1.95-2,8.75,8.75,0,0,0-2.12-1.37,2.44,2.44,0,0,0-1.51-.1c-1.15.16-1.74,1.18-2.21,2.14a11.61,11.61,0,0,0-.83,2.9c-.17.85-.27,1.71-.39,2.56-.23,1.68-.46,3.36-.74,5-.58,3.49-1.36,7-2.22,10.39-.38,1.5-.76,3-1.11,4.5-.45,2-.82,3.92-1.25,5.88-.25,1.14-.44,2.29-.66,3.43-.25,1.35-.54,2.69-.85,4q-.9,4-2,8.05c-1.44,5.39-3.22,10.69-5,16-1.94,5.92-3.81,11.87-5.56,17.86-.74,2.52-1.33,5.09-2.1,7.6s-1.62,5.16-2.48,7.72c-.84,2.24-1.67,4.48-2.52,6.72-.35.93-.76,1.84-1.15,2.76s-.74,1.83-1.18,2.71c-2.09,4.19-4.22,8.36-6.51,12.44s-4.78,8.44-7.22,12.62q-1.93,3.32-3.94,6.58c-1.19,1.95-2.45,3.87-3.69,5.79a47.42,47.42,0,0,1-5.14,6.35l-3.45,3.49c-.75.75-1.57,1.43-2.36,2.14l-2.81,2.51-4.42,3.66c-.85.7-1.77,1.32-2.65,2-.71.52-1.42,1-2.14,1.53-1.54,1.08-3.07,2.19-4.62,3.24l-6.85,4.63c-1.14.78-2.33,1.48-3.51,2.2l-7.14,4.38c-1.28.79-2.63,1.46-3.94,2.18l-5.84,3.19-5.83,2.71c-1.7.78-3.42,1.5-5.14,2.21L358.6,1193c-3.83,1.59-7.7,3.09-11.55,4.63-4.07,1.64-8.13,3.32-12.18,5-3.51,1.44-7,3-10.46,4.52-2,.88-4.07,1.68-6.11,2.52-1.62.68-3.25,1.35-4.89,2l-6.69,2.61c-.56.22-1.14.41-1.71.61l-4.79,1.69q-2.34.83-4.72,1.59c-2.07.67-4.12,1.35-6.22,1.92-3.95,1.08-7.91,2.13-11.89,3.07-1.85.44-3.68.92-5.54,1.31l-6.6,1.38c-2.91.54-5.81,1.16-8.74,1.57Zm348.06-120.11-.27-.3.27.3Zm-32.23-30.14-.21-.24.21.24Zm-53.42-66.36-.25-.5c.08.17.17.33.25.5Zm-323.5,20.11.23-.2-.23.2ZM490.86,997.2l.1-.08a.39.39,0,0,1-.1.08Zm-97.41,2.73.12-.11-.12.11Zm73.76-17,.16-.14-.16.14Zm2.38-2.56.19-.28c-.06.09-.12.19-.19.28Zm-58.4-.92.07-.11-.07.11Zm85.59-19.56h0Zm.93-.3.14-.07-.14.07Zm-73-9.2.1-.15-.1.15Zm9-2.3-.33,0,.33,0Zm-28.85-25.54h0Zm70.68-126.88-.06-.27.06.27ZM368.65,779.4l-.08-.16.08.16Zm-.1-.2-.05-.09.05.09Zm168.14-33,0-.17,0,.17ZM315.34,663.91c0-.15-10.45-120.76-10.48-120.91,0,.15,10.45,120.76,10.48,120.91ZM458.92,452.8c0-.08,0-.16,0-.25,0,.09,0,.17,0,.25ZM222.78,1228.32l.08,0,.3.1.1,0-.48-.16Z" transform="translate(147.31 195.15)"/></g></g></g></svg>