<svg xmlns="http://www.w3.org/2000/svg" xmlns:xlink="http://www.w3.org/1999/xlink" viewBox="0 0 499.49 973.96"><defs><style>.cls-1{fill:none;}.cls-2{clip-path:url(#clip-path);}.cls-3{fill:#213b2d;}.cls-4{fill:#e6963a;}.cls-5{fill:#dec5ae;}</style><clipPath id="clip-path" transform="translate(28.86 45.45)"><rect class="cls-1" width="470.63" height="836.67"/></clipPath></defs><g id="Layer_2" data-name="Layer 2"><g id="ëÎÓÈ_1" data-name="ëÎÓÈ 1"><g class="cls-2"><rect class="cls-3" x="28.86" y="45.45" width="470.63" height="836.67"/><path class="cls-4" d="M166.21,678.91c-24.77,7.46-49.71,23.22-64.53,35.08-2.25,1.89-4.58,3.85-6.84,5.79L93,721.33l-1.79,1.54c-.55.46-1.08,1-1.59,1.45l-.08.07-3.31,3.12c-.51.48-1,1-1.51,1.46l-.64.63a45.09,45.09,0,0,1-3.8,3.31c-2,1.49-4.07,2.83-6.11,4.13l-.84.53-3.27,2.06-1.14.72c-1,.63-2,1.28-3,1.93l-1.41.92-3.29,2.12-.11.08c-19.74,12.68-47.08,17.85-63.28,33.66-11.21,11-18.12,25.64-22.55,40.67-5.59,18.93-7,41,4.78,56.85,10.53,14,28.73,19.53,45.67,24.17l65.73,18c18.49,5.07,37.29,10.17,56.45,9.72s39.08-7.26,51-22.23c10.43-13,13.56-30.3,16-46.81A1069.48,1069.48,0,0,0,226,712.68c.08-13-1.78-28.73-13.61-34C199.11,672.65,182.69,673.94,166.21,678.91Zm-37.05,20.57.23-.09.15-.06-.38.15Z" transform="translate(28.86 45.45)"/><path class="cls-4" d="M226.83-45.45c-1.58,0-3.24.06-4.91.18a61.57,61.57,0,0,0-11,1.79A99.66,99.66,0,0,0,200.3-40c-1.07.4-2.14.85-3.18,1.28l-1,.42-1.06.42c-.8.33-1.64.66-2.44,1L188.33-35c-2.12,1-3.87,1.79-5.51,2.61a59.67,59.67,0,0,0-9.26,5.82c-3,2.27-5.9,4.76-8.72,7.17l-.11.09a61.74,61.74,0,0,0-6.7,6.55L157-11.47l-2,2.34c-1.39,1.61-2.89,3.34-4.45,5.05l-1.64,1.81L147.2-.46a66.81,66.81,0,0,0-5.58,7,68.51,68.51,0,0,0-5.46,9.51c-.83,1.71-1.57,3.43-2.2,5.09a39.12,39.12,0,0,0-1.64,5.62,36.51,36.51,0,0,0-.8,5.56,42.79,42.79,0,0,0,0,5.62c.14,2.17.42,4.55.87,7.27l.35,2.18.35,2.18a8.1,8.1,0,0,0,.18.79l.09.34.35,1.53.29,1.23c.51,2.17,1.12,4.35,1.71,6.46l.35,1.26c.45,1.64,1,3.29,1.48,4.89l.63,2c.73,2.37,1.51,4.77,2.26,7.09l.43,1.33c.52,1.58,1.08,3.27,1.74,5S144.08,85,145,86.91a107.81,107.81,0,0,0,5.31,9.74A62.19,62.19,0,0,0,162.13,111l3.73,3.35a46.24,46.24,0,0,0,6.76,5.13,64.41,64.41,0,0,0,6.78,3.49l2.06,1,2,.95c.82.38,1.66.73,2.49,1.08l1.3.55c.94.4,1.93.83,2.95,1.22,2.92,1.14,5.57,2.13,8.08,3l1.53.56c1.62.6,3.29,1.21,4.95,1.76l2.7.9,1.79.59c.8.27,1.63.49,2.43.71l1,.26a55,55,0,0,0,6.77,1.5,42.93,42.93,0,0,0,5.54.49h.48a47,47,0,0,0,5.3-.36,50.1,50.1,0,0,0,11-2.54,58.7,58.7,0,0,0,10.08-4.83,48.78,48.78,0,0,0,4.3-2.91l.15-.12c.93-.7,1.9-1.43,2.79-2.21l3.58-3.12c.64-.55,1.26-1.15,1.85-1.73l.84-.8c.67-.63,1.45-1.39,2.21-2.2l1.09-1.16,2-2.1c.24-.26.46-.54.68-.83l.31-.4,1.85-2.28c1.62-2,3.12-4,4.78-6.25l1.29-1.59,1.3-1.59c.57-.71,1.21-1.44,2.06-2.37,2-2.23,4-4.48,5.66-6.39.54-.61,1-1.27,1.53-1.9l.49-.64.67-.86c.56-.71,1.12-1.42,1.66-2.15q2.55-3.43,5.12-6.85a72.72,72.72,0,0,0,4.62-6.76,39.8,39.8,0,0,0,4-9.94,61.06,61.06,0,0,0,1.69-11.12,75.3,75.3,0,0,0,.08-9.09l0-1.1c-.1-2.22-.2-4.52-.37-6.78l0-.58c-.11-1.46-.23-2.91-.35-4.37a37.31,37.31,0,0,0-.85-5.39A45.48,45.48,0,0,0,305,18.72c-1.28-3.4-2.75-6.8-4.18-10.08l-.17-.39-1.52-3.71c-.34-.84-.65-1.71-1-2.54-.12-.35-.25-.69-.37-1-.8-2.15-1.7-4.59-2.67-7-.91-2.21-1.95-4.59-3.17-7.27-.49-1.05-1.06-2.31-1.6-3.57l-.16-.39c-.46-1.07-.93-2.19-1.47-3.25a20,20,0,0,0-3.11-4.57,31.45,31.45,0,0,0-2.45-2.33c-.8-.7-1.63-1.37-2.46-2.05s-1.93-1.44-3-2.19c-.84-.57-1.76-1.07-2.64-1.55l-.35-.2c-1-.52-1.9-1-2.81-1.41a21.81,21.81,0,0,0-3.05-1.15l-.93-.26a20.41,20.41,0,0,1-2.11-.64c-.65-.3-1.28-.66-1.89-1l-.44-.25c-.28-.16-.58-.31-.89-.45a1.4,1.4,0,0,0-.71-1.54l-.65-.3a35.31,35.31,0,0,0-3.81-1.55,40.28,40.28,0,0,0-5.63-1.24c-3.73-.63-7.51-1.14-11.23-1.5-2.89-.29-5.84-.44-8.69-.59l-1.93-.1c-1-.06-2-.08-3.06-.08Z" transform="translate(28.86 45.45)"/><path class="cls-5" d="M339.82-18.34c-3.25.25-6.5.59-9.74,1l-7.95.23c-.76,0-1.52.12-2.27.17s-1.54.08-2.3.17c-2.08.23-4.15.45-6.21.75a56.83,56.83,0,0,0-9.26,2.34c-1.53.51-3.06,1-4.57,1.59-3,1.14-6,2.38-8.94,3.62s-5.69,2.41-8.52,3.63S274.25-2.35,271.4-1C269.93-.3,268.45.37,267,1.1l-5,2.5c-1.43.71-2.8,1.54-4.2,2.31-.53.3-1,.64-1.55,1l-2.43,1.51c-1.39.87-2.73,1.84-4.08,2.76s-2.66,1.93-4,2.89-2.53,1.88-3.79,2.82a52.35,52.35,0,0,0-7.42,6.69A46.66,46.66,0,0,0,228,32.92c-.81,1.51-1.61,3-2.42,4.52-.35.67-.65,1.38-1,2.07s-.78,1.61-1.12,2.44a59.46,59.46,0,0,0-3.4,10.57c-.21,1-.43,2-.64,3-.12.6-.28,1.2-.37,1.8l-.81,5.12c0,.33-.08.67-.12,1A96.17,96.17,0,0,0,215.05,74a84.21,84.21,0,0,0-1.94,14c-.57,9.63.85,19.3,2.68,28.73.57,3,1.24,5.93,2,8.87,0,.35-.07.71-.11,1.07-.14,1.56-.31,3.11-.42,4.67-.17,2.31-.39,4.62-.47,6.94a35.62,35.62,0,0,0,.5,6.18,48.83,48.83,0,0,0,1.53,7,52.28,52.28,0,0,0,3.47,8.5c1.42,2.88,2.88,5.73,4.35,8.58.43.81.84,1.64,1.3,2.44a47.15,47.15,0,0,0,3.93,5.72,57.94,57.94,0,0,0,5.72,6c1.16,1.11,2.38,2.15,3.59,3.21,1,.93,2.11,1.84,3.21,2.7a45.06,45.06,0,0,0,3.91,2.82,41.58,41.58,0,0,0,3.86,2c1.71.82,3.46,1.53,5.22,2.25,1.2.51,2.41,1,3.6,1.57q2.34,1.11,4.63,2.29c.85.44,1.69.87,2.55,1.29a46.53,46.53,0,0,0,6.36,2.53,70.26,70.26,0,0,0,9,2.07c1.59.27,3.16.53,4.76.72,1.37.17,2.75.35,4.12.46l.4.13a74.11,74.11,0,0,0,14.29,3,87,87,0,0,0,8.84.48c3.56.06,7.11.1,10.67.11h2.08c1.16.38,2.3.8,3.42,1.25A90,90,0,0,0,345,216.1a42.09,42.09,0,0,0,13.51,1A41.5,41.5,0,0,0,371,213.85c4.88-2.11,9.12-5.32,13.44-8.37,1.8-1.28,3.64-2.51,5.47-3.77l3.51-2.41c1.18-.82,2.29-1.74,3.43-2.61,2.05-1.55,4-3.26,5.92-4.94,1.77-1.55,3.57-3,5.42-4.49l3.76-2.83a40.91,40.91,0,0,0,4.07-3.6,49.09,49.09,0,0,0,4.25-5c1.95-2.54,3.75-5.21,5.52-7.89s3.46-5.27,5-8.05c.66-1.21,1.35-2.42,1.93-3.68.71-1.54,1.49-3.07,2.11-4.66,1.16-3,2.32-6,3.32-9.06l3.24-9.91c1-3,1.86-6,2.76-9,.84-2.8,1.65-5.62,2.3-8.47.23-1.05.47-2.1.71-3.15.12-.56.27-1.12.37-1.69.32-1.82.65-3.65,1-5.48.29-1.6.38-3.24.55-4.86s.25-3,.35-4.57c.07-1,.12-2,.18-3a32.45,32.45,0,0,0-.4-6.75c-.28-1.79-.64-3.57-1-5.36-.58-3-1.14-6.09-1.78-9.13-.33-1.56-.62-3.13-1-4.68-.28-1.15-.53-2.32-.83-3.47-.06-2.41-.15-4.81-.25-7.22,0-.77-.12-1.55-.18-2.33s-.09-1.32-.16-2c-.23-2-.41-4-.77-5.91-.17-1-.35-1.91-.52-2.87-.13-.72-.33-1.44-.51-2.16-.38-1.64-.83-3.23-1.28-4.85s-1-2.91-1.48-4.35-.92-2.61-1.44-3.89c-2-4.87-3.79-9.93-6.88-14.23a36.57,36.57,0,0,0-7-7.35c-.6-.47-1.19-.95-1.79-1.41-.87-.68-1.77-1.32-2.67-2-2.1-1.48-4.28-2.85-6.45-4.23-1-.65-2.09-1.27-3.11-2-.84-.58-1.66-1.21-2.48-1.84-.47-.38-.92-.8-1.38-1.19-.76-.67-1.56-1.28-2.36-1.89A17.71,17.71,0,0,0,399.31-11c-1.43-.54-2.91-1-4.35-1.46s-2.67-1-4-1.53c-.32-.13-.65-.25-1-.36l.85,0a1,1,0,0,0,1-1,1,1,0,0,0-1-1.05l-1.54.05a18.15,18.15,0,0,1-2.44-.14l-1.94-.23-6.56-.79c-3-.36-6-.51-9.06-.74l-5.53-.43c-.59,0-1.18,0-1.78,0-.18,0-.37,0-.55,0h-12.5c-3,0-6.09.24-9.12.47Zm-29.23,8.16a178.38,178.38,0,0,1,19.15-4l1.59,0c6.48.17,13,.35,19.45.65,2.75.12,5.51.29,8.26.51,2.92.24,5.83.58,8.74.91,2.75.31,5.49.69,8.24.92l4.58.4c1.35.11,2.69.26,4,.42a19,19,0,0,1,3.88,1c1.25.55,2.48,1.14,3.73,1.69s2.83,1.19,4.25,1.78L399.12-4c.72.57,1.43,1.15,2.14,1.73s1.33,1.46,2,2.19c1.56,1.69,3.22,3.27,4.92,4.81,1,.87,2,1.73,3,2.58.83.71,1.69,1.39,2.51,2.13a67,67,0,0,1,7.54,7.62,36.11,36.11,0,0,1,2.55,4c.74,1.36,1.38,2.78,2,4.19l1.4,3.44c.41,1,.84,2,1.21,3,.85,2.33,1.76,4.65,2.51,7,.34,1.11.71,2.21,1,3.33s.68,2.33.95,3.5.6,2.4.79,3.62.38,2.31.56,3.47l.39,3.14c.18,1.37.26,2.77.38,4.15.24,2.84.44,5.69.75,8.52.67,6,1.64,12,2.55,18,.15,1.13.3,2.27.46,3.41.14,1.49.29,3,.44,4.48.08.78.05,1.59.08,2.38s.07,1.45.06,2.18c0,.93,0,1.86-.07,2.8,0,.63,0,1.28-.05,1.91-.14,1.68-.27,3.36-.41,5s-.49,3.15-.73,4.73c-.19,1.28-.46,2.55-.71,3.82-.3,1.54-.57,3.1-.91,4.63l-1.29,5.69c-.32,1.43-.78,2.83-1.19,4.23s-.85,2.75-1.31,4.12-.94,2.88-1.48,4.29-1.15,3-1.75,4.5c-.49,1.25-1,2.5-1.47,3.74l0,.08c-.31.75-.63,1.51-1,2.26l-.52,1.23c-.08.2-.18.39-.25.6-.61,1.36-1.24,2.71-1.85,4.07-.26.56-.58,1.1-.87,1.65-.37.72-.75,1.44-1.13,2.15s-.72,1.18-1.08,1.76-.7,1.21-1.1,1.77c-.87,1.24-1.75,2.47-2.63,3.71a42.51,42.51,0,0,1-6.51,6.83c-1.66,1.24-3.4,2.31-5.16,3.38q-1.94,1.19-3.85,2.39a81.54,81.54,0,0,1-7.82,4.06c-1.57.66-3.14,1.35-4.71,2l-4.92,1.79c-1.39.5-2.8.92-4.2,1.38-2.77.88-5.56,1.72-8.33,2.63l-10.16,3.34c-1.35.45-2.71.82-4.07,1.21l-2.73.79c-1.54.44-3.12.78-4.68,1.11-1.41.29-2.83.53-4.25.74-3.54.44-7.09.62-10.65.86-.81.05-1.63.05-2.45,0h-1.14c-1.24,0-2.48,0-3.71,0-2.72,0-5.45-.05-8.17-.11-4.61-.11-9.24-.15-13.82-.7a68.25,68.25,0,0,1-15.76-4.29c-2-.86-3.94-1.78-5.91-2.69-3-1.39-5.91-2.81-8.75-4.43a83.81,83.81,0,0,1-7.43-4.78c-1.69-1.2-3.39-2.38-5-3.63-1.33-1-2.65-2.11-3.94-3.23-1.68-1.46-3.28-3-4.85-4.6s-3-3.18-4.44-4.83c-1-1.13-2-2.26-2.9-3.44l-5.44-7a106.69,106.69,0,0,1-6.45-9.33,84,84,0,0,1-4.94-9.86,128.12,128.12,0,0,1-5.49-16.68q-1.38-5.3-2.39-10.68c.11-2,.14-4.07.07-6.1-.07-2.31-.34-4.58-.59-6.87-.17-1.56-.4-3.1-.63-4.65-.27-1.8-.55-3.6-.82-5.4.1-2.24.31-4.48.59-6.71,1.28-8.76,4.16-17.21,7.56-25.36a102.11,102.11,0,0,1,12.57-21.8,130.67,130.67,0,0,1,9.67-10.83,112,112,0,0,1,10.85-9.69,112.71,112.71,0,0,1,13-8.42,143.34,143.34,0,0,1,14.45-7h0a168.3,168.3,0,0,1,21.5-7.38Zm-60.7,22.74c1.26-.91,2.58-1.74,3.88-2.59s2.68-1.68,4-2.49,2.83-1.57,4.25-2.33,2.82-1.41,4.23-2.11,2.66-1.28,4-1.9C267.09,2.87,264,4.77,261,6.8a104.13,104.13,0,0,0-10.86,8.55,113.93,113.93,0,0,0-18.32,20.48,98.4,98.4,0,0,0-6.89,11.73c-1.54,3.07-2.92,6.21-4.21,9.4l.78-4.25c.27-1.44.66-2.86,1.05-4.26a63.25,63.25,0,0,1,2.3-6.58c.78-1.7,1.53-3.4,2.4-5.06L229,33.47A46.83,46.83,0,0,1,233.1,27l0,0,0-.06,0,0,0,0a50.58,50.58,0,0,1,3.68-4.19,52,52,0,0,1,4.88-4.27q4.08-3,8.2-6ZM443,113.47c.34-1.48.74-3,1-4.45.32-1.88.7-3.74.95-5.62l.33-2.59c.09-.7.22-1.41.27-2.12.08-1,.15-1.9.22-2.86.05-.61.12-1.23.12-1.85,0-1.56.05-3.14,0-4.71s-.1-3.22-.19-4.83c-.15-2.5-.32-5-.5-7.49.2,1.19.4,2.38.59,3.56.28,1.68.55,3.35.79,5a31.58,31.58,0,0,1,.28,5.32c0,1.16-.19,2.31-.31,3.46-.13,1.39-.27,2.78-.4,4.16-.24,1.76-.47,3.52-.71,5.28s-.7,3.46-1.06,5.19c-.29,1.45-.69,2.88-1.05,4.32q-.9,3.57-2,7.08c.58-2.29,1.16-4.58,1.69-6.88Zm-4.9-28,.12.89-.12-.89Zm8.49.28s0,.09,0,.13,0-.09,0-.13ZM220.07,136.6c.05-.89.11-1.78.17-2.68,1.1,3.3,2.37,6.53,3.74,9.73a75.52,75.52,0,0,0,6.48,12.13c1.52,2.28,3.13,4.51,4.79,6.7,3.08,4.08,6.13,8.19,9.45,12.1a88.93,88.93,0,0,0,9.65,9.76c2.2,1.9,4.51,3.69,6.85,5.42,1.52,1.12,3,2.28,4.56,3.35q2.72,1.88,5.55,3.55c2.1,1.25,4.3,2.33,6.47,3.44l.85.43a57.6,57.6,0,0,1-5.5-1.91c-1.61-.71-3.16-1.54-4.7-2.4-.93-.52-1.86-1.07-2.81-1.56l-3.11-1.61c-.91-.46-1.86-.85-2.78-1.27-1.66-.77-3.37-1.46-5-2.28-1.39-.7-2.75-1.39-4.08-2.2a40.9,40.9,0,0,1-3.73-2.68c-4.71-3.89-9.48-7.74-13.3-12.55a36.71,36.71,0,0,1-2.59-3.79L229.71,166c-.7-1.21-1.37-2.43-2.05-3.65a93.15,93.15,0,0,1-4.51-8.92,45.67,45.67,0,0,1-2.84-10.79,34.93,34.93,0,0,1-.24-6.05Zm214.77,3.66-.09.23,0-.1,0-.13Zm-1.49,3.55c-.82,2.24-1.68,4.46-2.56,6.68l-1.53,3.31c-.21.45-.44.9-.66,1.34l.48-1.16a1.84,1.84,0,0,0,.17-.38h0q1.81-4.32,3.62-8.66c-.06.14-.11.27-.17.4.22-.5.43-1,.65-1.52ZM223,153.12l.11.26-.11-.26Zm206.21.54-.09.21.09-.21Zm-.14.32,0,.07,0-.07ZM417.75,167.3c-.08.1-.15.2-.23.29l.23-.29Zm-5,11.58c-.82.83-1.68,1.62-2.56,2.4s-1.79,1.5-2.69,2.22c-1.87,1.52-3.69,3.07-5.47,4.69-1.62,1.49-3.23,3-4.88,4.46-.77.68-1.54,1.37-2.34,2L391.88,197q-4.28,3.14-8.58,6.26c-1.53,1.11-3,2.24-4.56,3.37-1,.76-2.07,1.48-3.14,2.18a42.36,42.36,0,0,1-6.62,3.6,41.13,41.13,0,0,1-10.1,2.72,37.91,37.91,0,0,1-9.34-.08,40.62,40.62,0,0,1-10-2.6l-3.94-1.65-1.67-.72c.47,0,.95,0,1.42,0l5.77-.48a82.18,82.18,0,0,0,10.1-1.46,71.34,71.34,0,0,0,8.16-2.25c1.46-.48,2.95-.91,4.38-1.46q4.94-1.87,9.84-3.8c2.68-1.06,5.38-2.07,8.05-3.14,1.75-.7,3.52-1.35,5.24-2.11l5.21-2.32c.38-.17.74-.37,1.11-.56l3.06-1.62c1.37-.72,2.67-1.52,4-2.33.49-.3,1-.59,1.47-.93l2.36-1.7c.76-.55,1.46-1.19,2.18-1.79.56-.48,1.13-.95,1.7-1.42,1.09-.9,2.2-1.76,3.3-2.63l-.29.22c.6-.46,1.18-.93,1.75-1.42ZM273.36,198.72l.12.05-.12-.05ZM233.12,27l0,0,0,0Z" transform="translate(28.86 45.45)"/></g></g></g></svg>