<svg xmlns="http://www.w3.org/2000/svg" xmlns:xlink="http://www.w3.org/1999/xlink" viewBox="0 0 721.16 1104.42"><defs><style>.cls-1{fill:none;}.cls-2{clip-path:url(#clip-path);}.cls-3{fill:#f7e1d3;}.cls-4{fill:#ffcb8a;}.cls-5{fill:#16401b;}</style><clipPath id="clip-path" transform="translate(250.53 129.04)"><rect class="cls-1" width="470.63" height="836.67"/></clipPath></defs><g id="Layer_2" data-name="Layer 2"><g id="ëÎÓÈ_1" data-name="ëÎÓÈ 1"><g class="cls-2"><rect class="cls-3" x="250.53" y="129.04" width="470.63" height="836.67"/><path class="cls-3" d="M72.07,733.77a35.31,35.31,0,0,0-5.33-26.37C-28.74,686.72-131,698.82-219,741.21c-3.61,1.74-7.29,3.59-10,6.53-3.67,4-5.18,9.43-6.48,14.68a511.33,511.33,0,0,0-10.62,189.85c.62,4.68,1.57,9.83,5.3,12.72,3.23,2.5,7.66,2.59,11.74,2.57,33.93-.16,65.48,3.41,97.17-8.31l4.92-1.81c.94-.35,1.91-.67,2.85-1l1.5-.5c3.22-1.08,6.54-2.2,9.77-3.51,1.74-.7,3.53-1.5,5.3-2.38,1.46-.72,3-1.5,4.48-2.4l.15-.1,4.59-2.82c1-.64,2.07-1.33,3-2l1.27-.84c.84-.55,1.7-1.12,2.53-1.72l1.56-1.13c1.86-1.35,3.72-2.69,5.57-4.06l1.1-.79c.87-.63,1.77-1.29,2.63-2l4.27-3.3c2-1.58,4.11-3.33,6.17-5.22,2.44-2.23,4.72-4.7,7-7.24l.95-1c3.7-4.07,7.53-8.27,11.16-12.53q3-3.51,6-7l3.26-3.77c.62-.71,1.29-1.41,1.93-2.08l.91-1,.93-1c.67-.73,1.36-1.48,2.06-2.19l1.17-1.19,2.32-2.36,6.21-6.3,1.71-1.72,1.7-1.73c.55-.55,1.12-1.08,1.68-1.6l.79-.75,1.59-1.51c1.51-1.46,3.08-3,4.69-4.36l2.43-2.1,2.49-2.15.65-.56q.9-.79,1.83-1.56l1.26-1,6.36-5.17,4.91-3.48,2.69-1.9c1.68-1.19,3.4-2.37,5.07-3.51.85-.57,1.7-1.15,2.54-1.74,1.92-1.32,3.95-2.79,6.56-4.78a105.3,105.3,0,0,0,10-8.42,51.81,51.81,0,0,0,3.94-4.38c1.42-1.74,2.85-3.63,4.24-5.62,1.21-1.73,2.34-3.53,3.38-5.22l.38-.62c.62-1,1.25-2.05,1.83-3.1l2.66-4.8,2.66-4.81.32-.57c.27-.47.54-1,.78-1.45l2.06-4.22,1.08-2.21,3.35-6.84c1-2,1.89-4,2.78-5.94l1.41-3c1.36-2.91,2.62-5.93,3.83-8.84,0,0,.73-1.74.74-1.78l0-.1.09-.21.09-.22-.15.32.86-2c1.27-3,2.59-6.09,3.76-9.19.55-1.44,1.06-2.93,1.55-4.37l.51-1.48c.61-1.76,1.32-3.84,2-5.91a51.94,51.94,0,0,0,2.38-12.07,46,46,0,0,0-.13-6.27c-.07-.93-.15-2-.28-3.12-.1-.93-.27-1.86-.44-2.75l-.15-.86a3.67,3.67,0,0,0-1.74-2.26,3.81,3.81,0,0,0-1.9-.51,3.66,3.66,0,0,0-1,.13,3.8,3.8,0,0,0-2.25,1.73c-.13.3-.26.6-.38.9a3.81,3.81,0,0,0,0,2c0,.33.11.65.17,1l.21,1.14a50.09,50.09,0,0,1,.2,10.53c-.2,1.24-.44,2.5-.76,3.83H-167.58l0,235.68.23-.06a55.48,55.48,0,0,1-6.33,1.53l-.36,0c-1.48.18-3,.36-4.5.47a1.34,1.34,0,0,0-.35,0,1.57,1.57,0,0,0-.37,0,1.42,1.42,0,0,0-1,1.72v.07a1.39,1.39,0,0,0,1.29,1c1.2-.08,2.35-.26,3.46-.44l1.18-.18c.72-.11,1.37-.22,2-.34s1.06-.25,1.57-.39l.51-.14c1-.27,2-.59,3-.89l1.1-.36,3.51-1.11,1.18-.37c1.68-.53,3.39-1.12,5.12-1.74" transform="translate(250.53 129.04)"/><path class="cls-4" d="M410.41,74.59c12.74-9.18,15.95-26.68,16.12-42.38C426.77,9,429.93-6.62,438-27.88c6.64-17.51,13.39-35.61,12.7-54.33S440-120.62,422.27-126.78c-11.23-3.91-23.53-1.93-35.27-.1a1019.52,1019.52,0,0,1-239.87,8.6c-40.29-3.32-82.52-8.76-119.8,6.88C15.73-106.53,3.88-98.17,2-85.73-1.18-65.33,26.38-67.13,36-55.2c.8,1.07,1.51,2.11,2.19,3.17a31.22,31.22,0,0,1,2.16,4.17A43.31,43.31,0,0,1,42-43a47.94,47.94,0,0,1,1,5.05c.86,7.08.54,14.32.23,21.32l-.09,2.24c-.2,4.8-.26,9.54-.3,14,0,2.17,0,4.32.1,6.13l.12,4c.08,2.61.41,5.27.7,7.62.4,3.27.91,6.48,1.52,9.54a89.12,89.12,0,0,0,2.52,9.5c.8,2.51,1.8,5.18,3.16,8.41.68,1.62,1.35,3.2,2.08,4.75l3.53,7.53c.18.38.39.75.59,1.1l.23.42L59.74,63l.8,1.45.78,1.4c.24.45.53.88.8,1.29l.38.58,2.06,3.2,2.18,3.4c.89,1.39,1.85,2.76,2.77,4.1.46.65.91,1.3,1.36,2l.71,1,.72,1.06c.36.53.76,1,1.15,1.54.19.25.39.5.57.76.51.67,1,1.35,1.51,2,1.11,1.52,2.26,3.08,3.46,4.57L81.13,94l2.67,3.32q1.71,2.13,3.47,4.24l1.37,1.68c.93,1.15,1.9,2.33,2.89,3.46l2.75,3.13L97,113c1,1.15,2.09,2.26,3.14,3.34.35.36.71.72,1.06,1.09,2.89,3,5.77,6.06,8.57,9.09,3.31,3.6,6.63,7.16,9.86,10.57l3.06,3.24,1.52,1.63,1.42,1.47.82.85.75.79c.49.52,1,1.06,1.51,1.55l1.46,1.4c1.09,1,2.2,2.11,3.34,3.12l2.65,2.36,2.71,2.4c1.77,1.57,3.54,3.17,5.3,4.77,1.4,1.28,2.86,2.54,4.28,3.76l.86.75c1.54,1.33,3.18,2.59,4.6,3.67s2.75,1.95,3.82,2.64c1.25.8,2.59,1.65,4,2.38l6.47,3.37c.49.25,1,.47,1.51.69l.75.32,2.18,1,2.14.95a91.68,91.68,0,0,0,15,5.11c2.58.65,5.24,1.13,7.8,1.59l1.54.28.32.06c1,.18,2.08.38,3.14.52l1.66.21,1.69.23c2,.27,4.17.55,6.32.75l1.87.18c1.57.15,3.15.31,4.72.44l5.44.42q4.16.31,8.29.67c2.48.21,5,.42,7.45.6,1.34.11,2.56.15,3.73.15.85,0,1.68,0,2.48-.08a26.55,26.55,0,0,0,4.3-.67A23.5,23.5,0,0,0,255,189a44.21,44.21,0,0,0,4.3-2.3l1.05-.61q1.46-.83,2.88-1.68c.85-.49,1.7-1,2.53-1.5l1-.59c.67-.41,1.35-.84,2-1.22l2.51-1.4.91-.51c.65-.36,1.34-.7,2-1l.88-.45c1.56-.78,3.16-1.56,4.7-2.3l.74-.36c1.27-.61,2.53-1.24,3.8-1.86,2.76-1.37,5.62-2.78,8.49-4,1.74-.77,3.49-1.52,5.24-2.27l.43-.19,1.41-.53c1.43-.54,2.9-1.11,4.39-1.57,2.21-.69,4.43-1.38,6.65-2.05,3.92-1.2,7.88-2.51,11.71-3.77l1.19-.39,2.64-.87c3.38-1.12,6.88-2.27,10.33-3.37,2.26-.71,4.51-1.45,6.76-2.18,1.69-.55,3.37-1.23,5-1.89l1.37-.55c1.64-.65,3.26-1.43,4.83-2.18l1.67-.79c1.89-.89,3.57-1.73,5.14-2.57L365,142.1a47.32,47.32,0,0,0,6.72-4.59,66.18,66.18,0,0,0,6.35-5.68c1.26-1.29,2.44-2.63,3.58-3.94,1.41-1.6,2.91-3.34,4.29-5.15l.25-.32a55.62,55.62,0,0,0,3.69-5.22c1.22-2,2.42-4.06,3.62-6.09,1-1.69,2.12-3.47,3.55-5.59.89-1.33,1.86-2.65,2.8-3.91l.45-.62c1.23-1.66,2.32-3.27,3.33-4.9,1.17-1.88,2.26-3.84,3.32-5.73.78-1.41,1.6-2.86,2.43-4.28,1.05-1.77,2.06-3.55,3.09-5.44.74-1.37,1.41-2.8,2.05-4.2l.51-1.09c.75-1.6,1.49-3.37,2.26-5.42.3-.8.58-1.62.83-2.45a12.69,12.69,0,0,0,.3-1.4,12.85,12.85,0,0,0,.15-1.36,4.64,4.64,0,0,0-.23-1.52,2.37,2.37,0,0,0-4-1.09,2.24,2.24,0,0,0-.7,1.68,2.64,2.64,0,0,1,.06.55,48.84,48.84,0,0,1-2.14,7.16l-.51,1.16,0-158.3H13.44l.11.14c-.29-.36-.57-.72-.86-1.07C10.31-89.72,8-93,5.74-96.15L4.39-98A2.42,2.42,0,0,0,3-99.12a2.43,2.43,0,0,0-.61-.08,2.29,2.29,0,0,0-1.17.32A2.45,2.45,0,0,0,.11-97.3a2,2,0,0,0,.28,1.59l2.11,3L5.56-88.4c2.3,3.28,4.15,5.75,6,8s4.13,4.79,6.76,7.47c1.35,1.38,2.79,2.73,4.17,4l1.23,1.16.75.7" transform="translate(250.53 129.04)"/></g><path class="cls-5" d="M456.94,340.35c.09-.77.17-1.55.24-2.33.15-1.67.32-3.33.43-5s.26-3.47.32-5.21.16-3.78.2-5.67.09-4,.14-6.07c0-1.58,0-3.16,0-4.74s0-3.41,0-5.12-.05-3.39-.08-5.08-.14-3.59-.23-5.38c-.07-1.37-.15-2.73-.25-4.1-.09-1.21-.17-2.42-.26-3.63,0-.67-.08-1.35-.14-2-.32-3.38-.63-6.76-1-10.13-.2-1.79-.39-3.57-.59-5.36s-.45-3.77-.68-5.66c-.79-6.49-1.43-13-2.11-19.55q-.57-5.46-1.19-10.91c-.33-2.93-.62-5.88-1-8.78-.26-1.78-.51-3.56-.77-5.34-.08-.52-.19-1-.29-1.54l-.72-3.72-.57-2.94c-.06-.31-.11-.63-.19-.93-.47-2-1-4.07-1.42-6.1-.27-1.12-.51-2.26-.81-3.36-.56-2.07-1.12-4.13-1.69-6.2-.36-1.34-.76-2.67-1.15-4-.47-1.6-1-3.17-1.47-4.74-.18-.57-.4-1.11-.6-1.66l-.9-2.49c-.16-.46-.35-.9-.53-1.35-.42-1.09-.85-2.17-1.28-3.26-.54-1.35-1.17-2.61-1.76-3.9a38,38,0,0,0-2-3.74c-.59-1-1.24-1.84-1.88-2.72q-2.62-3.59-5.35-7c-.85-1.06-1.71-2.11-2.57-3.15s-1.59-2-2.4-2.93c-1.81-2.16-3.65-4.27-5.51-6.35-.38-.43-.77-.83-1.16-1.25s-.67-.74-1-1.07l-1.77-1.65c-.48-.45-1-.85-1.48-1.27-1.83-1.55-3.67-3.06-5.57-4.42-.91-.65-1.81-1.3-2.73-1.9s-2-1.31-3-2c-4.19-2.91-8.28-6-12.42-9.08q-2.88-2.11-5.86-4c-1.88-1.18-3.82-2.25-5.76-3.24q-2.19-1.11-4.34-2.33c-1.42-.8-2.81-1.68-4.22-2.49s-2.73-1.5-4.12-2.16c-.66-.32-1.33-.62-2-.92a13.11,13.11,0,0,1-2.26-1.17,2.56,2.56,0,0,1-.31-.34v0l.4-.41a10.9,10.9,0,0,1,.93-.75c.37-.26.74-.5,1.12-.74.83-.51,1.69-.92,2.53-1.36l2.72-1.38c.85-.43,1.68-.93,2.51-1.42,1.9-1.12,3.78-2.36,5.68-3.49s3.53-2.18,5.3-3.26a55.72,55.72,0,0,0,5.39-3.51c.39-.3.77-.63,1.15-1s.47-.42.7-.65c.42-.39.77-.76,1.17-1.21.23-.28.44-.59.65-.9.41-.6.79-1.23,1.17-1.88s.62-1.11.9-1.69c1.2-2.4,2.33-4.87,3.51-7.29.56-1.15,1.13-2.27,1.73-3.38a32.26,32.26,0,0,1,1.81-2.9c.84-1.2,1.69-2.37,2.56-3.54.38-.51.79-1,1.18-1.5.55-.69,1.09-1.38,1.63-2.08,1.81-2.31,3.49-4.84,5.18-7.34q1.23-1.78,2.53-3.49a21.75,21.75,0,0,1,2.91-3c1-.87,1.93-1.73,2.91-2.57s1.86-1.64,2.77-2.51a38.14,38.14,0,0,0,2.89-3.26c.88-1.06,1.73-2.17,2.56-3.31s1.59-2.23,2.39-3.34q.54-.75,1.08-1.47c.47-.6,1-1.13,1.46-1.67s.85-.84,1.27-1.25,1-1,1.51-1.44c.82-.76,1.63-1.53,2.45-2.28,1.9-1.7,3.89-3.2,5.77-5,1.08-1,2.15-2.09,3.19-3.2.52-.54,1-1.1,1.54-1.64,2.3-1.72,4.6-3.45,6.91-5.14,1.13-.83,2.25-1.67,3.39-2.46l1.14-.78,1.91-1.13a1.19,1.19,0,0,0,.42-.44c.93-.57,1.88-1.09,2.83-1.56a70.37,70.37,0,0,1,6.88-2.52,1.91,1.91,0,0,0,1-2c-.06-.88-.64-1.53-1.26-1.33l-4.06,1.37a33.16,33.16,0,0,0-5.37,2.41c-.8.45-1.59,1-2.38,1.47-1.29.7-2.58,1.42-3.87,2.14-.82.46-1.63.93-2.44,1.43s-1.69,1.14-2.53,1.76-1.56,1.32-2.32,2-1.46,1.4-2.18,2.11c-1.83,1.31-3.65,2.61-5.5,3.8-2.24,1.45-4.49,2.85-6.66,4.55-.53.42-1.07.81-1.58,1.28l-1.74,1.6c-.45.41-.87.88-1.29,1.33s-1,1.09-1.52,1.68l-1.56,1.86c-.18.21-.34.45-.51.67l-.95,1.26c-.92,1.21-1.83,2.45-2.73,3.69-1.82,2.49-3.73,4.84-5.62,7.23l-.75,1c-1.08.95-2.14,1.93-3.2,2.93a26.55,26.55,0,0,0-2.94,3.67c-1,1.41-2,2.87-2.95,4.32-.71,1-1.43,2.06-2.15,3.07-.86,1.19-1.75,2.32-2.63,3.46l-.76,1c-1.95,1.91-4,3.68-5.89,5.62-1.29,1.3-2.57,2.65-3.86,4-.66.67-1.31,1.38-2,2l-2,1.83-1.9,1.58c-.58.48-1.18.9-1.77,1.34-1.23.91-2.5,1.71-3.77,2.49-.62.38-1.24.77-1.87,1.14s-1.37.84-2.07,1.21l-2.11,1.14c-.7.37-1.41.69-2.12,1L367,88.23a24.29,24.29,0,0,1-2.73,1c-.93.31-1.87.58-2.8.83a25.69,25.69,0,0,1-3,.54l-1.3.1c-.54,0-1.08,0-1.61,0s-1,0-1.52,0l-.93-.06a10,10,0,0,1-2.09-.4,15.88,15.88,0,0,1-4.07-2l-2.22-1.57.3.23c-.88-.69-1.78-1.35-2.64-2.08q-1.71-1.45-3.41-2.95c-.79-.71-1.57-1.47-2.34-2.25-.95-1-1.91-1.94-2.85-2.94L332.15,75c-.39-.41-.76-.87-1.14-1.31-1-1.12-1.91-2.28-2.85-3.45-.79-1-1.6-1.92-2.41-2.88-.31-.36-.61-.75-.94-1.1l-1.9-2a39,39,0,0,0-5.65-4.88c-1-.73-2-1.45-3-2.12L312.42,56c-.54-.35-1.09-.65-1.63-1-2-1.2-4-2.41-6.07-3.48q-3.3-1.74-6.61-3.4l-3.43-1.72c-.38-.19-.77-.35-1.16-.53l-2.47-1.12c-1.05-.48-2.13-.84-3.2-1.25s-2.33-.88-3.49-1.3c-2.11-.78-4.25-1.45-6.39-2.08s-4.43-1.28-6.67-1.84c-1.09-.27-2.17-.57-3.27-.8s-2.37-.51-3.56-.74-2.35-.52-3.53-.71l-1.94-.3c-.54-.09-1.09-.21-1.64-.26-1.11-.11-2.21-.25-3.32-.32s-2.28-.21-3.43-.22-2.23-.08-3.35,0-2.41.12-3.62.21c-2.66.22-5.3.44-8,.78s-5,.74-7.53,1l-3.76.35c-1.19.11-2.37.3-3.56.45-2.63.34-5.26.63-7.89.89-1,.08-1.94.15-2.92.21-1.31.08-2.61.12-3.91.15-2.23.06-4.46.06-6.68,0s-4.72-.09-7.08-.1-4.66,0-7,0q-7.29-.06-14.58-.23c-4.7-.11-9.42,0-14.13.2-2.38.1-4.75.25-7.13.39-1.12.06-2.25.15-3.37.23s-2.41.26-3.62.4-2.19.34-3.29.51-2.3.47-3.45.71c-.57.12-1.14.29-1.71.44l-1.71.44-3.58.95c-2.29.6-4.59,1.29-6.88,2s-4.85,1.44-7.27,2.2-4.74,1.5-7.12,2.23-4.75,1.52-7.12,2.29-4.76,1.53-7.14,2.24S88.74,55,86.49,55.61c-4.63,1.23-9.25,2.53-13.89,3.63-2.23.53-4.46,1-6.69,1.64-1.1.28-2.2.58-3.29.87s-2.15.47-3.23.7c-2.33.51-4.66,1-7,1.48a48.38,48.38,0,0,0-6.1,1.57,17.66,17.66,0,0,0-2.11.91c-.28.15-.55.31-.82.48a3.33,3.33,0,0,0-.48.38,3.07,3.07,0,0,0-.45,1,1.86,1.86,0,0,0,.09,1.38,3.47,3.47,0,0,0,.37.59l.56.44a10.63,10.63,0,0,0,2.25,1.2c.9.41,1.8.8,2.71,1.17.69.28,1.4.48,2.11.7l2.86.9c3.21,1,6.43,1.93,9.65,2.89,4.25,1.34,8.46,2.85,12.61,4.61,1,.45,2.1.89,3.15,1.38l3.61,1.69c2.18,1,4.37,2.09,6.48,3.36s4.29,2.64,6.47,3.88c1,.59,2.08,1.17,3.14,1.72l1.68.87c.67.34,1.35.62,2,.93a110.74,110.74,0,0,0,12.62,4.85c2.27.72,4.54,1.45,6.82,2.1,1.12.32,2.24.64,3.37.91s2.52.6,3.78.89c2.38.53,4.76,1,7.16,1.35s4.76.67,7.15,1,4.71.48,7.07.64c1.1.08,2.19.12,3.29.18.48,0,1,0,1.45,0,.63,0,1.25,0,1.88,0,2.41,0,4.82-.08,7.24-.21s5.07-.33,7.61-.56c1.87-.18,3.76-.47,5.63-.71s3.69-.53,5.54-.78,3.7-.47,5.56-.71,3.76-.53,5.64-.83c1.73-.28,3.47-.53,5.2-.88,2-.39,4-.79,5.94-1.17a112.51,112.51,0,0,1,11.18-1.36l-.31,0c4.62-.22,9.26-.49,13.86-.35,2.51.08,5,.13,7.54.1l3.47-.05c.5,0,1-.07,1.5-.11s1.14-.08,1.71-.14c1.11-.12,2.22-.21,3.33-.39.55-.1,1.11-.17,1.67-.3s1.33-.31,2-.48c2.22-.58,4.43-1.22,6.63-1.9a65.47,65.47,0,0,0,6.78-2.43c.58-.25,1.17-.48,1.74-.77l1.66-.82c.48-.24,1-.54,1.45-.8s1.18-.72,1.76-1.09c1.28-.83,2.56-1.67,3.85-2.48a38.92,38.92,0,0,1,3.47-1.86l-.05,0a41.63,41.63,0,0,1,7.07-2.3c1.31-.31,2.62-.58,3.94-.8s2.4-.31,3.6-.44q4-.21,8,0c2.4.1,4.79.36,7.18.59,2.55.25,5.1.46,7.64.72.56.06,1.1.2,1.65.31s1.25.26,1.88.36a29.1,29.1,0,0,1,3.41.81A37,37,0,0,1,328,88.48c.9.47,1.79,1,2.67,1.53A28.45,28.45,0,0,1,333,91.7c.81.66,1.57,1.4,2.33,2.15a20.3,20.3,0,0,1,2.19,2.48,9.17,9.17,0,0,1,.75,1.39,4.16,4.16,0,0,1,.17.63c0,.15,0,.31,0,.47a1.87,1.87,0,0,0,0,.25l-.21.5a15.39,15.39,0,0,1-1,1.72l.15-.22-.37.5a12.29,12.29,0,0,1-1.06,1.19c-1.52,1.35-3.08,2.57-4.62,3.87-.64.55-1.28,1.14-1.91,1.72-.8.74-1.6,1.46-2.36,2.24-1.5,1.55-3,3.13-4.49,4.61s-3,3-4.56,4.4L315.25,122l.05,0q-2.71,2.37-5.49,4.53c-1,.76-2,1.44-3,2.09a31.53,31.53,0,0,1-3,1.64h0c-.46.2-.92.41-1.38.58l-.91.33a9.68,9.68,0,0,1-1.15.29c-.57.15-1.14.21-1.7.31s-1.2.14-1.8.21c-1,.08-2.06.14-3.09.21-1.19.07-2.39,0-3.58,0-2.16,0-4.32-.23-6.47-.44s-4.52-.45-6.8-.53-4.76,0-7.14.06-4.6.17-6.9.2-4.87.08-7.3,0-4.74-.07-7.1-.14c-1,0-2,0-2.94,0l-1.93.11c-.61,0-1.22.16-1.83.24-.86.12-1.73.2-2.59.37l-3.92.75L229.26,134l-5.76,1.1c-.54.1-1.08.15-1.62.22s-.9.13-1.35.17l-3.26.32.27,0-3.74.34c-2.11.15-4.22.22-6.34.34l-6.77.36c-2.2.12-4.39.22-6.58.38-2.49.18-5,.36-7.45.49l-7,.39c-2.36.12-4.71.21-7.07.4-4.84.38-9.68.77-14.51,1.3l-4.26.48c-1.08.12-2.17.2-3.26.36l-8,1.23c-.71.11-1.41.25-2.12.38l-5.28,1c-2.23.4-4.45.94-6.68,1.46l-3.74.85c-1,.22-1.91.55-2.86.83-2.35.67-4.68,1.33-7,2.08s-4.81,1.51-7.21,2.34c-3.72,1.29-7.45,2.55-11.16,4a75.81,75.81,0,0,0-9.22,4.56c-1.34.76-2.66,1.61-4,2.43L79.67,164c-.27.17-.53.38-.8.57l-2.55,1.84-2,1.46c-.21.15-.42.29-.62.46l-4,3.38-2,1.63c-.3.25-.6.49-.89.76l-3.26,3-3.23,3c-.28.26-.55.55-.83.82L57,183.42c-.79.79-1.59,1.57-2.37,2.4l-3.55,3.81C50,190.76,49,192,48,193.11s-2,2.31-3,3.47q-2.64,3-5.18,6.29l-.93,1.18c-.3.36-.59.75-.87,1.16a5.15,5.15,0,0,0-.63,1.16,2,2,0,0,0-.22,1,1.28,1.28,0,0,0,.54,1,1.52,1.52,0,0,0,.85.55l.59.09,1.13,0a12,12,0,0,0,1.33-.14c1-.15,2-.33,3-.45l6.35-.82,7.79-.43c.7,0,1.38,0,2.08,0l5.4.12c.75,0,1.51,0,2.27,0l3.87.3c2.23.17,4.46.29,6.68.54l8.83,1c.62.07,1.22.16,1.84.25l5.2.75c4.45.65,8.89,1.41,13.31,2.25,2.31.43,4.61.87,6.9,1.37s4.75,1,7.13,1.48l4.43.87c1,.19,1.93.29,2.89.43l4.18.6.66.06,2.55.19,3.5.26c.8.06,1.61,0,2.41,0s1.6,0,2.41-.06c1.7-.07,3.41-.26,5.12-.49,3.23-.43,6.44-1.25,9.66-2l6.78-1.52c2.25-.51,4.5-.88,6.75-1.41l3.72-.89,1.61-.39c.9-.21,1.79-.5,2.68-.77a46.32,46.32,0,0,0,15.94-8.52c1.23-.94,2.43-2,3.64-3,.84-.69,1.65-1.48,2.48-2.22s1.72-1.6,2.57-2.44,1.8-1.73,2.71-2.59c1.08-1,2.15-1.95,3.25-2.84a41.54,41.54,0,0,1,7.71-4.92,33.26,33.26,0,0,1,3.45-1.35,28.65,28.65,0,0,1,4-1c1.35-.25,2.71-.43,4.06-.61.8-.11,1.61-.23,2.42-.33l2-.26c.44-.05.87-.09,1.31-.17l3.44-.62c.92-.17,1.84-.4,2.76-.6,2.13-.49,4.25-1,6.38-1.58.87-.22,1.75-.49,2.62-.74s1.93-.55,2.89-.9l2-.73c.27-.1.54-.2.81-.33l1.92-.91c.4-.19.81-.36,1.2-.57q3.21-1.74,6.39-3.51c1.8-1,3.61-1.88,5.43-2.75l-.06,0,.26-.12.21-.1,1.21-.58-.09,0,.17-.08.22-.11c1.36-.64,2.71-1.28,4.05-2,.66-.36,1.33-.7,2-1.12s1.49-.93,2.22-1.44c2.77-2,5.53-4,8.28-6,1.21-.89,2.4-1.8,3.6-2.69,1.36-1,2.72-2,4.07-3s2.44-1.8,3.64-2.73l1.46-1.12a8.77,8.77,0,0,1,1.45-.88c.46-.19.91-.38,1.36-.55-.11.24-.24.47-.37.7-.25.45-.51.88-.79,1.29-1.44,2.12-2.89,4.25-4.33,6.39-1.13,1.68-2.2,3.45-3.29,5.18s-2.07,3.43-3.1,5.15-2.09,3.58-3.13,5.39c-.92,1.6-1.83,3.2-2.72,4.82-1.07,1.94-2.12,3.9-3.2,5.82l-2.15,3.83c-.39.7-.76,1.43-1.18,2.09l-3.61,5.78c-1.63,2.38-3.25,4.76-4.91,7.1a85.56,85.56,0,0,1-12,13.76l0,0c-1,.87-1.95,1.75-3,2.52l-1.88,1.43c-1,.78-2,1.58-3.08,2.32l-3.89,2.77c-1.23.87-2.48,1.7-3.72,2.55l-2.87,1.93L242,226.31c-.48.32-1,.58-1.45.87l-2.33,1.38c-.29.17-.58.35-.87.5l-4.46,2.28c-1.1.56-2.21,1.09-3.32,1.63s-2.15,1.18-3.22,1.81l-2.25,1.32c-.71.42-1.41.88-2.12,1.34a73.14,73.14,0,0,0-9.14,7.21c-1.24,1.14-2.44,2.37-3.66,3.57-1.74,1.72-3.45,3.48-5.14,5.3a100.54,100.54,0,0,0-11.52,15.66q-1.56,2.56-3.14,5.13c-.71,1.17-1.39,2.4-2.08,3.61q-1.23,2.11-2.44,4.24c-.26.44-.49.94-.73,1.4-.6,1.16-1.21,2.32-1.81,3.49s-1.13,2.11-1.64,3.21l-2.85,6.14c-1.41,3.05-2.75,6.16-4.11,9.26s-2.66,5.94-4,8.91c-.5,1.1-1.05,2.16-1.58,3.23q-1.23,2.47-2.44,4.95c-.23.46-.48.91-.71,1.36L163.51,327c-.69,1.32-1.37,2.65-2.07,4-1.55,2.9-3.1,5.82-4.66,8.72l-2.94,5.49c-.65,1.19-1.22,2.46-1.82,3.69-.78,1.61-1.57,3.22-2.35,4.82s-1.42,3.08-2.13,4.61c-.52,1.12-1,2.25-1.57,3.34q-1.49,3-3,6c-1.52,3-3.1,6-4.65,9-1.35,2.59-2.74,5.12-4.1,7.69q-1.26,2.38-2.53,4.77c-.64,1.22-1.3,2.42-1.92,3.66-1.57,3.17-3.15,6.33-4.68,9.55s-3,6.18-4.51,9.26c-1.11,2.26-2.26,4.49-3.4,6.73-1,2-2,4.08-3.1,6l-.13.17a2.14,2.14,0,0,0-.44,1.08,1.89,1.89,0,0,0,.18,1.15l0,.07a1,1,0,0,0,.71.55,1.12,1.12,0,0,0,1-.68l.45-.76.35-.45c.43-.47.87-.92,1.32-1.34.61-.54,1.22-1.05,1.86-1.53s1.39-1,2.1-1.44c.88-.57,1.76-1.11,2.66-1.59l5.2-2.81,7.44-4c2.25-1.22,4.48-2.54,6.75-3.64l8.76-4.23q7.05-3.06,14.09-6.06l1.86-.8a14.8,14.8,0,0,0,1.36-.6q2.16-1.19,4.33-2.36c.84-.47,1.68-1,2.51-1.49l3.92-2.38c.47-.28.93-.61,1.4-.91l2.15-1.41c1.17-.77,2.31-1.65,3.46-2.48,2.1-1.52,4.19-3.09,6.22-4.86,1.35-1.18,2.68-2.43,4-3.69.85-.82,1.7-1.64,2.52-2.53l7.11-7.71c.64-.7,1.27-1.43,1.9-2.15l4.38-4.91c3.74-4.22,7.46-8.47,11.13-12.82l3.68-4.36c2.1-2.49,4.22-4.95,6.27-7.54,2.46-3.1,4.79-6.46,7.07-9.84,1.21-1.81,2.39-3.68,3.55-5.56.58-.95,1.15-1.91,1.73-2.87s1.17-1.93,1.72-2.93l5-9.1c.2-.35.37-.74.55-1.11.43-.89.87-1.78,1.3-2.66,1-2.06,2-4.11,3-6.17.37-.74.7-1.5,1-2.29.94-2.23,1.89-4.46,2.83-6.7.36-.83.71-1.67,1.07-2.51.18-.43.38-.86.54-1.3.62-1.65,1.24-3.29,1.87-4.94s1.34-3.57,2-5.36l.32-.93,1-3c.56-1.67,1.12-3.33,1.69-5,.73-2.18,1.4-4.4,2.14-6.58s1.53-4.17,2.35-6.19c1.31-3.09,2.73-6.07,4.24-9l2.53-4.92c1.5-2.89,3-5.79,4.5-8.68,1-1.86,1.93-3.71,2.85-5.62s1.63-3.65,2.38-5.53c.44-1.12.83-2.28,1.24-3.43,1.14-3.2,2.17-6.47,3.23-9.72q1.48-4.56,3.13-9,1.78-4.91,3.51-9.85c.47-1.37.92-2.75,1.37-4.13.27-.83.5-1.69.74-2.53.07-.22.12-.44.17-.67l.54-2.26c.16-.65.29-1.3.43-2s.35-1.58.5-2.37c.33-1.67.65-3.33,1-5,.18-1,.36-1.95.55-2.93v.59c0,.9,0,1.79,0,2.69,0,1.46-.05,2.92-.08,4.37-.17,3.42-.35,6.84-.51,10.25,0,1.1-.11,2.19-.16,3.28,0,.43,0,.86-.05,1.29q0,3.18-.08,6.37l0,2.18c0,.4,0,.8,0,1.2l.3,7.43c.14,3.55.4,7.07.62,10.6.42,6.8.81,13.61,1.24,20.41.22,3.44.51,6.86.78,10.28s.63,7,.95,10.43.67,6.71,1,10.06.63,6.68.94,10c.3,3.18.56,6.37.85,9.56,0,.53.13,1.07.2,1.59l.45,3.46c.14,1.09.28,2.18.43,3.28s.32,2.23.49,3.35q.48,2.94,1,5.83c.42,2.15.91,4.25,1.44,6.34.65,2.59,1.38,5.13,2.14,7.64,1,3.26,2,6.52,3,9.75l1.59,5c.43,1.38.93,2.72,1.39,4.08.61,1.76,1.21,3.53,1.82,5.3.38,1.1.79,2.17,1.18,3.26q2.7,7.4,5.39,14.82c.8,2.22,1.67,4.38,2.51,6.56s1.61,4.09,2.43,6.13q2.41,6,4.93,12c.88,2.09,1.78,4.17,2.64,6.29l2.88,7.17c1,2.86,2.11,5.7,3.12,8.59l3.27,9.31c.55,1.58,1.07,3.18,1.61,4.77.38,1.15.78,2.29,1.12,3.48q.87,3,1.75,6c.35,1.24.73,2.47,1.07,3.73q1.54,5.63,3.1,11.26c.25.93.48,1.87.71,2.82.54,2.16,1.07,4.32,1.61,6.49.28,1.13.53,2.29.79,3.44.36,1.59.76,3.18,1.08,4.8l1.08,5.49c.12.6.21,1.23.31,1.84.15.87.29,1.74.44,2.62.47,3,.93,6.1,1.45,9.13a6.78,6.78,0,0,0,.94,2.78c.22.29.42.52.74.55a1.25,1.25,0,0,0,.84-.24l.23-.2a2.7,2.7,0,0,0,.78-1,13.33,13.33,0,0,0,1.1-2.09c.35-.72.65-1.57.95-2.34.55-1.44,1-3,1.4-4.47.55-2,.95-4.07,1.36-6.11.16-.82.31-1.63.45-2.45q.6-3.4,1.19-6.81c.06-.33.1-.65.15-1l.42-3.08c.29-2.1.57-4.19.86-6.29.11-.78.19-1.64.27-2.42.13-1.18.24-2.37.36-3.56.23-2.4.4-4.8.54-7.2.15-2.55.23-5.1.3-7.64.06-2.3.14-4.6.14-6.89q0-6.19,0-12.38c0-.85,0-1.71,0-2.55-.07-2.18-.13-4.35-.2-6.53-.09-3-.14-6.09-.31-9.12q-.39-6.78-.79-13.56-.06-1.05-.15-2.1-.33-3.36-.64-6.72l-.63-6.61c-.08-.83-.15-1.64-.26-2.45l-1.8-13c-.12-.88-.23-1.77-.37-2.65l-.81-5-1.77-11c-.18-1.06-.41-2.1-.61-3.14l-1.41-7.14q-.6-3-1.18-6c-.16-.76-.3-1.51-.47-2.26q-1.27-5.55-2.53-11.08c-.56-2.45-1.08-4.92-1.62-7.38-.34-1.6-.69-3.21-1-4.82-.25-1.15-.44-2.33-.67-3.5-.28-1.5-.56-3-.85-4.51s-.5-3-.75-4.46-.4-2.72-.56-4.1c-.21-1.69-.41-3.39-.62-5.08l-.42-3.39c-.07-.58-.13-1.17-.22-1.74-.31-2-.61-4-.91-6.05-.19-1.24-.43-2.45-.66-3.66l-.66-3.44c-.1-.55-.2-1.1-.32-1.64l-1.17-5.25c-.33-1.48-.7-2.94-1-4.41-.72-3-1.43-6-2-9l-.93-4.76c-.31-1.6-.6-3.21-1-4.78-.21-.92-.42-1.83-.64-2.75-.13-.6-.31-1.19-.47-1.78-.45-1.68-.92-3.34-1.4-5-.89-3-1.88-6-2.85-9-.35-1-.73-2.07-1.1-3.1-.43-1.21-.88-2.39-1.33-3.58-.38-1-.79-2-1.2-3s-.94-2.17-1.42-3.24c-.86-1.9-1.83-3.68-2.81-5.43s-2-3.47-3.09-5.13a43.25,43.25,0,0,0-3.38-4.67A22.68,22.68,0,0,0,333,164.1a33.7,33.7,0,0,0-4.21-2.66c-.79-.43-1.59-.81-2.37-1.26A16,16,0,0,1,324.6,159a10.72,10.72,0,0,1-1.42-1.5,3.43,3.43,0,0,1-.29-.54,6.73,6.73,0,0,1-.29-1,7.72,7.72,0,0,1-.06-.83,33.71,33.71,0,0,1,.7-5.19,43.22,43.22,0,0,1,2-6.88,37,37,0,0,1,2-3.74c.4-.71.83-1.37,1.27-2l.57-.78c.25-.3.5-.59.76-.86s.67-.67,1-1l1.63-1.6c.92-.8,1.85-1.58,2.78-2.38q1.63-1.44,3.21-3.06c1.65-1.69,3.29-3.4,5-5a5,5,0,0,1,.69-.48h0l.4.23a16.28,16.28,0,0,1,1.69,1.81,4.5,4.5,0,0,1,.38.64,14.44,14.44,0,0,1,.62,1.38c1.19,3.16,2.19,6.48,3.21,9.77.42,1.37.86,2.73,1.3,4.09.55,1.64,1.13,3.24,1.71,4.85.49,1.36,1.07,2.65,1.6,4,.61,1.49,1.31,2.9,2,4.34.54,1.16,1.1,2.28,1.66,3.42s1.21,2.46,1.83,3.66l1.4,2.68c.21.4.42.82.64,1.21l2.55,4.55q2,3.59,4.09,7.08c2.91,4.91,5.89,9.73,8.78,14.65.9,1.54,1.8,3.06,2.69,4.61s1.65,2.88,2.49,4.29l1.52,2.55c.13.23.29.44.43.66l1.11,1.65c.94,1.39,1.91,2.74,2.91,4s2.18,2.76,3.29,4.1,2,2.43,3,3.68c2,2.54,3.94,5.19,5.84,7.9,1,1.52,2.05,3,3.05,4.61s2,3.19,3,4.77c.54.85,1,1.75,1.56,2.63.43.72.84,1.46,1.24,2.22l1.41,2.64c.57,1.05,1.08,2.16,1.62,3.24.88,1.75,1.71,3.56,2.57,5.33s1.75,3.49,2.64,5.22c.47.92,1,1.8,1.47,2.7l1.47,2.74c.4.75.75,1.54,1.11,2.33.47,1.06.95,2.11,1.42,3.17.54,1.44,1.08,2.89,1.63,4.34s1,3,1.53,4.49c.42,1.26.82,2.53,1.24,3.79s.94,2.68,1.4,4q.92,2.61,1.81,5.22c.15.44.28.9.42,1.35l1.11,3.57c.86,2.76,1.68,5.55,2.48,8.36.4,1.44.83,2.86,1.21,4.32.43,1.64.9,3.26,1.29,4.92l.66,2.84c.14.59.25,1.19.36,1.79.36,1.84.68,3.68,1,5.54.53,3.09,1,6.19,1.6,9.26.62,3.33,1.28,6.63,1.93,9.94.16.81.35,1.61.53,2.42.14.65.27,1.3.42,1.94l1.2,5.14c.35,1.49.71,3,1.09,4.44s.89,2.94,1.36,4.38c.19.56.38,1.1.59,1.64.12.31.25.62.37.92s.15.32.23.47a5.41,5.41,0,0,0,.44.66,1.6,1.6,0,0,0,1.6.65,2.1,2.1,0,0,0,.89-.6c.21-.3.41-.61.62-.92a11.38,11.38,0,0,0,.57-1.22c.12-.3.24-.59.37-.89.17-.5.32-1,.46-1.51s.2-.8.29-1.19c.2-.78.35-1.57.51-2.36.33-1.64.6-3.3.84-5s.49-3.34.73-5c0-.29.08-.59.11-.88.08-.65.14-1.3.22-1.95m-1.65-10.52c-.09,1.37-.19,2.74-.28,4.12-.05.64-.12,1.28-.18,1.93-.09.94-.18,1.88-.26,2.83-.12,1.24-.28,2.48-.43,3.72s-.3,2.27-.47,3.4q-.3,2.1-.63,4.2c-.1.6-.19,1.21-.3,1.81s-.26,1.31-.38,2l-.36,1.47c-.08.33-.17.65-.26,1a13.45,13.45,0,0,1-.45,1.31l-.09.24-.05.11,0,0-.1.2c-.08-.15-.15-.3-.23-.47l-.24-.61s0,0,0,0c-.44-1.24-.85-2.51-1.26-3.77-.5-1.54-.88-3.18-1.28-4.79-.77-3.11-1.48-6.27-2.18-9.43-.35-1.61-.67-3.23-1-4.85s-.61-3-.89-4.53-.6-3.08-.86-4.64l-1-5.58c-.54-3-1-6.1-1.75-9.05l-.54-2.31c-.17-.69-.37-1.36-.55-2-.41-1.54-.83-3.08-1.27-4.6-.9-3.13-1.79-6.27-2.76-9.35q-.82-2.59-1.64-5.19c-.47-1.46-1-2.88-1.48-4.31s-1-2.73-1.46-4.09c-.56-1.56-1.09-3.14-1.62-4.73s-1-2.88-1.48-4.32c-.15-.46-.34-.9-.5-1.35-.43-1.1-.85-2.21-1.27-3.32-.15-.4-.29-.83-.46-1.21l-1-2.16-1.12-2.47c-.27-.57-.58-1.1-.87-1.63l-2.13-3.89c-.76-1.39-1.49-2.82-2.22-4.24-1.24-2.4-2.36-4.92-3.58-7.35-1.32-2.63-2.64-5.29-4.11-7.75-.73-1.22-1.45-2.45-2.21-3.64s-1.59-2.5-2.38-3.75c-1.46-2.35-3-4.61-4.54-6.83-2-2.84-4-5.62-6.15-8.26q-1.65-2.06-3.28-4.12c-1.14-1.47-2.24-3-3.35-4.53l-1.12-1.69c-.33-.49-.67-.95-1-1.46-.66-1.13-1.34-2.25-2-3.39q-2.33-4-4.69-8.06c-2.81-4.79-5.72-9.43-8.56-14.18-1.43-2.41-2.83-4.85-4.25-7.29-.77-1.34-1.52-2.7-2.29-4s-1.32-2.45-2-3.69c-.55-1.06-1.1-2.11-1.64-3.19-.64-1.29-1.31-2.57-1.93-3.9l-2.1-4.49c-.23-.49-.43-1-.64-1.54l-1-2.32c-.5-1.37-1-2.73-1.49-4.12-.56-1.64-1.11-3.28-1.64-4.94-1.18-3.68-2.31-7.43-3.76-10.88a8.39,8.39,0,0,0-1.74-2.61l-.81-.81a2.83,2.83,0,0,0-1.44-.88,2.87,2.87,0,0,0-2,1c-.42.39-.83.78-1.24,1.19-.92.9-1.86,1.79-2.78,2.7s-1.95,2-2.94,2.89c-1.29,1.13-2.6,2.2-3.89,3.32-.67.58-1.31,1.25-2,1.89-.47.46-.93.93-1.38,1.43a15.85,15.85,0,0,0-1.49,2c-.58.89-1.11,1.84-1.65,2.79-.4.71-.78,1.45-1.15,2.21a17.82,17.82,0,0,0-.88,2.25,49.26,49.26,0,0,0-1.58,6.47c-.2,1-.34,2.05-.47,3.08-.06.53-.09,1.06-.12,1.58a8.65,8.65,0,0,0,.15,2.4,8.2,8.2,0,0,0,.52,1.54,5.78,5.78,0,0,0,1,1.37,10.89,10.89,0,0,0,1.58,1.47,34.9,34.9,0,0,0,4.19,2.54,35,35,0,0,1,4,2.64,29.94,29.94,0,0,1,2.73,2.68c.41.46.83.91,1.21,1.42l1.26,1.75c.88,1.31,1.74,2.66,2.58,4s1.6,2.77,2.37,4.17c.35.62.68,1.28,1,1.92s.7,1.41,1,2.13l1.05,2.37c.4.88.75,1.82,1.13,2.73s.8,2.07,1.17,3.12l1.37,3.89c.46,1.28.86,2.62,1.28,3.93s.8,2.55,1.2,3.82c.77,2.46,1.42,5,2.08,7.53s1.15,5.11,1.64,7.72c.46,2.45.91,4.92,1.42,7.35.25,1.22.49,2.45.77,3.65.32,1.39.63,2.77,1,4.16s.6,2.49.87,3.75c.36,1.65.71,3.3,1.07,5,.22,1,.39,2,.58,3l.87,4.68c.24,1.66.49,3.32.73,5,.19,1.35.37,2.71.53,4.08.37,3.16.7,6.34,1.09,9.49.1.86.21,1.72.31,2.58s.26,1.61.38,2.41c.21,1.35.42,2.7.66,4l1.11,6.18c.19,1.09.43,2.15.66,3.23.62,3,1.22,6,1.88,8.91L372,308.83c.15.64.27,1.28.4,1.93.37,1.92.75,3.83,1.12,5.74q1,5.19,2,10.38.85,5.33,1.7,10.65c.26,1.61.51,3.23.77,4.84.15.92.26,1.86.39,2.79q.88,6.48,1.78,13c.1.69.16,1.37.23,2.07l.66,7,.6,6.37c.07.82.14,1.63.19,2.45.25,4.52.51,9.05.77,13.56.18,3,.22,6.08.31,9.13.06,2.08.13,4.16.19,6.24,0,.94,0,1.89,0,2.84q0,4.43,0,8.86c0,1.07,0,2.16,0,3.23,0,2.22-.08,4.46-.13,6.68,0-.16,0-.33,0-.49-.09,3.37-.23,6.73-.45,10.1-.21,3.17-.53,6.33-.87,9.49-.29,2.72-.7,5.43-1.07,8.14-.14,1-.28,2.11-.43,3.16-.11.81-.27,1.61-.41,2.41l-.81,4.69c-.26,1.55-.57,3.1-.88,4.64-.3,1.39-.63,2.76-1,4.13a45.75,45.75,0,0,1-1.71,5c-.16.35-.33.7-.5,1,0-.17-.07-.35-.1-.53s-.11-.63-.16-.94c-.46-2.87-.88-5.75-1.37-8.6-.26-1.53-.49-3.07-.79-4.57l-.63-3.18c-.14-.7-.27-1.42-.43-2.11-.69-3-1.36-6-2.11-9s-1.5-6.13-2.33-9.14l-1.77-6.41c-.38-1.34-.73-2.69-1.12-4q-1.5-5.14-3-10.29c-.09-.31-.2-.61-.31-.91-.32-1-.65-1.94-1-2.92-.45-1.34-.9-2.69-1.36-4-1.08-3.06-2.12-6.15-3.22-9.18l-2.61-7.18c-.55-1.5-1.13-3-1.72-4.41-.73-1.82-1.44-3.67-2.19-5.46l-2.82-6.7c-1.5-3.57-3-7.18-4.42-10.8-1.51-3.77-3-7.57-4.46-11.37q-2.24-6.15-4.48-12.27l-1.5-4.1c-.25-.67-.51-1.34-.74-2q-1.32-3.8-2.62-7.57c-.56-1.62-1.09-3.25-1.61-4.89-.7-2.19-1.41-4.37-2.08-6.58L321.63,312c-.22-.74-.42-1.5-.63-2.24-.47-1.72-.91-3.44-1.34-5.18-.77-3.16-1.36-6.43-1.91-9.71l.06.37c-.62-3.85-1.08-7.78-1.6-11.68-.07-.55-.09-1.11-.14-1.67-.11-1.17-.21-2.34-.32-3.51-.13-1.46-.25-2.92-.39-4.38-.31-3.33-.61-6.68-.95-10s-.71-6.69-1-10.06-.67-6.94-.94-10.43-.57-6.84-.79-10.28c-.43-6.8-.82-13.6-1.26-20.4-.19-2.86-.37-5.73-.56-8.59-.13-2-.18-4.08-.27-6.12-.06-1.34-.11-2.67-.17-4,0-.55,0-1.11,0-1.67l.06-7.25c.17-3.83.33-7.66.51-11.49.05-.93.09-1.85.13-2.78s0-1.83,0-2.73,0-2,0-3c0-1.3,0-2.6-.05-3.9A16.81,16.81,0,0,0,310,159a4,4,0,0,0-.27-1,1,1,0,0,0-.45-.64.69.69,0,0,0-.69.06.79.79,0,0,0-.36.26c-.12.16-.22.32-.33.5s-.2.44-.29.67c-.17.5-.31,1-.44,1.52-.23,1-.43,2-.63,2.93-.5,2.44-1,4.88-1.49,7.31-.21,1-.43,1.91-.64,2.86s-.43,1.79-.65,2.68c-.48,1.92-1.1,3.77-1.73,5.62-1.26,3.71-2.61,7.36-4,11s-2.64,7.19-3.86,10.85c-1.48,4.42-3,8.86-4.68,13.12-.87,2.07-1.8,4.09-2.83,6l-1.78,3.35-2.55,4.79-3,5.69c-1.79,3.39-3.57,6.78-5.19,10.33-1.12,2.45-2.12,5-3.09,7.58s-1.72,5.12-2.6,7.68l-2.61,7.57c-.58,1.67-1.22,3.29-1.85,4.93q-1.26,3.29-2.51,6.55l-4.27,10-.48,1.12c-.16.38-.36.75-.55,1.11l-3.12,6.34c-.41.82-.81,1.64-1.22,2.47-.14.27-.27.56-.41.83l-2.79,5.05c-.92,1.68-1.83,3.37-2.79,5q-3.56,6.14-7.41,11.87-2.67,3.9-5.47,7.56c-1.9,2.48-3.91,4.78-5.87,7.15l-4.71,5.64c-2.92,3.5-5.89,6.89-8.84,10.3-1.16,1.35-2.34,2.67-3.51,4-1.42,1.61-2.81,3.26-4.25,4.84l-5,5.46-2.3,2.53c-.54.59-1.09,1.12-1.64,1.67-1.17,1.17-2.35,2.28-3.55,3.38-1.88,1.68-3.79,3.26-5.75,4.71l-3.33,2.47c-1.53,1.13-3.1,2.14-4.65,3.19-.76.51-1.53.95-2.28,1.42l-3.37,2.08c-.73.45-1.48.85-2.22,1.26l-2.87,1.62c-4.07,1.87-8.15,3.67-12.24,5.48-1.76.79-3.54,1.53-5.3,2.39l-8.15,4c-.56.27-1.13.53-1.68.84l-4.09,2.29c-2,1.14-4.11,2.26-6.16,3.38s-4,2.19-6,3.28l-1.69.91c-.65.36-1.3.75-1.95,1.14s-1.47.93-2.19,1.44l.75-1.47q2.13-4.17,4.2-8.42c.69-1.41,1.37-2.82,2-4.25s1.36-2.92,2.07-4.36l2.78-5.64c.55-1.12,1.13-2.21,1.71-3.31q2.44-4.67,4.9-9.32c1.67-3.16,3.31-6.33,4.95-9.51,1.55-3,3-6.07,4.55-9.12.48-1,.93-2,1.39-3,.85-1.85,1.69-3.7,2.54-5.54.6-1.31,1.24-2.59,1.87-3.88.47-1,.95-2,1.43-3,.23-.47.45-1,.69-1.43l4.47-8.39c1.61-3,3.23-6.08,4.82-9.14q1.33-2.58,2.68-5.15c.69-1.34,1.33-2.72,2-4.08.47-1,.94-1.93,1.41-2.88.18-.36.36-.71.53-1.08l2.43-5.45c1.39-3.11,2.75-6.23,4.12-9.35s2.79-6.17,4.2-9.24c.46-1,1-1.95,1.44-2.91,1-1.89,1.95-3.79,2.93-5.69.15-.29.31-.56.47-.83l1.47-2.59,1.65-2.88c.26-.48.52-1,.8-1.42q1.54-2.52,3.07-5.06,2.06-3.39,4.23-6.61a94.85,94.85,0,0,1,10.61-12.73l2.77-2.76,1.49-1.5c.54-.54,1.1-1,1.65-1.54,1.45-1.3,2.92-2.55,4.42-3.71s3-2.15,4.47-3.15,2.95-1.78,4.43-2.65l1.59-.93c.38-.23.79-.39,1.18-.59,1.15-.56,2.3-1.12,3.45-1.7l4.1-2.08c.36-.18.72-.42,1.08-.63l2.7-1.58c1-.57,1.92-1.22,2.88-1.85l3.17-2.12c2.48-1.67,4.94-3.38,7.4-5.1,1-.71,2-1.5,3-2.25l1.61-1.22c.49-.36,1-.79,1.46-1.18.77-.64,1.54-1.3,2.29-2q2.14-2,4.21-4.15c1.33-1.39,2.61-2.9,3.88-4.42,2-2.41,3.89-5,5.74-7.7l2.91-4.18c.31-.44.6-.92.89-1.39l2-3.21c.33-.52.68-1,1-1.57l1.4-2.47c.84-1.5,1.71-3,2.54-4.51l3.39-6.17c.89-1.62,1.82-3.18,2.74-4.77.75-1.3,1.5-2.6,2.27-3.89,1-1.61,1.9-3.26,2.89-4.84l3.17-5c.45-.71.94-1.4,1.41-2.09l1.67-2.49c.81-1.17,1.63-2.32,2.37-3.59.12-.22.24-.44.35-.66.22-.43.42-.87.61-1.33.09-.28.19-.57.28-.86s.16-.78.24-1.17a2,2,0,0,0-.18-1.13,1.67,1.67,0,0,0-.58-.75l-.27-.08-.56,0c-.31.08-.62.19-.94.3a17.23,17.23,0,0,0-3,1.37,26.12,26.12,0,0,0-2.43,1.86c-.92.72-1.84,1.41-2.76,2.1l-3.15,2.38c-2.05,1.54-4.08,3.11-6.13,4.65s-4.27,3.22-6.42,4.78c-1.09.79-2.2,1.52-3.3,2.26-.44.3-.91.54-1.37.8s-1.05.61-1.58.88c-2.44,1.24-4.88,2.44-7.31,3.71-1.07.56-2.13,1.11-3.19,1.72s-2.4,1.38-3.61,2.05l-1.6.91c-.31.17-.61.36-.93.52l-2.88,1.42-2.91,1.09c-.69.26-1.39.45-2.09.66l-2.86.85c-1.06.31-2.14.56-3.21.84-1.81.48-3.63.89-5.44,1.31-.73.17-1.46.28-2.19.42s-1.67.33-2.5.44c-1.86.25-3.73.49-5.59.75-1.21.17-2.42.34-3.64.55a30.2,30.2,0,0,0-7.52,2.28,40.17,40.17,0,0,0-5.68,3.25c-.52.36-1,.73-1.56,1.12s-1.11.82-1.62,1.26l-1.63,1.41c-1.53,1.33-3,2.73-4.53,4.13s-3.11,2.76-4.71,4c-1.24,1-2.48,2-3.74,2.9a50.11,50.11,0,0,1-7.75,4.75c-1.57.72-3.15,1.35-4.75,1.91-.77.28-1.55.51-2.33.74s-1.59.48-2.38.65L174.13,209c-2.52.57-5,1-7.57,1.51-2.33.45-4.67,1-7,1.5l-4.83,1a60.85,60.85,0,0,1-7,1.09c-1.51.12-3,.18-4.52.2-.9,0-1.81,0-2.71-.06l-4.82-.35c-.74-.05-1.49-.11-2.23-.21l-5.06-.7c-2.42-.33-4.82-.85-7.23-1.3s-4.76-1-7.15-1.46-4.7-.87-7-1.3-4.57-.75-6.86-1.12-4.32-.65-6.49-.94-4.28-.61-6.43-.84l-7.35-.75c-1.4-.14-2.8-.23-4.21-.33l-6.73-.47c-.45,0-.91,0-1.36,0l-4-.06-3.39,0c-.44,0-.88,0-1.32,0l-7.3.45c-.52,0-1,.09-1.57.16l-4.09.55q-1,.13-2.1.3c-1.07.17-2.15.37-3.23.49l-.49,0-.21,0c.43-.55.87-1.08,1.3-1.62s1-1.3,1.58-1.94c1-1.16,1.91-2.32,2.89-3.43,1.18-1.35,2.35-2.71,3.55-4s2.29-2.58,3.47-3.83l2.28-2.41c.52-.55,1-1.13,1.56-1.66l4.54-4.5c1-1,2-1.91,3-2.84l3.83-3.54,5.79-4.82c.47-.4.93-.79,1.42-1.13L78.62,168c.63-.45,1.25-.95,1.88-1.34l3.06-1.9,3.32-2.05c.62-.39,1.25-.73,1.88-1.08,1.59-.9,3.2-1.73,4.81-2.52a133.92,133.92,0,0,1,12.66-4.82c1-.34,2-.7,3-1l4.18-1.34,3.34-1.07c1.2-.39,2.41-.7,3.61-1.05l4.2-1.22c.82-.24,1.64-.39,2.47-.58l5-1.14c.75-.17,1.51-.36,2.26-.5l8.22-1.48c.9-.17,1.81-.28,2.71-.42l5-.76c.65-.1,1.3-.17,1.95-.24l5.17-.57c3-.34,6-.61,9-.9l7.28-.58c1-.07,1.9-.1,2.84-.14l4.68-.24,7.26-.4c2.23-.13,4.46-.32,6.69-.48s4.68-.26,7-.39,4.42-.26,6.63-.36,4.45-.27,6.68-.49,4.51-.39,6.77-.73c.88-.13,1.74-.27,2.62-.44l2.64-.53c2-.4,3.92-.78,5.89-1.16l5.43-1.06c1.63-.32,3.26-.52,4.88-.75,1-.08,2.06-.17,3.09-.17,1.25,0,2.49,0,3.74,0s2.38,0,3.56,0,2.21,0,3.32,0c2.35,0,4.7-.1,7.05-.21s4.85-.2,7.28-.32c1.19-.05,2.38-.1,3.57-.12s2.23,0,3.34,0c2.3.05,4.59.3,6.88.47a60.72,60.72,0,0,0,6.47.2c2.29-.07,4.57-.24,6.86-.5.42-.05.84-.15,1.26-.22s.59-.12.89-.19a14.07,14.07,0,0,0,2-.65c.75-.32,1.49-.65,2.24-1s1.35-.75,2-1.14a39.9,39.9,0,0,0,3.91-2.73c1.4-1.06,2.77-2.18,4.13-3.35s2.54-2.23,3.81-3.36,2.45-2.29,3.66-3.47l1.92-1.84c.62-.61,1.22-1.24,1.83-1.87s1.17-1.23,1.77-1.81,1.45-1.36,2.18-2c.93-.83,1.87-1.65,2.82-2.45s2-1.66,3-2.52c.36-.31.71-.65,1.06-1a9.86,9.86,0,0,0,.88-1.1c.27-.38.52-.78.78-1.18a11.2,11.2,0,0,0,1-2l.06-.29a3.26,3.26,0,0,0,.08-.82,5.26,5.26,0,0,0-.11-1.2,7.48,7.48,0,0,0-.82-2.11,14.54,14.54,0,0,0-1.83-2.41c-.84-.93-1.72-1.8-2.61-2.62s-1.59-1.28-2.39-1.89a23.73,23.73,0,0,0-3.07-1.92,36.43,36.43,0,0,0-5.9-2.79c-.88-.29-1.75-.57-2.64-.78s-2-.43-3-.68a51.45,51.45,0,0,0-6.32-.92l-6.19-.76c-1.48-.18-3-.37-4.45-.47-1.86-.13-3.73-.17-5.6-.16a47,47,0,0,0-5.27.45,39.45,39.45,0,0,0-4.87.94,44.08,44.08,0,0,0-4.73,1.43A36.73,36.73,0,0,0,275.49,85c-1.63.89-3.22,2-4.82,3.1-.81.54-1.64,1.09-2.47,1.56s-1.71.94-2.57,1.39-1.58.71-2.38,1-1.88.73-2.82,1.08c-1.88.7-3.77,1.25-5.66,1.8s-3.66,1.07-5.5,1.48a44.13,44.13,0,0,1-5.56.74c-1,.07-2,.15-3,.16l-4.07,0c-1.15,0-2.29,0-3.44,0s-2.16-.11-3.24-.13-2.18-.07-3.27,0-2.44,0-3.66.06l-3.41.09c-1.21,0-2.42.06-3.64.15-2.52.2-5,.41-7.55.71s-4.78.68-7.16,1.1c-2.12.38-4.24.69-6.37,1-2.49.35-5,.71-7.46,1-3.13.36-6.25.76-9.38,1.2s-6,.76-8.95,1c-4.16.27-8.33.54-12.47.46a123.47,123.47,0,0,1-12.75-.83q-3.24-.39-6.47-.83c-2.15-.29-4.29-.72-6.42-1.13-1.12-.21-2.22-.5-3.34-.75s-2.22-.54-3.33-.81-2-.58-3-.87-2-.61-3-.92l.36.11c-2.1-.67-4.21-1.32-6.3-2.08-1.07-.39-2.14-.77-3.21-1.19s-2.42-1-3.63-1.51-2.18-1-3.27-1.48-2.38-1.17-3.57-1.78c-1-.53-2-1.13-3-1.7s-2-1.22-3-1.83-1.94-1.16-2.91-1.7l-1.89-1c-.62-.34-1.25-.62-1.87-.93-2.23-1.1-4.51-2.07-6.76-3.09C78.1,79,77,78.6,75.85,78.14s-2.25-.86-3.38-1.29c-2.08-.8-4.2-1.48-6.32-2.16-1.46-.47-2.94-.86-4.41-1.27l-3.93-1.1c-2.85-.8-5.72-1.55-8.59-2.3-.64-.21-1.28-.42-1.92-.66l-1.44-.55a6.88,6.88,0,0,1-.74-.32c.34-.22.69-.41,1.05-.6a29.89,29.89,0,0,1,6-1.85c2.18-.51,4.36-1,6.53-1.41l3.61-.79c1.15-.24,2.29-.56,3.43-.86,2.11-.56,4.24-1,6.36-1.5,4.61-1,9.21-2.26,13.82-3.43,2.31-.58,4.62-1,6.92-1.68s4.6-1.33,6.89-2l6.2-1.93c1.84-.58,3.69-1.09,5.54-1.65,3.71-1.12,7.43-2.24,11.16-3.25l6.26-1.71c1.78-.49,3.57-.91,5.36-1.36s3.62-.87,5.43-1.14c.95-.15,1.9-.33,2.84-.44l3.14-.35c4.52-.29,9.05-.57,13.57-.68,2.34-.06,4.68-.13,7-.12s4.87.06,7.3.1c4.78.08,9.55.2,14.34.18,2.37,0,4.75,0,7.12.1s4.82.07,7.23.1c1.89,0,3.8,0,5.7-.07.87,0,1.74-.08,2.6-.13s1.54-.08,2.31-.15c3.86-.33,7.73-.76,11.59-1.2,2.16-.16,4.32-.3,6.49-.55s4.37-.51,6.56-.75c1.76-.13,3.53-.26,5.3-.37.73-.05,1.47-.08,2.21-.11s1.7-.08,2.55-.05l2.83.08c.41,0,.82.07,1.22.1l1.78.16c1.59.13,3.16.34,4.73.62.81.14,1.64.25,2.45.43l3.14.67c1.5.33,3,.63,4.49,1,1.94.51,3.87,1,5.8,1.59,1.54.44,3.07.91,4.61,1.38s3,1,4.44,1.54c1.8.68,3.59,1.38,5.38,2.08,3.22,1.28,6.34,2.92,9.48,4.5,3.3,1.65,6.57,3.37,9.8,5.24,1.38.81,2.76,1.61,4.11,2.49.77.5,1.56,1,2.31,1.51l2.58,1.84c.85.67,1.7,1.33,2.52,2.09.45.41.92.81,1.36,1.26l1.91,2c.87.9,1.69,1.9,2.52,2.87s1.77,2.11,2.65,3.17c1.59,1.93,3.26,3.72,5,5.42.92.91,1.83,1.84,2.76,2.72L336.87,85c.54.51,1.12,1,1.68,1.43a75,75,0,0,0,6,4.65c.64.44,1.27.89,1.92,1.28A15.22,15.22,0,0,0,350.4,94a14.64,14.64,0,0,0,2.15.44,6.64,6.64,0,0,0,.77,0c.6,0,1.2,0,1.8,0,1.07,0,2.14-.08,3.21-.16a28.56,28.56,0,0,0,3.39-.57c1.06-.23,2.12-.61,3.17-1,.5-.16,1-.34,1.48-.52.67-.26,1.33-.56,2-.86,1-.45,1.94-.92,2.91-1.39.52-.25,1-.48,1.56-.76l2.11-1.14c.59-.31,1.16-.68,1.74-1l1.32-.81c1.27-.77,2.52-1.58,3.78-2.4.53-.34,1.05-.77,1.57-1.16s.85-.65,1.27-1l1.68-1.4c.67-.56,1.31-1.22,2-1.83,1.28-1.21,2.52-2.51,3.76-3.81-.37.76-.73,1.52-1.09,2.29a72.15,72.15,0,0,1-4.34,8.66,15.41,15.41,0,0,1-1.34,1.54l-.67.64c-.87.71-1.76,1.39-2.65,2-1.05.77-2.14,1.43-3.21,2.12-2.05,1.34-4.11,2.7-6.17,4-1,.64-2,1.34-3,2s-2.09,1.41-3.15,2.08c-.88.56-1.77,1.1-2.67,1.61s-2.09,1.18-3.11,1.89a12.59,12.59,0,0,0-1.31,1,16,16,0,0,0-1.36,1.37,7.54,7.54,0,0,0-1.06,1.6,3,3,0,0,0-.27,1.24,2.63,2.63,0,0,0,.9,2.08,5.33,5.33,0,0,0,1.51,1c.45.24.92.43,1.38.63.91.4,1.81.78,2.71,1.22a55.33,55.33,0,0,1,5.51,3.07c.79.49,1.58,1,2.37,1.45,1,.61,2.08,1.15,3.12,1.74.6.33,1.22.63,1.83,1s1.43.77,2.13,1.18c1.43.82,2.84,1.69,4.24,2.59,2.82,1.84,5.54,3.94,8.27,6,3.05,2.31,6.13,4.57,9.24,6.73,1.31.91,2.67,1.7,4,2.64s2.66,1.95,4,3q1.72,1.43,3.42,2.88c.48.4.93.84,1.39,1.27s.92.84,1.36,1.31c2,2.22,4.09,4.49,6.07,6.87s4.06,4.95,6.07,7.48c1.06,1.33,2.1,2.67,3.14,4,.93,1.22,1.83,2.48,2.74,3.74a35.65,35.65,0,0,1,2.85,5l1.47,3.28c.32.71.59,1.47.88,2.2l1,2.63,1.44,4.1c.28.78.5,1.62.75,2.42.19.65.38,1.3.56,1.95.4,1.41.81,2.8,1.18,4.22q.84,3.1,1.66,6.22c.28,1,.51,2.1.75,3.16l1.47,6.44c.27,1.15.46,2.34.68,3.52l1,5.21c.24,1.72.47,3.43.71,5.15.21,1.5.38,3,.54,4.52L450,241.22c.36,3.36.67,6.74,1,10.11.36,3.57.74,7.12,1.12,10.68.33,3.08.73,6.14,1.1,9.2.22,1.77.39,3.57.58,5.35.15,1.43.31,2.85.44,4.29q.27,2.92.55,5.85c0,.49.07,1,.1,1.48.1,1.39.2,2.78.29,4.17s.18,2.73.25,4.1c.09,1.79.19,3.57.22,5.38.06,3.39.11,6.8.09,10.21,0,1.58,0,3.16,0,4.74,0,1.87-.08,3.75-.13,5.63C455.52,324.88,455.46,327.35,455.29,329.83ZM435.73,27.4a1.8,1.8,0,0,0-.2.19A1.8,1.8,0,0,1,435.73,27.4ZM414.45,50.5l-.16.14ZM370,86.82l-.31.15ZM337,357l-.08-.2Zm21.57-248.59a.36.36,0,0,1,0-.09A.36.36,0,0,0,358.54,108.43Zm-11.82,81s0-.08,0-.11S346.71,189.36,346.72,189.4Zm.59-63.09-.06-.15ZM346.2,124l-.13-.18Zm-8.51,48.25-.05-.07Zm.77-73.19v0h0Zm0-.8s0-.09,0-.13A.59.59,0,0,1,338.42,98.29Zm-15.14,59.32a.61.61,0,0,0-.07-.1A.61.61,0,0,1,323.28,157.61Zm0-7.72-.06.27ZM305,170.74a.5.5,0,0,1,0,.12A.5.5,0,0,0,305,170.74Zm-61.33-73.6h0Zm-23.74,86.55-.1.05Zm-.12.07-.06,0Zm4.54-143.13h0ZM148,214.09l-.25,0ZM49.5,70.11l-.14,0ZM451.17,357.86l0-.07.09-.24,0-.07Z" transform="translate(250.53 129.04)"/></g></g></svg>