<svg xmlns="http://www.w3.org/2000/svg" xmlns:xlink="http://www.w3.org/1999/xlink" viewBox="0 0 774.18 963.29"><defs><style>.cls-1{fill:none;}.cls-2{clip-path:url(#clip-path);}.cls-3{fill:#f3805d;}.cls-4{fill:#213b2d;}.cls-5{fill:#dec5ae;}.cls-6{fill:#eaa131;}</style><clipPath id="clip-path" transform="translate(194.39 87.57)"><rect class="cls-1" width="470.63" height="836.67"/></clipPath></defs><g id="Layer_2" data-name="Layer 2"><g id="ëÎÓÈ_1" data-name="ëÎÓÈ 1"><g class="cls-2"><rect class="cls-3" x="194.39" y="87.57" width="470.63" height="836.67"/><path class="cls-4" d="M8-83.83c-.76,3.13-1.48,6.4-2.22,10-.11.51-.21,1-.32,1.55l-.1.54L5.17-71c-.11.5-.21,1-.29,1.52L4.8-69l-.41,2.63L4.17-65l-.37,2.9,0,.15c-.21,1.67-.42,3.34-.65,5.05-.31,2.32-.65,4.95-.86,7.54-.13,1.57-.24,3.14-.35,4.71l0,.42c-.08,1.14-.15,2.28-.24,3.42l-.28,3.74L1.1-33.33c-.22,3-.4,5.94-.53,8.81L.5-23.13.43-21.71c-.09,1.77-.18,3.54-.24,5.3C0-10.6-.1-4.7-.13-.2c0,1.28,0,2.59.08,3.74l0,1,0,.77c0,1,.07,2,.12,3.05.17,3.16.39,6.35.59,9.07.21,3.08.39,6.16.53,9.16,0,.55,0,1.09.07,1.66l0,.3c0,1.12.1,2.24.13,3.37l.07,2.78.07,2.78c.14,5.5.09,11.4-.14,18.58-.05,1.47-.12,3.19-.22,4.95-.07,1.33-.18,2.58-.32,4.22L.81,66.4c-.09,1-.18,2-.24,2.95L.38,72.18l-.2,3L.12,76l0,.84q-.25,3.69-.47,7.38c0,.86-.11,1.71-.16,2.57h0v.07c-.15,2.33-.3,4.75-.36,7.12-.16,5.6-.18,11.3-.21,16.81v2.76c0,1.15,0,2.35,0,3.54l0,.83C-1,119-1,120.12-1,121.2c.09,2.83.11,5.8,0,9.09l0,2.07c0,2.32-.07,4.63-.1,6.95,0,3.07-.15,6.2-.27,9.22v.2c-.08,2.1-.15,4.21-.21,6.31-.14,4.29-.28,8.71-.52,13.13l-.15,2.36,0,.45-.12,1.86c0,.46,0,.91-.07,1.37l0,.31c0,.75-.08,1.51-.14,2.26l-.16,2.07,0,.68c-.15,2-.3,4-.48,6-.23,2.6-.49,5.36-1,8.05-.14.78-.28,1.55-.43,2.33l-.09.47c-.08.45-.17.91-.25,1.37-.2,1.09-.37,2.21-.54,3.28l-.08.58c-.35,2.24-.73,4.62-1.34,7-.34,1.35-.59,2.46-.77,3.47s-.37,2.3-.54,3.5l-.08.48h0v.09l-.3,2.27-.05.37c-.18,1.41-.37,2.83-.58,4.32v.07l0,.26c0,.27-.07.55-.12.82l0,.16c.46-.58.93-1.14,1.4-1.7,1.16-1.35,2.16-2.48,3.13-3.56l1.09-1.23.14-.15c.7-.79,1.42-1.61,2.19-2.39,2.57-2.65,5.14-5.29,7.7-7.95l.69-.71c.8-.82,1.63-1.67,2.38-2.57l.53-.61,3-3.58.49-.63c1.33-1.72,2.83-3.67,4.16-5.63a96.07,96.07,0,0,0,8.47-15.17A67.1,67.1,0,0,0,30,163a71.52,71.52,0,0,0,.54-11.38l-.09-1.89-.08-1.93,0-.79v-.15c0-.48,0-1-.07-1.44-.33-4.12-.6-7.3-.92-10.65-.29-3.09-.67-6.3-1-9.12l-.08-.64-.48-4.17q-.24-2.26-.51-4.53l-.24-2,0-.19c-.3-2.49-.61-5.07-.8-7.62-.22-2.91-.33-6-.35-9.72s0-6.79.06-9.65c0-1.65.09-3.3.15-5s.11-3.1.15-4.65c0-1.82.07-3.64.11-5.46l.09-4.38c0-1.74,0-3.48.05-5.21,0-1.34,0-2.68,0-4,0-.94,0-1.88,0-2.82v-.72c0-1.89,0-3.73.07-5.53.1-3.32.23-6.66.36-9.77.07-1.61.15-3.21.24-4.81l0-.84c.07-1.32.14-2.64.19-3.95s.07-2.42.09-3.6v-.07l0-1.22c0-.91.05-1.81.08-2.75l.05-1.26c.17-5.58.21-11.67.14-19.14a172,172,0,0,0-1.09-17.62l0-.25-.29-1.74c-.25-1.47-.5-2.94-.72-4.41l-.41-2.8c-.23-1.52-.45-3-.68-4.55-.28-1.86-.66-3.74-1-5.55V-35l-.25-1.22c-.52-2.64-.95-4.89-1.3-6.89-.28-1.61-.55-3.21-.81-4.82l0-.11c-.23-1.35-.45-2.71-.68-4.06q-.46-2.64-.9-5.3c-.22-1.29-.39-2.61-.57-4l-.1-.71c-.16-1.25-.29-2.52-.42-3.75V-66l-.09-.86c0-.42-.06-.85-.08-1.28l0-.54L18.24-70l-.08-1.4c0-.55,0-1.11-.05-1.67v-.78l0-.53c0-.47,0-.95,0-1.42v-.92c0-1.3,0-2.58,0-3.82v-.14c0-.7,0-1.4.08-2.11l-.68-.37c-.94-.5-1.9-1-2.85-1.47l-1.18-.59L8.87-87.57c-.31,1.25-.61,2.49-.91,3.74Z" transform="translate(194.39 87.57)"/><path class="cls-5" d="M535.13,235.45c-6.25-8.06-16.53-12.54-33.26-11.35-4.77.35-9.53.69-14.3,1.07l-6.47.51-7.17.57-6.29.49-.57,0c-.57,0-1.15.08-1.72.14l-7.28.72-15.73,1.54c-.51.05-1,.13-1.53.2l-.83.12-.83.11-6,.8-13.19,1.76-.39,0c-1.82.24-3.66.52-5.44.8l-.88.13L400,235.21l-1.77.27-1.72.27c-1.61.24-3.21.49-4.81.75l-6.42,1.09-6.41,1.09-6,1-6,1c-1.62.27-3.27.59-4.86.89l-2.22.42-14.87,2.76c-1.95.36-4,.74-6,1.16l-6.95,1.47-7.17,1.51-2.8.59-2.8.59c-2.05.44-4.12.95-6.12,1.45l-1.22.31c-5.41,1.35-10.09,2.68-14.31,4s-9,3.22-14.28,5.46A123.93,123.93,0,0,0,270.1,268c-4.88,2.8-9.5,5.94-13.38,8.64-3.42,2.39-7.07,5.15-11.13,8.43s-7.93,6.68-11.84,10.42c-3.59,3.44-7.1,7.09-10.19,10.31-.54.56-1.06,1.15-1.57,1.73-.27.3-.54.61-.82.91l-5.25,5.82-4.73,5.23c-1.56,1.73-2.95,3.3-4.27,4.8l-9.71,11.1-1.27,1.45c-1.09,1.24-2.22,2.52-3.29,3.8l-6.06,7.22-2.76,3.29-.12.14-4.08,4.85-.49.58c-.39.46-.78.92-1.16,1.39l-7,8.79-7.05,8.79c-.39.49-.75,1-1.12,1.48l-.48.63-4.16,5.52-3.71,4.91-4.29,5.69c-.32.42-.62.84-.92,1.27L146,399.82l-8.27,11.94L127.89,426l-2.33,3.38-1.89,2.74-.21.3L123,433l-1.76,2.34-2.17,2.9-3.78,5-6,8L94.84,468.53c-.28.34-.58.65-.88,1l-.3.31-2.18,2.3-2.23,2.33-.27.28-9.36,9.82c-1.2,1.26-2.46,2.51-3.68,3.71l-1,1L64.18,499.89,51.34,512.58l-2.19,2.17c-4.19,4.14-8.43,8.37-12.52,12.47L34,529.89q-6.3,6.3-12.63,12.57l-2.49,2.48-.47.46c-1.57,1.56-3.19,3.18-4.76,4.8l-4.75,4.95-4.83,5c-.5.53-1,1.07-1.44,1.63l-.09.11-4.87,5.72-2.51,2.94L-6,571.89c-.64.75-1.25,1.55-1.85,2.33l-.59.76c-1.56,2-3.13,4.14-4.67,6.29a139.15,139.15,0,0,0-7.76,12.23,120.19,120.19,0,0,0-6.44,14c-.11.28-.21.56-.31.85s-.11.33-.17.49l-.56,1.55-.56,1.56-1.17,3.24-1.17,3.24c-.26.75-.51,1.5-.76,2.26l-.32,1-.46,1.38-1.82,5.54c-.8,2.4-1.58,4.81-2.36,7.22l-1,3c-.93,2.87-1.85,5.73-2.76,8.6L-42,651.49l-.89,2.8-.2.63c-.24.73-.49,1.49-.69,2.24l-1.68,6.28-1.69,6.31c-.21.79-.38,1.58-.55,2.4l-.28,1.31-1.33,6.21c-1.37,6.45-2.65,13-3.84,19.12l-1.11,5.7-1.32,6.8c-.13.68-.25,1.37-.37,2.05l-.11.66-.66,3.78-.65,3.78-.19,1.06q-.21,1.13-.39,2.25l-.45,3-.45,3q-.45,2.94-.88,5.88c-.15,1-.25,2-.34,3l-.09.89-.35,3.39-.35,3.4,0,.32a5,5,0,0,0-.07.77l-.08,2.27-.12,3.69-.11,3.59,0,.8c0,.87-.07,1.77,0,2.65q.15,6.18.32,12.37c0,.2,0,.4,0,.6l0,.2.09,1.15.14,1.61c.22,2.54.43,5.08.65,7.62s.51,5.14.79,7.64c.11.94.22,1.87.32,2.81.31,2.79.65,5.61,1,8.35l.25,2c0,.29.06.58.1.87,2.34,20.42-10.64,49.61,13.22,60.66,12.56,5.82,27.17,3.8,40.87,1.78a2670,2670,0,0,1,515.38-25.82A2550.27,2550.27,0,0,0,544.6,501.1q2.48-88.1-1.13-176.21C542.17,293.21,549.81,254.41,535.13,235.45Z" transform="translate(194.39 87.57)"/><path class="cls-6" d="M-24.52,601.13c-4.4.47-8.78,1.09-13.14,1.82-3.91.66-7.8,1.6-11.67,2.5s-7.43,2-11.09,3.25c-2,.67-4,1.36-6,2-1.82.63-3.59,1.4-5.38,2.12s-3.81,1.66-5.69,2.55c-1.72.81-3.45,1.62-5.17,2.45-1.92.94-3.83,1.87-5.72,2.87l-2.74,1.44c-1,.53-2,1.16-3,1.73-1.5.87-2.93,1.83-4.41,2.73l-5.59,3.45q-5.25,3.27-10.39,6.7c-1.66,1.11-3.28,2.26-4.91,3.4l-1.88,1.3c-.85.59-1.68,1.23-2.56,1.78-1.62,1-3.2,2.06-4.85,3l-5.48,3.08q-5.22,2.89-10.31,6c-.81.49-1.61,1-2.39,1.51s-1.75,1.21-2.61,1.84c-1.79,1.29-3.52,2.65-5.26,4-.74.58-1.42,1.26-2.12,1.89s-1.33,1.25-2,1.9c-1.4,1.4-2.72,2.86-4.07,4.31s-2.61,2.72-3.93,4.07a53.23,53.23,0,0,0-4,4.36,35.74,35.74,0,0,0-2.75,4,46.17,46.17,0,0,0-3.33,7.38,67.93,67.93,0,0,0-2.36,9.34c-.35,1.72-.64,3.46-.94,5.19-.32,1.94-.65,3.86-1,5.8s-.64,3.88-1,5.81-.71,4.11-1.13,6.15q-1.32,6.36-2.68,12.72c-.77,3.61-1.5,7.22-2.23,10.84-.36,1.79-.73,3.58-1.06,5.37-.24,1.36-.49,2.71-.73,4.06-.17.92-.37,1.85-.49,2.78l-.87,6.62c-.21,1.56-.36,3.11-.49,4.68-.19,2.09-.43,4.19-.55,6.29l-.39,6.94c-.43,7.63-.65,15.27-.94,22.91-.15,3.95-.32,7.91-.41,11.86,0,2.34-.11,4.68-.16,7,0,2.13,0,4.27,0,6.41,0,3.26.08,6.52.14,9.78,0,1.83.14,3.67.21,5.5,0,.73.11,1.45.16,2.18s.1,1.63.18,2.45q.55,5.49,1.22,11c.51,4.32,1.14,8.62,1.73,12.93a.73.73,0,0,0,.9.51.74.74,0,0,0,.5-.9c-.2-1.44-.39-2.89-.59-4.34l0,.2c-.55-4.06-1.08-8.12-1.55-12.19-.23-2-.42-4-.61-6s-.28-3.8-.4-5.71c-.06-.88-.06-1.77-.08-2.66s-.08-2-.09-3c0-2.33,0-4.67-.07-7,0-1.86,0-3.71,0-5.56,0-1.64,0-3.27.06-4.91.15-4.39.3-8.77.51-13.15q.29-6.12.61-12.23t.7-12.51c.11-1.78.24-3.55.35-5.33s.2-3.37.37-5.05c.27-2.73.53-5.46.8-8.19.3-2.11.61-4.23.92-6.34.24-1.68.55-3.34.88-5,.78-4,1.59-7.91,2.47-11.84,1.73-7.78,3.63-15.54,5.19-23.36.9-4.52,1.74-9,2.6-13.58.39-2.07.82-4.13,1.23-6.2a59.63,59.63,0,0,1,3-10.43,36.84,36.84,0,0,1,4.05-7.29c.56-.69,1.13-1.38,1.74-2s1.49-1.57,2.26-2.33c1.41-1.4,2.86-2.76,4.25-4.18s2.71-2.88,4.12-4.26c.71-.69,1.4-1.42,2.15-2.07l2.63-2.28c1.5-1.12,3-2.24,4.54-3.3.78-.54,1.57-1.06,2.36-1.57s1.81-1.1,2.74-1.63q5.19-2.94,10.47-5.72c1.85-1,3.7-2,5.54-3,1.67-.9,3.28-1.92,4.92-2.88.79-.47,1.54-1,2.31-1.51l2.2-1.45c1.66-1.09,3.31-2.19,5-3.24,3-1.86,6-3.71,9-5.45,3.23-1.85,6.49-3.65,9.74-5.47,1.61-.9,3.24-1.76,4.87-2.62s3.18-1.55,4.77-2.31,3.19-1.43,4.78-2.14c1.35-.6,2.71-1.17,4.07-1.75l4.44-1.82c.68-.28,1.4-.5,2.1-.75l2.73-1c.63-.23,1.29-.39,1.93-.58l2.88-.88c1.46-.43,2.93-.87,4.41-1.25s3.08-.86,4.64-1.19,3.3-.74,5-1.06c3.3-.63,6.61-1.19,9.93-1.71,2.45-.3,4.9-.59,7.36-.83,3-.3,5.94-.51,8.92-.66,2.79-.14,5.59-.1,8.38,0s5.35.44,8,.73c3.48.48,7,1,10.4,1.66,3.79.77,7.55,1.67,11.31,2.54,4.11,1,8.22,1.88,12.3,2.94a92.9,92.9,0,0,1,10.78,3.76c1.19.47,2.36.95,3.53,1.43,3.74,1.63,7.39,3.43,11,5.34,1.88,1,3.76,2,5.6,3.11,2.25,1.34,4.53,2.67,6.65,4.21a56.16,56.16,0,0,1,5.43,5.15c.91,1,1.82,2,2.65,3s1.85,2.32,2.76,3.5,2.05,2.53,3.11,3.78c.91,1.09,1.9,2.1,2.85,3.14s1.71,1.79,2.57,2.67q1.65,1.68,3.24,3.43c.81.89,1.56,1.84,2.32,2.77,2.14,3,4.23,5.94,6.18,9q3.34,5.28,6.89,10.43c2.24,3.25,4.62,6.41,6.91,9.62q1.59,2.22,3.06,4.51c.49.75,1,1.49,1.45,2.28l1.84,3.26c1.53,2.74,2.85,5.59,4.1,8.46,1.42,3.5,2.88,7,4.57,10.37,1.83,3.66,3.75,7.28,5.7,10.87,1.76,3.24,3.64,6.42,5.41,9.65,1,1.89,2,3.8,3,5.73.78,1.52,1.46,3.11,2.13,4.69,1.71,4,3.39,8,5.31,11.85.94,1.93,1.92,3.84,2.85,5.77q1.5,3.13,2.91,6.31l-.09-.21a67.12,67.12,0,0,1,3.7,10.38c.89,3.75,1.61,7.53,2.28,11.32.35,1.92.68,3.83,1.08,5.73s.89,3.72,1.33,5.58.71,3.71,1,5.56.72,4,1.08,6c.47,2.59.83,5.2,1.36,7.78s1,5.14,1.45,7.73c.28,2.22.52,4.44.76,6.66s.45,4.71.81,7,.78,4.61,1.18,6.91c.43,2.5.84,5,1.4,7.48a.81.81,0,1,0,1.56-.44c-.53-2.58-1-5.18-1.38-7.78-.39-2.4-.8-4.79-1.14-7.2-.4-3.63-.66-7.27-1-10.91s-1.06-7.25-1.68-10.86c-.32-1.86-.56-3.74-.82-5.61s-.55-3.59-.84-5.39c-.32-2-.63-4-1-6s-.82-4-1.27-6c-.82-3.58-1.22-7.26-1.84-10.87-.3-1.81-.6-3.62-1-5.41-.21-1-.39-1.94-.65-2.89s-.48-2-.81-2.91a111.55,111.55,0,0,0-4.28-10.82c-1.71-3.7-3.53-7.36-5.23-11.07-.47-1-.92-2.09-1.37-3.14-1.45-3.57-2.92-7.14-4.45-10.68-.38-.87-.85-1.71-1.27-2.57-.32-.66-.65-1.32-1-2q-1.51-2.88-3.07-5.75-2.6-4.82-5.05-9.71c-.82-1.66-1.68-3.31-2.44-5s-1.54-3.45-2.29-5.19-1.41-3.47-2.05-5.23-1.28-3.5-2-5.22c-.78-1.88-1.56-3.78-2.46-5.59-.53-1.06-1.06-2.11-1.58-3.17-.41-.81-.88-1.59-1.33-2.38-2-3.49-4.1-6.91-6.23-10.3s-4-6.78-5.92-10.24c-1.29-2.34-2.44-4.75-3.7-7.1-1.46-2.73-3-5.38-4.62-8-.68-1.09-1.46-2.12-2.2-3.17-1.07-1.53-2.27-3-3.43-4.43-1.72-2.12-3.49-4.22-5.22-6.33-1.09-1.45-2.16-2.91-3.19-4.4-1.36-1.94-2.79-3.81-4.25-5.67-.57-.73-1.2-1.42-1.82-2.12A41.63,41.63,0,0,0,76,628.63a56,56,0,0,0-7.78-5.45c-3.43-2-6.93-3.95-10.52-5.68L52.36,615c-2-.94-4.13-1.75-6.21-2.58q-5.55-2.24-11.29-4c-1.77-.53-3.6-.87-5.39-1.27s-3.89-.87-5.84-1.29l-5.29-1.16c-2-.45-4.06-1-6.1-1.33S8.1,602.63,6,602.31q-3.64-.54-7.3-1a110.49,110.49,0,0,0-11.78-.84h-1a101,101,0,0,0-10.43.66ZM-189.27,767.35a.59.59,0,0,1,0,.13l0-.13Z" transform="translate(194.39 87.57)"/><path class="cls-4" d="M467.87,406.75a1.3,1.3,0,0,0-1.07.6,5.33,5.33,0,0,0-.37.76l-.05.14-.21.51-.13.31c-.37.84-.78,1.69-1.25,2.58s-1,1.78-1.54,2.6l-.4.63-.09.15c-1.06,1.69-2.16,3.44-3.18,5.2a53.94,53.94,0,0,0-2.76,5.5c-.94,2.09-1.84,4.22-2.76,6.4-.76,1.79-1.54,3.58-2.31,5.37-.24.55-.5,1.09-.75,1.63l-.09.18-.31.67-1.12,2.37c-1.81,3.74-3.49,7.17-5.15,10.48l-2.67,5.35c-.26.53-.54,1.05-.81,1.57l-.07.12-.41.78-1.28,2.47-.36.68-.17.32-.59,1.12c-.5,1-1,2-1.45,2.95s-1,2.2-1.46,3.28l-.13.32-.5,1.16c-.86,2-1.69,3.92-2.52,5.88-.68,1.61-1.32,3.28-1.93,4.88l-.09.25c-.64,1.68-1.27,3.32-1.85,5l-.55,1.6-.57,1.64c-.21.61-.39,1.24-.57,1.85l0,.08-.21.74a81.7,81.7,0,0,0-2.36,10.72c-.57,3.56-.87,7-1.19,11.22-.14,1.85-.22,3.74-.27,5.34,0,.28,0,.56,0,.84v.15c0,.57-.05,1.13-.05,1.7,0,1,0,2.08,0,3.13.05,3.92.16,7.6.33,11.23.1,2,.24,3.95.38,5.87v.12c0,.63.11,1.22.17,1.82v.09c0,.26.06.53.08.79l.14,1.4.12,1.27.12,1.23c.14,1.52.3,3.13.49,4.7s.41,3.06.66,4.76l.12.82c.23,1.57.44,2.85.65,4l.58,3.12c.1.54.22,1.08.35,1.63l.14.63c.35,1.53.74,3,1.14,4.56l.34,1.28c.28,1.09.57,2.19.87,3.28l.1.34.25.89,1,3.42q.66,2.43,1.29,4.87c.29,1.11.55,2.24.8,3.34l.07.32.26,1.19c.33,1.43.61,3,.88,4.89a19.08,19.08,0,0,1,.09,2q0,.35,0,.69a5,5,0,0,0-.56-.94,8.77,8.77,0,0,0-2.05-1.84c-.47-.31-1-.61-1.4-.85l-.52-.3c-.59-.36-1.23-.77-2-1.3a35.94,35.94,0,0,1-2.75-2.34q-1.53-1.46-3-2.94c-.36-.36-.71-.73-1.06-1.11l-.06-.07-.48-.52c-.39-.41-.77-.84-1.15-1.28l-.41-.46c-.3-.33-.6-.67-.88-1l-1.48-1.83,0,.09-.46-.65-1.14-1.52-.53-.75-.24-.35-.69-1-.28-.4c-.38-.55-.75-1.11-1.12-1.66l-.51-.78c-.45-.68-.9-1.37-1.36-2l-.27-.41c-.35-.54-.72-1-1.1-1.57l-.58-.82c-.36-.5-.75-1-1.14-1.46l-.06-.09-.16-.19a33.47,33.47,0,0,0-2.79-3c-.66-.62-1.43-1.21-2-1.69l-.3-.23-1.05-.8c-.86-.66-1.76-1.3-2.48-1.81-.44-.31-.9-.59-1.38-.88l-.13-.09-.49-.3-1.33-.85-1-.66L391,560.43l-.49-.31L388.8,559l-2.3-1.43c-.26-.16-.53-.29-.8-.43l-.38-.19c-.28-.16-.57-.3-.86-.44l-.52-.27a36.51,36.51,0,0,0-4.86-2l-3.23-1.06-.3-.1-1-.32c-1.32-.43-2.63-.94-4.19-1.57-.65-.31-1.35-.66-2.05-1.05s-1.65-1-2.45-1.48l-.21-.13-1.16-.73-1-.62c-.83-.52-1.71-1-2.48-1.43-1.18-.65-2.42-1.25-3.51-1.79l-1.15-.56-1.67-.83-.52-.26-2.63-1.3-.6-.29a36.27,36.27,0,0,1-4.2-2.26c-1.18-.78-2.35-1.58-3.74-2.54l-.92-.63c-1.22-.84-2.47-1.66-3.68-2.45l-.18-.11-.8-.53c-1-.63-1.93-1.25-2.9-1.87l-1.87-1.2c-1.41-.92-2.82-1.82-4.24-2.72l-.5-.32c-1.55-1-3.09-2-4.64-3l-.9-.58-.06-.05c-1.2-.77-2.44-1.58-3.68-2.34-1.4-.86-2.86-1.7-4.27-2.5l-.24-.15c-2-1.16-4-2.34-6.07-3.52l-.28-.16L304,511.62c-1.26-.74-2.53-1.45-3.81-2.17l-.67-.38-.65-.36c-.56-.32-1.13-.64-1.7-.94l-.77-.4-.78-.4c-.29-.15-.61-.28-.91-.41l-.44-.18c-1.75-.77-3.57-1.41-5.33-2l-1-.36c-2.64-.93-5.27-1.88-7.91-2.83l-2-.75-.84-.31-1.26-.45-.19-.07c-.73-.26-1.45-.53-2.17-.81l-3.61-1.45-3.61-1.44c-1.61-.72-3.52-1.59-5.41-2.53-1.71-.87-3.52-1.89-5.68-3.24l-.11-.08c-.85-.53-1.91-1.2-2.88-1.9l-1.18-.86-1.19-.87-.85-.61c-.78-.57-1.57-1.13-2.33-1.72l-2.22-1.7-1.61-1.23a36.42,36.42,0,0,1-3.8-3.32,9,9,0,0,0-1.15-1.8,1.46,1.46,0,0,0-1.07-.44,1.64,1.64,0,0,0-1.07.44l-.11.09a1.52,1.52,0,0,0-.23,1.83l.07.12a7.51,7.51,0,0,0,.79,1.17c.25.68.48,1.4.66,2l0,.12c.24.78.46,1.59.64,2.3l0,.18c.57,2.17,1.1,4.28,1.59,6.23.33,1.37.64,2.82.88,4l.36,1.65c.24,1.11.47,2.22.7,3.33l.09.46.22,1,.21,1a79.66,79.66,0,0,0,3.85,13.39c.7,1.77,1.37,3.3,2.05,4.67l1.19,2.37.57,1.16c.25.49.55,1,.79,1.38l.21.35.71,1.2,1.13,1.91c.17.28.38.59.58.87l.2.29c.35.53.71,1,1.08,1.56l.09.12c.78,1.09,1.62,2.16,2.41,3.16a60.65,60.65,0,0,0,6,6.39,58.38,58.38,0,0,0,6,4.75c2,1.45,4.17,2.75,6.24,4l.11.06.7.42q1.94,1.17,3.85,2.36l.49.31,1.85,1.13c2.8,1.73,5.74,3.44,9,5.25l2.13,1.18,1.38.77.49.28.17.1,1,.52,6,3.14c.38.2.78.38,1.17.56l.58.26,3.74,1.74c1.31.6,2.69,1.14,3.91,1.61l1.35.53,2.13.85.63.25c.37.15.74.28,1.11.4l.12,0,.55.19,3.8,1.34,2.81,1,3.79,1.3,1.77.59c1.63.56,3.07,1,4.41,1.46l12.39,3.88c2.64.83,5.32,1.7,7.91,2.55l.79.26,1,.31,2.42.79,6.85,2.27,10.35,3.51c2.86,1,5.75,2,8.54,3l.93.32c1,.37,2.06.78,3.12,1.21l.28.12,1.82.73,3,1.21,2,.94,1.37.63.95.44.11.05c.64.29,1.27.58,1.89.89l8.13,4c1.55.76,3.11,1.5,4.7,2.26l1.08.51,1.09.52c1,.46,1.76.82,2.53,1.15l2,.88.41.18,1.32.57c.41.18.79.35,1.16.54l.53.26-1.26-.06h-.36c-.78,0-1.55-.08-2.32-.12l-.7,0c-.94,0-1.87-.12-2.81-.19l-.33,0-2.48-.18c-1-.07-2-.1-3.09-.1-.77,0-1.58,0-2.41.06s-1.85.1-2.77.16c-.77,0-1.47.12-2.18.18l-.8.08c-.62.06-1.24.15-1.85.24l-.79.11c-.75.1-1.5.23-2.26.37l-.76.13-.68.12c-1.39.24-2.82.49-4.24.77-2.48.49-4.45.91-6.22,1.3-1.38.31-2.77.59-4.16.87l-.4.08-1.15.23c-.49.1-1,.16-1.48.22l-.62.08-2.5.34-1.44.1-1.44.11-.38,0-.29,0c-.52,0-1.16.1-1.76.1l-1.77,0h-3.08c-.28,0-.56,0-.83,0l-1.73-.06c-1.27-.05-2.7-.1-4.1-.19l-1.84-.13c-1.32-.09-2.64-.18-4-.25l-3.47-.19-.67,0c-.52,0-1-.07-1.57-.07l-3.54-.05h-2.26l-3.27.14h-.19l-1.73.08h-.15l-.54,0-1.5.16-1.79.18-.88.09-1,.11-.29,0h-.1l-.7.08-6,1.05c-.66.11-1.33.27-2,.43l-.1,0-.44.11c-1.08.25-2.2.56-3.63,1a50.66,50.66,0,0,0-7.43,2.91,46.08,46.08,0,0,0-6.67,4c-1.09.76-2.16,1.6-3.17,2.39-1.54,1.22-3.07,2.44-4.6,3.68l-2.32,1.89c-.47.38-.89.75-1.31,1.11l-.12.1-.58.5-.61.52c-1.22,1-2.31,2-3.38,2.92L280,643c-.26.23-.5.47-.75.72L279,644l-1.5,1.46-1.51,1.46-.56.54c-1.14,1.1-2.28,2.2-3.44,3.29l-4,3.76-2.08,1.94c-.3.28-.6.54-.91.8l-.39.33-1.23,1-2.47,2.13-.33.27c-2.61,2.25-5.32,4.58-8.12,6.75a68.35,68.35,0,0,1-6.22,4.18c-.93.55-1.91,1.06-2.86,1.54l-.07,0-.39.2c-.53.28-1,.54-1.59.78a7.42,7.42,0,0,0-1.7,1l-.17.14a2.49,2.49,0,0,0-.67.71l-.06.11a1.24,1.24,0,0,0,0,1.48l.07.12a1.44,1.44,0,0,0,.63.54l.15.08a2.68,2.68,0,0,0,1,.29l.27,0c.24,0,.5.08.75.11l1.61.18c3.76.36,7.57.64,11.32.82l.7,0c.54,0,1.09.06,1.63.07l3.62.06h3.48c.51,0,1,0,1.53,0l1.41-.05c1.34,0,2.87-.1,4.37-.19l.69,0,5.12-.33.87-.06c1.77-.12,3.36-.23,5-.38l.31,0c1.91-.18,3.78-.36,5.63-.58l3.3-.38c.54-.06,1.08-.14,1.62-.22l.73-.11,3.54-.5c.53-.08,1.06-.18,1.59-.28l.5-.09c1.42-.26,2.89-.57,4.37-.94,2.44-.6,4.85-1.45,7.19-2.27l1.32-.46c.44-.15.88-.34,1.31-.53l.22-.09.4-.17.78-.32,2.71-1.13c.38-.16.76-.34,1.13-.52l.13-.07.29-.14,1.89-.92,1.89-.93c1.27-.62,2.52-1.28,3.9-2l1.15-.62c1.52-.81,3.07-1.59,4.58-2.34l.25-.13,2.72-1.36c.47-.24.92-.44,1.38-.65l.66-.29,1.51-.7.18-.08c1.11-.52,2.23-1,3.36-1.53l3.08-1.36,3.1-1.38c3.07-1.29,6.37-2.68,9.77-4.07,1.29-.52,2.81-1.15,4.28-1.78l1.57-.68c1.18-.5,2.32-1,3.46-1.51l2.06-.92.17-.08,8.19-3.67c2.45-1.1,5-2.19,7.39-3.24l.25-.11,1.78-.77,5.3-2.23.12-.05c1.14-.48,2.3-.94,3.45-1.39l.17-.06,1.11-.44c1.57-.62,3-1.18,4.45-1.71l6-2.19c.41-.16.83-.3,1.25-.44l.09,0,.61-.21,1.58-.55,2.13-.73c1.31-.46,2.63-.88,4.1-1.34l1-.32c1.34-.43,2.69-.83,4.07-1.23l1.21-.35c1.12-.34,2.24-.65,3.37-.95a63.93,63.93,0,0,1,7.44-1.54,44.44,44.44,0,0,1,5.75-.39c.73,0,1.42,0,2.06.05l3.94.22H448c.39,0,.77.06,1.16.1l.54.06,1.15.11,1.28.13c.81.08,1.61.18,2.42.29l.16,0,.72.09.48.08c1,.17,1.91.33,2.86.51a35.69,35.69,0,0,1,6.84,1.72c.88.37,1.76.76,2.63,1.14.55.24,1.12.53,1.8.89a6.65,6.65,0,0,1,.66.42l.33.23.71.46c1.25.82,2.43,1.6,3.65,2.35s2.68,1.64,4.1,2.45c.6.34,1.21.69,1.85,1l.28.15,2.08,1c.79.39,1.59.77,2.38,1.14l.28.13,1.77.85,1.28.62.65.32,1.94.94.42.21c1.27.61,2.54,1.23,3.77,1.89.59.32,1.17.67,1.86,1.11a18,18,0,0,1,1.59,1.14l.17.13c.45.36.89.72,1.33,1.1a14.08,14.08,0,0,1,1.49,1.43,1.58,1.58,0,0,1,.16.27l.07.26v-.16a2,2,0,0,1,0,.55v0h0v0h0c0,.06,0,.12-.05.18l0,.09a1.72,1.72,0,0,1-.38.6l0,0,0,0h0l-.16.14-.17.15a4.29,4.29,0,0,1-.81.47l-.36.16-.1,0a11.14,11.14,0,0,1-1.61.46c-.47.1-.94.18-1.42.26l-.45.08c-1.24.22-2.35.4-3.41.55-.74.09-1.36.16-2,.19s-1.21,0-2.09,0c-1.1,0-2.26-.06-3.19-.12l-.57,0-.57,0-1.72,0h-.55c-.6,0-1.19,0-1.8,0l-1.74.1-.87.06-.8.05-.23,0a5.48,5.48,0,0,0-.57,0l-.69.09c-1.12.15-2.29.31-3.44.51l-2.38.42-2,.35c-2.44.42-4.93.79-7.12,1.1l-1.58.23-4.69.61-6.19.8-1.4.17c-3.31.42-6.73.84-10.06,1.44l-1.32.23-.16,0c-1.35.24-2.76.49-4.13.8l-1.92.44-1.92.44-.42.09c-.5.12-1,.23-1.51.38l-1.74.5-1.75.51-.61.17-.14,0c-.45.13-.91.25-1.35.4l-6.06,2c-1,.33-2,.72-2.87,1.07l-.7.27c-1,.38-2,.82-3.22,1.33s-2.22,1-3.5,1.66l-.07,0c-.73.36-1.57.79-2.39,1.23L396,672.63c-.28.15-.55.32-.82.48l-.16.09-.48.3-1.86,1.1-1.81,1.08-.06,0-1.88,1.11-.37.25-.19.13-.63.41-1,.69-1.22.8-.2.13c-1,.67-2.08,1.36-3.1,2.07l-.09.07-5.45,3.79c-.37.26-.74.54-1.1.82l-.61.45-1.63,1.22-1.64,1.22c-1.07.79-2.12,1.64-3.14,2.45l-.18.15-1.16.92c-1,.81-2,1.67-3,2.5l-.13.11-1.2,1c-.34.28-.68.58-1,.88l-.1.09-.49.44-1.44,1.29L358.37,700c-1,.87-1.93,1.76-2.89,2.65L354,704c-1,.9-1.92,1.86-2.82,2.78l-1,1.06-1.46,1.48-.74.74c-.24.24-.46.49-.69.75l-.11.13-.35.39-.58.65L342,716.77c-.86,1-1.73,1.91-2.6,2.86l-.25.27L338,721.12l-.49.55-1,1.14c-.35.39-.72.75-1.09,1.12l-.07.07-.3.3-.3.3q-4.56,4.62-9.15,9.23c-1.56,1.57-3.09,3.2-4.57,4.77l-2.64,2.79-.79.83c-1,1.07-2,2.13-3.07,3.14l-1.27,1.22-3,2.88-.84.82-1.68,1.65-.49.49-.76.75-.18.17-.38.38-.79.87c-1.54,1.68-3.1,3.38-4.48,5.18l-1,1.26a5.28,5.28,0,0,0-.5.82,2.65,2.65,0,0,0-.25.75,1.66,1.66,0,0,0,.16,1.24,1.56,1.56,0,0,0,1,.74l.56.08.62-.09a3.46,3.46,0,0,0,.84-.28l.12,0,.16-.07,1.07-.44.25-.1.48-.21,4-1.64.9-.37,2.42-1,2.42-1,.13-.06.31-.12c.39-.16.79-.33,1.17-.51l2.28-1.05,2.28-1.06c.31-.14.61-.29.9-.44l.25-.13,1.29-.65,1.28-.65c.52-.26,1-.54,1.53-.81l.11-.06.15-.08,1.38-.72.21-.11c1.25-.63,2.49-1.26,3.75-1.81a35.64,35.64,0,0,1,3.91-1.32l1.28-.36,1.28-.35c.39-.11.78-.2,1.17-.29l.51-.12.61-.15c.46-.12.92-.23,1.39-.32l.4-.08c1.31-.25,2.61-.51,3.92-.74l.49-.09c.47-.09.93-.18,1.39-.24l1.34-.19,1.15-.16-.1,0c1.89-.21,3.75-.47,5.68-.78s3.66-.65,5.67-1c1.46-.3,3-.66,4.3-1l1.28-.29c1.52-.37,3.09-.7,4.6-1l.45-.1.6-.13c1.84-.39,3.66-.79,5.5-1.2s3.63-.9,5.45-1.41c.65-.18,1.3-.4,1.88-.6l.65-.22c.74-.25,1.47-.54,2.18-.83l.1,0,.56-.23c1.6-.63,3.23-1.4,4.67-2.08l.4-.19,1.56-.76.14-.07.78-.39,1.57-.75.34-.17.84-.4,2.43-1.17,3.39-1.65c2-1,4-2,5.74-2.84l.26-.14c1-.49,1.93-1,2.91-1.44l.26-.13,1-.47,1.62-.69c1.72-.7,3.44-1.39,5.18-2.07l3.07-1.16,2.14-.82c.72-.27,1.44-.55,2.16-.85l.85-.35.14-.06c.56-.23,1.11-.45,1.66-.7l5.4-2.49c1.5-.7,3-1.48,4.3-2.18l.8-.42c1.78-.93,3.51-1.94,5.27-3q.72-.43,1.44-.9l.14-.08.6-.39,2.22-1.42c1.73-1.14,3.47-2.26,5.22-3.39.44-.28.9-.55,1.35-.82l.08,0,.62-.36.31-.19c.63-.37,1.25-.74,1.88-1.09l2.78-1.57,2.78-1.57c3.26-1.84,6.21-3.63,9-5.49l10.29-6.81,1.68-1.09.73-.46.15-.1c.59-.38,1.18-.76,1.78-1.11l1.39-.82c1.29-.74,2.44-1.42,3.6-2.13,1.85-1.13,3.68-2.28,5.51-3.43l.38-.24,4.22-2.64q2.28-1.41,4.53-2.84l2.9-1.82c.56-.35,1.12-.76,1.62-1.11l.25-.18.5-.36c.57-.39,1.13-.87,1.58-1.25l.64-.53a7,7,0,0,0,.57-.52l.26-.23.64-.59.64-.59c.21-.19.4-.41.6-.62s.19-.21.28-.31l.62-.65.47-.5.51-.57.25-.29.28-.32.06-.07c.28-.32.57-.65.83-1l.36-.48c.42-.55.85-1.13,1.25-1.71.63-.92,1.15-1.7,1.63-2.47l.3-.49.31-.48.67-.45.4-.28.41-.27a29,29,0,0,1,3.37-1.86l1.42-.7,1.72-.85c.94-.47,2-.93,3.33-1.51,1-.39,1.82-.71,2.61-1,1-.33,2.07-.58,3-.79l.43-.09.25-.06c.74-.16,1.48-.32,2.21-.5,1-.24,2-.42,2.89-.57l.32-.06c.71-.09,1.43-.16,2.14-.24h.1l1.1-.12c1.42-.16,2.66-.35,3.79-.59,1.9-.39,3.85-.67,5.74-1l1.32-.19.6-.08,2.52-.34c.86-.11,1.66-.21,2.46-.28,1.07-.09,2.15-.16,3.22-.24.42,0,.85,0,1.27,0h1.37c.35,0,.71,0,1.06,0l.49,0,.39,0h.09l.65,0H579a.75.75,0,0,0,.63-1.17.68.68,0,0,0-.43-.32h-.08a15.23,15.23,0,0,0-1.51-.21h-.07l-.21,0-.43,0-.57-.07-.53-.08-1.14-.15c-.81-.11-1.7-.2-3-.31-1.64-.15-3.42-.26-5.62-.35q-2.91-.11-5.81-.25c-1.66-.09-3.42-.24-5.39-.48-1.69-.19-3.43-.31-5-.42l-.33,0c-1.32-.09-2.65-.12-4-.15h-.07l-1.19,0c-2.07,0-4-.14-5.78-.29-1-.08-2-.17-3-.27l-.9-.09-.23,0-1.49-.15-1.08-.09h-.1l-3-.24c-1.38-.11-3-.25-4.65-.46-.78-.11-1.57-.26-2.35-.43a16.41,16.41,0,0,1-2.42-.79l-.07,0c-.43-.19-.86-.36-1.29-.53-.22-.09-.44-.16-.66-.23l-.09,0-.37-.12-.5-.15-.28-.09c-.54-.16-1.09-.33-1.63-.52a19.54,19.54,0,0,1-3.69-2.12,6.7,6.7,0,0,1-.9-.87,8.88,8.88,0,0,1-.64-1.16,6.1,6.1,0,0,1-.29-1c0-.13-.05-.27-.07-.4a23.41,23.41,0,0,1-.1-2.83,25,25,0,0,1,.23-2.82,19.57,19.57,0,0,1,.74-3.1l.06-.17c.37-1.11.76-2.25,1.19-3.33l-.1.16.39-.85c.18-.42.37-.84.56-1.25.37-.82.79-1.62,1.21-2.44l.09-.18c.6-1.15,1.21-2.29,1.83-3.43l.35-.66.54-1a24.12,24.12,0,0,0,2-4.65c.3-1,.52-2.07.71-3a31.59,31.59,0,0,0,.61-3.84c.07-.87.1-1.75.12-2.72l0-.71c0-1.17,0-2.34,0-3.51,0-.63,0-1.26,0-1.89,0-1.93.06-3.86.1-5.79,0-1.55.08-3.36.17-5.18s.25-3.77.4-5.54c0-.25,0-.5.08-.76l0-.22.07-.56c.14-1,.31-2,.47-3s.33-2,.47-3c.18-1.23.34-2.47.49-3.71.08-.71.17-1.41.26-2.11l0-.3c.22-1.64.45-3.24.72-4.82.19-1,.37-2,.57-2.93s.37-1.61.56-2.33l.13-.5c.41-1.59,1-3.21,1.49-4.64l.13-.38.26-.74c.51-1.4,1.08-3,1.58-4.56.55-1.72,1.14-3.55,1.68-5.37l.15-.48c.51-1.69,1-3.39,1.36-5.1.45-2.27.79-4.62,1.09-6.69.2-1.33.4-2.67.61-4,.17-1,.33-2,.52-3s.39-1.74.61-2.53c.42-1.53.92-3.18,1.59-5.17s1.26-3.7,1.91-5.54l.06-.18c.58-1.64,1.15-3.27,1.71-4.92.68-2,1.24-3.78,1.73-5.42.56-1.9,1.14-3.81,1.74-5.7s1-3.43,1.39-4.89l.35-1.42.2-.79c.3-1.21.6-2.41.91-3.61.94-3.67,2.13-7.35,3.36-11.11.4-1.23.85-2.46,1.29-3.65l.06-.16.48-1.31c.63-1.74,1.27-3.48,1.93-5.2q1.11-2.93,2.25-5.83l.67-1.68.19-.49,1.05-2.63c1.36-3.46,2.79-7.18,4.07-11,.56-1.66,1.1-3.34,1.63-5,.22-.69.42-1.39.62-2.09l.05-.18c.14-.49.28-1,.4-1.49a13.18,13.18,0,0,0,.31-1.57,9.28,9.28,0,0,0,.06-1.56,1.49,1.49,0,0,0-.42-1,1.52,1.52,0,0,0-1-.41H562l-.4,0a1.23,1.23,0,0,0-.68.18,5.26,5.26,0,0,0-.79.62c-.24.23-.49.44-.74.65l-.3.25-1.08.93-.3.25-.56.47-2.8,2.32-.28.23-1.28,1.05c-1.5,1.24-2.85,2.36-4.17,3.52l-.66.58c-.5.42-1,.85-1.45,1.28l-1.26,1.2L544,428.37c-.4.39-.8.79-1.19,1.19l-.5.51-.13.13c-.56.57-1.12,1.14-1.65,1.74l-.62.69c-.42.47-.84.93-1.24,1.41l-2.11,2.49c-.87,1-1.73,2.1-2.56,3.13l-.23.29-.83,1c-.49.61-1,1.23-1.46,1.85l-.45.58c-.44.55-.87,1.1-1.29,1.67q-1.92,2.61-3.81,5.24c-.44.61-.88,1.23-1.31,1.85l-.56.8-.11.15c-.35.5-.7,1-1,1.5-1.14,1.73-2.27,3.46-3.39,5.21-.81,1.27-1.6,2.54-2.53,4.05l-.62,1c-.27.44-.52.88-.77,1.32l-.09.15-.18.33-.59,1-.09.15-.84,1.49-.53.94-.09.16c-.72,1.28-1.43,2.55-2.12,3.84-1,1.86-2,3.7-3,5.55l-.91,1.63c-.58,1-1.16,2.08-1.73,3.13-.83,1.53-1.65,3.15-2.43,4.81l-.32.67c-.28.59-.6,1.26-.88,1.92l-1.35,3.27c-.23.54-.43,1.1-.63,1.65l-.05.13-.12.34-.3.8-.11.32c-.18.49-.36,1-.53,1.48-.81,2.28-1.49,4.25-2.09,6-.22.66-.42,1.33-.62,2l-.19.62-.63,2.13-.19.66c-.29,1-.58,2-.86,3l-.63,2.2c-.85,2.92-1.67,5.85-2.49,8.78l-.73,2.55-.23.86-.3,1.08-.18.65c-.12.44-.23.88-.34,1.32s-.16.69-.26,1l-.15.59-.08.32c-.4,1.52-.82,3.09-1.19,4.63-1,4.05-1.83,8-2.56,11.46l-.26,1.24-.29,1.37c-.14.62-.25,1.26-.35,1.89l0,.21-.12.68c-.34,1.91-.66,3.79-.95,5.59s-.45,3.68-.6,5.33l0,.46c-.07.75-.12,1.51-.16,2.26l0,.38,0,.32c0,.23,0,.46,0,.7v1.92A132.48,132.48,0,0,0,483.71,590l.14,1,.13.94.15,1.07c0,.32.11.64.17,1l.08.43q.53,3,1.07,5.94l.3,1.69.17.91c.5,2.73,1.07,5.82,1.48,8.82a23.94,23.94,0,0,1,.21,5.54c0,.23-.07.46-.12.68a3.79,3.79,0,0,1-.19.67l-.07.13-.08.13-.1.09-.07,0-.08.05h-.2a4.12,4.12,0,0,1-.61-.18c-1.15-.53-2.3-1.14-3.42-1.79l-.37-.22c-.46-.27-.91-.53-1.36-.83l-.55-.35c-.4-.26-.79-.51-1.16-.78l-3.35-2.45a16.54,16.54,0,0,0-2.46-1.51c-.61-.3-1.23-.57-1.85-.84-.44-.19-.88-.37-1.33-.54l-.35-.14-.33-.12-.12-.05-.22-.08-.32-.12c-.24-.09-.47-.17-.71-.24a20.75,20.75,0,0,0-2.08-.51c-.59-.13-1.18-.22-1.78-.31-1.07-.17-2.21-.29-3.13-.38l-.8-.09c-1.22-.12-2.44-.26-3.66-.4a15.24,15.24,0,0,1-1.76-.34,18.25,18.25,0,0,1-2.15-.73,17.74,17.74,0,0,1-3.7-2.09l-.72-.65a3.8,3.8,0,0,1-.46-.52l-.07-.08-.54-.8a6.08,6.08,0,0,1-.38-.77c-.13-.36-.25-.7-.36-1.05a7.06,7.06,0,0,1-.19-.89l0-.21c-.07-.57-.11-1.16-.13-1.81a14,14,0,0,1,.14-1.93c.1-.51.19-1,.32-1.42s.34-1,.55-1.59a21.44,21.44,0,0,1,1.23-2.2c.26-.41.53-.81.8-1.21l.07-.12c.23-.33.46-.66.68-1,.47-.73.94-1.49,1.41-2.27s.9-1.61,1.37-2.57a28.89,28.89,0,0,0,1.86-5.14,31.56,31.56,0,0,0,.93-5c.1-.89.17-1.73.21-2.56,0-.64,0-1.27.05-1.91v-.68c0-1.86.11-3.68.2-5.41.07-1.23.17-2.47.27-3.68l0-.38.12-1.36c0-.53.07-1.06.11-1.59.07-1.07.15-2.39.31-3.65l.09-.65.08-.66c.28-1.79.58-3.52.89-5.28.17-.93.35-1.85.54-2.77l.08-.41.36-1.88c.21-1.16.41-2.32.61-3.48l0-.15c.39-2.23.78-4.54,1.28-6.79l.05-.21c.17-.77.35-1.58.56-2.37s.49-1.7.79-2.63l.08-.25c.42-1.33.94-2.65,1.45-3.92l.36-.91c.78-2,1.46-3.92,2-5.39.29-.83.59-1.65.89-2.48.36-1,.7-2,1-3,.55-1.61,1.07-3.31,1.62-5.2a57,57,0,0,0,1.37-5.73,40.32,40.32,0,0,0,.47-7.56c0-1.78-.11-3.57-.2-5.31v-.28c-.09-1.48-.22-3-.36-4.42l-.11-1.14v-.11c-.05-.56-.1-1.11-.14-1.67-.11-1.25-.22-2.48-.36-3.69l-.08-.75-.08-.68c-.35-3.12-.7-6.24-1.08-9.36l-.2-1.59c-.16-1.3-.33-2.61-.46-3.92-.2-2-.36-3.93-.48-6-.23-3.8-.25-7.57-.23-11.07v-1.42c0-3.06,0-6.53.13-9.92.07-2.35.15-4.47.25-6.48.09-1.82.22-3.74.33-5.27l.05-.68c.1-1.41.19-2.68.32-4,.08-.77.17-1.55.26-2.33.05-.36.07-.73.1-1.1v-.13l0-.34a1.66,1.66,0,0,0-.2-.79,1.29,1.29,0,0,0-.5-.48,1.35,1.35,0,0,0-.61-.16Zm47.62,65.17c.83-1.46,1.67-2.91,2.51-4.37.72-1.24,1.5-2.48,2.25-3.67l0-.09.74-1.18c.82-1.32,1.71-2.69,2.71-4.2l1.53-2.28.13-.2c.38-.56.77-1.12,1.17-1.67l.12-.17.63-.89c1.34-1.91,2.74-3.81,4.17-5.75l.8-1.08.25-.33.26-.32c.84-1.07,1.68-2.14,2.53-3.2l.77-1c.81-1,1.66-2.07,2.52-3.08l2-2.4c.42-.5.86-1,1.3-1.48l.55-.62c.48-.54,1-1,1.55-1.63l.52-.53.17-.17c.37-.38.73-.76,1.12-1.12l2.32-2.21.14-.14c.44-.42.9-.83,1.36-1.23l.47-.41c1.23-1.08,2.54-2.2,3.89-3.32l.65-.53,3.69-3.05.88-.74.34-.29.61-.52c-.12.32-.22.66-.32,1l0,.2-.18.6c-.23.79-.49,1.58-.75,2.35l-.15.46-.1.32-.07.19c-.47,1.45-1,3-1.5,4.4-1.51,4.13-2.81,7.51-4.08,10.63-1.65,4.09-2.93,7.29-4.18,10.59-1.39,3.67-2.74,7.26-3.93,10.88l-.25.74,0,.08c-.19.55-.38,1.1-.55,1.66l-.42,1.4-.6,2c-.5,1.67-1,3.38-1.37,5l0,.08-.08.35c-.18.67-.34,1.34-.5,2l0,.11,0,.17c-.23.95-.46,1.89-.72,2.83-.44,1.6-1,3.39-1.66,5.64-.27.85-.52,1.7-.76,2.55s-.47,1.62-.72,2.43c-.6,1.94-1.2,3.79-1.77,5.52-.4,1.18-.81,2.35-1.22,3.53l-.16.46-.54,1.53c-.55,1.61-1.1,3.26-1.66,5.06-.63,2-1.13,3.78-1.51,5.43s-.65,3.5-.89,5.22l0,.23c-.26,1.83-.51,3.66-.78,5.49l-.07.5c-.1.68-.2,1.37-.31,2.06-.15,1-.36,2-.53,2.76-.06.28-.14.55-.21.82l0,.11-.09.32c-.09.37-.18.72-.28,1.07l-.38,1.31-.54,1.85c-.52,1.76-1.08,3.67-1.68,5.57-.25.8-.51,1.6-.77,2.39l-.06.17a75,75,0,0,0-2.25,7.83c-.2.92-.38,1.85-.55,2.79-.14.73-.24,1.49-.33,2.22l0,.15-.08.58c-.24,1.84-.46,3.66-.64,5.41-.07.72-.14,1.44-.2,2.17l0,.34c-.08.91-.16,1.81-.26,2.72s-.22,1.81-.34,2.72l-.06.47-.27,2.15c-.19,1.71-.27,3.38-.35,5.22-.08,2-.11,4.09-.13,5.63,0,2.27,0,4.59,0,6.78,0,1.37,0,2.73,0,4.1,0,.91,0,1.82,0,2.74a33.57,33.57,0,0,1-.2,3.53c-.16,1.08-.39,2.18-.61,3.24l0,.13a24.3,24.3,0,0,1-1.28,4.19c-.17.37-.34.74-.52,1.1l0-132.54,0,0Z" transform="translate(194.39 87.57)"/></g></g></g></svg>