<svg xmlns="http://www.w3.org/2000/svg" xmlns:xlink="http://www.w3.org/1999/xlink" viewBox="0 0 702.96 1114.7"><defs><style>.cls-1{fill:#ed9a76;}.cls-2{clip-path:url(#clip-path);}.cls-3{fill:#d8bda6;}.cls-4{fill:#213b2d;}.cls-5{fill:#e6963a;}.cls-6{fill:none;}</style><clipPath id="clip-path" transform="translate(72.01 178.85)"><rect class="cls-1" width="470.4" height="836.27"/></clipPath></defs><g id="Layer_2" data-name="Layer 2"><g id="ëÎÓÈ_1" data-name="ëÎÓÈ 1"><rect class="cls-1" x="72.01" y="178.85" width="470.4" height="836.27"/><g class="cls-2"><path class="cls-3" d="M622.24,462.64c0,21.26-.21,43.31-9.66,62.57s-31,34.86-52.94,31.06c-18.22-3.15-31.28-18-42.7-31.94C443.36,434.76,369.05,344,320.18,240.24c-29-61.65-48.83-127.46-84.82-185.67C204.84,5.23,161.18-48.67,180.77-102.82c19.26-53.21,88.15-71.05,147-75.12,108.09-7.47,254.6,30.32,292.53,139,22.6,64.77,2.15,170.81,2.1,238.84Z" transform="translate(72.01 178.85)"/><path class="cls-4" d="M200.85,851.17a1.28,1.28,0,0,0-.13-1.22,4.87,4.87,0,0,0-.55-.64l-.11-.1-.38-.4-.24-.24c-.63-.67-1.24-1.38-1.87-2.17s-1.23-1.64-1.78-2.44l-.42-.61-.11-.15c-1.13-1.64-2.31-3.34-3.52-5a55.13,55.13,0,0,0-4-4.71c-1.55-1.69-3.15-3.36-4.79-5.06l-4-4.25c-.41-.43-.81-.88-1.2-1.33l-.13-.15-.49-.55-1.74-2c-2.72-3.14-5.21-6-7.59-8.87-1.29-1.52-2.57-3.05-3.87-4.57l-1.11-1.36-.09-.11-.55-.68c-.59-.73-1.18-1.44-1.77-2.16l-.48-.59-.23-.29-.79-1c-.7-.84-1.42-1.67-2.14-2.49s-1.63-1.78-2.44-2.64l-.23-.25-.87-.92c-1.46-1.55-2.93-3.1-4.41-4.63-1.21-1.27-2.49-2.5-3.73-3.7l-.18-.18c-1.29-1.25-2.56-2.48-3.88-3.69L139.79,781l-1.28-1.16c-.48-.44-1-.85-1.47-1.26l-.07-.06-.59-.48a83.59,83.59,0,0,0-8.92-6.41c-3-1.93-6.13-3.57-9.84-5.52-1.64-.86-3.34-1.68-4.8-2.36l-.75-.37-.14-.07c-.51-.24-1-.49-1.54-.71l-2.87-1.22c-3.63-1.52-7-2.87-10.46-4.14-1.84-.69-3.72-1.34-5.54-2l-.11,0c-.59-.2-1.17-.38-1.74-.56l-.08,0c-.26-.08-.51-.15-.76-.24l-1.34-.42-1.22-.4-1.17-.37c-1.45-.47-3-1-4.51-1.41s-3-.83-4.64-1.27l-.79-.21c-1.55-.41-2.8-.73-4-1l-3.09-.7c-.54-.13-1.09-.22-1.64-.32l-.64-.12c-1.54-.29-3.07-.52-4.63-.76l-1.31-.2c-1.12-.17-2.24-.34-3.36-.49l-.35,0-.92-.12-3.52-.47c-1.66-.23-3.32-.48-5-.74-1.13-.17-2.28-.38-3.39-.59l-.32-.06-1.2-.23c-1.44-.26-3-.62-4.84-1.12a18.4,18.4,0,0,1-1.86-.7c-.21-.09-.42-.2-.62-.31a4.71,4.71,0,0,0,1.08-.14,9,9,0,0,0,2.5-1.15c.48-.31,1-.67,1.34-1l.48-.35c.56-.41,1.19-.83,2-1.32,1.14-.63,2.2-1.15,3.24-1.6,1.29-.56,2.59-1.09,3.89-1.62.48-.2,1-.37,1.44-.54l.09,0,.66-.23c.54-.2,1.09-.38,1.63-.56l.59-.19c.43-.14.85-.28,1.28-.4l2.26-.64h-.1l.79-.16,1.85-.45c.29-.08.59-.13.89-.19l.42-.09,1.18-.24.47-.1,2-.37.91-.16,2.43-.44.48-.08c.63-.12,1.25-.26,1.88-.4l1-.21c.6-.13,1.2-.3,1.79-.46l.1,0,.25-.07a32.81,32.81,0,0,0,3.87-1.37c.83-.36,1.68-.83,2.36-1.21l.33-.18L81,725.7c.95-.53,1.89-1.1,2.64-1.57.46-.27.9-.59,1.36-.91l.12-.09.48-.33c.43-.3.87-.59,1.31-.88l1-.67,2.13-1.44.48-.32,1.66-1.12c.75-.51,1.49-1,2.22-1.55a7.72,7.72,0,0,0,.72-.56l.32-.27.74-.62.46-.38a35.86,35.86,0,0,0,3.76-3.67l2.25-2.55.2-.23.68-.77c.92-1,1.9-2,3.1-3.22.54-.48,1.14-1,1.77-1.47s1.56-1.13,2.33-1.67l.2-.14,1.13-.78,1-.66c.81-.56,1.61-1.17,2.3-1.71,1.06-.83,2.1-1.73,3-2.52l1-.84,1.42-1.2.45-.38,2.23-1.9.5-.43a35.08,35.08,0,0,1,3.74-3c1.18-.78,2.37-1.54,3.81-2.44l.94-.59c1.25-.79,2.5-1.62,3.7-2.42l.18-.11.8-.54c1-.63,1.91-1.27,2.86-1.92l1.85-1.24c1.39-.93,2.78-1.88,4.17-2.82l.49-.34,4.55-3.08.89-.6.07,0c1.19-.79,2.41-1.61,3.6-2.45,1.35-.94,2.69-1.95,4-2.93l.23-.17c1.86-1.41,3.75-2.8,5.63-4.18l.26-.19,3.57-2.64c1.17-.86,2.33-1.75,3.49-2.64l.62-.47.59-.45c.51-.39,1-.78,1.53-1.19l.67-.55.68-.56c.26-.21.5-.45.74-.68l.34-.33c1.39-1.3,2.7-2.72,4-4.09l.73-.79c1.9-2.06,3.81-4.1,5.73-6.15.49-.53,1-1,1.48-1.57l.62-.65.91-1,.14-.14c.53-.57,1.06-1.14,1.61-1.68l2.75-2.75,2.75-2.74c1.3-1.2,2.85-2.61,4.46-4s3.13-2.49,5.22-3.94l.11-.08c.83-.57,1.86-1.28,2.88-1.88l1.27-.75,1.26-.76.9-.53c.83-.5,1.66-1,2.5-1.46l2.44-1.37,1.76-1a37.34,37.34,0,0,1,4.56-2.18,8.54,8.54,0,0,0,2.1-.35,1.37,1.37,0,0,0,.83-.8,1.6,1.6,0,0,0,0-1.16,1,1,0,0,1,0-.14,1.51,1.51,0,0,0-1.59-.94l-.13,0a8.3,8.3,0,0,0-1.39.26c-.72,0-1.48-.11-2.09-.17l-.13,0c-.81-.08-1.64-.2-2.37-.31l-.18,0c-2.22-.33-4.36-.68-6.35-1-1.39-.23-2.84-.53-4-.76l-1.66-.33-3.34-.67-.46-.1-1-.21-1-.21a79.23,79.23,0,0,0-13.82-1.75c-1.9-.06-3.57-.05-5.1,0l-2.65.15-1.29.07c-.55,0-1.12.11-1.58.17l-.41.06-1.38.18-2.2.29c-.32,0-.68.11-1,.18l-.34.07-1.86.38-.15,0c-1.31.29-2.62.64-3.85,1a60.23,60.23,0,0,0-8.24,3,59.56,59.56,0,0,0-6.73,3.62c-2.12,1.28-4.16,2.74-6.14,4.15l-.1.07-.67.48-3.68,2.6-.48.33-1.77,1.25c-2.69,1.89-5.43,3.92-8.37,6.18l-1.93,1.49-1.25,1-.45.35-.16.11-.86.67-5.25,4.28c-.34.28-.66.57-1,.86l-.47.43-3.07,2.75c-1.08,1-2.11,2-3,2.95-.34.35-.68.7-1,1L111.19,646l-.48.48c-.28.27-.54.56-.81.86l-.08.09-.39.43-2.73,3-2,2.18c-.91,1-1.8,2-2.69,3l-1.24,1.38c-1.16,1.28-2.17,2.42-3.09,3.48l-8.46,9.85c-1.8,2.1-3.66,4.22-5.47,6.26l-.55.62-.66.75-1.68,1.91c-1.59,1.8-3.19,3.61-4.79,5.4q-3.64,4.06-7.32,8.12c-2,2.24-4.1,4.49-6.11,6.67l-.67.72c-.74.81-1.53,1.59-2.34,2.39l-.22.22L58,705.09l-2.3,2.27-1.65,1.47-1.12,1-.78.7-.09.08c-.52.47-1,.94-1.57,1.39l-6.9,5.87c-1.32,1.12-2.62,2.26-3.94,3.42l-.9.8-.9.79c-.8.7-1.46,1.3-2.06,1.87l-1.61,1.53-.33.31-1,1c-.33.31-.64.59-1,.85l-.45.39c.19-.37.37-.75.55-1.13l.16-.34c.33-.7.68-1.39,1-2.08l.31-.63q.63-1.25,1.29-2.49l.16-.3c.38-.73.77-1.47,1.14-2.21s.9-1.82,1.32-2.79c.3-.71.6-1.46.9-2.24s.63-1.74.94-2.61.48-1.4.69-2.08l.25-.76c.19-.6.35-1.19.51-1.8l.21-.77c.2-.72.38-1.46.55-2.22l.18-.75.16-.67c.33-1.37.67-2.78,1-4.2.52-2.47.93-4.45,1.26-6.23.27-1.39.56-2.77.85-4.15l.08-.41.25-1.15c.1-.48.25-1,.38-1.44.07-.24.12-.43.17-.61l.68-2.43.47-1.36.47-1.36.12-.36.09-.28c.17-.49.37-1.1.6-1.66l.68-1.63.69-1.63.19-.48c.11-.25.21-.49.31-.74s.23-.5.35-.75l.74-1.56c.54-1.15,1.15-2.45,1.79-3.7l.85-1.64c.6-1.18,1.21-2.35,1.79-3.53l1.54-3.12.3-.6c.24-.46.47-.94.69-1.42l1.43-3.22.26-.57c.14-.3.28-.61.41-.91s.17-.4.24-.6l1.17-3.06.07-.18.61-1.62.06-.14c.06-.16.13-.33.18-.5l.45-1.44.54-1.72.26-.85.3-.94.09-.28,0-.09c.07-.22.14-.45.2-.68.46-2,.93-3.93,1.4-5.89.16-.66.27-1.33.39-2v-.09l.08-.45c.19-1.09.35-2.24.52-3.73a51,51,0,0,0,.26-8,46.09,46.09,0,0,0-1-7.71c-.28-1.3-.62-2.62-1-3.86-.51-1.89-1-3.79-1.56-5.68l-.82-2.88c-.17-.58-.34-1.11-.5-1.64l0-.15-.23-.73-.24-.77c-.46-1.52-.89-2.89-1.35-4.25L58,585.28c-.11-.32-.23-.65-.36-1l-.16-.43-.75-2L56,580l-.28-.73c-.56-1.48-1.12-3-1.66-4.45l-1.87-5.19-1-2.67c-.13-.38-.25-.76-.37-1.15l-.15-.49-.48-1.54-1-3.12-.12-.4c-1-3.3-2.1-6.7-3-10.13a67.65,67.65,0,0,1-1.38-7.36c-.14-1.08-.22-2.18-.29-3.24v-.08l0-.44c0-.59-.08-1.18-.09-1.77a7.22,7.22,0,0,0-.27-2L44,535a2.73,2.73,0,0,0-.39-.9l-.07-.09a1.56,1.56,0,0,0-.59-.52,1.48,1.48,0,0,0-.78-.06h-.14a1.49,1.49,0,0,0-.75.38l-.13.1a2.54,2.54,0,0,0-.66.82l-.15.22a7.16,7.16,0,0,0-.39.66c-.28.48-.55.94-.8,1.4-1.82,3.31-3.58,6.7-5.23,10.07l-.3.63c-.25.49-.49,1-.71,1.48l-1.49,3.3c-.11.25-.21.46-.3.68l-.35.82-.35.82-.24.57-.07.15-.06.16c-.21.47-.4.93-.59,1.41L29,558.44c-.48,1.26-1,2.68-1.55,4.09l-.23.66q-.87,2.4-1.73,4.82l-.28.82c-.6,1.68-1.13,3.19-1.62,4.71l-.09.3c-.59,1.83-1.16,3.62-1.7,5.41l-1,3.18c-.15.52-.29,1.05-.43,1.57l-.19.72c-.31,1.15-.62,2.3-.94,3.45-.14.52-.26,1-.38,1.57l-.11.49c-.32,1.41-.61,2.88-.86,4.38-.41,2.49-.58,5-.76,7.51l-.09,1.39c0,.47,0,1,0,1.41v1.52l0,2.93c0,.42,0,.84,0,1.25v.47l.1,2.11.1,2.09c.07,1.41.19,2.82.33,4.38l.11,1.31c.14,1.71.24,3.45.34,5.13l0,.28.18,3c0,.52,0,1,0,1.52l0,.72,0,1.66v.2c0,1.23.06,2.46.07,3.69l0,3.37,0,3.39c0,3.33,0,6.91-.11,10.58,0,1.4-.06,3-.06,4.64v1.71c0,1.28,0,2.53,0,3.78l0,2.25v.19l.14,9c0,2.69.05,5.42.06,8.07v2.21l0,5.75v.14c0,1.24-.05,2.47-.09,3.71v.18l0,1.2c-.06,1.69-.11,3.21-.19,4.76l-.34,6.34c0,.44-.06.88-.1,1.33v.09l-.05.64-.13,1.67-.16,2.24c-.1,1.39-.24,2.77-.39,4.3l-.1,1c-.13,1.4-.3,2.79-.48,4.22l-.15,1.25c-.14,1.16-.29,2.32-.46,3.47a65.7,65.7,0,0,1-1.52,7.44,44.63,44.63,0,0,1-1.92,5.45c-.28.66-.58,1.29-.86,1.86-.59,1.18-1.17,2.36-1.76,3.53l-.09.19-.06.13c-.17.35-.36.69-.56,1l-.26.47-.56,1L7.63,751c-.39.71-.81,1.41-1.22,2.1l-.08.14-.38.63-.26.41L4.1,756.66a36.46,36.46,0,0,1-4.29,5.6l-2.08,2c-.44.41-.93.83-1.54,1.31a5.5,5.5,0,0,1-.64.43l-.34.22-.7.47c-1.25.82-2.44,1.6-3.6,2.42s-2.57,1.82-3.87,2.8c-.55.42-1.11.85-1.67,1.31l-.24.19c-.6.5-1.2,1-1.78,1.5l-2,1.74-.23.2-1.47,1.29-1.08.93-.55.47-1.64,1.42-.35.3c-1.06.93-2.13,1.85-3.22,2.71-.54.42-1.09.82-1.76,1.28s-1.15.71-1.68,1l-.19.1c-.5.27-1,.53-1.53.79a13.54,13.54,0,0,1-1.91.8,1.76,1.76,0,0,1-.31,0l-.26,0,.14.06a1.52,1.52,0,0,1-.5-.22l0,0h0l0,0h0l-.15-.12-.06-.06a1.85,1.85,0,0,1-.41-.59l0,0,0,0h0l-.07-.2-.07-.21a4.1,4.1,0,0,1-.11-.94c0-.13,0-.26,0-.39v-.1a10,10,0,0,1,.21-1.67c.09-.46.2-.93.32-1.4l.1-.45c.29-1.22.57-2.32.85-3.35.21-.72.39-1.31.61-1.9s.43-1.13.78-1.94c.43-1,1-2,1.36-2.88l.26-.51.25-.51c.25-.52.48-1,.72-1.57l.08-.18.14-.32c.24-.56.45-1.11.67-1.68s.41-1.08.6-1.63l.29-.82.26-.77.08-.21c.06-.18.13-.36.18-.54l.19-.67c.3-1.1.62-2.23.89-3.37l.56-2.35.47-2c.57-2.41,1.22-4.84,1.8-7l.41-1.54,1.3-4.55c.57-2,1.13-4,1.71-6l.39-1.36c.93-3.2,1.89-6.51,2.65-9.81l.31-1.3,0-.16c.32-1.34.65-2.73.9-4.11l.35-1.94.35-1.94.08-.42c.1-.51.19-1,.26-1.53l.22-1.8.23-1.81.08-.63,0-.14c.06-.47.13-.93.17-1.4.17-2.13.35-4.24.53-6.37.09-1,.13-2.1.16-3.06l0-.75c0-1.05.05-2.19,0-3.48s-.06-2.44-.14-3.86v-.09c0-.81-.1-1.75-.19-2.68-.21-2.24-.43-4.49-.65-6.73,0-.31-.07-.63-.11-.94l0-.18-.08-.57-.28-2.14-.27-2.08v-.08l-.28-2.16c0-.15-.05-.3-.08-.44l-.05-.23-.13-.75-.22-1.21-.25-1.44,0-.23c-.21-1.21-.43-2.46-.68-3.67l0-.11-1.34-6.51c-.09-.44-.2-.89-.31-1.34-.07-.26-.13-.5-.18-.73l-.47-2-.48-2c-.3-1.29-.66-2.6-1-3.86l-.06-.22-.39-1.43c-.34-1.25-.73-2.52-1.11-3.75l-.05-.16-.46-1.51c-.13-.42-.27-.85-.41-1.27l-.05-.13-.21-.62-.61-1.84-.61-1.83c-.42-1.24-.86-2.47-1.31-3.7l-.66-1.86c-.44-1.25-.95-2.49-1.45-3.69l-.56-1.38-.77-1.92-.39-1c-.13-.31-.28-.62-.42-.93l-.07-.15-.23-.47-.37-.79-2.7-5.81c-.54-1.16-1.07-2.34-1.59-3.51l-.16-.33-.68-1.51L-37,607l-.64-1.41c-.22-.47-.41-1-.6-1.45l0-.08-.16-.4-.15-.39q-2.45-6-4.87-12.06c-.83-2.05-1.72-4.1-2.58-6.08-.51-1.17-1-2.35-1.52-3.53l-.45-1c-.58-1.37-1.15-2.72-1.67-4.06l-.62-1.65c-.49-1.29-1-2.57-1.48-3.85l-.42-1.09-.85-2.19-.26-.65-.39-1-.08-.23c-.07-.17-.13-.34-.2-.5l-.49-1.07c-.93-2.07-1.87-4.18-3-6.16l-.78-1.38a4.65,4.65,0,0,0-.56-.78,2.63,2.63,0,0,0-.58-.53,1.67,1.67,0,0,0-1.2-.34,1.56,1.56,0,0,0-1.06.59l-.3.48c0,.2-.11.4-.16.6a3.69,3.69,0,0,0-.07.88V558c0,.39,0,.77,0,1.16v.79c0,1.44-.05,2.89-.07,4.33l0,1c0,.87,0,1.74,0,2.61l0,2.63v.47c0,.43,0,.85,0,1.28l.06,2.51.07,2.51c0,.34,0,.67.06,1l0,.27.09,1.44.09,1.44c0,.58.08,1.15.13,1.73v.12l0,.17c0,.52.09,1,.12,1.55l0,.24c.08,1.39.17,2.78.18,4.15a37.45,37.45,0,0,1-.33,4.12l-.18,1.31-.18,1.32c0,.4-.12.8-.2,1.19l-.09.52-.1.62c-.08.46-.16.93-.26,1.4l-.08.4c-.29,1.3-.57,2.59-.87,3.89l-.11.49c-.1.46-.21.92-.33,1.37l-.35,1.31-.31,1.12,0-.09c-.55,1.82-1,3.63-1.52,5.52s-.85,3.63-1.28,5.63c-.3,1.46-.57,3-.8,4.34l-.23,1.29c-.27,1.54-.58,3.11-.88,4.63l-.09.45-.12.6c-.37,1.84-.72,3.68-1.07,5.53s-.61,3.69-.86,5.56c-.09.67-.14,1.36-.19,2l-.05.68c-.07.78-.09,1.57-.11,2.34v.1l0,.6c0,1.72,0,3.52.07,5.11l0,.45c0,.58,0,1.15.08,1.73V655l0,.86c0,.58,0,1.16.07,1.74V658c0,.31,0,.61,0,.92l.12,2.7c.06,1.25.12,2.51.17,3.76.11,2.27.23,4.42.35,6.4l0,.29q.1,1.62.18,3.24v.3c0,.37,0,.74,0,1.11,0,.59,0,1.17,0,1.76,0,1.86-.08,3.71-.15,5.57,0,1.1-.09,2.19-.14,3.29,0,.76-.07,1.52-.1,2.28s-.06,1.55-.07,2.33V693c0,.6,0,1.2,0,1.8q.06,3,.15,5.94c0,1.65.18,3.33.3,4.81l.07.9c.16,2,.4,4,.66,6,.07.56.16,1.12.26,1.68l0,.16.11.71c.14.87.28,1.73.43,2.59.37,2,.71,4.09,1.06,6.14.08.52.15,1,.22,1.57v.09l.09.71.05.36c.09.72.18,1.44.26,2.16l.34,3.17.35,3.17c.4,3.73.88,7.15,1.48,10.46l2.19,12.14c.12.66.23,1.31.34,2,0,.29.09.57.14.86l0,.17c.11.69.23,1.38.32,2.07l.19,1.6c.18,1.48.34,2.81.54,4.15q.48,3.23,1,6.43l.07.44c.25,1.64.51,3.28.76,4.92s.54,3.52.81,5.28l.53,3.38c.1.66.25,1.33.39,1.93l.06.3.13.6c.14.68.35,1.38.52,1.94.09.29.17.55.24.8s.16.49.25.73l.11.33.29.82.28.82c.1.27.22.54.34.8s.12.25.17.38l.36.83.27.62c.1.24.21.47.33.7l.16.34.18.39,0,.08c.18.38.37.78.59,1.16l.29.51c.35.61.7,1.23,1.08,1.83.59.94,1.11,1.72,1.63,2.47l.32.47.33.47.15.8.09.48.09.48a28.8,28.8,0,0,1,.37,3.83l.09,1.58c0,.67.06,1.29.1,1.92.06,1,.08,2.17.08,3.65,0,1-.07,2-.14,2.79a26.8,26.8,0,0,1-.48,3.1l-.08.44,0,.24c-.14.75-.28,1.49-.41,2.24-.17,1-.42,2-.61,2.87l-.08.32c-.2.69-.41,1.37-.62,2.06l0,.1-.33,1c-.41,1.37-.72,2.59-.95,3.72-.39,1.9-.9,3.8-1.4,5.64l-.34,1.29-.17.59-.68,2.45c-.24.83-.47,1.6-.72,2.37-.33,1-.69,2-1,3-.14.4-.3.79-.47,1.18L-58,857l-.11.25-.1.24-.1.24c-.14.32-.3.64-.45,1l-.22.44c-.05.12-.11.23-.17.35l0,.08c-.1.19-.21.39-.29.58l-.05.12a.76.76,0,0,0,.22.89.81.81,0,0,0,.61.16.68.68,0,0,0,.46-.28l0-.06c.29-.42.54-.87.79-1.3l0-.07.1-.18L-57,859l.29-.49.28-.46.59-1c.42-.71.86-1.48,1.46-2.6.78-1.45,1.58-3,2.53-5,.84-1.75,1.68-3.5,2.54-5.24.73-1.48,1.57-3,2.56-4.76.85-1.47,1.65-3,2.35-4.4l.15-.29c.61-1.17,1.16-2.39,1.7-3.57l0-.06.5-1.09c.87-1.88,1.7-3.58,2.55-5.19l1.42-2.62c.14-.26.29-.52.44-.78l.11-.2c.26-.46.5-.88.73-1.31l.52-1,0-.08c.47-.89.94-1.76,1.4-2.65.65-1.23,1.42-2.67,2.26-4.09.41-.67.86-1.34,1.32-2a16.63,16.63,0,0,1,1.68-1.91l.06-.06c.34-.31.66-.64,1-1,.16-.16.31-.34.46-.52l.07-.07.25-.3.33-.39.2-.23c.36-.43.73-.87,1.12-1.29a20.31,20.31,0,0,1,3.4-2.56,9.07,9.07,0,0,1,1.16-.47,10.09,10.09,0,0,1,1.32-.14,7.22,7.22,0,0,1,1,.14,2.48,2.48,0,0,1,.39.1,21.64,21.64,0,0,1,2.65,1,25.58,25.58,0,0,1,2.49,1.32,20.94,20.94,0,0,1,2.56,1.9l.14.13c.86.78,1.76,1.59,2.58,2.41l-.11-.16.63.7c.31.34.63.67.93,1,.6.66,1.18,1.36,1.76,2.08L-5,812c.82,1,1.62,2,2.43,3l.47.59.71.89a25.17,25.17,0,0,0,3.49,3.65c.81.68,1.7,1.29,2.48,1.83a30.26,30.26,0,0,0,3.28,2.08c.77.41,1.57.78,2.46,1.19l.64.3c1.06.49,2.14.95,3.21,1.41l1.74.76c1.77.77,3.52,1.57,5.28,2.37,1.41.65,3.05,1.4,4.69,2.21s3.37,1.72,4.93,2.55l.66.37.2.11.49.28,2.59,1.63c.87.56,1.73,1.11,2.61,1.64,1.06.65,2.14,1.28,3.22,1.91l1.84,1.08.25.16c1.42.86,2.8,1.7,4.14,2.57.87.58,1.68,1.12,2.47,1.68s1.33,1,1.92,1.43l.41.32c1.3,1,2.56,2.17,3.67,3.2l.3.27.57.54c1.09,1,2.33,2.17,3.57,3.25s2.82,2.45,4.27,3.66l.38.33a51.2,51.2,0,0,0,4.15,3.26c1.91,1.31,3.93,2.56,5.71,3.65,1.15.71,2.3,1.41,3.44,2.14.84.54,1.68,1.08,2.51,1.65s1.45,1,2.09,1.56c1.24,1,2.55,2.1,4.12,3.5s2.9,2.62,4.33,3.94l.14.13q1.92,1.77,3.85,3.51c1.57,1.41,3,2.63,4.29,3.73,1.53,1.27,3,2.56,4.56,3.85s2.74,2.3,3.94,3.21l1.16.88.65.5,2.95,2.26c3,2.32,5.92,4.86,8.89,7.48,1,.85,1.92,1.75,2.84,2.63l.12.11,1,1c1.34,1.27,2.69,2.54,4,3.83,1.5,1.45,3,2.9,4.46,4.37l1.29,1.28.36.37,2,2c2.64,2.61,5.5,5.4,8.47,8.07q2,1.75,4,3.48c.55.48,1.11.93,1.67,1.39l.15.12c.4.32.8.65,1.21,1s.88.63,1.32.91a11.18,11.18,0,0,0,1.41.67,1.5,1.5,0,0,0,1.12,0,1.56,1.56,0,0,0,.78-.76l0-.08c.07-.13.13-.24.18-.35a1.27,1.27,0,0,0,.11-.7,5.34,5.34,0,0,0-.26-1c-.11-.3-.21-.62-.31-.94l-.11-.37-.42-1.36-.11-.38-.22-.7c-.35-1.15-.68-2.32-1-3.48l-.1-.36-.46-1.58c-.54-1.87-1-3.55-1.58-5.23-.1-.27-.18-.55-.27-.83-.2-.63-.39-1.24-.61-1.83l-.61-1.64-.62-1.66c-.19-.53-.41-1-.62-1.58l-.27-.66-.07-.16c-.3-.74-.6-1.48-.94-2.21l-.4-.84c-.26-.57-.52-1.14-.8-1.69l-1.45-2.93c-.6-1.2-1.25-2.41-1.87-3.58l-.18-.33-.62-1.17c-.37-.7-.74-1.38-1.12-2.07l-.36-.65c-.33-.62-.67-1.24-1-1.85-1.09-1.85-2.19-3.71-3.3-5.56l-1.18-1.94-.51-.83-.1-.16c-.32-.51-.64-1-1-1.54q-1.71-2.6-3.45-5.17c-.85-1.25-1.7-2.47-2.72-3.92l-.68-1c-.3-.42-.61-.83-.91-1.24l-.11-.14-.22-.29-.7-.94-.11-.14c-.34-.45-.68-.91-1-1.36l-.65-.86-.12-.15c-.89-1.16-1.78-2.32-2.69-3.47q-2-2.46-3.9-5l-1.13-1.47c-.73-1-1.46-1.9-2.2-2.83-1.07-1.37-2.24-2.76-3.46-4.14l-.49-.56c-.43-.49-.91-1-1.41-1.56l-2.47-2.54c-.41-.42-.84-.82-1.27-1.23l-.1-.09-.26-.25-.62-.58-.25-.23L103,842.6c-1.77-1.64-3.32-3.05-4.71-4.29-.53-.47-1.06-.92-1.61-1.37l-.49-.42-1.71-1.42-.53-.44-2.38-2-1.77-1.44c-2.35-1.94-4.71-3.85-7.08-5.76l-2.06-1.68-.69-.55-.88-.71-.53-.42c-.35-.28-.72-.56-1.08-.83s-.57-.42-.84-.64l-.48-.37-.26-.21c-1.24-1-2.52-2-3.79-2.92-3.33-2.48-6.66-4.85-9.52-6.88l-1-.73-1.14-.81c-.52-.36-1.06-.71-1.6-1.06l-.18-.12-.58-.38c-1.61-1.07-3.21-2.1-4.76-3.07s-3.2-1.87-4.66-2.66l-.4-.23c-.67-.36-1.34-.7-2-1l-.34-.17-.28-.14c-.21-.11-.41-.22-.63-.31l-.89-.37-.88-.38a133.9,133.9,0,0,0-17-5.49l-1-.27-.92-.25-1-.28c-.32-.09-.63-.16-.95-.23l-.43-.1-5.88-1.36-1.67-.38-.9-.21c-2.71-.62-5.78-1.32-8.69-2.12a24.5,24.5,0,0,1-5.17-2c-.2-.12-.4-.25-.58-.38a4.17,4.17,0,0,1-.54-.44l-.09-.12-.09-.12-.05-.13v-.08l0-.09a1.15,1.15,0,0,1,.07-.19,4.44,4.44,0,0,1,.41-.49c1-.85,2-1.67,3-2.44l.34-.25c.43-.32.86-.63,1.3-.92l.54-.37c.4-.27.78-.53,1.18-.76l3.57-2.11A16.46,16.46,0,0,0,11,775.58c.51-.44,1-.9,1.5-1.36s.69-.67,1-1l.26-.26.24-.25.09-.1.16-.17.24-.25c.17-.18.35-.36.5-.55.52-.63.93-1.17,1.3-1.71s.66-1,1-1.51c.58-.92,1.14-1.92,1.59-2.73l.39-.7c.6-1.07,1.21-2.14,1.82-3.2a16.8,16.8,0,0,1,1-1.49,18.67,18.67,0,0,1,1.53-1.68A17.28,17.28,0,0,1,27,756c.29-.15.58-.28.88-.42a5.06,5.06,0,0,1,.66-.21l.1,0,.95-.18a6.38,6.38,0,0,1,.86-.05c.38,0,.74.05,1.11.09a5.4,5.4,0,0,1,.89.18l.2.05c.55.16,1.11.36,1.71.6a14.93,14.93,0,0,1,1.73.89c.43.29.81.56,1.17.85a16.51,16.51,0,0,1,1.25,1.14,21.76,21.76,0,0,1,1.53,2c.27.4.54.81.8,1.22l.07.11.66,1c.48.72,1,1.46,1.53,2.19s1.12,1.46,1.82,2.28a29.49,29.49,0,0,0,4,3.74,31.82,31.82,0,0,0,4.26,2.84c.78.44,1.52.84,2.26,1.2.58.28,1.16.54,1.74.8l.62.28c1.7.77,3.34,1.55,4.89,2.32,1.1.55,2.2,1.13,3.27,1.7l.34.18,1.2.64,1.43.73c1,.49,2.13,1.09,3.22,1.73l.57.34.57.34c1.54,1,3,1.92,4.5,2.9.78.52,1.56,1,2.33,1.59l.35.23,1.58,1.08,3,1.93.13.08c1.9,1.24,3.87,2.51,5.74,3.86l.17.13c.64.46,1.31.94,2,1.44s1.37,1.13,2.11,1.77l.2.18c1,.91,2.06,1.91,3,2.87l.69.69c1.51,1.5,3,2.9,4.17,3.95.65.59,1.29,1.19,1.93,1.8s1.53,1.41,2.31,2.11c1.27,1.14,2.62,2.29,4.15,3.54a57.38,57.38,0,0,0,4.71,3.52,39.67,39.67,0,0,0,6.76,3.42c1.64.7,3.33,1.32,5,1.92l.26.1c1.39.5,2.82,1,4.2,1.41l1.09.36.11,0,1.59.53c1.19.39,2.36.77,3.53,1.13l.72.21.66.2c3,.91,6,1.82,9,2.71l1.54.44c1.26.37,2.53.73,3.79,1.12,1.88.6,3.75,1.23,5.72,1.94,3.57,1.3,7,2.77,10.26,4.17l1.3.56c2.81,1.22,6,2.6,9.06,4,2.13,1,4,1.9,5.86,2.79,1.64.8,3.34,1.68,4.71,2.38l.6.31c1.26.65,2.39,1.24,3.55,1.88l2,1.16c.31.18.64.35,1,.52l.12.07.3.15a1.67,1.67,0,0,0,.82.13,1.27,1.27,0,0,0,.63-.28,1.15,1.15,0,0,0,.39-.49Zm-78.69,18c1,1.34,2,2.69,3,4,.86,1.15,1.69,2.36,2.49,3.52l.06.08.79,1.15c.89,1.28,1.8,2.63,2.78,4.15l1.49,2.3.14.21c.37.56.72,1.15,1.08,1.72l.1.18.57.93c1.23,2,2.42,4,3.63,6.11l.68,1.16.2.36.19.36c.66,1.19,1.31,2.39,2,3.59l.57,1.09c.61,1.14,1.25,2.35,1.84,3.53l1.4,2.82c.29.59.57,1.18.84,1.78l.35.75c.31.66.57,1.3.89,2.07l.28.68.09.23c.2.49.4,1,.59,1.47l1.11,3,.07.18c.22.57.41,1.15.59,1.73l.19.6c.51,1.55,1,3.2,1.52,4.88l.23.81c.45,1.53.89,3.07,1.34,4.6.11.36.23.73.34,1.1l.13.42.24.77c-.25-.24-.52-.46-.79-.69l-.17-.13-.48-.4c-.63-.52-1.26-1.08-1.86-1.61l-.37-.33-.25-.22-.15-.13c-1.14-1-2.32-2-3.45-3.12-3.2-3-5.79-5.55-8.15-7.94-3.11-3.14-5.54-5.57-8.08-8-2.82-2.73-5.59-5.39-8.44-7.91l-.58-.52-.06,0-1.31-1.16-1.13-.94-1.6-1.35c-1.34-1.12-2.74-2.2-4.09-3.25l-.07,0-.28-.22L111,892.23l-.09-.07-.14-.1c-.78-.59-1.56-1.17-2.32-1.78-1.29-1-2.73-2.23-4.52-3.76-.68-.57-1.36-1.14-2-1.7l-2-1.62c-1.54-1.31-3-2.6-4.36-3.81-.93-.83-1.85-1.67-2.76-2.51l-.37-.33-1.19-1.1c-1.25-1.14-2.56-2.3-4-3.52-1.59-1.38-3-2.53-4.39-3.54s-3-2-4.45-2.88l-.19-.12-4.74-2.87-.43-.27c-.59-.36-1.19-.72-1.77-1.09-.84-.53-1.66-1.12-2.33-1.59-.23-.16-.45-.34-.67-.51l-.09-.08-.26-.2-.87-.69-1-.86L64.51,856c-1.42-1.18-2.94-2.44-4.46-3.75l-1.89-1.65-.13-.12a75.67,75.67,0,0,0-6.3-5.17c-.77-.54-1.55-1.07-2.34-1.6-.62-.42-1.28-.81-1.91-1.18l-.13-.08-.5-.3c-1.6-.95-3.18-1.87-4.72-2.73l-1.91-1-.31-.17c-.8-.43-1.6-.86-2.39-1.32s-1.58-.91-2.37-1.38l-.4-.24-1.88-1.1c-1.49-.85-3-1.58-4.65-2.38-1.85-.89-3.71-1.72-5.11-2.34-2.09-.92-4.23-1.82-6.24-2.67l-3.77-1.61c-.84-.36-1.68-.72-2.51-1.1a32.09,32.09,0,0,1-3.16-1.58c-.94-.58-1.85-1.23-2.73-1.85l-.12-.08a23.64,23.64,0,0,1-3.34-2.83l-.81-.91,121.76,52.38,0,0Z" transform="translate(72.01 178.85)"/><path class="cls-5" d="M131.12-130.23a5.31,5.31,0,0,0-2.7.73,5.39,5.39,0,0,0-2.46,3.19,5.52,5.52,0,0,0,.54,4.12c.2.39.41.79.6,1.18a60.32,60.32,0,0,1,1.79,6H-51.72V265.49l.37-.56c-.74,1.16-1.45,2.21-2.15,3.19-.53.62-1.09,1.24-1.64,1.83-.71.78-1.45,1.58-2.12,2.42a2.66,2.66,0,0,0-.67,1.16,2.62,2.62,0,0,0,.26,2,2.72,2.72,0,0,0,2.32,1.31,2.32,2.32,0,0,0,1.26-.37,15.52,15.52,0,0,0,2.3-2l.25-.25.27-.27c.68-.66,1.38-1.34,2.05-2s1.21-1.37,1.78-2.07l.4-.49c.77-.95,1.5-1.9,2.17-2.83,1.53-2.12,3-4.28,4.34-6.3s2.81-4,4-5.65l.9-1.12c2.12-2.64,4.32-5.36,6.59-7.94,1.39-1.57,3-3.36,4.57-5l.62-.66c.43-.46.88-.93,1.34-1.36l0,0,3.14-2.91c1.11-1,2.28-2.06,3.41-3l1.36-1.19c.45-.39.89-.82,1.31-1.23l.55-.53.71-.67c.55-.52,1.1-1,1.63-1.56l1.44-1.41C-8,225-7,224-6,223.06l1.37-1.28q1.66-1.56,3.32-3.13C.5,217,2.26,215.26,4,213.55L8,209.76l1.32-1.26c1.1-1.05,2.24-2.13,3.34-3.21l1.49-1.46c1.07-1,2.18-2.11,3.22-3.2L27.1,190.4c.32-.34.63-.7.93-1.05l.38-.44L30,187.08l1.56-1.8c1.06-1.2,2.11-2.45,3.12-3.65l.91-1.08q1.68-2,3.34-4l1-1.27c1.21-1.43,2.46-2.92,3.6-4.44L51.8,160c2.19-2.9,4.32-5.93,6.37-8.86l.25-.34.87-1.26c.77-1.11,1.56-2.25,2.4-3.34l1.9-2.48,1.91-2.49c.85-1.05,1.69-2.1,2.54-3.14l2-2.46c1-1.23,2.08-2.44,3.11-3.61l.46-.52L74.85,130c.93-1.06,1.88-2.15,2.86-3.19l2.78-3,2.86-3c1.15-1.23,2.32-2.46,3.48-3.69l1.57-1.64c1-1,2-2.12,3-3.22l5.22-5.8a108.42,108.42,0,0,0,8.46-10.79c5.64-8.14,9.27-17.77,12.18-25.51.73-1.92,1.31-3.56,1.83-5.16l1.41-4.34c.08-.26.17-.51.26-.77.17-.52.35-1,.51-1.59l.88-3.1c.82-2.85,1.67-5.81,2.45-8.73,1.1-4.17,2.4-9,3.75-13.75.52-1.83,1.06-3.65,1.6-5.47.6-2,1.21-4.05,1.78-6.08l.55-1.93.54-1.93c.08-.27.16-.53.23-.79.17-.57.35-1.16.48-1.75l.44-1.91.39-1.7.24-1c.16-.64.32-1.31.44-2,.36-2,.71-4,1.06-6.07l.16-.9c.13-.73.22-1.48.3-2.2l.12-1,.6-4.69c.19-1.5.33-3,.47-4.51,0-.5.09-1,.14-1.49.16-1.66.34-3.61.46-5.56.63-10,1-18.15,1.29-25.71l0-.73c.29-8.66.58-17.62,1.08-26.43.33-5.74.59-11.57.8-16.59a139.23,139.23,0,0,0-.4-17,91.07,91.07,0,0,0-1.67-11.95,43.08,43.08,0,0,0-3.77-11,5.25,5.25,0,0,0-3.19-2.46,5.18,5.18,0,0,0-1.42-.19Z" transform="translate(72.01 178.85)"/><rect class="cls-6" x="72.01" y="178.85" width="470.4" height="836.27"/><path class="cls-4" d="M429.17-95.51a1.27,1.27,0,0,0-1.06.6,3.81,3.81,0,0,0-.37.76l-.06.14-.21.51-.13.31c-.36.84-.77,1.69-1.25,2.58s-1,1.77-1.54,2.6l-.4.63-.09.15c-1.06,1.69-2.16,3.44-3.18,5.2a56.08,56.08,0,0,0-2.76,5.5c-.93,2.09-1.83,4.22-2.75,6.4q-1.15,2.68-2.32,5.37c-.24.55-.49,1.09-.75,1.63l-.08.18-.32.67c-.37.79-.74,1.58-1.12,2.37-1.8,3.74-3.49,7.17-5.15,10.48L403-44.08c-.26.53-.54,1-.81,1.56l-.07.13-.41.78-1.28,2.47-.35.68-.18.32L399.27-37c-.5,1-1,2-1.44,3s-1,2.2-1.46,3.28l-.14.32-.5,1.16q-1.28,2.94-2.52,5.88c-.68,1.61-1.31,3.27-1.92,4.88l-.1.25c-.64,1.68-1.26,3.32-1.85,5l-.55,1.6L388.23-10c-.22.61-.4,1.24-.58,1.85l0,.08-.22.74a85.09,85.09,0,0,0-2.36,10.72c-.57,3.56-.86,7-1.18,11.22-.14,1.85-.22,3.74-.28,5.34,0,.28,0,.56,0,.84v.15c0,.57-.06,1.13-.06,1.7,0,1,0,2.08,0,3.13,0,3.92.15,7.6.33,11.23.09,2,.23,3.95.37,5.87V43c0,.63.1,1.22.17,1.82v.09c0,.26.05.53.08.79l.13,1.4.12,1.27.12,1.23c.15,1.52.3,3.13.49,4.7s.41,3.06.66,4.76l.12.82c.23,1.57.44,2.85.66,4l.57,3.12c.1.54.23,1.08.35,1.63l.15.63c.34,1.53.73,3,1.13,4.56l.34,1.28c.28,1.09.57,2.19.87,3.28l.1.33.25.9q.49,1.71,1,3.42c.45,1.62.87,3.24,1.29,4.87.29,1.11.55,2.24.8,3.34l.07.32.27,1.19c.32,1.43.6,3,.87,4.89a16.41,16.41,0,0,1,.1,2c0,.24,0,.47,0,.7a4.47,4.47,0,0,0-.56-.94,8.92,8.92,0,0,0-2-1.84c-.48-.32-1-.61-1.41-.85l-.51-.3c-.6-.36-1.24-.77-2-1.3a35.94,35.94,0,0,1-2.75-2.34c-1-1-2-1.95-3-2.94-.36-.36-.71-.74-1.06-1.11l-.06-.07-.47-.52c-.4-.41-.78-.84-1.16-1.28l-.41-.46c-.3-.34-.59-.67-.87-1-.5-.6-1-1.21-1.49-1.82l0,.09-.46-.65-1.15-1.53c-.18-.24-.35-.49-.53-.74l-.24-.35-.69-1-.28-.4c-.38-.55-.75-1.11-1.11-1.66l-.51-.78c-.46-.68-.91-1.37-1.36-2.06l-.27-.4c-.36-.54-.73-1.06-1.11-1.57l-.58-.82c-.36-.5-.75-1-1.13-1.46l-.07-.09-.16-.19a30.89,30.89,0,0,0-2.79-3,23.93,23.93,0,0,0-2-1.69l-.3-.23-1.05-.8c-.86-.66-1.76-1.3-2.48-1.81-.44-.31-.9-.59-1.37-.88l-.14-.09-.49-.3-1.32-.86-1-.65-2.16-1.39-.48-.31-1.69-1.09-2.3-1.43a7.67,7.67,0,0,0-.8-.43l-.37-.19c-.29-.16-.57-.3-.86-.44l-.53-.27a36.51,36.51,0,0,0-4.86-2L337.15,51l-.29-.1-1-.32c-1.32-.43-2.63-.94-4.19-1.57-.65-.31-1.35-.66-2-1.05s-1.66-1-2.46-1.48L327,46.3l-1.16-.73-1-.62c-.82-.52-1.71-1-2.47-1.43-1.19-.65-2.42-1.26-3.51-1.79l-1.15-.56L316,40.34l-.52-.26-2.63-1.3-.59-.29a38,38,0,0,1-4.21-2.26c-1.18-.78-2.35-1.58-3.74-2.54l-.92-.64c-1.21-.83-2.47-1.65-3.68-2.44l-.17-.11-.81-.53c-1-.63-1.93-1.25-2.9-1.87L294,26.9c-1.4-.92-2.82-1.82-4.24-2.72l-.5-.32q-2.33-1.47-4.63-3l-.9-.58-.07-.05c-1.2-.77-2.44-1.58-3.68-2.34-1.4-.86-2.85-1.7-4.26-2.51l-.25-.14c-2-1.16-4.05-2.34-6.07-3.52l-.28-.17-3.83-2.23c-1.26-.74-2.53-1.45-3.8-2.17l-.68-.38-.65-.36c-.56-.32-1.12-.64-1.7-.94l-.77-.4-.78-.4c-.29-.15-.61-.28-.91-.41l-.44-.19c-1.75-.76-3.57-1.4-5.33-2l-1-.36c-2.63-.93-5.27-1.88-7.91-2.83l-2-.75-.84-.31-1.26-.46L237-2.68c-.73-.27-1.46-.53-2.18-.82l-3.61-1.44-3.6-1.44C226-7.11,224.06-8,222.17-8.92c-1.71-.86-3.52-1.89-5.67-3.23l-.12-.08c-.85-.53-1.91-1.2-2.87-1.9L212.32-15l-1.19-.87-.85-.61c-.78-.57-1.56-1.14-2.33-1.72l-2.22-1.7-1.61-1.23a36.42,36.42,0,0,1-3.8-3.32,8.62,8.62,0,0,0-1.15-1.8,1.4,1.4,0,0,0-1.07-.44,1.64,1.64,0,0,0-1.07.44l-.11.09a1.52,1.52,0,0,0-.23,1.83l.07.12a8.28,8.28,0,0,0,.79,1.17c.25.67.48,1.4.66,2l0,.12c.25.78.46,1.59.65,2.3l0,.18c.58,2.17,1.11,4.28,1.59,6.23.34,1.37.64,2.82.89,4,.11.56.23,1.11.35,1.66.24,1.11.47,2.22.7,3.33l.1.46.21,1,.21,1a80.61,80.61,0,0,0,3.85,13.39c.7,1.77,1.37,3.3,2.06,4.67l1.18,2.37.58,1.16c.24.49.54,1,.78,1.38l.21.35.71,1.2,1.14,1.91c.16.28.37.59.57.87l.2.29c.35.53.71,1,1.08,1.56l.09.12c.78,1.09,1.62,2.16,2.42,3.16a59.48,59.48,0,0,0,6,6.39,58.38,58.38,0,0,0,6,4.75c2,1.44,4.17,2.75,6.25,4l.1.06.7.42q1.94,1.17,3.85,2.36l.49.31,1.85,1.13c2.8,1.72,5.74,3.44,9,5.25l2.12,1.18,1.38.77.5.28.17.1.95.52,6,3.14c.38.2.78.38,1.18.56l.57.26,3.74,1.73c1.31.61,2.69,1.15,3.91,1.62l1.35.53,2.13.85.64.25c.36.15.73.27,1.1.4l.12,0,.55.19,3.8,1.34,2.81,1,3.79,1.3,1.77.59c1.63.56,3.07,1,4.41,1.46l12.39,3.88c2.64.82,5.32,1.7,7.91,2.55l.79.26,1,.31,2.41.79,6.85,2.27q5.17,1.74,10.36,3.51c2.85,1,5.74,2,8.53,3l.93.32c1,.37,2.07.78,3.12,1.21l.29.12,1.82.73,3,1.21,2,.94,1.37.63,1,.44.1,0c.64.29,1.27.58,1.9.89l8.12,4c1.55.77,3.11,1.51,4.7,2.27l1.09.51,1.08.52c1,.46,1.77.82,2.53,1.15l2,.88.42.18,1.31.57c.41.17.79.35,1.16.54l.54.26c-.42,0-.84,0-1.27-.06h-.36c-.78,0-1.55-.08-2.32-.12l-.7,0c-.94,0-1.87-.12-2.8-.19l-.34,0c-.82-.06-1.65-.13-2.48-.18-1-.07-2-.1-3.09-.1-.76,0-1.57,0-2.41,0l-2.77.17c-.76,0-1.47.11-2.18.18l-.8.08c-.62.06-1.23.15-1.85.24l-.79.11c-.74.1-1.49.23-2.26.37l-.76.13-.68.12c-1.39.24-2.82.49-4.24.77-2.48.49-4.45.91-6.22,1.3-1.38.3-2.77.59-4.15.87l-.41.08-1.15.23c-.49.1-1,.16-1.48.22l-.62.07-2.5.35-1.44.1-1.44.11-.37,0-.3,0c-.51,0-1.15.09-1.76.1l-1.77,0h-3.08l-.83,0-1.73-.06c-1.26-.05-2.7-.1-4.1-.19l-1.84-.13c-1.32-.09-2.64-.18-3.95-.25l-3.48-.19-.66,0c-.53,0-1.06-.07-1.58-.08l-3.53,0h-.62l-1,0-.65,0-3.27.13h-.19l-1.73.08h-.15c-.18,0-.36,0-.53,0l-1.51.16-1.79.18-.88.09-1,.1-.29,0h-.09c-.24,0-.47,0-.7.08l-6,1c-.67.11-1.33.27-2,.42l-.09,0-.44.1c-1.08.26-2.2.57-3.64,1a50.66,50.66,0,0,0-7.43,2.91,46.86,46.86,0,0,0-6.67,4c-1.09.77-2.16,1.61-3.16,2.4-1.55,1.22-3.08,2.44-4.61,3.68l-2.32,1.89c-.47.38-.89.75-1.31,1.11l-.12.1-.58.5-.61.52c-1.21,1-2.3,2-3.37,2.92l-5.21,4.68-.75.71-.32.32-1.51,1.46-1.51,1.46-.56.54c-1.14,1.1-2.28,2.2-3.44,3.29l-4,3.76-2.08,1.94c-.29.28-.6.54-.91.79l-.39.34-1.22,1-2.48,2.13-.32.27c-2.62,2.25-5.33,4.58-8.13,6.75a68.23,68.23,0,0,1-6.21,4.18c-.94.55-1.92,1.05-2.87,1.54l-.07,0-.39.2q-.78.42-1.59.78a7.37,7.37,0,0,0-1.69,1l-.17.14a2.54,2.54,0,0,0-.68.71l-.06.11a1.58,1.58,0,0,0-.24.73,1.52,1.52,0,0,0,.25.75l.07.12a1.41,1.41,0,0,0,.64.54l.14.08a2.68,2.68,0,0,0,1,.29l.27,0c.25.05.5.08.76.11l1.6.18c3.76.36,7.57.64,11.32.82l.7,0c.54,0,1.09.06,1.63.07l3.62.06h3.49c.51,0,1,0,1.52,0l1.41,0c1.35-.05,2.87-.1,4.37-.19l.69-.05c1.71-.1,3.42-.2,5.12-.32l.87-.06c1.77-.12,3.36-.23,5-.38l.31,0c1.91-.18,3.78-.36,5.64-.58l3.3-.38c.54-.06,1.08-.14,1.61-.22l.74-.11,3.53-.51c.54-.07,1.07-.17,1.6-.27l.49-.09c1.42-.26,2.89-.57,4.37-.94,2.44-.6,4.86-1.45,7.19-2.27l1.32-.46c.44-.15.88-.34,1.31-.53l.23-.09.39-.18.78-.31,2.71-1.13c.39-.16.76-.34,1.13-.53l.13-.06.29-.14,1.9-.93,1.89-.92c1.27-.62,2.51-1.28,3.89-2l1.16-.62c1.51-.81,3.07-1.59,4.57-2.35l.26-.12,2.71-1.36c.47-.24.93-.44,1.38-.65l.66-.3,1.51-.69.18-.08c1.12-.52,2.23-1,3.36-1.53l3.08-1.36,3.11-1.38c3.06-1.29,6.36-2.68,9.76-4.07,1.29-.53,2.82-1.15,4.28-1.78l1.57-.68c1.18-.5,2.33-1,3.47-1.51l2-.92.18-.08,8.18-3.68c2.45-1.09,5-2.18,7.39-3.23l.25-.11,1.78-.77,5.3-2.23.12-.06c1.15-.48,2.3-.93,3.45-1.38l.17-.06,1.12-.45c1.57-.61,3-1.17,4.44-1.71l6-2.19,1.26-.43.09,0,.61-.21,1.58-.55L376,127c1.31-.46,2.63-.88,4.1-1.34l1-.32c1.33-.43,2.68-.83,4.06-1.23l1.21-.36c1.12-.33,2.24-.64,3.37-.94a66.61,66.61,0,0,1,7.44-1.55,46.38,46.38,0,0,1,5.76-.38c.72,0,1.41,0,2.05,0l3.94.22h.35c.39,0,.78.06,1.16.1l.54.06,1.15.11,1.29.13c.8.08,1.61.18,2.41.28l.16,0,.73.09.47.08c1,.17,1.91.33,2.86.51a36,36,0,0,1,6.85,1.72l2.62,1.14c.55.24,1.13.53,1.81.89a6.52,6.52,0,0,1,.65.42l.34.23.7.46c1.25.82,2.44,1.6,3.65,2.35s2.68,1.64,4.1,2.45c.6.34,1.22.68,1.86,1l.27.15,2.08,1,2.39,1.14.27.13,1.77.85,1.28.62.65.32,1.95.94.41.2c1.27.62,2.55,1.24,3.77,1.9.6.32,1.18.67,1.87,1.1s1.1.78,1.58,1.15l.18.13c.44.36.88.72,1.32,1.1a12.39,12.39,0,0,1,1.49,1.43,1.58,1.58,0,0,1,.16.27l.07.26v-.16a2,2,0,0,1,0,.55v0h0v0h0a1.21,1.21,0,0,1-.05.18l0,.09a2,2,0,0,1-.39.6l0,0,0,0h0l-.16.14-.16.15a4.38,4.38,0,0,1-.82.47l-.36.16-.09,0a11.25,11.25,0,0,1-1.62.46c-.46.1-.94.18-1.41.26l-.46.08c-1.23.22-2.35.4-3.41.55-.74.09-1.36.16-2,.19s-1.21.05-2.09.05c-1.09,0-2.25-.07-3.18-.12l-.57,0-.57,0-1.73,0h-.55c-.59,0-1.19,0-1.79.05s-1.16.05-1.75.1l-.86.06-.81.05-.23,0a5.07,5.07,0,0,0-.56.05l-.7.09c-1.12.15-2.29.3-3.44.51l-2.38.42-2,.35c-2.44.42-4.92.78-7.12,1.1l-1.58.23-4.69.61c-2.06.27-4.12.54-6.18.79l-1.41.18c-3.3.42-6.72.84-10.06,1.44l-1.31.23-.16,0c-1.36.24-2.77.48-4.13.8l-1.92.44-1.93.44-.41.09c-.51.12-1,.23-1.51.38l-1.75.5-1.75.51-.61.17-.14,0c-.45.13-.9.25-1.35.4l-6.06,2c-1,.33-2,.72-2.87,1.07l-.7.27c-1,.38-2,.82-3.22,1.33s-2.22,1-3.49,1.65l-.08,0c-.73.36-1.57.78-2.39,1.23l-5.92,3.26c-.28.15-.55.32-.83.48l-.15.09-.49.3-1.86,1.1-1.8,1.08-.07,0-1.87,1.11-.38.25-.19.13-.63.41-1,.69-1.23.79-.19.13c-1,.68-2.09,1.37-3.11,2.08l-.09.06-5.44,3.8c-.38.26-.75.54-1.11.82l-.6.45-1.64,1.22L333,186.62c-1.07.79-2.12,1.64-3.14,2.45l-.18.14-1.16.93c-1,.81-2,1.67-3,2.5l-.13.11-1.21,1c-.34.28-.67.58-1,.88l-.1.09-.5.44-1.44,1.29-1.44,1.29c-1,.87-1.93,1.76-2.89,2.65l-1.44,1.34c-1,.91-1.91,1.87-2.82,2.79-.34.36-.69.71-1,1.06L310,207.08l-.74.74-.69.75-.11.13-.34.39-.58.65-4.27,4.77c-.86,1-1.72,1.91-2.59,2.86l-.25.27-1.12,1.22-.5.55-1.05,1.14c-.34.39-.71.75-1.09,1.12l-.06.06-.3.3-.3.3q-4.57,4.63-9.16,9.24c-1.56,1.57-3.09,3.2-4.57,4.77-.87.93-1.75,1.87-2.64,2.79l-.79.83c-1,1.07-2,2.13-3.07,3.14l-1.26,1.22-3,2.88-.83.82-1.68,1.65-.49.49-.77.75-.17.17c-.13.12-.27.25-.39.38l-.79.87c-1.54,1.67-3.1,3.37-4.48,5.18l-1,1.26a6.63,6.63,0,0,0-.5.82,2.65,2.65,0,0,0-.25.75,1.66,1.66,0,0,0,.16,1.24,1.6,1.6,0,0,0,1,.74l.56.08.62-.09a3.19,3.19,0,0,0,.84-.28l.12,0,.16-.07,1.08-.44.24-.1.48-.21,4-1.64.9-.37,2.43-1,2.42-1,.13-.06.3-.12c.39-.17.79-.33,1.18-.51l2.28-1,2.28-1.06.9-.44.24-.13,1.29-.65,1.28-.65c.52-.26,1-.54,1.54-.81l.11-.06.15-.08c.45-.24.91-.49,1.37-.72l.22-.11c1.24-.63,2.48-1.26,3.74-1.81a37.14,37.14,0,0,1,3.91-1.32l1.28-.36,1.28-.35,1.17-.3.51-.11.61-.15c.46-.12.92-.23,1.39-.32l.4-.08c1.31-.25,2.61-.51,3.92-.74l.49-.09c.47-.09.93-.18,1.4-.24l1.33-.19,1.15-.16-.09,0c1.89-.21,3.74-.47,5.67-.78s3.67-.65,5.67-1c1.46-.3,3-.66,4.31-1l1.27-.3c1.53-.36,3.09-.69,4.6-1l.46-.1.6-.13q2.75-.58,5.49-1.2c1.84-.41,3.63-.9,5.45-1.41.65-.18,1.31-.4,1.88-.6l.65-.22c.74-.25,1.48-.54,2.19-.83l.09,0,.56-.23c1.6-.63,3.23-1.4,4.67-2.08l.41-.19,1.56-.76.14-.07.77-.39,1.57-.75.35-.17.83-.4,2.43-1.17L366,228c2-1,4-1.95,5.74-2.85L372,225c1-.49,1.93-1,2.91-1.44l.26-.13c.34-.16.67-.32,1-.47l1.61-.69q2.58-1.05,5.18-2.07l3.07-1.17c.72-.26,1.43-.53,2.14-.81s1.45-.55,2.16-.85l.85-.35.15-.06c.55-.23,1.1-.45,1.65-.7q2.7-1.23,5.4-2.49c1.5-.7,3-1.48,4.3-2.18l.8-.42c1.78-.93,3.51-1.94,5.27-3,.49-.29,1-.59,1.45-.9l.13-.08.61-.39c.74-.47,1.48-.94,2.21-1.42,1.74-1.14,3.48-2.26,5.22-3.39.44-.28.9-.55,1.35-.82l.08,0,.62-.36.32-.19c.62-.37,1.24-.74,1.87-1.09l2.78-1.57,2.78-1.57c3.27-1.84,6.21-3.64,9-5.49L447.52,184c.55-.37,1.11-.73,1.68-1.09l.73-.47.14-.09c.59-.38,1.18-.76,1.78-1.11l1.39-.82c1.29-.74,2.45-1.42,3.6-2.13l5.52-3.43.38-.24q2.1-1.34,4.22-2.64l4.53-2.84,2.89-1.82c.57-.36,1.13-.76,1.62-1.12l.25-.17.5-.36c.57-.4,1.13-.87,1.58-1.25l.64-.53a7,7,0,0,0,.57-.52l.26-.23.64-.59.64-.59c.21-.19.41-.41.6-.62l.29-.31.61-.65.47-.5c.18-.18.34-.38.51-.57l.25-.29.28-.32.06-.07c.29-.32.58-.65.84-1l.36-.48c.41-.55.85-1.13,1.24-1.71.63-.92,1.15-1.7,1.63-2.47l.31-.49.3-.48.67-.46.41-.27.4-.27a29.87,29.87,0,0,1,3.37-1.86l1.42-.7,1.72-.85c.94-.47,2-.93,3.33-1.51,1-.39,1.83-.71,2.62-1a31,31,0,0,1,3-.79l.43-.09.24-.06c.74-.16,1.48-.32,2.22-.5,1-.24,2-.42,2.88-.57l.33-.06c.71-.09,1.42-.16,2.13-.24h.1l1.1-.12c1.42-.16,2.66-.35,3.79-.59,1.9-.39,3.85-.68,5.74-1l1.32-.19.6-.08,2.52-.34c.87-.11,1.66-.21,2.46-.28,1.08-.09,2.15-.17,3.23-.24.42,0,.84,0,1.27,0h1.36c.36,0,.71,0,1.06,0l.49,0,.39,0h.1l.64,0h.13a.78.78,0,0,0,.73-.56A.82.82,0,0,0,541,139a.67.67,0,0,0-.44-.32l-.07,0c-.5-.09-1-.15-1.51-.2h-.08l-.21,0-.43-.05-.57-.07-.53-.08L536,138c-.82-.11-1.7-.2-3-.31-1.64-.15-3.43-.26-5.63-.35-1.94-.07-3.87-.16-5.81-.26-1.66-.08-3.42-.23-5.39-.47-1.69-.2-3.43-.31-5-.42l-.33,0c-1.31-.09-2.65-.13-3.94-.16h-.08l-1.19,0c-2.07-.05-4-.14-5.77-.29l-3-.27-.9-.09-.22,0-1.5-.15-1.08-.09h-.09c-1-.08-2-.17-3-.24-1.38-.11-3-.25-4.65-.46-.77-.12-1.56-.26-2.35-.43a17.21,17.21,0,0,1-2.42-.79l-.07,0-1.29-.53-.66-.22-.09,0-.37-.11-.5-.15-.28-.09c-.54-.16-1.09-.33-1.63-.52a19.86,19.86,0,0,1-3.69-2.12,9.21,9.21,0,0,1-.9-.87,11.19,11.19,0,0,1-.64-1.16,7.25,7.25,0,0,1-.29-1,2.76,2.76,0,0,1-.06-.4,21.47,21.47,0,0,1-.11-2.83c0-.89.11-1.77.23-2.82a20.73,20.73,0,0,1,.74-3.1l.06-.18c.37-1.1.76-2.24,1.19-3.32l-.1.16.39-.85c.19-.42.37-.84.56-1.25.37-.82.79-1.62,1.22-2.45l.09-.17c.59-1.15,1.21-2.29,1.82-3.43l.36-.66.54-1a24.76,24.76,0,0,0,2-4.65c.3-1,.51-2.07.7-3a31.72,31.72,0,0,0,.62-3.84c.07-.87.09-1.75.12-2.72l0-.71c0-1.17,0-2.34,0-3.51V83.68c0-1.93.06-3.86.1-5.79,0-1.55.08-3.36.17-5.18s.25-3.77.4-5.54c0-.25.05-.5.08-.76l0-.22.06-.56c.15-1,.31-2,.47-3s.33-2,.48-3c.18-1.23.33-2.47.48-3.71.09-.71.17-1.41.27-2.11l0-.3c.23-1.64.45-3.24.73-4.82.18-1,.36-2,.56-2.93s.38-1.61.56-2.33l.13-.51c.41-1.58,1-3.2,1.49-4.63l.13-.38.27-.74c.5-1.4,1.07-3,1.57-4.56.55-1.72,1.14-3.55,1.69-5.37l.14-.48a51.89,51.89,0,0,0,1.36-5.1c.46-2.27.8-4.62,1.1-6.69.19-1.33.39-2.67.6-4,.17-1,.33-2,.52-3s.4-1.74.61-2.53c.42-1.53.93-3.18,1.59-5.17s1.27-3.7,1.91-5.54l.07-.18c.57-1.64,1.15-3.28,1.7-4.92.68-2,1.24-3.78,1.73-5.42.56-1.9,1.15-3.81,1.74-5.7s1-3.43,1.39-4.89l.35-1.42.2-.79c.3-1.21.6-2.41.91-3.61.95-3.67,2.13-7.35,3.36-11.11.4-1.23.86-2.46,1.3-3.65l0-.16.48-1.32c.64-1.73,1.27-3.47,1.93-5.19q1.11-2.93,2.25-5.83l.67-1.68.2-.49c.35-.87.7-1.75,1-2.63,1.36-3.46,2.8-7.18,4.07-11,.56-1.66,1.1-3.34,1.63-5,.23-.7.42-1.39.62-2.09l0-.18c.14-.49.28-1,.41-1.49s.23-1.06.31-1.57a12,12,0,0,0,.06-1.56,1.54,1.54,0,0,0-.42-1,1.63,1.63,0,0,0-1-.42h-.09l-.39,0a1.24,1.24,0,0,0-.69.18,5.26,5.26,0,0,0-.79.62c-.23.22-.48.44-.74.65l-.29.25L519.3-86l-.3.25-.56.47c-.92.78-1.86,1.55-2.79,2.32l-.29.23-1.27,1c-1.51,1.24-2.86,2.35-4.18,3.52l-.66.57c-.5.43-1,.85-1.45,1.29l-1.26,1.2-1.28,1.23c-.41.39-.8.79-1.2,1.19l-.5.51-.13.13c-.55.57-1.12,1.14-1.65,1.74l-.62.69c-.42.47-.83.93-1.24,1.41l-2.11,2.49c-.87,1-1.72,2.1-2.55,3.13l-.24.29-.82,1c-.5.61-1,1.23-1.46,1.85l-.46.58c-.43.55-.87,1.1-1.29,1.67q-1.9,2.61-3.8,5.24c-.44.61-.88,1.23-1.31,1.85l-.57.8-.11.15c-.34.5-.69,1-1,1.5-1.14,1.73-2.27,3.46-3.38,5.21-.82,1.27-1.61,2.54-2.53,4.05l-.63,1c-.26.43-.52.88-.77,1.32l-.09.15-.18.33-.58,1-.09.15c-.28.49-.57,1-.84,1.49l-.53.94-.1.16c-.71,1.28-1.43,2.55-2.12,3.84-1,1.86-2,3.7-3,5.55l-.9,1.63c-.59,1-1.17,2.08-1.74,3.13-.83,1.53-1.65,3.15-2.43,4.81l-.32.67c-.28.59-.6,1.25-.87,1.92L461.68-7c-.23.54-.43,1.1-.63,1.65l-.05.13-.12.34-.29.8-.12.32c-.18.49-.36,1-.53,1.47-.81,2.29-1.49,4.26-2.08,6-.23.66-.43,1.33-.63,2l-.18.62c-.22.71-.43,1.42-.64,2.13l-.19.66c-.29,1-.57,2-.86,3-.2.74-.41,1.47-.63,2.2-.85,2.92-1.67,5.85-2.49,8.77l-.72,2.56-.24.86-.3,1.08-.18.65q-.18.66-.33,1.32c-.09.35-.17.69-.26,1l-.16.59-.08.32c-.4,1.51-.81,3.09-1.19,4.63-1,4.05-1.83,8-2.56,11.46L446,48.85l-.29,1.37c-.13.62-.24,1.26-.35,1.89l0,.21-.12.68c-.34,1.91-.66,3.79-.94,5.59s-.46,3.68-.6,5.33l-.05.46c-.07.75-.11,1.51-.16,2.26l0,.38,0,.32c0,.23,0,.46,0,.7V70A135.84,135.84,0,0,0,445,87.73l.14,1,.14.94.14,1.07c.05.32.11.64.17,1l.08.43c.36,2,.71,4,1.07,5.94.1.56.2,1.12.31,1.69l.16.9c.51,2.74,1.07,5.83,1.49,8.83a25.11,25.11,0,0,1,.21,5.54c0,.23-.08.46-.13.68a3.73,3.73,0,0,1-.18.67l-.08.13-.07.12-.1.1-.08.05-.07,0H448a4,4,0,0,1-.6-.18c-1.15-.54-2.31-1.14-3.43-1.8l-.36-.21c-.46-.27-.92-.54-1.36-.83l-.55-.35c-.41-.26-.8-.51-1.17-.78l-3.35-2.45a16.52,16.52,0,0,0-2.46-1.52c-.61-.29-1.22-.56-1.84-.83-.45-.19-.89-.37-1.34-.54l-.34-.14-.33-.12-.12,0-.23-.08-.32-.12a5.93,5.93,0,0,0-.71-.24c-.78-.23-1.44-.39-2.07-.52s-1.19-.21-1.78-.3c-1.08-.17-2.22-.29-3.14-.38l-.8-.09c-1.22-.12-2.44-.26-3.66-.4-.61-.1-1.19-.19-1.76-.34a21.09,21.09,0,0,1-2.15-.73,18.39,18.39,0,0,1-3.69-2.09c-.25-.21-.49-.43-.73-.65a3.8,3.8,0,0,1-.46-.52l-.07-.09c-.18-.26-.36-.52-.53-.79a6.2,6.2,0,0,1-.39-.77c-.13-.36-.25-.7-.36-1.06a6.56,6.56,0,0,1-.19-.88l0-.21a16.83,16.83,0,0,1-.12-1.81A14.29,14.29,0,0,1,407.7,93a13.37,13.37,0,0,1,.31-1.41c.16-.53.34-1,.55-1.6a22.48,22.48,0,0,1,1.23-2.19c.26-.41.53-.81.8-1.21l.08-.12c.22-.33.45-.66.67-1,.47-.73,1-1.49,1.41-2.27s.9-1.61,1.37-2.57A28.85,28.85,0,0,0,416,75.53a33,33,0,0,0,.93-5c.1-.89.16-1.73.2-2.56,0-.64,0-1.27.05-1.91l0-.68c0-1.86.1-3.68.2-5.41.06-1.23.16-2.47.26-3.68l0-.38.12-1.36c0-.53.07-1.06.11-1.6.07-1.06.15-2.38.31-3.64l.09-.65.09-.66c.27-1.79.58-3.52.89-5.28.16-.93.35-1.85.53-2.77l.08-.41c.12-.63.25-1.25.36-1.88.21-1.16.41-2.32.61-3.48l0-.15c.38-2.23.78-4.54,1.28-6.79l0-.21c.17-.77.35-1.58.56-2.37s.49-1.7.79-2.63l.08-.26c.42-1.32.94-2.64,1.45-3.91l.36-.91c.78-2,1.47-3.92,2-5.39.29-.83.59-1.66.89-2.48.36-1,.69-2,1-3,.54-1.61,1.07-3.31,1.61-5.21a56.25,56.25,0,0,0,1.37-5.72,40.32,40.32,0,0,0,.48-7.56c0-1.78-.11-3.57-.21-5.31V-18c-.08-1.48-.22-3-.35-4.42l-.11-1.14v-.12L432-25.33c-.11-1.25-.22-2.48-.35-3.69l-.09-.75-.07-.68c-.36-3.12-.71-6.24-1.09-9.36l-.19-1.59c-.17-1.3-.34-2.61-.47-3.92-.2-2-.36-3.93-.48-6-.22-3.8-.24-7.57-.23-11.07v-1.42c0-3.06,0-6.53.12-9.92.08-2.35.16-4.47.26-6.48.09-1.83.22-3.74.32-5.27l0-.68c.1-1.41.19-2.68.32-4,.09-.78.17-1.56.26-2.33,0-.36.08-.73.1-1.1v-.13l0-.34a1.75,1.75,0,0,0-.21-.79,1.16,1.16,0,0,0-.5-.48,1.21,1.21,0,0,0-.61-.16Zm47.62,65.17,2.51-4.37c.72-1.24,1.5-2.48,2.25-3.67l.05-.09.75-1.18c.82-1.32,1.7-2.69,2.71-4.2l1.52-2.28.14-.2c.37-.57.77-1.12,1.16-1.67l.12-.17.63-.9c1.35-1.91,2.74-3.8,4.18-5.74l.79-1.08.26-.33.25-.32c.84-1.07,1.68-2.14,2.53-3.2l.77-1c.81-1,1.67-2.07,2.52-3.08l2-2.4c.42-.5.86-1,1.3-1.48l.56-.62c.48-.54,1-1,1.54-1.63l.52-.53.17-.18c.37-.37.74-.75,1.12-1.11l2.32-2.21.15-.14c.43-.42.9-.83,1.36-1.23l.47-.41c1.22-1.08,2.53-2.2,3.89-3.32l.64-.53q1.86-1.52,3.7-3.05l.87-.74.34-.29.61-.52c-.12.32-.21.66-.31,1l-.06.21-.18.6c-.23.79-.49,1.58-.74,2.35l-.16.46-.1.32-.06.19c-.48,1.45-1,3-1.5,4.4-1.52,4.13-2.82,7.51-4.08,10.63-1.66,4.09-2.93,7.29-4.19,10.59-1.39,3.67-2.74,7.26-3.93,10.88l-.25.74,0,.08c-.19.55-.37,1.1-.54,1.66l-.42,1.4-.61,2c-.5,1.66-.94,3.38-1.37,5l0,.08-.09.34c-.17.68-.34,1.35-.5,2l0,.11,0,.17c-.23.95-.46,1.89-.72,2.83-.44,1.6-1,3.39-1.66,5.64-.27.85-.51,1.7-.76,2.55s-.47,1.62-.72,2.43c-.59,1.94-1.2,3.79-1.77,5.52-.4,1.18-.81,2.35-1.22,3.53l-.16.46-.53,1.53c-.56,1.6-1.1,3.26-1.67,5.06-.63,2-1.12,3.78-1.51,5.43s-.65,3.5-.89,5.22l0,.23q-.37,2.75-.77,5.49l-.07.5c-.1.68-.2,1.37-.31,2.06-.16,1-.37,2-.54,2.76-.06.27-.13.55-.21.82l0,.11-.09.32c-.09.36-.18.72-.28,1.07L488,26l-.53,1.84c-.52,1.77-1.08,3.67-1.68,5.58L485,35.79l0,.17a72.63,72.63,0,0,0-2.26,7.83c-.19.92-.37,1.85-.55,2.79-.13.73-.23,1.49-.33,2.22l0,.15-.07.58c-.25,1.83-.47,3.66-.65,5.41-.07.72-.14,1.44-.2,2.16l0,.35c-.09.91-.17,1.81-.27,2.72s-.22,1.81-.34,2.72l-.06.47c-.09.72-.18,1.43-.26,2.15-.19,1.71-.28,3.38-.35,5.22-.09,2-.12,4.08-.14,5.62,0,2.28,0,4.6,0,6.78,0,1.38,0,2.74,0,4.11,0,.91,0,1.82,0,2.74a31.16,31.16,0,0,1-.21,3.53c-.16,1.08-.39,2.18-.61,3.23l0,.14a24.3,24.3,0,0,1-1.28,4.19c-.17.37-.34.74-.52,1.1l0-132.54,0,0Z" transform="translate(72.01 178.85)"/></g></g></g></svg>