<svg xmlns="http://www.w3.org/2000/svg" xmlns:xlink="http://www.w3.org/1999/xlink" viewBox="0 0 729.55 950.94"><defs><style>.cls-1{fill:none;}.cls-2{clip-path:url(#clip-path);}.cls-3{fill:#faa381;}.cls-4{fill:#ffd27d;}.cls-5{fill:#244431;}.cls-6{fill:#16391b;}.cls-7{fill:#f7e1d3;}.cls-8{fill:#16401b;}</style><clipPath id="clip-path" transform="translate(174.12 42.06)"><rect class="cls-1" width="470.63" height="836.67"/></clipPath></defs><g id="Layer_2" data-name="Layer 2"><g id="ëÎÓÈ_1" data-name="ëÎÓÈ 1"><g class="cls-2"><rect class="cls-3" x="174.12" y="42.06" width="470.63" height="836.67"/><path class="cls-4" d="M252.75-33.71l-.3,1.48-.35,1.74c-.55,2.64-.92,5.37-1.29,8.06l-.15,1.07,0,.23V-21c-.19,1.31-.38,2.67-.61,4l-.21,1.23,0,.08c-.18,1.08-.37,2.18-.6,3.27l-.2,1c-.41,2-.87,4.17-1.48,6.27A73.77,73.77,0,0,1,243.24,6c-1.41,3-2.76,5.58-4.13,7.9l-1.6,2.71-1.6,2.7c-.51.88-1.08,1.76-1.57,2.53l-.53.84-3,4.68c-.18.29-.39.57-.61.87l-.3.39-1.34,1.84-.56.77-.76,1-.17.25-1.54,2.1-1.25,1.65-.45.6c-1.26,1.65-2.56,3.37-3.81,5.1l-1.26,1.77c-1.53,2.15-3.12,4.37-4.75,6.49l-2.83,3.68-.58.75c-.71.92-1.49,1.84-2.17,2.64l-.35.41c-.23.27-.46.54-.68.82q-2.18,2.59-4.36,5.18l-.07.09-1.61,1.9-1.78,2.12L197.82,70c-.75.89-1.5,1.73-2.34,2.66-2.83,3.12-5.15,5.67-7.32,8L187,81.93l-.2.22c-1.48,1.6-3,3.25-4.47,4.92l-.86,1c-.79.89-1.57,1.78-2.34,2.69l-3.61,4.34-.22.26-.48.57-.64.77,3.34,3.53.53.55,3.4,3.6.89.94.29.3c1.12,1.17,2.28,2.39,3.35,3.67s2.42,2.94,3.53,4.57a41.31,41.31,0,0,1,3.32,5.72,47.24,47.24,0,0,1,1.95,4.8,37.81,37.81,0,0,1,1.19,4.12c.23,1,.42,2.16.65,3.64l.22,1.5.23,1.51c.3,2,.61,4.05.91,6.07.24,1.66.52,3.44.84,5.16l.18,1c.12.66.24,1.32.38,2l.75,3.52c.27,1.29.58,2.6.88,3.88l.07.28.38,1.63c.3,1.26.58,2.53.86,3.8l.35,1.6c.55,2.46,1.05,4.94,1.61,7.7l.15.72c.18.9.36,1.8.55,2.7.85,4.1,1.62,7.79,2.49,11.46l.07.29c.19.8.38,1.59.59,2.38l.18.71c.17.66.34,1.32.54,2l.14.47c.25.83.5,1.67.78,2.5l.45,1.39.46,1.39c.42,1.28.81,2.57,1.2,3.85l.43,1.39c.32,1,.65,2.08,1,3.13l.14.45.07.21c.19.6.37,1.19.58,1.78l.18.52c.26.75.52,1.5.8,2.25s.62,1.64.95,2.47l.1.25c.17.43.35.85.53,1.28l.2.48.21.5.08.2c.33.79.65,1.59.95,2.37l.12.3v0l0-.1,0,0v0l.58,1.35.12.28c.43,1,.87,2,1.28,3l.5,1.23.15.37c.46,1.13,1,2.4,1.44,3.63l.65,1.72c.47,1.24.93,2.47,1.39,3.71.23.64.46,1.26.71,1.94.45,1.21.91,2.42,1.34,3.63l2.1,5.94c.13.38.25.76.37,1.15l.05.16.05.18.54,1.73.55,1.73c.47,1.52,1,3.15,1.45,4.84l.25.85c.42,1.44.79,2.74,1.12,4l.37,1.41c.36,1.36.71,2.73,1,4.09.17.72.34,1.44.52,2.15l.13.58c.28,1.15.56,2.3.82,3.46l.14.61,1.25,5.5c.29,1.31.56,2.65.81,4s.42,2.57.57,3.76c.17,1.47.31,2.83.43,4.15l.07.78,0,.16c.05.64.11,1.28.14,1.93.07,1.4.13,2.79.19,4.19l2.45.4a15.23,15.23,0,0,0,1.51.21l7.61.65,1,.08,1,.09c.46,0,.93.05,1.4.06h.67l3.74.15,3.73.14H264l4.07,0h2.21c.94,0,1.87,0,2.8,0l2.57-.07,4.5-.11c1.76-.05,3.55-.21,5.28-.36l.6-.06c3.15-.28,6.24-.78,8.58-1.19,2.12-.37,4.25-.86,6.31-1.32l1.36-.31c2-.46,4-.95,5.7-1.37l1-.24c3.25-.82,6.61-1.66,10-2.3l1.34-.25c1.31-.26,2.63-.51,3.95-.74l1.34-.24,4.51-.8c3.94-.72,7.88-1.46,11.82-2.19,1.45-.27,2.91-.56,4.36-.85l1.7-.33c1.37-.27,2.74-.5,4.11-.74l2-.35c1.3-.24,2.63-.43,3.91-.62l1.42-.2,5.46-.8,1.72-.23c1.16-.16,2.36-.32,3.53-.52l.22,0,6.85-1.15,1.92-.32,3.28-.55c.39-.06.78-.15,1.17-.22l.61-.13,4.53-.88,1.43-.27c1-.19,2.13-.39,3.18-.64l3.54-.85.86-.2c.59-.13,1.17-.27,1.76-.43l2.78-.79,3.59-1c1.32-.37,2.65-.79,3.94-1.19l1.56-.47c1.49-.46,2.95-.93,4.46-1.45l3.71-1.28c1.57-.53,3-1.13,4.81-1.85a61.8,61.8,0,0,0,6.28-3c2.05-1.13,4-2.37,6.31-3.9,1.3-.85,2.58-1.79,3.81-2.68.82-.59,1.63-1.19,2.45-1.76.56-.39,1.12-.77,1.69-1.14l.8-.54,1.46-1c1-.69,2-1.4,3.08-2.06l2.77-1.76,2.76-1.75,1.28-.78.69-.4,1.76-1.06,1.73-1c1.48-.9,3-1.84,4.3-2.68l1.7-1.07,1.64-1,.41-.25c.31-.19.63-.39.93-.6l5.64-3.93.27-.18c2.82-2,5.23-3.74,7.37-5.43a118.17,118.17,0,0,0,9.42-8.42c3-3,6.1-6,9.14-9.08.34-.33.66-.68,1-1l.42-.45,2.42-2.6c.9-1,1.79-2,2.68-3l1.34-1.49c.3-.34.63-.66.95-1l.19-.19,2.72-2.7c1.11-1.11,2.3-2.18,3.44-3.21l1-.94c1.26-1.15,2.54-2.28,3.82-3.41l1-.92c1.09-1,2.24-1.9,3.35-2.8l1.24-1,3.53-2.59c.22-.16.44-.31.67-.45l.31-.2,2.3-1.5.08,0c.7-.47,1.41-.92,2.12-1.38l.92-.59.88-.57c.8-.52,1.6-1,2.41-1.53l1.07-.66,1-.63c.42-.26.86-.49,1.3-.72l.52-.29c1.13-.62,2.28-1.21,3.43-1.8l.12-.07.41-.21c2.15-1.12,4.36-2.27,6.41-3.61a.76.76,0,0,0,.27-1,.79.79,0,0,0-.66-.37.63.63,0,0,0-.36.1c-.63.42-1.28.83-2,1.26V-33.71Z" transform="translate(174.12 42.06)"/><path class="cls-4" d="M-163.23-33.71l0,134.37-2.59-4.33-.42-.71-.5-.82L-168,92.73c-.77-1.27-1.63-2.51-2.45-3.72-.29-.41-.58-.83-.86-1.25a1.64,1.64,0,0,0-1.33-.74,1.49,1.49,0,0,0-.73.2,1.56,1.56,0,0,0-.72,1,1.32,1.32,0,0,0,.18,1.05c.29.43.58.86.88,1.28.74,1.07,1.5,2.17,2.18,3.3l1.08,1.81,2.15,3.6,2.28,3.81,2.69,4.51c.89,1.49,1.7,3.07,2.49,4.59l.6,1.16c1.27,2.44,2.76,5.27,4.36,8,1.12,1.88,2.45,4.09,3.87,6.2a45.58,45.58,0,0,0,4.09,5.1,52.88,52.88,0,0,0,5.49,5.12,58.08,58.08,0,0,0,6.53,4.65A65.54,65.54,0,0,0-128.5,146c2.08,1,4.26,1.83,6.38,2.64l.08,0c2.33.9,4.78,1.77,7.27,2.6,1.87.61,4.09,1.33,6.33,2l3.36.94,3.37,1,1.35.39c1.07.31,2.17.63,3.27.88l3.39.77,3.4.77,3.59.81.52.13c.37.08.73.17,1.09.23l6.19,1.08,6.2,1.08c1,.18,2.08.33,3.12.48l1.64.25,3.72.56,3.59.55c1,.15,1.94.34,2.89.52l1.11.22c2.49.47,5,1,7.52,1.66A105.41,105.41,0,0,1-35,170.22c5.31,2.29,10.53,5,15.57,7.61l1.57.82.92.47c.85.43,1.71.87,2.56,1.33l3.51,1.93,3.52,1.93c6.35,3.48,12.69,7.26,18.81,10.9l1.63,1,.92.55c.85.5,1.69,1,2.52,1.52l3.4,2.15,3.29,2.08c2.78,1.75,5.64,3.51,8.39,5.21l1.86,1.14c2.47,1.53,5,3,7.5,4.45l2.7,1.56c2.21,1.29,4.43,2.64,6.58,3.94l3,1.82c1.09.65,2.17,1.32,3.24,2l1.79,1.1,1.19.74c1,.62,2,1.26,3.07,1.86l3,1.7c2.36,1.36,4.79,2.77,7.22,4.1l2.2,1.21L78,235c.3-.68.61-1.35.91-2l0-.09.22-.49.87-1.93c.17-.37.35-.73.54-1.09l.07-.14.2-.39.77-1.53.76-1.53c.56-1.12,1.13-2.24,1.7-3.36,1.72-3.38,3.4-6.75,4.82-9.6.49-1,1-2,1.54-3l.12-.22.17-.32.8-1.52.79-1.49c.09-.16.17-.33.25-.5.17-.33.35-.68.54-1l1.43-2.34L96,200l.79-1.31.3-.5c.15-.24.32-.47.49-.7l.18-.25.08-.11L98,197l3.33-4.74c.23-.32.48-.63.74-.93l.29-.36,1.49-1.83c1.05-1.4,2.63-3.51,4.2-5.66l.7-1,.07-.09c.47-.66.95-1.34,1.45-2l2.2-2.88.27-.35.27-.35c.4-.54.8-1.07,1.23-1.59l1.4-1.7,1.36-1.66q1.43-1.74,2.82-3.5l1.14-1.41.93-1.35.08-.12c1-1.5,2.11-3,3.12-4.64l.32-.49a26.26,26.26,0,0,1,.92-2.5c.12-.27.25-.54.38-.81l.12-.23a1.25,1.25,0,0,1,.73-.71.85.85,0,0,1,.26,0,.53.53,0,0,1,.26.06c.54-.85,1.07-1.7,1.6-2.55,2.61-4.17,5.4-8.32,8.26-12.55,3-4.41,6.11-9,9.28-13.59.34-.5.72-1,1.08-1.46l.09-.13.43-.55,2.9-3.83c1-1.3,2-2.58,3-3.83l.48-.6.74-.93.07-.09,2.29-3.06,1.15-1.54,2-2.64c.55-.74,1.13-1.46,1.71-2.19l.94-1.2L166,103l1.91-2.44c.51-.65,1.06-1.3,1.59-1.92l.1-.12.78-.91q3.42-4.09,6.86-8.18c1.82-2.15,3.71-4.25,6-6.74L190,75.35l2.18-2.41.2-.23,1.13-1.27.47-.52c.71-.79,1.35-1.5,2-2.25,4.13-4.94,8.51-10.2,12.77-15.4l4.42-5.82c.34-.44.65-.89,1-1.34l.38-.55,1.47-2.07,1.47-2.07c1.25-1.76,2.55-3.51,3.81-5.2l.06-.07c1.1-1.47,2.19-2.94,3.27-4.43l2.89-4,.38-.51c.29-.4.6-.82.88-1.25L233,19c.84-1.34,1.65-2.73,2.45-4.11L236.59,13c.66-1.13,1.36-2.34,2-3.63,1.31-2.52,2.47-4.93,3.52-7.37.74-1.79,1.58-3.88,2.23-6l0-.13c.48-1.55,1-3.15,1.32-4.74l.91-4.3c.53-2.5.91-5,1.28-7.41.17-1.16.34-2.32.5-3.47l.1-.69v-.1l0-.24c.14-1,.29-2.05.47-3.08l.16-.89c.16-.85.31-1.71.49-2.56L250-33l.14-.68Z" transform="translate(174.12 42.06)"/><path class="cls-5" d="M26.29,725.71l-6.18,8-3.25,4.39-2,2.71c-.9,1.22-1.85,2.44-2.77,3.61l-.23.3-1.26,1.59c-.43.59-.88,1.18-1.32,1.77-1.21,1.59-2.45,3.23-3.6,4.91l-1.14,1.69c-1.33,2-2.66,3.9-4,5.86q-2.78,4.14-5.53,8.29c-1.92,2.88-3.74,5.69-5.11,7.81-.81,1.27-1.61,2.55-2.42,3.84S-14,782.81-14.72,784l-.59.92c-.5.81-1,1.66-1.59,2.46l-.42,1.43-.43,1.45c-.28.94-.57,1.87-.86,2.76-.26,1.23-.48,2.45-.68,3.58a29.94,29.94,0,0,1-.95,4c-.29.91-.61,1.8-1,2.78l-.25.67c-.44,1.25-.78,2.3-1.06,3.32a36.85,36.85,0,0,0-.79,4,31.38,31.38,0,0,0-.21,4v1.17l0,2.71c0,2.26-.06,4.69-.2,7.43-.08,1.66-.18,3.31-.29,4.95-.07,1.1-.19,2.25-.29,3.17l-.1,1c-.18,1.77-.47,3.62-.71,5.1l-.07.47c-.1.62-.19,1.25-.29,1.88v.09l-.09.73,0,.24c-.22,1.7-.45,3.46-.73,5.17l-.28,1.77-.78,4.93c-.11.73-.23,1.46-.35,2.19l-.1.62-.07.41c-.2,1.28-.41,2.57-.6,3.85l-.05.35c-.15,1-.31,2.06-.47,3.15l-.57,3.74-.09.55h0V871c-.09.65-.17,1.31-.23,1.95,0,.46,0,.92,0,1.38v1.11c0,.62,0,1.25,0,1.87v.08l2.67,1.43c2.41,1.3,4.84,2.67,7.18,4l2.75,1.55,3.13,1.72,1.61.88,1.22.67c1.11.61,2.21,1.22,3.33,1.81L-3,892l1.67.88.87.45.88.46c.51.27,1,.52,1.57.76l.78.35L9.22,898c.39.18.78.34,1.18.5l.24.1,1.89.78,1.91.79,3.66,1.51.4.17c.33.14.66.28,1,.4L23,903.43l3.49,1.21c1.22.43,2.52.88,3.84,1.28l1.68.51,6,1.81c.81.24,1.63.45,2.44.64-.29-3.54-.61-7.08-.93-10.62l-.08-.87c-.31-3.51-.62-7-.91-10.55-.21-2.49-.39-5-.56-7.48v-.11L37.91,878l-.18-2.61-.1-1.26c-.09-1.38-.19-2.77-.31-4.15-.09-1.07-.17-2.14-.26-3.27l-.18-2.46q-.26-3.15-.54-6.3l-.1-1-.08-.89c-.12-1.15-.23-2.31-.32-3.47-.27-3.27-.53-6-.8-8.6-.11-1-.22-2-.34-2.93v.2c-.29-2-.6-4.23-1-6.38-.14-.79-.28-1.58-.43-2.37-.18-1-.4-2.19-.57-3.33l-.09-.61-.08-.54c-.11-.75-.23-1.5-.32-2.25l0-.29-.36-2.85c-.09-.69-.15-1.38-.22-2.08l-.07-.85c-.09-.83-.15-1.66-.22-2.49s-.15-1.94-.22-2.91-.12-1.79-.19-2.68-.13-1.57-.2-2.35v-.09c-.09-1.11-.19-2.21-.27-3.32l0-.74c-.14-1.81-.27-3.61-.38-5.43,0-.56-.07-1.12-.11-1.69-.06-1.18-.12-2.33-.23-3.48l0-.22c-.32-3.42-.69-7.3-1.17-11q-.48-3.27-.94-6.54c-.13-.95-.28-1.9-.42-2.86l-.08-.46c-.11-.76-.23-1.52-.34-2.27l-.21-1.36c-.08-.56-.17-1.13-.25-1.7s-.22-1.53-.27-2.35c-.12-1.75-.18-3.57-.19-5.9,0-.77,0-1.56.06-2.25l0-.84.09-2.44c0-.33,0-.65,0-1,0-.7,0-1.4.08-2.09,0-.44.06-.89.09-1.37l.08-1.12c.25-3.78.31-7.61.34-11.18v-1.42c0-1.25,0-2.56.09-3.83.05-.73.14-1.47.24-2.22l.07-.52c.07-.61.16-1.21.24-1.82l.07-.48.17-1.28,0-.26c.07-.51.13-1,.21-1.53,0-.11,0-.22.05-.33-.5.6-1,1.21-1.49,1.83Z" transform="translate(174.12 42.06)"/><path class="cls-6" d="M251.8-36.62a1.27,1.27,0,0,0-1.26.94L250-33l-.29,1.43c-.18.85-.33,1.71-.49,2.56l-.16.89c-.18,1-.34,2.12-.47,3.08l0,.24,0,.1-.1.69c-.16,1.15-.33,2.31-.5,3.47-.37,2.41-.75,4.92-1.28,7.41l-.92,4.3c-.34,1.6-.83,3.19-1.31,4.74l0,.13c-.65,2.13-1.49,4.22-2.23,6-1.05,2.44-2.21,4.85-3.53,7.37-.67,1.29-1.37,2.5-2,3.63-.38.63-.74,1.27-1.11,1.91-.8,1.38-1.61,2.77-2.45,4.11L228.69,26c-.27.43-.59.85-.89,1.25l-.37.51-2.9,4c-1.07,1.49-2.16,3-3.26,4.43l-.05.07c-1.27,1.69-2.57,3.44-3.82,5.2l-1.47,2.07-1.47,2.07-.38.55c-.32.45-.63.9-1,1.34l-4.42,5.82c-4.26,5.2-8.64,10.46-12.77,15.41-.62.74-1.26,1.45-2,2.24l-.47.52-1.13,1.27-.2.23L190,75.35c-2.28,2.48-4.53,4.9-6.76,7.33s-4.17,4.59-6,6.74q-3.43,4.1-6.86,8.18l-.78.91-.1.12c-.53.62-1.08,1.27-1.59,1.92L166,103l-1.92,2.44-.94,1.2c-.58.73-1.16,1.45-1.71,2.19l-2,2.64L158.28,113,156,116.06l-.07.09-.74.93-.48.6c-1,1.25-2,2.53-3,3.83l-2.9,3.83-.43.55-.09.13c-.36.47-.74,1-1.08,1.46-3.17,4.61-6.3,9.18-9.28,13.59-2.86,4.23-5.65,8.38-8.26,12.55-.53.85-1.06,1.7-1.6,2.55a.53.53,0,0,0-.26-.06.85.85,0,0,0-.26,0,1.22,1.22,0,0,0-.73.71l-.12.23c-.13.27-.26.54-.38.81a26.26,26.26,0,0,0-.92,2.5l-.32.49c-1,1.59-2.08,3.14-3.12,4.64l-.08.12-.93,1.35-1.14,1.41c-.93,1.17-1.87,2.35-2.82,3.5l-1.36,1.66-1.4,1.7c-.43.52-.83,1.05-1.23,1.59l-.27.35-.27.35-2.2,2.88c-.5.65-1,1.33-1.45,2l-.07.09-.7,1c-1.56,2.15-3.15,4.26-4.2,5.66L102.33,191l-.29.36c-.26.3-.51.61-.74.93L98,197l-.09.13-.08.11-.18.24c-.17.24-.34.47-.49.71l-.3.49L96,200l-1.45,2.39-1.43,2.34c-.19.32-.37.67-.54,1-.08.17-.16.34-.25.5l-.79,1.49-.8,1.52-.17.32-.12.22c-.52,1-1,2-1.55,3-1.41,2.85-3.09,6.23-4.81,9.6-.57,1.12-1.14,2.24-1.7,3.36l-.76,1.53-.77,1.53-.2.39-.07.14c-.19.36-.37.72-.54,1.09l-.87,1.93-.23.49,0,.09c-1.41,3.12-2.88,6.33-4,9.6a58.54,58.54,0,0,0-2,7.55c-.12.52-.23,1-.35,1.56l0,.18c-.23,1-.47,2.1-.66,3.15-.65,3.5-1.22,6.84-1.71,9.7-.53,3.13-1,6.19-1.29,9.09-.17,1.47-.33,3-.5,4.42s-.28,3.25-.37,4.7l0,.47c-.23,3.37-.34,6.8-.41,9.41l-.12,3.91v.09l-.09,3.2,0,.47c0,.4,0,.8,0,1.2L67,304.51l-.2,2.85c-.08,1-.18,2.08-.28,3.12l-.12,1.31c-.32,3.43-.66,6.86-1,10.29-.18,1.87-.38,3.74-.57,5.61l-.14,1.43-.26,2.46c-.09.91-.16,1.82-.23,2.72l-.1,1.26-.08.81-.07.81c-.1,1.14-.2,2.29-.28,3.44-.19,2.84-.44,6.59-.64,10.43l-.11,2v.21c-.11,2.22-.23,4.52-.31,6.78-.06,1.73-.11,3.46-.17,5.19l-.05,1.38c0,1-.07,2-.09,2.93l0,1.61v.68c0,2.64-.07,5.27-.08,7.91q0,5.2,0,10.42c0,.87,0,1.75,0,2.63v1.72c0,1.23,0,2.49.08,3.57l0,.86,0,.85c.13,5.17.47,10.42.79,15.49l.09,1.38c.06.89.12,1.79.17,2.68.11,1.82.17,3.66.22,5.55,0,.69,0,1.37.06,2.06.07,2.48,0,5,0,7.37v.18q-.11,9.34-.25,18.7c0,1.87,0,3.81,0,5.53v.76l0,1.31,0,1.76,0,1.76c0,.33,0,.66,0,1l0,.45.08,1.66.09,1.66c.11,2.28.31,4.75.62,7.55.23,2.12.53,4.26.83,6.33l0,.1.22,1.54.49,4,.87,7c.48,3.94,1,8,1.54,11.53V507c.26,2.1.69,5.34,1.22,8.88.12.8.25,1.61.37,2.41l.09.55.21,1.3c.14.91.26,1.82.38,2.74l.13,1c.34,2.93.6,5.4.81,7.77.14,1.44.23,2.91.33,4.33l0,.65c0,.74.1,1.48.16,2.22.16,2.07.4,4.16.64,6.19l.12,1.06q.42,3.57.86,7.14c.3,2.42.61,4.78,1.06,7.07a50.72,50.72,0,0,0,1.41,5.39c.09.31.2.61.3.91l.42,1a3.51,3.51,0,0,0,.81,1.06,3,3,0,0,0,2,.82H80a2.46,2.46,0,0,0,1.25-.33,3.07,3.07,0,0,0,1.12-1c.42-.62.81-1.28,1.18-1.91l.05-.07c.23-.39.45-.77.69-1.15.47-.77,1-1.56,1.65-2.42,2-2.36,4.05-4.65,6.06-6.87l.38-.42c1.7-1.87,3.5-3.71,5.24-5.48l1.7-1.74,1.44-1.49.74-.76.87-.9.82-.84.83-.87c.31-.31.6-.67.84-1l.41-.48,1-1.23,1.06-1.23.32-.37c.21-.24.41-.47.6-.71l3.2-4.12a84.58,84.58,0,0,0,6.71-10.21,80.16,80.16,0,0,0,5.69-11.95A67,67,0,0,0,127,499.67c.34-2,.54-4.13.69-5.92.09-1,.13-2,.17-3v-.26c.05-1,.1-2.22.06-3.37v-.16c-.08-1.84-.15-3.69-.23-5.54,0-1.35-.17-2.75-.27-4l0-.23-.12-1.43c-.08-1-.15-1.92-.25-2.88-.07-.59-.13-1.19-.19-1.78-.11-1.11-.22-2.22-.36-3.32l-.18-1.37c-.22-1.75-.45-3.51-.69-5.26-.13-.9-.27-1.8-.4-2.69-.19-1.24-.37-2.43-.54-3.63q-.65-4.77-1.34-9.53l-.41-2.91-.06-.53c-.12-1-.26-2.37-.36-3.62-.11-1.54-.21-3.16-.31-5.26-.13-2.54-.18-5.18-.22-7.51l0-2.3c0-2.14,0-4.35.11-6.29,0-.93.07-1.85.09-2.78.09-3.64.17-6.68.3-9.81l.08-2c.08-2.33.17-4.72.35-7.07q.33-4.59.71-9.2c.27-3.35.55-6.71.85-10.06.1-1.12.21-2.23.33-3.35l0-.45c.18-1.75.37-3.55.5-5.35.16-2,.27-4.07.39-6.34.07-1.21.13-2.38.2-3.56.2-3.3.35-6.08.42-8.91l0-.77c.06-2.65.13-5.65.11-8.59,0-3.16-.09-6.38-.24-9.86-.06-1.23-.16-2.46-.29-3.92l0-.17c-.16-1.69-.32-3.44-.56-5.16l-.09-.69,0-.15c-.06-.4-.11-.81-.18-1.21l-.24-1.28-.23-1.28c-.07-.42-.15-.84-.23-1.26l-.12-.64-.09-.5c-.13-.7-.26-1.4-.38-2.1l-.08-.4,0-.11c-.54-3.06-1.1-6.22-1.82-9.29-.49-2.1-1-4.25-1.52-6.15-.24-.95-.48-1.9-.71-2.84-.36-1.43-.67-2.9-1-4.32l0-.12-.27-1.23c-.48-2.25-1-4.5-1.46-6.74-.38-1.71-.81-3.7-1.18-5.65-.34-1.78-.69-3.77-1.06-6.07l-.22-2.15-.22-2.14c-.1-1-.16-2-.23-3l0-.64,0-.69-.06-.67,0-.67c-.09-1.11-.18-2.26-.22-3.4v-.41c0-.62,0-1.25,0-1.87v-1.11c0-.46,0-.92,0-1.38.06-.64.13-1.3.23-2l0,.11c.24-1.43.45-2.87.67-4.31.16-1.09.31-2.12.47-3.15l0-.35c.19-1.28.39-2.57.6-3.85l.07-.41.1-.62c.12-.73.23-1.46.35-2.19.25-1.64.51-3.29.78-4.93l.28-1.77c.27-1.71.51-3.47.73-5.17l0-.24.1-.73v-.09c.09-.63.19-1.25.29-1.88l.07-.47c.23-1.48.52-3.33.7-5.1l.11-1c.09-.92.21-2.07.29-3.16.11-1.65.21-3.3.29-4.95.13-2.75.2-5.18.19-7.44,0-.91,0-1.81,0-2.71l0-1.17a33.54,33.54,0,0,1,.22-4,34.61,34.61,0,0,1,.79-4c.27-1,.61-2.07,1.06-3.32l.25-.67c.36-1,.68-1.87,1-2.78a31.53,31.53,0,0,0,1-4.05c.2-1.13.42-2.34.68-3.59.29-.88.58-1.81.86-2.75l.42-1.45.43-1.43c.55-.8,1.09-1.65,1.59-2.45l.58-.93c.76-1.18,1.5-2.36,2.24-3.55s1.6-2.57,2.42-3.84c1.37-2.12,3.19-4.93,5.11-7.81s3.68-5.53,5.53-8.29c1.31-2,2.64-3.91,4-5.86l1.14-1.68c1.15-1.69,2.39-3.33,3.6-4.93l1.32-1.76,1.25-1.6.23-.29c.92-1.17,1.88-2.39,2.78-3.61l2-2.71,3.25-4.39,6.18-8c.48-.63,1-1.23,1.5-1.84-.11.62-.19,1.24-.27,1.87l0,.26-.16,1.28-.07.48c-.08.61-.17,1.21-.24,1.82l-.07.52c-.1.75-.19,1.49-.24,2.22-.09,1.27-.09,2.57-.09,3.83V114c0,3.57-.1,7.4-.34,11.18l-.08,1.12c0,.48-.06.93-.09,1.37,0,.7-.06,1.39-.08,2.09,0,.36,0,.68,0,1,0,.81-.06,1.63-.1,2.44l0,.84c0,.69-.06,1.48-.06,2.25,0,2.33.07,4.15.19,5.9,0,.82.16,1.64.27,2.35s.16,1.14.25,1.7l.21,1.36c.11.75.22,1.51.34,2.27l.07.46c.15,1,.3,1.91.43,2.87.31,2.18.62,4.35.94,6.53.48,3.74.85,7.62,1.17,11l0,.22c.1,1.15.17,2.3.23,3.48,0,.57.06,1.13.1,1.7.12,1.81.25,3.61.39,5.42l.05.74c.08,1.11.18,2.21.27,3.32v.09c.07.78.13,1.56.19,2.35s.14,1.79.2,2.68.14,1.94.22,2.91.13,1.66.21,2.49l.08.85c.07.7.13,1.39.22,2.08l.35,2.85,0,.29c.1.76.21,1.5.33,2.25l.08.55.09.6c.17,1.15.38,2.31.57,3.33q.23,1.18.42,2.37c.36,2.15.67,4.33,1,6.38l0-.3c.41,3.45.77,7,1.15,11.63.09,1.16.2,2.32.31,3.48l.09.88.09,1q.3,3.15.55,6.3l.18,2.46c.09,1.13.17,2.2.26,3.27.11,1.39.22,2.77.31,4.15l.1,1.27.18,2.6.08,1.21v.11c.17,2.45.35,5,.56,7.49.28,3.51.6,7,.91,10.54l.08.88c.34,3.81.69,7.62,1,11.44l.06.9,0,.42c0,.44.06.88.1,1.31q.12,1.64.27,3.27c.15,1.75.3,3.5.44,5.25s.36,3.79.63,6l.18,1.46,0,.23c.14,1.2.29,2.44.47,3.66l.36,2.38.13.92q.39,2.61.77,5.23c.52,4,.9,7.69,1.17,11.16q.44,5.68.88,11.36l.07.85.08,1c.25,3.27.52,6.6.84,9.86.21,2.1.43,4.19.66,6.29.09.76.18,1.54.28,2.3l.13,1.05c.09.78.19,1.56.31,2.34l.51,3.33c.11.7.24,1.39.37,2.08.06.32.13.64.18,1,.3,1.65.67,3.38,1.11,5.13l.21.85c.14.6.29,1.2.44,1.79.09.33.17.66.25,1,.16.63.32,1.27.5,1.9l.39,1.39.38,1.35c.08.27.18.55.28.82l0,.08c.06.14.11.28.16.42l.08.25.06.15c.09.27.18.55.29.81.69,1.76,1.4,3.57,2.23,5.32l.35.76c.27.56.53,1.13.81,1.68.46.91.93,1.82,1.4,2.73l.89,1.71.54,1c.47.92.94,1.84,1.42,2.75.34.65.68,1.31,1,2l.14.28c.47.89.94,1.77,1.39,2.67q1.29,2.56,2.53,5.15l.52,1.06c.3.63.58,1.26.86,1.9l0,.11.42,1,1.36,3,.12.26c.54,1.21,1.06,2.43,1.59,3.65l.08.18c.31.73.62,1.45.94,2.18q1.33,3.06,2.64,6.13c1.09,2.65,2.33,5.56,3.77,8.91.54,1.35,1.07,2.7,1.57,4.06l.51,1.36c.34.9.68,1.81,1,2.72.51,1.49,1,3,1.51,4.48.08.23.14.48.21.72l.11.4.09.32,0,.14c0,.14.08.28.11.42l.17.66.18.67a5.44,5.44,0,0,0,.15.54,3.66,3.66,0,0,0,.48,1.08,1.57,1.57,0,0,0,1.31.75,1.43,1.43,0,0,0,.76-.21,1.5,1.5,0,0,0,.71-.91,14.8,14.8,0,0,0,.16-2.17c0-.23,0-.45,0-.68,0-.94.07-1.87.12-2.81q.15-2.87.29-5.73l.07-1.38,0-.69c0-1.11.11-2.23.15-3.35l.08-1.94.07-1.95,0-.67c0-.48.05-1,.05-1.44V427.7c0-.41,0-.82,0-1.23v-.21l0-.6-.06-1.6-.05-1.61c-.13-4-.13-7.94-.13-11.35,0-1.9,0-3.8,0-5.7l0-1.53v-.35c0-1.27,0-2.54.06-3.8l.06-2,.06-2v-.57c0-.48,0-1,.05-1.44l.2-3.58.19-3.69c.08-1.46.18-2.91.27-4.37l.05-.69.11-1.72L233,378q.06-.87.15-1.74l.06-.63c.16-1.82.35-3.65.53-5.47v-.1l.07-.69c.15-1.47.32-2.93.49-4.4l0-.4.12-1c.6-5.2,1.28-10.48,1.94-15.58l.06-.45c.29-2.24.57-4.47.86-6.71.08-.62.14-1.24.2-1.87l.09-.92.09-.81c.08-.67.15-1.34.21-2l.39-4.34v-.11l.21-2.25c.11-1.2.21-2.41.3-3.62l0-.48.15-1.93c.11-1.42.18-2.92.23-4.24l.06-1.28.06-1.38.06-1.37c0-.55,0-1.11,0-1.66,0-.29,0-.58,0-.87v-1.42c0-1.37,0-2.83,0-4.26l0-2,0-2v-.41c0-.48,0-1,0-1.44q-.15-3.52-.32-7.05c0-.65-.09-1.29-.15-1.93v-.16l-.07-.78c-.12-1.32-.26-2.68-.44-4.16-.14-1.18-.33-2.44-.57-3.75s-.51-2.68-.8-4l-1.24-5.5-.14-.61c-.27-1.16-.55-2.31-.83-3.46l-.13-.57c-.18-.72-.35-1.44-.52-2.16-.33-1.37-.68-2.73-1-4.09l-.36-1.41c-.34-1.3-.71-2.6-1.13-4l-.25-.85c-.49-1.69-1-3.32-1.45-4.84l-.54-1.73-.54-1.72-.06-.19-.05-.16c-.12-.39-.24-.77-.37-1.14l-2.1-5.95c-.43-1.21-.89-2.42-1.34-3.63l-.71-1.94c-.46-1.24-.92-2.47-1.39-3.71L222.2,229c-.46-1.23-1-2.51-1.44-3.63l-.15-.37-.5-1.23c-.41-1-.85-2-1.28-3l-.12-.28-.58-1.35,0,.14c-.33-.88-.7-1.78-1.07-2.69l-.08-.2-.21-.5-.2-.48c-.18-.43-.36-.85-.53-1.28l-.1-.25c-.33-.83-.66-1.64-.95-2.47s-.54-1.5-.8-2.25l-.18-.52c-.21-.59-.39-1.18-.58-1.78l-.06-.21-.14-.45c-.33-1.05-.66-2.09-1-3.13l-.43-1.39c-.39-1.28-.78-2.57-1.2-3.85l-.46-1.39-.45-1.39c-.27-.83-.53-1.67-.78-2.5l-.14-.47c-.2-.65-.37-1.31-.54-2l-.18-.71c-.21-.79-.4-1.58-.59-2.38l-.07-.29c-.87-3.67-1.64-7.36-2.49-11.46-.19-.9-.37-1.8-.55-2.7l-.15-.72c-.56-2.76-1.06-5.24-1.61-7.7l-.35-1.6c-.28-1.27-.56-2.54-.85-3.8l-.39-1.63-.07-.28c-.3-1.28-.61-2.59-.88-3.88l-.75-3.51c-.14-.66-.26-1.33-.38-2l-.18-1c-.32-1.72-.6-3.5-.84-5.16-.3-2-.61-4.05-.91-6.07l-.23-1.51-.22-1.5c-.23-1.48-.43-2.6-.65-3.64a37,37,0,0,0-1.19-4.11,46.4,46.4,0,0,0-1.95-4.81,39.77,39.77,0,0,0-3.32-5.72c-1.11-1.63-2.35-3.16-3.53-4.57s-2.23-2.5-3.35-3.67l-.29-.3-.89-.94c-1.13-1.21-2.27-2.4-3.4-3.6l-.53-.55-3.34-3.53.64-.77.48-.57.22-.26,3.61-4.34c.77-.91,1.55-1.8,2.34-2.7l.86-1c1.46-1.67,3-3.32,4.47-4.92l.2-.22,1.19-1.28c2.17-2.35,4.49-4.9,7.32-8,.84-.93,1.59-1.77,2.34-2.66l1.79-2.12,1.78-2.12,1.61-1.9.07-.09q2.19-2.58,4.36-5.18c.22-.28.45-.55.68-.82l.35-.41c.68-.8,1.46-1.72,2.17-2.64l.58-.75L214,50.26c1.63-2.12,3.22-4.34,4.75-6.49L220.05,42c1.25-1.74,2.55-3.46,3.81-5.11l.45-.59c.41-.56.83-1.11,1.25-1.66l1.54-2.1.17-.25.76-1,.56-.77,1.34-1.84.3-.39c.22-.3.43-.58.61-.87l3-4.68.53-.84c.5-.77,1.06-1.65,1.57-2.53l1.6-2.7,1.6-2.7C240.48,11.6,241.83,9,243.24,6A73.89,73.89,0,0,0,247.5-5.23c.61-2.09,1.07-4.31,1.48-6.26l.2-1c.23-1.08.42-2.19.6-3.27l0-.08L250-17c.23-1.33.42-2.69.61-4v-.08l0-.24.15-1.07c.37-2.69.74-5.42,1.29-8.06l.35-1.73c.18-.9.37-1.8.55-2.7V-35a1.31,1.31,0,0,0-.89-1.58,1.12,1.12,0,0,0-.32,0ZM77.6,240.15v0c.64-1.52,1.32-3,1.9-4.32l.76-1.65.61-1.35c.72-1.6,1.53-3.18,2.31-4.71l.06-.11.42-.83c.94-1.86,1.9-3.71,2.85-5.55,1-2,2.07-4,3.08-6s1.94-3.76,2.81-5.37l.67-1.25.08-.15c.73-1.36,1.48-2.77,2.31-4.11l1.15-1.84,1.14-1.83.24-.39.11-.19c.28-.46.59-1,.93-1.45l4-5.56,1.38-1.61.93-1.09c.58-.68,1.14-1.4,1.68-2.1.28-.37.55-.71.82-1,1.07-1.37,2.13-2.79,3.16-4.16l.17-.24,1-1.35,1.43-1.8,1.42-1.8c.87-1.1,1.78-2.17,2.66-3.2l.08-.09.19-.23c.75-.88,1.5-1.77,2.24-2.67l2.11-2.56.21-.25c-.31.81-.63,1.67-1,2.52-.7,1.79-1.38,3.59-2.07,5.39l-.12.33-1.87,4.88c-.14.36-.27.72-.4,1.08l-.09.25-.21.59c-.39,1-.78,2.06-1.19,3.08-.67,1.71-1.38,3.41-2,4.87l0,.08,0,.12c-.55,1.23-1.12,2.56-1.67,3.9s-1.07,2.77-1.63,4.37l-.43,1.23c-.33.91-.67,1.88-1,2.84-.37,1.17-.85,2.71-1.29,4.33l-.68,2.43-.12.42c-.53,1.91-1.07,3.89-1.58,5.84-.8,3.06-1.6,6.06-2.52,9.05l-.49,1.57c-.7,2.24-1.5,4.78-2.18,7.23-.82,2.93-1.68,6.05-2.48,9.2-1,3.95-1.74,7-2.4,9.91-.63,2.73-1.18,5.53-1.7,8.24l0,.13-.18,1c-.08.4-.14.8-.2,1.2l0,.34,0,.3-.43,2.79c-.17,1.13-.31,2.3-.43,3.34l-.09.73-.09.79c-.36,2.92-.74,6.06-1,9.18-.23,2.26-.36,4.61-.48,6.68,0,.86-.09,1.7-.14,2.53l-.36,5.58-.23,3.76c-.2,3.13-.35,6.46-.48,10.19l-.12,3c-.08,2-.16,4.05-.19,6.09,0,3.42-.07,6.84-.07,10.17,0,2.73.07,5.56.21,8.65s.32,6.25.56,9.34c.23,2.92.48,6.19.67,9.42v.25c.16,2.84.33,5.77.42,8.66.1,3.32.18,6.86.24,10.8,0,2.75,0,5.68-.06,9.21-.06,2.78-.16,6.07-.34,9.36-.08,1.44-.21,2.89-.33,4.3l0,.3c-.12,1.29-.23,2.54-.31,3.8l-.37,5.43-.36,5.44c-.13,1.88-.24,3.77-.35,5.65l0,.67L88.53,425c-.2,3.28-.27,6.62-.32,9.5s-.06,5.94-.07,8.83v2.12c0,2.27,0,4.62.09,6.92.17,3.24.28,6.22.36,9.1,0,.95,0,1.89.08,2.84l0,.54c0,1.69.1,3.42.13,5.13l0,2.21v.14c0,2.31.07,4.7,0,7.05-.08,4-.13,7.24-.16,10.27s-.11,5.9-.19,8.77l0,.79,0,1.8c0,1,0,2-.08,3q0,1.14-.12,2.28c0,.69-.08,1.38-.1,2.07-.12,3-.33,6-.55,9,0,.57-.09,1.14-.12,1.7-.07.89-.13,1.78-.2,2.67-.14,1.61-.3,3.16-.49,4.61s-.48,2.85-.72,4.12c-.28,1.49-.57,3-.78,4.56a71.15,71.15,0,0,1-1.52,8c-.37,1.42-.65,2.6-.85,3.69-.29,1.52-.51,3.08-.73,4.59l0,.11,0,.35L81.93,553c-.17,1.18-.33,2.37-.52,3.55l-.12.74a31.79,31.79,0,0,0-.47,3.69.47.47,0,0,0,0,.17l-.08.11-.08.12c-.16.23-.3.46-.45.7-.46-1.63-.85-3.27-1.16-4.87-.53-2.77-.92-5.61-1.29-8.36l0-.12-.17-1.2,0-.09v-.07l0,.07v-.24l0-.14-.1-.74c-.35-2.64-.71-5.36-1-8.07-.16-1.66-.31-3.34-.45-5-.1-1.15-.23-2.3-.36-3.42l-.15-1.31c-.34-3-.84-6-1.32-9l0-.26c-.23-1.35-.49-2.71-.76-4.11s-.53-2.73-.76-4.13c-.54-3.29-1.06-6.57-1.59-9.87-.43-2.73-.84-5.61-1.16-7.92l-.23-1.65-.29-2v-.07c-.26-1.88-.53-3.81-.85-5.71l0-.28c-.52-3.08-1-6.15-1.52-9.23l0-.07h0l-.24-2-.09-.6,0-.11c0-.37-.1-.75-.14-1.12l-.25-2.89-.27-3c-.08-.92-.1-1.88-.12-2.65l0-1.14c-.08-2.1-.15-4.19-.23-6.29,0-.72,0-1.45,0-2.14V433.93c0-.89,0-1.79,0-2.68l0-1.53,0-.58c0-.92,0-1.84-.09-2.76l-.13-3-.12-2.89c0-1.14-.13-2.3-.21-3.41,0-.59-.08-1.11-.11-1.64l0-.41c-.17-2.62-.37-5.59-.49-8.45-.08-1.68-.15-3.35-.23-5-.05-1.24-.07-2.51-.08-3.73v-.68c0-.42,0-.84,0-1.26,0-2.31,0-4.71,0-6.83,0-.74,0-1.48,0-2.21,0-1.85,0-3.63.06-5.41l0-1.72,0-2.82c0-3.13.11-6,.22-8.67l.1-2.69c.08-2.36.17-4.77.3-7.15l0-.91c.32-6.08.65-12.37,1.18-18.55l.11-1.18v-.08c.25-2.93.52-5.95.82-8.92q.53-5.16,1-10.32l.13-1.3c.36-3.62.73-7.37,1-11.11l.18-2.6.1-1.5c0-.58.06-1.16.07-1.75v-.73l.18-7.25c0-2.08.13-4.33.26-6.88v-.41c.09-1.8.18-3.66.33-5.49.17-2.11.38-4.17.61-6.45.16-1.67.4-3.37.6-4.86l.2-1.43c.28-1.84.56-3.69.85-5.53.21-1.33.45-2.65.68-4l.26-1.43c.23-1.27.52-2.57.77-3.72l.34-1.51,0-.14v-.07c.19-.85.38-1.73.6-2.59.29-1.12.63-2.33,1.08-3.8.4-1.29.9-2.53,1.41-3.78ZM91.25,421.47l.15-2.56c.14-2.46.31-4.92.47-7.38l.06-.84,0-.82.2-3,.19-2.83c.07-1,.16-2,.24-2.95l.11-1.21c.14-1.64.25-2.9.33-4.23.1-1.75.16-3.48.21-4.94.24-7.18.28-13.09.15-18.58l-.07-2.78-.07-2.78c0-1.13-.08-2.25-.14-3.37v-.3c0-.57-.06-1.11-.08-1.66-.13-3-.31-6.08-.53-9.17-.19-2.71-.41-5.9-.58-9.06-.06-1-.09-2-.12-3.06l0-.76,0-1c0-1.16-.08-2.46-.07-3.75,0-4.49.09-10.4.31-16.2.07-1.77.16-3.53.24-5.3l.07-1.43.07-1.38c.13-2.88.31-5.84.54-8.81l.28-3.75.28-3.75c.08-1.13.16-2.27.23-3.42l0-.41c.1-1.57.21-3.14.34-4.71.21-2.6.56-5.23.87-7.54.22-1.71.43-3.38.65-5.05l0-.16.37-2.89.21-1.38.42-2.63.07-.49c.08-.5.19-1,.29-1.52l.16-.74.1-.53c.1-.52.2-1,.31-1.55.74-3.58,1.47-6.85,2.22-10,.3-1.24.61-2.49.92-3.73q.66-2.64,1.35-5.26l.26-1,0-.16c.67-2.57,1.37-5.24,2.13-7.83l.75-2.5.06-.19c.63-2.09,1.28-4.26,1.83-6.4.32-1.26.63-2.52,1-3.79l0-.19c.41-1.62.81-3.23,1.23-4.85l.38-1.49c.59-2.31,1.27-4.93,2-7.43.3-1.07.65-2.15,1-3.19l.06-.19.26-.82c.41-1.27.89-2.74,1.46-4.21.38-1,.79-2,1.2-3.05l.35-.89.35-.88c.39-1,.76-1.93,1.13-2.89-.14,1.65-.14,3.34-.14,5v2c0,2.31-.16,4.71-.28,6.83l-.07,1.43c-.16,2.93-.47,6-.93,9.5q-.28,1.7-.54,3.39l-.06.41c-.22,1.48-.44,2.95-.69,4.43-.33,2-.73,4.09-1.07,5.92l-.57,3c-.18,1-.37,2-.55,3l0,.08c-.37,2-.76,4.1-1.11,6.16l-.26,1.56,0,.15c-.29,1.68-.58,3.42-.84,5.14a51.44,51.44,0,0,0-.44,6.05v.14c0,1.24,0,2.51,0,3.82v.92c0,.47,0,.95,0,1.42l0,.53v.78c0,.56,0,1.12,0,1.67l.07,1.4.08,1.36,0,.54c0,.43,0,.85.08,1.28l.08.86,0,.14c.12,1.23.25,2.5.42,3.74l.09.72c.18,1.35.36,2.67.57,4q.45,2.65.91,5.3c.23,1.35.45,2.7.67,4.06l0,.11c.27,1.6.53,3.21.82,4.82.35,2,.77,4.25,1.3,6.89l.24,1.21,0,.08c.36,1.81.73,3.69,1,5.54.24,1.52.46,3,.68,4.56l.42,2.8c.22,1.47.46,2.94.71,4.41l.3,1.74,0,.25a171.85,171.85,0,0,1,1.08,17.62c.08,7.47,0,13.55-.14,19.14l0,1.26c0,.94-.06,1.84-.08,2.74l0,1.23v.07c0,1.18,0,2.4-.09,3.59s-.13,2.63-.19,3.95l0,.85c-.08,1.6-.16,3.2-.23,4.8-.13,3.12-.27,6.46-.36,9.78,0,1.8-.06,3.64-.07,5.53v.72c0,.94,0,1.87,0,2.81q0,2,0,4c0,1.74,0,3.48-.05,5.21l-.09,4.39c0,1.82-.08,3.64-.11,5.46,0,1.55-.1,3.1-.15,4.65s-.12,3.32-.16,5c0,2.86-.07,6,0,9.65s.13,6.81.35,9.72c.19,2.55.5,5.13.8,7.62l0,.19.23,1.95c.18,1.5.35,3,.52,4.53s.31,2.77.48,4.16l.07.64c.34,2.83.72,6,1,9.13.32,3.35.58,6.53.92,10.65,0,.48,0,1,.07,1.44v.15l0,.79.08,1.92.08,1.9a70.3,70.3,0,0,1-.53,11.38,67.89,67.89,0,0,1-4.07,15.57,95.72,95.72,0,0,1-8.47,15.18c-1.33,2-2.84,3.91-4.16,5.63l-.49.63-3,3.58-.52.61c-.76.89-1.58,1.75-2.39,2.57l-.69.71c-2.56,2.66-5.13,5.3-7.7,7.95-.76.78-1.48,1.6-2.18,2.38l-.14.16c-.37.42-.73.83-1.1,1.23-1,1.07-2,2.21-3.12,3.56q-.72.84-1.41,1.71c.07-.32.11-.66.15-1l0-.26v-.08c.22-1.49.4-2.9.59-4.32l.05-.37.29-2.27v-.08l.07-.49c.17-1.2.34-2.37.55-3.5s.42-2.12.77-3.48c.6-2.38,1-4.76,1.33-7l.09-.58c.16-1.07.33-2.19.54-3.28.08-.46.16-.92.25-1.38l.09-.46c.14-.78.29-1.55.43-2.33.48-2.69.74-5.45,1-8.05.17-2,.32-4,.48-6l0-.68.15-2.06c.06-.76.1-1.51.14-2.26l0-.32c0-.45.05-.9.08-1.36q0-.93.12-1.86l0-.45c0-.79.1-1.58.14-2.36.24-4.42.38-8.85.52-13.13.07-2.11.13-4.21.21-6.31v-.2c.11-3,.23-6.15.26-9.23q0-3.47.11-6.94l0-2.08c0-3.28,0-6.25-.06-9.08l-.12-3.26,0-.84c0-1.18,0-2.38,0-3.54v-2.75c0-5.51,0-11.21.2-16.82.07-2.37.22-4.78.36-7.11v-.08ZM236.3,296.83h0V296l0,.8Z" transform="translate(174.12 42.06)"/><path class="cls-7" d="M250.22-39.78c-1.38,6.48-2.84,13-4.6,19.34-.8,2.91-1.66,5.8-2.43,8.72-.4,1.5-.8,3-1.19,4.49l-.66,2.54a49.45,49.45,0,0,1-2.15,6.39c-.53,1.19-1.08,2.35-1.68,3.51s-1.31,2.27-2,3.39-1.36,2.09-2,3.14q-1.66,2.58-3.38,5.13c-1.24,1.86-2.48,3.73-3.73,5.59-1.09,1.63-2.27,3.2-3.46,4.76-1.39,1.7-2.79,3.38-4.23,5l-2.24,2.56c-.45.52-.86,1.08-1.28,1.61-.57.71-1.16,1.42-1.69,2.15-1.39,1.93-2.76,3.85-4.12,5.79s-2.73,3.73-4.11,5.58c-2.3,2.94-4.66,5.82-6.88,8.8s-4.62,6.23-7,9.33q-4.16,5.3-8.62,10.35c-1.52,1.72-3.07,3.42-4.52,5.21-1.67,2.07-3.3,4.16-4.93,6.26q-4.09,5.3-8.41,10.4c-1.78,2.1-3.48,4.23-5.12,6.43-1.43,1.91-2.78,3.89-4.16,5.83-.57.74-1.14,1.48-1.76,2.17-1,1.08-1.94,2.16-2.94,3.22-1.9,2-3.86,4-5.64,6.09-1.91,2.28-3.74,4.6-5.56,7s-3.67,4.56-5.56,6.78-3.55,4.16-5.27,6.29a86.36,86.36,0,0,0-5.35,7.15c-2.95,4.54-6.15,8.91-9.4,13.23-.5.64-1,1.27-1.56,1.87-.82.92-1.66,1.84-2.45,2.79A46.19,46.19,0,0,0,106,175c-1.13,1.83-2.1,3.75-3.16,5.62-.65,1.13-1.3,2.25-2,3.34l-2.25,3.43c-1.41,2.12-2.65,4.31-3.89,6.53-.59,1.06-1.09,2.19-1.63,3.28s-1,2.19-1.49,3.28c-2,4.52-3.85,9.17-5.75,13.75-1.22,2.89-2.46,5.77-3.63,8.69-.6,1.5-1.18,3-1.76,4.5s-1,2.92-1.53,4.38c-1.9,5.5-3.59,11.08-5,16.72-1.57,6.32-3.23,12.61-4.46,19-.58,3-1.1,6.05-1.67,9.08-.62,3.31-1.2,6.62-1.66,10-.43,3-.79,6.1-1.19,9.14l0-.13c-.49,3.07-.95,6.15-1.44,9.21-.52,3.32-1.06,6.63-1.47,10s-.64,6.48-.88,9.73c-.22,3.07-.49,6.13-.66,9.2-.37,6.51-.31,13-.33,19.56,0,6.36,0,12.72.15,19.08,0,1.37.15,2.76.27,4.13.16,1.87.33,3.73.51,5.6.3,2.94.66,5.86.9,8.81.27,3.34.5,6.69.72,10,.09,1.41.24,2.82.35,4.22q.21,2.81.43,5.61c.48,6.38.65,12.78.92,19.17.27,6.55.72,13.09,1.29,19.62.56,6.29.84,12.61,1.25,18.91s.7,12.5,1.21,18.73c.26,3.08.63,6.15,1,9.21s.56,6.15.82,9.21.51,6.11.75,9.16.6,5.92,1,8.86c.25,1.65.54,3.28.78,4.93s.51,3.48.75,5.22c.29,2.28.57,4.56,1,6.82.18,1.06.4,2.12.6,3.18s.34,2.38.52,3.57c.32,2,.61,4.1.9,6.15s.61,4.13.9,6.2c.1.75.19,1.51.29,2.27a10.85,10.85,0,0,0,.22,1.29,1.69,1.69,0,0,0,.71,1,1.17,1.17,0,0,0,1.67-1.45c0-1,0-2,0-3,0-1.59-.06-3.18-.06-4.77,0-2.76-.31-5.52-.47-8.28-.09-1.43-.18-2.86-.35-4.28-.19-1.59-.38-3.18-.55-4.78s-.23-2.94-.39-4.4c-.18-1.65-.37-3.31-.56-5-.34-3.05-.68-6.1-1-9.16-.3-2.9-.41-5.83-.56-8.74-.17-3.12-.45-6.23-.7-9.35s-.57-6.07-.9-9.1c-.68-6.24-1.06-12.5-1.48-18.77s-.81-12.47-1.3-18.71c-.25-3.16-.55-6.31-.83-9.46s-.5-6.58-.74-9.86c-.23-3.07-.39-6.15-.52-9.22-.14-3.32-.33-6.64-.54-10s-.52-6.73-.81-10.09c-.14-1.59-.29-3.19-.44-4.79s-.22-3-.33-4.5c-.27-3.34-.55-6.68-.92-10-.34-3-.68-6.07-1-9.12-.14-1.6-.24-3.19-.34-4.79s-.12-3.11-.17-4.67c-.09-3.14,0-6.29-.05-9.44,0-6.41-.07-12.83.08-19.24.06-2.32.13-4.63.25-6.94.1-2,.28-4,.41-6.05.14-2.18.28-4.36.45-6.54.08-1,.13-2.08.25-3.12s.27-2.36.4-3.54q.94-6.74,1.93-13.47c.72-4.87,1.24-9.76,1.87-14.64s1.71-9.77,2.62-14.65c.47-2.52,1-5,1.6-7.5.51-2.17,1.13-4.32,1.72-6.47q1-3.67,2-7.36c.65-2.37,1.43-4.7,2.21-7,1.43-4.25,3.07-8.42,4.76-12.57.95-2.16,1.89-4.32,2.87-6.47,1.15-2.51,2.36-5,3.49-7.53,2.14-4.81,4.48-9.53,6.83-14.25,1.13-2.25,2.41-4.41,3.71-6.56.58-1,1.23-1.92,1.88-2.84.85-1.2,1.71-2.4,2.54-3.61l1.11-1.61c.38-.56.7-1.16,1-1.73.67-1.12,1.3-2.27,2-3.38,1.08-1.74,2.21-3.46,3.41-5.12.64-.77,1.28-1.53,1.94-2.27.88-1,1.82-1.89,2.7-2.87,1.71-1.94,3.23-4.07,4.8-6.13s3.09-4.06,4.54-6.16,2.85-4.28,4.39-6.34c1.27-1.61,2.57-3.19,3.89-4.76,1.49-1.81,3.08-3.54,4.62-5.31s2.86-3.35,4.22-5.08c1.52-1.92,3-3.86,4.61-5.71s3.1-3.53,4.74-5.22,3.29-3.42,4.89-5.17a70.42,70.42,0,0,0,4.81-6.1c1.16-1.6,2.33-3.2,3.52-4.78,1.58-1.9,3.19-3.77,4.81-5.63s3.09-3.67,4.61-5.52,3-3.72,4.46-5.57S185.34,89.88,187,88c.82-.94,1.7-1.83,2.54-2.76s1.83-2,2.73-3.07q2.52-2.91,5-5.88c3.23-3.9,6.23-8,9.29-12,2.64-3.33,5.33-6.63,7.87-10,1.25-1.68,2.51-3.36,3.71-5.08s2.56-3.68,3.85-5.51l-.77,1c.9-1.16,1.78-2.34,2.73-3.47,1.21-1.46,2.42-2.91,3.63-4.38a84,84,0,0,0,6-8.32c1.77-2.76,3.33-5.64,4.94-8.49s3.4-5.92,5-8.94a55.28,55.28,0,0,0,2.46-5.64,46.25,46.25,0,0,0,1.84-6c.47-2,.76-4,1.17-6q1-4.57,2.11-9.1c1.66-6.61,3.19-13.23,4.68-19.88.19-.83.36-1.67.54-2.5a3.23,3.23,0,0,0-.31-2.4,3.1,3.1,0,0,0-1.86-1.43,3,3,0,0,0-.79-.11,3.09,3.09,0,0,0-3.05,2.28ZM70.84,284.55a.77.77,0,0,0,0,.15l0-.15Zm-5.9,11.25-.06.42.06-.42Z" transform="translate(174.12 42.06)"/><path class="cls-8" d="M186.29,34.58c-2.68.05-5.36.07-8,.2L173,35c-1,.06-2,.16-3,.25l-4.41.38c-.39,0-.78.09-1.17.14l-2.94.36c-1.18.15-2.35.28-3.52.46l-5,.76c-1.22.18-2.43.44-3.64.67s-2.24.42-3.35.67l-2.7.59c-.43.09-.86.17-1.28.28l-4.79,1.3c-1.06.29-2.09.63-3.13,1s-2.33.72-3.46,1.15l-8.14,3.13c-2.23.85-4.49,1.64-6.71,2.51l-8,3.16c-1,.42-2.08.83-3.12,1.27l-2.51,1.05c-.6.25-1.22.48-1.81.76l-4,1.9-1.32.63c-.5.23-1,.51-1.46.77l-3.93,2.08c-1.31.69-2.6,1.44-3.9,2.16-1,.57-2,1.18-3,1.79s-2,1.19-3,1.83q-3.74,2.48-7.43,5c-2.09,1.42-4.12,2.91-6.18,4.37-1.17.82-2.31,1.67-3.46,2.51-.87.62-1.74,1.25-2.59,1.89L57,82.14l-.58.45,0,0-.56.43-3.55,2.75-.17.13h0l.1-.07L52,86h0l-.17.13.11-.09c-2.13,1.62-4.27,3.23-6.38,4.89l-1.45,1.14c-.56.44-1.09.94-1.63,1.4-1,.84-2,1.68-2.94,2.51-3.93,3.33-8,6.51-12,9.7l-3.68,2.91c-2,1.44-3.91,2.92-5.94,4.27l-7.2,4.79c-4.58,3.06-9.25,6-13.9,8.94-4.26,2.71-8.4,5.62-12.66,8.33-1.15.74-2.31,1.47-3.47,2.19-.44.28-.88.55-1.34.79l-.75.4-.42.21a3,3,0,0,0-.49.28,1.1,1.1,0,0,0-.4.4,1.26,1.26,0,0,0-.07,1.36,2.61,2.61,0,0,0,1.49.95c.49.19,1,.38,1.46.55l-.91.45a.65.65,0,0,0-.23.89.66.66,0,0,0,.89.23l2-1,2.33.73c1.22.38,2.46.73,3.7,1.06s2.44.63,3.67.87c2.64.53,5.27,1.07,7.92,1.56,1.31.24,2.61.47,3.92.69l2,.33c.66.11,1.34.17,2,.25,2.73.34,5.46.64,8.2.88a67,67,0,0,0,7.36.26c1,0,2,0,3-.13a27.43,27.43,0,0,0,3.48-.57l2.44-.56c.51-.11,1-.29,1.51-.45,1.3-.39,2.6-.79,3.89-1.22l4-1.36,3.7-1.24c1.2-.39,2.37-.82,3.54-1.29,2.53-1,5-2.23,7.43-3.43,2.21-1.09,4.37-2.27,6.54-3.44,2.38-1.27,4.75-2.54,7.1-3.89,1.07-.61,2.13-1.25,3.2-1.86s2.44-1.36,3.67-2c2.6-1.38,5.2-2.78,7.78-4.21,1-.57,2.07-1.13,3.06-1.77s2-1.43,3-2.18q1.89-1.44,3.76-2.9l-.13.1c1.8-1.37,3.6-2.72,5.43-4.06l2.83-2c.85-.61,1.71-1.22,2.51-1.89,1.77-1.48,3.49-3,5.2-4.57l2.53-2.26c.85-.75,1.72-1.47,2.6-2.2.61-.48,1.23-1,1.87-1.41l1.3-.9c.44-.31.9-.58,1.36-.86.74-.47,1.51-.91,2.28-1.34s1.68-.87,2.51-1.29c1.71-.88,3.44-1.71,5.16-2.57.75-.38,1.49-.78,2.26-1.13l2.78-1.28c1.15-.46,2.31-.91,3.47-1.35,1.34-.52,2.69-1,4-1.66.65-.31,1.29-.63,1.92-1l1.95-1.1c1.18-.67,2.36-1.3,3.57-1.87s2.14-.88,3.23-1.26,2.36-.8,3.53-1.25,2.35-1,3.5-1.5,2.34-1.06,3.48-1.65c2.34-1.23,4.64-2.51,6.9-3.86,1-.62,2.07-1.25,3.08-1.91.52-.35,1-.7,1.53-1.06a25.47,25.47,0,0,0,2.84-2.45c.89-.85,1.75-1.75,2.62-2.63S182,62.7,183,61.86c1.94-1.72,3.91-3.41,5.91-5s3.88-3,5.67-4.67c.84-.77,1.64-1.59,2.46-2.38s1.74-1.52,2.64-2.24l1-.79c.84-.63,1.69-1.23,2.57-1.78a24.11,24.11,0,0,1,2.61-1.38c1.85-.87,3.68-1.8,5.56-2.61l.81-.29.44-.16,5.55.73-.61-.08c.88.12,1.76.31,2.63.47A2.38,2.38,0,0,0,222,41.4a2.29,2.29,0,0,0,.83-3.14,2.2,2.2,0,0,0-1.38-1.06c-1.24-.23-2.48-.45-3.73-.62l-2.81-.37-5.43-.73.61.08c-1.35-.18-2.73-.24-4.09-.35l-4.59-.36c-.3,0-.61,0-.91,0l-2.88-.1c-1.09,0-2.18-.1-3.27-.11L189,34.55h-.52l-2.23,0Zm13.87,4.09h0ZM160.6,40.39l4.89-.5c1.19-.12,2.39-.16,3.58-.24s2.38-.2,3.56-.25l4.74-.17c1,0,2-.09,3-.1l5-.05,2.93,0c.85,0,1.7,0,2.55,0,2,0,4,.07,6,.15h.19l-.22.05c-1.35.27-2.71.55-4.06.85-2.52.55-5,1.11-7.54,1.74-.52.14-1.05.25-1.56.41l-2.57.82c-1.26.4-2.49.86-3.73,1.3-2.5.9-5,1.76-7.53,2.66s-5,1.76-7.46,2.61-4.87,1.62-7.31,2.43c-1.28.43-2.57.82-3.87,1.22-1.07.33-2.14.7-3.21,1.07l-7.81,2.72-3.68,1.28c-1.05.36-2.09.75-3.14,1.15-2.23.83-4.42,1.75-6.62,2.68l.15-.07c-1.13.48-2.25,1-3.4,1.42l-3.73,1.45c-2.53,1-5.07,2-7.56,3-2.3,1-4.55,2.12-6.8,3.26-2.47,1.26-4.94,2.53-7.36,3.89a68.06,68.06,0,0,0-6.35,4c-1,.72-2,1.43-3,2.14s-2.23,1.48-3.37,2.2c-2.27,1.45-4.5,3-6.74,4.45-1,.66-1.95,1.37-2.93,2.06-1.14.81-2.26,1.65-3.39,2.48-.31.23-.64.44-1,.65l-2.45,1.66c-.89.61-1.79,1.2-2.7,1.79-1.44.94-2.88,1.89-4.34,2.81s-3.1,1.88-4.72,2.71c-1.19.62-2.4,1.21-3.62,1.78-2.44,1.14-4.9,2.26-7.33,3.44l-1.9.93c-.62.3-1.23.64-1.83,1q-1.76.93-3.48,1.89-6.41,3.6-12.85,7.13c-2.19,1.2-4.41,2.32-6.65,3.43-1.13.55-2.3,1.06-3.45,1.58s-2.08.9-3.12,1.35l-2.35,1-1.57.65c-.48.21-.95.46-1.42.69-.87.42-1.7.92-2.54,1.4s-1.5.89-2.21,1.38c-1.6,1.11-3.17,2.24-4.77,3.34-.93.64-1.86,1.29-2.83,1.87a18.88,18.88,0,0,1-1.88.88l-1.22.53c-1,.4-1.93.78-2.89,1.17s-2,.89-3.05,1.35c-.56.26-1.09.56-1.63.85l-1.3.69-.72-.2-1.74-.53-.42-.13.08-.06,1.72-1.12,3-2c2.39-1.59,4.76-3.2,7.14-4.8,4.16-2.83,8.44-5.49,12.66-8.23l4.23-2.74c1-.65,2-1.32,2.95-2,2.33-1.58,4.67-3.14,7-4.7.87-.58,1.71-1.22,2.55-1.84,1.07-.78,2.16-1.53,3.2-2.35l6.4-5.07c2.81-2.22,5.62-4.45,8.36-6.75l4.68-4c1.37-1.17,2.8-2.25,4.22-3.35l-.16.13c2-1.53,4.11-3.06,6.14-4.61,1-.73,1.89-1.46,2.85-2.18a.59.59,0,0,0,.18-.13l.23-.17Q59.64,82.38,61.5,81c1-.7,1.93-1.37,2.9-2.06s1.89-1.36,2.85-2c2.2-1.52,4.38-3.08,6.62-4.56q3.7-2.43,7.45-4.81c1-.61,1.94-1.15,2.92-1.71s2-1.14,3-1.68c1.21-.64,2.41-1.3,3.62-1.91L95,60.15c2.13-1.08,4.33-2,6.51-3q3.63-1.43,7.26-2.81c2.63-1,5.27-2,7.9-2.92,1.24-.45,2.5-.85,3.75-1.27l3.13-1.1,8.1-2.87c.66-.23,1.34-.41,2-.61l3.38-1c.72-.21,1.45-.36,2.17-.54l3.61-.89c.7-.17,1.41-.28,2.12-.41l3.23-.61c.89-.17,1.79-.29,2.68-.43l2.78-.45c2.32-.29,4.64-.61,7-.85ZM203.09,40c.9-.07,1.81-.12,2.72-.15H206l3.43.27.16,0-.63.27c-.84.34-1.68.68-2.51,1a45.08,45.08,0,0,0-4.16,2A34.55,34.55,0,0,0,198,46.31c-.68.52-1.36,1-2,1.6s-1.21,1.09-1.81,1.65-1.13,1.08-1.73,1.58-1.28,1-1.93,1.54c-1.32,1-2.62,2-3.89,3.09s-2.67,2.21-4,3.37c-.7.62-1.39,1.25-2.07,1.9s-1.32,1.28-2,1.93c-1.46,1.46-2.87,3-4.44,4.31a49.68,49.68,0,0,1-4.43,2.91c-1.44.85-2.86,1.71-4.33,2.49s-3,1.59-4.52,2.32-2.87,1.3-4.31,1.93c-.67.26-1.34.52-2,.75s-1.43.48-2.14.72A48.32,48.32,0,0,0,148,80.15c-1.48.68-2.89,1.49-4.31,2.29-.58.32-1.15.67-1.75,1s-1.48.69-2.24,1c-1.12.45-2.25.87-3.39,1.29-1.35.5-2.67,1-4,1.61-2.35,1-4.64,2.23-7,3.36l-3.41,1.67c-.51.26-1,.51-1.55.78s-1.24.7-1.86,1.06a48.89,48.89,0,0,0-6.58,4.66c-1.55,1.28-3.06,2.63-4.56,4s-3.2,2.81-4.83,4.16L96,111.64c-1.93,1.41-3.82,2.88-5.73,4.34-1.68,1.28-3.34,2.62-5.15,3.74-.81.5-1.67.94-2.52,1.4l-2.34,1.29c-2.31,1.26-4.64,2.47-7,3.7-2,1.08-4,2.28-6,3.41S63,131.84,60.81,133l-3.2,1.69c-1,.53-2,1-3,1.55-2.07,1-4.19,2-6.31,2.91-.74.29-1.47.59-2.22.84-.94.32-1.87.64-2.82.94-1.66.53-3.33,1.09-5,1.63q-2.84.94-5.68,1.81l-1.32.4c-.35.11-.72.17-1.08.25l-1.89.43c-.64.15-1.29.25-1.95.34-1.2.14-2.4.17-3.6.22-.73,0-1.47.05-2.2,0-1.58,0-3.15-.06-4.72-.17-1.79-.12-3.59-.27-5.38-.43-1.48-.13-3-.3-4.44-.46-2.32-.35-4.64-.7-7-1.08s-4.48-.78-6.71-1.18-4.35-.94-6.5-1.49L-15,141c.74-.4,1.47-.8,2.23-1.16s1.6-.75,2.41-1.11c1.56-.66,3.12-1.31,4.67-2a15.72,15.72,0,0,0,2-1c.42-.26.82-.54,1.23-.81.77-.51,1.53-1.05,2.28-1.58,1.48-1,2.93-2.14,4.47-3.08.88-.54,1.77-1.07,2.67-1.58s1.59-.82,2.4-1.21l-.08,0c2.4-1,4.81-2,7.2-3,1.19-.5,2.35-1.07,3.52-1.6s2.26-1.09,3.37-1.67c2.46-1.26,4.88-2.6,7.31-3.91l7-3.86,3.51-2c1.14-.64,2.3-1.22,3.46-1.82,1-.52,2-1,3-1.46l3.43-1.61c1.68-.79,3.36-1.57,5-2.38s3.26-1.65,4.83-2.6c1-.61,2-1.25,3.05-1.91L68.05,97c1.06-.69,2.1-1.43,3.15-2.14s1.92-1.33,2.87-2,2.13-1.57,3.2-2.34c2.18-1.56,4.4-3,6.64-4.52l3.06-2c1.14-.74,2.26-1.5,3.37-2.3s2-1.5,3.08-2.21,2.07-1.38,3.14-2c1.34-.8,2.68-1.59,4.06-2.33s3-1.54,4.44-2.29,2.74-1.4,4.13-2.05c.71-.34,1.41-.7,2.14-1l2.22-1c2.36-.94,4.72-1.87,7.09-2.77,1.26-.47,2.53-.93,3.77-1.44l4-1.63c1.24-.51,2.49-1,3.75-1.49s2.43-.9,3.64-1.34c1.39-.51,2.81-1,4.21-1.43l3.44-1.19c2.49-.86,5-1.72,7.5-2.53,1.22-.4,2.46-.76,3.7-1.14s2.33-.74,3.5-1.12q3.91-1.27,7.81-2.59c1.32-.44,2.61-.92,3.92-1.38l3.61-1.27c2.29-.8,4.59-1.59,6.88-2.4,1.1-.4,2.24-.72,3.35-1.07s2-.56,3-.78c4.58-1.06,9.18-2.06,13.81-2.93l-.22,0c.94-.12,1.88-.24,2.83-.33Zm8.43.94-.1.05.1-.05Zm-11,5.88,0,0,0,0Zm-9.84,5.76-.12.1.12-.1Zm-77,16.17,0,0,0,0ZM93.8,117a1.09,1.09,0,0,0,.17-.13,1.09,1.09,0,0,1-.17.13ZM51.9,86.08,52,86h0l-.06,0ZM52,86l.08-.06L52,86Z" transform="translate(174.12 42.06)"/></g></g></g></svg>