<svg xmlns="http://www.w3.org/2000/svg" xmlns:xlink="http://www.w3.org/1999/xlink" viewBox="0 0 813.48 1141.92"><defs><style>.cls-1{fill:none;}.cls-2{clip-path:url(#clip-path);}.cls-3{fill:#ffd27d;}.cls-4{fill:#faa381;}.cls-5{fill:#ffecd1;}.cls-6{fill:#16401b;}.cls-7{fill:#f7e1d3;}</style><clipPath id="clip-path" transform="translate(24.35 39.3)"><rect class="cls-1" width="470.63" height="836.67"/></clipPath></defs><g id="Layer_2" data-name="Layer 2"><g id="ëÎÓÈ_1" data-name="ëÎÓÈ 1"><g class="cls-2"><rect class="cls-3" x="24.35" y="39.3" width="470.63" height="836.67"/><path class="cls-4" d="M297.2-38.81a1.44,1.44,0,0,0-1.13.49,28.47,28.47,0,0,0-1.91,2.65,18.59,18.59,0,0,0-1.77,3.91,37.67,37.67,0,0,0-1.23,4.48l0,.15c-.35,1.47-.67,3-1,4.92-.59,3.13-1,6.36-1.31,9.48l-.06.56a79.85,79.85,0,0,0-.51,10,44.11,44.11,0,0,0,.86,7.9,33.11,33.11,0,0,0,3.28,9c.58,1.12,1.26,2.21,1.93,3.26l.44.71c.88,1.4,1.84,2.79,2.74,4.09s1.72,2.43,2.59,3.64l.32.44c1.13,1.57,2.3,3.2,3.5,4.77.43.55.85,1.11,1.27,1.66,1,1.35,2.1,2.75,3.18,4.11l8.79,11.15c2.06,2.81,3.82,5.42,5.37,8a75.48,75.48,0,0,1,4.71,9.22c.7,1.74,1.34,3.49,1.9,5.22.63,2,1.14,4,1.56,5.74.72,3,1.31,6.24,1.91,10.52q.63,4.56,1.28,9.1c.28,2,.57,4,.87,6.08l.38,2.67c.28,1.93.54,3.85.79,5.78l.28,2,.33,2.68q.38,3,.74,6l.31,2.5.3,2.5L338,128c.13,1.09.25,2.21.43,3.31l.43,2.66.42,2.65.13.82c.14.87.28,1.77.47,2.65l1.11,5,.15.68.2.87.19.88c.07.34.18.67.28,1l.15.46.93,3.17.74,2.5c.27.93.59,1.86.9,2.76l.27.8q1.59,4.7,3.17,9.4l.2.59c.27.81.56,1.65.8,2.49l1.72,5.87c.23.79.41,1.62.59,2.41l.13.58.53,2.41.65,2.93c.08.34.13.69.19,1,0,.17.05.34.08.51l.32,1.85.31,1.78c.24,1.34.47,2.68.71,4,.34,1.87.69,3.74,1,5.62.37,2.05.89,4.22,1.63,6.82a55.87,55.87,0,0,0,2.84,7.58,70.39,70.39,0,0,0,3.33,6.25l.63,1.09.28.48c.65,1.13,1.32,2.3,1.95,3.47.26.49.53,1,.8,1.45.55,1,1.12,2,1.63,3.06l.9,1.82,1.69,3.46c1.13,2.67,2.29,5.43,3.4,8.23l.3.75c.42,1.07.85,2.13,1.25,3.21l.65,1.71.59,1.56c.06.17.13.34.2.51.15.39.3.78.43,1.18q.87,2.72,1.73,5.42c.32,1,.56,2,.8,3,.08.37.17.74.26,1.11l.28,1.12.32,1.28c.08.33.14.67.19,1l.06.38.43,2.48.51,3,.38,3.4.38,3.41c.08.8.14,1.61.19,2.39,0,.41.05.81.08,1.21s.07.81.1,1.21c.07.81.13,1.63.18,2.44l.12,2,.13,2,.07,1.15.07,1.16,0,.25c0,.17,0,.35,0,.52l-.05,8.47,0,4.35c0,.45,0,.89,0,1.34l-.23,3.75-.36,5.91v.12c-.08,1.22-.15,2.44-.22,3.66,0,.53-.1,1.07-.16,1.59l-.05.41-.31,2.68-.66,5.71c-.91,6.45-1.68,11.8-2.42,16.83l-.85,5.68c-.17,1.12-.29,2.27-.42,3.38l-.11,1c0,.33-.08.67-.12,1-.11.91-.23,1.86-.29,2.79l-.18,2.75-.18,2.75c0,.3,0,.6,0,.89,0,.14,0,.27,0,.41v.1c0,1,0,1.93,0,2.9,0,.56,0,1.13,0,1.69,0,.84.08,1.7.15,2.52l.06.68c.1,1.24.28,2.5.45,3.72l0,.19c.34,2.43.86,4.88,1.35,7.24l0,.1c.1.51.2,1,.31,1.53.21,1.06.44,2.17.69,3.25.76,3.29,1.45,6.26,2.2,9.26s1.49,5.78,2.23,8.59c.27,1,.6,2.05.91,3.05.17.52.33,1.05.49,1.57.32,1.05.67,2.1,1,3.12l.28.82c.94,2.82,2,5.66,2.92,8.41.24.68.54,1.37.83,2l.23.54c.43,1,.82,1.89,1.21,2.74.81,1.74,1.79,3.42,2.73,5.05l.09.14c.72,1.25,1.49,2.51,2.23,3.72l.75,1.24.71,1.16c1.14,1.88,2.32,3.82,3.4,5.78l0,.05,1.46,2.65.21.38c.15.26.3.52.43.78l2.37,4.84,0,.08c.6,1.22,1.18,2.45,1.77,3.68s1.07,2.25,1.61,3.37q2.11,4.33,4.25,8.65l.23.47c1.17,2.35,2.38,4.79,3.69,7.12l1.91,3.4c.35.62.74,1.23,1.12,1.83.19.29.37.58.55.87,1.09,1.77,2.27,3.51,3.41,5.2l.41.62c.41.6.86,1.2,1.29,1.78l.61.83c.52.7,1.05,1.44,1.62,2.14l1.24,1.51,1,1.23c.51.62,1.05,1.24,1.58,1.84l.78.89c1.21,1.4,2.49,2.78,3.72,4.12l.39.42c1.66,1.8,3.06,3.24,4.39,4.52s2.53,2.28,3.8,3.35l.66.57c.65.55,1.32,1.16,2.13,1.93.39.37.77.75,1.14,1.13l1,1a1,1,0,0,0,.73.3,1,1,0,0,0,.72-.3l17.79,0V-25.13H294.17l0-.12a43.72,43.72,0,0,1,2.05-7.16,13.71,13.71,0,0,1,.83-1.55c.32-.5.65-1,1-1.49l.38-.47a1.83,1.83,0,0,0,.49-1.19,1.73,1.73,0,0,0-.49-1.2,1.8,1.8,0,0,0-1.26-.49Z" transform="translate(24.35 39.3)"/><path class="cls-5" d="M369.15,108.78a1.69,1.69,0,1,0,1.69-1.69,1.71,1.71,0,0,0-1.69,1.69Z" transform="translate(24.35 39.3)"/><path class="cls-5" d="M431.22,84.11a2,2,0,1,0,2-2,2.05,2.05,0,0,0-2,2Z" transform="translate(24.35 39.3)"/><path class="cls-5" d="M411.85,172.07a3,3,0,1,0,3-3,3,3,0,0,0-3,3Z" transform="translate(24.35 39.3)"/><path class="cls-5" d="M391.22,245.07a1.61,1.61,0,1,0,1.61-1.6,1.62,1.62,0,0,0-1.61,1.6Z" transform="translate(24.35 39.3)"/><path class="cls-5" d="M418.79,282a1.61,1.61,0,1,0,1.61-1.6,1.62,1.62,0,0,0-1.61,1.6Z" transform="translate(24.35 39.3)"/><path class="cls-5" d="M445.06,309.38a1.88,1.88,0,1,0,1.88-1.88,1.9,1.9,0,0,0-1.88,1.88Z" transform="translate(24.35 39.3)"/><path class="cls-5" d="M406.82,347.93a2.38,2.38,0,1,0,2.38-2.38,2.4,2.4,0,0,0-2.38,2.38Z" transform="translate(24.35 39.3)"/><path class="cls-5" d="M350.24,95.65a2.22,2.22,0,1,0,2.22-2.22,2.23,2.23,0,0,0-2.22,2.22Z" transform="translate(24.35 39.3)"/><path class="cls-5" d="M380.74,88.35a1.61,1.61,0,1,0,1.61-1.61,1.62,1.62,0,0,0-1.61,1.61Z" transform="translate(24.35 39.3)"/><path class="cls-5" d="M402.28,125a2.06,2.06,0,1,0,2.06-2.06,2.08,2.08,0,0,0-2.06,2.06Z" transform="translate(24.35 39.3)"/><path class="cls-5" d="M365.25,163.32a1.61,1.61,0,1,0,1.61-1.61,1.62,1.62,0,0,0-1.61,1.61Z" transform="translate(24.35 39.3)"/><path class="cls-5" d="M370.26,204.09a1.66,1.66,0,1,0,1.65-1.66,1.66,1.66,0,0,0-1.65,1.66Z" transform="translate(24.35 39.3)"/><path class="cls-5" d="M401.55,186.81a1.61,1.61,0,1,0,1.6-1.61,1.63,1.63,0,0,0-1.6,1.61Z" transform="translate(24.35 39.3)"/><path class="cls-5" d="M413.12,147.49a1.61,1.61,0,1,0,1.6-1.6,1.62,1.62,0,0,0-1.6,1.6Z" transform="translate(24.35 39.3)"/><path class="cls-5" d="M409.61,99.63a1.61,1.61,0,1,0,1.6-1.6,1.62,1.62,0,0,0-1.6,1.6Z" transform="translate(24.35 39.3)"/><path class="cls-5" d="M406.24,69.26a1.61,1.61,0,1,0,1.61-1.61,1.62,1.62,0,0,0-1.61,1.61Z" transform="translate(24.35 39.3)"/><path class="cls-5" d="M432,122.23a1.61,1.61,0,1,0,1.61-1.6,1.62,1.62,0,0,0-1.61,1.6Z" transform="translate(24.35 39.3)"/><path class="cls-5" d="M377.54,147.7a1.61,1.61,0,1,0,1.6-1.61,1.62,1.62,0,0,0-1.6,1.61Z" transform="translate(24.35 39.3)"/><path class="cls-5" d="M397.22,188.72a1.61,1.61,0,1,0,1.61-1.6,1.62,1.62,0,0,0-1.61,1.6Z" transform="translate(24.35 39.3)"/><path class="cls-5" d="M355,132.38a1.61,1.61,0,1,0,1.6-1.6,1.62,1.62,0,0,0-1.6,1.6Z" transform="translate(24.35 39.3)"/><path class="cls-5" d="M378.58,183.65a1.61,1.61,0,1,0,1.61-1.6,1.62,1.62,0,0,0-1.61,1.6Z" transform="translate(24.35 39.3)"/><path class="cls-5" d="M391.58,152.24a1.61,1.61,0,1,0,1.61-1.6,1.62,1.62,0,0,0-1.61,1.6Z" transform="translate(24.35 39.3)"/><path class="cls-5" d="M402.68,218.78a1.61,1.61,0,1,0,1.61-1.61,1.62,1.62,0,0,0-1.61,1.61Z" transform="translate(24.35 39.3)"/><path class="cls-5" d="M429.84,224.63a1.61,1.61,0,1,0,1.61-1.61,1.62,1.62,0,0,0-1.61,1.61Z" transform="translate(24.35 39.3)"/><path class="cls-5" d="M434.91,181.74a1.61,1.61,0,1,0,1.61-1.6,1.62,1.62,0,0,0-1.61,1.6Z" transform="translate(24.35 39.3)"/><path class="cls-5" d="M449.72,142.52a1.61,1.61,0,1,0,1.61-1.61,1.62,1.62,0,0,0-1.61,1.61Z" transform="translate(24.35 39.3)"/><path class="cls-5" d="M469,136.26a1.61,1.61,0,1,0,1.61-1.61,1.62,1.62,0,0,0-1.61,1.61Z" transform="translate(24.35 39.3)"/><path class="cls-5" d="M420.09,39.15a1.61,1.61,0,1,0,1.61-1.6,1.62,1.62,0,0,0-1.61,1.6Z" transform="translate(24.35 39.3)"/><path class="cls-5" d="M388.54,47.89a1.61,1.61,0,1,0,1.61-1.61,1.62,1.62,0,0,0-1.61,1.61Z" transform="translate(24.35 39.3)"/><path class="cls-5" d="M437.17,41.69a1.61,1.61,0,1,0,1.61-1.61,1.62,1.62,0,0,0-1.61,1.61Z" transform="translate(24.35 39.3)"/><path class="cls-5" d="M453.75,79.76a1.61,1.61,0,1,0,1.61-1.6,1.62,1.62,0,0,0-1.61,1.6Z" transform="translate(24.35 39.3)"/><path class="cls-5" d="M341.15,32.73a1.61,1.61,0,1,0,1.6-1.61,1.62,1.62,0,0,0-1.6,1.61Z" transform="translate(24.35 39.3)"/><path class="cls-5" d="M396.44,280.2a1.61,1.61,0,1,0,1.61-1.61,1.62,1.62,0,0,0-1.61,1.61Z" transform="translate(24.35 39.3)"/><path class="cls-5" d="M428.77,250a1.61,1.61,0,1,0,1.61-1.6,1.62,1.62,0,0,0-1.61,1.6Z" transform="translate(24.35 39.3)"/><path class="cls-5" d="M444.65,255.47a2.4,2.4,0,1,0,2.4-2.4,2.43,2.43,0,0,0-2.4,2.4Z" transform="translate(24.35 39.3)"/><path class="cls-5" d="M455.3,219.3a1.72,1.72,0,1,0,1.71-1.71,1.73,1.73,0,0,0-1.71,1.71Z" transform="translate(24.35 39.3)"/><path class="cls-5" d="M405.09,313.11a1.95,1.95,0,1,0,2-1.94,2,2,0,0,0-2,1.94Z" transform="translate(24.35 39.3)"/><path class="cls-5" d="M424.88,322.94a1.61,1.61,0,1,0,1.61-1.6,1.63,1.63,0,0,0-1.61,1.6Z" transform="translate(24.35 39.3)"/><path class="cls-5" d="M405.61,384.3a1.62,1.62,0,1,0,1.62-1.62,1.64,1.64,0,0,0-1.62,1.62Z" transform="translate(24.35 39.3)"/><path class="cls-5" d="M430.46,402.87a1.61,1.61,0,1,0,1.61-1.61,1.62,1.62,0,0,0-1.61,1.61Z" transform="translate(24.35 39.3)"/><path class="cls-5" d="M415.49,442.61a1.61,1.61,0,1,0,1.61-1.6,1.62,1.62,0,0,0-1.61,1.6Z" transform="translate(24.35 39.3)"/><path class="cls-5" d="M431.35,471.22a1.81,1.81,0,1,0,1.8-1.81,1.82,1.82,0,0,0-1.8,1.81Z" transform="translate(24.35 39.3)"/><path class="cls-5" d="M453.63,448.19a2.7,2.7,0,1,0,2.7-2.7,2.73,2.73,0,0,0-2.7,2.7Z" transform="translate(24.35 39.3)"/><path class="cls-5" d="M437.59,433.45a1.61,1.61,0,1,0,1.61-1.61,1.63,1.63,0,0,0-1.61,1.61Z" transform="translate(24.35 39.3)"/><path class="cls-5" d="M447.46,401.63a1.61,1.61,0,1,0,1.61-1.61,1.62,1.62,0,0,0-1.61,1.61Z" transform="translate(24.35 39.3)"/><path class="cls-5" d="M455.7,365.46a1.73,1.73,0,1,0,1.72-1.72,1.74,1.74,0,0,0-1.72,1.72Z" transform="translate(24.35 39.3)"/><path class="cls-6" d="M293.49,280.6a1.1,1.1,0,0,0-.5.29,1.73,1.73,0,0,0-.37.59c-.05.24-.11.46-.16.7l-.24,1c-.15.65-.31,1.31-.48,2-.38,1.51-.77,3-1.16,4.52-.35,1.35-.73,2.7-1.09,4-.42,1.52-.83,3-1.24,4.56-.69,2.55-1.44,5.08-2.16,7.62-.37,1.33-.75,2.65-1.11,4s-.78,2.81-1.13,4.22c-.74,3-1.48,6-2.19,9-.29,1.2-.59,2.39-.84,3.6-.34,1.67-.69,3.34-1,5-.1.48-.16,1-.24,1.46-.17,1.07-.35,2.14-.52,3.21-.08.5-.18,1-.24,1.51l-.24,2.26c-.1.89-.19,1.78-.29,2.67-.05.43-.06.85-.08,1.28,0,1-.08,1.94-.13,2.92,0,.49-.06,1-.05,1.48l.15,5.15c0,.54.07,1.08.11,1.62.07,1,.17,2,.28,2.93a61.11,61.11,0,0,0,1,6.05,51.47,51.47,0,0,0,1.63,5.61c.33,1,.7,1.92,1.08,2.87.3.73.59,1.48.93,2.19.7,1.49,1.41,3,2.11,4.46.19.42.44.82.67,1.23l1.54,2.8c.18.34.36.68.57,1l1.52,2.38,1.21,1.88c.29.45.62.89.93,1.33l1.7,2.43c.24.34.47.67.72,1l3.41,4.47c.83,1.09,1.73,2.14,2.6,3.19,1.94,2.35,3.85,4.72,5.76,7.08l2.75,3.63c.76,1,1.56,2,2.35,3l1.66,2c.24.31.52.59.79.88l2,2.2c.33.36.65.72,1,1.06l3.24,3.28c.46.47.9,1,1.36,1.45s.85.89,1.24,1.35c.91,1,1.84,2.09,2.69,3.19s1.62,2.06,2.45,3.08a6.79,6.79,0,0,1,.43.74,7.53,7.53,0,0,1,.32,1.15,27.61,27.61,0,0,1,.05,3.86c-.05,1.46-.12,2.91-.18,4.38s-.12,2.77-.15,4.15-.06,2.77-.11,4.15-.13,3-.17,4.44,0,2.94,0,4.41c0,2.83,0,5.66-.1,8.48,0,.4,0,.8-.07,1.2a1.54,1.54,0,0,1-.08-.19c-.34-.84-.65-1.69-1-2.53s-.73-1.89-1.12-2.82a1.54,1.54,0,0,0,.08.19c-.5-1.2-1.05-2.37-1.64-3.51s-1.28-2.31-2-3.43c-.35-.59-.69-1.17-1.08-1.73a19.8,19.8,0,0,0-1.27-1.63,30.57,30.57,0,0,0-3-2.82c-1-.86-2-1.76-2.91-2.67-.5-.48-1-1-1.48-1.45l-.86-.88c-.25-.25-.48-.53-.72-.8-.91-1-1.8-2-2.69-3.07-.46-.54-.91-1.09-1.39-1.61l-1.78-1.93c-.47-.51-1-1-1.46-1.46s-1.07-1-1.6-1.47l-3.07-2.75c-1-.9-2-1.8-3-2.69s-2.14-1.84-3.19-2.77-2.19-1.95-3.29-2.91c-.51-.45-1-.9-1.54-1.33s-1.19-1-1.83-1.46c-.27-.19-.54-.4-.83-.57l-.78-.49-2-1.23c-1.16-.73-2.29-1.51-3.42-2.28-.91-.62-1.78-1.31-2.65-2l.05,0c-.56-.44-1.12-.88-1.67-1.33s-1-.83-1.49-1.23-1.09-.88-1.66-1.3-1.2-.83-1.82-1.24-1.21-.73-1.81-1.09a21.22,21.22,0,0,0-2.27-1.18c-.86-.42-1.75-.77-2.65-1.11-1.12-.42-2.29-.74-3.44-1.07-.7-.2-1.4-.41-2.11-.6-2.8-.77-5.6-1.52-8.44-2.1l-9.09-1.82c-5.72-1.15-11.47-2.23-17.19-3.38-2.74-.55-5.47-1.13-8.19-1.76a89,89,0,0,1-12.28-3.6l-.72-.29c-.82-.35-1.62-.71-2.41-1.09-1-.49-2-1-3-1.58l-2.27-1.26-4.15-2.33c-1.31-.76-2.63-1.5-4-2.19l-2.05-1L182,382.7l-.74-.38-.69-.33a1.6,1.6,0,0,0-.64-.2,1.37,1.37,0,0,0-.75,0,1.39,1.39,0,0,0-.85.65,1.91,1.91,0,0,0-.25.84,1.72,1.72,0,0,0,.33.93c.16.25.34.49.52.73.39.55.79,1.1,1.17,1.66.84,1.25,1.66,2.51,2.48,3.78,1.47,2.28,2.85,4.61,4.19,7q2.26,4,4.55,8c.24.42.51.84.76,1.26l1.72,2.81c.25.42.49.85.76,1.26l1.08,1.67,2.62,4c.27.42.58.83.87,1.25.62.91,1.25,1.81,1.88,2.72l1.2,1.74c.24.35.51.68.76,1l3.25,4.35c.88,1.16,1.82,2.27,2.77,3.37a53.58,53.58,0,0,0,4.44,4.6,89,89,0,0,0,7.76,6.34l2.27,1.67c.51.38,1,.78,1.54,1.14l4.24,2.94c1,.7,2.06,1.34,3.09,2L234.8,451c.33.21.66.42,1,.62l8.23,4.77c2.33,1.35,4.72,2.61,7.09,3.89l2.6,1.39c1,.56,2.07,1.16,3.1,1.74.85.48,1.73.91,2.62,1.32a14.31,14.31,0,0,0,2.62.85l2.79.61c1.3.29,2.59.59,3.89.85l5.38,1.1c1.29.26,2.58.54,3.88.79l4.06.76,5.76,1.09c1,.19,2.09.36,3.14.54l4,.67c1.47.24,2.95.48,4.41.75l4.15.77c.8.14,1.59.31,2.38.49l3.85.85c1.25.27,2.49.61,3.72,1a44.3,44.3,0,0,1,4.33,1.5,29.83,29.83,0,0,1,6.1,3.45c.86.67,1.72,1.34,2.57,2l1.19,1a11.77,11.77,0,0,1,1.66,1.49,4.82,4.82,0,0,1,.27.5,4.1,4.1,0,0,1,.19.66,1.91,1.91,0,0,1,.06.33,7.26,7.26,0,0,1,.06.93c-.05.59-.1,1.18-.14,1.77,0,.36,0,.72,0,1.08-.13,1.26-.29,2.53-.42,3.8s-.29,2.78-.46,4.16l-.6,4.6c-.2,1.51-.37,3-.55,4.53-.06.52-.09,1-.12,1.55-.06.75-.13,1.49-.16,2.24-.13,2.79-.27,5.59-.37,8.38-.05,1.3-.09,2.6-.15,3.89s-.13,2.67-.19,4c0,.83-.07,1.66-.11,2.49,0,.49,0,1,0,1.46,0,1.75-.05,3.49,0,5.24a1.06,1.06,0,0,0,2.11,0c0-1.82,0-3.64,0-5.47,0-.58.05-1.16.08-1.74s.06-1.46.1-2.2c.07-1.37.15-2.75.2-4.13s.1-3,.17-4.43l.18-4.23c.07-1.5.12-3,.22-4.49l.15-2.21c0-.24.05-.49.08-.73l.18-1.68c.16-1.41.33-2.82.51-4.22s.32-2.7.45-4.05.27-2.95.4-4.43c.11-1.31.24-2.61.32-3.92a13.22,13.22,0,0,0,0-1.78,7.09,7.09,0,0,0-.12-.91c0-.14-.06-.28-.1-.42.1-.9.19-1.8.31-2.7.1-.64.21-1.27.33-1.91s.2-1.32.31-2c.2-1.25.35-2.52.51-3.78a.59.59,0,0,1,0,.13c.14-1,.31-1.93.45-2.9s.25-1.84.35-2.76.19-1.94.28-2.9.2-1.88.33-2.82c.18-1.27.36-2.54.57-3.8s.47-2.5.71-3.75.46-2.44.76-3.63a33.52,33.52,0,0,1,1.21-3.67c.22-.5.44-1,.68-1.5s.61-1.15.94-1.71.61-1,.92-1.47.62-.94.95-1.4a21.31,21.31,0,0,1,2.16-2.3,33,33,0,0,1,3.42-2.06q1.92-1,3.9-1.95c2.46-1,5-1.82,7.52-2.69.58-.2,1.15-.41,1.73-.6.77-.26,1.53-.49,2.3-.72,1.35-.38,2.73-.72,4.09-1.07,2.68-.7,5.37-1.37,8-2.17l2.11-.64c.81-.25,1.61-.53,2.41-.79,1.26-.42,2.5-.86,3.75-1.29l2-.7c1.1-.38,2.19-.77,3.27-1.2a30.24,30.24,0,0,0,5.18-2.6c.89-.58,1.76-1.19,2.64-1.78,1.25-.84,2.47-1.7,3.7-2.56l1.61-1.14c.2-.13.38-.29.57-.44l1.13-.87,2.37-1.83c.32-.25.64-.49.94-.76l4.11-3.67c1-.86,1.89-1.77,2.83-2.66l2.68-2.53,3.84-3.68c.25-.24.48-.49.71-.73l2.14-2.24c.81-.85,1.65-1.68,2.42-2.57l3.74-4.34c.76-.89,1.55-1.75,2.33-2.62l2-2.21c.28-.31.56-.63.85-.93q1.85-1.95,3.71-3.89c1-1,1.85-2.07,2.77-3.1.36-.41.7-.84,1.05-1.26s.86-1.05,1.3-1.57l1.66-2c.85-1,1.75-2,2.53-3l.24-.33c.1-.23.2-.46.29-.7s0-.26.05-.4a5,5,0,0,0-.07-.65,2.28,2.28,0,0,0-.49-.87,2.42,2.42,0,0,0-1-.48l-.39-.05a3.66,3.66,0,0,0-.81,0c-.2,0-.46.05-.67.07l-1.15.14c-1.44.19-2.88.38-4.32.6l-9,1.38c-1.35.2-2.68.43-4,.67s-2.54.44-3.81.7l-4.83,1c-1.6.34-3.19.71-4.79,1.06-2.78.62-5.55,1.28-8.33,1.92l-1.3.35-3.12.83c-1.3.35-2.59.75-3.88,1.14l-2.05.62c-.53.15-1,.35-1.55.52L387,379.19c-.45.15-.89.35-1.34.53l-3,1.21-2.29.91c-1.19.48-2.35,1-3.52,1.52-.94.42-1.86.87-2.78,1.33s-1.8,1-2.67,1.53-1.54,1-2.3,1.49l-2.28,1.49c-1.28.84-2.55,1.73-3.8,2.64-1.52,1.09-3,2.27-4.41,3.48a63.59,63.59,0,0,0-4.72,4.42c-.79.82-1.56,1.66-2.3,2.52l-1.95,2.26c-.29.34-.56.7-.83,1.06l-1.89,2.47a63.71,63.71,0,0,0-5.17,8c-.37.69-.75,1.38-1.07,2.09s-.59,1.26-.88,1.89c-.41.88-.82,1.75-1.17,2.65s-.86,2.08-1.25,3.14c-.52,1.39-1,2.8-1.58,4.18v-.58c0-.7,0-1.39,0-2.09,0-1.29,0-2.58.1-3.86s.1-2.72.2-4.08.26-2.57.37-3.86.18-2.65.26-4,.07-2.58.09-3.86c.06-3,.15-5.91.3-8.86.07-1.35.08-2.71.08-4.06s0-2.75,0-4.12c0-2.86,0-5.73.05-8.59s.05-6,.07-8.94c0-2.68.05-5.37-.05-8.05,0-.67,0-1.36-.08-2s-.07-1.53-.16-2.28l-.27-2.45c-.09-.82-.25-1.65-.39-2.47-.09-.57-.2-1.14-.31-1.7s-.25-1.38-.43-2.05c-.21-.84-.43-1.69-.65-2.53,0-.16-.09-.32-.14-.48-.17-.51-.33-1-.5-1.55s-.32-1-.5-1.47l-1-2.64c-.22-.59-.49-1.16-.74-1.74s-.39-.91-.58-1.37c-.1-.22-.19-.46-.3-.68l-1.09-2.17-.42-.83c-.13-.26-.29-.5-.44-.75l-.7-1.22c-.1-.16-.19-.33-.3-.49-.41-.61-.82-1.23-1.25-1.83-.56-.8-1.12-1.59-1.7-2.38s-1.21-1.69-1.85-2.5-1.4-1.75-2.11-2.62c-.2-.25-.43-.48-.65-.71l-1.47-1.59c-.59-.63-1.23-1.22-1.85-1.83s-1.19-1.17-1.8-1.74l-2.42-2.3c-1.05-1-2.1-2-3.1-3.05s-1.78-2-2.6-3c-.39-.53-.77-1.06-1.14-1.6s-.6-.9-.87-1.36l-1.07-1.84-.72-1.25c-.08-.13-.14-.28-.21-.41l-.48-1c-.46-.9-.94-1.8-1.35-2.73-.5-1.09-1-2.19-1.49-3.29l-1.52-3.84c-.19-.47-.34-1-.5-1.43-.3-.88-.61-1.76-.91-2.63-.45-1.3-.83-2.62-1.24-3.94-.18-.55-.31-1.12-.46-1.68-.1-.36-.19-.72-.29-1.09s-.1-.48-.15-.71a2.54,2.54,0,0,0-.27-.71,1.09,1.09,0,0,0-.68-.52,1.14,1.14,0,0,0-.6,0Zm-11.93,52.62c.06-.38.11-.76.19-1.14l.54-2.53c.26-1.26.51-2.53.82-3.78.42-1.75.85-3.5,1.27-5.25.63-2.58,1.29-5.16,2-7.71.37-1.36.73-2.73,1.12-4.08l1.2-4.13c.52-1.81,1.06-3.62,1.56-5.44s1.05-3.82,1.57-5.72,1.06-3.86,1.57-5.79c.14-.51.27-1,.4-1.55l.12.36c.43,1.39.85,2.77,1.32,4.14s.9,2.7,1.42,4,1.05,2.81,1.66,4.17,1.18,2.71,1.82,4l1.24,2.53c.24.5.51,1,.78,1.46l1.2,2.13c.41.75.9,1.45,1.38,2.16.6.89,1.27,1.73,1.95,2.56a74,74,0,0,0,6,6.17l2.15,2.1,1.54,1.54c.25.26.51.5.75.77l1.34,1.47.72.81a2.11,2.11,0,0,1,.25.27c.65.82,1.29,1.65,1.94,2.48.8,1.1,1.61,2.21,2.39,3.33s1.72,2.41,2.46,3.69l.72,1.23c.11.21.24.41.35.63l1.26,2.47c.26.51.48,1,.72,1.56s.59,1.35.88,2c.48,1.21,1,2.41,1.41,3.64.27.77.54,1.55.82,2.32.09.26.15.54.23.81l.48,1.64c.19.64.33,1.3.49,1.95s.3,1.28.43,1.93.33,1.49.44,2.24.23,1.52.35,2.27.15,1.47.23,2.2.13,1.5.19,2.25c.11,1.37.14,2.75.19,4.12.1,2.75.15,5.5.19,8.25.08,5.8.11,11.6.12,17.39v1.84c0,.75-.05,1.51-.09,2.27-.07,1.37-.13,2.74-.17,4.11s-.05,3-.06,4.47,0,2.71-.05,4.06-.11,2.57-.18,3.85c0,.66-.1,1.32-.15,2s-.08,1.37-.11,2.05c-.11,2.61-.1,5.23-.11,7.84,0,.75,0,1.49,0,2.23l0,1.05a2.84,2.84,0,0,0,0,.77.88.88,0,0,0,.41.44.6.6,0,0,0,.58,0c.59-.27.81-.94,1.06-1.49s.56-1.3.83-2l1.07-2.67,1.28-3c.36-.84.79-1.66,1.2-2.48L342,419c.34-.71.73-1.38,1.12-2.06a70.34,70.34,0,0,1,4.78-7.17c.71-.88,1.42-1.75,2.12-2.63.26-.31.51-.63.76-.94.1-.12.21-.23.32-.34l.73-.81c.48-.52,1-1,1.43-1.57s1.15-1.21,1.74-1.81a70,70,0,0,1,6.95-6.16c1.87-1.43,3.82-2.74,5.79-4.05.76-.5,1.54-1,2.31-1.46,1-.62,2-1.24,3-1.84a55.71,55.71,0,0,1,6.74-3.25l-.1,0,.16-.07.15-.06-.11,0c1.54-.64,3.09-1.23,4.64-1.83l2.51-1c.32-.12.63-.24,1-.35l5.31-1.74c1.29-.43,2.61-.79,3.92-1.17.53-.16,1.06-.33,1.6-.47l2.19-.57c1.26-.33,2.51-.68,3.77-1,3-.69,6-1.38,9.06-2l3.58-.77c1.22-.26,2.46-.5,3.69-.75.89-.18,1.78-.37,2.68-.53l4.57-.78c1.08-.18,2.17-.32,3.25-.48l3.14-.47c2.24-.34,4.47-.68,6.71-1l1.38-.18.19,0-.61.68-.48.56-1.72,2c-.81,1-1.57,1.94-2.4,2.87S436,378,435,379l-3.64,3.83c-.27.29-.53.59-.79.89-.72.8-1.44,1.6-2.15,2.41s-1.53,1.7-2.27,2.57l-3.7,4.34c-.18.22-.37.42-.56.63l-1.92,2-2.55,2.71c-.23.24-.48.46-.71.69L415,400.78c-1.75,1.7-3.5,3.38-5.25,5.07-.6.57-1.2,1.15-1.82,1.71l-3.47,3.15c-.25.23-.48.47-.74.68-.41.31-.81.63-1.21.95l-3,2.38c-1.33.95-2.63,1.92-4,2.85l-2.59,1.8c-.83.58-1.64,1.17-2.51,1.68a29.33,29.33,0,0,1-3.47,1.7c-.94.39-1.9.75-2.86,1.1l-2.27.81c-1.25.44-2.49.91-3.74,1.34l-2.37.82c-.7.24-1.42.45-2.14.68-1.35.43-2.71.81-4.07,1.2s-2.61.72-3.91,1.07-2.73.73-4.08,1.14c-.69.21-1.38.44-2.07.67l-1.94.71-3.82,1.36-1.92.7c-.72.26-1.43.56-2.13.86s-1.1.51-1.63.78-1.14.58-1.71.89c-1,.56-2.05,1.14-3,1.76a11.55,11.55,0,0,0-1.76,1.32,18.68,18.68,0,0,0-1.34,1.47c-.22.26-.45.52-.64.79s-.4.57-.59.86c-.34.52-.65,1.06-1,1.59a29.75,29.75,0,0,0-1.89,3.79c-.26.63-.49,1.28-.71,1.94a15.81,15.81,0,0,0-.53,1.78c-.3,1.27-.54,2.54-.76,3.82-.19,1.05-.37,2.11-.55,3.16s-.37,2.26-.52,3.4h0v0l0,.19v-.07c-.21,1.51-.41,3-.53,4.55s-.25,3.11-.45,4.65c-.12.81-.24,1.61-.37,2.42s-.24,1.79-.35,2.68-.29,2.07-.45,3.11-.37,2.08-.5,3.13c0,.14,0,.27,0,.41-.2-.21-.45-.42-.66-.6s-.63-.53-.94-.8L327.21,481c-.8-.66-1.59-1.32-2.41-2a27,27,0,0,0-5.26-3.1c-4.57-2.13-9.55-3.07-14.43-4.15-.42-.1-.84-.16-1.26-.24l-3.17-.59c-1.35-.25-2.7-.47-4.05-.7l-3.85-.65c-1.27-.21-2.55-.4-3.82-.64l-10.15-1.92c-1-.18-1.95-.39-2.92-.6L270,465.23c-.94-.19-1.88-.41-2.82-.63l-2.69-.62-.87-.2-1.43-.34a12.87,12.87,0,0,1-1.33-.43,52,52,0,0,1-4.92-2.67c-.67-.39-1.36-.75-2-1.13l-3.66-2-2.58-1.44c-.45-.25-.91-.49-1.35-.76L242,452.43l-3.86-2.29c-.42-.25-.85-.49-1.25-.75l-1.73-1.1-2.59-1.66c-.45-.29-.91-.56-1.35-.86l-4.22-3c-.75-.53-1.48-1.08-2.21-1.63-1.24-.93-2.49-1.86-3.71-2.81-1.06-.82-2.12-1.66-3.14-2.54s-2.23-2-3.32-3a69.49,69.49,0,0,1-6.09-6.84l-2.79-3.74-1.08-1.44c-.3-.41-.58-.84-.88-1.27l-3.08-4.45c-.2-.29-.38-.58-.57-.87l-1.71-2.62c-.66-1-1.32-2-1.94-3L193.67,404c-.24-.38-.45-.77-.68-1.16l-1.6-2.75-2-3.47c-.68-1.18-1.36-2.36-2.06-3.53-.31-.51-.6-1-.92-1.53L185,389.27c-.58-.92-1.17-1.83-1.77-2.74l.72.36c1.2.6,2.38,1.25,3.54,1.91l3.72,2.07c2.06,1.13,4.1,2.28,6.21,3.3,1.67.8,3.4,1.49,5.13,2.12.93.34,1.87.63,2.81.92.68.21,1.36.41,2,.59l2.57.65c.55.14,1.11.29,1.67.41,2.86.64,5.72,1.29,8.59,1.85q4.65.9,9.31,1.76l8.35,1.55c2.69.5,5.38,1,8.07,1.49,2.87.52,5.74,1.06,8.58,1.73l3.69.9,2.25.56a33.11,33.11,0,0,1,4.12,1.36,49.62,49.62,0,0,1,4.77,2.42l.71.41c.31.18.6.4.9.59.51.34,1,.72,1.5,1.09,2.09,1.62,4.2,3.21,6.4,4.69,1.13.76,2.27,1.51,3.42,2.23.52.33,1.05.64,1.56,1s1.07.73,1.6,1.1,1,.82,1.48,1.24l1.61,1.45,3.31,3c1,.93,2.07,1.84,3.09,2.77s2.05,1.89,3.08,2.84,2.17,2,3.24,2.95,2,1.94,3,3c.45.5.92,1,1.36,1.49l1.68,2c1,1.1,1.91,2.2,2.88,3.28.31.36.65.69,1,1s.74.75,1.12,1.11c.79.77,1.6,1.52,2.42,2.27s1.47,1.27,2.17,1.95c.41.39.82.79,1.21,1.22s.6.68.88,1l.71,1.05c.28.42.53.88.78,1.32.49.85,1,1.7,1.43,2.56s.81,1.55,1.19,2.34.76,1.67,1.13,2.52v0c.43,1,.82,2.08,1.22,3.13.24.65.5,1.29.78,1.93a4.82,4.82,0,0,0,1,1.68.77.77,0,0,0,.75.2,1.45,1.45,0,0,0,.44-.24,1.61,1.61,0,0,0,.34-.48,3.36,3.36,0,0,0,.24-.82,6.19,6.19,0,0,0,.15-1c.09-.79.16-1.59.19-2.39.06-1.48.1-3,.14-4.45.07-2.79,0-5.58.16-8.37.08-1.42.15-2.84.19-4.27l.12-4.74c0-1.43.13-2.85.19-4.28s.12-2.62.16-3.93c0-.57,0-1.14,0-1.71a14,14,0,0,0-.15-1.83,6,6,0,0,0-.67-2,4.88,4.88,0,0,0-.49-.7l-.57-.73.05.06-.12-.16-.05-.05,0,0-.78-1c-.35-.45-.68-.92-1-1.37l-1-1.21c-.39-.5-.82-1-1.23-1.46-.73-.86-1.52-1.68-2.28-2.51s-1.34-1.41-2-2.1-1.42-1.42-2.1-2.15L315,415.88a7.43,7.43,0,0,1-.53-.59l-1.12-1.37-2.24-2.77q-1.5-1.95-3-3.91c-.93-1.21-1.91-2.37-2.87-3.55-1.89-2.32-3.8-4.61-5.71-6.9l.17.22-2.24-2.9c-.59-.76-1.19-1.5-1.75-2.28-.86-1.22-1.73-2.43-2.6-3.65-.53-.74-1-1.51-1.52-2.28l-1.34-2c-.17-.26-.36-.52-.51-.8l-2.08-3.71c-.18-.33-.39-.65-.55-1l-.7-1.45-1.08-2.25c-.33-.7-.64-1.4-.95-2.11a.36.36,0,0,0,0,.09l0-.1-.06-.14.06.14q-.67-1.61-1.26-3.24c-.44-1.22-.82-2.47-1.17-3.72a52.33,52.33,0,0,1-1.4-7.05c-.12-.94-.21-1.87-.29-2.81-.06-.68-.13-1.35-.14-2,0-.84-.05-1.68-.07-2.52s0-1.81-.08-2.71c0-.49,0-1,.06-1.48,0-1,.09-2,.14-2.92,0-.43,0-.85.08-1.28.18-1.59.36-3.18.53-4.77s.53-3.18.8-4.78Zm-9.22,81.26.05,0-.05,0Zm51.75,51.27.05.11-.05-.11Zm3.27,4.12a.36.36,0,0,0,0,.09l0-.09Zm5.63-7.18,0-.12h0s0,.09,0,.13Zm-4.66-31.8.07.1-.1-.13,0,0Zm51.5-46-.06,0,.1-.05,0,0Zm-95.47-12.33h0Z" transform="translate(24.35 39.3)"/><path class="cls-6" d="M405.78-37.24c-.46,1.64-.93,3.29-1.39,4.94-.32,1.14-.63,2.3-1,3.43-.45,1.42-.9,2.83-1.39,4.24-.33,1-.73,2-1.13,2.93s-.77,1.72-1.2,2.56c-.54,1-1.06,2.07-1.62,3.09l-1.92,3.56c-.6,1.11-1.28,2.19-1.92,3.28C392-5.45,389.74-1.75,387.51,2c-5,8.3-10.31,16.4-15.74,24.41-1.59,2.34-3.24,4.63-4.87,6.94-.67.95-1.41,1.85-2.12,2.78S363.3,38,362.57,39l-4.09,5.1c-1,1.29-2.13,2.53-3.21,3.78l-2.62,3c-.37.42-.72.86-1.11,1.25q-2.58,2.66-5.17,5.29c-1.35,1.38-2.78,2.67-4.17,4s-2.59,2.4-3.9,3.58-2.56,2.33-3.92,3.41l-4.81,3.8-3.89,2.83a71.21,71.21,0,0,1-7,4.5c-2.24,1.24-4.59,2.31-6.89,3.44l-5.37,2.61q-8.18,4-16.38,7.88L284.12,96c-.79.33-1.62.58-2.43.87l-4.84,1.73c-3.92,1.41-7.86,2.82-11.81,4.16q-7.4,2.52-14.83,5c-4.65,1.52-9.32,3-14,4.44-1.91.61-3.85,1.14-5.77,1.7s-3.82,1.13-5.73,1.66c-4.61,1.26-9.22,2.55-13.85,3.76-9.11,2.37-18.23,4.72-27.43,6.72l-8.07,1.76c-2.36.52-4.7,1.12-7.05,1.68-1.87.44-3.75.84-5.6,1.35l-8.91,2.42c-1.84.5-3.64,1.08-5.46,1.66L144,136.23c-.57.18-1.13.37-1.7.58L133.85,140c-1.88.71-3.73,1.5-5.59,2.27-2.08.85-4.18,1.68-6.26,2.57l-7.9,3.41c-1.65.71-3.31,1.41-4.94,2.18L101.65,154c-.69.32-1.35.72-2,1.07L95,157.52q-2.64,1.41-5.23,2.88l-4,2.26c-1.9,1.08-3.75,2.26-5.58,3.46-2.61,1.7-5.09,3.58-7.53,5.51-2.73,2.14-5.36,4.41-7.93,6.73a94.15,94.15,0,0,0-10.86,11.46c-2,2.6-4.08,5.2-6.06,7.85q-1.38,1.86-2.66,3.76c-.9,1.35-1.72,2.75-2.53,4.14-1.19,2.07-2.35,4.17-3.38,6.32-1.14,2.37-2.27,4.75-3.4,7.12-.45.94-.85,1.91-1.28,2.86L32.7,226c-1,2.23-2.09,4.43-3.13,6.64s-2,4.11-3,6.16-2,4.07-2.93,6.12c-.91,1.9-1.81,3.81-2.72,5.72-.68,1.45-1.37,2.89-2.05,4.34-.29.61-.57,1.23-.88,1.83-2.33,4.55-4.67,9.1-7.06,13.63-2,3.88-4,7.77-6,11.66-1.05,2.07-2.08,4.14-3.16,6.19l-3.9,7.31c-.37.69-.76,1.36-1.15,2L-5.75,302c-1.14,2-2.29,4-3.43,6.07-2.26,4-4.38,8.05-6.55,12.09a132.71,132.71,0,0,1-6.62,11.59c-.35.53-.7,1-1.07,1.57a5.47,5.47,0,0,0-.84,1.58,3.41,3.41,0,0,0,0,1.62,3.33,3.33,0,0,0,.8,1.34l.44.35c.37.18.75.35,1.13.5l.78.19c.49.07,1,.13,1.48.18a11.72,11.72,0,0,0,2.44-.08c2.37-.22,4.74-.56,7.11-.85s4.48-.43,6.72-.66c2.46-.24,4.93-.5,7.4-.76,2.19-.23,4.38-.5,6.56-.75,1.14-.13,2.27-.33,3.39-.5l4.2-.64c2.28-.35,4.56-.79,6.84-1.18s4.43-.87,6.65-1.3c1.16-.22,2.31-.53,3.47-.8.94-.22,1.88-.43,2.81-.7l4-1.12c.26-.07.51-.17.77-.26l2.46-.86c1.19-.41,2.41-.79,3.57-1.29l3.61-1.58c.85-.37,1.72-.7,2.55-1.12l4.07-2c3.93-2,7.83-4,11.67-6.16L77,312.94l3.29-1.85c1.15-.65,2.27-1.37,3.38-2.07,1.53-1,3-2,4.45-3.11,2.54-1.93,5-4,7.43-6,.93-.78,1.84-1.59,2.76-2.39.69-.6,1.38-1.19,2-1.81,1.68-1.57,3.38-3.11,5-4.73s3.37-3.28,5-5,3.36-3.49,5-5.26,3.35-3.61,5.07-5.37c.81-.85,1.63-1.68,2.44-2.53s1.74-1.66,2.61-2.49c1.66-1.59,3.33-3.2,5-4.81l2.67-2.6c.84-.83,1.63-1.73,2.44-2.58.59-.63,1.2-1.25,1.77-1.91l3.06-3.54c1-1.12,1.85-2.3,2.75-3.45s1.94-2.47,2.87-3.74l1.89-2.57c.36-.49.74-1,1.07-1.46l3.12-4.63c.88-1.32,1.68-2.7,2.52-4s1.59-2.61,2.4-3.9,1.73-2.75,2.65-4.09,1.94-2.71,3-4.05l-.21.27c1.1-1.42,2.21-2.83,3.27-4.28l1.78-2.46c.69-.95,1.31-1.94,2-2.91,2-2.94,3.73-6,5.72-8.95,1.06-1.56,2.11-3.12,3.23-4.65l3.58-4.88q3.42-4.64,6.8-9.28l2.07-2.66c.63-.8,1.27-1.56,1.93-2.33s1.37-1.62,2.09-2.4,1.6-1.78,2.45-2.61,1.53-1.49,2.28-2.25l1.54-1.57c.38-.38.79-.75,1.15-1.16.82-1,1.65-1.93,2.49-2.89.26-.31.5-.66.75-1l1.56-2.07c1.31-1.74,2.56-3.53,3.86-5.27s2.57-3.41,3.87-5.1q2.32-3,4.6-6.08c1.2-1.62,2.33-3.29,3.55-4.89l2-2.61c1.14-1.3,2.25-2.63,3.43-3.91,1.33-1.45,2.67-2.9,4-4.36s2.79-3,4.19-4.54a49,49,0,0,1,5.36-5.13c2.89-2.12,6-3.94,8.91-6l3.93-2.75c1-.72,2.11-1.4,3.18-2.06l3.33-1.46c1.7-.75,3.35-1.6,5-2.41l1.82-.89,2.05-.61q7.54-2.25,15.08-4.54c.61-.19,1.21-.4,1.81-.61l4.72-1.67c2.17-.77,4.28-1.73,6.4-2.61,4.19-1.75,8.32-3.62,12.45-5.47,2.64-1.18,5.28-2.35,7.91-3.55,1.4-.65,2.81-1.29,4.19-2s2.86-1.58,4.25-2.44,2.57-1.71,3.84-2.6l3.11-2.2c1-.7,1.95-1.51,2.91-2.26,1.77-1.39,3.59-2.72,5.27-4.22s3.56-3.1,5.25-4.73,3.4-3.18,5-4.84c1-1.06,2.05-2.13,3.08-3.18l1.46-1.52c.21-.22.44-.43.64-.66l5.37-6.31c1.48-1.73,2.83-3.59,4.23-5.39,1.51-2,3-4,4.45-6l1.89-2.59c.2-.27.38-.56.56-.84l1.48-2.23c1.32-2,2.6-4,3.87-6,2.37-3.74,4.76-7.47,7.06-11.25l2.47-4.05c.47-.76.95-1.52,1.39-2.3q1.85-3.24,3.64-6.51c1-1.87,2-3.77,3-5.64q1.81-3.24,3.62-6.5c1-1.89,2-3.81,3-5.74.54-1.09,1.07-2.17,1.61-3.25.32-.66.57-1.38.85-2.06s.47-1.17.69-1.77c.78-2.11,1.41-4.28,2.06-6.43s1.27-4.52,1.9-6.77c.18-.64.36-1.27.53-1.9a2.83,2.83,0,0,0-1.95-3.45,2.67,2.67,0,0,0-.73-.1,2.85,2.85,0,0,0-2.72,2.06ZM141.4,140.58l2.41-1c.25-.1.51-.17.75-.25l2.24-.73,4.56-1.51c.63-.2,1.25-.42,1.89-.6l8.6-2.38c4.59-1.27,9.24-2.27,13.86-3.37,2.12-.5,4.27-.9,6.4-1.35l6.13-1.3c8.92-1.92,17.83-3.91,26.68-6.12,4.75-1.19,9.51-2.37,14.26-3.59l7.53-1.94c.79-.2,1.56-.44,2.34-.66l5.16-1.45c2.56-.72,5.13-1.45,7.69-2.19l-5.06,2-6.49,2.59c-.8.32-1.61.61-2.39,1l-3.13,1.4-4.33,1.93c-.61.27-1.21.53-1.8.82l-7.78,3.82c-3.75,1.83-7.56,3.56-11.29,5.43-4.18,2.09-8.4,4.12-12.51,6.34q-6.9,3.74-13.78,7.49c-1.65.9-3.3,1.78-4.89,2.76l-8.19,5c-4.11,2.52-8.14,5.16-12.19,7.76-1.51,1-3,1.91-4.57,2.85-1.91,1.18-3.84,2.33-5.72,3.55l-7.21,4.69c-1.93,1.26-3.82,2.6-5.72,3.9-3.84,2.62-7.62,5.29-11.42,8-2.12,1.49-4.2,3-6.29,4.54-1.86,1.33-3.65,2.75-5.47,4.14-3.59,2.75-7.07,5.64-10.58,8.49l-2.55,2.08c-1,.79-1.91,1.68-2.86,2.52-.74.66-1.52,1.3-2.24,2L90.52,210c-3.24,3.08-6.44,6.21-9.54,9.43-1.63,1.69-3.28,3.37-4.85,5.11S73,228,71.45,229.74l-4.71,5.15c-1.57,1.73-3.18,3.43-4.69,5.22s-3.09,3.66-4.6,5.52-3.23,4-4.83,6c-1.47,1.84-3,3.67-4.46,5.49-1.32,1.62-2.67,3.2-4,4.82l-2.52,3.16c-.77,1-1.49,2-2.23,3-1.36,1.82-2.66,3.69-4,5.55-.91,1.3-1.87,2.57-2.8,3.85-.81,1.05-1.62,2.1-2.44,3.13-.54.67-1.08,1.33-1.61,2s-.91,1.1-1.33,1.67c-.89,1.21-1.82,2.4-2.67,3.64s-1.84,2.68-2.75,4-1.72,2.57-2.6,3.84c-1,1.42-2,2.83-3,4.22-1.76,2.38-3.58,4.72-5.39,7.06l.05-.07-.06.08-.1.13.08-.1c-1.13,1.44-2.27,2.86-3.36,4.33s-2.14,2.88-3.23,4.31a19.8,19.8,0,0,1-1.52,1.65c-.7.65-1.4,1.28-2.13,1.91-1.38,1.18-2.8,2.33-4.17,3.53s-2.65,2.38-4,3.59-2.62,2.46-4,3.59c-.68.52-1.36,1.05-2.05,1.56a18.64,18.64,0,0,1-2.8,1.86l-1.8.66-.79.12-.33,0c.3-.49.6-1,.91-1.47l1.89-3.09c1.25-2.05,2.39-4.16,3.56-6.25q3.42-6.15,6.87-12.29C-5,309.06-3.75,307-2.56,305l3.77-6.52c1.13-2,2.18-4,3.26-5.94s2-3.69,3-5.55c2.1-4,4.18-8,6.32-12q3.74-7,7.39-14c1.95-3.73,3.71-7.56,5.54-11.35q3.25-6.7,6.59-13.37c.78-1.56,1.5-3.14,2.25-4.71.54-1.13,1.09-2.25,1.61-3.4,1.35-3,2.68-6,4.1-9q1.26-2.62,2.51-5.25c.72-1.5,1.55-3,2.35-4.42,1.16-2.12,2.4-4.2,3.73-6.22,1.57-2.37,3.3-4.64,5-6.89q1.52-2,3-4c1.43-1.74,2.89-3.45,4.41-5.12s3.36-3.45,5.1-5.1C70.78,179,74.32,176,78,173.11c2.53-1.93,5.15-3.73,7.83-5.46,1.17-.75,2.36-1.45,3.56-2.16,1.94-1.15,3.87-2.35,5.85-3.45l7.73-4.3c1.85-1,3.78-1.92,5.68-2.86,1.7-.84,3.39-1.7,5.12-2.48l8.68-3.9c3.86-1.73,7.77-3.36,11.66-5l7.31-2.89Zm101.45-22.07-1.36.87a35.36,35.36,0,0,0-5.4,4.37c-3.47,3.37-6.77,6.91-10.1,10.42-.64.68-1.26,1.39-1.88,2.09-.77.86-1.57,1.69-2.27,2.61l-2.5,3.24c-.69.9-1.33,1.83-2,2.75-2.54,3.55-5.2,7-7.81,10.52-1.19,1.61-2.37,3.23-3.51,4.88q-1.87,2.72-3.81,5.41l-2.22,2.7c-.21.26-.45.5-.68.74l-1.87,2c-.72.77-1.46,1.54-2.2,2.31s-1.59,1.79-2.38,2.69-1.3,1.55-1.94,2.33-1.34,1.61-2,2.45l-2.5,3.36c-.72,1-1.38,2-2.05,3q-3.91,5.64-7.88,11.24c-1.34,1.89-2.61,3.83-3.9,5.76-.64,1-1.23,2-1.85,3s-1,1.76-1.6,2.61c-1.09,1.63-2.2,3.24-3.33,4.85-.94,1.36-2,2.66-3,4-3,3.56-6.14,7-8.87,10.85l-4.58,6.39c-1.33,1.86-2.71,3.67-4.08,5.5-1.27,1.62-2.52,3.26-3.84,4.84-1.48,1.78-2.92,3.61-4.49,5.32l-3,3.28c-.64.7-1.32,1.36-2,2l-2.48,2.49c-.88.89-1.83,1.72-2.74,2.57-1.69,1.59-3.38,3.16-5.08,4.73L119.12,269c-.86.8-1.68,1.66-2.52,2.49-1.75,1.73-3.47,3.5-5.19,5.26s-3.4,3.44-5.11,5.16c-1.5,1.51-3.06,3-4.6,4.43s-3.22,3-4.85,4.43c-3.19,2.87-6.56,5.51-9.91,8.19a81.76,81.76,0,0,1-9.9,6.58l-5.11,2.81c-2.84,1.56-5.69,3.12-8.55,4.65S57.78,316,55,317.39c-1.39.7-2.77,1.43-4.2,2.05l-4.66,2-5.37,1.88c-1.71.61-3.48,1.05-5.22,1.56-.55.16-1.11.28-1.67.41l-3.51.85c-1.84.45-3.71.79-5.57,1.17q-4.76,1-9.55,1.8c-1.83.31-3.66.68-5.5.94l-5.47.76c-3.67.48-7.35,1-11,1.47-1.89.26-3.79.52-5.68.81l1.56-1.25c1-.81,2-1.65,3-2.53,2-1.89,4.05-3.75,6.14-5.56,1-.9,2.11-1.78,3.17-2.65a31.86,31.86,0,0,0,2.9-2.55,59.76,59.76,0,0,0,4.9-6.08c1.92-2.44,3.85-4.86,5.74-7.32-.05.08-.11.15-.16.22,2.41-3.13,4.82-6.26,7.06-9.52l3.82-5.54c1.13-1.64,2.33-3.23,3.52-4.83,1.14-1.39,2.29-2.78,3.41-4.19.71-.88,1.45-1.75,2.12-2.66l2-2.73c1.18-1.59,2.33-3.2,3.48-4.81,1-1.45,2.16-2.86,3.25-4.29,3-3.72,6.15-7.38,9.23-11.07,2.73-3.27,5.39-6.58,8.14-9.82,1.52-1.77,3-3.6,4.57-5.31l4.87-5.28c1.62-1.75,3.24-3.48,4.84-5.24s3-3.44,4.65-5.09l4.45-4.58c1.22-1.25,2.47-2.46,3.71-3.68,2.53-2.51,5.12-5,7.7-7.42.51-.49,1.07-.95,1.6-1.42l2.89-2.57c1.22-1.09,2.5-2.09,3.76-3.12l8.3-6.74,5.51-4.25c.68-.53,1.4-1,2.1-1.52l4.2-3c1.64-1.18,3.3-2.33,5-3.5s3.58-2.54,5.39-3.77l7.1-4.86c1.91-1.3,3.87-2.52,5.8-3.78,1.63-1.07,3.27-2.1,4.93-3.13,2.05-1.27,4.13-2.5,6.16-3.8l6.82-4.38c1.65-1.06,3.29-2.14,5-3.17l7.49-4.61c1.53-.94,3-1.9,4.6-2.76q6.81-3.74,13.63-7.46c1.72-.93,3.43-1.91,5.17-2.79l8.27-4.18c4.57-2.3,9.2-4.47,13.77-6.75l5.26-2.64c.81-.4,1.61-.82,2.43-1.2l8.56-3.91,3.6-1.49Zm-54.19,67.37-.13.18.13-.18ZM32.83,277.25a1.83,1.83,0,0,0-.13.16,1.83,1.83,0,0,1,.13-.16Zm-44.24,52.6-.18.14.18-.14ZM-13.5,334l-.06,0,.06,0Zm24.32-26.87,0,0h0l0,0Z" transform="translate(24.35 39.3)"/><path class="cls-6" d="M27.88,312a1.61,1.61,0,1,0,1.61-1.6,1.62,1.62,0,0,0-1.61,1.6Z" transform="translate(24.35 39.3)"/><path class="cls-6" d="M41,289.78a2.17,2.17,0,1,0,2.16-2.17A2.18,2.18,0,0,0,41,289.78Z" transform="translate(24.35 39.3)"/><path class="cls-6" d="M55.58,268.61a1.64,1.64,0,1,0,3.27,0,1.64,1.64,0,0,0-3.27,0Z" transform="translate(24.35 39.3)"/><path class="cls-6" d="M76,275.18a1.61,1.61,0,1,0,1.6-1.61,1.62,1.62,0,0,0-1.6,1.61Z" transform="translate(24.35 39.3)"/><path class="cls-6" d="M66.93,302.55a1.86,1.86,0,1,0,1.86-1.86,1.87,1.87,0,0,0-1.86,1.86Z" transform="translate(24.35 39.3)"/><path class="cls-6" d="M90.57,284.55a1.61,1.61,0,1,0,1.61-1.61,1.63,1.63,0,0,0-1.61,1.61Z" transform="translate(24.35 39.3)"/><path class="cls-6" d="M90.67,266a1.61,1.61,0,1,0,1.6-1.61,1.62,1.62,0,0,0-1.6,1.61Z" transform="translate(24.35 39.3)"/><path class="cls-6" d="M87.37,241.39a1.61,1.61,0,1,0,1.61-1.6,1.62,1.62,0,0,0-1.61,1.6Z" transform="translate(24.35 39.3)"/><path class="cls-6" d="M107.87,225.87a1.61,1.61,0,1,0,1.6-1.6,1.62,1.62,0,0,0-1.6,1.6Z" transform="translate(24.35 39.3)"/><path class="cls-6" d="M116.9,237.11a1.64,1.64,0,1,0,1.63-1.81,1.75,1.75,0,0,0-1.63,1.81Z" transform="translate(24.35 39.3)"/><path class="cls-6" d="M108,262a1.61,1.61,0,1,0,1.61-1.6A1.62,1.62,0,0,0,108,262Z" transform="translate(24.35 39.3)"/><path class="cls-6" d="M134.41,210.81a1.61,1.61,0,1,0,1.6-1.6,1.62,1.62,0,0,0-1.6,1.6Z" transform="translate(24.35 39.3)"/><path class="cls-6" d="M137,191.57a1.95,1.95,0,1,0,1.94-1.94,2,2,0,0,0-1.94,1.94Z" transform="translate(24.35 39.3)"/><path class="cls-6" d="M153.81,177.92a1.61,1.61,0,1,0,1.61-1.61,1.62,1.62,0,0,0-1.61,1.61Z" transform="translate(24.35 39.3)"/><path class="cls-6" d="M170.89,168a2.46,2.46,0,1,0,2.46-2.45,2.48,2.48,0,0,0-2.46,2.45Z" transform="translate(24.35 39.3)"/><path class="cls-6" d="M157.16,201.45a1.93,1.93,0,1,0,1.93-1.92,1.94,1.94,0,0,0-1.93,1.92Z" transform="translate(24.35 39.3)"/><path class="cls-6" d="M68,195.5a1.61,1.61,0,1,0,1.6-1.61A1.62,1.62,0,0,0,68,195.5Z" transform="translate(24.35 39.3)"/><path class="cls-6" d="M82.82,178.27a1.61,1.61,0,1,0,1.6-1.61,1.62,1.62,0,0,0-1.6,1.61Z" transform="translate(24.35 39.3)"/><path class="cls-6" d="M101.31,169.63a1.61,1.61,0,1,0,1.61-1.61,1.63,1.63,0,0,0-1.61,1.61Z" transform="translate(24.35 39.3)"/><path class="cls-6" d="M88.46,201.5a1.61,1.61,0,1,0,1.6-1.6,1.62,1.62,0,0,0-1.6,1.6Z" transform="translate(24.35 39.3)"/><path class="cls-6" d="M45.91,221.31a1.61,1.61,0,1,0,1.6-1.6,1.62,1.62,0,0,0-1.6,1.6Z" transform="translate(24.35 39.3)"/><path class="cls-6" d="M26.81,246.72a1.61,1.61,0,1,0,1.61-1.61,1.62,1.62,0,0,0-1.61,1.61Z" transform="translate(24.35 39.3)"/><path class="cls-6" d="M91.45,189.92a1.61,1.61,0,1,0,1.61-1.61,1.62,1.62,0,0,0-1.61,1.61Z" transform="translate(24.35 39.3)"/><path class="cls-6" d="M116.5,172.53a1.61,1.61,0,1,0,1.6-1.61,1.62,1.62,0,0,0-1.6,1.61Z" transform="translate(24.35 39.3)"/><path class="cls-6" d="M130.8,153.85a1.61,1.61,0,1,0,1.6-1.6,1.62,1.62,0,0,0-1.6,1.6Z" transform="translate(24.35 39.3)"/><path class="cls-6" d="M59.54,223.13a1.61,1.61,0,1,0,1.61-1.61,1.62,1.62,0,0,0-1.61,1.61Z" transform="translate(24.35 39.3)"/><path class="cls-6" d="M28.19,263.48a1.61,1.61,0,1,0,1.61-1.6,1.62,1.62,0,0,0-1.61,1.6Z" transform="translate(24.35 39.3)"/><path class="cls-6" d="M151.49,148.32a1.61,1.61,0,1,0,1.6-1.61,1.62,1.62,0,0,0-1.6,1.61Z" transform="translate(24.35 39.3)"/><path class="cls-6" d="M173.91,137.4a1.65,1.65,0,1,0,1.65-1.65,1.66,1.66,0,0,0-1.65,1.65Z" transform="translate(24.35 39.3)"/><path class="cls-7" d="M263,616.64c-3.47,0-6.86.2-9.72.4-4.1.28-8.59.83-14.12,1.75-3.37.56-6.14,1.14-8.71,1.82L225.27,622l-5.4,1.42c-.71.19-1.43.45-2.12.69l-1.05.36-6.76,2.24a149.06,149.06,0,0,0-18.45,7.51,109,109,0,0,0-22.72,15.3c-3.66,3.12-7.07,6.52-9.63,9.13-3.27,3.32-6.47,6.91-9.52,10.68-2.54,3.12-5.09,6.59-8.28,11.24-.58.84-1.12,1.73-1.65,2.59l-.81,1.31-3.23,5.12c-1.68,2.64-3.16,5.44-4.65,8.3a121.82,121.82,0,0,0-5.57,12.77c-.83,2.18-1.79,4.77-2.61,7.41L119.12,730c-.55,1.81-1.05,3.67-1.53,5.47l-.51,1.9-.94,3.47-.74,2.73c-.08.29-.17.58-.25.87-.18.62-.37,1.26-.5,1.9l-2.22,11c-.5,2.5-.9,4.6-1.21,6.75l-.23,1.56-1.6,11.12c-.41,2.79-.72,5.63-1,8.37l0,.33-.36,3.32-.37,3.32-.12,1.09c-.09.74-.19,1.51-.24,2.26-.11,1.64-.23,3.28-.34,4.92-.3,4.2-.61,8.54-.8,12.81-.08,1.88-.18,3.76-.27,5.64-.21,4.41-.44,9-.53,13.45q-.07,3.09-.16,6.18c-.11,4.37-.23,8.89-.24,13.33,0,2.16,0,4.32,0,6.48,0,4.41-.07,9,0,13.44q0,3.36.08,6.71c.05,4.4.1,8.95.22,13.42.08,3.25.16,6.51.25,9.76s.16,6.5.25,9.76c.11,4.29.3,8.65.49,12.86q.15,3.16.28,6.33c.16,4.18.43,8.42.68,12.52.13,2.2.27,4.41.39,6.61.25,4.46.56,9,.86,13.38,2.07,30-1.71,58.67-.29,88.64C227.79,1031,346.63,1084.88,467.3,1099a554.42,554.42,0,0,0,290.1-44.86c9.9-4.46,20.16-9.64,26-18.76,5.18-8,6.2-18.11,5.49-27.65C779.62,883.63,641.82,931,574.78,880.78a84.61,84.61,0,0,1-11.35-11c-1.64-1.88-3.26-3.84-4.83-5.74l-1-1.22c-2-2.44-4-5-5.93-7.44L550.54,854l-1.11-1.46L545,846.72c-1.52-2-3.17-4-4.77-5.86l-2-2.43c-1.39-1.67-2.88-3.31-4.33-4.89-.65-.72-1.31-1.44-2-2.17-1.57-1.75-3.22-3.48-4.81-5.15l-1.49-1.56-.56-.6c-.48-.53-1-1.07-1.52-1.56L519,818.29c-2.44-2.25-4.94-4.45-6.84-6.11-5.59-4.87-10.23-8.71-14.6-12.06s-8.81-6.7-13.81-10.42c-1.34-1-2.73-2-4.07-2.91l-1.33-.93-1-.71c-1.58-1.12-3.2-2.27-4.86-3.33-4.82-3.08-9.81-6.2-14.81-9.29-2-1.24-4.11-2.43-6.13-3.59a105.24,105.24,0,0,1-11.38-7.12,71.1,71.1,0,0,1-6.08-5.49,78.3,78.3,0,0,1-5.34-6.22c-2.56-3.38-5-6.93-7.33-10.36l-1.08-1.58c-1.31-1.91-2.55-3.92-3.75-5.87-.47-.77-1-1.54-1.43-2.31-1.18-1.89-2.28-3.88-3.33-5.81l-1.3-2.36c-1.1-2-2.17-3.91-3.24-5.88l-1.38-2.52c-1.09-2-2.23-4-3.33-5.91L401.18,705c-1.09-1.92-2.15-3.85-3.22-5.79l-1.35-2.44c-1.15-2.09-2.38-4.18-3.57-6.19l-1.15-2c-1.39-2.38-2.92-4.72-4.39-7l-.43-.65a167.5,167.5,0,0,0-10.93-15.23,108.54,108.54,0,0,0-19.72-18.28,156.8,156.8,0,0,0-13.68-8.59l-8.06-4.68a149.65,149.65,0,0,0-15.94-8.33,104.19,104.19,0,0,0-12.56-4.55,100.65,100.65,0,0,0-13.2-2.74c-4.09-.59-8.26-.94-12.29-1.28l-1.53-.13c-2.35-.21-4.74-.27-7.06-.33l-1.7,0-2.45-.08-2.45-.07C264.67,616.65,263.84,616.64,263,616.64Z" transform="translate(24.35 39.3)"/></g></g></g></svg>