<svg xmlns="http://www.w3.org/2000/svg" xmlns:xlink="http://www.w3.org/1999/xlink" viewBox="0 0 470.72 836.84"><defs><style>.cls-1{fill:none;}.cls-2{clip-path:url(#clip-path);}.cls-3{fill:#ffb5a7;}.cls-4{fill:#d77a00;}.cls-5{fill:#16401b;}</style><clipPath id="clip-path"><rect class="cls-1" width="470.72" height="836.84"/></clipPath></defs><g id="Layer_2" data-name="Layer 2"><g id="ëÎÓÈ_1" data-name="ëÎÓÈ 1"><g class="cls-2"><rect class="cls-3" width="470.72" height="836.84"/><path class="cls-4" d="M384.71,326.72l2.53-2.18.16-.12-2.69,2.3Z"/><path class="cls-5" d="M438.69,350c.09-.77.16-1.55.24-2.32.15-1.67.31-3.34.43-5s.25-3.48.32-5.22.16-3.78.2-5.67.09-4,.13-6.07c0-1.58,0-3.16,0-4.73s0-3.42,0-5.13-.05-3.39-.08-5.08-.14-3.59-.24-5.38c-.07-1.37-.15-2.73-.24-4.09s-.17-2.43-.26-3.64c-.05-.67-.08-1.35-.14-2-.32-3.38-.63-6.76-1-10.13-.19-1.78-.38-3.57-.58-5.35s-.45-3.78-.69-5.67c-.78-6.48-1.42-13-2.1-19.54-.38-3.65-.78-7.28-1.19-10.92-.33-2.93-.63-5.88-1-8.78q-.39-2.65-.77-5.34c-.08-.52-.19-1-.29-1.53l-.72-3.73-.57-2.94c-.06-.31-.12-.62-.19-.92q-.71-3.06-1.43-6.11c-.26-1.12-.5-2.26-.8-3.36L426,205.11c-.37-1.35-.76-2.68-1.15-4-.47-1.6-1-3.17-1.47-4.74-.18-.57-.4-1.11-.6-1.66l-.9-2.49c-.17-.46-.35-.9-.53-1.35l-1.28-3.26c-.54-1.35-1.17-2.61-1.76-3.9a39.12,39.12,0,0,0-2-3.74c-.59-1-1.24-1.84-1.88-2.72q-2.62-3.59-5.35-7c-.85-1.06-1.71-2.1-2.57-3.15s-1.59-2-2.4-2.93c-1.81-2.16-3.65-4.27-5.51-6.35-.38-.43-.77-.83-1.16-1.25s-.67-.74-1-1.07l-1.77-1.65c-.49-.44-1-.85-1.48-1.27-1.83-1.55-3.67-3.06-5.57-4.42-.91-.65-1.81-1.3-2.73-1.89s-2-1.32-3-2c-4.19-2.92-8.28-6.06-12.42-9.09q-2.9-2.12-5.86-4c-1.89-1.18-3.82-2.25-5.77-3.23-1.45-.74-2.9-1.52-4.33-2.34s-2.81-1.67-4.22-2.49-2.73-1.5-4.12-2.16c-.66-.32-1.33-.62-2-.91a13.91,13.91,0,0,1-2.26-1.18,2,2,0,0,1-.31-.34h0l.4-.42a10.77,10.77,0,0,1,.92-.75c.38-.26.75-.5,1.13-.73.83-.52,1.69-.93,2.53-1.37l2.72-1.37c.84-.44,1.68-.93,2.51-1.43,1.9-1.12,3.78-2.36,5.68-3.48s3.53-2.19,5.3-3.27a55.59,55.59,0,0,0,5.38-3.51c.39-.3.77-.63,1.16-1l.7-.64c.41-.4.77-.77,1.16-1.21.23-.29.45-.59.66-.91.41-.6.79-1.23,1.17-1.88s.62-1.11.9-1.68c1.2-2.41,2.33-4.87,3.51-7.3.55-1.15,1.13-2.27,1.73-3.38a33.74,33.74,0,0,1,1.81-2.9c.84-1.2,1.69-2.37,2.56-3.54.38-.51.79-1,1.18-1.5l1.63-2.07c1.81-2.31,3.49-4.85,5.18-7.35q1.23-1.78,2.53-3.48a20.74,20.74,0,0,1,2.91-3c1-.87,1.93-1.73,2.91-2.57s1.86-1.63,2.77-2.51a39.93,39.93,0,0,0,2.89-3.26c.88-1.06,1.73-2.16,2.56-3.3s1.59-2.24,2.39-3.35c.36-.49.72-1,1.08-1.46s1-1.14,1.46-1.68.85-.84,1.27-1.25l1.51-1.44c.82-.76,1.63-1.53,2.45-2.28,1.9-1.7,3.89-3.2,5.77-5,1.08-1,2.15-2.09,3.19-3.2.52-.54,1-1.09,1.54-1.64,2.3-1.72,4.6-3.45,6.91-5.14,1.12-.83,2.25-1.67,3.39-2.46l1.14-.78L441,18a1.33,1.33,0,0,0,.42-.43c.93-.58,1.88-1.1,2.83-1.57a70.37,70.37,0,0,1,6.88-2.52,1.91,1.91,0,0,0,1-2c-.06-.88-.64-1.53-1.27-1.32-1.35.44-2.7.9-4.05,1.36A34,34,0,0,0,441.51,14c-.8.45-1.59.95-2.38,1.47-1.29.7-2.58,1.43-3.87,2.15-.82.45-1.63.92-2.44,1.43s-1.7,1.13-2.53,1.75-1.56,1.32-2.32,2-1.46,1.4-2.19,2.11c-1.82,1.31-3.64,2.61-5.5,3.81-2.23,1.44-4.48,2.84-6.65,4.54-.53.42-1.07.81-1.59,1.28l-1.73,1.61c-.45.41-.87.87-1.3,1.33s-1,1.09-1.51,1.68L405.94,41c-.18.21-.35.46-.51.68-.32.42-.64.83-.95,1.25q-1.38,1.83-2.73,3.69c-1.82,2.5-3.73,4.84-5.62,7.23l-.75,1q-1.62,1.43-3.2,2.93a27.16,27.16,0,0,0-2.94,3.67c-1,1.41-2,2.87-2.95,4.32-.71,1-1.43,2.06-2.15,3.07-.86,1.19-1.75,2.32-2.63,3.46l-.77,1c-1.94,1.91-3.95,3.68-5.88,5.62-1.3,1.3-2.57,2.65-3.86,4-.66.67-1.32,1.38-2,2l-2,1.83c-.63.53-1.26,1.06-1.9,1.58s-1.18.9-1.77,1.34c-1.23.92-2.5,1.71-3.77,2.49l-1.87,1.14c-.69.41-1.37.84-2.07,1.21l-2.11,1.14c-.7.38-1.42.69-2.12,1-.9.43-1.79.85-2.69,1.26a24.29,24.29,0,0,1-2.73,1c-.94.31-1.87.58-2.8.84a26.42,26.42,0,0,1-3,.53l-1.3.1c-.54,0-1.08,0-1.61,0s-1,0-1.52,0l-.93,0a10.73,10.73,0,0,1-2.09-.41,15.88,15.88,0,0,1-4.07-2l-2.22-1.57.3.23c-.88-.69-1.78-1.34-2.64-2.07-1.14-1-2.28-2-3.41-3-.8-.71-1.57-1.47-2.34-2.25-.95-1-1.91-1.94-2.85-2.94l-1.65-1.75c-.39-.42-.76-.88-1.14-1.32-1-1.12-1.91-2.28-2.85-3.44-.79-1-1.6-1.93-2.41-2.89-.31-.36-.61-.75-.94-1.1l-1.9-2A39,39,0,0,0,299,69c-1-.73-2-1.44-3-2.12l-1.84-1.21c-.53-.35-1.08-.65-1.62-1-2-1.2-4-2.4-6.08-3.48s-4.39-2.29-6.6-3.39l-3.43-1.73c-.38-.19-.77-.35-1.16-.52L272.8,54.4c-1.05-.47-2.13-.84-3.2-1.25s-2.33-.87-3.49-1.3c-2.11-.78-4.25-1.45-6.39-2.08s-4.44-1.28-6.67-1.84c-1.09-.27-2.18-.56-3.27-.8s-2.37-.51-3.56-.74-2.35-.52-3.53-.71l-1.94-.3c-.55-.09-1.09-.2-1.64-.26-1.11-.11-2.21-.25-3.32-.32s-2.28-.2-3.43-.22-2.23-.08-3.35,0-2.42.12-3.63.21c-2.65.22-5.3.44-7.95.78s-5,.74-7.53,1l-3.76.36c-1.19.1-2.37.29-3.56.45q-3.95.49-7.89.88c-1,.08-1.95.15-2.92.21-1.31.08-2.61.12-3.91.16-2.23.06-4.46.06-6.68,0s-4.72-.09-7.08-.1-4.66,0-7,0q-7.29-.06-14.59-.23c-4.69-.11-9.41,0-14.12.21-2.38.09-4.76.24-7.13.38-1.12.06-2.25.15-3.37.23s-2.42.26-3.62.4-2.2.34-3.29.52-2.3.46-3.45.7c-.57.12-1.14.29-1.71.44l-1.72.45-3.57.94c-2.3.6-4.59,1.29-6.88,2s-4.85,1.44-7.27,2.2S91.64,58.23,89.27,59s-4.75,1.52-7.12,2.29S77.39,62.77,75,63.49s-4.52,1.16-6.77,1.76c-4.63,1.22-9.25,2.52-13.89,3.62-2.23.53-4.46,1.06-6.7,1.64l-3.28.87c-1.08.27-2.16.47-3.23.7-2.33.51-4.66,1-7,1.48a50.15,50.15,0,0,0-6.1,1.57,19.45,19.45,0,0,0-2.11.91c-.28.15-.55.31-.82.48a2.93,2.93,0,0,0-.48.39,2.9,2.9,0,0,0-.45,1,1.83,1.83,0,0,0,.09,1.37,4,4,0,0,0,.37.6l.56.43a10.63,10.63,0,0,0,2.25,1.2c.9.41,1.8.8,2.71,1.17.69.28,1.4.48,2.1.71l2.87.89c3.21,1,6.43,1.93,9.65,2.89,4.25,1.34,8.46,2.85,12.61,4.61,1.05.45,2.1.89,3.15,1.38l3.61,1.69c2.18,1,4.36,2.09,6.48,3.36s4.29,2.64,6.46,3.88c1.05.59,2.09,1.17,3.15,1.72l1.68.87c.66.34,1.35.62,2,.93a110,110,0,0,0,12.62,4.85c2.27.72,4.53,1.45,6.82,2.1,1.12.32,2.24.64,3.37.91s2.52.6,3.78.89c2.38.53,4.76,1,7.16,1.36s4.76.66,7.15.95,4.71.48,7.07.64c1.1.08,2.19.13,3.29.19.48,0,1,0,1.45,0s1.25,0,1.88,0c2.41,0,4.82-.08,7.24-.21s5.07-.32,7.61-.56c1.87-.17,3.75-.47,5.63-.71s3.69-.53,5.53-.78,3.71-.47,5.56-.71,3.77-.53,5.65-.83c1.73-.28,3.47-.53,5.2-.87q3-.6,5.94-1.17a112.55,112.55,0,0,1,11.18-1.37l-.31,0c4.62-.22,9.25-.49,13.86-.35,2.51.08,5,.13,7.54.1l3.47,0c.5,0,1-.07,1.5-.11s1.14-.08,1.71-.14c1.11-.11,2.22-.21,3.33-.39.55-.09,1.11-.17,1.67-.3s1.33-.31,2-.48c2.21-.57,4.43-1.21,6.63-1.9a65.47,65.47,0,0,0,6.78-2.43c.58-.25,1.16-.48,1.74-.76l1.65-.83c.49-.24,1-.53,1.46-.8s1.17-.72,1.76-1.09c1.28-.82,2.56-1.67,3.85-2.47a33.32,33.32,0,0,1,3.47-1.86l-.05,0a41.63,41.63,0,0,1,7.07-2.3c1.31-.31,2.62-.58,3.94-.8s2.4-.31,3.6-.44q4-.21,8,0c2.4.11,4.79.36,7.18.59,2.55.25,5.1.47,7.64.72a15.5,15.5,0,0,1,1.65.32c.62.13,1.25.25,1.88.35a29.1,29.1,0,0,1,3.41.81,36.39,36.39,0,0,1,5.2,2.32c.91.47,1.8,1,2.68,1.53a26.42,26.42,0,0,1,2.36,1.7c.8.65,1.57,1.39,2.33,2.14a21.08,21.08,0,0,1,2.19,2.48,9.68,9.68,0,0,1,.75,1.39,4.16,4.16,0,0,1,.17.63,3.59,3.59,0,0,1,0,.47l0,.25-.21.5a15.39,15.39,0,0,1-1,1.72l.15-.22-.37.5a10.27,10.27,0,0,1-1.07,1.19c-1.51,1.35-3.07,2.58-4.61,3.87-.65.55-1.28,1.14-1.92,1.73-.79.73-1.59,1.45-2.36,2.24-1.49,1.54-3,3.12-4.49,4.61s-3,3-4.55,4.39L297,131.67l.05,0q-2.71,2.37-5.49,4.53c-1,.76-2,1.44-3,2.09a31.53,31.53,0,0,1-3,1.64h0c-.46.19-.92.41-1.38.57l-.91.33a9.37,9.37,0,0,1-1.16.29c-.56.15-1.13.21-1.7.31s-1.19.15-1.79.21q-1.54.12-3.09.21c-1.2.07-2.39.05-3.58,0-2.17,0-4.32-.23-6.47-.44s-4.52-.45-6.8-.53-4.76,0-7.14.06-4.6.17-6.9.2-4.87.08-7.31,0-4.73-.08-7.09-.14c-1,0-2-.05-2.94,0l-1.93.12c-.61,0-1.22.15-1.83.23-.86.12-1.73.21-2.6.37l-3.91.75L211,143.64l-5.76,1.1c-.54.1-1.08.15-1.62.23s-.9.12-1.35.16l-3.26.32.27,0-3.74.33c-2.11.15-4.22.23-6.34.34l-6.78.36c-2.19.12-4.38.22-6.57.38-2.49.18-5,.36-7.46.5l-7,.38c-2.36.12-4.72.21-7.07.4-4.84.38-9.68.77-14.52,1.31l-4.25.47c-1.08.12-2.17.2-3.26.36l-8,1.23c-.71.11-1.42.25-2.12.38l-5.28,1c-2.23.4-4.45.94-6.68,1.46l-3.74.85c-1,.22-1.91.55-2.87.83-2.34.67-4.68,1.33-7,2.08s-4.81,1.51-7.21,2.34c-3.73,1.29-7.46,2.55-11.16,4A75.89,75.89,0,0,0,69,169c-1.34.75-2.66,1.6-4,2.43l-3.55,2.2c-.27.17-.53.38-.8.57L58.07,176l-2,1.46c-.21.15-.42.29-.62.46l-4,3.38L49.45,183c-.29.25-.59.49-.88.76l-3.26,3-3.23,3c-.28.25-.55.54-.83.82-.83.83-1.67,1.66-2.5,2.5s-1.59,1.57-2.37,2.41l-3.56,3.8c-1.05,1.13-2.08,2.33-3.12,3.49s-2,2.3-3,3.46c-1.76,2-3.5,4.13-5.19,6.29l-.92,1.18c-.3.37-.6.75-.87,1.16a5.15,5.15,0,0,0-.63,1.16,2,2,0,0,0-.22,1.06,1.31,1.31,0,0,0,.54,1,1.51,1.51,0,0,0,.84.54l.59.09,1.14,0c.44,0,.88-.09,1.33-.15,1-.15,2-.33,3-.45l6.35-.82,7.79-.42c.69,0,1.38,0,2.07,0l5.4.12c.76,0,1.52,0,2.28.06l3.87.29c2.22.18,4.46.3,6.68.54l8.83,1c.61.07,1.22.16,1.84.25l5.2.75c4.45.65,8.89,1.41,13.31,2.25,2.3.44,4.61.88,6.9,1.37s4.75,1,7.12,1.48l4.44.87c1,.19,1.93.29,2.89.43l4.18.6c.21,0,.44,0,.66.06l2.55.19,3.5.26c.8.06,1.61,0,2.41,0s1.6,0,2.4-.06c1.71-.07,3.42-.26,5.13-.49,3.22-.43,6.44-1.25,9.65-2l6.79-1.52c2.25-.51,4.5-.87,6.75-1.41l3.72-.89,1.61-.39c.9-.21,1.79-.5,2.67-.77a46.44,46.44,0,0,0,15.95-8.51c1.23-.95,2.43-2,3.64-3,.84-.7,1.65-1.48,2.48-2.23s1.72-1.6,2.57-2.43,1.8-1.74,2.71-2.6c1.08-1,2.15-1.95,3.25-2.84a42.06,42.06,0,0,1,7.71-4.92A32.4,32.4,0,0,1,205,192a30.14,30.14,0,0,1,4-.95c1.35-.25,2.7-.43,4.06-.61l2.41-.33,2-.26c.43,0,.87-.09,1.3-.17l3.45-.62c.92-.17,1.84-.4,2.76-.6,2.13-.48,4.25-1,6.37-1.57.88-.23,1.76-.5,2.63-.75s1.93-.55,2.89-.89l2-.74c.27-.1.54-.2.81-.33l1.92-.9c.4-.19.81-.36,1.2-.58q3.19-1.74,6.39-3.51c1.79-1,3.61-1.88,5.43-2.75l-.06,0,.25-.12.22-.1,1.21-.58-.09,0,.17-.08.22-.1c1.35-.65,2.71-1.29,4.05-2,.66-.36,1.33-.7,2-1.12s1.5-.93,2.23-1.44c2.77-1.95,5.53-3.95,8.28-6,1.21-.88,2.4-1.79,3.6-2.69s2.72-2,4.07-3,2.43-1.8,3.64-2.73l1.46-1.12a8.77,8.77,0,0,1,1.45-.88l1.36-.55c-.11.24-.24.47-.37.7-.25.45-.51.88-.79,1.29-1.45,2.13-2.89,4.25-4.33,6.4-1.13,1.67-2.2,3.44-3.29,5.17s-2.07,3.43-3.1,5.16-2.09,3.58-3.13,5.38c-.92,1.6-1.83,3.2-2.72,4.83-1.07,1.94-2.12,3.89-3.2,5.81l-2.15,3.84c-.39.69-.76,1.42-1.18,2.08l-3.61,5.78c-1.63,2.38-3.26,4.76-4.91,7.1a85.13,85.13,0,0,1-12,13.76l0,0c-1,.86-1.95,1.74-3,2.51l-1.88,1.43c-1,.78-2.05,1.58-3.09,2.32l-3.88,2.77c-1.23.88-2.48,1.7-3.72,2.55l-2.87,1.93L223.78,236c-.47.31-1,.57-1.44.86L220,238.19c-.29.17-.58.35-.87.5L214.68,241c-1.1.56-2.21,1.09-3.32,1.63s-2.15,1.19-3.22,1.81l-2.25,1.33c-.72.41-1.42.87-2.12,1.34a73,73,0,0,0-9.14,7.2c-1.24,1.15-2.44,2.37-3.66,3.57-1.74,1.73-3.46,3.48-5.15,5.31a100.4,100.4,0,0,0-11.51,15.65q-1.56,2.56-3.14,5.13c-.71,1.17-1.39,2.4-2.08,3.61-.82,1.41-1.63,2.83-2.44,4.24-.26.45-.49.94-.73,1.4-.6,1.17-1.21,2.33-1.81,3.49s-1.13,2.11-1.64,3.22L159.62,306c-1.41,3.05-2.75,6.17-4.11,9.26s-2.66,5.94-4,8.91c-.5,1.1-1.06,2.16-1.58,3.23l-2.45,4.95c-.22.46-.47.91-.7,1.36l-1.53,2.93c-.69,1.31-1.37,2.64-2.07,3.95q-2.33,4.36-4.66,8.72-1.47,2.75-2.95,5.49c-.64,1.19-1.21,2.46-1.81,3.69q-1.19,2.42-2.35,4.83c-.74,1.51-1.42,3.07-2.14,4.6-.51,1.12-1,2.26-1.56,3.35l-3,6c-1.52,3-3.1,6-4.66,9-1.34,2.59-2.73,5.12-4.09,7.69-.84,1.59-1.69,3.18-2.53,4.78-.64,1.21-1.3,2.41-1.92,3.65-1.57,3.17-3.15,6.33-4.68,9.55s-3,6.19-4.51,9.26c-1.11,2.26-2.26,4.49-3.4,6.73-1,2-2,4.08-3.1,6l-.13.17a2.24,2.24,0,0,0-.45,1.09,2,2,0,0,0,.19,1.14.35.35,0,0,0,0,.08,1,1,0,0,0,.71.55,1.15,1.15,0,0,0,1-.69l.45-.76.35-.45c.43-.47.86-.92,1.31-1.34.62-.54,1.23-1.05,1.86-1.53s1.4-1,2.11-1.44c.88-.57,1.76-1.11,2.66-1.59l5.2-2.81,7.44-4c2.25-1.22,4.47-2.55,6.74-3.65l8.77-4.22q7-3.07,14.09-6.07l1.86-.8a14.8,14.8,0,0,0,1.36-.6q2.16-1.19,4.33-2.36c.84-.47,1.68-1,2.51-1.49l3.92-2.38c.47-.28.93-.61,1.39-.91l2.16-1.41c1.16-.77,2.31-1.64,3.46-2.47,2.1-1.52,4.19-3.1,6.22-4.87,1.35-1.17,2.68-2.43,4-3.69.85-.82,1.7-1.64,2.52-2.53l7.11-7.71c.64-.7,1.27-1.43,1.9-2.14l4.37-4.92c3.75-4.21,7.47-8.47,11.14-12.82l3.68-4.36c2.1-2.49,4.22-4.95,6.27-7.53,2.46-3.11,4.79-6.46,7.06-9.85,1.22-1.81,2.4-3.68,3.56-5.56.58-.95,1.15-1.91,1.73-2.87s1.17-1.93,1.72-2.93l5-9.09c.19-.36.37-.75.55-1.12.43-.89.87-1.78,1.3-2.66,1-2.05,2-4.11,3-6.16.37-.75.7-1.51,1-2.29.94-2.24,1.89-4.47,2.83-6.7l1.07-2.52c.18-.43.38-.86.54-1.3q.93-2.46,1.87-4.94l2-5.36c.12-.3.22-.62.33-.93l1-3,1.68-5c.74-2.18,1.41-4.4,2.15-6.58s1.53-4.16,2.35-6.19c1.31-3.09,2.73-6.07,4.23-9q1.27-2.46,2.54-4.92,2.24-4.33,4.49-8.67c1-1.87,1.94-3.72,2.86-5.63s1.63-3.65,2.37-5.53c.45-1.12.84-2.28,1.25-3.43,1.13-3.2,2.17-6.47,3.23-9.72,1-3,2-6,3.13-9q1.78-4.91,3.51-9.85c.47-1.36.92-2.75,1.37-4.13.27-.83.5-1.69.74-2.53.07-.22.12-.44.17-.67l.54-2.26c.16-.65.29-1.3.43-1.95.16-.8.35-1.59.5-2.38.32-1.66.65-3.33,1-5,.19-1,.37-1.95.56-2.93v.6c0,.89,0,1.79,0,2.68,0,1.46-.05,2.92-.08,4.37q-.27,5.13-.51,10.25c-.06,1.1-.11,2.19-.16,3.29,0,.42-.05.85-.05,1.28,0,2.12-.06,4.25-.08,6.37,0,.73,0,1.46,0,2.19,0,.39,0,.8.05,1.19q.15,3.72.29,7.43c.15,3.55.41,7.08.63,10.61.42,6.8.81,13.6,1.24,20.4.22,3.44.51,6.86.78,10.29s.63,7,.95,10.42.67,6.71,1,10.07.63,6.67.94,10c.29,3.18.56,6.37.84,9.56.05.53.14,1.07.21,1.6l.45,3.45c.14,1.09.28,2.19.43,3.28s.32,2.24.49,3.35q.48,2.94,1,5.83c.41,2.15.91,4.26,1.44,6.34.65,2.59,1.38,5.13,2.14,7.64,1,3.26,2,6.52,3,9.75l1.59,5c.43,1.38.93,2.72,1.39,4.08.61,1.76,1.21,3.53,1.82,5.3.38,1.1.79,2.18,1.18,3.26q2.7,7.41,5.39,14.82c.8,2.22,1.67,4.38,2.51,6.56s1.61,4.09,2.43,6.13q2.41,6.06,4.93,12c.88,2.09,1.78,4.17,2.63,6.29q1.45,3.58,2.89,7.17c1,2.86,2.11,5.7,3.12,8.59l3.27,9.31c.55,1.58,1.07,3.19,1.6,4.77.39,1.15.79,2.29,1.13,3.48l1.74,6c.36,1.24.74,2.47,1.08,3.73l3.1,11.26c.25.93.48,1.88.71,2.82.54,2.16,1.07,4.33,1.61,6.49.28,1.13.53,2.29.79,3.44.36,1.6.76,3.18,1.08,4.8l1.08,5.49c.12.6.2,1.23.31,1.84.14.87.29,1.74.44,2.62.47,3,.93,6.1,1.45,9.13a6.73,6.73,0,0,0,.94,2.79,1.09,1.09,0,0,0,.74.54,1.26,1.26,0,0,0,.84-.24l.23-.2a2.93,2.93,0,0,0,.78-1,13.22,13.22,0,0,0,1.1-2.08c.35-.73.65-1.57.95-2.34.54-1.45,1-3,1.4-4.48.55-2,.94-4.07,1.35-6.11.17-.82.32-1.62.46-2.45.4-2.26.79-4.53,1.19-6.81.06-.32.1-.65.15-1l.42-3.08q.42-3.13.86-6.29c.11-.77.18-1.64.27-2.42.13-1.18.24-2.37.36-3.55.23-2.4.4-4.81.54-7.21s.22-5.09.3-7.64c.06-2.29.13-4.6.14-6.89q0-6.19,0-12.38c0-.85,0-1.7,0-2.55-.07-2.18-.13-4.35-.2-6.52-.09-3.05-.14-6.1-.31-9.13q-.39-6.78-.79-13.55c0-.71-.09-1.41-.16-2.11l-.63-6.72-.63-6.61c-.08-.83-.15-1.64-.26-2.45-.61-4.32-1.2-8.64-1.8-13-.13-.88-.23-1.77-.37-2.65l-.81-5q-.89-5.5-1.78-11c-.17-1.06-.4-2.1-.61-3.14l-1.41-7.14q-.59-3-1.18-6c-.15-.76-.29-1.52-.47-2.27l-2.52-11.08c-.56-2.45-1.08-4.91-1.62-7.38-.35-1.6-.69-3.21-1-4.81-.25-1.15-.45-2.34-.67-3.51-.28-1.5-.56-3-.85-4.51s-.51-3-.75-4.45-.4-2.73-.57-4.11c-.2-1.69-.4-3.39-.61-5.08l-.42-3.39c-.08-.58-.14-1.17-.22-1.74-.31-2-.61-4-.92-6.05-.18-1.23-.42-2.44-.65-3.66l-.66-3.44c-.1-.55-.2-1.1-.32-1.64L343,246.83c-.33-1.48-.7-2.94-1.06-4.41-.71-3-1.42-6-2-9-.31-1.58-.62-3.17-.92-4.76s-.6-3.21-1-4.78c-.21-.91-.43-1.83-.64-2.75-.14-.6-.31-1.19-.47-1.78-.45-1.68-.92-3.34-1.4-5-.89-3-1.88-6-2.85-9-.35-1-.73-2.07-1.1-3.1-.43-1.21-.88-2.39-1.33-3.58-.38-1-.79-2-1.2-3s-.94-2.17-1.42-3.25c-.86-1.9-1.83-3.67-2.82-5.43s-2-3.47-3.08-5.13a44.26,44.26,0,0,0-3.38-4.67,22.68,22.68,0,0,0-3.64-3.51,34.9,34.9,0,0,0-4.21-2.66c-.79-.42-1.59-.81-2.37-1.26a15.1,15.1,0,0,1-1.81-1.22,10.17,10.17,0,0,1-1.42-1.5,2.77,2.77,0,0,1-.29-.54,6.73,6.73,0,0,1-.29-1.05,5.69,5.69,0,0,1-.06-.83,35,35,0,0,1,.69-5.19,44.93,44.93,0,0,1,2-6.88,41.44,41.44,0,0,1,2-3.74c.41-.7.84-1.36,1.28-2l.57-.77c.25-.31.5-.59.76-.86s.67-.68,1-1l1.64-1.6,2.77-2.38q1.65-1.44,3.22-3.06c1.65-1.69,3.28-3.4,5-5a5.13,5.13,0,0,1,.7-.48h0l.4.22A16.28,16.28,0,0,1,328,133.7a5.68,5.68,0,0,1,.38.64,14.44,14.44,0,0,1,.62,1.38c1.19,3.16,2.19,6.48,3.2,9.77.43,1.38.86,2.73,1.31,4.09.54,1.64,1.13,3.24,1.71,4.85.49,1.36,1.06,2.65,1.6,4,.61,1.49,1.31,2.9,2,4.34.54,1.16,1.1,2.29,1.66,3.42s1.2,2.46,1.83,3.67c.47.89.94,1.78,1.4,2.67.21.41.41.82.64,1.21l2.55,4.55c1.34,2.39,2.71,4.75,4.09,7.08,2.91,4.91,5.89,9.73,8.78,14.66.9,1.53,1.8,3.05,2.69,4.6s1.65,2.88,2.49,4.29l1.51,2.55c.14.23.3.44.44.66l1.11,1.65q1.41,2.1,2.91,4c1.08,1.39,2.17,2.76,3.29,4.1s2,2.44,3,3.68c2,2.54,3.95,5.2,5.85,7.9q1.54,2.28,3.05,4.61c1,1.58,2,3.19,3,4.77.54.85,1,1.75,1.56,2.63.43.72.84,1.46,1.24,2.22l1.41,2.64c.56,1,1.08,2.16,1.62,3.24.88,1.76,1.71,3.56,2.57,5.33s1.75,3.49,2.64,5.23c.47.91,1,1.79,1.46,2.69s1,1.83,1.48,2.74c.4.75.75,1.54,1.1,2.33.48,1.06,1,2.11,1.43,3.17l1.62,4.34c.55,1.46,1,3,1.54,4.49.42,1.26.82,2.53,1.23,3.8s.95,2.68,1.41,4l1.81,5.22c.15.44.28.9.42,1.35l1.11,3.57q1.29,4.14,2.47,8.36c.41,1.44.83,2.87,1.22,4.32.43,1.64.9,3.26,1.29,4.93l.66,2.83c.14.59.25,1.19.36,1.8.36,1.83.68,3.68,1,5.53.53,3.09,1,6.19,1.6,9.26.62,3.33,1.28,6.64,1.93,9.94.16.82.35,1.62.53,2.42.14.65.27,1.3.42,1.94l1.2,5.15c.35,1.48.71,3,1.09,4.43s.88,2.94,1.36,4.38c.19.56.38,1.1.59,1.64.12.31.25.62.37.92l.23.48c.14.23.28.45.43.66a1.63,1.63,0,0,0,1.61.64,2.1,2.1,0,0,0,.89-.6l.62-.92a9.68,9.68,0,0,0,.56-1.22c.13-.29.25-.59.37-.89.17-.5.33-1,.46-1.51s.2-.79.3-1.19c.2-.78.35-1.56.51-2.36.32-1.64.6-3.3.84-5s.49-3.34.73-5c0-.29.07-.58.11-.88.08-.65.14-1.3.22-1.95M437,339.46c-.09,1.37-.19,2.74-.28,4.12-.05.64-.12,1.29-.18,1.93-.09.94-.18,1.89-.26,2.83-.12,1.24-.29,2.48-.43,3.72s-.3,2.27-.47,3.41c-.2,1.39-.41,2.79-.64,4.19-.09.6-.18,1.21-.29,1.81l-.39,2c-.12.49-.24,1-.35,1.48-.08.32-.17.64-.26.95s-.28.89-.45,1.32l-.09.23a.54.54,0,0,0-.05.11l0,0a2,2,0,0,0-.1.21c-.08-.16-.16-.31-.23-.48s-.17-.4-.25-.61c0,0,0,0,0,0-.44-1.24-.86-2.51-1.27-3.77-.49-1.54-.88-3.17-1.27-4.78-.77-3.12-1.49-6.27-2.18-9.44-.35-1.6-.67-3.23-1-4.85s-.61-3-.9-4.52-.59-3.09-.85-4.64q-.48-2.81-1-5.59c-.53-3-1-6.1-1.74-9.05-.18-.77-.36-1.54-.55-2.31s-.36-1.35-.54-2c-.41-1.54-.83-3.08-1.27-4.6-.9-3.13-1.79-6.27-2.77-9.35q-.81-2.6-1.64-5.19c-.46-1.46-1-2.88-1.48-4.3s-1-2.74-1.45-4.1c-.56-1.56-1.09-3.14-1.63-4.73-.48-1.44-1-2.88-1.47-4.32-.16-.46-.34-.9-.51-1.35l-1.26-3.32c-.15-.4-.29-.83-.47-1.21-.32-.72-.65-1.44-1-2.16s-.75-1.64-1.13-2.47c-.26-.57-.57-1.1-.86-1.63l-2.13-3.89c-.76-1.38-1.49-2.82-2.22-4.24-1.24-2.39-2.37-4.92-3.58-7.35-1.32-2.63-2.64-5.28-4.11-7.75-.73-1.22-1.45-2.45-2.21-3.64s-1.59-2.5-2.38-3.75c-1.46-2.34-3-4.6-4.54-6.82-2-2.85-4-5.62-6.15-8.27q-1.65-2.05-3.28-4.12c-1.14-1.47-2.24-3-3.35-4.53-.38-.56-.75-1.13-1.12-1.69s-.67-.95-1-1.46c-.67-1.13-1.34-2.25-2-3.39q-2.33-4-4.7-8.06c-2.81-4.78-5.71-9.43-8.55-14.18-1.43-2.4-2.84-4.85-4.25-7.28-.77-1.34-1.53-2.7-2.29-4.05s-1.32-2.46-2-3.7c-.55-1.06-1.11-2.11-1.64-3.18-.65-1.3-1.32-2.58-1.94-3.91l-2.09-4.49c-.23-.49-.43-1-.64-1.54l-1-2.32c-.5-1.37-1-2.72-1.5-4.12-.55-1.64-1.1-3.28-1.63-4.94-1.18-3.68-2.32-7.42-3.76-10.88a8.51,8.51,0,0,0-1.74-2.61l-.82-.81a2.81,2.81,0,0,0-1.43-.88,2.91,2.91,0,0,0-2,1c-.42.39-.83.79-1.24,1.19l-2.79,2.7c-1,1-1.94,2-2.93,2.89-1.29,1.13-2.6,2.2-3.89,3.32-.67.58-1.31,1.25-2,1.89-.47.46-.93.93-1.39,1.43a16.8,16.8,0,0,0-1.48,2.05c-.58.89-1.11,1.84-1.65,2.79-.41.72-.79,1.45-1.15,2.21a18.43,18.43,0,0,0-.88,2.25,47.72,47.72,0,0,0-1.58,6.47c-.2,1-.35,2-.47,3.09-.06.52-.09,1.05-.12,1.58a8.6,8.6,0,0,0,.15,2.39,8,8,0,0,0,.52,1.54,5.58,5.58,0,0,0,1,1.37,10.36,10.36,0,0,0,1.58,1.47,34.9,34.9,0,0,0,4.19,2.54,33.76,33.76,0,0,1,4,2.65,28.57,28.57,0,0,1,2.73,2.67c.41.46.83.91,1.21,1.42l1.26,1.75c.88,1.31,1.74,2.66,2.58,4s1.59,2.77,2.37,4.17c.35.63.68,1.28,1,1.93s.7,1.4,1,2.12l1.05,2.37c.4.89.75,1.82,1.12,2.73s.8,2.07,1.18,3.12c.45,1.3.91,2.59,1.37,3.89s.85,2.63,1.28,3.94.8,2.54,1.2,3.81c.77,2.46,1.42,5,2.08,7.53s1.15,5.11,1.64,7.72c.46,2.45.91,4.92,1.42,7.35.25,1.22.49,2.45.76,3.66.33,1.38.64,2.77,1,4.15s.6,2.49.87,3.75q.53,2.47,1.07,5c.22,1,.39,2,.58,3l.87,4.68c.24,1.66.48,3.32.73,5,.19,1.35.36,2.71.52,4.08.38,3.16.71,6.34,1.1,9.5.1.85.21,1.71.31,2.57s.25,1.61.38,2.41c.21,1.35.42,2.7.66,4l1.11,6.18c.19,1.09.43,2.15.66,3.23.62,3,1.22,6,1.88,8.91l2.64,11.86c.14.64.27,1.28.4,1.94q.56,2.87,1.12,5.73,1,5.19,2,10.38.84,5.33,1.7,10.65c.26,1.61.51,3.23.77,4.84.15.92.26,1.86.39,2.79q.88,6.48,1.78,13c.1.69.16,1.37.23,2.07.21,2.33.44,4.67.65,7,.21,2.12.4,4.25.6,6.38.08.81.15,1.62.19,2.45l.78,13.56c.17,3,.22,6.08.31,9.12.06,2.08.13,4.16.19,6.24,0,.94,0,1.89,0,2.84,0,2.95,0,5.9,0,8.86,0,1.08,0,2.16,0,3.23,0,2.22-.08,4.46-.14,6.68,0-.16,0-.32,0-.49-.1,3.37-.23,6.73-.45,10.1-.21,3.17-.53,6.33-.87,9.49-.29,2.72-.7,5.43-1.07,8.14-.14,1.05-.29,2.11-.43,3.17-.11.8-.27,1.6-.41,2.4l-.81,4.69c-.27,1.55-.57,3.1-.88,4.64-.3,1.39-.64,2.76-1,4.13a45,45,0,0,1-1.71,5c-.16.35-.33.7-.5,1,0-.17-.07-.34-.1-.52s-.11-.64-.16-.95c-.46-2.87-.88-5.75-1.37-8.6-.26-1.52-.49-3.06-.79-4.57-.21-1.06-.42-2.12-.64-3.17-.14-.71-.26-1.43-.42-2.12-.69-3-1.36-6-2.11-9s-1.5-6.13-2.33-9.14c-.59-2.14-1.18-4.27-1.78-6.41-.37-1.34-.72-2.69-1.11-4l-3-10.29c-.09-.31-.2-.61-.3-.91l-1-2.91c-.46-1.35-.9-2.7-1.37-4-1.07-3.06-2.12-6.14-3.22-9.18q-1.31-3.59-2.6-7.18c-.55-1.5-1.13-3-1.72-4.41-.73-1.82-1.44-3.66-2.19-5.46l-2.82-6.7q-2.25-5.36-4.42-10.8-2.26-5.66-4.46-11.37-2.24-6.14-4.48-12.27l-1.5-4.09c-.25-.68-.51-1.34-.75-2l-2.61-7.57c-.56-1.62-1.09-3.24-1.61-4.89-.7-2.19-1.42-4.37-2.09-6.58q-1.15-3.84-2.33-7.67c-.22-.74-.42-1.5-.63-2.24q-.71-2.56-1.34-5.18c-.78-3.16-1.36-6.43-1.91-9.71l.06.37c-.62-3.85-1.08-7.78-1.6-11.68-.07-.54-.1-1.11-.15-1.66-.1-1.17-.2-2.35-.31-3.52l-.39-4.37c-.31-3.34-.61-6.69-.95-10s-.71-6.69-1-10.06-.68-6.94-.95-10.42-.56-6.85-.78-10.29c-.43-6.79-.82-13.6-1.26-20.39-.19-2.87-.37-5.74-.56-8.6-.13-2-.18-4.08-.27-6.12-.06-1.34-.12-2.67-.17-4,0-.55,0-1.11,0-1.67l.06-7.25c.17-3.83.33-7.66.51-11.49,0-.93.09-1.85.13-2.78s0-1.82,0-2.73,0-2,0-3c0-1.3,0-2.6-.05-3.9a18.64,18.64,0,0,0-.16-2.26,3.79,3.79,0,0,0-.27-1A1.07,1.07,0,0,0,291,167a.69.69,0,0,0-.69.06.81.81,0,0,0-.37.26c-.11.16-.22.32-.32.5s-.2.44-.29.67a15.59,15.59,0,0,0-.44,1.52c-.23,1-.43,1.95-.63,2.93-.5,2.44-1,4.88-1.49,7.31-.22,1-.43,1.91-.64,2.87s-.43,1.78-.65,2.67c-.48,1.92-1.1,3.78-1.73,5.62-1.26,3.71-2.61,7.36-4,11s-2.64,7.19-3.86,10.85c-1.49,4.42-3,8.86-4.68,13.12-.87,2.07-1.81,4.09-2.84,6l-1.77,3.34c-.85,1.6-1.71,3.19-2.55,4.8l-3,5.68c-1.78,3.4-3.56,6.78-5.18,10.33-1.12,2.45-2.12,5-3.09,7.58s-1.72,5.13-2.6,7.68l-2.61,7.57c-.58,1.67-1.22,3.29-1.85,4.93q-1.26,3.29-2.51,6.55-2.14,5-4.27,10l-.48,1.12c-.16.39-.37.75-.55,1.11l-3.12,6.34c-.41.82-.81,1.64-1.22,2.47-.14.28-.27.56-.41.83l-2.79,5c-.93,1.68-1.84,3.37-2.79,5q-3.56,6.14-7.41,11.87-2.67,3.9-5.47,7.57c-1.9,2.47-3.91,4.77-5.88,7.14-1.56,1.89-3.14,3.76-4.71,5.65-2.91,3.49-5.88,6.88-8.83,10.29-1.17,1.35-2.34,2.67-3.51,4-1.42,1.61-2.82,3.27-4.25,4.84l-5,5.46-2.31,2.53c-.53.59-1.09,1.13-1.64,1.67-1.16,1.17-2.34,2.28-3.54,3.38-1.88,1.68-3.79,3.26-5.75,4.71L166,394.36c-1.54,1.13-3.1,2.14-4.66,3.2-.75.5-1.52.94-2.28,1.41l-3.36,2.08c-.73.46-1.48.85-2.22,1.27l-2.87,1.61c-4.07,1.87-8.15,3.67-12.24,5.48-1.76.79-3.54,1.53-5.3,2.39l-8.15,4c-.56.27-1.13.53-1.68.84l-4.09,2.29c-2,1.15-4.11,2.26-6.17,3.39s-4,2.18-6,3.27l-1.69.91c-.66.36-1.3.75-1.95,1.15s-1.47.92-2.19,1.43l.75-1.46q2.13-4.19,4.2-8.42c.68-1.42,1.37-2.83,2-4.26s1.36-2.92,2.07-4.36l2.78-5.64c.55-1.12,1.13-2.21,1.7-3.31q2.46-4.67,4.91-9.32c1.67-3.15,3.31-6.33,5-9.51,1.55-3,3-6.07,4.55-9.12.48-1,.93-2,1.39-2.95.85-1.85,1.69-3.7,2.54-5.54.6-1.31,1.24-2.59,1.87-3.88.47-1,.95-2,1.43-3,.23-.47.45-1,.69-1.43l4.47-8.39c1.61-3,3.23-6.08,4.82-9.14l2.67-5.15c.7-1.34,1.34-2.72,2-4.08l1.41-2.88c.18-.36.36-.71.53-1.08l2.43-5.45q2.07-4.67,4.12-9.34c1.37-3.12,2.79-6.18,4.2-9.25.46-1,1-1.95,1.44-2.9l2.93-5.7c.15-.29.31-.56.46-.83.49-.86,1-1.72,1.48-2.59s1.1-1.92,1.64-2.88c.27-.47.53-1,.81-1.42q1.54-2.52,3.07-5.06,2.06-3.39,4.23-6.61a94.12,94.12,0,0,1,10.61-12.72l2.77-2.77c.5-.5,1-1,1.49-1.49s1.1-1,1.65-1.55q2.17-2,4.42-3.71c1.47-1.13,3-2.15,4.47-3.15s2.95-1.78,4.43-2.65l1.59-.93c.38-.23.79-.39,1.18-.59,1.15-.56,2.3-1.11,3.44-1.7l4.11-2.08c.36-.18.72-.42,1.07-.63l2.71-1.58c1-.57,1.92-1.22,2.88-1.85s2.11-1.4,3.17-2.12c2.47-1.67,4.93-3.38,7.4-5.1,1-.71,2-1.5,3-2.25l1.62-1.21c.48-.37,1-.8,1.46-1.19.77-.64,1.53-1.3,2.29-2q2.15-2,4.21-4.14c1.33-1.4,2.61-2.9,3.88-4.43,2-2.41,3.88-5,5.74-7.7l2.91-4.18c.31-.44.6-.92.89-1.38.67-1.08,1.35-2.15,2-3.22.33-.52.68-1,1-1.56.47-.83.94-1.65,1.4-2.48.85-1.5,1.71-3,2.55-4.51l3.39-6.17c.89-1.62,1.82-3.18,2.74-4.77.75-1.3,1.5-2.6,2.27-3.89,1-1.61,1.9-3.26,2.89-4.84l3.16-5c.46-.72.95-1.4,1.42-2.1l1.66-2.49c.82-1.17,1.64-2.32,2.38-3.58l.35-.67a14.55,14.55,0,0,0,.6-1.33c.1-.28.2-.57.29-.86s.16-.78.23-1.17a1.83,1.83,0,0,0-.18-1.13,1.64,1.64,0,0,0-.57-.75l-.27-.08-.56.05a9.26,9.26,0,0,0-.94.3,16.54,16.54,0,0,0-3,1.36,29.58,29.58,0,0,0-2.43,1.86c-.91.72-1.83,1.41-2.75,2.1l-3.15,2.38c-2.05,1.54-4.08,3.12-6.13,4.66s-4.28,3.21-6.43,4.78c-1.08.78-2.19,1.51-3.29,2.25-.45.3-.92.54-1.37.8s-1.05.62-1.58.89c-2.44,1.24-4.88,2.43-7.31,3.7-1.07.56-2.13,1.12-3.19,1.72s-2.4,1.38-3.61,2.06l-1.6.9c-.31.17-.62.37-.93.52l-2.89,1.42-2.9,1.09c-.69.26-1.39.46-2.09.67l-2.86.84c-1.06.32-2.14.56-3.21.85-1.82.47-3.63.88-5.44,1.31-.73.16-1.46.28-2.19.41s-1.67.33-2.5.44c-1.86.25-3.73.49-5.59.75-1.22.17-2.43.35-3.64.55a30.2,30.2,0,0,0-7.52,2.28,41.17,41.17,0,0,0-5.68,3.25c-.52.36-1,.73-1.56,1.12s-1.11.82-1.62,1.26l-1.63,1.41c-1.53,1.33-3,2.73-4.53,4.13s-3.11,2.76-4.71,4c-1.24,1-2.48,2-3.74,2.9a50.11,50.11,0,0,1-7.75,4.75c-1.57.72-3.15,1.35-4.75,1.92-.77.27-1.55.5-2.33.73s-1.59.48-2.39.66l-4.77,1.06c-2.52.57-5,1-7.57,1.51-2.34.45-4.67,1-7,1.5l-4.83,1a63.13,63.13,0,0,1-7,1.1c-1.51.11-3,.17-4.52.19-.9,0-1.81,0-2.71-.05l-4.82-.36c-.75-.05-1.49-.11-2.23-.21l-5.06-.7c-2.42-.33-4.82-.85-7.23-1.3s-4.76-1-7.15-1.46-4.7-.87-7-1.29-4.57-.76-6.86-1.12-4.33-.65-6.5-.95-4.28-.61-6.43-.83c-2.44-.25-4.89-.51-7.34-.75-1.4-.15-2.81-.24-4.21-.34l-6.73-.47c-.45,0-.91,0-1.37,0l-4-.06L41.86,214c-.45,0-.88,0-1.33,0l-7.29.44c-.52,0-1,.09-1.57.16l-4.09.55-2.1.3c-1.07.17-2.15.37-3.23.49l-.49,0-.21,0c.43-.55.87-1.08,1.3-1.62s1-1.29,1.58-1.94c.95-1.16,1.91-2.31,2.89-3.43,1.18-1.34,2.35-2.7,3.55-4s2.29-2.58,3.47-3.82c.76-.81,1.52-1.61,2.27-2.42.53-.55,1-1.13,1.57-1.66l4.53-4.5c1-1,2-1.9,3-2.84l3.83-3.53,5.78-4.83c.48-.4.94-.78,1.43-1.13l3.57-2.58c.63-.45,1.24-.95,1.88-1.34l3.06-1.89,3.32-2.06c.62-.38,1.25-.72,1.88-1.08,1.59-.9,3.2-1.73,4.81-2.52A131.87,131.87,0,0,1,88,163.93c1-.34,2-.7,3-1l4.18-1.34,3.34-1.07c1.2-.38,2.4-.7,3.6-1.05l4.21-1.22c.82-.23,1.64-.39,2.47-.58l5-1.14c.75-.17,1.51-.36,2.26-.5l8.22-1.48c.9-.17,1.81-.28,2.71-.42l5-.76c.65-.1,1.3-.17,1.95-.24l5.16-.57c3-.34,6-.61,9-.9l7.28-.58c1-.07,1.9-.09,2.84-.14l4.68-.24c2.41-.12,4.83-.27,7.26-.4,2.22-.13,4.46-.32,6.69-.48s4.68-.26,7-.38,4.42-.27,6.63-.37,4.45-.27,6.68-.49,4.51-.39,6.77-.73c.87-.13,1.74-.27,2.61-.44l2.65-.53c2-.4,3.92-.78,5.89-1.16l5.43-1.06c1.63-.32,3.25-.52,4.88-.75,1-.08,2.06-.17,3.09-.17l3.74.05c1.19,0,2.37,0,3.56,0s2.21,0,3.32,0c2.35,0,4.7-.1,7.05-.21s4.85-.2,7.28-.32c1.19-.05,2.38-.1,3.57-.12s2.23,0,3.34,0c2.3.06,4.59.31,6.88.47a63.38,63.38,0,0,0,6.47.21q3.42-.12,6.86-.51c.42-.05.84-.15,1.26-.22s.59-.11.89-.19a12.93,12.93,0,0,0,2-.65c.75-.32,1.49-.65,2.24-1s1.34-.74,2-1.14a41.58,41.58,0,0,0,3.91-2.72c1.4-1.07,2.77-2.19,4.13-3.36s2.54-2.23,3.8-3.36,2.46-2.28,3.67-3.46c.64-.63,1.28-1.23,1.92-1.85s1.22-1.24,1.83-1.87,1.16-1.23,1.76-1.81l2.19-2q1.4-1.26,2.82-2.46c1-.84,2-1.66,3-2.51.37-.32.72-.66,1.07-1a8.78,8.78,0,0,0,.87-1.1c.28-.37.53-.77.79-1.18a10.75,10.75,0,0,0,1-2c0-.1.05-.2.07-.3a3.22,3.22,0,0,0,.08-.82,5.26,5.26,0,0,0-.11-1.2,7.6,7.6,0,0,0-.82-2.11,14.54,14.54,0,0,0-1.83-2.41c-.84-.93-1.72-1.79-2.61-2.61a30.14,30.14,0,0,0-2.39-1.9,23.73,23.73,0,0,0-3.07-1.92,36.83,36.83,0,0,0-5.9-2.79c-.88-.29-1.75-.57-2.64-.77s-2-.44-3-.69A51.45,51.45,0,0,0,293,91l-6.19-.75c-1.48-.19-3-.38-4.45-.48-1.86-.13-3.73-.17-5.6-.16a46.83,46.83,0,0,0-5.27.45,39.45,39.45,0,0,0-4.87.94,45.81,45.81,0,0,0-4.73,1.44,34.83,34.83,0,0,0-4.69,2.19c-1.64.88-3.22,2-4.82,3.09-.82.54-1.64,1.09-2.47,1.56s-1.71.94-2.57,1.39-1.58.71-2.38,1-1.88.73-2.82,1.09c-1.88.69-3.77,1.24-5.66,1.79s-3.66,1.07-5.5,1.48a44.37,44.37,0,0,1-5.56.74c-1,.07-2,.15-3,.16l-4.07,0c-1.15,0-2.29,0-3.44,0s-2.16-.11-3.24-.13-2.18-.07-3.27-.05-2.44,0-3.66.06-2.27,0-3.41.1-2.43,0-3.64.14c-2.52.2-5,.41-7.55.71s-4.78.68-7.16,1.1c-2.12.38-4.25.7-6.37,1-2.49.35-5,.7-7.46,1-3.13.37-6.26.76-9.38,1.2s-6,.76-9,1c-4.15.27-8.32.54-12.46.46a123.11,123.11,0,0,1-12.75-.83q-3.24-.39-6.48-.83c-2.14-.29-4.28-.72-6.41-1.13-1.12-.21-2.23-.5-3.34-.75s-2.22-.54-3.33-.81-2-.58-3-.87-2-.61-3-.92l.36.12c-2.1-.67-4.21-1.33-6.3-2.09-1.07-.39-2.15-.77-3.21-1.19s-2.43-1-3.63-1.51L84,101.22c-1.2-.56-2.38-1.18-3.57-1.79-1-.53-2-1.13-3-1.7s-2-1.22-3-1.83-1.94-1.16-2.92-1.69l-1.89-1c-.61-.33-1.24-.62-1.86-.93-2.24-1.1-4.51-2.07-6.77-3.09-1.11-.5-2.23-.92-3.35-1.39s-2.25-.86-3.38-1.29c-2.09-.8-4.2-1.48-6.32-2.16-1.46-.47-2.94-.86-4.42-1.27L39.56,82c-2.85-.8-5.72-1.55-8.59-2.3q-1-.3-1.92-.66l-1.44-.54c-.25-.1-.5-.21-.74-.33.34-.22.69-.41,1-.59a29.58,29.58,0,0,1,6-1.86c2.18-.5,4.35-1,6.53-1.41l3.61-.78c1.14-.25,2.29-.57,3.42-.87,2.12-.56,4.25-1,6.37-1.49,4.61-1.05,9.21-2.27,13.82-3.43,2.3-.59,4.62-1,6.92-1.69s4.59-1.32,6.89-2L87.7,62c1.85-.58,3.7-1.08,5.55-1.64,3.71-1.13,7.43-2.25,11.15-3.26l6.27-1.71c1.78-.48,3.57-.91,5.35-1.36s3.63-.87,5.44-1.14c1-.15,1.9-.33,2.84-.44l3.13-.35c4.53-.29,9.06-.57,13.58-.68,2.34,0,4.68-.13,7-.12s4.87.06,7.3.11c4.78.07,9.55.19,14.34.17,2.37,0,4.75,0,7.12.1s4.82.07,7.22.1c1.9,0,3.81,0,5.71-.07.87,0,1.73-.08,2.6-.13s1.54-.08,2.31-.14c3.86-.34,7.72-.77,11.59-1.21,2.16-.16,4.32-.3,6.49-.55s4.37-.51,6.55-.75c1.77-.13,3.54-.26,5.31-.37.73,0,1.47-.08,2.2-.1s1.71-.09,2.56-.06l2.83.08c.41,0,.81.07,1.22.11l1.78.15c1.58.13,3.16.34,4.72.62.82.14,1.65.25,2.46.43l3.14.68c1.5.32,3,.62,4.49,1q2.91.77,5.8,1.59c1.54.44,3.07.92,4.61,1.39s3,1,4.44,1.53l5.38,2.08c3.22,1.28,6.34,2.92,9.48,4.5s6.57,3.37,9.79,5.25c1.38.8,2.77,1.6,4.12,2.48.77.5,1.56,1,2.31,1.51l2.58,1.84c.85.67,1.7,1.33,2.52,2.09.45.42.92.81,1.35,1.27l1.92,2c.87.9,1.69,1.91,2.52,2.87s1.77,2.11,2.65,3.18c1.59,1.92,3.26,3.71,5,5.41.92.91,1.83,1.84,2.77,2.72l1.46,1.37c.54.51,1.12,1,1.68,1.43a72.94,72.94,0,0,0,6,4.66c.64.44,1.27.88,1.92,1.27a15.61,15.61,0,0,0,3.91,1.68,16,16,0,0,0,2.15.43,6.49,6.49,0,0,0,.77,0c.6,0,1.2,0,1.8,0,1.07,0,2.14-.08,3.21-.16a28.56,28.56,0,0,0,3.39-.57,30.83,30.83,0,0,0,3.16-1c.5-.16,1-.33,1.49-.52.67-.26,1.33-.56,2-.86,1-.45,1.94-.92,2.91-1.39.52-.25,1-.48,1.56-.76l2.11-1.13c.58-.32,1.16-.69,1.74-1l1.32-.8c1.27-.78,2.52-1.59,3.78-2.4.53-.35,1.05-.78,1.57-1.16s.85-.66,1.27-1l1.68-1.4c.67-.56,1.31-1.22,2-1.83,1.28-1.21,2.52-2.51,3.76-3.81-.37.76-.73,1.52-1.09,2.29a71.41,71.41,0,0,1-4.34,8.66A14.37,14.37,0,0,1,367,96.86l-.67.64c-.87.72-1.76,1.39-2.65,2-1.05.76-2.14,1.42-3.21,2.12-2.06,1.33-4.11,2.69-6.17,4-1,.64-2,1.33-3,2s-2.09,1.4-3.15,2.07c-.88.56-1.77,1.1-2.67,1.61s-2.09,1.18-3.11,1.89a13.86,13.86,0,0,0-1.32,1,16.15,16.15,0,0,0-1.36,1.38,7.83,7.83,0,0,0-1.05,1.59,3,3,0,0,0-.27,1.24,2.63,2.63,0,0,0,.9,2.08,5.59,5.59,0,0,0,1.51,1c.45.23.92.42,1.38.62.91.4,1.81.79,2.71,1.22a55.33,55.33,0,0,1,5.51,3.07c.79.49,1.57,1,2.37,1.45,1,.61,2.08,1.15,3.12,1.74.6.34,1.22.64,1.83.95s1.43.77,2.13,1.18q2.15,1.23,4.24,2.6c2.82,1.83,5.54,3.93,8.27,6,3.05,2.31,6.13,4.57,9.24,6.73,1.31.92,2.66,1.71,4,2.64s2.66,2,4,3q1.72,1.42,3.42,2.88c.47.4.93.85,1.39,1.28s.92.83,1.35,1.3c2.06,2.23,4.1,4.49,6.07,6.87s4.07,5,6.08,7.48c1.06,1.33,2.1,2.68,3.14,4s1.83,2.49,2.73,3.74a35.25,35.25,0,0,1,2.86,5l1.47,3.27c.32.71.59,1.47.88,2.2l1,2.63,1.44,4.1c.28.78.5,1.62.75,2.42.19.65.38,1.3.56,1.95.4,1.41.81,2.81,1.18,4.22.55,2.07,1.11,4.14,1.66,6.22.27,1,.51,2.1.75,3.16l1.47,6.44c.26,1.15.46,2.35.68,3.52l1,5.21c.23,1.72.47,3.44.71,5.15.21,1.5.37,3,.54,4.52.38,3.48.76,7,1.13,10.43s.68,6.74,1,10.11c.35,3.57.74,7.13,1.12,10.69.33,3.07.73,6.13,1.1,9.19.22,1.78.39,3.57.58,5.35.15,1.43.31,2.86.44,4.29q.27,2.92.55,5.85c0,.49.07,1,.1,1.49.1,1.38.19,2.77.29,4.16s.18,2.73.24,4.1c.09,1.79.19,3.58.23,5.38.06,3.4.11,6.8.09,10.21,0,1.58,0,3.16,0,4.74,0,1.88-.09,3.75-.13,5.63C437.27,334.51,437.21,337,437,339.46ZM417.48,37l-.21.19ZM396.2,60.13l-.16.14ZM351.75,96.46l-.31.14Zm-33,270.2-.09-.21Zm21.56-248.6,0-.09Zm-11.81,81s0-.07,0-.11S328.46,199,328.47,199Zm.59-63.09-.06-.14ZM328,133.67c0-.07-.09-.13-.13-.19S327.91,133.6,328,133.67Zm-8.51,48.24-.05-.07Zm.77-73.19v0h0Zm0-.8s0-.08,0-.13S320.16,107.88,320.17,107.92ZM305,167.24l-.07-.1Zm0-7.72-.06.27Zm-18.25,20.85s0,.09,0,.13S286.72,180.41,286.73,180.37Zm-61.33-73.6h0Zm-23.74,86.56-.1,0Zm-.13.06-.05,0Zm4.55-143.13h0ZM129.73,223.72l-.25,0Zm-98.48-144-.14,0ZM432.92,367.49l0-.07.09-.23,0-.08Z"/></g></g></g></svg>