<svg xmlns="http://www.w3.org/2000/svg" xmlns:xlink="http://www.w3.org/1999/xlink" viewBox="0 0 658.41 902.66"><defs><style>.cls-1{fill:none;}.cls-2{clip-path:url(#clip-path);}.cls-3{fill:#ffcb8a;stroke:#000;stroke-miterlimit:10;stroke-width:0.75px;}.cls-4{fill:#f7e1d3;}.cls-5{fill:#16401b;}.cls-6{fill:#ffd27d;}</style><clipPath id="clip-path" transform="translate(187.31 65.45)"><rect class="cls-1" width="470.72" height="836.84"/></clipPath></defs><g id="Layer_2" data-name="Layer 2"><g id="ëÎÓÈ_1" data-name="ëÎÓÈ 1"><g class="cls-2"><rect class="cls-3" x="187.31" y="65.45" width="470.72" height="836.84"/><path class="cls-4" d="M10.41-65.44a210,210,0,0,0-22,1.45c-7.82.87-15.63,2-23.37,3.35A212.66,212.66,0,0,0-77-48.74a178.51,178.51,0,0,0-38.78,21.48A130.84,130.84,0,0,0-147.4,5.19a52.29,52.29,0,0,0-5.06,10.39,81,81,0,0,0-3,10.16,100.34,100.34,0,0,0-1.9,12.09c-.42,3.8-.66,7.6-.76,11.41q-.24,9.43-.46,18.87c-.11,4.46-.28,8.93-.27,13.39,0,5.22,0,10.43.06,15.64,0,4.7.12,9.4.1,14.1,0,10.42-.4,20.84-.37,31.26,0,5.92.14,11.86.56,17.77,1,14.13,4.49,28.14,11.8,40.38a117.09,117.09,0,0,0,12.6,17,75.5,75.5,0,0,0,16.3,13.39,88.29,88.29,0,0,0,8.32,4.93,72.34,72.34,0,0,0,10.21,4.06,94.47,94.47,0,0,0,21.28,4,90.52,90.52,0,0,0,21.8-1.32,59.47,59.47,0,0,0,10-2.71,77.63,77.63,0,0,0,7.94-3.3l4.37-2.14c.89-.44,1.84-.83,2.7-1.33q3.74-2.13,7.46-4.27c2.19-1.25,4.34-2.55,6.5-3.83,2-1.18,4.06-2.23,6.11-3.32,4.13-2.19,8.37-4.15,12.54-6.25C3.79,214.4,6.2,213.3,8.49,212L16,207.86,22.71,204c2.17-1.22,4.4-2.33,6.6-3.49,2-1.07,4.13-2.05,6.17-3.12s4.06-2,6-3.16c2.11-1.25,4.3-2.41,6.33-3.78,2.73-1.84,5.48-3.64,8.1-5.63a101.51,101.51,0,0,0,9.3-7.77,78.59,78.59,0,0,0,8.12-9.53,61.9,61.9,0,0,0,4.16-6.35c1.39-2.39,2.7-4.78,4-7.22,1.14-2.16,2.14-4.4,3.18-6.61.53-1.11,1-2.28,1.45-3.42.66-1.53,1.35-3.05,1.92-4.62.92-2.55,1.83-5.1,2.67-7.69,1.48-4.57,2.7-9.23,3.82-13.91.92-3.85,1.84-7.72,2.44-11.63s1.14-8,1.67-12.07c.78-5.3,1.45-10.59,1.91-15.92.21-2.4.31-4.8.41-7.21a47.24,47.24,0,0,0-.12-6.73c-.26-2.56-.75-5.06-1.25-7.58s-1-5.09-1.41-7.64c-.83-4.81-1.68-9.6-2.47-14.41C94.12,25,92.93,15.36,91.11,5.84c-.46-2.38-.9-4.75-1.31-7.14s-.69-4.71-1.18-7c-.24-1.1-.48-2.18-.8-3.26a32.23,32.23,0,0,0-1.77-4.35c-.94-2-2-4-3.13-6s-2.13-3.9-3.09-5.91-1.76-4-2.72-6A52.9,52.9,0,0,0,69-46.46a46.37,46.37,0,0,0-4.17-3.88,26.84,26.84,0,0,0-9-5.39l-1-.3a8.78,8.78,0,0,0-1-.68A45.31,45.31,0,0,0,44-61.45,48.79,48.79,0,0,0,33.45-64,145.24,145.24,0,0,0,11.7-65.45ZM25.76-46a7.84,7.84,0,0,0,9.36,4.91c1.27-.32,2.55-.55,3.84-.75.41,0,.8,0,1.2,0,1.08.26,2.15.53,3.22.83.31.2.63.4.94.62a8.26,8.26,0,0,0,5.06,1.28l.47.17a17,17,0,0,1,1.53.95c1.41,1.16,2.79,2.37,4.15,3.59a43.8,43.8,0,0,1,4.65,5c1,1.39,2.09,2.77,3.11,4.18,1.55,2.14,3.05,4.3,4.68,6.38,1.33,1.7,2.77,3.29,4.22,4.88C73.44-12.68,74.77-11.4,76-10A24.75,24.75,0,0,1,78-6.55a124.64,124.64,0,0,1,3.9,13.1c1.22,4.68,2.38,9.37,3.38,14.1s1.79,9.71,2.63,14.57c.79,4.61,1.68,9.19,2.46,13.79.67,4,1.31,8,2,12a27.15,27.15,0,0,1,.15,5.77c-.2,2.12-.46,4.22-.73,6.34-.54,3.86-1.07,7.74-1.89,11.55-.94,4.36-2.08,8.67-3.17,13A187,187,0,0,1,79,120.87q-1.42,3.25-2.94,6.45c-1.07,2.25-2.16,4.53-3.41,6.69-1.51,2.61-3,5.19-4.66,7.75-1.27,2-2.66,3.94-4.06,5.87-1.18,1.46-2.39,2.91-3.67,4.3-1,1.08-2,2.17-3,3.22A83,83,0,0,1,50,161.61c-9.59,7.14-20.28,12.5-30.65,18.41-8.5,4.83-16.31,10.77-24.59,16-7.42,4.65-15,9-22.07,14.23-8.89,6.54-17.85,13.19-28,17.72a74.42,74.42,0,0,1-16.87,4.45,80.34,80.34,0,0,1-18.79-.09,68.62,68.62,0,0,1-15.61-4.13,81.43,81.43,0,0,1-16.08-9.58,55.69,55.69,0,0,1-5.85-5.33,85.13,85.13,0,0,1-5.57-6.57,82.77,82.77,0,0,1-10.06-16.78,77.7,77.7,0,0,1-4.9-18.16c-1.34-10.91-.6-21.84.25-32.75.53-6.79,1.46-13.53,2.35-20.27.4-2.77.86-5.53,1.21-8.3s.67-5.36,1-8c.55-4.48.93-9,1.34-13.48,1-10.65,1.94-21.29,2.75-32,.4-5.08.78-10.17,1.41-15.23a94.28,94.28,0,0,1,5.15-20.61,43.37,43.37,0,0,1,2.36-4.47,56.47,56.47,0,0,1,3.33-4.77,129.37,129.37,0,0,1,21.5-21.56A172.14,172.14,0,0,1-71.2-30.2c17.49-7.19,36-11.51,54.67-14.14,14-1.83,28.22-3,42.29-1.7ZM-72-29.85l-.63.26.63-.26ZM98.76,92.87l-.06.44.06-.44Zm-247.84,78.07,0,.27,0-.27Z" transform="translate(187.31 65.45)"/><path class="cls-5" d="M-34.7-61.35q-6.9.26-13.75.89c-1.37.13-2.75.23-4.11.45l-4.54.76c-2.34.39-4.63,1.06-6.93,1.62-4.42,1.07-8.78,2.39-13.13,3.71-2,.62-4.08,1.24-6.1,1.93l-3.5,1.2c-1.2.41-2.37.92-3.55,1.38a69.08,69.08,0,0,0-6.74,3c-.94.5-1.92.95-2.83,1.5l-3.55,2.15c-1.92,1.17-3.8,2.41-5.68,3.64s-3.44,2.27-5.08,3.49a64.65,64.65,0,0,0-10.3,8.73,51.45,51.45,0,0,0-5.46,7.74c-.84,1.41-1.57,2.86-2.33,4.31-.21.4-.38.84-.57,1.26-.35.77-.73,1.55-1,2.35-.4,1.09-.79,2.17-1.13,3.28-.62,2.06-1.21,4.13-1.7,6.22-.73,3.15-1.29,6.33-2.15,9.45-.43,1.57-.86,3.13-1.39,4.67s-1.19,3.34-1.82,5l.36-.85c-.4.94-.74,1.93-1.21,2.83l-1.7,3.25c-.57,1.08-1.28,2.1-1.91,3.15s-1.15,1.84-1.73,2.76c-2.4,3.81-4.74,7.68-7,11.56s-4.59,7.89-6.95,11.8-4.8,7.85-7,11.9q-1.8,3.36-3.58,6.72c-.91,1.74-1.82,3.5-2.62,5.29-1.06,2.37-2.1,4.73-3.1,7.12-.26.61-.52,1.22-.76,1.83s-.68,1.19-1,1.8a46.49,46.49,0,0,0-2.77,6.5,36.87,36.87,0,0,0-1.37,6.65c-.34,2.3-.56,4.6-.7,6.92a18.09,18.09,0,0,0,0,2.55c-.35,2.5-.67,5-1,7.52-.5,4.43-.7,8.91-1,13.35-.15,2.34-.22,4.65-.25,7a44.09,44.09,0,0,0,.89,8.49,40,40,0,0,0,2.17,6.9c.95,2.45,2,4.84,3.17,7.2.3.62.65,1.22,1,1.83,0,6.25.08,12.5.33,18.74A93.34,93.34,0,0,0-178.21,194a47.13,47.13,0,0,0,1.29,5.62,46.74,46.74,0,0,0,4,8.65,75.12,75.12,0,0,0,7,9.82,25.5,25.5,0,0,0,5.92,5.43c1.37.92,2.8,1.75,4.2,2.61q2.81,1.72,5.62,3.39c3.8,2.26,7.67,4.38,11.56,6.47,1.48.8,2.85,1.84,4.27,2.76a37.67,37.67,0,0,0,6.47,3.62c2.24.88,4.6,1.42,6.88,2.19,1.9.65,3.75,1.34,5.61,2.09.83.36,1.66.71,2.47,1.11s1.4.69,2.09,1.05a20.38,20.38,0,0,1,2.6,1.8q2.7,2,5.44,4a15.42,15.42,0,0,0,3.7,2.06A38.67,38.67,0,0,0-94.5,258c1.77.42,3.55.67,5.34.95s3.84.52,5.77.66a55.13,55.13,0,0,0,10-.28c4.93-.51,9.85-1.19,14.74-1.95a119.3,119.3,0,0,0,12.81-2.92c1-.28,2-.56,3-.86,1.17-.35,2.39-.63,3.55-1.06,2.47-.92,5-1.82,7.37-2.9s4.85-2.24,7.25-3.42c2.07-1,4.11-2.11,6.19-3.13,1.76-.72,3.52-1.45,5.33-2.08,3.8-1.32,7.65-2.55,11.37-4.11a48.58,48.58,0,0,0,8-4.18,62.84,62.84,0,0,0,7.57-6c2.13-2,4.14-4.06,6.2-6.1q4.84-4.81,9.53-9.78c5-5.3,8.8-11.55,12.78-17.63,5-7.64,10.18-15.14,15.26-22.72,4.91-7.35,9.16-15.11,13.58-22.76,1-1.79,2-3.64,2.9-5.5,1.14-2.41,2.16-4.86,3.16-7.34.78-1.95,1.58-3.89,2.33-5.85s1.38-4.07,2-6.11A195.42,195.42,0,0,0,87.68,97c.44-2.61.87-5.2,1.17-7.84.27-2.3.56-4.6.74-6.91.19-2.49.36-5,.47-7.45.09-2.17.07-4.35,0-6.52a118.84,118.84,0,0,0-1.13-14c-.35-2.46-.74-4.9-1.17-7.35-.39-2.25-1-4.46-1.65-6.66a50.13,50.13,0,0,0-2.81-7.5c-.17-1.82-.36-3.65-.65-5.46-.38-2.32-.66-4.68-1.16-7s-1-4.59-1.56-6.84S78.69,8.9,78,6.6L77,3.16c-.37-1.28-.87-2.53-1.31-3.78-.53-1.52-1.14-3-1.75-4.5-.34-.83-.64-1.69-1-2.49l-1.35-2.63c-.36-.7-.81-1.36-1.23-2a33.65,33.65,0,0,0-3-4,36.18,36.18,0,0,0-3.63-3.59c-2.1-1.86-4.19-3.74-6.27-5.61a89.94,89.94,0,0,0-7.29-5.76,24.25,24.25,0,0,1-3.36-3.36,57.46,57.46,0,0,0-6.93-7.53c-1.66-1.53-3.28-3.08-4.79-4.75l.07-.11a4.71,4.71,0,0,0-1.67-6.38c-1.26-.74-2.5-1.5-3.78-2.2a32.36,32.36,0,0,0-4.31-1.89c-.71-.26-1.43-.49-2.16-.7l-.07,0A14.57,14.57,0,0,0,20-59.91a8.46,8.46,0,0,0-5.33-.32,8.07,8.07,0,0,0-1.25.44C11-60,8.66-60.18,6.27-60.37c-4.51-.38-9-.52-13.58-.69s-9.06-.26-13.58-.35q-3.49-.06-7-.09h-.7c-2,0-4.08.08-6.12.15Zm-3,11,7.74-.46c1.11-.07,2.23,0,3.34-.07s2.24-.06,3.36-.07q7-.07,13.92-.09c4.84,0,9.68.14,14.51.29,1.48,0,3,.18,4.44.28,2.46.15,4.92.3,7.37.58.51.08,1,.17,1.54.27l.62.53c1.48,1.22,3.06,2.3,4.6,3.44a34.18,34.18,0,0,1,2.91,2.74,30.78,30.78,0,0,0,3.62,3.13c1.23.91,2.53,1.71,3.83,2.5.46.28.91.56,1.35.85.86,1.93,1.72,3.87,2.65,5.77s2,4,3,6a52.71,52.71,0,0,0,3.11,5.54c2.44,3.69,5,7.28,7.67,10.82,1.36,1.81,2.74,3.62,4.05,5.46,1.45,2,2.86,4.07,4.21,6.17q4.47,6.9,8.71,14c.24,1.82.51,3.64.67,5.46.22,2.5.47,5,.7,7.49.08.9.07,1.82.1,2.72l.18,4.74c.09,2.3,0,4.62,0,6.92,0,4.11-.19,8.23-.33,12.34q-.24,7.53-.58,15.07c-.12,2.86-.22,5.73-.46,8.59-.14,1.71-.22,3.44-.42,5.15l-.48,4.08C67.66,92.93,67.13,96,66.37,99q-1.44,5.73-2.93,11.44c-.37,1.41-.76,2.8-1.16,4.2-.44,1.56-.84,3.14-1.35,4.67Q60,122.15,59,125c-.5,1.49-1.12,3-1.69,4.41-1.48,3.37-3,6.71-4.56,10.05a75,75,0,0,1-6.06,10.69c-1.08,1.58-2.24,3.1-3.37,4.64-2.92,3.54-5.89,7.06-8.85,10.57a78.37,78.37,0,0,1-9.17,9.14q-5.64,4.78-11.44,9.38c-3.37,2.68-6.66,5.44-10,8.18L.09,195.23l.84-.64c-1.61,1.24-3.17,2.56-4.83,3.72-1.88,1.31-3.74,2.68-5.66,3.95-3.8,2.5-7.62,5-11.33,7.59s-7.63,5.48-11.52,8.11-7.57,5-11.5,7.24a130.31,130.31,0,0,1-12.43,6.55c-2.33,1-4.69,1.81-7.09,2.59-1.63.53-3.25,1.12-4.9,1.59l-5.7,1.59a82.18,82.18,0,0,1-10.54,2.2,56.77,56.77,0,0,1-8.14.4,72.41,72.41,0,0,1-7.5-.6q-4.68-.81-9.34-1.74a76.08,76.08,0,0,1-12.57-3.16,20.89,20.89,0,0,1-2.47-1.32,63.5,63.5,0,0,1-4.57-4.71c-2.28-2.54-4.64-5-6.78-7.66a42.41,42.41,0,0,1-4.34-7.5c-1.1-2.78-2-5.64-3-8.44-.73-2-1.48-4-2.22-6.06-1.34-3.66-2.71-7.31-4.21-10.92-1.25-3-2.48-6-3.88-9a42.23,42.23,0,0,0-3.59-6.31c-.64-.91-1.25-1.84-1.92-2.73q-2.38-3.22-4.9-6.34c-1.12-1.39-2.26-2.76-3.38-4.14a100.87,100.87,0,0,1-7.12-10.7c0-.95,0-1.9,0-2.84,0-4.33.06-8.67-.1-13a98.15,98.15,0,0,0-1.19-12.22c-.32-2-.9-3.88-1.4-5.79a45.68,45.68,0,0,1-1-5.06,30.13,30.13,0,0,1,0-4.75c.06-.5.12-1,.17-1.5.58-3.51,1.19-7,2.09-10.44.23-.88.41-1.78.69-2.64l0-.08.09-.24a92.5,92.5,0,0,1,6.34-11.34c2.44-3.8,5-7.54,7.6-11.2,1.28-1.8,2.6-3.58,3.85-5.4s2.53-3.74,3.78-5.63c2.46-3.72,4.74-7.55,7.43-11.13,2.39-2.81,4.93-5.51,7.38-8.28,1.23-1.39,2.48-2.78,3.63-4.24.72-.91,1.49-1.79,2.15-2.74s1.18-1.71,1.78-2.56,1-1.7,1.51-2.55.88-1.73,1.31-2.59c.91-1.82,1.62-3.74,2.36-5.63.67-1.72,1.22-3.5,1.82-5.25s1.26-3.4,2-5.08c1.6-3.27,3.25-6.52,5.1-9.67,1-1.75,2.06-3.49,3.15-5.2s2.24-3.47,3.38-5.19c1.94-2.93,4-5.76,6.14-8.59s4.18-6,6.36-8.86c1-1.21,2-2.39,3-3.51.44-.26.89-.51,1.34-.74,1.11-.56,2.21-1.17,3.34-1.68l3-1.33c2.85-1.09,5.69-2.14,8.59-3.08s6-1.95,9-2.84c3.44-1,6.87-2,10.34-2.9,1.54-.4,3.08-.88,4.64-1.18l5.12-1c4-.48,8-1,11.94-1.19ZM47.22-21A64.45,64.45,0,0,1,43-28.62c-.41-.81-.82-1.63-1.22-2.44.58.62,1.16,1.25,1.76,1.86a29.15,29.15,0,0,0,3.34,2.72c.92.69,1.88,1.35,2.82,2A74.89,74.89,0,0,1,59.79-14a30,30,0,0,1,3,5.13,42.27,42.27,0,0,1,1.84,5.2c.63,2.44,1.23,4.88,1.77,7.34.19.9.38,1.81.56,2.72L66.08,5C63.52,1.1,61-2.77,58.1-6.45l-5.81-7.49c-1.73-2.31-3.43-4.64-5.07-7Zm-150.13-8.73c-1.16,1.63-2.31,3.28-3.5,4.89-2.49,3.39-5.07,6.71-7.41,10.21-2.58,3.86-5.07,7.76-7.37,11.79-1.1,1.94-2.18,3.89-3.19,5.88a65.3,65.3,0,0,0-2.83,6.41c-1,2.75-2,5.51-3.11,8.23l-1.11,2.48c-.43,1-1,1.88-1.46,2.81s-1.1,1.79-1.64,2.67-1.12,1.59-1.69,2.36c-2.73,3.34-5.58,6.54-8.59,9.62-1.55,1.58-3.06,3.17-4.54,4.81-.26.29-.51.6-.76.91q2.66-4.17,5.38-8.3c1.11-1.69,2.25-3.35,3.38-5,.93-1.36,1.9-2.72,2.72-4.15l1.65-2.86c.49-.85.87-1.77,1.3-2.65,1-1.95,1.74-4,2.55-6,1.37-3.43,2.56-6.94,3.71-10.46,1.08-3.31,2.27-6.58,3.54-9.83a73.46,73.46,0,0,1,7-11.26,35.39,35.39,0,0,1,2.42-2.76,32.88,32.88,0,0,1,3.27-2.85c3.31-2.49,6.77-4.74,10.28-6.91ZM46,162.1c1.72-2.09,3.37-4.2,5-6.35,1-1.29,2-2.59,2.9-3.91a68.44,68.44,0,0,0,4.87-8.1q1.74-3.27,3.47-6.56c1-1.83,2-3.6,3-5.46.55-1.12,1.11-2.24,1.66-3.37s.95-2.25,1.42-3.36,1.1-2.46,1.57-3.72l1.23-3.36q1.17-3.16,2.28-6.36c1.07-3.08,2.15-6.16,3.27-9.23-.53,2.48-1.08,5-1.67,7.44-1,4.26-2.2,8.48-3.37,12.7s-2.58,8.25-4,12.32c-.47,1.29-.94,2.56-1.44,3.83-1.78,4-3.75,7.9-5.78,11.78s-3.85,7.59-5.84,11.36c-2.11,4-4.42,7.84-6.66,11.75s-4.48,7.8-6.82,11.64q-1.84,3-3.72,6.06c-2.53,4.09-5,8.2-7.92,12A136.11,136.11,0,0,1,18.5,215,141.65,141.65,0,0,1,6.55,226.16a45.49,45.49,0,0,1-8.81,5.21c-3.57,1.46-7.26,2.58-10.93,3.77-2.2.72-4.36,1.5-6.54,2.32s-4,1.7-6,2.64-4,1.85-6,2.77l-4.17,1.76-4.85,1.71c-1.54.54-3.15.91-4.72,1.36-2.94.83-5.92,1.56-8.9,2.24-1.52.34-3,.72-4.55,1s-3.28.64-4.92.94c-3.1.55-6.22,1-9.33,1.45-1.91.25-3.82.48-5.74.59a55.49,55.49,0,0,1-6.7-.11c-1.74-.12-3.46-.36-5.19-.59A38.21,38.21,0,0,1-98,251.46a35.05,35.05,0,0,1-3.91-2.33c-.81-.53-1.62-1.08-2.41-1.64s-1.77-1.28-2.68-1.87c2,.29,4,.57,6,.84a73.34,73.34,0,0,0,9,.52,67.7,67.7,0,0,0,10.25-.84c4.24-.62,8.38-1.62,12.54-2.65,2.18-.54,4.34-1.13,6.5-1.74a112.64,112.64,0,0,0,11.78-3.87,163,163,0,0,0,16.49-8c4.09-2.22,8.08-4.58,12-7.07s7.9-5.07,11.88-7.57c1.95-1.22,3.88-2.47,5.82-3.72s3.82-2.66,5.72-4c2.11-1.49,4.06-3.21,6.07-4.83.66-.53,1.28-1.14,1.91-1.71.88-.79,1.78-1.56,2.63-2.39q5.15-5,10.43-9.92c3.41-3.17,6.75-6.43,10.08-9.7.88-.86,1.67-1.82,2.5-2.72s1.59-1.79,2.36-2.73c1.74-2.13,3.41-4.3,5.09-6.47,1.31-1.64,2.61-3.29,3.94-4.91Zm-3.49,4.32-.14.18.14-.18Zm-217,13.8c-.1-2.51-.19-5-.23-7.53,0-.87,0-1.74,0-2.62l.72,1c1.28,1.79,2.48,3.61,3.67,5.45.72,1.13,1.41,2.27,2.09,3.42a68.71,68.71,0,0,1,3.75,7.54q2.64,6.57,5.17,13.19c1.77,4.66,3.6,9.3,5.54,13.89.54,1.29,1.08,2.57,1.68,3.83a40,40,0,0,0,2.06,3.67c.66,1,1.38,2.07,2.15,3.06l-1.67-1.07c-1.13-.72-2.25-1.47-3.38-2.2-1.8-1.18-3.64-2.31-5.37-3.6a45.82,45.82,0,0,1-6.23-7,61.55,61.55,0,0,1-6.47-11,31.14,31.14,0,0,1-1.74-5.84c-.21-1.11-.42-2.23-.64-3.34-.3-1.58-.48-3.2-.69-4.8,0,.11,0,.21,0,.31-.15-2.12-.34-4.23-.43-6.36ZM6.33,226.33l-.26.2.26-.2ZM-31,242.56l-.24.1.24-.1Z" transform="translate(187.31 65.45)"/></g><path class="cls-5" d="M97.77,651.68c-1.07-.15-2.19-.27-3.32-.35a50.07,50.07,0,0,0-7.55,0c-2.2.18-4.56.5-7.4,1-.75.14-1.5.29-2.24.45l-.71.14-.74.15c-.57.11-1.15.22-1.72.36l-3,.71c-1.5.36-2.74.67-3.91,1a42.34,42.34,0,0,0-6.68,2.48c-2.19,1-4.34,2.18-6.42,3.3L54,661a39.29,39.29,0,0,0-5,3.13l-.82.62-1.54,1.15c-1.06.79-2.2,1.64-3.38,2.48l-1.25.88-1.24.89a41.62,41.62,0,0,0-4.3,3.49A38.33,38.33,0,0,0,32,678.54c-.68.9-1.32,1.81-1.87,2.71a20.22,20.22,0,0,0-2.51,6.16,21.27,21.27,0,0,0-.41,3.21,37.73,37.73,0,0,0,0,4.23l.13,2.56a3.62,3.62,0,0,0,.06.46l0,.21.13.91.09.73c.17,1.28.41,2.58.65,3.84l.14.75c.17,1,.39,2,.61,2.93l.27,1.2c.31,1.42.65,2.86,1,4.26l.19.8c.22,1,.47,2,.78,3s.7,2.15,1.15,3.32a56.92,56.92,0,0,0,2.81,6.05,38.13,38.13,0,0,0,6.85,9.26l2.25,2.25a31.69,31.69,0,0,0,4.15,3.55,48,48,0,0,0,4.29,2.62l1.32.74,1.28.72c.53.29,1.07.57,1.6.84l.83.44c.6.31,1.24.65,1.89,1,1.88.92,3.58,1.73,5.19,2.48l1,.47c1,.48,2.11,1,3.18,1.45l1.75.76,1.16.5c.51.23,1,.43,1.58.63l.63.24a42.2,42.2,0,0,0,4.43,1.47,34.8,34.8,0,0,0,3.69.79l.33,0c1.25.17,2.51.24,3.59.28a39.36,39.36,0,0,0,7.56-.45,42.31,42.31,0,0,0,7.15-1.84,32,32,0,0,0,3.12-1.27l.11,0c.69-.32,1.39-.65,2.06-1l2.64-1.45c.47-.26.94-.55,1.38-.82l.63-.39c.49-.3,1.08-.65,1.65-1.05l.83-.56,1.86-1.29a3.28,3.28,0,0,1,.39-.34l1.42-1.14c1.24-1,2.41-2,3.69-3.13l1-.79,1-.79c.44-.35.93-.71,1.57-1.17,1.53-1.09,3-2.19,4.31-3.13.41-.3.79-.63,1.17-.95l.38-.32.53-.43,1.28-1.07,4-3.45a43.15,43.15,0,0,0,3.63-3.44,21,21,0,0,0,3.47-5.31,30.73,30.73,0,0,0,2-6.2,37.53,37.53,0,0,0,.76-5.18l.05-.63c.11-1.28.22-2.6.28-3.91l0-.34c0-.84.07-1.68.1-2.52a19,19,0,0,0-.15-3.16,24.65,24.65,0,0,0-.76-3.3c-.6-2.06-1.32-4.13-2-6.14l-.09-.24c-.25-.75-.49-1.5-.73-2.25-.17-.52-.31-1-.45-1.54l-.18-.63c-.36-1.3-.78-2.78-1.25-4.23s-.95-2.79-1.57-4.44c-.25-.65-.53-1.41-.8-2.19l-.08-.23c-.22-.66-.45-1.33-.73-2a11.87,11.87,0,0,0-1.74-2.9c-.41-.48-.89-1-1.46-1.55s-1-.94-1.5-1.4-1.19-1-1.88-1.53c-.52-.4-1.09-.77-1.65-1.12l-.22-.15c-.6-.38-1.2-.74-1.78-1.06a16.66,16.66,0,0,0-2-.94l-.6-.23c-.46-.17-.93-.35-1.37-.56s-.8-.49-1.19-.75l-.27-.18-.57-.34a.78.78,0,0,0-.36-1l-.41-.22a26.59,26.59,0,0,0-2.44-1.24,32.12,32.12,0,0,0-3.7-1.22c-2.45-.7-5-1.33-7.43-1.88-1.93-.43-3.9-.79-5.8-1.13L99.82,652a3.87,3.87,0,0,0-2-.32c-3.37.48-5.29,6.59-5.31,15.09" transform="translate(187.31 65.45)"/><path class="cls-4" d="M241.41,777.58c-.56-.07-1.16-.14-1.76-.18a26.71,26.71,0,0,0-4,0c-1.16.08-2.41.23-3.91.47l-1.18.22-.38.07-.39.07-.91.17-1.61.35c-.79.18-1.44.33-2.06.49a23.38,23.38,0,0,0-3.53,1.22c-1.16.51-2.29,1.08-3.39,1.64l0,0a20.2,20.2,0,0,0-2.65,1.56l-.43.3-.81.58c-.56.39-1.16.82-1.78,1.23l-.66.45-.66.44A21.1,21.1,0,0,0,209,788.4a20.48,20.48,0,0,0-2.32,2.47,16.5,16.5,0,0,0-1,1.36,9.42,9.42,0,0,0-.8,1.53,9.17,9.17,0,0,0-.51,1.56,10.83,10.83,0,0,0-.2,1.62,19.44,19.44,0,0,0,0,2.13l.08,1.28,0,.24,0,.1.07.46.05.37c.1.65.23,1.3.36,1.94l.07.37c.1.5.22,1,.34,1.48l.15.61c.17.71.35,1.44.53,2.14l.1.41c.12.47.26,1,.42,1.51s.38,1.08.62,1.67a32.25,32.25,0,0,0,1.51,3.06,19.81,19.81,0,0,0,3.67,4.68l1.2,1.15a17.31,17.31,0,0,0,2.21,1.8c.74.5,1.56.94,2.28,1.33l.7.38.68.37.85.43.44.22,1,.49c1,.47,1.91.88,2.77,1.27l.52.23c.55.25,1.12.51,1.7.75l.93.39.61.26.84.32.33.12c.9.33,1.65.57,2.35.76s1.36.31,2,.41l.17,0c.67.09,1.34.13,1.91.15a21.16,21.16,0,0,0,4-.2,23.19,23.19,0,0,0,3.78-.9,14.89,14.89,0,0,0,1.65-.63l.06,0c.36-.16.73-.32,1.08-.5l1.4-.72c.25-.13.49-.27.73-.41a2.59,2.59,0,0,1,.33-.19c.26-.15.57-.33.87-.53l.43-.28c.33-.21.66-.42,1-.64a1.73,1.73,0,0,1,.21-.17l.75-.57c.65-.49,1.27-1,1.94-1.56l.53-.39.52-.4.83-.58c.81-.54,1.6-1.09,2.27-1.56l.62-.47.2-.16.27-.22c.23-.18.46-.35.68-.54l2.09-1.72a21.64,21.64,0,0,0,1.91-1.72,10.33,10.33,0,0,0,1.82-2.66,14.46,14.46,0,0,0,1-3.11,18.12,18.12,0,0,0,.38-2.61l0-.31c.05-.65.11-1.31.13-2v-.17c0-.42,0-.85,0-1.27a8.16,8.16,0,0,0-.09-1.59,11.85,11.85,0,0,0-.41-1.66c-.33-1-.72-2.09-1.1-3.1l0-.12c-.14-.38-.27-.76-.4-1.14s-.17-.53-.24-.78-.06-.21-.1-.32c-.19-.65-.42-1.4-.68-2.13s-.51-1.41-.84-2.24c-.14-.33-.29-.71-.43-1.11l-.05-.11a10.48,10.48,0,0,0-.39-1,5.89,5.89,0,0,0-.93-1.46c-.22-.25-.48-.51-.78-.79l-.8-.71c-.31-.26-.64-.51-1-.77a10.28,10.28,0,0,0-.88-.58l-.12-.07c-.32-.2-.63-.38-.95-.54a9.49,9.49,0,0,0-1-.48l-.32-.12c-.24-.09-.49-.18-.73-.29l-.63-.38-.15-.09-.3-.18a.37.37,0,0,0-.19-.47l-.22-.12a14.18,14.18,0,0,0-1.3-.63,19.76,19.76,0,0,0-2-.63c-1.3-.36-2.63-.69-3.94-1-1-.23-2.07-.41-3.08-.59l-.68-.13a2.32,2.32,0,0,0-1.09-.17c-1.78.23-2.78,3.31-2.76,7.59" transform="translate(187.31 65.45)"/><path class="cls-6" d="M210.54,698c-.61-.09-1.26-.15-1.92-.2a25.5,25.5,0,0,0-4.37.08,40.34,40.34,0,0,0-4.29.72c-.44.09-.88.2-1.31.31l-.41.1-.43.1c-.33.08-.67.15-1,.25l-1.76.49c-.87.24-1.59.46-2.28.67a24,24,0,0,0-3.89,1.67c-1.27.68-2.53,1.45-3.75,2.19l0,0a24.44,24.44,0,0,0-2.94,2.07l-.48.41-.9.76c-.62.52-1.29,1.08-2,1.63l-.74.59-.72.58a25.43,25.43,0,0,0-2.53,2.3,26,26,0,0,0-2.6,3.23c-.4.6-.78,1.19-1.11,1.77a15.21,15.21,0,0,0-.92,2,14.83,14.83,0,0,0-.59,2,16.73,16.73,0,0,0-.26,2.09,26.81,26.81,0,0,0,0,2.73l.05,1.65c0,.1,0,.2,0,.3v.14l.07.58,0,.47c.09.83.22,1.67.34,2.48l.08.49c.09.63.21,1.27.32,1.89l.15.77c.16.92.35,1.84.52,2.74l.11.52c.11.61.25,1.27.42,1.93s.38,1.38.63,2.13a40.43,40.43,0,0,0,1.57,3.89,23.81,23.81,0,0,0,3.89,5.93l1.28,1.43a18.3,18.3,0,0,0,2.37,2.26,25.79,25.79,0,0,0,2.46,1.65l.75.46.74.46.92.53.47.27,1.09.61c1.08.58,2.06,1.09,3,1.56l.57.29c.59.3,1.21.62,1.83.91l1,.47.66.32c.3.14.61.26.91.39l.36.14a22.7,22.7,0,0,0,2.55.92,19.06,19.06,0,0,0,2.14.47l.18,0a17.43,17.43,0,0,0,2.08.14,19.89,19.89,0,0,0,4.38-.36,23,23,0,0,0,4.16-1.25,19.55,19.55,0,0,0,1.82-.86l.07,0c.4-.21.81-.43,1.2-.67l1.54-1c.28-.17.55-.36.81-.54l.36-.25c.3-.2.64-.44,1-.7l.49-.37c.36-.28.73-.56,1.08-.85a1.75,1.75,0,0,1,.24-.23l.83-.74c.73-.66,1.41-1.32,2.17-2.06l.58-.53.59-.52c.25-.23.54-.47.92-.77.89-.71,1.78-1.44,2.52-2.06.24-.2.46-.42.69-.63l.22-.21.31-.28.75-.71,2.33-2.26a29.06,29.06,0,0,0,2.14-2.26,14.61,14.61,0,0,0,2.06-3.47,21.91,21.91,0,0,0,1.22-4,28.11,28.11,0,0,0,.49-3.36l0-.4c.08-.83.16-1.69.2-2.53v-.22l.09-1.64a13.62,13.62,0,0,0-.06-2,17,17,0,0,0-.41-2.12c-.33-1.33-.73-2.66-1.11-3.95l-.05-.16c-.14-.48-.27-1-.41-1.45s-.17-.67-.24-1c0-.14-.06-.27-.1-.41-.2-.84-.43-1.79-.68-2.72s-.53-1.8-.87-2.86c-.14-.41-.3-.91-.44-1.41l0-.14c-.12-.43-.24-.86-.4-1.28a7.24,7.24,0,0,0-1-1.86,12.83,12.83,0,0,0-.83-1c-.28-.3-.57-.6-.86-.89s-.68-.64-1.07-1-.63-.49-.95-.72l-.13-.09c-.34-.24-.68-.47-1-.67a8.79,8.79,0,0,0-1.13-.59l-.34-.14c-.27-.11-.54-.22-.79-.35s-.46-.31-.68-.47l-.16-.12a1.85,1.85,0,0,0-.33-.21.5.5,0,0,0-.2-.61l-.23-.15a14.62,14.62,0,0,0-1.4-.77,18.1,18.1,0,0,0-2.13-.76c-1.42-.43-2.86-.81-4.29-1.15-1.11-.25-2.25-.47-3.35-.67l-.75-.14a1.91,1.91,0,0,0-1.18-.19c-1.95.34-3.12,4.31-3.21,9.81" transform="translate(187.31 65.45)"/></g></g></svg>