<svg xmlns="http://www.w3.org/2000/svg" xmlns:xlink="http://www.w3.org/1999/xlink" viewBox="0 0 618.03 1031.99"><defs><style>.cls-1{fill:none;}.cls-2{clip-path:url(#clip-path);}.cls-3{fill:#ffb5a7;}.cls-4{fill:#f7e1d3;}</style><clipPath id="clip-path" transform="translate(147.31 195.15)"><rect class="cls-1" width="470.72" height="836.84"/></clipPath></defs><g id="Layer_2" data-name="Layer 2"><g id="ëÎÓÈ_1" data-name="ëÎÓÈ 1"><g class="cls-2"><rect class="cls-3" x="147.31" y="195.15" width="470.72" height="836.84"/><path class="cls-4" d="M256.63-195.13c-.93,0-1.85,0-2.78.06-2,.07-4,.12-6,.26s-4.15.26-6.21.51c-2.25.26-4.5.49-6.74.8l-7.2,1c-1.88.26-3.75.62-5.61.93-2,.34-4,.71-6.07,1.09s-4,.77-6,1.18-4.23,1-6.34,1.5c-1.61.4-3.22.81-4.82,1.26l-4.27,1.18c-.79.22-1.59.42-2.37.67-4,1.24-7.93,2.47-11.87,3.79l-6.27,2.1c-2.22.74-4.41,1.56-6.62,2.35-7.57,2.69-15.23,5.13-22.87,7.64-4.26,1.4-8.52,2.84-12.77,4.29-3.43,1.18-6.88,2.28-10.26,3.6l-6.22,2.43c-.61.23-1.2.54-1.79.81l-4.32,2-3.41,1.59c-.35.17-.72.33-1.07.51l-7,3.73c-1.3.68-2.62,1.33-3.88,2.08l-7.12,4.2c-1.55.91-3.07,1.88-4.6,2.82-1.83,1.14-3.62,2.33-5.42,3.52-.64.44-1.26.92-1.89,1.38L72-133.77c-.52.39-1,.8-1.53,1.2l-3.69,2.9c-1.53,1.2-3,2.56-4.4,3.85a47.93,47.93,0,0,0-4.17,4.26c-1.06,1.21-2,2.52-3,3.83q-3.9,5.28-7.57,10.72c-1.15,1.69-2.27,3.39-3.4,5.1s-2.12,3.18-3.16,4.78c-2.33,3.59-4.59,7.21-6.82,10.87-.45.75-.89,1.52-1.33,2.27s-.79,1.32-1.13,2l-1.73,3.41c-.47.93-.88,1.89-1.32,2.83-1.6,3.5-3.16,7-4.53,10.6-.65,1.7-1.3,3.4-1.89,5.12q-1,2.85-2,5.67c-2.92,7.88-6.12,15.63-9.18,23.45q-2.14,5.44-4,11C6-16.39,5-12.81,4.08-9.22c-.69,2.68-1.44,5.36-2.21,8S.24,4-.55,6.65s-1.42,5-2,7.59c-.3,1.22-.56,2.45-.83,3.68a33.07,33.07,0,0,1-1.1,4.16,4.08,4.08,0,0,1-.36.61l0,0-.54-.62a16.46,16.46,0,0,1-1-1.46c-.36-.59-.69-1.2-1-1.81-.72-1.33-1.32-2.74-1.94-4.12s-1.31-3-2-4.44-1.31-2.74-2-4.09C-14.95,3.11-16.65.09-18.22-3c-1.48-2.87-3-5.7-4.54-8.56a96.5,96.5,0,0,0-4.85-8.65c-.4-.62-.84-1.21-1.28-1.81-.27-.37-.56-.74-.85-1.1-.52-.63-1-1.17-1.58-1.77a13,13,0,0,0-1.16-.95c-.76-.6-1.55-1.13-2.37-1.66s-1.4-.84-2.11-1.22C-40-30.29-43-31.76-46-33.31q-2.15-1.11-4.23-2.33a38.14,38.14,0,0,1-3.66-2.56c-1.52-1.22-3-2.46-4.51-3.72-.66-.57-1.29-1.17-1.93-1.76L-63-46.09c-3-2.68-6.18-5.08-9.35-7.51q-2.28-1.78-4.45-3.69a30.25,30.25,0,0,1-3.92-4.46c-1.15-1.51-2.29-3-3.41-4.53s-2.17-2.91-3.32-4.31a49.85,49.85,0,0,0-4.24-4.36c-1.36-1.31-2.78-2.57-4.23-3.79s-2.85-2.3-4.27-3.47c-.63-.52-1.26-1-1.87-1.59A29.9,29.9,0,0,1-104.27-86c-.58-.63-1.1-1.3-1.64-2s-1.27-1.55-1.89-2.33c-1-1.27-2-2.52-3-3.79-2.25-3-4.28-6.11-6.61-9q-2-2.52-4.19-4.91c-.71-.79-1.43-1.56-2.14-2.34-2.33-3.65-4.67-7.3-7-11-1.12-1.79-2.25-3.58-3.33-5.41l-1.08-1.82c-.52-1-1-2.06-1.58-3.09a1.67,1.67,0,0,0-.57-.64c-.8-1.5-1.53-3-2.21-4.6-1.49-3.74-2.67-7.61-3.85-11.46a2,2,0,0,0-2.47-1.4,2,2,0,0,0-1.41,2.47c.7,2.26,1.42,4.51,2.14,6.77a66.87,66.87,0,0,0,3.53,8.85c.63,1.3,1.33,2.57,2,3.83,1,2.12,2,4.21,3,6.31.64,1.33,1.29,2.65,2,3.94s1.56,2.73,2.4,4,1.76,2.45,2.67,3.63,1.84,2.26,2.78,3.37c1.79,2.9,3.56,5.81,5.21,8.79,2,3.6,3.94,7.23,6.22,10.65.57.84,1.1,1.7,1.72,2.5s1.42,1.8,2.12,2.69c.55.7,1.15,1.33,1.74,2s1.42,1.56,2.18,2.3l2.4,2.33c.27.27.58.51.86.75l1.61,1.4c1.55,1.35,3.13,2.67,4.72,4,3.18,2.66,6.2,5.51,9.27,8.3l1.25,1.11c1.26,1.68,2.56,3.34,3.88,5a31.39,31.39,0,0,0,4.71,4.36c1.8,1.47,3.65,2.86,5.49,4.26q2,1.53,3.91,3.12c1.51,1.25,3,2.56,4.43,3.87L-63.64-38c2.51,3,4.86,6.13,7.4,9.09,1.71,2,3.46,3.93,5.18,5.91.88,1,1.8,2,2.65,3.06s1.61,2,2.42,3l2.11,3c.64.91,1.22,1.87,1.81,2.81,1.24,2,2.35,4,3.43,6.05.52,1,1.06,2,1.58,3s1.17,2.22,1.7,3.35l1.62,3.44c.53,1.14,1,2.32,1.49,3.48q.93,2.21,1.83,4.42c.61,1.48,1.07,3,1.54,4.55s.92,3.13,1.34,4.7.71,3.39,1,5.08c.1.75.2,1.5.29,2.25.12.93.17,1.87.25,2.8s.15,1.76.17,2.63c0,.55,0,1.09.05,1.64A27.21,27.21,0,0,1-26,40a37.5,37.5,0,0,1-1.8,7.47c-.53,1.39-1.06,2.79-1.58,4.18.07-.19.15-.37.23-.56-.7,1.67-1.36,3.36-2.12,5-1,2.18-2,4.37-3.06,6.53-.74,1.53-1.54,3-2.37,4.52-1,1.86-2,3.73-3.11,5.57l-1.87,3.22c-.45.76-.94,1.5-1.41,2.25-1.21,1.91-2.46,3.79-3.72,5.66-1.06,1.58-2.08,3.18-3.11,4.78-.39.61-.81,1.22-1.18,1.85l-2.16,3.72A77.14,77.14,0,0,0-58.3,105c-.74,1.89-1.46,3.77-2.13,5.68-.4,1.14-.79,2.29-1.19,3.43s-.64,2-1,3c-1.17,3.74-2.33,7.49-3.35,11.27-1.09,4.06-2.15,8.11-3.18,12.18-.53,2.1-1.07,4.21-1.6,6.32-.18.7-.32,1.41-.48,2.12-.34,1.51-.67,3-1,4.52-.43,1.93-.73,3.89-1.08,5.83-.38,2.11-.74,4.23-1.09,6.34-.66,3.83-1.18,7.68-1.65,11.53s-1,8-1.33,12c-.18,2-.39,3.91-.53,5.86-.14,2.12-.3,4.23-.43,6.34s-.31,4.19-.38,6.29c0,1.14-.08,2.28-.11,3.43,0,1-.1,1.94-.1,2.91,0,1.94,0,3.89,0,5.83s0,4,.18,6,.18,3.9.4,5.84c.23,2.09.45,4.17.72,6.26.59,4.57,1.19,9.13,1.93,13.67.7,4.31,1.51,8.59,2.13,12.91.31,2.15.6,4.31.9,6.46s.65,4.07,1,6.1q1.09,6.76,2.06,13.54c.21,1.68.42,3.35.62,5,.26,2.26.47,4.52.68,6.78.35,3.87.63,7.74.9,11.61.27,4.11.49,8.22.78,12.33s.61,8.1.88,12.16q.86,12.71,1.58,25.42c.47,8.19,1.23,16.36,2.05,24.53.41,4.11.89,8.21,1.36,12.31.22,1.95.46,3.88.7,5.83s.62,4.14.94,6.2c.29,1.88.68,3.75,1,5.62s.85,3.91,1.28,5.86c.21,1,.49,1.93.74,2.89s.5,1.92.74,2.89c.52,2,1,4,1.58,6,1,3.87,2.11,7.72,3.18,11.57q1.71,6.12,3.53,12.2c1.19,4,2.39,7.94,3.55,11.93s2.4,7.95,3.62,11.92,2.42,8,3.56,12c1.09,3.78,2,7.62,3,11.42,2,7.8,4.17,15.57,6.05,23.41.92,3.78,1.82,7.55,2.8,11.32.48,1.84,1,3.69,1.45,5.54s.84,3.65,1.24,5.47c.9,4,1.74,7.91,2.64,11.85.79,3.46,1.53,6.92,2.64,10.29a35.94,35.94,0,0,0,1.35,3.49c.2.45.43.89.67,1.33a4.94,4.94,0,0,0,.51.75,2.65,2.65,0,0,0,1.29.57,1.67,1.67,0,0,0,1.62-.43,6,6,0,0,0,.66-.76c.15-.36.3-.71.44-1.07a25.12,25.12,0,0,0,1.14-4.16c.36-1.65.71-3.29,1-5,.24-1.25.39-2.53.56-3.8l.69-5.16c.76-5.79,1.48-11.58,2.2-17.38,1-7.66,2.29-15.29,3.86-22.87.39-1.92.78-3.84,1.22-5.75.51-2.21,1-4.43,1.55-6.64,1-4,1.92-8,3.14-11.94s2.59-8,3.78-12c.57-1.94,1.12-3.86,1.64-5.82l.81-3.1c.32-1.23.56-2.48.84-3.72,1.72-7.58,3.08-15.23,4.14-22.94.56-4.09,1.14-8.18,1.62-12.29.24-2,.47-4,.65-6.05q.3-3.37.56-6.75c.33-4.24.55-8.48.7-12.73s.18-8.42.23-12.63,0-8.29-.15-12.44c-.05-1.91-.13-3.83-.2-5.75,0-.84-.1-1.68-.15-2.52-.06-1.1-.11-2.19-.2-3.28-.34-4.19-.7-8.37-1.16-12.55-.48-4.38-1-8.75-1.64-13.12-.44-3.23-1-6.44-1.56-9.66s-1.1-6.3-1.62-9.46-1-6.35-1.55-9.53-1.11-6.44-1.71-9.65c-.54-3-1.07-5.93-1.69-8.87q-1.08-5-2.14-10.09c-1.32-6.33-2.17-12.76-3-19.17,0,.18,0,.36.07.54-.84-8-1.75-16-2.17-24-.23-4.39-.49-8.76-.84-13.14-.16-2-.34-4-.51-6-.08-.87-.21-1.74-.32-2.6s-.24-2-.39-2.94c-.27-1.91-.53-3.81-.88-5.7-.18-1-.35-1.91-.57-2.85-.26-1.13-.53-2.26-.82-3.39-1-3.73-2-7.45-3.09-11.15s-2.31-7.6-3.74-11.29c-.38-1-.72-1.93-1.13-2.87L-12,184c-.35-.8-.77-1.58-1.15-2.37-.46-1-1-1.9-1.51-2.83-1.14-2.07-2.29-4.12-3.42-6.2-1-1.84-1.82-3.75-2.64-5.66l0,.08a90.09,90.09,0,0,1-3.62-11.82c-.54-2.22-1-4.45-1.45-6.7-.39-2-.68-4.11-1-6.17q-.77-6.91-1.06-13.87c-.19-4.2-.19-8.4-.22-12.61,0-4.48-.1-9-.12-13.43,0-1,.09-2,.16-2.94s.14-2.22.18-3.33c.09-2,.27-4.07.52-6.1a88.45,88.45,0,0,1,2.09-9.53c.44-1.66.94-3.32,1.47-5s1.1-3,1.71-4.45,1.45-3,2.24-4.49a34.67,34.67,0,0,1,2.66-4.31,12.94,12.94,0,0,1,1.54-1.6,5.3,5.3,0,0,1,.73-.42,5.62,5.62,0,0,1,.55-.15h.3l.62.27a16.4,16.4,0,0,1,2.17,1.45l-.28-.22.64.55a13.77,13.77,0,0,1,1.54,1.61c1.8,2.36,3.45,4.82,5.18,7.23.73,1,1.51,2,2.28,3,1,1.23,1.92,2.48,3,3.65,2,2.29,4.08,4.53,6,6.87s3.92,4.63,5.79,7q1.6,2.11,3.23,4.21l-.06-.07c2.11,2.82,4.12,5.7,6.07,8.63,1,1.55,2,3.14,2.85,4.77s1.62,3.22,2.33,4.88v0c.29.76.6,1.52.86,2.29l.51,1.51c.21.63.33,1.31.49,2,.24,1,.39,1.93.58,2.89s.32,2.06.47,3.09c.23,1.77.44,3.55.64,5.33.24,2.06.36,4.14.5,6.21.25,3.77.27,7.57.3,11.35,0,4,0,8,.24,11.93.2,4.15.62,8.28,1,12.42.35,4,.79,8,1.11,11.94.35,4.24.71,8.47,1,12.71s.52,8.24.74,12.36c.09,1.71.19,3.41.39,5.11l.39,3.34c.12,1.05.33,2.1.51,3.14.25,1.47.46,3,.76,4.44.46,2.22.93,4.44,1.39,6.66q1.07,5.13,2.11,10.28c.67,3.27,1.36,6.53,2,9.8.19.91.32,1.84.48,2.77.13.77.25,1.54.37,2.31.27,1.87.54,3.74.79,5.61l-.06-.46c.28,2.14.57,4.29.87,6.43.44,3.65.8,7.3,1.21,11,.43,3.9.85,7.81,1.29,11.71s.81,7.58,1.28,11.37c.53,4.28,1.06,8.56,1.54,12.86q.68,6.06,1.34,12.12c.45,4.08.85,8.16,1.38,12.22,1.07,8.33,2.14,16.67,3.39,25l1.11,7.31c.28,1.86.51,3.74.84,5.59q1.24,6.87,2.48,13.74c.22,1.21.48,2.41.72,3.61l1.8,9c.76,3.8,1.69,7.56,2.58,11.32.5,2.12,1,4.23,1.49,6.34.38,1.62.89,3.22,1.34,4.82,1.1,3.93,2.18,7.86,3.36,11.77s2.4,8.06,3.69,12.06c2,6.22,4,12.45,6.18,18.6a151,151,0,0,0,6.58,15.11c1.06,2.17,2.24,4.29,3.38,6.43,1,1.91,2,3.83,3.07,5.74.23.43.52.85.77,1.27l2.51,4.06,2,3.2c.2.33.4.67.62,1l4.52,6.33,2.18,3.06c.33.46.66.94,1,1.39l4,5,4,5c.34.43.71.84,1.07,1.27l3.28,3.84c1,1.22,2.07,2.45,3.16,3.63l4.95,5.41c1.47,1.61,3,3.15,4.53,4.72s3,3,4.48,4.55q3.94,4,8.11,7.74l1.52,1.37a15.22,15.22,0,0,0,1.49,1.28,5.06,5.06,0,0,0,1.45.86,1.71,1.71,0,0,0,1.27.17,1.74,1.74,0,0,0,1.15-1.15,3.18,3.18,0,0,0,.54-1.58l0-1-.18-2c-.08-.76-.21-1.52-.35-2.27-.3-1.69-.63-3.38-.91-5.07q-.89-5.45-1.78-10.87-.73-6.74-1.49-13.47c-.13-1.2-.16-2.41-.23-3.61-.18-3.14-.37-6.28-.55-9.42-.08-1.32-.19-2.64-.22-4q-.08-3.4-.14-6.79c-.08-3.91-.22-7.82-.22-11.73q0-7.79,0-15.56c0-1.08,0-2.16.07-3.25.08-3.06.15-6.13.23-9.2.19-7.88.53-15.74,1-23.61.23-4.1.45-8.19.74-12.28s.6-8.46.85-12.69q.24-3.94.47-7.89c.1-1.7.1-3.42.14-5.12l.18-7.38c0-.39,0-.78,0-1.17l-.09-4.47c-.05-2.05-.09-4.1-.14-6.15,0-1.39-.17-2.79-.27-4.18s-.24-2.79-.38-4.18c-.3-3-.74-5.89-1.23-8.82-.93-5.52-2.3-10.94-3.56-16.39l-2.67-11.49c-.89-3.81-1.61-7.66-2.53-11.45l-1.53-6.29-.66-2.73c-.37-1.51-.82-3-1.25-4.49a105.24,105.24,0,0,0-5.07-13.63,88.38,88.38,0,0,0-7-12.37c-1.28-1.94-2.65-3.82-4-5.72-.94-1.32-2-2.58-3-3.86s-2.11-2.67-3.21-4-2.28-2.78-3.42-4.18c-1.28-1.68-2.58-3.35-3.78-5.09a73.75,73.75,0,0,1-6.79-12.39c-.77-1.88-1.45-3.78-2-5.73-.68-2.22-1.17-4.49-1.63-6.76s-.85-4.63-1.24-6.94c-.23-1.38-.47-2.76-.69-4.14l-.57-3.45c-.12-.75-.22-1.5-.36-2.24-.4-1.95-.79-3.91-1.18-5.86-.32-1.57-.7-3.12-1.07-4.68-.84-3.6-1.76-7.18-2.67-10.77-.37-1.47-.81-2.94-1.21-4.41-.45-1.63-.9-3.24-1.43-4.84L86.19,186c-.15-.46-.3-.91-.49-1.35l-1.32-3.15c-.28-.66-.53-1.33-.83-2q-2.47-5.21-5-10.4c-1.4-2.91-2.68-5.89-3.93-8.87l0,.09-.17-.42-.15-.35-.84-2,.06.15-.12-.28-.15-.36c-.94-2.22-1.87-4.45-2.91-6.63-.51-1.08-1-2.18-1.58-3.23s-1.29-2.41-2-3.58c-2.66-4.42-5.38-8.81-8.12-13.19-1.2-1.91-2.43-3.8-3.65-5.7-1.37-2.15-2.73-4.32-4.11-6.47-1.24-1.92-2.44-3.86-3.7-5.77l-1.51-2.31a14.54,14.54,0,0,1-1.22-2.35c-.29-.75-.56-1.5-.83-2.25.3.15.59.32.88.5a19.51,19.51,0,0,1,1.63,1.11q4.05,3.13,8.12,6.24c2.13,1.62,4.36,3.12,6.54,4.67s4.33,2.9,6.5,4.34,4.51,2.9,6.77,4.34c2,1.27,4,2.53,6.07,3.76,2.43,1.45,4.87,2.89,7.28,4.37l4.82,3c.87.53,1.79,1,2.62,1.62l7.3,5.1c3,2.35,6.05,4.7,9,7.1a110.22,110.22,0,0,1,17.81,18.12l0,0c1.14,1.52,2.31,3,3.35,4.64l1.93,3c1.06,1.63,2.14,3.24,3.14,4.9l3.77,6.19c1.2,2,2.33,4,3.5,6q1.34,2.3,2.65,4.59l1.6,2.78c.44.76.8,1.56,1.2,2.34l1.93,3.77c.24.47.5.94.71,1.42l3.26,7.28c.81,1.81,1.57,3.63,2.36,5.44s1.67,3.5,2.55,5.24l1.86,3.65c.58,1.16,1.21,2.28,1.85,3.4a117,117,0,0,0,9.7,14.43c1.51,1.93,3.12,3.78,4.69,5.64,2.26,2.68,4.56,5.31,6.94,7.88a117.6,117.6,0,0,0,20,16.84l6.47,4.41c1.48,1,3,1.94,4.54,2.9l5.33,3.38c.56.35,1.17.65,1.75,1l4.36,2.43c1.33.74,2.65,1.54,4,2.21l7.62,3.69c3.79,1.84,7.65,3.53,11.49,5.28,3.69,1.68,7.37,3.41,11.05,5.13,1.37.64,2.7,1.38,4,2.08l6.18,3.24c.57.3,1.13.64,1.69,1l3.66,2.06c1.65.93,3.31,1.84,4.95,2.79,3.64,2.11,7.28,4.21,10.92,6.34l6.87,4c1.49.87,3.06,1.62,4.6,2.41l6,3.1c1.89,1,3.82,1.85,5.73,2.78,1.39.67,2.8,1.3,4.15,2l7.49,4c3.79,2,7.51,4.16,11.26,6.26,3.23,1.81,6.41,3.72,9.62,5.56l6,3.42c1.52.87,3,1.77,4.57,2.6,3.95,2.09,7.9,4.19,11.9,6.2s7.7,3.95,11.54,5.95c2.82,1.48,5.6,3,8.4,4.54,2.52,1.37,5.08,2.7,7.55,4.17l.22.19a1.94,1.94,0,0,0,1.33.56,1.82,1.82,0,0,0,1.34-.56l.08-.09a2.1,2.1,0,0,0,.56-1.36,2,2,0,0,0-1-1.65l-.95-.62c-.19-.17-.39-.35-.57-.53-.62-.64-1.2-1.31-1.76-2-.72-.95-1.4-1.92-2.05-2.92s-1.34-2.23-2-3.37c-.79-1.41-1.54-2.84-2.22-4.3q-2-4.25-4-8.48c-1.89-4-3.81-8.08-5.72-12.11-1.73-3.67-3.58-7.27-5.17-11l-6.12-14.38q-4.53-11.62-9-23.27c-.39-1-.78-2.05-1.18-3.07-.28-.75-.54-1.52-.88-2.25l-3.35-7c-.66-1.38-1.38-2.72-2.08-4.07L352,275.41c-.4-.76-.84-1.49-1.26-2.24l-1.95-3.45c-1.05-1.88-2.24-3.68-3.37-5.52-2.06-3.35-4.2-6.65-6.54-9.82-1.57-2.12-3.22-4.17-4.89-6.21-1.07-1.31-2.16-2.63-3.31-3.87q-5-5.4-10-10.79c-.91-1-1.85-1.93-2.78-2.89l-6.38-6.6c-5.46-5.65-11-11.26-16.59-16.76l-5.63-5.51c-3.21-3.15-6.4-6.32-9.72-9.36-4-3.66-8.26-7-12.55-10.29-2.3-1.75-4.66-3.41-7-5-1.2-.82-2.41-1.62-3.61-2.42s-2.44-1.64-3.69-2.4l-11.41-6.87c-.45-.26-.94-.48-1.39-.72l-3.32-1.73-7.68-4c-.93-.49-1.87-.9-2.84-1.31l-8.3-3.57-3.11-1.34c-.53-.23-1.06-.49-1.6-.69-2-.74-4.07-1.48-6.09-2.23l-6.61-2.42c-.37-.14-.76-.25-1.14-.37l-3.73-1.16-6.13-1.92c-2.68-.83-5.39-1.54-8.07-2.38s-5.12-1.81-7.63-2.84a123.25,123.25,0,0,1-11.17-5.53l-6.14-3.41-10.85-6.05c-2.32-1.3-4.64-2.62-7-3.83a74.37,74.37,0,0,0-6.85-3c-1.38-.54-2.8-1-4.22-1.46-3.93-1.33-7.93-2.47-11.92-3.64-3.72-1.1-7.41-2.33-11.07-3.61q-6-2.12-12.11-4.1c-1.68-.54-3.38-1-5.07-1.55-1-.3-2.06-.51-3.09-.77-.27-.07-.54-.11-.81-.16l-2.75-.48c-.79-.13-1.58-.24-2.37-.34-1-.13-1.91-.28-2.87-.39q-3-.35-6-.66l-3.53-.37.7-.13c1.06-.19,2.12-.36,3.18-.52l5.19-.76q6.09-.57,12.2-1.18l3.9-.4c.52,0,1-.1,1.53-.17L100,95l2.6-.4c.47-.07.94-.21,1.41-.32l8.75-2c4.19-1,8.33-2.15,12.48-3.25,8-2.12,16-4.19,24-6.31,4-1.08,8.06-2.29,12.08-3.45s8.15-2.51,12.22-3.77,7.86-2.53,11.79-3.81,7.82-2.45,11.74-3.68c3.72-1.16,7.47-2.27,11.2-3.41.63-.19,1.25-.46,1.87-.69l4-1.48L218,61c1.32-.48,2.61-1,3.91-1.54,2.27-.95,4.53-1.94,6.76-3,2.5-1.15,4.93-2.45,7.33-3.79,3-1.66,5.89-3.44,8.78-5.27,3.73-2.38,7.46-4.76,11.16-7.2l5.75-3.78c1.58-1,3.1-2.17,4.65-3.26l6-4.24c1.26-.88,2.48-1.81,3.71-2.72Q284.51,20,293,13.86c2.52-1.85,5-3.8,7.44-5.71s4.64-3.63,6.95-5.46q6.86-5.44,13.6-11c2.37-2,4.72-3.95,7.12-5.87l8.12-6.47c3.25-2.4,6.48-4.83,9.77-7.18l10.61-7.58c1.8-1.28,3.63-2.51,5.44-3.76,1.32-.91,2.61-1.83,4-2.67l6.91-4.26c1.43-.88,2.84-1.78,4.28-2.63l12.94-7.68c1.06-.63,2.16-1.21,3.25-1.81l7.47-4.12c1.31-.72,2.65-1.39,4-2.08,1.84-1,3.66-2,5.55-2.85l6.35-3c.71-.33,1.43-.62,2.15-.92l3-1.3c3.54-1.44,7.1-2.86,10.62-4.39a7.44,7.44,0,0,0,3.18-2.19,2.29,2.29,0,0,0,.56-1.41,2.94,2.94,0,0,0-.4-1.41l-.26-.36a3.79,3.79,0,0,0-1.23-1.16,14.4,14.4,0,0,0-2.62-1.49,29,29,0,0,0-2.89-1.16,43.21,43.21,0,0,0-5.48-1.53A70.81,70.81,0,0,0,416-88.73c-1-.11-2-.21-2.95-.29l-8.21-.69c-.4,0-.79,0-1.19-.05l-3.69-.11-7.56-.21c-.93,0-2,0-2.9,0-1.42,0-2.84.06-4.25.1-2.88.09-5.74.28-8.6.53-3,.25-6.07.64-9.09,1-2.72.36-5.46.7-8.17,1.16l-14.66,2.45c-1,.17-2,.32-3,.54L334-82.58c-3.59.78-7.2,1.48-10.76,2.4l-16,4.13c-.83.21-1.64.44-2.47.7l-7.87,2.48-7.75,2.44c-1,.3-1.93.59-2.87,1l-15.11,5.77c-1,.39-2.07.76-3.09,1.18l-5.79,2.41-12.81,5.34c-1.24.51-2.44,1.13-3.65,1.7l-8.27,3.9-6.92,3.27c-.88.42-1.76.83-2.63,1.28L215.23-38c-2.83,1.47-5.68,2.88-8.53,4.31l-5.57,2.8c-1.33.66-2.71,1.25-4.06,1.87l-5.23,2.4c-1.71.78-3.46,1.48-5.18,2.22s-3.18,1.24-4.8,1.81c-2,.7-4,1.39-5.93,2.11L172-19c-.68.25-1.37.47-2,.74l-7.05,2.82c-1.44.57-2.84,1.23-4.25,1.88l-4,1.84c-.63.3-1.28.58-1.9.9l-6.06,3.1C145-6.89,143.3-5.93,141.6-5c-3.43,1.85-6.88,3.69-10.41,5.34l-5.52,2.59c-1.85.86-3.73,1.69-5.54,2.64L117,7.21c-.7.37-1.37.79-2,1.18-1.93,1.13-3.84,2.29-5.74,3.46-3.48,2.16-6.85,4.49-10.24,6.79-1.2.81-2.35,1.68-3.52,2.53-1.38,1-2.73,2-4.08,3-1.15.88-2.27,1.79-3.39,2.7S85.49,29,84.28,30c-2.14,1.88-4.12,3.94-6.07,6s-3.85,4.21-5.68,6.41a67.59,67.59,0,0,0-5.1,6.82,43.37,43.37,0,0,0-3.69,7,75.6,75.6,0,0,0-2.62,7.87c-.4,1.46-.75,2.92-1.18,4.37A33.52,33.52,0,0,1,58.72,72a18.07,18.07,0,0,1-1.59,2.77,5,5,0,0,1-.6.62,7.82,7.82,0,0,1-1.22.72,5.36,5.36,0,0,1-1,.27,27.64,27.64,0,0,1-6.23-.15,37.86,37.86,0,0,1-8.4-2A40.35,40.35,0,0,1,35,71.46c-.89-.57-1.72-1.18-2.56-1.81l-1-.83c-.39-.37-.77-.76-1.12-1.16s-.88-1-1.32-1.54c-.7-.83-1.4-1.67-2.09-2.51-1.07-1.45-2.11-2.91-3.18-4.35-1.28-1.71-2.62-3.36-4-5-2.21-2.51-4.45-5-6.57-7.61a8.25,8.25,0,0,1-.65-1.11v0l.21-.76a28.71,28.71,0,0,1,1.93-3.3,9,9,0,0,1,.71-.8,18.05,18.05,0,0,1,1.55-1.35c3.59-2.71,7.39-5.12,11.17-7.57,1.57-1,3.12-2.05,4.67-3.1,1.87-1.28,3.69-2.62,5.52-4,1.55-1.13,3-2.39,4.5-3.6,1.69-1.36,3.27-2.86,4.88-4.3,1.31-1.17,2.58-2.38,3.85-3.58s2.76-2.6,4.1-3.94l3-3c.45-.45.92-.89,1.36-1.36L65-.43Q69-4.66,72.88-9C78.32-15,83.64-21.2,89.11-27.23c1.7-1.87,3.39-3.76,5.11-5.63C95.81-34.58,97.42-36.3,99-38l2.82-3.16c.26-.29.49-.6.73-.89l1.81-2.27c1.53-1.91,3-3.87,4.39-5.88,1.51-2.17,3-4.34,4.44-6.55,1.31-2,2.63-4,4-6,2.75-4,5.65-7.92,8.61-11.78q2.51-3.15,5.07-6.25c1.74-2.08,3.52-4.15,5.26-6.23.93-1.11,1.94-2.17,2.91-3.25.81-.9,1.63-1.76,2.47-2.61l3-3c1.17-1.19,2.42-2.32,3.63-3.48,2-1.88,4-3.69,6-5.55s3.91-3.75,5.84-5.66c1-1,2-2.06,3-3.09s2-2.09,3-3.13c.84-.84,1.74-1.61,2.63-2.39l3.56-3.13,4.93-3.71c1.67-1.25,3.41-2.4,5.13-3.58l4.33-2.92c1.56-1.05,3.06-2.19,4.59-3.27l5.95-4.2c.5-.36,1-.67,1.54-1l4.09-2.66q4.74-3.07,9.58-6c1.65-1,3.29-2,5-3,1.88-1.08,3.74-2.23,5.67-3.25l3.27-1.72c.68-.36,1.38-.67,2.08-1,2.13-1,4.27-1.92,6.42-2.85,3.59-1.55,7.21-3.06,10.77-4.67,3.86-1.75,7.69-3.58,11.52-5.39.94-.44,1.87-.94,2.8-1.41.75-.37,1.5-.74,2.24-1.13L268-177.2q2.58-1.37,5.11-2.79c1.73-1,3.37-2.15,5-3.27.64-.43,1.26-.89,1.87-1.35l1.05-.84c.17-.17.35-.33.53-.49s.5-.58.72-.89a3.8,3.8,0,0,0,.56-2.93,3.62,3.62,0,0,0-.82-1.42c-.38-.3-.77-.59-1.17-.89a10.56,10.56,0,0,0-1.51-.74l-1.11-.46a16.79,16.79,0,0,0-1.85-.49c-.47-.12-1-.19-1.44-.28-.95-.18-1.9-.29-2.86-.4-2-.23-4-.37-6-.46s-4-.17-6-.24H259l-2.34,0Zm-12.24,5,4.91-.34c.76-.06,1.54-.06,2.31-.08l3.38-.12c1.48-.05,3,0,4.46,0s2.73.06,4.09.12c1.68.07,3.37.15,5,.25.73,0,1.46.07,2.18.16l2.38.26,1.79.32c.4.07.79.16,1.17.26a10,10,0,0,1,1.61.5l.29.12.14.06,0,0,.25.13c-.17.17-.34.33-.53.49l-.69.55,0,0c-1.41,1-2.86,2-4.3,3-1.76,1.18-3.64,2.17-5.5,3.19-3.59,2-7.23,3.86-10.89,5.71-1.86.93-3.74,1.82-5.62,2.71s-3.49,1.67-5.24,2.48-3.58,1.65-5.39,2.43q-3.25,1.4-6.49,2.82c-3.53,1.54-7.09,3.05-10.49,4.87l-2.67,1.42c-.79.42-1.56.91-2.33,1.36-1.77,1-3.54,2.07-5.29,3.14-3.59,2.21-7.19,4.4-10.71,6.72l-5.94,3.91c-1.67,1.1-3.28,2.29-4.91,3.45s-3.12,2.23-4.66,3.36c-1.78,1.3-3.58,2.54-5.39,3.79-1.65,1.14-3.29,2.3-4.93,3.45-.53.36-1,.77-1.53,1.15l-3.77,2.87c-.46.35-1,.68-1.38,1.06l-2.43,2.15L164.53-120c-.65.57-1.22,1.22-1.82,1.83l-4.34,4.5c-1.54,1.61-3.15,3.16-4.73,4.73-2.68,2.64-5.53,5.11-8.24,7.71-3,2.84-5.93,5.67-8.66,8.73-1.35,1.52-2.72,3-4,4.59s-2.75,3.27-4.14,4.89c-2.59,3-5.07,6.15-7.5,9.3-3.12,4-6.14,8.15-9,12.37-1.48,2.19-3,4.37-4.47,6.54s-3.27,4.52-4.93,6.76l-1.86,2.3c-.53.65-1,1.34-1.6,2C98-42.43,96.72-41,95.45-39.65q-4.5,4.88-9,9.81C81.2-24,76.07-18,70.81-12.08c-2.67,3-5.38,5.92-8.09,8.87-1.49,1.62-3,3.21-4.5,4.82C56.88,3,55.47,4.41,54.09,5.8,52.91,7,51.74,8.15,50.53,9.3c-1.45,1.39-2.88,2.82-4.37,4.17q-2.53,2.26-5,4.55c-.56.5-1.17,1-1.75,1.43l-2.62,2.14c-1.55,1.15-3.1,2.34-4.69,3.44-1.87,1.3-3.74,2.59-5.64,3.85A149.54,149.54,0,0,0,14,37.63a12.47,12.47,0,0,0-2.86,3.56c-.3.53-.58,1.05-.87,1.59a6.27,6.27,0,0,0-.86,2.67,5.56,5.56,0,0,0,1.46,3.2c.52.65,1,1.28,1.57,1.91C13.64,52,14.8,53.44,16,54.86s2.56,3,3.79,4.52c1.49,2,2.93,4.07,4.42,6.09.78,1,1.65,2,2.48,3,.61.72,1.23,1.43,1.88,2.12a18.11,18.11,0,0,0,2.61,2.17c1.13.83,2.32,1.56,3.51,2.3.91.56,1.82,1.07,2.77,1.56a18.59,18.59,0,0,0,2.77,1.06,41.2,41.2,0,0,0,7.86,1.44,35.63,35.63,0,0,0,3.72.18c.63,0,1.26-.06,1.88-.12a7.33,7.33,0,0,0,2.83-.74,9.15,9.15,0,0,0,1.75-1.22,8.6,8.6,0,0,0,1.5-1.94,20.22,20.22,0,0,0,1.53-3,73.77,73.77,0,0,0,2.48-7.81,76.33,76.33,0,0,1,2.62-7.49,52.76,52.76,0,0,1,2.83-5.3c.48-.81,1-1.63,1.52-2.39l1.91-2.55c1.44-1.8,2.93-3.56,4.44-5.31s3.08-3.33,4.64-5c.7-.74,1.43-1.44,2.15-2.15s1.57-1.5,2.39-2.21L89,29.73c1-.87,2.07-1.68,3.1-2.51,1.18-.89,2.34-1.81,3.54-2.68L100,21.37c1.46-1.06,3-2,4.5-3s2.91-1.91,4.36-2.86c2.81-1.84,5.74-3.5,8.65-5.16s5.91-3,8.93-4.41c2.85-1.31,5.71-2.59,8.53-4,1.41-.69,2.84-1.35,4.23-2.08L144-2.66c1.44-.76,2.87-1.55,4.33-2.28l5.73-2.87c1.15-.58,2.34-1.1,3.51-1.63L163-11.91l5.8-2.27c1.58-.62,3.16-1.19,4.77-1.75,3.69-1.29,7.42-2.51,11.1-3.83l3-1.08c.94-.34,1.87-.76,2.8-1.14,1.58-.64,3.15-1.28,4.7-2l7.18-3.18c1.26-.56,2.49-1.2,3.73-1.81,3.44-1.69,6.91-3.34,10.32-5.08l13.7-7c.74-.38,1.49-.73,2.24-1.08L239-45.24q6-2.8,12-5.63L263.44-56l5.63-2.33c1.07-.44,2.17-.83,3.25-1.24l15.12-5.74c.8-.31,1.6-.56,2.42-.81l8.2-2.57L305.54-71c1-.3,1.9-.58,2.87-.83l16-4.12c3.56-.91,7.17-1.62,10.76-2.39l7.37-1.59c1.11-.24,2.23-.42,3.35-.61l10.5-1.76,3.83-.64c2.63-.44,5.28-.77,7.93-1.13l-.59.08c4-.52,8-1,12-1.28,3.77-.28,7.56-.37,11.34-.42,3.26,0,6.52.12,9.77.21l3.81.1c1,0,1.93.15,2.9.23l5.65.45c1.88.14,3.74.35,5.61.58,1.68.25,3.35.54,5,.91a39.46,39.46,0,0,1,6.17,2c.44.2.87.42,1.29.65-.19.1-.4.19-.61.28l-1.09.48c-3.34,1.37-6.7,2.7-10,4.12-1.77.76-3.57,1.49-5.31,2.32l-3.68,1.74c-.82.39-1.65.75-2.45,1.17-3.49,1.81-7,3.6-10.43,5.51s-7.08,3.85-10.53,5.92l-7.36,4.38c-1.54.92-3.09,1.82-4.62,2.76l-11.8,7.31c-.35.22-.7.47-1,.71l-3.32,2.31c-1.53,1.06-3.07,2.11-4.59,3.19-3.48,2.48-7,4.93-10.46,7.47l-8.16,6c-1.71,1.25-3.35,2.57-5,3.88-2.06,1.65-4.16,3.26-6.19,4.93L316.86-9.9q-6.06,5-12.22,9.89c-4.27,3.39-8.58,6.73-12.9,10.07q-7,5.15-13.95,10.29l-4.66,3.45c-.76.57-1.52,1.16-2.31,1.71L262.2,31.6c-1.85,1.3-3.71,2.55-5.59,3.79-2.5,1.66-5,3.35-7.52,5L240.3,46c-.84.54-1.71,1-2.57,1.54q-3,1.75-6,3.4c-3.64,2-7.44,3.67-11.25,5.29l.42-.18c-4.48,1.87-9.06,3.47-13.62,5.16-.63.23-1.3.4-1.95.6L201.25,63l-5.13,1.58c-3.91,1.22-7.84,2.42-11.73,3.69s-7.84,2.6-11.79,3.82-8.13,2.59-12.22,3.77-8,2.37-12.08,3.45c-8,2.13-16,4.2-24,6.35l-10.1,2.72c-2.39.64-4.81,1.15-7.21,1.72l-4.73,1.12c-.65.15-1.31.24-2,.35L91.7,93c-4.55.49-9.11,1-13.66,1.45l-3.31.33c-1.09.12-2.17.33-3.24.49l-3.56.55c-1.55.24-3.09.55-4.62.88a14.52,14.52,0,0,0-2.65.75,3.78,3.78,0,0,0-1.15.66,1.6,1.6,0,0,0-.71.92,1.72,1.72,0,0,0,.16,1.18,1.39,1.39,0,0,0,.36.59c.2.16.41.31.63.46s.55.25.84.37a12.8,12.8,0,0,0,1.85.45c1.18.2,2.36.35,3.55.5L75,103.67l3.47.52c1.09.17,2.17.39,3.26.6a59.1,59.1,0,0,1,6.87,1.86c4.55,1.43,9.05,3,13.53,4.66s8.85,3.13,13.33,4.51c5.43,1.68,10.87,3.33,16.14,5.46a74.45,74.45,0,0,1,7.49,3.71l4.19,2.41c2,1.15,4,2.31,6,3.45l7.11,4.06c4.25,2.42,8.48,4.82,12.89,6.92,3.05,1.44,6.2,2.66,9.37,3.82s6.29,1.95,9.42,3l9.29,3c2.06.66,4.06,1.45,6.08,2.21l8.07,3,12.35,5.39,1.39.61c.47.21.93.49,1.39.73l7.89,4.14,3.09,1.62c.34.18.7.35,1,.55l6.34,3.82c2.1,1.26,4.22,2.51,6.29,3.83,5.13,3.3,10.14,6.77,15,10.47q4.95,3.84,9.65,8c3.18,2.8,6.16,5.83,9.21,8.76,2.44,2.34,4.85,4.7,7.28,7,4.51,4.36,8.9,8.83,13.32,13.27,1.74,1.76,3.46,3.53,5.18,5.3,2.09,2.13,4.22,4.23,6.27,6.41l7.1,7.56,3.29,3.49c.76.81,1.47,1.67,2.19,2.52,1.53,1.79,3,3.62,4.45,5.47,2.23,2.93,4.34,5.94,6.3,9.05l3.35,5.29c1.54,2.43,2.93,5,4.38,7.44.69,1.21,1.31,2.46,2,3.68,1,1.81,1.93,3.62,2.9,5.42.63,1.18,1.19,2.41,1.78,3.61q1.13,2.34,2.27,4.66c2.73,6.7,5.38,13.44,8.05,20.17,1.16,2.92,2.26,5.85,3.5,8.74l5.76,13.37c.4.92.78,1.85,1.21,2.75,1.08,2.21,2.16,4.43,3.23,6.64,1.62,3.34,3.2,6.69,4.8,10s3.1,6.55,4.64,9.82l1.3,2.76c.5,1.07,1.05,2.11,1.6,3.16s1.28,2.37,2,3.52l-1.83-1c-3.48-1.91-7-3.76-10.51-5.58-1.76-.91-3.52-1.82-5.29-2.7s-3.64-1.79-5.43-2.73l-7-3.68c-1.4-.73-2.76-1.51-4.13-2.29q-5.85-3.31-11.67-6.64c-3.94-2.26-7.91-4.47-11.89-6.67-3.75-2.08-7.57-4.05-11.37-6.06-1.21-.64-2.44-1.22-3.68-1.81l-6.88-3.29c-1.63-.78-3.22-1.64-4.82-2.46L305,329.13c-.59-.3-1.21-.58-1.78-.91-3.5-2-7-4.05-10.51-6.06-3.8-2.19-7.61-4.38-11.44-6.52q-3.21-1.81-6.44-3.61c-1.67-.93-3.39-1.77-5.08-2.66-1.2-.62-2.4-1.24-3.59-1.87-.45-.23-.89-.48-1.34-.69l-6.77-3.12c-3.85-1.78-7.72-3.52-11.59-5.27S238.81,294.83,235,293c-1.23-.6-2.42-1.25-3.62-1.91l-7.11-3.94c-.36-.19-.7-.42-1-.64l-3.25-2-3.62-2.28c-.6-.37-1.2-.73-1.78-1.12l-6.39-4.31q-4.26-2.88-8.36-6A117.74,117.74,0,0,1,183.4,254.9l-3.63-4.25c-.66-.76-1.31-1.53-2-2.29s-1.37-1.69-2-2.56c-1.73-2.26-3.38-4.56-5-6.93s-2.93-4.73-4.3-7.14-2.49-4.76-3.7-7.16c-.44-.85-.88-1.71-1.31-2.57-.32-.62-.57-1.3-.84-1.94-.82-1.88-1.62-3.77-2.46-5.64l-3-6.72c-.27-.59-.59-1.16-.88-1.74l-2.22-4.38c-.8-1.57-1.69-3.09-2.56-4.63-1-1.7-1.93-3.4-2.91-5.09-2.29-4-4.63-7.89-7-11.82-1-1.62-2-3.2-3.05-4.79L135,172.68c-.49-.77-1.07-1.55-1.59-2.29-.86-1.22-1.74-2.41-2.66-3.58-1.73-2.23-3.55-4.38-5.43-6.48s-3.77-4-5.73-5.85c-3.11-3-6.47-5.73-9.86-8.41l-5.31-4.22c-.57-.45-1.17-.85-1.76-1.26l-4.06-2.88c-.66-.46-1.3-1-2-1.39l-3.11-1.94c-1.88-1.16-3.76-2.36-5.66-3.5l-7.74-4.65c-2-1.21-4-2.52-6-3.78q-2.46-1.56-4.9-3.16c-2-1.34-4.11-2.64-6.1-4.05l-6.33-4.48c-.9-.65-1.77-1.35-2.66-2L51,106.33c-1.49-1.17-3-2.36-4.55-3.39l-.84-.49a15.52,15.52,0,0,0-1.65-.77l-1-.32c-.47-.07-1-.13-1.42-.17a1.74,1.74,0,0,0-1.31.54,2.53,2.53,0,0,0-.81,1.15c0,.16-.05.33-.07.49,0,.32.08.64.13,1,.13.53.29,1,.47,1.58a34.13,34.13,0,0,0,2,4.89,42.34,42.34,0,0,0,2.51,3.85c1,1.44,1.9,2.91,2.84,4.37,1.06,1.66,2.15,3.32,3.21,5,2.09,3.25,4.21,6.46,6.3,9.72s4.35,6.78,6.47,10.2c1.08,1.73,2.08,3.5,3.1,5.27.4.71.74,1.48,1.11,2.22s.87,1.7,1.25,2.57c1.78,4,3.51,8,5.32,12,.8,1.74,1.59,3.48,2.44,5.19,1,2,1.94,3.9,2.9,5.86.42.87.84,1.74,1.27,2.6.24.5.51,1,.73,1.52q1,2.35,2.05,4.73c.56,1.61,1.11,3.21,1.66,4.82.4,1.16.72,2.33,1.06,3.51.45,1.6.9,3.19,1.36,4.79.51,1.79.94,3.62,1.41,5.42.79,3.06,1.51,6.13,2.24,9.2.3,1.24.52,2.48.78,3.72.29,1.42.6,2.83.83,4.26q.8,4.78,1.6,9.57c.36,2.08.72,4.14,1.11,6.22A67.67,67.67,0,0,0,99.09,250a74.41,74.41,0,0,0,4.57,9.21c.49.85,1,1.68,1.52,2.5s1.11,1.76,1.7,2.56,1.25,1.7,1.88,2.54c1.76,2.39,3.62,4.71,5.46,7s3.66,4.85,5.36,7.37c1.32,2,2.64,3.92,3.91,5.92a91.74,91.74,0,0,1,6.61,12.52c1.05,2.58,2,5.2,2.87,7.86.42,1.29.8,2.61,1.17,3.91s.77,2.67,1.08,4c.62,2.7,1.25,5.4,1.87,8.09,1,4.27,1.84,8.58,2.75,12.87.83,4,1.77,7.91,2.66,11.86l1.86,8.18q1.33,6,2.18,12c.34,2.61.6,5.21.81,7.83.12,1.57.24,3.14.28,4.72.07,2.82.13,5.63.2,8.45,0,1.31,0,2.61,0,3.93l-.18,8.93c-.09,4.28-.4,8.56-.63,12.84s-.53,8.49-.81,12.74-.43,8.35-.64,12.53-.32,8.1-.45,12.16c-.13,3.83-.22,7.66-.29,11.49s-.18,7.57-.17,11.35q0,6.46,0,12.93c0,2.46.09,4.92.15,7.39l.3,11.81c0,.79.08,1.58.13,2.37.15,2.32.29,4.63.44,6.95.12,2,.25,3.94.37,5.91,0,.77.1,1.52.19,2.29q.72,6.3,1.45,12.59c.1.91.24,1.8.39,2.7q.6,3.51,1.18,7c.2,1.19.39,2.39.61,3.59.34,1.83.72,3.67,1,5.52l.09.85c0,.12,0,.24,0,.36-.7-.63-1.39-1.29-2.08-1.93l-2.5-2.35c-1.49-1.42-3-2.85-4.42-4.33-1.75-1.78-3.51-3.54-5.22-5.35s-3.36-3.47-5-5.26L128.72,535c-.71-.79-1.47-1.57-2.16-2.39l-5.9-7c-1.31-1.54-2.52-3.14-3.76-4.72L112.23,515l-6.45-9.07c-.53-.74-1-1.47-1.52-2.25L100.75,498c-.61-1-1.28-2-1.83-3q-1.31-2.47-2.63-4.93l-2.85-5.35c-.54-1-1-2-1.52-3.06q-1.89-3.87-3.6-7.85c-2.83-6.87-5-14-7.31-21-.53-1.65-1.09-3.28-1.59-4.94-.71-2.33-1.41-4.66-2.12-7-.57-1.86-1.13-3.73-1.7-5.59s-1.13-4-1.69-6.05l-2-7.07c-.38-1.37-.67-2.78-1-4.17l-2-8.4c-.3-1.28-.62-2.55-.88-3.83q-1.41-7-2.81-14c-.31-1.54-.56-3.09-.83-4.64-.52-2.83-1-5.67-1.54-8.5-.2-1.12-.37-2.23-.53-3.35-.45-2.95-.9-5.91-1.34-8.86-.78-5.15-1.48-10.31-2.21-15.46q-.8-6.28-1.6-12.55c-.21-1.63-.36-3.28-.54-4.91-.29-2.7-.58-5.39-.88-8.09-.45-4.18-.93-8.36-1.4-12.54-.43-3.85-.94-7.7-1.41-11.55-.51-4-.91-8.09-1.35-12.13-.42-3.82-.88-7.63-1.28-11.46s-.89-7.68-1.43-11.52-1-7.77-1.72-11.62c-.27-1.5-.54-3-.86-4.46s-.65-3-1-4.48q-1.07-5-2.12-10c-.64-3.07-1.3-6.16-2-9.23-.58-2.76-1-5.56-1.51-8.34-.22-1.77-.46-3.55-.58-5.33q-.24-3.26-.43-6.52c-.12-2.06-.29-4.13-.44-6.2s-.25-3.85-.42-5.77c-.35-4.07-.72-8.15-1.15-12.21s-.85-8.4-1.3-12.6c-.21-2.06-.42-4.12-.6-6.18s-.26-3.89-.37-5.83c-.23-4-.23-8-.32-12.06-.1-3.76-.22-7.54-.58-11.29q-.59-5.94-1.47-11.84c-.11-.71-.29-1.42-.43-2.13-.1-.51-.21-1-.34-1.51a30.43,30.43,0,0,0-1-3.41c-.47-1.24-1-2.46-1.48-3.68s-1.05-2.2-1.6-3.28a68.89,68.89,0,0,0-3.72-6.24q-2.16-3.32-4.5-6.5c-1.46-2-3-4-4.46-5.93s-3-3.81-4.57-5.68c-.82-1-1.61-2-2.43-3S6,79,5.13,78s-1.61-1.78-2.36-2.71C1.86,74.21,1,73.08.08,72-1,70.49-2.12,69-3.18,67.54s-2.23-3.16-3.37-4.72c-.41-.57-.86-1.11-1.32-1.65a11.64,11.64,0,0,0-1.42-1.29c-.48-.41-1-.76-1.5-1.13a11.22,11.22,0,0,0-2.51-1.28l-.37,0a2.7,2.7,0,0,0-1,0,5,5,0,0,0-1.4.44,8.65,8.65,0,0,0-2.39,1.86,22.48,22.48,0,0,0-2.62,3.67c-1,1.64-1.91,3.35-2.77,5.07-.74,1.47-1.32,3-1.94,4.55a52.39,52.39,0,0,0-1.88,5.72A87.91,87.91,0,0,0-30.2,89.59c-.24,1.58-.46,3.16-.58,4.75-.15,1.8-.26,3.6-.43,5.4-.34,3.71-.26,7.45-.29,11.18s-.06,7.28-.1,10.92c0,2.62-.06,5.23,0,7.84.09,3.27.28,6.52.53,9.77.23,3.05.73,6.07,1.2,9.08.44,2.79,1.05,5.54,1.74,8.28s1.41,5.32,2.29,7.93a74.17,74.17,0,0,0,3.19,7.72c1.26,2.66,2.84,5.18,4.29,7.74.74,1.31,1.49,2.63,2.16,4s1.33,2.78,2,4.19,1.05,2.61,1.53,3.93c.57,1.56,1.11,3.12,1.64,4.69,1.06,3.12,2,6.3,2.85,9.47s1.74,6.15,2.45,9.27,1.14,6.33,1.59,9.52c.2,1.74.43,3.47.57,5.22q.28,3.54.54,7.08c.15,2,.26,4,.38,6s.15,3.78.26,5.67.19,3.8.35,5.7c.18,2.11.35,4.23.54,6.35s.35,3.94.55,5.91.37,4.21.64,6.31c.56,4.33,1.12,8.66,1.79,13,.64,4.1,1.42,8.17,2.22,12.23.72,3.62,1.36,7.24,2,10.87.73,4.26,1.47,8.51,2.12,12.78q1.25,8.06,2.61,16.08c.88,5.1,1.66,10.23,2.37,15.36.85,7.17,1.7,14.37,2.13,21.58.45,7.44.72,14.89.65,22.35q-.06,5.71-.17,11.43c-.07,3.8-.3,7.59-.51,11.38-.11,2-.31,4-.47,6s-.35,4-.53,5.95c-.17,1.82-.43,3.63-.64,5.44s-.48,3.57-.72,5.36l.09-.65c-.53,3.8-1,7.61-1.66,11.39-.33,1.95-.64,3.89-1,5.82-.42,2.22-.86,4.42-1.33,6.63-.42,2-.87,4-1.32,6-.5,2.2-1.09,4.39-1.66,6.58-.49,1.89-1.08,3.75-1.63,5.61s-1.18,3.76-1.78,5.64-1.13,3.59-1.64,5.4c-.32,1.16-.64,2.33-1,3.5s-.58,2.29-.86,3.44c-1,4.1-1.88,8.26-2.8,12.39-.45,2-.81,4.08-1.21,6.12s-.74,4.09-1.11,6.13c-.68,3.8-1.21,7.62-1.75,11.44-.37,2.63-.65,5.29-.94,7.94-.26,2.35-.54,4.7-.8,7-.58,5.12-1.11,10.26-1.63,15.4q-.24,1.74-.54,3.48c-.15.87-.3,1.74-.46,2.62-.09.45-.18.9-.29,1.35-.3-.55-.58-1.12-.84-1.7a67.56,67.56,0,0,1-3-10.12c-.87-3.68-1.67-7.38-2.5-11.07l-1.38-6.12c-.44-1.94-1-3.86-1.47-5.78-.93-3.57-1.74-7.17-2.57-10.76-1.82-7.81-3.86-15.57-5.82-23.34-1-3.89-1.82-7.83-2.89-11.7s-2.14-7.72-3.29-11.56q-1.55-5.19-3.08-10.38c-.92-3.1-1.75-6.21-2.65-9.31-1.81-6.23-3.61-12.47-5.28-18.74q-1.41-5.28-2.81-10.55c-.81-3-1.54-6-2.3-9s-1.49-6.13-2.05-9.22c-.29-1.62-.62-3.23-.87-4.86l-.81-5.37c-.93-7.82-1.83-15.63-2.54-23.47-.36-4.06-.75-8.11-1-12.18-.29-4.24-.54-8.48-.8-12.72-.52-8.32-1-16.65-1.61-25q-.46-6.19-.8-12.4c-.23-4.2-.52-8.39-.8-12.59-.22-3.3-.53-6.61-.81-9.91-.13-1.5-.31-3-.48-4.5-.14-1.33-.29-2.66-.47-4-.88-6.66-1.89-13.28-2.9-19.91-.47-3.73-.91-7.46-1.48-11.17s-1.16-7.51-1.72-11.26c-.38-3.05-.76-6.1-1.11-9.15-.15-1.27-.28-2.54-.41-3.82-.14-1.48-.31-3-.39-4.43-.09-1.65-.18-3.29-.26-4.94,0-.71,0-1.43,0-2.14,0-1,0-2.09,0-3.13q-.06-4.17.13-8.34c.07-1.45.09-2.91.2-4.36.13-1.86.27-3.73.4-5.59.19-2.68.36-5.36.64-8q.54-5.2,1.15-10.4c.32-2.78.69-5.54,1-8.31s.78-5.37,1.26-8c.57-3.27,1.17-6.53,1.77-9.79,1.1-5.86,2.65-11.62,4.12-17.4,1.54-6.07,3.15-12.11,5-18.1.78-2.57,1.55-5.13,2.42-7.67.5-1.44,1-2.9,1.5-4.33q.91-2.41,1.85-4.85c.68-1.62,1.36-3.24,2.15-4.81.43-.87.84-1.77,1.32-2.62L-47,93.83c1-1.69,2-3.32,3.08-5s2.28-3.5,3.42-5.25c2.08-3.15,4-6.42,5.78-9.74,1-1.78,1.95-3.56,2.87-5.36l1.44-2.82c.53-1,1-2.14,1.47-3.21,1.73-3.73,3.33-7.55,4.75-11.42.44-1.2.88-2.38,1.27-3.6a37.9,37.9,0,0,0,1.48-7.14c.14-1.29.23-2.54.25-3.83,0-.45,0-.9,0-1.35,0-1-.12-2.1-.18-3.14-.13-1.86-.37-3.7-.61-5.55s-.68-3.87-1.11-5.78-1-3.55-1.52-5.31c-.25-.84-.52-1.66-.81-2.48-.39-1.11-.83-2.19-1.27-3.28-.65-1.6-1.33-3.19-2-4.78-.36-.85-.71-1.72-1.1-2.56C-30.42,1.12-31,0-31.49-1.18c-.45-.95-1-1.88-1.44-2.81-.37-.72-.74-1.43-1.12-2.14-1.08-2-2.2-4.06-3.32-6.08-.48-.86-1.05-1.67-1.58-2.49s-.88-1.36-1.35-2l-1.87-2.64c-.75-1-1.61-2-2.42-3-1.59-2-3.29-3.87-5-5.77.94.49,1.89,1,2.85,1.42,3.66,1.77,7.49,3.4,10.8,5.79a19.07,19.07,0,0,1,2,2c.29.34.56.69.83,1,1,1.37,1.87,2.77,2.77,4.19,1,1.67,2,3.43,2.91,5.15,1.85,3.3,3.72,6.6,5.52,9.93C-21,3-20.06,4.63-19.11,6.23s1.94,3.36,2.86,5.06q1.17,2.13,2.25,4.32c.84,1.7,1.66,3.4,2.63,5A22,22,0,0,0-10,22.71a23.88,23.88,0,0,0,1.8,2.09,8.73,8.73,0,0,0,2,1.51,2.43,2.43,0,0,0,1.5.21c1.16-.08,1.82-1.06,2.35-2a11.94,11.94,0,0,0,1-2.84c.22-.83.38-1.68.56-2.53.35-1.66.7-3.31,1.09-5C1.21,10.77,2.23,7.36,3.32,4c.48-1.47,1-2.94,1.42-4.41C5.33-2.33,5.83-4.27,6.4-6.2c.32-1.11.6-2.24.89-3.37.35-1.33.73-2.64,1.13-3.95q1.19-4,2.53-7.9C12.76-26.7,14.9-31.86,17-37q3.52-8.67,6.79-17.43c.92-2.47,1.68-5,2.62-7.44s2-5,3-7.53c1-2.18,2-4.36,3-6.53.41-.91.88-1.79,1.33-2.67s.87-1.78,1.37-2.62c2.37-4,4.79-8,7.36-12s5.35-8.09,8.08-12.09c1.45-2.11,2.9-4.2,4.39-6.29,1.33-1.86,2.71-3.68,4.08-5.51a47,47,0,0,1,5.57-6l3.69-3.24c.8-.7,1.66-1.32,2.5-2l3-2.31,4.67-3.34c.89-.64,1.85-1.2,2.78-1.79.74-.48,1.48-.93,2.23-1.39,1.61-1,3.22-2,4.84-2.91l7.15-4.14c1.2-.69,2.43-1.32,3.66-2l7.43-3.87c1.33-.69,2.72-1.28,4.08-1.9l6-2.78,6-2.29c1.75-.67,3.51-1.26,5.28-1.85l12.21-4.1c3.93-1.32,7.9-2.55,11.84-3.82,4.18-1.35,8.34-2.75,12.51-4.13,3.6-1.2,7.16-2.52,10.74-3.79,2.08-.73,4.18-1.39,6.27-2.09,1.67-.56,3.33-1.12,5-1.64l6.86-2.14c.58-.18,1.17-.33,1.75-.49l4.89-1.35c1.61-.44,3.21-.86,4.82-1.26,2.11-.52,4.21-1.06,6.35-1.48,4-.81,8-1.57,12.07-2.24,1.87-.31,3.74-.66,5.62-.92l6.68-.91c2.94-.35,5.88-.75,8.83-1ZM-111.19-94.54l.25.32-.25-.32Zm30.06,32.31c.06.09.13.17.19.25-.06-.08-.13-.16-.19-.25ZM-32.46,7.69l.21.51-.21-.51Zm324.11,2.45-.24.18.24-.18ZM-5.42,23.23l-.11.08.11-.08ZM92,27.3l-.13.09L92,27.3ZM17.18,39.12l-.17.13.17-.13Zm-2.56,2.39c-.07.09-.13.18-.2.26l.2-.26Zm58.2,5a.86.86,0,0,1-.07.1.86.86,0,0,0,.07-.1ZM-13.93,60h0Zm-.94.24-.15.06.15-.06ZM57.3,74.53l-.12.15.12-.15Zm-9.14,1.68.33,0-.33,0Zm27,27.48.15,0-.15,0ZM-4.17,225.35c0,.09,0,.18,0,.27a2.51,2.51,0,0,1,0-.27ZM101.33,249s0,.11.08.16l-.08-.16Zm.09.21a.3.3,0,0,1,0,.08.3.3,0,0,0,0-.08Zm-170,21.23a1.11,1.11,0,0,1,0,.17,1.11,1.11,0,0,0,0-.17Zm215.09,97.48.06.44-.06-.44ZM-11.45,568.54l0,.25,0-.25ZM278.1-188.66l-.09,0-.29-.12-.09,0,.47.19Z" transform="translate(147.31 195.15)"/></g></g></g></svg>