<svg xmlns="http://www.w3.org/2000/svg" xmlns:xlink="http://www.w3.org/1999/xlink" viewBox="0 0 550.01 1030.11"><defs><style>.cls-1{fill:#d8bda6;}.cls-2{clip-path:url(#clip-path);}.cls-3{fill:none;}.cls-4{fill:#1f3428;}.cls-5{fill:#e6963a;}</style><clipPath id="clip-path" transform="translate(79.61 66.85)"><rect class="cls-1" width="470.4" height="836.27"/></clipPath></defs><g id="Layer_2" data-name="Layer 2"><g id="ëÎÓÈ_1" data-name="ëÎÓÈ 1"><rect class="cls-1" x="79.61" y="66.85" width="470.4" height="836.27"/><g class="cls-2"><rect class="cls-3" x="79.61" y="66.85" width="470.4" height="836.27"/><path class="cls-4" d="M302.18-66.37c-3.26.24-6.5.58-9.74,1-2.65.06-5.3.15-7.95.23-.76,0-1.52.11-2.27.16s-1.54.09-2.3.17c-2.08.23-4.15.45-6.21.76a54.85,54.85,0,0,0-9.26,2.34c-1.53.51-3.06,1-4.57,1.59-3,1.13-6,2.37-8.94,3.61s-5.69,2.41-8.53,3.64-5.8,2.48-8.66,3.84c-1.46.7-2.95,1.36-4.39,2.09l-5,2.5c-1.43.72-2.81,1.55-4.2,2.32-.53.29-1,.64-1.56,1l-2.42,1.51c-1.39.86-2.73,1.83-4.08,2.75s-2.66,1.93-4,2.9-2.52,1.87-3.78,2.82A51.68,51.68,0,0,0,197-24.5a47.18,47.18,0,0,0-6.58,9.39L188-10.59c-.36.66-.65,1.38-1,2.06s-.78,1.62-1.12,2.45a59.36,59.36,0,0,0-3.4,10.56c-.21,1-.43,2-.64,3-.13.59-.28,1.19-.38,1.8-.26,1.7-.53,3.41-.8,5.11-.05.33-.09.67-.12,1a94.87,94.87,0,0,0-3.12,10.48,84.09,84.09,0,0,0-1.94,13.95c-.57,9.63.85,19.3,2.68,28.74.57,3,1.24,5.93,2,8.86,0,.36-.07.71-.11,1.07-.15,1.56-.32,3.12-.43,4.68-.17,2.3-.38,4.62-.46,6.93a36.54,36.54,0,0,0,.49,6.18,50.38,50.38,0,0,0,1.53,7,53.61,53.61,0,0,0,3.48,8.5c1.41,2.87,2.88,5.72,4.35,8.57.43.82.84,1.64,1.29,2.44a46.8,46.8,0,0,0,3.94,5.72,56.91,56.91,0,0,0,5.71,6c1.17,1.11,2.39,2.16,3.6,3.22,1,.92,2.11,1.83,3.21,2.69a45.06,45.06,0,0,0,3.91,2.82,39.29,39.29,0,0,0,3.86,2c1.71.82,3.46,1.54,5.22,2.25,1.2.51,2.41,1,3.6,1.57,1.56.75,3.1,1.5,4.63,2.3.85.43,1.69.87,2.55,1.28a45.28,45.28,0,0,0,6.36,2.53,68.6,68.6,0,0,0,9,2.07c1.58.27,3.16.53,4.76.72,1.37.17,2.74.35,4.12.46l.4.13a74.13,74.13,0,0,0,14.29,3,87,87,0,0,0,8.84.47c3.56.07,7.11.11,10.67.11H291c1.15.37,2.29.79,3.42,1.25,4.23,1.7,8.43,3.58,12.88,4.63a42.1,42.1,0,0,0,13.51,1,41.59,41.59,0,0,0,12.53-3.29c4.88-2.1,9.12-5.32,13.44-8.37,1.8-1.28,3.64-2.51,5.47-3.76l3.51-2.42c1.18-.81,2.29-1.74,3.43-2.61,2.05-1.55,4-3.26,5.92-4.94,1.77-1.54,3.57-3,5.41-4.49l3.77-2.82a41,41,0,0,0,4.07-3.61,47.64,47.64,0,0,0,4.24-5c2-2.55,3.76-5.22,5.53-7.9s3.46-5.27,5-8c.66-1.22,1.35-2.43,1.93-3.69.71-1.54,1.49-3.07,2.11-4.65,1.16-3,2.31-6,3.32-9.07l3.24-9.9c1-3,1.86-6,2.76-9,.84-2.79,1.65-5.61,2.29-8.47l.72-3.15c.12-.56.27-1.12.37-1.68.32-1.83.65-3.66,1-5.48.28-1.6.38-3.25.55-4.87s.25-3,.35-4.57l.18-3a32.55,32.55,0,0,0-.4-6.76c-.28-1.79-.64-3.57-1-5.35-.57-3.05-1.13-6.1-1.77-9.13-.33-1.57-.62-3.14-1-4.69-.28-1.15-.53-2.31-.83-3.46q-.1-3.61-.25-7.23c0-.77-.12-1.55-.18-2.32s-.09-1.33-.16-2c-.23-2-.41-4-.77-5.91-.17-1-.35-1.91-.52-2.86-.13-.73-.34-1.45-.51-2.17-.38-1.63-.83-3.23-1.29-4.84s-1-2.91-1.47-4.36-.92-2.6-1.44-3.89c-2-4.87-3.79-9.93-6.89-14.23a36.28,36.28,0,0,0-7-7.35l-1.78-1.41c-.87-.68-1.77-1.31-2.67-1.95-2.1-1.48-4.28-2.85-6.45-4.22-1-.66-2.1-1.27-3.11-2-.84-.58-1.67-1.21-2.48-1.84-.47-.38-.92-.79-1.38-1.19-.76-.66-1.56-1.28-2.36-1.88A17.75,17.75,0,0,0,361.67-59c-1.43-.54-2.91-1-4.35-1.46s-2.67-1-4-1.53c-.32-.13-.65-.25-1-.36l.85,0a1.05,1.05,0,0,0,1-1,1,1,0,0,0-1-1l-1.54,0a18.15,18.15,0,0,1-2.44-.14l-1.94-.23-6.56-.79c-3-.36-6-.51-9.06-.74l-5.53-.42a17.63,17.63,0,0,0-1.78,0h-.55l-12.4,0h-.1c-3,0-6.09.25-9.12.48ZM273-58.22a178.71,178.71,0,0,1,19.14-4l1.6,0c6.48.17,13,.35,19.44.65q4.14.18,8.27.52c2.92.24,5.83.58,8.74.91,2.74.31,5.48.68,8.23.92l4.59.39c1.35.11,2.69.26,4,.42a19.07,19.07,0,0,1,3.88,1c1.25.54,2.48,1.13,3.73,1.68s2.83,1.2,4.25,1.78L361.48-52l2.14,1.74c.67.72,1.32,1.45,2,2.18,1.56,1.69,3.22,3.27,4.92,4.81,1,.88,2,1.73,3,2.58.83.71,1.69,1.4,2.51,2.13a67.07,67.07,0,0,1,7.54,7.63,35.22,35.22,0,0,1,2.55,4c.74,1.36,1.37,2.77,2,4.19.48,1.14.94,2.29,1.41,3.43s.84,2,1.21,3c.85,2.34,1.76,4.65,2.5,7,.35,1.11.72,2.22,1,3.34s.68,2.32.94,3.49.61,2.41.8,3.62.37,2.31.56,3.47l.39,3.14c.17,1.38.26,2.77.38,4.15.24,2.84.44,5.7.75,8.52.66,6,1.64,12,2.55,18,.15,1.14.3,2.28.46,3.41.14,1.5.29,3,.44,4.48.08.79,0,1.6.07,2.38s.08,1.46.07,2.18c0,.93-.05,1.87-.07,2.8,0,.64,0,1.28-.05,1.92-.14,1.67-.28,3.35-.41,5s-.49,3.16-.73,4.74c-.19,1.28-.46,2.54-.71,3.81-.31,1.55-.57,3.1-.92,4.63q-.63,2.85-1.28,5.7c-.33,1.43-.78,2.82-1.19,4.23s-.86,2.74-1.31,4.11-.94,2.88-1.48,4.3-1.15,3-1.75,4.5c-.49,1.24-1,2.49-1.48,3.73l0,.08-.95,2.27c-.18.41-.35.81-.52,1.22-.08.2-.18.4-.26.6-.6,1.36-1.23,2.71-1.84,4.07-.26.56-.58,1.11-.87,1.65-.37.72-.75,1.44-1.13,2.16s-.72,1.17-1.08,1.75-.7,1.21-1.1,1.78q-1.31,1.86-2.63,3.7a42.09,42.09,0,0,1-6.51,6.83c-1.66,1.24-3.4,2.31-5.16,3.38q-1.94,1.18-3.85,2.39a81.54,81.54,0,0,1-7.82,4.06l-4.71,2-4.92,1.79c-1.39.5-2.8.93-4.21,1.38-2.77.89-5.56,1.72-8.32,2.63l-10.17,3.35c-1.34.44-2.7.81-4.06,1.2l-2.73.79c-1.54.45-3.12.78-4.69,1.11-1.4.29-2.82.53-4.24.74-3.54.44-7.09.63-10.65.86-.81.06-1.63.05-2.45,0h-1.15c-1.23,0-2.47,0-3.7,0-2.73,0-5.45-.05-8.17-.12-4.62-.1-9.24-.14-13.82-.7a68.23,68.23,0,0,1-15.76-4.28c-2-.86-4-1.78-5.91-2.7-3-1.38-5.91-2.81-8.75-4.42a86.25,86.25,0,0,1-7.43-4.79c-1.69-1.2-3.39-2.38-5-3.63-1.33-1-2.65-2.11-3.94-3.22-1.68-1.46-3.28-3-4.85-4.61s-3-3.17-4.44-4.82c-1-1.13-2-2.27-2.9-3.45l-5.44-7a106,106,0,0,1-6.45-9.33,84.81,84.81,0,0,1-4.94-9.86,127.26,127.26,0,0,1-5.49-16.69c-.92-3.52-1.71-7.09-2.39-10.68q.16-3,.07-6.1c-.07-2.3-.34-4.58-.59-6.87-.17-1.55-.4-3.1-.63-4.65q-.42-2.7-.82-5.4c.1-2.24.31-4.48.59-6.7C184.67,23.48,187.55,15,191,6.88a102.6,102.6,0,0,1,12.57-21.8,130.35,130.35,0,0,1,9.67-10.82A112.13,112.13,0,0,1,224-35.44a112.71,112.71,0,0,1,13-8.42,145.52,145.52,0,0,1,14.45-7h0A169.86,169.86,0,0,1,273-58.22Zm-60.7,22.74c1.26-.91,2.58-1.73,3.88-2.59s2.68-1.67,4-2.49,2.83-1.56,4.24-2.33,2.82-1.41,4.24-2.1,2.66-1.29,4-1.91q-4.82,2.61-9.34,5.66a104.13,104.13,0,0,0-10.86,8.55,114,114,0,0,0-18.33,20.48A100.51,100.51,0,0,0,187.24-.48c-1.54,3.07-2.92,6.22-4.21,9.4l.78-4.25c.27-1.43.66-2.85,1.05-4.26a64.07,64.07,0,0,1,2.3-6.58c.78-1.7,1.53-3.4,2.4-5.05.58-1.12,1.17-2.23,1.76-3.34A46,46,0,0,1,195.46-21l0,0,0-.05,0-.06,0,.05a50.58,50.58,0,0,1,3.68-4.19,52,52,0,0,1,4.88-4.27q4.08-3,8.2-6ZM405.35,65.43c.34-1.48.74-3,1-4.45.32-1.87.7-3.74.94-5.62.11-.86.23-1.72.34-2.58s.22-1.42.27-2.13c.08-.95.15-1.9.22-2.85.05-.62.12-1.23.12-1.85,0-1.57,0-3.15,0-4.72s-.1-3.22-.2-4.83c-.14-2.49-.32-5-.49-7.48.2,1.18.4,2.37.59,3.56.28,1.67.55,3.34.79,5a32.66,32.66,0,0,1,.28,5.32c0,1.16-.19,2.31-.31,3.47-.13,1.38-.27,2.77-.4,4.15-.24,1.76-.47,3.52-.71,5.29s-.7,3.46-1.06,5.19c-.29,1.45-.7,2.88-1,4.31q-.9,3.57-2,7.08c.58-2.29,1.16-4.58,1.69-6.88Zm-4.9-28,.12.89c-.05-.29-.08-.59-.12-.89Zm8.48.28a.68.68,0,0,1,0,.14.68.68,0,0,0,0-.14ZM182.43,88.57c0-.9.11-1.79.17-2.68,1.1,3.29,2.36,6.53,3.74,9.72a76.27,76.27,0,0,0,6.47,12.13c1.52,2.29,3.14,4.51,4.79,6.7,3.09,4.09,6.14,8.2,9.45,12.1a89,89,0,0,0,9.66,9.76c2.2,1.91,4.51,3.69,6.85,5.42,1.52,1.13,3,2.29,4.56,3.35q2.72,1.88,5.55,3.56c2.1,1.24,4.29,2.33,6.47,3.44l.85.42a55,55,0,0,1-5.5-1.91c-1.61-.7-3.16-1.54-4.7-2.39-.94-.52-1.86-1.08-2.81-1.57l-3.12-1.6c-.9-.47-1.85-.86-2.77-1.28-1.67-.77-3.37-1.46-5-2.28-1.39-.7-2.75-1.39-4.08-2.2a42.82,42.82,0,0,1-3.73-2.67c-4.71-3.89-9.48-7.75-13.3-12.55a35.73,35.73,0,0,1-2.59-3.79L192.07,118c-.7-1.21-1.37-2.43-2.06-3.64a99.35,99.35,0,0,1-4.51-8.92,46.39,46.39,0,0,1-2.83-10.79,34,34,0,0,1-.24-6.05ZM397.2,92.23a2.14,2.14,0,0,1-.1.22l0-.1.05-.12Zm-1.5,3.54c-.81,2.24-1.68,4.46-2.55,6.68l-1.53,3.32c-.21.45-.44.89-.67,1.33.17-.38.33-.77.49-1.16a1.18,1.18,0,0,0,.16-.38h0q1.81-4.34,3.62-8.67l-.17.41.64-1.53Zm-210.34,9.31.12.26-.12-.26Zm206.22.54-.09.22.09-.22Zm-.14.33,0,.06,0-.06Zm-11.33,13.31-.23.3.23-.3Zm-5,11.58c-.82.83-1.68,1.63-2.56,2.4s-1.79,1.5-2.7,2.23c-1.87,1.51-3.69,3.06-5.46,4.69s-3.23,3-4.88,4.45c-.77.69-1.54,1.38-2.34,2L354.24,149c-2.85,2.09-5.72,4.18-8.58,6.26-1.53,1.11-3,2.25-4.56,3.37-1,.76-2.07,1.48-3.14,2.19a42.31,42.31,0,0,1-6.62,3.59,41.15,41.15,0,0,1-10.1,2.73,38.92,38.92,0,0,1-9.34-.08,40.64,40.64,0,0,1-10-2.61L298,162.79l-1.68-.72c.48,0,1,0,1.43,0l5.76-.48a84,84,0,0,0,10.11-1.45,73.45,73.45,0,0,0,8.16-2.25c1.46-.48,2.95-.92,4.38-1.46q4.94-1.87,9.84-3.81c2.68-1.05,5.38-2.07,8-3.14,1.75-.69,3.52-1.35,5.24-2.11l5.21-2.32c.38-.17.74-.36,1.1-.56l3.07-1.61c1.37-.72,2.67-1.53,4-2.34.49-.3,1-.58,1.46-.92l2.37-1.7c.76-.55,1.46-1.19,2.18-1.8.56-.48,1.13-1,1.7-1.42,1.08-.89,2.19-1.76,3.3-2.63a3.15,3.15,0,0,1-.29.22c.6-.46,1.18-.93,1.75-1.42ZM235.72,150.68l.12,0-.12,0ZM195.48-21l0,0,0,0Z" transform="translate(79.61 66.85)"/><path class="cls-5" d="M195.32-52.95c-1.59,0-3.25.06-4.92.18a61.57,61.57,0,0,0-11,1.79,99.66,99.66,0,0,0-10.59,3.44c-1.07.41-2.14.85-3.18,1.28l-1,.42-1.06.43c-.8.32-1.63.65-2.43,1l-4.29,1.94c-2.12,1-3.87,1.79-5.51,2.62A58.86,58.86,0,0,0,142-34c-3,2.28-5.9,4.76-8.72,7.17l-.1.09a61.92,61.92,0,0,0-6.71,6.55L125.43-19l-2,2.33c-1.39,1.61-2.89,3.34-4.44,5l-1.65,1.82-1.64,1.81a67.75,67.75,0,0,0-5.58,7,69.54,69.54,0,0,0-5.46,9.51c-.83,1.72-1.57,3.43-2.2,5.09a39.5,39.5,0,0,0-1.64,5.62,36.69,36.69,0,0,0-.8,5.56,42.94,42.94,0,0,0,0,5.63c.14,2.17.42,4.54.87,7.26l.35,2.18.35,2.18a7.49,7.49,0,0,0,.18.79l.09.35.35,1.52.29,1.23c.51,2.18,1.12,4.35,1.71,6.46l.35,1.26c.45,1.64,1,3.29,1.48,4.89l.63,2c.73,2.37,1.51,4.77,2.26,7.09l.43,1.33c.52,1.58,1.08,3.27,1.74,5s1.44,3.52,2.32,5.43a106.47,106.47,0,0,0,5.31,9.74,62.19,62.19,0,0,0,11.85,14.32l3.73,3.35A46.35,46.35,0,0,0,141.1,112a66.37,66.37,0,0,0,6.78,3.49l2.06,1,2,.94c.82.38,1.67.74,2.49,1.08l1.3.55c.94.4,1.93.83,3,1.22,2.92,1.14,5.57,2.13,8.08,3l1.53.56c1.62.6,3.29,1.21,5,1.76l2.7.9,1.79.59c.8.27,1.63.49,2.43.71l1,.26a55,55,0,0,0,6.77,1.5,42.92,42.92,0,0,0,5.55.49h.47a46.9,46.9,0,0,0,5.3-.37,49.53,49.53,0,0,0,11-2.54,58,58,0,0,0,10.08-4.83,46.68,46.68,0,0,0,4.3-2.91l.15-.12c.93-.7,1.9-1.43,2.8-2.21l3.57-3.12c.64-.55,1.26-1.15,1.85-1.73l.84-.8c.67-.63,1.45-1.38,2.21-2.19l1.09-1.17,2-2.1c.24-.26.46-.54.68-.82l.31-.41,1.85-2.28c1.62-2,3.12-4,4.78-6.24L248,94.6l1.3-1.6c.57-.7,1.21-1.44,2.06-2.37,2-2.23,4-4.48,5.66-6.38.54-.62,1-1.27,1.53-1.91l.49-.64.68-.86c.55-.71,1.11-1.42,1.65-2.15l5.12-6.85a72.72,72.72,0,0,0,4.62-6.76,39.65,39.65,0,0,0,4-9.94A61.06,61.06,0,0,0,276.79,44a75.27,75.27,0,0,0,.08-9.09l0-1.09c-.1-2.23-.2-4.53-.37-6.79l0-.58c-.11-1.45-.22-2.91-.35-4.37a37.31,37.31,0,0,0-.85-5.39,45.48,45.48,0,0,0-1.76-5.49c-1.28-3.4-2.75-6.8-4.18-10.08l-.16-.39c-.52-1.23-1-2.47-1.53-3.71-.34-.84-.65-1.7-1-2.54-.12-.35-.24-.69-.37-1-.8-2.15-1.7-4.58-2.67-7-.91-2.22-1.95-4.59-3.17-7.27-.49-1.06-1.06-2.31-1.6-3.58l-.16-.38c-.45-1.08-.93-2.19-1.47-3.25a20.07,20.07,0,0,0-3.11-4.58,33.06,33.06,0,0,0-2.44-2.33c-.81-.69-1.64-1.37-2.47-2s-1.93-1.45-3-2.2a30.37,30.37,0,0,0-2.64-1.55l-.35-.2c-.95-.52-1.9-1-2.81-1.41a23.14,23.14,0,0,0-3.05-1.15l-.93-.25c-.7-.19-1.42-.39-2.11-.65s-1.28-.66-1.88-1l-.44-.25q-.43-.24-.9-.45a1.39,1.39,0,0,0-.71-1.54l-.65-.3a37.48,37.48,0,0,0-3.81-1.55,43.35,43.35,0,0,0-5.63-1.24c-3.73-.63-7.51-1.13-11.23-1.5-2.89-.28-5.84-.44-8.69-.59l-1.93-.1c-1-.05-2-.08-3.05-.08Z" transform="translate(79.61 66.85)"/><path class="cls-5" d="M115.46,713.65c-24.77,7.47-49.7,23.23-64.53,35.09-2.25,1.89-4.57,3.84-6.84,5.79l-1.8,1.55-1.79,1.53c-.55.47-1.07,1-1.59,1.45l-.08.08-3.31,3.12c-.51.48-1,1-1.5,1.46l-.64.62a45.11,45.11,0,0,1-3.81,3.32c-2,1.49-4.07,2.83-6.11,4.13l-.84.53-3.27,2.06-1.14.72c-1,.63-2,1.28-3,1.92l-1.41.93-3.28,2.12-.12.07C-9.31,792.83-36.66,798-52.86,813.81c-11.21,11-18.12,25.63-22.55,40.67-5.58,18.93-7,41,4.79,56.84C-60.1,925.38-41.89,930.85-25,935.5l65.73,18c18.49,5.06,37.29,10.17,56.45,9.72S136.3,956,148.27,941c10.42-13,13.55-30.3,15.95-46.81a1068,1068,0,0,0,11.07-146.76c.08-13-1.78-28.73-13.61-34C148.36,707.4,132,708.69,115.46,713.65Zm-37,20.58.23-.1.15,0-.38.15Z" transform="translate(79.61 66.85)"/></g></g></g></svg>