<svg xmlns="http://www.w3.org/2000/svg" xmlns:xlink="http://www.w3.org/1999/xlink" viewBox="0 0 837.5 1104.42"><defs><style>.cls-1{fill:#d8bda6;}.cls-2{clip-path:url(#clip-path);}.cls-3{fill:#1f3428;}.cls-4{fill:#f07657;}.cls-5{fill:none;}</style><clipPath id="clip-path" transform="translate(250.53 129.04)"><rect class="cls-1" width="470.63" height="836.67"/></clipPath></defs><g id="Layer_2" data-name="Layer 2"><g id="ëÎÓÈ_1" data-name="ëÎÓÈ 1"><rect class="cls-1" x="250.53" y="129.04" width="470.63" height="836.67"/><g class="cls-2"><path class="cls-3" d="M72.07,733.77a35.31,35.31,0,0,0-5.33-26.37C-28.74,686.72-131,698.82-219,741.21c-3.61,1.74-7.29,3.59-10,6.53-3.67,4-5.18,9.43-6.48,14.68a511.33,511.33,0,0,0-10.62,189.85c.62,4.68,1.57,9.83,5.3,12.72,3.23,2.5,7.66,2.59,11.74,2.57,33.93-.16,65.48,3.41,97.17-8.31l4.92-1.81c.94-.35,1.91-.67,2.85-1l1.5-.5c3.22-1.08,6.54-2.2,9.77-3.51,1.74-.7,3.53-1.5,5.3-2.38,1.46-.72,3-1.5,4.48-2.4l.15-.1,4.59-2.82c1-.64,2.07-1.33,3-2l1.27-.84c.84-.55,1.7-1.12,2.53-1.72l1.56-1.13c1.86-1.35,3.72-2.69,5.57-4.06l1.1-.79c.87-.63,1.77-1.29,2.63-2l4.27-3.3c2-1.58,4.11-3.33,6.17-5.22,2.44-2.23,4.72-4.7,7-7.24l.95-1c3.7-4.07,7.53-8.27,11.16-12.53q3-3.51,6-7l3.26-3.77c.62-.71,1.29-1.41,1.93-2.08l.91-1,.93-1c.67-.73,1.36-1.48,2.06-2.19l1.17-1.19,2.32-2.36,6.21-6.3,1.71-1.72,1.7-1.73c.55-.55,1.12-1.08,1.68-1.6l.79-.75,1.59-1.51c1.51-1.46,3.08-3,4.69-4.36l2.43-2.1,2.49-2.15.65-.56q.9-.79,1.83-1.56l1.26-1,6.36-5.17,4.91-3.48,2.69-1.9c1.68-1.19,3.4-2.37,5.07-3.51.85-.57,1.7-1.15,2.54-1.74,1.92-1.32,3.95-2.79,6.56-4.78a105.3,105.3,0,0,0,10-8.42,51.81,51.81,0,0,0,3.94-4.38c1.42-1.74,2.85-3.63,4.24-5.62,1.21-1.73,2.34-3.53,3.38-5.22l.38-.62c.62-1,1.25-2.05,1.83-3.1l2.66-4.8,2.66-4.81.32-.57c.27-.47.54-1,.78-1.45l2.06-4.22,1.08-2.21,3.35-6.84c1-2,1.89-4,2.78-5.94l1.41-3c1.36-2.91,2.62-5.93,3.83-8.84,0,0,.73-1.74.74-1.78l0-.1.09-.21.09-.22-.15.32.86-2c1.27-3,2.59-6.09,3.76-9.19.55-1.44,1.06-2.93,1.55-4.37l.51-1.48c.61-1.76,1.32-3.84,2-5.91a51.94,51.94,0,0,0,2.38-12.07,46,46,0,0,0-.13-6.27c-.07-.93-.15-2-.28-3.12-.1-.93-.27-1.86-.44-2.75l-.15-.86a3.67,3.67,0,0,0-1.74-2.26,3.81,3.81,0,0,0-1.9-.51,3.66,3.66,0,0,0-1,.13,3.8,3.8,0,0,0-2.25,1.73c-.13.3-.26.6-.38.9a3.81,3.81,0,0,0,0,2c0,.33.11.65.17,1l.21,1.14a50.09,50.09,0,0,1,.2,10.53c-.2,1.24-.44,2.5-.76,3.83H-167.58l0,235.68.23-.06a55.48,55.48,0,0,1-6.33,1.53l-.36,0c-1.48.18-3,.36-4.5.47a1.34,1.34,0,0,0-.35,0,1.57,1.57,0,0,0-.37,0,1.42,1.42,0,0,0-1,1.72v.07a1.39,1.39,0,0,0,1.29,1c1.2-.08,2.35-.26,3.46-.44l1.18-.18c.72-.11,1.37-.22,2-.34s1.06-.25,1.57-.39l.51-.14c1-.27,2-.59,3-.89l1.1-.36,3.51-1.11,1.18-.37c1.68-.53,3.39-1.12,5.12-1.74" transform="translate(250.53 129.04)"/><path class="cls-4" d="M410.41,74.59c12.74-9.18,15.95-26.68,16.12-42.38C426.77,9,429.93-6.62,438-27.88c6.64-17.51,13.39-35.61,12.7-54.33S440-120.62,422.27-126.78c-11.23-3.91-23.53-1.93-35.27-.1a1019.52,1019.52,0,0,1-239.87,8.6c-40.29-3.32-82.52-8.76-119.8,6.88C15.73-106.53,3.88-98.17,2-85.73-1.18-65.33,26.38-67.13,36-55.2c.8,1.07,1.51,2.11,2.19,3.17a31.22,31.22,0,0,1,2.16,4.17A43.31,43.31,0,0,1,42-43a47.94,47.94,0,0,1,1,5.05c.86,7.08.54,14.32.23,21.32l-.09,2.24c-.2,4.8-.26,9.54-.3,14,0,2.17,0,4.32.1,6.13l.12,4c.08,2.61.41,5.27.7,7.62.4,3.27.91,6.48,1.52,9.54a89.12,89.12,0,0,0,2.52,9.5c.8,2.51,1.8,5.18,3.16,8.41.68,1.62,1.35,3.2,2.08,4.75l3.53,7.53c.18.38.39.75.59,1.1l.23.42L59.74,63l.8,1.45.78,1.4c.24.45.53.88.8,1.29l.38.58,2.06,3.2,2.18,3.4c.89,1.39,1.85,2.76,2.77,4.1.46.65.91,1.3,1.36,2l.71,1,.72,1.06c.36.53.76,1,1.15,1.54.19.25.39.5.57.76.51.67,1,1.35,1.51,2,1.11,1.52,2.26,3.08,3.46,4.57L81.13,94l2.67,3.32q1.71,2.13,3.47,4.24l1.37,1.68c.93,1.15,1.9,2.33,2.89,3.46l2.75,3.13L97,113c1,1.15,2.09,2.26,3.14,3.34.35.36.71.72,1.06,1.09,2.89,3,5.77,6.06,8.57,9.09,3.31,3.6,6.63,7.16,9.86,10.57l3.06,3.24,1.52,1.63,1.42,1.47.82.85.75.79c.49.52,1,1.06,1.51,1.55l1.46,1.4c1.09,1,2.2,2.11,3.34,3.12l2.65,2.36,2.71,2.4c1.77,1.57,3.54,3.17,5.3,4.77,1.4,1.28,2.86,2.54,4.28,3.76l.86.75c1.54,1.33,3.18,2.59,4.6,3.67s2.75,1.95,3.82,2.64c1.25.8,2.59,1.65,4,2.38l6.47,3.37c.49.25,1,.47,1.51.69l.75.32,2.18,1,2.14.95a91.68,91.68,0,0,0,15,5.11c2.58.65,5.24,1.13,7.8,1.59l1.54.28.32.06c1,.18,2.08.38,3.14.52l1.66.21,1.69.23c2,.27,4.17.55,6.32.75l1.87.18c1.57.15,3.15.31,4.72.44l5.44.42q4.16.31,8.29.67c2.48.21,5,.42,7.45.6,1.34.11,2.56.15,3.73.15.85,0,1.68,0,2.48-.08a26.55,26.55,0,0,0,4.3-.67A23.5,23.5,0,0,0,255,189a44.21,44.21,0,0,0,4.3-2.3l1.05-.61q1.46-.83,2.88-1.68c.85-.49,1.7-1,2.53-1.5l1-.59c.67-.41,1.35-.84,2-1.22l2.51-1.4.91-.51c.65-.36,1.34-.7,2-1l.88-.45c1.56-.78,3.16-1.56,4.7-2.3l.74-.36c1.27-.61,2.53-1.24,3.8-1.86,2.76-1.37,5.62-2.78,8.49-4,1.74-.77,3.49-1.52,5.24-2.27l.43-.19,1.41-.53c1.43-.54,2.9-1.11,4.39-1.57,2.21-.69,4.43-1.38,6.65-2.05,3.92-1.2,7.88-2.51,11.71-3.77l1.19-.39,2.64-.87c3.38-1.12,6.88-2.27,10.33-3.37,2.26-.71,4.51-1.45,6.76-2.18,1.69-.55,3.37-1.23,5-1.89l1.37-.55c1.64-.65,3.26-1.43,4.83-2.18l1.67-.79c1.89-.89,3.57-1.73,5.14-2.57L365,142.1a47.32,47.32,0,0,0,6.72-4.59,66.18,66.18,0,0,0,6.35-5.68c1.26-1.29,2.44-2.63,3.58-3.94,1.41-1.6,2.91-3.34,4.29-5.15l.25-.32a55.62,55.62,0,0,0,3.69-5.22c1.22-2,2.42-4.06,3.62-6.09,1-1.69,2.12-3.47,3.55-5.59.89-1.33,1.86-2.65,2.8-3.91l.45-.62c1.23-1.66,2.32-3.27,3.33-4.9,1.17-1.88,2.26-3.84,3.32-5.73.78-1.41,1.6-2.86,2.43-4.28,1.05-1.77,2.06-3.55,3.09-5.44.74-1.37,1.41-2.8,2.05-4.2l.51-1.09c.75-1.6,1.49-3.37,2.26-5.42.3-.8.58-1.62.83-2.45a12.69,12.69,0,0,0,.3-1.4,12.85,12.85,0,0,0,.15-1.36,4.64,4.64,0,0,0-.23-1.52,2.37,2.37,0,0,0-4-1.09,2.24,2.24,0,0,0-.7,1.68,2.64,2.64,0,0,1,.06.55,48.84,48.84,0,0,1-2.14,7.16l-.51,1.16,0-158.3H13.44l.11.14c-.29-.36-.57-.72-.86-1.07C10.31-89.72,8-93,5.74-96.15L4.39-98A2.42,2.42,0,0,0,3-99.12a2.43,2.43,0,0,0-.61-.08,2.29,2.29,0,0,0-1.17.32A2.45,2.45,0,0,0,.11-97.3a2,2,0,0,0,.28,1.59l2.11,3L5.56-88.4c2.3,3.28,4.15,5.75,6,8s4.13,4.79,6.76,7.47c1.35,1.38,2.79,2.73,4.17,4l1.23,1.16.75.7" transform="translate(250.53 129.04)"/><rect class="cls-5" x="250.53" y="129.04" width="470.63" height="836.67"/><path class="cls-3" d="M585,217.68c-.14-.63-.29-1.26-.45-1.88-.34-1.35-.68-2.69-1.07-4s-.79-2.78-1.26-4.14-1-3-1.55-4.46l-1.74-4.74c-.46-1.24-1-2.45-1.47-3.68s-1.08-2.64-1.64-3.95-1.11-2.61-1.68-3.91-1.29-2.72-2-4.08c-.51-1-1-2.06-1.57-3.08L569.14,177c-.27-.51-.52-1-.8-1.52-1.43-2.51-2.86-5-4.34-7.5-.78-1.31-1.56-2.63-2.35-3.94s-1.72-2.77-2.58-4.15c-3-4.74-5.74-9.58-8.58-14.4q-2.37-4-4.81-8c-1.3-2.16-2.56-4.34-4-6.44-.86-1.28-1.71-2.57-2.57-3.86-.25-.38-.54-.74-.82-1.1l-2-2.63-1.59-2.08c-.16-.22-.33-.44-.5-.65l-3.58-4.23c-.65-.78-1.29-1.58-2-2.33l-3.9-4.21c-.85-.91-1.73-1.8-2.6-2.7-1-1.08-2.12-2.12-3.19-3.16-.39-.38-.82-.73-1.22-1.08l-1.83-1.62c-.34-.3-.69-.58-1-.86l-2.51-2.08c-1.05-.86-2.18-1.62-3.27-2.41a34.4,34.4,0,0,0-3.51-2.2c-1-.54-2-1-3-1.46-2.78-1.25-5.58-2.43-8.4-3.56l-4-1.55c-1.23-.47-2.46-1-3.71-1.44-2.78-1-5.58-2-8.39-3-.57-.2-1.16-.38-1.74-.56s-1-.34-1.52-.48l-2.58-.66c-.7-.19-1.41-.33-2.12-.48-2.61-.57-5.22-1.11-7.86-1.51-1.26-.19-2.5-.38-3.76-.52s-2.77-.32-4.15-.52c-5.78-.81-11.52-1.83-17.28-2.75-2.68-.43-5.36-.79-8.06-1.07s-5.15-.42-7.72-.52c-1.92-.07-3.85-.18-5.77-.31s-3.79-.33-5.69-.48-3.64-.22-5.46-.25c-.87,0-1.74,0-2.62,0a22.94,22.94,0,0,1-3-.13,2.9,2.9,0,0,1-.47-.16h0l.33-.45a10.27,10.27,0,0,1,.84-.9c.35-.33.72-.65,1.08-1,.8-.68,1.67-1.3,2.52-1.93s1.82-1.32,2.72-2,1.66-1.3,2.48-2c1.85-1.52,3.64-3.12,5.5-4.65s3.42-2.91,5.14-4.35A65.66,65.66,0,0,0,424,50.59c.36-.37.7-.75,1-1.14s.41-.49.61-.74c.35-.45.65-.86,1-1.34a9,9,0,0,0,.48-.92c.29-.61.54-1.23.77-1.86s.37-1.07.52-1.61c.63-2.28,1.18-4.57,1.78-6.85.29-1.09.61-2.15,1-3.22a24.63,24.63,0,0,1,1.19-2.86c.61-1.22,1.22-2.42,1.86-3.62.29-.53.61-1.05.91-1.57.42-.72.83-1.45,1.24-2.17,1.38-2.41,2.53-5,3.72-7.46.58-1.21,1.19-2.4,1.84-3.57a21.46,21.46,0,0,1,2.45-3.33c.85-1,1.7-2,2.57-3s1.65-1.91,2.43-2.9a34.67,34.67,0,0,0,2.34-3.52c.69-1.12,1.33-2.27,1.94-3.44s1.14-2.27,1.72-3.41c.27-.5.53-1,.81-1.5a19.1,19.1,0,0,1,1.17-1.8c.33-.49.72-.94,1.08-1.4s.87-1.1,1.31-1.64c.7-.87,1.4-1.75,2.12-2.61,1.68-2,3.52-3.81,5.15-5.82.94-1.16,1.84-2.36,2.71-3.58.43-.59.85-1.2,1.27-1.79,2.14-2.13,4.26-4.26,6.42-6.36,1.05-1,2.1-2.07,3.18-3.07l1.07-1L483.55-40a1.27,1.27,0,0,0,.35-.48c.9-.77,1.84-1.49,2.8-2.18,2.31-1.58,4.77-3,7.21-4.32a1.42,1.42,0,0,0,.58-1.89,1.4,1.4,0,0,0-1.88-.59c-1.44.81-2.86,1.64-4.29,2.46a46.23,46.23,0,0,0-5.48,3.71c-.79.62-1.55,1.28-2.3,2-1.29,1-2.56,2-3.84,3-.8.63-1.6,1.27-2.38,1.94s-1.61,1.47-2.39,2.24-1.4,1.55-2.07,2.35-1.26,1.58-1.87,2.38c-1.71,1.65-3.42,3.28-5.2,4.84-2.15,1.89-4.33,3.75-6.31,5.81-.49.5-1,1-1.44,1.54l-1.52,1.83c-.39.48-.73,1-1.08,1.48s-.85,1.19-1.24,1.82l-1.23,2c-.14.23-.26.47-.38.7l-.71,1.3c-.69,1.26-1.35,2.52-2,3.79-1.33,2.56-2.83,5-4.26,7.53-.2.34-.39.67-.57,1-1,1.11-1.89,2.24-2.8,3.37A22.24,22.24,0,0,0,437,11.39c-.72,1.44-1.4,2.9-2.07,4.36-.5,1.05-1,2.09-1.55,3.12-.62,1.21-1.29,2.39-2,3.58-.2.34-.39.68-.58,1-1.66,2.15-3.44,4.21-5.08,6.37-1.09,1.45-2.15,2.93-3.24,4.39-.56.75-1.1,1.53-1.68,2.25l-1.7,2.1-1.71,1.87c-.53.58-1.09,1.11-1.64,1.65-1.15,1.13-2.38,2.19-3.61,3.22-.6.51-1.2,1-1.81,1.53s-1.33,1.12-2,1.65l-2.1,1.61c-.69.53-1.43,1-2.14,1.53l-2.73,1.89c-.91.64-1.9,1.17-2.86,1.72s-2,1.09-3,1.61-2.19,1-3.3,1.44l-1.48.53c-.62.22-1.24.39-1.86.58s-1.18.36-1.77.51l-1.1.28a18.42,18.42,0,0,1-2.56.4,25.76,25.76,0,0,1-5.34-.11L375,60l.41.08c-1.24-.23-2.48-.43-3.71-.7-1.64-.36-3.27-.72-4.89-1.11-1.15-.27-2.29-.59-3.42-.94-1.42-.42-2.84-.83-4.25-1.29l-2.46-.79c-.59-.19-1.16-.41-1.74-.62-1.47-.54-2.93-1.11-4.39-1.69-1.23-.48-2.47-.94-3.71-1.4-.47-.17-1-.37-1.43-.53l-2.85-.91a53.5,53.5,0,0,0-8.09-1.84c-1.4-.22-2.78-.43-4.18-.6l-2.5-.3c-.73-.09-1.47-.14-2.2-.2-2.71-.24-5.43-.48-8.15-.61-2.92-.14-5.83-.25-8.74-.35l-4.53-.15c-.5,0-1,0-1.51,0l-3.22,0c-1.38,0-2.75.08-4.12.13l-4.47.2c-2.69.12-5.39.34-8.07.59s-5.56.54-8.33.87c-1.35.17-2.71.31-4.06.51s-2.91.42-4.37.65-2.89.41-4.32.67l-2.35.43c-.66.12-1.33.22-2,.37-1.32.29-2.64.56-4,.89s-2.72.63-4.06,1-2.62.71-3.9,1.14-2.77.92-4.15,1.41c-3,1.08-6,2.17-9,3.34-2.82,1.12-5.61,2.3-8.44,3.36l-4.26,1.57c-1.34.49-2.67,1-4,1.57q-4.43,1.76-8.89,3.41l-3.32,1.16c-1.5.52-3,1-4.51,1.47-2.57.81-5.15,1.58-7.74,2.33-2.75.8-5.51,1.56-8.26,2.36s-5.41,1.61-8.13,2.4q-8.49,2.46-17,4.84c-5.5,1.54-10.94,3.26-16.36,5-2.73.88-5.44,1.82-8.16,2.74l-3.85,1.34c-1.37.48-2.72,1-4.07,1.56s-2.45,1-3.67,1.53-2.53,1.15-3.79,1.74c-.63.28-1.23.62-1.85.93l-1.85.93-3.86,2c-2.48,1.26-4.93,2.58-7.39,3.88s-5.18,2.78-7.76,4.2-5,2.8-7.57,4.18-5,2.81-7.56,4.22-5,2.83-7.59,4.2c-2.4,1.3-4.88,2.45-7.32,3.69-5,2.55-10,5.14-15,7.58-2.43,1.18-4.86,2.36-7.27,3.58l-3.55,1.81c-1.16.58-2.35,1.1-3.53,1.65-2.55,1.19-5.11,2.35-7.66,3.55-2.23,1.05-4.47,2.06-6.59,3.32a22.57,22.57,0,0,0-2.17,1.43c-.28.21-.54.42-.81.65a3.12,3.12,0,0,0-.43.46,1.77,1.77,0,0,0-.19,1,1.16,1.16,0,0,0,.52,1,4.12,4.12,0,0,0,.62.33l.8.14a17.58,17.58,0,0,0,3,.16c1.17,0,2.34,0,3.51,0,.89,0,1.78-.11,2.67-.18l3.61-.3c4-.34,8.08-.71,12.12-1.08,5.36-.43,10.72-.71,16.1-.77,1.37,0,2.73,0,4.09,0l4.74.07c2.86.05,5.72.11,8.57.36s5.82.57,8.74.78c1.4.1,2.79.19,4.19.25l2.23.09c.88,0,1.76,0,2.65,0,5.4.05,10.8-.16,16.19-.59,2.86-.22,5.72-.44,8.58-.72,1.41-.13,2.81-.28,4.21-.45l4.67-.62c2.93-.41,5.84-.89,8.75-1.41s5.74-1.13,8.6-1.72,5.63-1.26,8.43-2c1.29-.31,2.58-.65,3.87-1,.57-.15,1.13-.32,1.7-.48.73-.21,1.47-.4,2.2-.62,2.79-.85,5.57-1.72,8.34-2.65s5.79-2,8.67-3.06c2.12-.78,4.22-1.65,6.33-2.49s4.12-1.68,6.18-2.5L199,128c2.12-.84,4.21-1.71,6.31-2.6,1.92-.81,3.86-1.6,5.76-2.46l6.54-2.95c4.11-1.84,8.34-3.36,12.57-4.91l-.36.14c5.3-1.76,10.61-3.57,16-5,2.94-.81,5.88-1.63,8.8-2.52l4-1.24c.58-.18,1.15-.4,1.72-.6l1.94-.7c1.25-.47,2.51-.92,3.74-1.45.62-.26,1.24-.51,1.85-.8s1.45-.7,2.18-1.07c2.39-1.2,4.76-2.46,7.11-3.75s4.82-2.69,7.12-4.21c.59-.39,1.2-.77,1.77-1.19l1.67-1.21c.49-.35,1-.75,1.44-1.12s1.14-1,1.7-1.45c1.23-1.08,2.46-2.17,3.7-3.24S296.84,83.86,298,83l-.06,0a62.67,62.67,0,0,1,7.5-4.22q2.13-1,4.33-2c1.33-.57,2.69-1.07,4-1.59q4.59-1.53,9.26-2.77c2.83-.75,5.68-1.37,8.54-2,3-.68,6.06-1.39,9.1-2.07.66-.15,1.34-.23,2-.33s1.53-.23,2.29-.36c1.4-.25,2.8-.43,4.22-.56a61.34,61.34,0,0,1,6.78,0c1.19,0,2.39.15,3.58.26s2.19.31,3.28.5,2.26.54,3.38.86A25.57,25.57,0,0,1,369.61,70a8.55,8.55,0,0,1,1.32.82,4,4,0,0,1,.39.43,2.31,2.31,0,0,1,.18.35,1.55,1.55,0,0,1,0,.21l-.09.46a11.06,11.06,0,0,1-.66,1.68c0-.07.07-.14.1-.22-.09.17-.18.35-.28.52a9.23,9.23,0,0,1-.86,1.28c-1.34,1.57-2.76,3.06-4.14,4.59-.58.65-1.14,1.32-1.69,2-.69.84-1.4,1.68-2,2.55-1.26,1.71-2.47,3.44-3.77,5.11s-2.56,3.35-3.92,5l-2.38,2.82,0,0c-1.6,1.85-3.26,3.64-5,5.4-.9.93-1.84,1.8-2.82,2.65s-1.94,1.57-3,2.3h0c-.48.31-.95.63-1.43.92l-1,.57c-.39.24-.83.42-1.24.62-.61.3-1.26.55-1.88.82s-1.35.53-2,.78c-1.17.42-2.34.82-3.52,1.23-1.37.47-2.76.86-4.15,1.26-2.52.73-5.1,1.31-7.66,1.88s-5.39,1.21-8.07,1.93-5.52,1.65-8.28,2.51-5.29,1.71-8,2.53c-2.82.86-5.64,1.73-8.48,2.54s-5.52,1.57-8.29,2.33c-1.14.32-2.29.64-3.41,1l-2.21.76c-.7.24-1.38.54-2.06.81-1,.39-1.95.76-2.9,1.18l-4.32,1.93-6.67,3c-2.11.93-4.23,1.89-6.35,2.83-.59.26-1.2.49-1.81.73s-1,.4-1.51.6l-3.7,1.37.31-.12-4.24,1.55c-2.41.84-4.84,1.63-7.26,2.44l-7.76,2.62c-2.52.84-5,1.67-7.53,2.55-2.83,1-5.66,2-8.51,2.95-2.67.91-5.35,1.82-8,2.71s-5.41,1.79-8.1,2.75c-5.5,2-11,3.92-16.45,6l-4.8,1.83c-1.22.46-2.46.9-3.67,1.4l-9,3.72c-.79.33-1.57.68-2.35,1l-5.83,2.56c-2.47,1.08-4.88,2.26-7.3,3.43l-4.09,1.95c-1,.5-2.05,1.08-3.07,1.62-2.51,1.33-5,2.65-7.5,4s-5.11,2.82-7.64,4.29c-3.93,2.28-7.87,4.54-11.72,7a105.12,105.12,0,0,0-9.28,6.71c-1.32,1.05-2.58,2.16-3.87,3.25l-3.44,2.93c-.26.22-.5.48-.74.72L88,214.09l-1.88,1.82c-.2.19-.4.37-.58.57l-3.63,4-1.75,1.93c-.27.3-.54.59-.8.9l-2.84,3.45q-1.39,1.72-2.81,3.43c-.25.3-.47.61-.7.92-.71.93-1.42,1.86-2.12,2.8s-1.36,1.77-2,2.68L66,240.76c-.88,1.24-1.69,2.52-2.54,3.78S61.82,247,61,248.26c-1.42,2.17-2.77,4.4-4.06,6.65l-.7,1.23a11.62,11.62,0,0,0-.65,1.2,3.36,3.36,0,0,0-.37,1.12,1.19,1.19,0,0,0,.07.89,1.26,1.26,0,0,0,1,.61,2.27,2.27,0,0,0,1.15.13l.71-.14,1.32-.41c.5-.17,1-.37,1.49-.57,1.1-.46,2.2-.94,3.3-1.37l7.12-2.82,8.93-3c.79-.27,1.61-.47,2.42-.69L89,249.31c.88-.25,1.76-.53,2.66-.74l4.59-1.1c2.64-.64,5.28-1.31,7.93-1.89l10.57-2.29c.74-.16,1.47-.29,2.21-.44l6.29-1.21q8.07-1.54,16.17-2.84c2.82-.46,5.63-.91,8.45-1.32s5.83-.84,8.75-1.3l5.42-.85c1.18-.19,2.34-.44,3.5-.67l5-1,.79-.18,3-.73,4.16-1c.94-.23,1.87-.54,2.8-.81s1.86-.58,2.78-.88c2-.64,3.89-1.37,5.81-2.14,3.61-1.45,7.09-3.18,10.6-4.85l7.41-3.51c2.45-1.17,5-2.23,7.4-3.42l4-2,1.75-.85c1-.47,1.92-1,2.87-1.52a72.6,72.6,0,0,0,8.5-5.45,60.88,60.88,0,0,0,7.36-6.63c1.13-1.15,2.2-2.36,3.29-3.55.76-.83,1.46-1.72,2.19-2.58s1.5-1.83,2.22-2.77,1.55-2,2.34-2.94c.95-1.12,1.89-2.25,2.89-3.32a50.56,50.56,0,0,1,7.41-6.45c1.16-.81,2.35-1.55,3.58-2.24a47.28,47.28,0,0,1,4.36-2.11c1.49-.66,3-1.26,4.52-1.87l2.71-1.09,2.26-.89c.49-.19,1-.37,1.46-.58l3.81-1.67c1-.45,2-.94,3-1.42,2.32-1.1,4.62-2.26,6.92-3.41.94-.47,1.88-1,2.82-1.48s2.06-1.08,3.07-1.68l2.13-1.27c.29-.17.57-.34.84-.53l1.95-1.37c.4-.28.82-.55,1.21-.86q3.18-2.44,6.33-4.92c1.77-1.38,3.6-2.69,5.44-4l-.05,0,.25-.18.22-.15,1.23-.87-.1.07.18-.12.22-.16c1.37-1,2.75-1.93,4.07-3,.65-.51,1.33-1,2-1.55s1.44-1.23,2.13-1.88q3.92-3.7,7.76-7.47c1.12-1.1,2.22-2.22,3.33-3.32,1.26-1.25,2.53-2.5,3.78-3.76s2.26-2.23,3.37-3.36c.45-.46.9-.91,1.34-1.37a11.4,11.4,0,0,1,1.42-1.18l1.41-.89c-.06.22-.13.44-.21.67-.15.43-.32.85-.51,1.27-1,2.14-2,4.28-3,6.44-.78,1.68-1.47,3.42-2.2,5.13s-1.33,3.37-2,5.06-1.31,3.49-1.95,5.24c-.56,1.56-1.12,3.11-1.65,4.67-.63,1.87-1.24,3.75-1.89,5.6-.43,1.24-.87,2.48-1.3,3.71-.24.67-.44,1.37-.71,2-.8,1.91-1.59,3.81-2.38,5.72-1.15,2.4-2.3,4.8-3.48,7.18a77,77,0,0,1-9.67,14.79v0c-.86,1-1.72,2-2.65,3l-1.73,1.75c-.95,1-1.89,1.93-2.86,2.86l-3.65,3.48c-1.16,1.1-2.35,2.17-3.53,3.26l-2.72,2.48-1.65,1.5c-.45.4-.94.77-1.41,1.16l-2.27,1.87c-.29.23-.57.47-.86.69l-4.47,3.3c-1.1.81-2.23,1.6-3.34,2.4s-2.13,1.66-3.17,2.51l-2.21,1.8c-.7.57-1.37,1.17-2,1.77a80.08,80.08,0,0,0-8.36,8.72c-1.09,1.31-2.1,2.68-3.13,4-1.49,1.94-2.93,3.88-4.32,5.88a81.26,81.26,0,0,0-8.48,16.08q-1,2.52-2,5c-.47,1.16-.87,2.34-1.3,3.52l-1.5,4.12c-.16.43-.27.89-.41,1.34l-1,3.31c-.31,1-.66,2-.91,3.06l-1.38,5.73c-.68,2.84-1.26,5.71-1.88,8.57s-1.22,5.52-1.84,8.27c-.23,1-.54,2-.82,3.05L241,304.3c-.11.43-.26.87-.39,1.29-.29.94-.58,1.87-.86,2.8-.39,1.25-.76,2.52-1.16,3.77-.9,2.78-1.78,5.57-2.68,8.35l-1.71,5.26c-.37,1.15-.64,2.32-1,3.49-.41,1.51-.81,3-1.22,4.54s-.68,2.86-1,4.3c-.25,1-.48,2.09-.77,3.12q-.8,2.83-1.6,5.67c-.81,2.87-1.71,5.72-2.58,8.58-.75,2.46-1.57,4.9-2.35,7.36-.48,1.52-1,3-1.43,4.56-.37,1.16-.76,2.32-1.09,3.49-.83,3-1.68,6-2.45,9s-1.54,5.82-2.33,8.72c-.59,2.13-1.22,4.25-1.84,6.38-.55,1.91-1.07,3.85-1.71,5.74l-.1.18a1.42,1.42,0,0,0-.18,1,1.23,1.23,0,0,0,.58.82.2.2,0,0,0,.08,0,1.4,1.4,0,0,0,1,.18,1.34,1.34,0,0,0,1-.89c.1-.24.19-.49.28-.73l.27-.47c.35-.52.72-1,1.11-1.49q.81-.94,1.68-1.83c.63-.64,1.32-1.24,2-1.84.84-.74,1.7-1.46,2.6-2.14l5.16-4c2.47-1.89,4.92-3.79,7.38-5.68,2.23-1.72,4.4-3.51,6.7-5.14l8.86-6.29q7.22-4.8,14.47-9.54l1.91-1.26c.47-.31.95-.6,1.39-.94l4.29-3.31c.84-.66,1.65-1.34,2.46-2l3.81-3.19c.45-.38.89-.79,1.33-1.19l2.06-1.83c1.12-1,2.17-2.06,3.25-3.1,2-1.9,3.89-3.84,5.7-5.91,1.2-1.37,2.35-2.8,3.49-4.23.73-.93,1.47-1.86,2.14-2.83l5.84-8.41c.53-.76,1-1.55,1.54-2.32l3.54-5.31c3-4.55,6-9.12,8.92-13.75l2.91-4.64c1.66-2.65,3.35-5.28,4.92-8,1.89-3.25,3.54-6.64,5.13-10.05.84-1.82,1.62-3.67,2.38-5.53.38-.93.75-1.87,1.11-2.81s.75-1.9,1.08-2.86l3-8.76c.12-.35.19-.71.29-1.06.23-.83.45-1.67.68-2.51.53-1.93,1.05-3.87,1.58-5.8.19-.71.33-1.41.47-2.13q.6-3.08,1.19-6.16l.45-2.31c.08-.39.17-.79.23-1.19.2-1.49.41-3,.61-4.47s.45-3.23.67-4.84c0-.28.06-.55.08-.83l.24-2.7.39-4.45c.17-1.95.25-3.89.42-5.83s.47-3.75.8-5.61c.55-2.84,1.27-5.63,2.1-8.4l1.41-4.68c.82-2.75,1.66-5.51,2.5-8.26.53-1.77,1.08-3.54,1.55-5.33a49.47,49.47,0,0,0,1-5.1c.17-1,.26-2.06.38-3.09.31-2.86.49-5.75.7-8.63.19-2.69.48-5.38.81-8.06.36-2.93.69-5.88,1-8.82.12-1.23.2-2.45.3-3.68.05-.73,0-1.47.06-2.21a5.42,5.42,0,0,0,0-.57c0-.65-.05-1.3-.08-1.94s-.07-1.11-.12-1.66-.09-1.34-.16-2c-.15-1.4-.29-2.8-.45-4.2-.09-.82-.19-1.64-.27-2.46.06.16.13.31.19.46.29.69.56,1.39.82,2.08l1.29,3.41q1.29,4.06,2.61,8.11c.29.87.57,1.73.85,2.6.11.34.22.68.34,1q1,2.47,1.9,4.95l.66,1.71c.12.31.28.61.42.91q1.35,2.82,2.68,5.64c1.28,2.7,2.69,5.34,4,8,2.62,5.11,5.21,10.24,7.84,15.36,1.33,2.58,2.75,5.13,4.14,7.69s2.91,5.16,4.37,7.74,2.88,5,4.33,7.44,2.83,4.95,4.24,7.42,2.65,4.74,4,7.11c.22.4.49.78.74,1.17l1.6,2.51,1.53,2.39c.52.83,1.07,1.63,1.63,2.43,1,1.4,2,2.79,3,4.15,1.15,1.52,2.4,3,3.66,4.42,1.57,1.78,3.21,3.49,4.88,5.17,2.17,2.19,4.34,4.37,6.54,6.52l3.42,3.34c.94.92,1.94,1.79,2.9,2.68l3.78,3.47c.78.72,1.6,1.42,2.4,2.12l10.9,9.61c1.63,1.45,3.32,2.82,5,4.22s3.16,2.61,4.74,3.9q4.71,3.85,9.51,7.6c1.68,1.32,3.38,2.62,5,4l5.6,4.55c2.11,1.86,4.24,3.69,6.32,5.57l6.72,6.09c1.14,1,2.24,2.09,3.36,3.13.81.76,1.63,1.51,2.41,2.3l3.91,4.07c.81.83,1.63,1.66,2.42,2.51l7.13,7.65c.59.63,1.15,1.28,1.71,1.93l3.91,4.47c.68.78,1.34,1.59,2,2.39.92,1.11,1.88,2.2,2.76,3.35l3,3.87c.33.43.63.88,1,1.32.44.62.88,1.25,1.33,1.87,1.5,2.2,3,4.41,4.55,6.57a5.14,5.14,0,0,0,2,1.83,1.63,1.63,0,0,0,1,.17,2,2,0,0,0,.9-.48l.21-.23a2.72,2.72,0,0,0,.6-1,9.78,9.78,0,0,0,.62-2,19.54,19.54,0,0,0,.37-2.14,30.57,30.57,0,0,0,.22-4,50.05,50.05,0,0,0-.34-5.19c-.07-.69-.15-1.36-.24-2l-.75-5.68c0-.27-.09-.54-.14-.81-.16-.84-.32-1.68-.47-2.53-.33-1.72-.65-3.44-1-5.16-.12-.64-.3-1.34-.44-2-.22-1-.46-1.92-.7-2.87-.49-1.94-1-3.86-1.63-5.76s-1.34-4-2.05-6c-.65-1.8-1.29-3.61-2-5.38l-3.84-9.59c-.26-.66-.52-1.33-.81-2l-2.28-5c-1.06-2.33-2.07-4.67-3.22-6.95l-5.17-10.23c-.27-.53-.54-1.05-.84-1.57l-2.85-5-2.81-4.9c-.34-.61-.68-1.22-1.07-1.81q-3.07-4.69-6.16-9.4c-.41-.64-.82-1.3-1.26-1.93l-2.49-3.57-5.53-7.91c-.53-.76-1.12-1.49-1.69-2.22l-3.88-5-3.24-4.22c-.42-.54-.83-1.07-1.26-1.59q-3.21-3.85-6.41-7.7c-1.42-1.71-2.8-3.44-4.19-5.16l-2.73-3.37c-.65-.8-1.25-1.65-1.87-2.48-.8-1.06-1.6-2.13-2.41-3.19s-1.52-2.13-2.27-3.19-1.32-2-1.94-3l-2.31-3.72-1.56-2.48c-.26-.42-.52-.85-.8-1.26-1-1.46-2-2.91-3-4.37-.6-.89-1.25-1.75-1.91-2.61l-1.84-2.43c-.29-.39-.58-.79-.89-1.16l-3-3.66c-.85-1-1.74-2-2.61-3-1.77-2.05-3.53-4.12-5.18-6.27l-2.57-3.37c-.86-1.13-1.7-2.28-2.62-3.37l-1.59-1.91c-.36-.42-.74-.81-1.11-1.21-1.05-1.15-2.12-2.27-3.2-3.39-2-2-4.06-4-6.13-5.95-.72-.69-1.49-1.35-2.24-2s-1.77-1.55-2.67-2.31-1.55-1.28-2.33-1.9-1.78-1.36-2.67-2c-1.59-1.18-3.29-2.22-5-3.24s-3.43-2-5.2-2.91a45.68,45.68,0,0,0-5.38-2.44,30.19,30.19,0,0,0-5.34-1.47,52.25,52.25,0,0,0-5.73-.61c-1.05,0-2.1-.08-3.14-.16-.84-.06-1.67-.17-2.5-.31a13,13,0,0,1-2.11-.68,4.33,4.33,0,0,1-.51-.31,5.71,5.71,0,0,1-.67-.72,5.28,5.28,0,0,1-.33-.62,19.81,19.81,0,0,1-.82-4.26,26.19,26.19,0,0,1,.13-6,29.84,29.84,0,0,1,1.15-3.58c.26-.69.55-1.35.85-2l.42-.79c.19-.32.4-.63.62-.93s.57-.75.85-1.12l1.4-1.8c.82-.94,1.66-1.86,2.48-2.8q1.46-1.68,2.77-3.47c1.39-1.88,2.75-3.77,4.2-5.59a6.36,6.36,0,0,1,.66-.61h0l.54,0a19.13,19.13,0,0,1,2.53.82c.22.11.44.23.65.36.39.27.78.55,1.15.86,2.37,2,4.57,4.26,6.79,6.46.92.92,1.85,1.82,2.8,2.71,1.14,1.08,2.33,2.12,3.51,3.16,1,.89,2.06,1.69,3.1,2.53s2.43,1.79,3.65,2.68c1,.71,2,1.39,3,2.08s2.18,1.48,3.28,2.2l2.47,1.59c.37.24.74.49,1.12.72l4.4,2.64c2.3,1.38,4.63,2.74,7,4.07,4.93,2.79,9.9,5.5,14.8,8.32,1.53.87,3.06,1.74,4.58,2.63s2.82,1.66,4.24,2.47l2.56,1.45c.23.13.48.24.71.36l1.81.89c1.52.76,3.08,1.46,4.65,2.12s3.39,1.39,5.1,2,3.1,1.19,4.64,1.82c3.13,1.27,6.21,2.66,9.28,4.1q2.51,1.23,5,2.52c1.68.87,3.34,1.77,5,2.64.9.47,1.76,1,2.64,1.5s1.43.84,2.14,1.29l2.47,1.56c1,.62,1.93,1.3,2.89,2,1.57,1,3.11,2.17,4.66,3.24s3.13,2.1,4.71,3.13c.84.55,1.7,1.06,2.55,1.58s1.72,1.08,2.57,1.62c.7.44,1.35.93,2,1.42l2.65,2,3.25,2.8c1.1.94,2.14,2,3.19,2.95l2.63,2.51c.94.9,1.94,1.75,2.9,2.63l3.73,3.42c.32.28.61.59.91.89l2.42,2.38c1.86,1.84,3.69,3.72,5.5,5.62.92,1,1.86,1.93,2.76,2.93s2.08,2.21,3.05,3.36l1.66,2c.34.41.66.84,1,1.27,1,1.29,1.94,2.61,2.89,3.93,1.59,2.21,3.14,4.44,4.77,6.62,1.76,2.36,3.57,4.69,5.37,7,.44.57.91,1.13,1.36,1.69s.73.91,1.1,1.35l3,3.57c.87,1,1.76,2,2.66,3.06s2,2,3,2.92c.39.37.79.72,1.2,1.07.23.2.47.39.72.58l.41.29c.23.13.47.25.71.36a2.61,2.61,0,0,0,2.07-.06,2.45,2.45,0,0,0,.84-.76l.44-.93a7.27,7.27,0,0,0,.27-1.14l.15-.82a9.72,9.72,0,0,0,.06-1.32c0-.34,0-.68,0-1,0-.67-.09-1.34-.15-2-.14-1.39-.35-2.77-.58-4.14s-.48-2.75-.73-4.13l-.15-.72c-.11-.53-.24-1-.36-1.58Zm-5.21-7.58,1,3.29c.15.51.27,1,.4,1.55.19.76.39,1.52.58,2.28.25,1,.45,2,.67,3s.37,1.86.53,2.8c.2,1.15.4,2.3.57,3.46.08.5.17,1,.22,1.51l.18,1.65c0,.42,0,.84,0,1.27a7.63,7.63,0,0,1,0,.83,9.26,9.26,0,0,1-.11,1.17,1.55,1.55,0,0,1,0,.21s0,.07,0,.1v0c0,.06,0,.12,0,.19l-.41-.29-.48-.39,0,0c-.91-.8-1.78-1.64-2.65-2.48-1.07-1-2-2.15-3-3.26-1.87-2.15-3.69-4.34-5.49-6.55-.91-1.12-1.79-2.27-2.67-3.41s-1.66-2.12-2.46-3.2-1.66-2.18-2.45-3.29l-2.88-4c-1.57-2.17-3.12-4.36-4.86-6.41-.45-.53-.91-1.06-1.36-1.6s-.85-.92-1.27-1.38c-1-1.05-1.93-2.1-2.92-3.12-2-2.11-4.05-4.24-6.15-6.28q-1.77-1.72-3.53-3.46c-1-1-2-1.88-3.07-2.82l-3-2.67c-1.14-1-2.26-2.05-3.37-3.09s-2-1.9-3.07-2.84c-.33-.3-.68-.58-1-.87l-2.51-2.13c-.3-.26-.6-.55-.92-.78l-1.82-1.33-2.09-1.53c-.48-.35-1-.65-1.52-1L515.12,163c-1.32-.81-2.62-1.67-3.91-2.52-2.2-1.42-4.29-3-6.47-4.45-2.36-1.58-4.72-3.18-7.2-4.58-1.23-.7-2.46-1.4-3.72-2.05l-3.94-2.09c-2.43-1.31-4.92-2.53-7.42-3.72-3.2-1.52-6.44-3-9.74-4.28-1.7-.68-3.4-1.36-5.1-2.06s-3.55-1.55-5.32-2.35l-1.83-.92c-.53-.26-1.07-.51-1.59-.8-1.12-.64-2.26-1.27-3.38-1.93q-4-2.33-8-4.62c-4.76-2.74-9.6-5.33-14.39-8-2.42-1.37-4.82-2.77-7.22-4.17L422,112.1c-1.17-.69-2.31-1.45-3.46-2.18-1-.62-1.94-1.25-2.9-1.9-1.16-.78-2.34-1.54-3.48-2.35l-3.84-2.75c-.42-.31-.82-.65-1.23-1l-1.84-1.46c-1-.89-2-1.76-3-2.67-1.16-1.08-2.31-2.16-3.45-3.27A104.85,104.85,0,0,0,391,87.42,8.66,8.66,0,0,0,388.1,86l-1.2-.35a4.41,4.41,0,0,0-1.94-.19,3.92,3.92,0,0,0-2,1.47c-.36.44-.72.89-1.07,1.35-.79,1-1.6,2-2.38,3s-1.65,2.18-2.51,3.25c-1.15,1.31-2.33,2.59-3.48,3.9-.59.68-1.13,1.42-1.67,2.13-.4.52-.79,1-1.16,1.59a12.67,12.67,0,0,0-1.09,2.1c-.39.89-.72,1.8-1,2.72-.25.7-.46,1.4-.65,2.11a11.69,11.69,0,0,0-.31,2,27.82,27.82,0,0,0,.19,5.55,24.23,24.23,0,0,0,.43,2.55c.09.43.23.85.35,1.26a5.11,5.11,0,0,0,.93,1.81,6.88,6.88,0,0,0,1.08,1,5.94,5.94,0,0,0,1.55.73,13.75,13.75,0,0,0,2.29.59,54,54,0,0,0,5.68.53,50.42,50.42,0,0,1,5.47.67,36.83,36.83,0,0,1,4,1.13c.62.21,1.25.42,1.85.68l2,.92c1.44.71,2.86,1.46,4.27,2.23s2.72,1.6,4.06,2.41c.6.36,1.19.76,1.78,1.14s1.25.85,1.85,1.29l2,1.47c.74.55,1.45,1.15,2.17,1.73s1.57,1.32,2.34,2l2.81,2.54c.93.84,1.82,1.74,2.72,2.6s1.73,1.7,2.6,2.54c1.66,1.64,3.22,3.38,4.78,5.11s2.93,3.57,4.32,5.41,2.6,3.49,4,5.2c.67.86,1.33,1.73,2,2.57l2.42,2.88c.73.87,1.47,1.72,2.19,2.6l2.8,3.47c.56.69,1.09,1.42,1.62,2.14l2.48,3.32,2.4,3.6c.66,1,1.28,2,1.9,3,1.43,2.32,2.81,4.67,4.25,7l1.17,1.88c.38.6.8,1.16,1.2,1.74.67,1,1.33,1.95,2,2.9l3.23,4.4c.56.78,1.18,1.52,1.78,2.27,1.65,2.08,3.29,4.19,5,6.25l6.79,8.27c.37.44.72.9,1.07,1.36l3.1,4.05c1.87,2.45,3.73,4.89,5.61,7.33l5.31,7.66,2.42,3.48c.46.66.89,1.35,1.33,2l6.13,9.41c.33.5.62,1,.91,1.53,1,1.73,2,3.45,3,5.19l2.7,4.72c.35.61.68,1.21,1,1.83l5.16,10.23c1.15,2.28,2.16,4.63,3.22,7l2.17,4.77c.33.72.62,1.45.91,2.19.92,2.29,1.84,4.57,2.75,6.86.34.84.67,1.68,1,2.51.69,1.72,1.3,3.47,1.94,5.21-.05-.12-.1-.25-.14-.38.95,2.64,1.85,5.29,2.65,8,.75,2.52,1.37,5.08,2,7.64.51,2.2.88,4.44,1.3,6.67.17.86.33,1.73.5,2.6.12.65.18,1.33.27,2l.54,3.91c.17,1.29.31,2.59.43,3.89s.13,2.36.13,3.54a28.06,28.06,0,0,1-.41,4.48c-.08.33-.16.65-.25,1l-.29-.37-.48-.68c-1.43-2.06-2.83-4.15-4.29-6.19-.78-1.08-1.53-2.2-2.35-3.26-.58-.74-1.16-1.49-1.73-2.24-.39-.49-.76-1-1.16-1.48-1.75-2.11-3.48-4.22-5.29-6.27s-3.66-4.24-5.58-6.28c-1.35-1.45-2.71-2.89-4.07-4.34-.85-.91-1.69-1.84-2.55-2.73l-6.71-6.93-.64-.61-2.06-1.91c-.95-.88-1.89-1.77-2.85-2.64-2.2-2-4.39-4-6.62-6l-5.28-4.66c-1.11-1-2.24-1.89-3.38-2.82-1.42-1.16-2.83-2.34-4.27-3.47L468.11,286q-4.29-3.37-8.52-6.83c-2.94-2.4-5.85-4.83-8.76-7.26q-4.51-4-9.05-8l-3-2.65c-.5-.43-1-.86-1.5-1.31l-5.42-5c-1.15-1.06-2.28-2.13-3.41-3.23-1.49-1.45-3-2.89-4.48-4.37l-5.12-5.13c-.49-.5-1-1-1.43-1.52q-1.63-1.76-3.19-3.55a85.19,85.19,0,0,1-5.26-6.85l.19.26c-1.93-2.77-3.71-5.64-5.53-8.48-.25-.4-.46-.83-.69-1.24l-1.47-2.61c-.61-1.09-1.21-2.17-1.83-3.25-1.41-2.48-2.8-5-4.24-7.43s-2.93-4.93-4.34-7.43-3-5.14-4.37-7.74-2.81-5.11-4.14-7.69c-2.63-5.11-5.22-10.25-7.87-15.35-1.11-2.15-2.22-4.31-3.34-6.46-.79-1.52-1.49-3.1-2.24-4.64-.48-1-1-2-1.45-3-.21-.42-.37-.86-.54-1.3-.73-1.87-1.47-3.75-2.2-5.63q-1.51-4.53-3-9.06l-.72-2.2c-.24-.72-.54-1.42-.81-2.13l-.9-2.33c-.39-1-.83-2-1.28-3a11,11,0,0,0-.9-1.69,2.68,2.68,0,0,0-.62-.68,1.07,1.07,0,0,0-.73-.34,1.1,1.1,0,0,0-.78.28.93.93,0,0,0-.35.33c-.08.16-.15.32-.22.49s-.09.42-.12.63a8.29,8.29,0,0,0,0,1.32c0,.83.12,1.66.19,2.49q.29,3.08.56,6.17c.05.81.1,1.62.16,2.43s.06,1.53.08,2.3a42.9,42.9,0,0,1-.25,4.94c-.3,3.3-.72,6.6-1.16,9.88s-.81,6.47-1.09,9.72c-.33,3.94-.65,7.88-1.31,11.77a50,50,0,0,1-1.41,5.64c-.34,1.07-.68,2.13-1,3.2-.49,1.53-1,3.05-1.46,4.59q-.85,2.72-1.7,5.43c-1,3.24-2,6.47-2.79,9.77-.53,2.29-.89,4.61-1.21,6.93s-.39,4.56-.61,6.84-.44,4.5-.67,6.76c-.14,1.49-.38,3-.6,4.45q-.42,3-.86,5.93l-1.83,9.18-.21,1c-.07.35-.19.7-.29,1.05q-.81,3-1.64,6c-.21.78-.43,1.56-.64,2.34-.07.26-.13.53-.22.78l-1.65,4.87c-.55,1.62-1.08,3.24-1.68,4.84q-2.21,6-4.88,11.73c-1.25,2.62-2.58,5.21-4,7.74s-3.05,5-4.59,7.55c-1.22,2-2.46,4-3.7,6-2.29,3.71-4.68,7.35-7,11-.93,1.44-1.88,2.87-2.82,4.3-1.14,1.74-2.25,3.5-3.43,5.21-1.35,2-2.72,4-4.08,5.94l-1.88,2.76c-.44.63-.92,1.24-1.39,1.85-1,1.31-2,2.58-3.05,3.84-1.66,1.95-3.39,3.82-5.21,5.62l-3.1,3.06c-1.43,1.4-2.93,2.72-4.41,4.07-.71.65-1.47,1.26-2.2,1.88l-3.25,2.77c-.71.6-1.46,1.17-2.19,1.74l-2.83,2.24c-4.15,2.85-8.33,5.65-12.5,8.46-1.81,1.21-3.64,2.4-5.41,3.67l-8.23,5.89c-.57.41-1.14.8-1.69,1.23l-4,3.18c-2,1.59-4.07,3.16-6.11,4.74s-4,3.08-6,4.61l-1.68,1.29c-.65.5-1.28,1-1.91,1.56s-1.42,1.22-2.1,1.86l.42-1.39q1.17-4,2.23-8c.36-1.33.71-2.66,1.05-4s.67-2.73,1-4.09q.74-2.65,1.46-5.31c.3-1.06.62-2.11.95-3.15.92-3,1.84-5.94,2.78-8.91s1.86-6,2.76-9.06c.86-2.86,1.63-5.74,2.43-8.62.26-.92.47-1.84.69-2.77q.61-2.58,1.21-5.16c.29-1.22.64-2.43,1-3.64.24-.93.49-1.86.73-2.8.12-.44.21-.9.36-1.34.85-2.68,1.71-5.35,2.56-8,.92-2.91,1.84-5.82,2.73-8.74.5-1.63,1-3.27,1.49-4.9.39-1.28.7-2.57,1-3.85.25-.91.5-1.81.74-2.72.09-.33.2-.67.27-1q.57-2.52,1.12-5.06c.64-2.88,1.25-5.76,1.86-8.65s1.3-5.73,2-8.6c.22-.92.49-1.83.76-2.74l1.62-5.41c.08-.28.18-.54.28-.81l.9-2.5c.33-.94.67-1.87,1-2.8.16-.46.31-.93.49-1.38l2-5q1.32-3.33,2.85-6.57a81.44,81.44,0,0,1,8.33-13.5c.79-1,1.57-2.07,2.35-3.1.42-.55.84-1.11,1.27-1.66s.94-1.19,1.43-1.77c1.28-1.51,2.6-3,4-4.39s2.77-2.69,4.2-4,2.87-2.39,4.32-3.57l1.55-1.27c.38-.31.8-.58,1.19-.86,1.16-.83,2.32-1.66,3.47-2.5l4.12-3c.36-.26.7-.57,1.05-.85l2.65-2.16c1-.77,1.85-1.6,2.76-2.42l3-2.73c2.35-2.14,4.67-4.31,7-6.5,1-.89,1.87-1.85,2.8-2.78l1.5-1.49c.45-.45.89-1,1.32-1.42.7-.76,1.38-1.54,2-2.33q1.88-2.26,3.59-4.66c1.11-1.53,2.13-3.14,3.13-4.75,1.57-2.56,2.93-5.25,4.25-7.94l2.07-4.24c.22-.45.41-.91.6-1.37l1.35-3.19c.22-.51.47-1,.66-1.55.28-.8.56-1.6.85-2.4.51-1.45,1.05-2.9,1.54-4.36l2-5.95c.52-1.55,1.12-3.09,1.68-4.63.46-1.26.93-2.53,1.42-3.79.61-1.58,1.18-3.18,1.85-4.74l2.1-5c.3-.72.66-1.41,1-2.11s.78-1.67,1.16-2.5c.58-1.19,1.17-2.36,1.64-3.59.06-.22.13-.43.2-.64a10.58,10.58,0,0,0,.28-1.24l.06-.76q0-.5-.09-1a1.24,1.24,0,0,0-.57-.81,1.82,1.82,0,0,0-.9-.38l-.34,0-.63.23c-.34.17-.67.35-1,.55a24.32,24.32,0,0,0-3,2.09,30,30,0,0,0-2.24,2.27c-.84.87-1.7,1.72-2.55,2.57s-1.93,2-2.91,2.93c-1.9,1.89-3.76,3.81-5.67,5.71s-3.95,4-6,5.91c-1,1-2.07,1.93-3.12,2.88-.43.39-.9.73-1.35,1.09s-1,.84-1.56,1.23c-2.44,1.8-4.9,3.57-7.33,5.39-1.07.79-2.13,1.59-3.16,2.42L306,152.43l-1.58,1.24c-.31.25-.6.5-.92.73l-2.91,2.09-3,1.84c-.73.45-1.48.84-2.22,1.24l-3.06,1.64c-1.14.61-2.31,1.17-3.47,1.76-2,1-3.94,1.93-5.91,2.88-.8.38-1.61.72-2.42,1.08s-1.83.83-2.76,1.2l-6.26,2.5c-1.36.55-2.71,1.1-4.06,1.68a47.09,47.09,0,0,0-8,4.35,54.61,54.61,0,0,0-5.58,4.47c-.5.46-1,.93-1.48,1.41s-1,1-1.48,1.53-1,1.11-1.45,1.66c-1.36,1.55-2.66,3.15-4,4.75s-2.75,3.2-4.21,4.73c-1.14,1.19-2.27,2.37-3.44,3.53a63.22,63.22,0,0,1-7.52,6.34q-2.4,1.65-4.91,3.12c-.82.48-1.65.93-2.48,1.38s-1.7.91-2.57,1.32l-5.22,2.47c-2.75,1.31-5.55,2.53-8.32,3.77-2.57,1.16-5.11,2.38-7.66,3.57l-5.29,2.47c-2.57,1.2-5.18,2.28-7.84,3.27q-2.58.92-5.19,1.71c-1,.32-2.11.63-3.17.89l-5.71,1.39c-.89.21-1.77.42-2.66.6l-6.1,1.2c-2.92.58-5.87,1-8.81,1.48s-5.84.89-8.77,1.33-5.74.95-8.6,1.43-5.55,1-8.32,1.49-5.24,1-7.85,1.51-5.17,1-7.74,1.57L104.26,243c-1.67.37-3.33.79-5,1.2l-8,1.95c-.53.13-1.06.29-1.59.45l-4.65,1.32-4,1.13c-.52.15-1,.29-1.53.47l-8.34,2.85c-.6.2-1.18.43-1.77.67l-4.59,1.83c-.78.31-1.56.62-2.34.95-1.2.5-2.39,1-3.6,1.49l-.57.19-.24.09c.33-.57.67-1.14,1-1.71s.82-1.36,1.22-2c.74-1.22,1.5-2.45,2.28-3.65,1-1.44,1.89-2.9,2.87-4.33s1.86-2.79,2.83-4.16L70.21,239c.43-.61.85-1.23,1.3-1.83l3.86-5c.84-1.11,1.75-2.17,2.64-3.25l3.35-4,5.21-5.73c.42-.47.84-.93,1.29-1.36l3.35-3.23c.59-.56,1.15-1.16,1.77-1.68l3-2.52,3.21-2.73c.6-.51,1.22-1,1.84-1.49,1.57-1.24-.26-1.93,1.37-3.1,4.24-2.94,12.18-6,16.64-8.59,1-.6,2.06-1.22,3.11-1.81l4.44-2.48,3.55-2c1.27-.7,2.58-1.36,3.86-2l4.5-2.39c.88-.47,1.79-.88,2.69-1.3l5.41-2.59c.82-.4,1.64-.8,2.47-1.17l9.09-4c1-.43,2-.84,3-1.25l5.55-2.31c.72-.3,1.45-.58,2.19-.86,1.94-.73,3.88-1.48,5.82-2.22,3.38-1.29,6.78-2.53,10.17-3.79l8.29-3c1.07-.38,2.17-.73,3.25-1.09l5.36-1.79,8.31-2.81c2.55-.87,5.09-1.78,7.64-2.68s5.35-1.81,8-2.71c2.53-.85,5.06-1.73,7.59-2.57s5.09-1.74,7.61-2.68,5.13-1.85,7.64-2.89c1-.4,1.94-.81,2.9-1.24l2.9-1.32,6.49-2.92,6-2.7c1.79-.81,3.62-1.52,5.44-2.26,1.17-.41,2.34-.84,3.53-1.19,1.46-.43,2.91-.84,4.37-1.25s2.76-.81,4.14-1.22,2.58-.74,3.86-1.14q4.07-1.26,8.12-2.59l8.36-2.75c1.37-.45,2.74-.9,4.11-1.33s2.6-.75,3.9-1.11c2.7-.75,5.43-1.35,8.15-2,2.54-.62,5.09-1.26,7.58-2.07s5.24-1.76,7.82-2.75c.47-.18.92-.4,1.39-.6s.65-.29,1-.46a21.62,21.62,0,0,0,2.16-1.2c.78-.5,1.53-1,2.29-1.55s1.33-1,2-1.57a48.11,48.11,0,0,0,3.69-3.45c1.29-1.31,2.53-2.65,3.75-4s2.25-2.6,3.36-3.91S358,92.88,359,91.55c.54-.7,1.1-1.39,1.64-2.09s1-1.38,1.54-2.08,1-1.35,1.49-2,1.26-1.56,1.9-2.33c.82-1,1.66-1.93,2.51-2.87s1.82-2,2.7-3c.33-.36.63-.75.93-1.14a8.22,8.22,0,0,0,.67-1.15,12.75,12.75,0,0,0,.54-1.19,7.51,7.51,0,0,0,.5-1.9,2,2,0,0,1,0-.25,1.88,1.88,0,0,0-.16-.66,3.27,3.27,0,0,0-.51-.89,5.79,5.79,0,0,0-1.61-1.35,16,16,0,0,0-2.89-1.24c-1.26-.43-2.55-.79-3.85-1.12-1.11-.28-2.25-.45-3.37-.65a36.35,36.35,0,0,0-4.17-.42,60.57,60.57,0,0,0-7.74-.13c-1.1.07-2.21.16-3.31.31s-2.48.36-3.73.51c-2.57.32-5.1.93-7.63,1.46L327,68.93c-1.79.37-3.56.73-5.33,1.16-2.2.55-4.38,1.15-6.56,1.81s-4,1.39-6,2.16-3.61,1.54-5.37,2.41-3.4,1.74-5,2.73A50.66,50.66,0,0,0,294,82.51c-1.62,1.25-3.1,2.69-4.63,4.06-.78.7-1.56,1.4-2.38,2.06s-1.69,1.31-2.55,2-1.62,1.1-2.44,1.62c-1,.62-2,1.22-2.94,1.81-2,1.18-4,2.26-6,3.34s-3.92,2.09-5.94,3-4.12,1.71-6.22,2.48c-1.15.4-2.3.81-3.46,1.17l-4.73,1.42c-1.33.39-2.67.76-4,1.14s-2.54.66-3.81,1-2.55.69-3.82,1.08-2.82.86-4.23,1.31l-3.93,1.24c-1.4.45-2.81.88-4.19,1.37-2.86,1-5.72,2-8.55,3.15s-5.34,2.17-8,3.32c-2.35,1-4.71,2-7.08,3-2.79,1.12-5.57,2.25-8.37,3.33q-5.28,2-10.53,4.16c-3.33,1.35-6.7,2.64-10.08,3.88-4.74,1.64-9.5,3.28-14.34,4.65s-10,2.69-15.08,3.75c-2.59.54-5.19,1.07-7.78,1.58s-5.2.92-7.81,1.34c-1.37.22-2.75.38-4.12.57s-2.75.34-4.12.52-2.53.24-3.79.37-2.5.2-3.75.31l.46,0c-2.66.21-5.32.43-8,.56-1.37.07-2.74.14-4.11.18-1.56,0-3.12.07-4.69.08H94.71c-1.57,0-3.14-.09-4.72-.16-1.35-.05-2.7-.18-4-.27s-2.72-.25-4.09-.37-2.61-.24-3.91-.31L75.42,146c-.82,0-1.64-.05-2.46-.07-2.94-.08-5.89,0-8.83-.07-1.45,0-2.89.06-4.34.09s-2.88.1-4.33.16c-2.67.1-5.35.3-8,.5-1.85.14-3.69.35-5.53.54l-4.91.5c-3.56.37-7.13.77-10.7,1.18-.81.06-1.62.11-2.44.15l-1.85.07q-.48,0-1,0c.33-.28.67-.55,1-.81a47.12,47.12,0,0,1,6.43-3.52c2.37-1.14,4.77-2.23,7.15-3.34l4-1.85c1.25-.58,2.48-1.22,3.71-1.85,2.28-1.16,4.61-2.24,6.93-3.34,5-2.4,10-4.93,15-7.41,2.5-1.25,5-2.4,7.52-3.7s4.92-2.6,7.36-3.94l6.59-3.64c2-1.08,4-2.11,5.93-3.18,4-2.15,7.94-4.29,12-6.36l6.74-3.47c1.92-1,3.87-1.94,5.8-2.9s3.94-1.92,6-2.76c1-.44,2.1-.9,3.17-1.31l3.53-1.35c5.17-1.79,10.34-3.56,15.56-5.2,2.7-.85,5.4-1.72,8.11-2.51S159.13,85,162,84.2c5.58-1.59,11.16-3.14,16.72-4.8,2.76-.82,5.52-1.61,8.3-2.38s5.63-1.6,8.43-2.4c2.21-.64,4.41-1.34,6.61-2,1-.31,2-.65,3-1s1.76-.59,2.63-.91c4.39-1.58,8.74-3.25,13.09-4.92,2.47-.87,4.93-1.72,7.37-2.66s4.92-1.9,7.39-2.83c2-.72,4-1.42,6.05-2.12.84-.29,1.68-.56,2.53-.84s2-.65,2.95-.92l3.32-.91c.47-.13,1-.23,1.45-.34l2.12-.5q2.82-.66,5.68-1.14c1-.17,2-.37,3-.51l3.86-.56c1.84-.27,3.68-.55,5.54-.75,2.41-.27,4.82-.54,7.23-.77,1.94-.19,3.87-.35,5.8-.52s3.76-.26,5.64-.33q3.46-.15,6.91-.25c4.14-.12,8.29.08,12.43.22,4.35.14,8.69.35,13,.69,1.85.14,3.71.29,5.56.5,1.05.13,2.11.22,3.16.38l3.57.53c1.2.23,2.4.45,3.58.75.66.17,1.33.31,2,.51l2.86.89c1.29.41,2.56.9,3.83,1.36s2.72,1,4.07,1.54c2.45,1,4.95,1.76,7.47,2.48,1.35.39,2.7.8,4.07,1.16l2.13.56c.78.2,1.6.35,2.39.52,2.79.62,5.63,1.14,8.46,1.53.88.13,1.75.25,2.63.33a26.13,26.13,0,0,0,5.08-.05c.89-.1,1.75-.22,2.63-.4.31-.06.61-.15.91-.23.71-.17,1.41-.39,2.11-.59,1.24-.36,2.46-.8,3.67-1.23s2.53-1,3.77-1.61,2.26-1.19,3.38-1.82c.53-.29,1-.6,1.56-.92.7-.43,1.37-.88,2-1.35,1-.68,2-1.37,2.95-2.07.52-.37,1.06-.73,1.57-1.13l2.1-1.6c.58-.45,1.13-.93,1.69-1.39l1.29-1.08c1.23-1,2.43-2.1,3.64-3.16.51-.45,1-1,1.46-1.44s.79-.79,1.17-1.21l1.51-1.67c.6-.66,1.14-1.39,1.7-2.09,1.1-1.37,2.14-2.8,3.17-4.24-.19.72-.37,1.43-.54,2.15a49.49,49.49,0,0,1-2.33,8.2,12.64,12.64,0,0,1-1.08,1.65c-.18.25-.38.48-.57.72-.79.86-1.61,1.68-2.44,2.5-1,.95-2,1.84-3.07,2.74-2,1.75-3.93,3.5-5.92,5.22-1,.84-1.93,1.72-2.88,2.61s-2,1.81-3,2.69c-.85.74-1.72,1.46-2.6,2.16s-2.06,1.64-3,2.53a16,16,0,0,0-1.21,1.26,15.67,15.67,0,0,0-1.15,1.53,6.23,6.23,0,0,0-.72,1.6,1.58,1.58,0,0,0,.08,1c.22.77,1,1.07,1.69,1.3a8.14,8.14,0,0,0,2.08.28c.6,0,1.2,0,1.8,0,1.18,0,2.36,0,3.54,0,2.45,0,4.91.23,7.36.48,1.07.11,2.14.22,3.21.3,1.39.12,2.78.18,4.17.27.81.06,1.62.08,2.43.11s1.9.11,2.85.18c1.92.14,3.83.33,5.74.55,3.85.45,7.67,1.14,11.5,1.8q6.4,1.11,12.84,2c1.81.26,3.63.4,5.44.68s3.71.59,5.55.93l4.88,1c.68.15,1.35.34,2,.51s1.33.33,2,.54c3.09,1,6.17,2.07,9.21,3.23s6.28,2.44,9.41,3.7c1.65.66,3.28,1.35,4.92,2,1.46.62,2.9,1.29,4.35,2a32.85,32.85,0,0,1,4.88,2.9l2.75,2c.59.44,1.14.93,1.71,1.41l2,1.68,3,2.67c.56.51,1.09,1.08,1.63,1.62l1.27,1.31c.9,1,1.81,1.9,2.69,2.86l3.87,4.24c.65.71,1.26,1.46,1.87,2.19,1.24,1.5,2.49,3,3.73,4.48.67.8,1.27,1.66,1.9,2.49l2.78,3.69,2.44,3.74c.72,1.09,1.38,2.2,2,3.31l4.59,7.68c1.48,2.48,2.9,5,4.35,7.48s3.1,5.25,4.66,7.88c1.34,2.27,2.77,4.49,4.16,6.73.81,1.3,1.56,2.63,2.35,3.95.62,1.05,1.25,2.1,1.86,3.16l2.46,4.34c.21.37.4.75.59,1.12l1.65,3.12c.54,1,1.06,2.05,1.57,3.09.66,1.35,1.34,2.7,1.94,4.08,1.15,2.61,2.26,5.23,3.31,7.87.49,1.23,1,2.44,1.46,3.68q.81,2.21,1.61,4.4c.67,1.95,1.38,3.88,2,5.85ZM462.14-17.19,462-17l.18-.22ZM444.66,8a2.09,2.09,0,0,0-.14.17,2.09,2.09,0,0,1,.14-.17ZM404.39,51.43l-.31.22.31-.22Zm46.38,220.45-.16-.13.16.13ZM397.85,72.09l-.08-.06.08.06Zm11.67,66.72-.09-.07.09.07Zm-19.11-49-.11-.09.11.09Zm-2-1.38-.21-.1.21.1Zm5.24,40.26-.08,0,.08,0Zm-22.06-56.9v0h0v0Zm-.3-.6-.07-.09.07.09Zm1,51.11-.11,0,.11,0Zm-2.48-6v.23c0-.08,0-.16,0-.23Zm-14.66,22.41v0ZM260.78,102.9l-.18.06.18-.06Zm-.44,75.15-.1.07.1-.07Zm-.12.09-.06,0,.06,0ZM220.59,65.83l-.11,0,.11,0Zm-34.31,160.5c-.09,0-82,19.34-82.1,19.37.1,0,82-19.33,82.1-19.37ZM26.65,148.82l-.17,0,.17,0Zm557.11,84.4v-.07a1.55,1.55,0,0,0,0-.21s0-.05,0-.07l-.06.35Z" transform="translate(250.53 129.04)"/></g></g></g></svg>