<svg xmlns="http://www.w3.org/2000/svg" xmlns:xlink="http://www.w3.org/1999/xlink" viewBox="0 0 764.71 1142.09"><defs><style>.cls-1{fill:none;}.cls-2{clip-path:url(#clip-path);}.cls-3{fill:#f1a47e;}.cls-4{fill:#e6963a;}.cls-5{fill:#213b2d;}.cls-6{fill:#dec5ae;}.cls-7{fill:#414f41;}</style><clipPath id="clip-path" transform="translate(167.48 166.72)"><rect class="cls-1" width="470.63" height="836.67"/></clipPath></defs><g id="Layer_2" data-name="Layer 2"><g id="ëÎÓÈ_1" data-name="ëÎÓÈ 1"><g class="cls-2"><rect class="cls-3" x="167.48" y="166.72" width="470.63" height="836.67"/><path class="cls-4" d="M199.71-166.72c-1,0-2,0-3,0h-3.47c-1.79,0-3.63,0-5.44.07l-9.21.34-2.11.07c-1.5,0-3,.08-4.55.19l-2.47.18-7.36.55-2.59.19-2.41.18-.55,0c-.43,0-.86.05-1.29.11l-8.93,1.12-8.94,1.12c-1.67.22-3.36.55-5,.88l-1.65.33-5.63,1.08-5.65,1.09-.21,0c-1.33.26-2.7.52-4,.86l-.48.12-19.16,4.9c-1,.26-2.11.57-3.13.86l-.85.24-6.1,1.74L80.66-149l-4.47,1.27-4.31,1.22c-.94.27-1.89.59-2.8.89l-1.07.35-19.9,6.48c-1.12.37-2.23.8-3.3,1.21l-.41.16-10.62,4.1L30-131.85l-3.81,1.47c-1.28.5-2.55,1.07-3.79,1.62l-1.78.78-5.31,2.3L9.9-123.35l-1.53.65c-1.1.47-2.24,1-3.34,1.47l-7.73,3.67q-11.55,5.48-23.1,11c-51.12,24.35-99.26,13.33-126.42,77.77C-168.5,9.8-168,53.14-167.17,95q1.66,87.76,3.32,175.51c.4,21.1.89,42.66,8.14,62.49s22.64,37.94,43.22,42.65c34.36,7.87,64.7-22.38,86.2-50.32C1.94,288.65,23.82,255.89,61,228.54l12.67-9.31,1.35-1c1.3-1,2.69-1.87,4-2.74l1.51-1c.73-.48,1.45-1,2.17-1.47,1.44-1,2.93-2,4.43-2.93l3.57-2.24c3.19-2,6.49-4.08,9.79-6,4.61-2.72,9.84-5.8,15.07-8.76,4.45-2.53,9.2-5.2,15.42-8.67,3.89-2.17,7.88-4.3,11.74-6.35l3.12-1.67c1.47-.78,3-1.53,4.45-2.25l.79-.4,8.85-4.38c1.49-.74,3-1.54,4.42-2.31l2.18-1.16,2-1c1.43-.73,2.91-1.49,4.32-2.31l13.64-7.87.34-.2,3.61-2.09,5.8-3.34c1.29-.75,2.57-1.56,3.8-2.34l1.22-.77,4.3-2.7,4.3-2.7c1.24-.78,2.48-1.6,3.68-2.39l1.64-1.09,4.16-2.72,3.84-2.53c1.38-.9,2.82-1.76,4.22-2.59l2-1.19c4.36-2.66,9.1-5.51,14.93-9,3.63-2.15,7.38-4.21,11-6.21l2.53-1.39c1.73-.95,3.46-2,5.14-2.95l2.56-1.5c1.66-1,3.28-2,4.85-3l1.56-1,1.08-.69,1.77-1.15c.73-.47,1.44-1,2.13-1.53l1.09-.81.82-.59c1.9-1.39,3.87-2.82,5.71-4.35l1-.85c1.73-1.43,3.51-2.91,5.21-4.42l1.91-1.69,1.9-1.69c.58-.52,1.13-1.09,1.66-1.64l.64-.66,1.18-1.2,2.33-2.36c.49-.49,1-1,1.41-1.55l.54-.61,1.41-1.6c1.23-1.4,2.5-2.84,3.81-4.21l6.21-6.49c1.31-1.37,2.69-2.72,4-4l2.09-2.06c.45-.45.9-.94,1.32-1.41.2-.23.4-.45.61-.67l3.73-4c1.26-1.37,2.48-2.81,3.67-4.21.54-.65,1.09-1.29,1.64-1.93,1.24-1.45,2.47-3,3.65-4.43.52-.64,1-1.29,1.57-1.93,1.29-1.58,2.51-3.27,3.69-4.9l1.37-1.9c1.26-1.71,2.47-3.49,3.64-5.22l.9-1.32C347,25,348.32,23,350.12,20.44c2.34-3.33,4.77-6.67,7.11-9.91l1.95-2.69,7.43-10.29c2.07-2.87,4.23-5.74,6.14-8.28l1.53-1.83q1.62-1.95,3.23-3.91L379-18.29l1.47-1.82c.21-.27.42-.53.64-.79.65-.8,1.33-1.62,1.92-2.48l1.24-1.76c1.12-1.6,2.28-3.25,3.34-4.92l1.1-1.74c1.05-1.66,2.11-3.33,3.14-5l.76-1.24,2-3.26c1.13-1.84,2.26-3.87,3.54-6.39.82-1.61,1.52-3.3,2.21-4.94l.26-.64c.65-1.54,1.26-3.21,1.92-5.24a47.14,47.14,0,0,0,2.33-12.17,32.16,32.16,0,0,0-.4-6.27,32.81,32.81,0,0,0-1.18-5.1,25.21,25.21,0,0,0-1.24-3c-.36-.78-.74-1.55-1.17-2.33a31.81,31.81,0,0,0-3.81-5.14l-.24-.28a52.91,52.91,0,0,0-4.73-4.74l-.53-.49c-.74-.68-1.5-1.38-2.3-2l-2.9-2.31-.59-.46c-1.08-.86-2.23-1.66-3.35-2.44l-1.12-.79c-.89-.63-1.79-1.2-2.57-1.69l-1.07-.67c-.77-.49-1.54-1-2.32-1.44-5.49-3.25-10-6-14.18-8.57-2.27-1.41-4.65-2.85-7.27-4.41-2.07-1.23-4.2-2.42-6.26-3.58l-1.12-.63c-4.81-2.71-9.57-5.67-14-8.46-1.67-1-3.44-2-5.15-2.91l-1.83-1a116,116,0,0,0-16.09-7.2c-2.56-.93-5.22-1.73-7.79-2.49l-2.29-.69c-1.77-.54-3.59-1.05-5.34-1.54l-2.7-.77c-5.2-1.49-10.41-2.77-15.3-4-5.3-1.3-10.07-2.35-14.56-3.24l-9.18-1.8c-1.86-.36-3.77-.68-5.61-1l-2.89-.49c-3.85-.68-7.78-1.23-11.58-1.76l-3.94-.56c-2-.29-4.12-.47-6.14-.63l-2.53-.22-2.51-.23-2.58-.24-.46-.05c-.48,0-1-.09-1.47-.11l-10.29-.27C201.4-166.71,200.55-166.72,199.71-166.72Z" transform="translate(167.48 166.72)"/><path class="cls-4" d="M590.13,733.77a35.35,35.35,0,0,0-5.33-26.37C489.32,686.72,387,698.82,299,741.21c-3.61,1.74-7.28,3.59-10,6.53-3.67,4-5.18,9.43-6.48,14.68a511.33,511.33,0,0,0-10.62,189.85c.62,4.68,1.57,9.83,5.3,12.72,3.23,2.5,7.66,2.59,11.75,2.57,33.92-.16,65.47,3.41,97.17-8.31l4.92-1.81c.94-.35,1.9-.67,2.84-1l1.51-.5c3.21-1.08,6.53-2.2,9.76-3.51,1.75-.7,3.53-1.5,5.31-2.38,1.45-.72,3-1.5,4.47-2.4l.15-.1,4.59-2.82c1-.64,2.07-1.33,3-2l1.26-.84c.84-.55,1.71-1.12,2.53-1.72l1.56-1.13c1.87-1.35,3.73-2.69,5.58-4.06l1.09-.79c.87-.63,1.77-1.29,2.64-2l4.27-3.3c2-1.58,4.11-3.33,6.16-5.22,2.44-2.23,4.72-4.7,7-7.24l.95-1c3.71-4.07,7.54-8.27,11.16-12.53q3-3.51,6-7l3.27-3.77c.62-.71,1.28-1.41,1.93-2.08l.9-1,.94-1c.66-.73,1.35-1.48,2.05-2.19l1.18-1.19,2.32-2.36,6.2-6.3,1.71-1.72,1.71-1.73c.54-.55,1.11-1.08,1.67-1.6l.8-.75,1.58-1.51c1.51-1.46,3.08-3,4.7-4.36l2.42-2.1,2.5-2.15.64-.56c.61-.53,1.21-1,1.83-1.56l1.26-1,6.37-5.17,4.91-3.48,2.69-1.9c1.67-1.19,3.4-2.37,5.07-3.51l2.54-1.74c1.92-1.32,3.94-2.79,6.56-4.78a106.32,106.32,0,0,0,10-8.42,53.52,53.52,0,0,0,4-4.38c1.42-1.74,2.84-3.63,4.24-5.62,1.21-1.73,2.33-3.53,3.37-5.22l.38-.62c.62-1,1.26-2.05,1.84-3.1l2.65-4.8,2.66-4.81.32-.57c.27-.47.54-1,.78-1.45l2.06-4.22,1.08-2.21,3.35-6.84c1-2,1.89-4,2.79-5.94.46-1,.93-2,1.4-3,1.36-2.91,2.62-5.93,3.83-8.84l.75-1.78,0-.1.08-.21.1-.22-.15.32.85-2c1.27-3,2.59-6.09,3.76-9.19.55-1.44,1.06-2.93,1.56-4.37l.51-1.48c.61-1.76,1.32-3.84,2-5.91a52.52,52.52,0,0,0,2.39-12.07,47.7,47.7,0,0,0-.13-6.27c-.07-.93-.16-2-.29-3.12-.1-.93-.27-1.86-.43-2.75l-.16-.86a3.66,3.66,0,0,0-1.73-2.26,3.82,3.82,0,0,0-1.91-.51,3.66,3.66,0,0,0-1,.13,3.8,3.8,0,0,0-2.25,1.73l-.38.9a3.81,3.81,0,0,0,0,2l.18,1c.07.38.14.76.2,1.14a49.43,49.43,0,0,1,.2,10.53c-.19,1.24-.44,2.5-.76,3.83H350.47V970.58l.22-.06a55.48,55.48,0,0,1-6.33,1.53l-.36,0c-1.47.18-3,.36-4.5.47a1.34,1.34,0,0,0-.35,0,1.49,1.49,0,0,0-.36,0,1.42,1.42,0,0,0-1,1.72l0,.07a1.39,1.39,0,0,0,1.28,1c1.21-.08,2.35-.26,3.47-.44l1.18-.18c.72-.11,1.36-.22,1.95-.34s1.06-.25,1.57-.39l.52-.14c1-.27,2-.59,2.95-.89l1.11-.36,3.51-1.11,1.17-.37c1.68-.53,3.39-1.12,5.12-1.74" transform="translate(167.48 166.72)"/><path class="cls-5" d="M503.78,872.66c-6.24-4.48-12.45-9-18.67-13.53-4.63-3.37-9.18-6.85-13.76-10.29-1.73-1.3-3.41-2.64-5.09-4-2.06-1.65-4.15-3.28-6.17-5q-7-5.91-13.89-11.89l-5.11-5.09c-.58-.58-1.1-1.22-1.63-1.84L436.79,818c-.7-.8-1.31-1.72-2-2.58s-1.19-1.51-1.73-2.3l-2.45-3.57c-1-1.45-1.93-2.92-2.83-4.43a60.65,60.65,0,0,1-3.77-7.57l-1.89-4.68c-.35-.89-.63-1.79-.92-2.69-.45-1.43-.9-2.85-1.36-4.27q-.79-3-1.61-6c-.52-1.93-.89-3.91-1.32-5.85-.37-1.63-.66-3.26-.95-4.91s-.65-3.49-.91-5.25q-.57-3.69-1.12-7.38c-.07-.44-.1-.87-.14-1.31-.13-1.44-.25-2.89-.38-4.33-.09-1-.17-2-.26-3-.06-.63-.05-1.28-.06-1.91l-.15-6.36c.1-5.63.22-11.25.54-16.87.16-2.84.24-5.7.5-8.54s.49-5.77.81-8.65q1-8.89,2.12-17.78c.37-3,.72-6,1-9l.42-4.09c0-.42,0-.85.06-1.27l.15-3.34.18-4.09c.07-1.52,0-3.07,0-4.6,0-1.36,0-2.72,0-4.08,0-1.54-.09-3.09-.14-4.64-.1-2.89-.23-5.77-.4-8.66s-.41-5.88-.68-8.82-.57-6-.88-9c-.28-2.74-.69-5.47-1.06-8.2s-.83-5.29-1.29-7.93q-.76-4.38-1.64-8.73c-.3-1.53-.72-3-1.08-4.55a74.61,74.61,0,0,0-2.87-9.49c-.89-2.33-2-4.56-3.15-6.79-.66-1.34-1.34-2.67-2-4-2.55-5.25-5.05-10.51-7.37-15.87q-1.86-4.32-3.79-8.62c-1-2.33-2.22-4.59-3.28-6.9-.59-1.3-1.24-2.57-1.78-3.89l-2-4.84c-1-2.37-1.85-4.78-2.73-7.18-2-5.35-4-10.67-5.92-16-.5-1.44-1-2.88-1.51-4.32s-1-3.11-1.47-4.66c-.42-1.33-.81-2.66-1.22-4-.35-1.13-.71-2.26-1.09-3.37a30.94,30.94,0,0,0-2.77-5.7,37.78,37.78,0,0,0-7.25-8.26c-1.41-1.28-2.92-2.46-4.44-3.62a41.27,41.27,0,0,0-5.17-3.26,34.68,34.68,0,0,0-10.26-3.62,24.25,24.25,0,0,0-5.25-.27,22.33,22.33,0,0,0-5.72,1.08,17.49,17.49,0,0,0-4.8,2.52,13.4,13.4,0,0,0-2,1.83,18.3,18.3,0,0,0-1.73,2.11,22.73,22.73,0,0,0-2.41,4.77,23.53,23.53,0,0,0-.84,2.83,35.27,35.27,0,0,0-.78,4.05,44.17,44.17,0,0,0-.22,6c0,1.91.2,3.82.38,5.72A60.59,60.59,0,0,0,320.63,515c.89,2.94,2.05,5.79,3.13,8.66.81,2.13,1.62,4.26,2.46,6.38,2.06,5.18,4.28,10.3,5.85,15.66a30.65,30.65,0,0,1,1,5,38.57,38.57,0,0,1-.69,6.23c-.38,2.15-.84,4.3-1.39,6.42-.83,3-1.78,5.88-2.53,8.86l-1.31,5.18c-.68,2.69-1.15,5.42-1.68,8.15-.21,1.08-.35,2.17-.51,3.26l-.66,4.37a79.65,79.65,0,0,0-.83,12.14,52.87,52.87,0,0,0,1.36,11.21,85.21,85.21,0,0,0,3.37,10.67A68.77,68.77,0,0,0,333,637.54a89,89,0,0,0,7.75,10.77,67.16,67.16,0,0,0,6.48,6.91c1.51,1.43,3.1,2.74,4.7,4.06,2.82,2.33,5.78,4.49,8.43,7a32,32,0,0,1,4.21,5.35,25.22,25.22,0,0,1,1.76,4c.21.8.38,1.6.52,2.42a17.59,17.59,0,0,1,.22,2.62c0,1-.05,2-.13,3a27.38,27.38,0,0,1-.71,4,18.21,18.21,0,0,1-1.2,2.93,14.21,14.21,0,0,1-1.28,1.72,14.63,14.63,0,0,1-1.48,1.23,17.06,17.06,0,0,1-2.52,1.08,21.08,21.08,0,0,1-4.26.56,25.59,25.59,0,0,1-5-.68,30.17,30.17,0,0,1-5.56-2.34,39.66,39.66,0,0,1-7.13-5.57,56.77,56.77,0,0,1-4.6-5.44c-.73-1-1.39-2-2.05-3-.51-.76-1-1.53-1.49-2.31l.09.15-4.37-7.39,0,0,0,0c-.07-.13-.15-.26-.23-.39-.53-.91-1-1.85-1.53-2.77l-2.85-5.15c-.39-.7-.74-1.42-1.09-2.14-.94-1.88-1.87-3.75-2.8-5.63-1.19-2.39-2.29-4.81-3.41-7.23s-2.19-4.74-3.24-7.13c-1.13-2.56-2.34-5.11-3.34-7.73q-1.78-4.72-3.58-9.45c-1.11-3-2.15-5.94-3.23-8.91-.89-2.44-1.78-4.89-2.66-7.33s-1.8-4.91-2.6-7.4c-.93-2.89-1.91-5.77-2.79-8.67l-5.55-18.3c-1.62-5.36-3.41-10.67-5.19-16s-3.33-10.48-5.11-15.68c-.63-1.84-1.27-3.68-1.9-5.51-.84-2.47-1.85-4.88-2.89-7.27a89.81,89.81,0,0,0-5.19-10.27,69,69,0,0,0-7.47-10.26,61,61,0,0,0-8.06-7.52,58.17,58.17,0,0,0-10.52-6.4,87,87,0,0,0-11-4.33c-2.5-.82-5.05-1.52-7.61-2.1l-5.21-1.17a72.31,72.31,0,0,0-10.13-1.47c-3.54-.29-7.09-.27-10.63-.45-3-.15-5.93-.29-8.89-.5l-4.41-.31a69.58,69.58,0,0,1-11.94-1.82,100.86,100.86,0,0,1-18.21-7.54L143,467.22c-3.37-1.71-6.75-3.42-10.2-5a124.54,124.54,0,0,0-37.53-9.92A101.18,101.18,0,0,0,83.09,452a83.6,83.6,0,0,0-12.53,1.32,108.35,108.35,0,0,0-11.8,2.84A63.41,63.41,0,0,0,47,460.74a56.48,56.48,0,0,0-18.19,15.19,41.09,41.09,0,0,0-5.59,9.64,25.05,25.05,0,0,0-1.56,5.65,16.19,16.19,0,0,0-.12,2.61,28.72,28.72,0,0,0,.25,3.82,24.56,24.56,0,0,0,1.53,5.5,34.91,34.91,0,0,0,2.58,5.06,45.76,45.76,0,0,0,7.44,9.42A93.85,93.85,0,0,0,41.88,525c1.59,1.21,3.22,2.33,4.87,3.45l4.2,2.85c1.07.73,2.22,1.35,3.33,2s2.44,1.45,3.65,2.19c1.47.88,3,1.66,4.5,2.48,1.09.6,2.17,1.27,3.29,1.8L70.39,542c1,.47,2,1,3,1.4l5,2,2.44,1c.28.11.56.24.85.33l4.82,1.47,3.85,1.18c1.59.49,3.26.8,4.89,1.18s3.16.82,4.75,1.12l6.72,1.27c4.56.86,9.13,1.74,13.63,2.88a113.42,113.42,0,0,1,22.1,9.08c5,2.57,9.94,5.08,14.79,7.83q3.58,2.13,7,4.56a76.52,76.52,0,0,1,6.94,5.76c1.39,1.27,2.7,2.62,4,4,1.54,1.71,3.07,3.43,4.6,5.14s3.15,3.7,4.72,5.55c2.85,3.35,5.72,6.68,8.55,10.05,1.29,1.55,2.52,3.14,3.84,4.66,1.95,2.24,3.87,4.49,5.92,6.64a45.35,45.35,0,0,0,6.45,5.54,53,53,0,0,0,8.2,4.64c1.49.72,3,1.31,4.57,1.92s3,1.23,4.44,1.85a74.46,74.46,0,0,1,8,3.92,54.77,54.77,0,0,1,9.69,7.47,49.71,49.71,0,0,1,3.53,4,45.44,45.44,0,0,1,3.36,5c.59,1,1.14,2.08,1.66,3.16a27,27,0,0,1,1.45,3.91c.36,1.37.66,2.74.91,4.13a34.69,34.69,0,0,1,.48,5,16.84,16.84,0,0,1-.18,2.13,14.06,14.06,0,0,1-.85,2,16.76,16.76,0,0,1-1.22,1.56,20.18,20.18,0,0,1-2.18,1.73,20.78,20.78,0,0,1-3.81,1.57,28.81,28.81,0,0,1-6.2.76,39.4,39.4,0,0,1-8.45-1,53.75,53.75,0,0,1-11.33-4.79,108.34,108.34,0,0,1-9.2-6.08c-2.52-1.85-4.94-3.82-7.4-5.73L196.2,655c-6.16-4.81-12.28-9.74-18.93-13.87a100.4,100.4,0,0,0-10.54-5.62,97.61,97.61,0,0,0-12-4.77A64.4,64.4,0,0,0,143.18,628a60,60,0,0,0-12.42-.14,89.59,89.59,0,0,0-12,2c-4.23.92-8.42,2.12-12.56,3.42-4.69,1.48-9.29,3.24-13.89,5l-5.74,2.2c-1.88.72-3.72,1.54-5.58,2.31s-4,1.64-6,2.48c-2.67,1.12-5.3,2.31-8,3.37-2.54,1-5.16,1.81-7.78,2.56-1.81.49-3.62,1-5.45,1.36s-3.94.78-5.92,1.11-4.25.71-6.38,1c-2.92.46-5.84.9-8.75,1.41l-5.48.95c-1.18.21-2.35.52-3.52.79-2.91.66-5.79,1.35-8.68,2.09l-4.5,1.16c-1.62.42-3.21.92-4.81,1.39a45.1,45.1,0,0,0-6.21,2.42,40.83,40.83,0,0,0-5,2.86,25.07,25.07,0,0,0-4.28,3.83A30.28,30.28,0,0,0-16,682.12,57.37,57.37,0,0,0-18.81,694,75.23,75.23,0,0,0-19.39,707,61.62,61.62,0,0,0-17.6,719a70.75,70.75,0,0,0,4.05,12.29,68.34,68.34,0,0,0,5.14,9.14,77.94,77.94,0,0,0,6.83,8.94A100.06,100.06,0,0,0,15,764.15c3,2.17,6,4.32,9.11,6.28a93.51,93.51,0,0,0,10.62,5.71,75.78,75.78,0,0,0,10.46,3.76,90.61,90.61,0,0,0,12.08,2.63,67.76,67.76,0,0,0,11.39.62,56.66,56.66,0,0,0,11.24-1.4,74.19,74.19,0,0,0,11-3.6,76.3,76.3,0,0,0,7.34-3.41c2.84-1.52,5.74-3,8.5-4.62l6.4-3.81,2.67-1.55c1-.6,2.06-1.25,3.12-1.81,1.26-.65,2.51-1.31,3.76-2l1.15-.6c.88-.46,1.76-.89,2.64-1.32a15.72,15.72,0,0,1,1.88-.7,29.85,29.85,0,0,1,5.58-.76,43.81,43.81,0,0,1,9.32,1.25c3.77,1.06,7.43,2.43,11.12,3.77,2.62.94,5.19,2,7.78,3,5.35,2.1,10.63,4.39,15.92,6.65A105,105,0,0,0,202,779.36a68.24,68.24,0,0,0,9,1l5.66.21c1.35,0,2.69,0,4,0,2,0,4.06-.16,6.08-.35,2.44-.23,4.84-.64,7.25-1,2.68-.44,5.34-1,8-1.61,3.71-.91,7.41-1.87,11.08-3l3.38-1c1.4-.41,2.77-.89,4.14-1.39a68.31,68.31,0,0,0,9.18-4.48c1.75-1,3.45-2,5.16-3,1.27-.75,2.53-1.52,3.76-2.32q2.37-1.54,4.69-3.16c1.6-1.11,3.2-2.22,4.85-3.25a28.43,28.43,0,0,1,5.07-2.19,33.39,33.39,0,0,1,6.27-1l3.59-.22c1.65,0,3.3,0,4.94.1l3.34.17c1,.05,2,.13,3,.22a44.87,44.87,0,0,1,5.14.88l-.77-.2c1.62.43,3.27.8,4.85,1.34,1.86.62,3.68,1.27,5.5,2,1.48.56,2.94,1.18,4.39,1.83s3,1.54,4.47,2.37c1.79,1,3.57,2.08,5.31,3.19a31.15,31.15,0,0,1,4.62,3.36,12.35,12.35,0,0,1,1.48,2c.33.53.65,1.06,1,1.59,1.07,1.93,2.11,3.88,3.22,5.78,1.26,2.15,2.48,4.34,3.84,6.44,1.2,1.84,2.43,3.66,3.66,5.48.44.65.87,1.31,1.32,1.94a10.6,10.6,0,0,0,1.3,1.46,13.92,13.92,0,0,0,1.75,1.3c1.86,1.25,3.8,2.41,5.7,3.59s3.72,2.38,5.57,3.58,3.65,2.16,5.46,3.28,3.53,2.16,5.33,3.18a38.73,38.73,0,0,1,5.12,3.57,40.11,40.11,0,0,1,3.4,4.57,49.7,49.7,0,0,0,4,5.37,57.46,57.46,0,0,0,4.86,4.76c1.66,1.47,3.44,2.77,5.14,4.17,3.72,3.07,7.56,6,11.51,8.78,1.71,1.2,3.46,2.34,5.21,3.47s3.47,2.29,5.26,3.34c.76.44,1.55.84,2.34,1.23a19.4,19.4,0,0,0,3.68,1.3q2.85.78,5.72,1.5c3.78,1,7.59,1.86,11.42,2.66,2,.41,3.94.87,5.93,1.24l3,.54c.92.17,1.82.42,2.72.65,1.36.41,2.72.82,4.06,1.31a30.06,30.06,0,0,1,3.81,1.9c1.43.84,2.84,1.68,4.22,2.57l4.71,3c1.46.93,2.85,2,4.22,3.05,1.21.93,2.4,1.85,3.51,2.89a43.81,43.81,0,0,1,4.41,5.49,7.29,7.29,0,0,0,2.2,2.48,3.46,3.46,0,0,0,1,.39,4.26,4.26,0,0,0,1,.07,2.31,2.31,0,0,0,.91-.32,3.62,3.62,0,0,0,1-.9,2.75,2.75,0,0,0,.19-.28,2,2,0,0,0,2.13-.69,1.89,1.89,0,0,0,.39-1,1.94,1.94,0,0,0-.76-1.84Zm-4.14,2.05,0,0h0l0,0Zm-.14.14h0Zm0,0,0,0h0l0,0Zm0,0-.05.07h-.08l-.19-.09-.23-.17c-.28-.35-.52-.72-.76-1.09l.84.6c.13.18.27.35.4.54l.07.15Zm0,.09Zm0,0-.06.1.06-.1Zm-.1,0-.22.13.22-.13Zm-.3-.21-.11-.07.11.07Zm-.14-.14-.22-.21.22.21Zm-98.44-82.5,5.95,6.09c2,2.07,4,4.17,6.1,6.17s4.19,4.1,6.37,6,4.36,3.86,6.52,5.83q6.7,6.12,13.38,12.3c.95.88,2,1.68,3,2.51l4.35,3.65c2.31,1.94,4.68,3.81,7,5.71,2,1.66,4.14,3.22,6.23,4.8l4,3c.66.51,1.37,1,2.06,1.42l1.36.91c-1.88-.48-3.78-.83-5.69-1.2-2.44-.48-4.87-1.1-7.3-1.66s-5-1.17-7.45-1.81l-5.68-1.6c-1.16-.33-2.32-.65-3.44-1.08a18.48,18.48,0,0,1-2.65-1.37c-2.32-1.45-4.47-3.2-6.65-4.85-2.39-1.83-4.79-3.64-7.14-5.53-2.57-2.06-5.14-4.1-7.65-6.24-1.1-.93-2.29-1.76-3.38-2.72s-2.23-2-3.34-3c-.57-.57-1.14-1.15-1.67-1.76-.83-1-1.58-2-2.32-3-1.3-1.77-2.45-3.66-3.66-5.49-2.22-3.36-5.55-5.79-8.9-7.93-1.73-1.11-3.37-2.33-5.12-3.42s-3.58-2.23-5.33-3.42-3.63-2.39-5.46-3.56c-1-.66-2.07-1.31-3.09-2a25.44,25.44,0,0,1-2.52-1.72,14.54,14.54,0,0,1-.86-1.2c-.41-.6-.83-1.19-1.25-1.78-1-1.36-2-2.68-3-4a110.85,110.85,0,0,1-6.07-9.41c-.71-1.21-1.41-2.42-2.17-3.6-.49-.76-1-1.53-1.52-2.26a8.32,8.32,0,0,0-1.1-1.12c-.23-.22-.47-.43-.71-.64a22.23,22.23,0,0,0-2.59-1.81q-2-1.21-4-2.38c-2.45-1.43-4.9-2.88-7.4-4.24a64.42,64.42,0,0,0-6.59-3c-1.28-.52-2.56-1-3.85-1.5l-2-.73c-.75-.27-1.55-.46-2.32-.69a63.86,63.86,0,0,0-7.72-1.88c-2.2-.38-4.45-.55-6.68-.79-1.37-.15-2.74-.21-4.11-.31s-3-.08-4.56-.09a43.64,43.64,0,0,0-9.05.78,35.83,35.83,0,0,0-9.11,3.38c-1.85,1-3.7,1.87-5.56,2.8s-3.92,1.77-5.89,2.62c-1.63.7-3.24,1.44-4.86,2.15l-3.29,1.43a82.28,82.28,0,0,1-8.78,3.22q-2.43.67-4.86,1.38c-3.82,1-7.6,2.17-11.45,3.06-2.07.47-4.13.89-6.21,1.29-1.57.29-3.14.55-4.72.77a70.72,70.72,0,0,1-7.83.56l-6.34-.2a68,68,0,0,1-7.53-.81,90.38,90.38,0,0,1-9.21-1.84,100.94,100.94,0,0,1-9.83-3.25c-1.62-.63-3.24-1.29-4.85-2-2.41-1-4.8-2-7.23-3s-4.77-1.91-7.17-2.81-5-2-7.52-2.82c-3.15-1.07-6.29-2.19-9.49-3.11a58.44,58.44,0,0,0-10.87-2.16,42.59,42.59,0,0,0-6.39,0,27.24,27.24,0,0,0-6,1.12,24.48,24.48,0,0,0-4.29,1.64c-.85.42-1.68.89-2.51,1.33l-4.13,2.2c-1.06.56-2.09,1.2-3.13,1.79-1.42.82-2.84,1.63-4.24,2.46l.43-.26-5,2.93c-1.23.72-2.47,1.39-3.73,2.05l-5.86,3.07c-2.12,1.12-4.38,2.05-6.6,3s-4.7,1.77-7.1,2.49a56.6,56.6,0,0,1-12.76,1.75,78.18,78.18,0,0,1-18.33-2.47,87.3,87.3,0,0,1-9.08-3.07,77.26,77.26,0,0,1-9.08-4.48c-4.1-2.42-8-5.17-11.85-8a93.22,93.22,0,0,1-10.32-8.71,80.54,80.54,0,0,1-11-14.13,60.71,60.71,0,0,1-3.05-6.09,56.52,56.52,0,0,1-2.34-6.7c-.66-2.46-1.22-4.93-1.65-7.45a55.6,55.6,0,0,1-.73-8.15,66.35,66.35,0,0,1,1.74-15.06,38.92,38.92,0,0,1,2.89-7.59,31,31,0,0,1,3.37-4.43c.52-.5,1.06-1,1.62-1.42a17.83,17.83,0,0,1,1.77-1.21,47.26,47.26,0,0,1,5.57-2.64c1.88-.74,3.84-1.28,5.79-1.84l8.15-2.15c1.37-.36,2.76-.66,4.14-1s2.53-.65,3.81-.89c2.79-.52,5.57-1.07,8.36-1.55l11.43-2c2-.35,3.95-.72,5.92-1.14s3.87-.94,5.79-1.47a101.86,101.86,0,0,0,12.13-4.12c2.51-1.06,5-2.23,7.49-3.31l5.13-2.19c2.35-1,4.69-2,7.06-3,3.29-1.31,6.57-2.67,9.88-3.91,4.54-1.7,9.1-3.27,13.75-4.61q5.22-1.43,10.54-2.42a66.23,66.23,0,0,1,11.14-1.19,61.88,61.88,0,0,1,6.38.38,48.87,48.87,0,0,1,6.44,1.27A104.2,104.2,0,0,1,173,645.76a138.21,138.21,0,0,1,12.73,8.71c2.23,1.67,4.46,3.34,6.67,5l8.68,6.6c2,1.54,4,3.09,6,4.62a108.65,108.65,0,0,0,10.53,7,59.94,59.94,0,0,0,10.54,4.87,38.84,38.84,0,0,0,12.47,2.08,37.15,37.15,0,0,0,5.16-.33,26.1,26.1,0,0,0,4.84-1.26A18.14,18.14,0,0,0,255,680.8a14.9,14.9,0,0,0,4-4.08,11.57,11.57,0,0,0,1.75-4.25,24.24,24.24,0,0,0,.14-5.25,36.79,36.79,0,0,0-.74-5.23,41.44,41.44,0,0,0-1.66-5.91,35.2,35.2,0,0,0-2.48-5.09c-.88-1.55-1.83-3-2.84-4.49a50.7,50.7,0,0,0-8.27-9,58.05,58.05,0,0,0-13.6-8.64c-2.59-1.23-5.27-2.33-7.92-3.42a66.78,66.78,0,0,1-7.37-3.58,45.39,45.39,0,0,1-7.45-5.63c-1.45-1.49-2.81-3-4.14-4.63-.91-1.09-1.85-2.16-2.74-3.27-1.93-2.43-3.85-4.86-5.8-7.27s-3.82-4.66-5.75-7c-1.67-2-3.28-4.11-5-6.1s-3.62-4.34-5.61-6.35L176,578.19a65.37,65.37,0,0,0-9.15-7.54,128.22,128.22,0,0,0-15.72-8.85c-3.72-1.87-7.44-3.76-11.23-5.52-3.34-1.55-6.75-2.94-10.21-4.21a92,92,0,0,0-11-3.19c-3.52-.82-7.07-1.47-10.61-2.16l-3.56-.69c-1.31-.25-2.65-.45-4-.76l-8-1.95-6.91-2.17c-.56-.18-1.14-.33-1.69-.55l-3.56-1.44c-1.84-.74-3.73-1.42-5.51-2.31l-6.64-3.31-5.79-3.38c-.61-.36-1.2-.76-1.79-1.15l-4.4-2.85c-1.87-1.21-3.63-2.59-5.42-3.91-1-.71-1.93-1.41-2.87-2.16-2.64-2.1-5.15-4.34-7.57-6.69-1.15-1.16-2.25-2.36-3.29-3.62a42.08,42.08,0,0,1-3.36-4.72,35.33,35.33,0,0,1-2.89-6.43,24,24,0,0,1-.55-4.23q0-.33,0-.66c.62-.07,1.25-.08,1.87-.11,1.33-.07,2.64-.36,4-.5,2.68-.29,5.38-.28,8.07-.45,3-.19,6-.52,9-.83,1.49-.15,3-.34,4.46-.5s3-.15,4.46-.18,2.93,0,4.4,0c1.8,0,3.59.15,5.39.25,1.48.09,3,.28,4.43.42s3.16.38,4.72.62c3.23.5,6.48,1,9.68,1.68,1.64.36,3.3.66,4.93,1.08l5.08,1.31q6.11,1.84,12.18,3.77c4,1.26,8,2.37,12,3.47,2.18.6,4.4,1,6.6,1.57,2,.47,4.07.84,6.1,1.26,4.06.84,8.09,1.75,12.12,2.7l5.41,1.48c2,.53,3.87,1.17,5.8,1.77,1.66.51,3.3,1.09,4.94,1.65s3.51,1.17,5.27,1.75c3.39,1.11,6.82,2.15,10.19,3.33l6.1,2.14c2.11.74,4.18,1.63,6.22,2.52a80.34,80.34,0,0,1,7.36,3.7q2.77,1.65,5.42,3.5c2.18,1.52,4.22,3.24,6.25,5,1.59,1.35,3.13,2.76,4.68,4.15,2.45,2.19,4.8,4.46,7.16,6.73,1.77,1.92,3.62,3.79,5.28,5.81l3.6,4.42c.86,1,1.61,2.21,2.41,3.32s1.52,2,2.2,3.08l3.11,4.81c1.38,2.14,2.66,4.36,4,6.55.67,1.24,1.35,2.48,2,3.72.58,1.07,1.21,2.13,1.74,3.23,1.26,2.58,2.59,5.13,3.69,7.79,2.36,5.67,4.76,11.32,7.28,16.92,1.25,2.79,2.46,5.6,3.69,8.4s2.38,5.32,3.59,8q3.38,7.43,7,14.74c1.2,2.46,2.41,4.91,3.62,7.37,1.29,2.62,2.54,5.28,4,7.84s2.91,5.27,4.47,7.85,3.09,5.11,4.68,7.64,3.08,4.89,4.67,7.3,3.1,4.68,4.67,7c3.22,4.75,6.41,9.52,9.74,14.19l5.64,7.9c.66.92,1.39,1.8,2.09,2.69l3.64,4.7c1.77,2.29,3.69,4.49,5.54,6.72s3.8,4.33,5.72,6.47,4.08,4.24,6.13,6.33,4.08,4,6.13,5.94c3.92,3.77,7.72,7.67,11.62,11.45,2.9,2.81,5.81,5.59,8.74,8.37,2.37,2.24,4.66,4.55,7,6.8l4.79,4.58c1.41,1.35,2.88,2.63,4.32,4,2.51,2.3,4.92,4.72,7.35,7.11q5.85,6.1,11.76,12.15Zm45.76,53.77-.38-.1.38.1Zm-2.78,3.43-.16,0,.16,0ZM414.25,665.37c0,1.36-.11,2.73-.17,4.09-.07,1.54-.13,3.08-.19,4.61-.06,1.36-.28,2.74-.41,4.1s-.25,2.76-.41,4.14c-.34,2.77-.69,5.55-1,8.32-.68,5.82-1.4,11.63-1.9,17.47-.25,2.92-.51,5.84-.66,8.76s-.29,5.91-.41,8.87-.21,6.08-.25,9.13c0,1.45,0,2.91,0,4.36,0,1.61.08,3.22.13,4.82,0,1.41.07,2.83.11,4.25,0,.43.09.88.13,1.32.1,1.14.21,2.29.32,3.43s.16,2.51.35,3.75c.27,1.72.55,3.44.82,5.16.46,2.92,1,5.83,1.52,8.74s1.23,5.74,1.89,8.6c.24,1,.51,2,.79,3,.46,1.67.86,3.37,1.4,5,.86,2.63,1.63,5.29,2.68,7.85l1.77,4.32a57.84,57.84,0,0,0,2.66,5.42c1,1.94,2.21,3.81,3.39,5.66.82,1.27,1.72,2.49,2.58,3.74.71,1,1.45,2,2.21,3,.19.24.38.5.56.75q-3.27-3-6.6-6c-1.95-1.74-4-3.43-5.85-5.24l-6-5.71q-5.73-5.88-11.49-11.76c-2.05-2.09-4.11-4.17-6.13-6.29s-4-4.28-6.11-6.34-4.14-4.13-6.29-6.11-4.42-4.06-6.58-6.14c-4.42-4.26-8.79-8.59-13.23-12.83-2.2-2.1-4.37-4.23-6.54-6.36-5-5-10-10.09-15.1-15.08-1-1-1.93-2-2.9-3s-2-2-3-3.1l-3-3.45c-.9-1-1.85-2-2.72-3.12l-5.83-7.2c-.71-.88-1.37-1.81-2.06-2.72-1.2-1.58-2.4-3.15-3.59-4.73-.49-.64-.95-1.31-1.41-2l-3.61-5.16c-1.57-2.23-3.09-4.49-4.62-6.75-3.09-4.54-6.12-9.13-9.12-13.73q-1.5-2.32-3-4.63c-1.12-1.74-2.17-3.53-3.26-5.29-1.79-2.9-3.5-5.83-5.24-8.76-.66-1.23-1.33-2.46-2-3.69s-1.29-2.26-1.86-3.43q-1.85-3.83-3.71-7.66c-2.58-5.35-5.2-10.69-7.66-16.1s-5-11.09-7.42-16.68c-1.17-2.71-2.39-5.4-3.6-8.1-1.12-2.52-2.18-5.07-3.26-7.61-.52-1.22-1-2.45-1.53-3.68s-.92-2.37-1.48-3.5c-1.24-2.56-2.44-5.16-3.81-7.66-1.47-2.68-2.92-5.35-4.5-8l-2.48-4.11c-.75-1.25-1.59-2.45-2.39-3.67-.58-.9-1.14-1.82-1.77-2.68l-3.45-4.72c-1.58-2.16-3.37-4.17-5.07-6.23-.32-.38-.69-.73-1-1.09l-2.06-2.19c-.84-.89-1.67-1.8-2.57-2.64-2.09-2-4.16-4-6.32-5.87a143.71,143.71,0,0,0-11.71-9.61,76.66,76.66,0,0,0-9.48-5.61,84.12,84.12,0,0,0-10.57-4.51c-2.6-.89-5.19-1.82-7.81-2.66l-9-2.9c-2.88-.92-5.74-1.88-8.6-2.84-1.09-.37-2.21-.68-3.32-1-1.28-.39-2.56-.81-3.86-1.16-3-.81-6.05-1.62-9.1-2.34s-6-1.33-9-2l-6.27-1.3c-2-.42-4-.94-6-1.42-2.56-.71-5.13-1.41-7.67-2.19-3-.92-6-1.87-9-2.83-1-.33-2.07-.65-3.11-1-1.55-.47-3.09-1-4.65-1.39l-4.9-1.28c-1.36-.35-2.74-.63-4.11-.94-2.63-.58-5.27-1.1-7.93-1.52-2.83-.45-5.66-.93-8.51-1.2s-5.76-.54-8.66-.57-5.76-.07-8.62.18c-3.15.27-6.27.78-9.41,1.14-2.89.34-5.76.76-8.66.94-1.29.08-2.59.13-3.87.26s-2.64.3-4,.52c-.66.1-1.32.16-2,.2A33.85,33.85,0,0,1,33,486.3,46.28,46.28,0,0,1,39,478.55a55.6,55.6,0,0,1,9.33-7.33,57.58,57.58,0,0,1,6-3,74.41,74.41,0,0,1,7.72-2.59,97,97,0,0,1,23-3.43,105.85,105.85,0,0,1,13,.84,118.78,118.78,0,0,1,14.58,2.84,129.85,129.85,0,0,1,17.28,6.1c3.85,1.66,7.58,3.59,11.35,5.43,7.33,3.6,14.62,7.27,22.43,9.72a62.69,62.69,0,0,0,17.52,2.73L188,490c2.24,0,4.48,0,6.73,0,2.49,0,5-.11,7.46-.17,3,0,5.91.09,8.86.37q2.72.27,5.38.72l4.63.79c2,.34,4,.82,5.9,1.33a73.65,73.65,0,0,1,16.52,6.5,58.54,58.54,0,0,1,10.29,7.91,64.37,64.37,0,0,1,9.13,11.73,101.76,101.76,0,0,1,7.65,16.51c1,2.7,2,5.39,2.86,8.12q2.85,8.71,5.82,17.37c3.74,10.93,6.83,22,10.36,33,.83,2.59,1.6,5.2,2.53,7.76q1.74,4.85,3.5,9.69c1.94,5.39,3.89,10.76,5.9,16.12l1.8,4.78c.33.87.72,1.71,1.09,2.56,1.17,2.7,2.3,5.41,3.53,8.09q2.1,4.59,4.21,9.18c1.25,2.73,2.64,5.41,4,8.11,1.24,2.54,2.67,5,4,7.48s2.72,4.81,4.1,7.21c.66,1.13,1.28,2.29,2,3.39,1,1.54,1.93,3.07,2.95,4.56a53,53,0,0,0,3.94,5,42.32,42.32,0,0,0,7.83,6.93,33.84,33.84,0,0,0,4.52,2.52,26.32,26.32,0,0,0,5.92,1.88,20.39,20.39,0,0,0,5.17.38,18.68,18.68,0,0,0,4.87-.77,19.91,19.91,0,0,0,2.41-.91,13.73,13.73,0,0,0,2-1.2,9.67,9.67,0,0,0,1.74-1.58,14.33,14.33,0,0,0,1.91-2.61,21,21,0,0,0,1.18-2.43,16.35,16.35,0,0,0,.74-2.5,33.72,33.72,0,0,0,.86-5.29,30.26,30.26,0,0,0-.07-5.3,23,23,0,0,0-1.66-6.37,29.85,29.85,0,0,0-5.67-8.61,61.39,61.39,0,0,0-6-5.53c-2.82-2.38-5.66-4.76-8.32-7.32l-.15-.15c-2.25-2.29-4.31-4.7-6.32-7.19a78.53,78.53,0,0,1-5.94-8.12,79.56,79.56,0,0,1-4-8.33,92.87,92.87,0,0,1-3.33-9.31,61.79,61.79,0,0,1-1.31-6.33A45.66,45.66,0,0,1,329,604a96.13,96.13,0,0,1,1-12.46c.28-2,.51-4,.88-6l.81-4.29c.12-.61.22-1.23.37-1.84l1.65-6.48c.64-2.26,1.35-4.5,2-6.75s1.15-4.42,1.65-6.65a57.74,57.74,0,0,0,1.13-6.8,21.76,21.76,0,0,0,.07-2.68,24.07,24.07,0,0,0-.49-3.58,101.14,101.14,0,0,0-3.88-13.33q-1.73-4.8-3.37-9.62c-1.32-3.82-2.73-7.62-3.87-11.5a72.26,72.26,0,0,1-2.17-16.17c0-1.26.07-2.52.18-3.79a27.16,27.16,0,0,1,.64-3.8,25.27,25.27,0,0,1,1.91-4.77,18.38,18.38,0,0,1,1.74-2.19,20.32,20.32,0,0,1,1.88-1.44,17.9,17.9,0,0,1,3-1.27,24.6,24.6,0,0,1,4.43-.61,26.49,26.49,0,0,1,5.46.75,39.12,39.12,0,0,1,7.88,3.3,60.69,60.69,0,0,1,10.15,7.77,32.29,32.29,0,0,1,4.2,5.27,38.4,38.4,0,0,1,2.36,5c.3.77.58,1.54.85,2.32.48,1.37,1,2.74,1.44,4.12,1,2.88,2.05,5.74,3.11,8.6.92,2.47,1.89,4.93,2.81,7.39q1.7,4.5,3.36,9c.88,2.39,1.78,4.77,2.74,7.13.52,1.3,1,2.61,1.57,3.88l2.19,4.89c1,2.26,2.11,4.48,3.08,6.76q1.89,4.47,3.71,9,2.28,5.65,4.78,11.22c1,2.13,1.92,4.27,2.91,6.39l1.89,4.08a62.15,62.15,0,0,1,3.11,8.32c.52,2,1,4,1.43,6,.25,1.1.52,2.2.73,3.31q.81,4.33,1.54,8.69c.41,2.45.78,4.9,1.17,7.36.18,1.15.31,2.31.47,3.46s.36,2.39.48,3.59c.26,2.49.54,5,.77,7.48s.54,5.24.71,7.86.4,5.36.49,8,.19,5.47.29,8.2,0,5.52,0,8.28Zm-89.05,3c-.08-.14-.16-.29-.25-.43.08.13.16.26.23.39l0,0ZM107.91,757.5c.24-.13.47-.27.7-.41-.23.14-.46.28-.7.41ZM432,845.36l-.17-.09.29.16-.12-.07Zm.12.07.2.12-.2-.12Z" transform="translate(167.48 166.72)"/><path class="cls-6" d="M97.47,121.2a174,174,0,0,0-39.09,4.86,273.29,273.29,0,0,0-41.2,13.47c-7.5,3.06-14.93,6.35-21.22,9.16-3.32,1.49-6.74,3-10.07,4.65-1.91.93-3.81,1.89-5.71,2.84-1.42.72-2.85,1.44-4.28,2.14a7.93,7.93,0,0,0-3.78,4.93,8.29,8.29,0,0,0,.82,6.35,8.34,8.34,0,0,0,4.93,3.78,7.72,7.72,0,0,0,2.07.29,9.65,9.65,0,0,0,4.28-1.12q2.08-1,4.17-2.07l.06,224.59-.18-.17c-1-.82-2.14-1.68-3.15-2.6-1.42-1.28-2.85-2.66-4.49-4.33-2.52-2.57-4.91-5.32-7.33-8.14a4.67,4.67,0,0,0-3.58-1.53,5.51,5.51,0,0,0-3.85,1.53,5.29,5.29,0,0,0-1.54,3.72,5.52,5.52,0,0,0,1.53,3.71A129.4,129.4,0,0,0-25,396.67a102.17,102.17,0,0,0,9.51,7.72l.29.21c3,2.33,5.89,4.79,8.72,7.16L-4.94,413c3.3,2.77,6.81,5.36,10.2,7.87l.94.69c2.28,1.79,4.53,3.61,6.77,5.43s4.33,3.52,6.53,5.24,4.59,3.52,7.71,5.78c1.53,1.11,3.06,2.22,4.61,3.29A26.68,26.68,0,0,0,36.46,444l2.1.88,1.48.61a36.64,36.64,0,0,0,9.81,2.92,23.87,23.87,0,0,0,2.72.15,51.79,51.79,0,0,0,7.37-.68c3.3-.48,6.66-1,10.26-1.71,2.15-.41,4.35-.87,6.53-1.38a123,123,0,0,0,12.73-3.86c2.32-.82,4.67-1.71,6.94-2.57l3.07-1.16c6.26-2.36,12.36-4.93,18.06-7.36,2.73-1.16,5.26-2.29,7.74-3.46l2-.93c2-.93,4-1.88,6-2.91l.12-.06,9.36-4.94c.75-.4,1.49-.88,2.2-1.34l1.11-.71,3.64-2.25,2.24-1.38c1.92-1.19,3.82-2.51,5.65-3.78l1.83-1.28c2.46-1.68,4.95-3.34,7.43-5,5.34-3.56,10.29-6.59,15.12-9.27,5.92-3.28,11.87-6.64,18.2-10.27,1.85-1.07,3.68-2.17,5.51-3.27l2.71-1.63c1.74-1,3.58-2.18,6-3.71a106,106,0,0,0,11.21-8.33,76,76,0,0,0,9-9.09,80.22,80.22,0,0,0,6.88-9.3l2.95-4.71c.25-.4.51-.79.77-1.18.52-.79,1.06-1.6,1.5-2.44,1.17-2.22,2.32-4.46,3.47-6.7l1.58-3.07c.46-.9.85-1.83,1.23-2.74l.2-.5.57-1.36,1.91-4.59,1-2.29.95-2.29a96,96,0,0,0,3.25-9.7l.18-.61a170.24,170.24,0,0,0,5.34-27.33c.58-4.55,1-9,1.16-13.34a84.76,84.76,0,0,0-.68-14.65,71.62,71.62,0,0,0-8.3-25.43,62.74,62.74,0,0,0-16.87-18.93c-2.28-1.76-4.59-3.49-6.9-5.21-1.3-1-2.61-1.95-3.9-2.93l-.6-.45-3.8-3.26L222.55,190c-.55-.47-1.06-1-1.56-1.52l-.72-.73-4.84-4.77-2.79-2.76c-3.07-3.07-6.26-6.23-9.53-9.21-4.57-4.15-9.5-8.52-15.52-13.73-5.81-5.05-11.36-9.44-16.94-13.43a120.75,120.75,0,0,0-24-13.28,118.13,118.13,0,0,0-19.71-6.23,138.19,138.19,0,0,0-23-2.94c-2.15-.1-4.33-.16-6.49-.16Z" transform="translate(167.48 166.72)"/><path class="cls-7" d="M40.53,241a9.61,9.61,0,1,0,9.61-9.61A9.7,9.7,0,0,0,40.53,241Z" transform="translate(167.48 166.72)"/><path class="cls-7" d="M113.7,186.7a9.61,9.61,0,1,0,9.61-9.61,9.71,9.71,0,0,0-9.61,9.61Z" transform="translate(167.48 166.72)"/><path class="cls-7" d="M163.19,314.53a11.87,11.87,0,1,0,11.86-11.86,12,12,0,0,0-11.86,11.86Z" transform="translate(167.48 166.72)"/><path class="cls-7" d="M92.93,412.77a9.61,9.61,0,1,0,9.61-9.62,9.7,9.7,0,0,0-9.61,9.62Z" transform="translate(167.48 166.72)"/><path class="cls-7" d="M35.1,363.49a9.61,9.61,0,1,0,9.61-9.61,9.7,9.7,0,0,0-9.61,9.61Z" transform="translate(167.48 166.72)"/><path class="cls-7" d="M82.07,300a9.61,9.61,0,1,0,9.61-9.62A9.71,9.71,0,0,0,82.07,300Z" transform="translate(167.48 166.72)"/><path class="cls-7" d="M142.24,244.52a9.61,9.61,0,1,0,9.61-9.61,9.7,9.7,0,0,0-9.61,9.61Z" transform="translate(167.48 166.72)"/><path class="cls-7" d="M201.25,226a9.61,9.61,0,1,0,9.61-9.61,9.7,9.7,0,0,0-9.61,9.61Z" transform="translate(167.48 166.72)"/><path class="cls-7" d="M134.37,372.47a9.61,9.61,0,1,0,9.61-9.61,9.71,9.71,0,0,0-9.61,9.61Z" transform="translate(167.48 166.72)"/><path class="cls-7" d="M33.88,169.33a9.61,9.61,0,1,0,9.61-9.61,9.71,9.71,0,0,0-9.61,9.61Z" transform="translate(167.48 166.72)"/><path class="cls-7" d="M-23.7,238a9.7,9.7,0,0,0,9.61,9.61A9.71,9.71,0,0,0-4.48,238a9.7,9.7,0,0,0-9.61-9.61A9.7,9.7,0,0,0-23.7,238Z" transform="translate(167.48 166.72)"/><path class="cls-7" d="M-22.49,330.26a9.7,9.7,0,0,0,9.61,9.61,9.7,9.7,0,0,0,9.61-9.61,9.7,9.7,0,0,0-9.61-9.61,9.71,9.71,0,0,0-9.61,9.61Z" transform="translate(167.48 166.72)"/><path class="cls-7" d="M85.71,217.06a5.11,5.11,0,1,0,5.1-5.11,5.16,5.16,0,0,0-5.1,5.11Z" transform="translate(167.48 166.72)"/><path class="cls-7" d="M74.54,171a5.11,5.11,0,1,0,5.1-5.11,5.16,5.16,0,0,0-5.1,5.11Z" transform="translate(167.48 166.72)"/><path class="cls-7" d="M-6.92,220.81a5.16,5.16,0,0,0,5.11,5.11,5.16,5.16,0,0,0,5.11-5.11,5.16,5.16,0,0,0-5.11-5.1,5.16,5.16,0,0,0-5.11,5.1Z" transform="translate(167.48 166.72)"/><path class="cls-7" d="M24.47,290.15a5.11,5.11,0,1,0,5.1-5.11,5.15,5.15,0,0,0-5.1,5.11Z" transform="translate(167.48 166.72)"/><path class="cls-7" d="M97.54,343.88a5.11,5.11,0,1,0,5.1-5.11,5.16,5.16,0,0,0-5.1,5.11Z" transform="translate(167.48 166.72)"/><path class="cls-7" d="M36.09,427.74a5.11,5.11,0,1,0,5.11-5.11,5.15,5.15,0,0,0-5.11,5.11Z" transform="translate(167.48 166.72)"/><path class="cls-7" d="M144.2,285.84a5.11,5.11,0,1,0,5.11-5.11,5.16,5.16,0,0,0-5.11,5.11Z" transform="translate(167.48 166.72)"/><path class="cls-7" d="M221.55,274.65a5.11,5.11,0,1,0,5.1-5.11,5.15,5.15,0,0,0-5.1,5.11Z" transform="translate(167.48 166.72)"/><path class="cls-7" d="M198.44,357.18a5.11,5.11,0,1,0,5.11-5.11,5.16,5.16,0,0,0-5.11,5.11Z" transform="translate(167.48 166.72)"/><path class="cls-7" d="M173.84,182.71a6.3,6.3,0,1,0,6.29-6.3,6.35,6.35,0,0,0-6.29,6.3Z" transform="translate(167.48 166.72)"/></g></g></g></svg>