<svg xmlns="http://www.w3.org/2000/svg" xmlns:xlink="http://www.w3.org/1999/xlink" viewBox="0 0 1128.43 1142.09"><defs><style>.cls-1{fill:none;}.cls-2{clip-path:url(#clip-path);}.cls-3{fill:#ffcb8a;}.cls-4{fill:#ffb5a7;}.cls-5{fill:#16401b;}.cls-6{fill:#f7e1d3;}.cls-7{fill:#414f41;}.cls-8{font-size:12px;font-family:MyriadPro-Regular, Myriad Pro;}</style><clipPath id="clip-path" transform="translate(531.21 166.72)"><rect class="cls-1" width="470.63" height="836.67"/></clipPath></defs><g id="Layer_2" data-name="Layer 2"><g id="ëÎÓÈ_1" data-name="ëÎÓÈ 1"><g class="cls-2"><rect class="cls-3" x="531.21" y="166.72" width="470.63" height="836.67"/><path class="cls-4" d="M199.71-166.72c-1,0-2,0-3,0h-3.47c-1.79,0-3.63,0-5.44.07l-9.21.34-2.11.07c-1.5,0-3,.08-4.55.19l-2.47.18-7.36.55-2.59.19-2.41.18-.55,0c-.43,0-.86.05-1.29.11l-8.93,1.12-8.94,1.12c-1.67.22-3.36.55-5,.88l-1.65.33-5.63,1.08-5.65,1.09-.21,0c-1.33.26-2.7.52-4,.86l-.48.12-19.16,4.9c-1,.26-2.11.57-3.13.86l-.85.24-6.1,1.74L80.66-149l-4.47,1.27-4.31,1.22c-.94.27-1.89.59-2.8.89l-1.07.35-19.9,6.48c-1.12.37-2.23.8-3.3,1.21l-.41.16-10.62,4.1L30-131.85l-3.81,1.47c-1.28.5-2.55,1.07-3.79,1.62l-1.78.78-5.31,2.3L9.9-123.35l-1.53.65c-1.1.47-2.24,1-3.34,1.47l-7.73,3.67q-11.55,5.48-23.1,11c-51.12,24.35-99.26,13.33-126.42,77.77C-168.5,9.8-168,53.14-167.17,95q1.66,87.76,3.32,175.51c.4,21.1.89,42.66,8.14,62.49s22.64,37.94,43.22,42.65c34.36,7.87,64.7-22.38,86.2-50.32C1.94,288.65,23.82,255.89,61,228.54l12.67-9.31,1.35-1c1.3-1,2.69-1.87,4-2.74l1.51-1c.73-.48,1.45-1,2.17-1.47,1.44-1,2.93-2,4.43-2.93l3.57-2.24c3.19-2,6.49-4.08,9.79-6,4.61-2.72,9.84-5.8,15.07-8.76,4.45-2.53,9.2-5.2,15.42-8.67,3.89-2.17,7.88-4.3,11.74-6.35l3.12-1.67c1.47-.78,3-1.53,4.45-2.25l.79-.4,8.85-4.38c1.49-.74,3-1.54,4.42-2.31l2.18-1.16,2-1c1.43-.73,2.91-1.49,4.32-2.31l13.64-7.87.34-.2,3.61-2.09,5.8-3.34c1.29-.75,2.57-1.56,3.8-2.34l1.22-.77,4.3-2.7,4.3-2.7c1.24-.78,2.48-1.6,3.68-2.39l1.64-1.09,4.16-2.72,3.84-2.53c1.38-.9,2.82-1.76,4.22-2.59l2-1.19c4.36-2.66,9.1-5.51,14.93-9,3.63-2.15,7.38-4.21,11-6.21l2.53-1.39c1.73-.95,3.46-2,5.14-2.95l2.56-1.5c1.66-1,3.28-2,4.85-3l1.56-1,1.08-.69,1.77-1.15c.73-.47,1.44-1,2.13-1.53l1.09-.81.82-.59c1.9-1.39,3.87-2.82,5.71-4.35l1-.85c1.73-1.43,3.51-2.91,5.21-4.42l1.91-1.69,1.9-1.69c.58-.52,1.13-1.09,1.66-1.64l.64-.66,1.18-1.2,2.33-2.36c.49-.49,1-1,1.41-1.55l.54-.61,1.41-1.6c1.23-1.4,2.5-2.84,3.81-4.21l6.21-6.49c1.31-1.37,2.69-2.72,4-4l2.09-2.06c.45-.45.9-.94,1.32-1.41.2-.23.4-.45.61-.67l3.73-4c1.26-1.37,2.48-2.81,3.67-4.21.54-.65,1.09-1.29,1.64-1.93,1.24-1.45,2.47-3,3.65-4.43.52-.64,1-1.29,1.57-1.93,1.29-1.58,2.51-3.27,3.69-4.9l1.37-1.9c1.26-1.71,2.47-3.49,3.64-5.22l.9-1.32C347,25,348.32,23,350.12,20.44c2.34-3.33,4.77-6.67,7.11-9.91l1.95-2.69,7.43-10.29c2.07-2.87,4.23-5.74,6.14-8.28l1.53-1.83q1.62-1.95,3.23-3.91L379-18.29l1.47-1.82c.21-.27.42-.53.64-.79.65-.8,1.33-1.62,1.92-2.48l1.24-1.76c1.12-1.6,2.28-3.25,3.34-4.92l1.1-1.74c1.05-1.66,2.11-3.33,3.14-5l.76-1.24,2-3.26c1.13-1.84,2.26-3.87,3.54-6.39.82-1.61,1.52-3.3,2.21-4.94l.26-.64c.65-1.54,1.26-3.21,1.92-5.24a47.14,47.14,0,0,0,2.33-12.17,32.16,32.16,0,0,0-.4-6.27,32.81,32.81,0,0,0-1.18-5.1,25.21,25.21,0,0,0-1.24-3c-.36-.78-.74-1.55-1.17-2.33a31.81,31.81,0,0,0-3.81-5.14l-.24-.28a52.91,52.91,0,0,0-4.73-4.74l-.53-.49c-.74-.68-1.5-1.38-2.3-2l-2.9-2.31-.59-.46c-1.08-.86-2.23-1.66-3.35-2.44l-1.12-.79c-.89-.63-1.79-1.2-2.57-1.69l-1.07-.67c-.77-.49-1.54-1-2.32-1.44-5.49-3.25-10-6-14.18-8.57-2.27-1.41-4.65-2.85-7.27-4.41-2.07-1.23-4.2-2.42-6.26-3.58l-1.12-.63c-4.81-2.71-9.57-5.67-14-8.46-1.67-1-3.44-2-5.15-2.91l-1.83-1a116,116,0,0,0-16.09-7.2c-2.56-.93-5.22-1.73-7.79-2.49l-2.29-.69c-1.77-.54-3.59-1.05-5.34-1.54l-2.7-.77c-5.2-1.49-10.41-2.77-15.3-4-5.3-1.3-10.07-2.35-14.56-3.24l-9.18-1.8c-1.86-.36-3.77-.68-5.61-1l-2.89-.49c-3.85-.68-7.78-1.23-11.58-1.76l-3.94-.56c-2-.29-4.12-.47-6.14-.63l-2.53-.22-2.51-.23-2.58-.24-.46-.05c-.48,0-1-.09-1.47-.11l-10.29-.27C201.4-166.71,200.55-166.72,199.71-166.72Z" transform="translate(531.21 166.72)"/><path class="cls-4" d="M590.13,733.77a35.35,35.35,0,0,0-5.33-26.37C489.32,686.72,387,698.82,299,741.21c-3.61,1.74-7.28,3.59-10,6.53-3.67,4-5.18,9.43-6.48,14.68a511.33,511.33,0,0,0-10.62,189.85c.62,4.68,1.57,9.83,5.3,12.72,3.23,2.5,7.66,2.59,11.75,2.57,33.92-.16,65.47,3.41,97.17-8.31l4.92-1.81c.94-.35,1.9-.67,2.84-1l1.51-.5c3.21-1.08,6.53-2.2,9.76-3.51,1.75-.7,3.53-1.5,5.31-2.38,1.45-.72,3-1.5,4.47-2.4l.15-.1,4.59-2.82c1-.64,2.07-1.33,3-2l1.26-.84c.84-.55,1.71-1.12,2.53-1.72l1.56-1.13c1.87-1.35,3.73-2.69,5.58-4.06l1.09-.79c.87-.63,1.77-1.29,2.64-2l4.27-3.3c2-1.58,4.11-3.33,6.16-5.22,2.44-2.23,4.72-4.7,7-7.24l.95-1c3.71-4.07,7.54-8.27,11.16-12.53q3-3.51,6-7l3.27-3.77c.62-.71,1.28-1.41,1.93-2.08l.9-1,.94-1c.66-.73,1.35-1.48,2.05-2.19l1.18-1.19,2.32-2.36,6.2-6.3,1.71-1.72,1.71-1.73c.54-.55,1.11-1.08,1.67-1.6l.8-.75,1.58-1.51c1.51-1.46,3.08-3,4.7-4.36l2.42-2.1,2.5-2.15.64-.56c.61-.53,1.21-1,1.83-1.56l1.26-1,6.37-5.17,4.91-3.48,2.69-1.9c1.67-1.19,3.4-2.37,5.07-3.51l2.54-1.74c1.92-1.32,3.94-2.79,6.56-4.78a106.32,106.32,0,0,0,10-8.42,53.52,53.52,0,0,0,4-4.38c1.42-1.74,2.84-3.63,4.24-5.62,1.21-1.73,2.33-3.53,3.37-5.22l.38-.62c.62-1,1.26-2.05,1.84-3.1l2.65-4.8,2.66-4.81.32-.57c.27-.47.54-1,.78-1.45l2.06-4.22,1.08-2.21,3.35-6.84c1-2,1.89-4,2.79-5.94.46-1,.93-2,1.4-3,1.36-2.91,2.62-5.93,3.83-8.84l.75-1.78,0-.1.08-.21.1-.22-.15.32.85-2c1.27-3,2.59-6.09,3.76-9.19.55-1.44,1.06-2.93,1.56-4.37l.51-1.48c.61-1.76,1.32-3.84,2-5.91a52.52,52.52,0,0,0,2.39-12.07,47.7,47.7,0,0,0-.13-6.27c-.07-.93-.16-2-.29-3.12-.1-.93-.27-1.86-.43-2.75l-.16-.86a3.66,3.66,0,0,0-1.73-2.26,3.82,3.82,0,0,0-1.91-.51,3.66,3.66,0,0,0-1,.13,3.8,3.8,0,0,0-2.25,1.73l-.38.9a3.81,3.81,0,0,0,0,2l.18,1c.07.38.14.76.2,1.14a49.43,49.43,0,0,1,.2,10.53c-.19,1.24-.44,2.5-.76,3.83H350.47V970.58l.22-.06a55.48,55.48,0,0,1-6.33,1.53l-.36,0c-1.47.18-3,.36-4.5.47a1.34,1.34,0,0,0-.35,0,1.49,1.49,0,0,0-.36,0,1.42,1.42,0,0,0-1,1.72l0,.07a1.39,1.39,0,0,0,1.28,1c1.21-.08,2.35-.26,3.47-.44l1.18-.18c.72-.11,1.36-.22,1.95-.34s1.06-.25,1.57-.39l.52-.14c1-.27,2-.59,2.95-.89l1.11-.36,3.51-1.11,1.17-.37c1.68-.53,3.39-1.12,5.12-1.74" transform="translate(531.21 166.72)"/><path class="cls-5" d="M485.42,836.66c-5.28-4.36-10.52-8.77-15.77-13.17-3.91-3.28-7.75-6.65-11.61-10-1.46-1.26-2.87-2.56-4.29-3.86-1.73-1.61-3.49-3.18-5.19-4.84q-5.87-5.7-11.66-11.48l-4.27-4.88c-.49-.55-.91-1.16-1.36-1.75l-2.2-2.93c-.58-.77-1.08-1.63-1.62-2.45s-1-1.43-1.42-2.18c-.67-1.13-1.34-2.25-2-3.38-.82-1.37-1.57-2.76-2.3-4.18a57,57,0,0,1-3-7.11l-1.47-4.38c-.28-.83-.49-1.67-.7-2.51-.35-1.33-.69-2.66-1-4-.4-1.85-.79-3.7-1.19-5.56s-.62-3.62-.93-5.43c-.26-1.51-.46-3-.65-4.55s-.43-3.24-.6-4.87c-.23-2.27-.47-4.55-.7-6.83,0-.4-.05-.8-.07-1.21-.06-1.33-.11-2.66-.17-4l-.12-2.79c0-.59,0-1.18,0-1.76,0-2,.07-3.9.11-5.85.29-5.18.6-10.34,1.08-15.5.25-2.61.43-5.23.76-7.83s.64-5.29,1-7.93q1.2-8.15,2.5-16.27c.44-2.75.85-5.49,1.23-8.24.18-1.25.35-2.5.52-3.75.05-.38.06-.78.09-1.16.09-1,.17-2,.26-3.07.1-1.25.21-2.5.31-3.75s.12-2.83.18-4.23.11-2.5.16-3.75c.06-1.43,0-2.86.05-4.28q0-4,0-8c0-2.72-.14-5.42-.26-8.14s-.27-5.56-.43-8.33c-.15-2.54-.4-5.07-.63-7.59s-.52-4.9-.82-7.34c-.34-2.71-.71-5.4-1.11-8.1-.21-1.42-.52-2.82-.77-4.22a72.23,72.23,0,0,0-2.15-8.85c-.69-2.17-1.61-4.27-2.5-6.36-.53-1.26-1.07-2.51-1.58-3.77-2-4.93-4-9.87-5.84-14.88-1-2.7-2-5.39-3-8.07-.82-2.19-1.77-4.31-2.61-6.48-.47-1.22-1-2.42-1.4-3.65q-.79-2.26-1.57-4.53c-.77-2.21-1.44-4.47-2.12-6.71-1.52-5-3.12-10-4.56-15-.39-1.34-.77-2.69-1.16-4s-.74-2.9-1.11-4.34c-.32-1.24-.61-2.48-.92-3.73-.25-1.05-.53-2.1-.82-3.14a29,29,0,0,0-2.2-5.34,34.67,34.67,0,0,0-6-7.88c-1.18-1.24-2.45-2.39-3.73-3.51a36.9,36.9,0,0,0-4.38-3.2,29.49,29.49,0,0,0-8.81-3.73,19.94,19.94,0,0,0-4.56-.45,18.7,18.7,0,0,0-5,.77,14.85,14.85,0,0,0-4.27,2.13,11.11,11.11,0,0,0-1.82,1.61,15.85,15.85,0,0,0-1.59,1.87,20.74,20.74,0,0,0-2.28,4.29,23.31,23.31,0,0,0-.83,2.57,33.5,33.5,0,0,0-.83,3.7,41.84,41.84,0,0,0-.41,5.48c-.06,1.76,0,3.53.11,5.28A59.49,59.49,0,0,0,339,500.55c.67,2.73,1.57,5.41,2.42,8.08.62,2,1.25,4,1.9,6,1.61,4.84,3.35,9.64,4.52,14.63a30.38,30.38,0,0,1,.72,4.65,38.15,38.15,0,0,1-.83,5.71c-.42,2-.9,3.92-1.45,5.85-.83,2.69-1.77,5.34-2.53,8q-.68,2.35-1.33,4.71c-.69,2.45-1.21,4.95-1.77,7.43-.22,1-.38,2-.56,3-.25,1.33-.49,2.66-.74,4a75.56,75.56,0,0,0-1.17,11.13A52.07,52.07,0,0,0,339,594.1a82.77,82.77,0,0,0,2.55,9.94,64.92,64.92,0,0,0,3.76,9.72,80.9,80.9,0,0,0,6.35,10.2,59.3,59.3,0,0,0,5.39,6.61c1.26,1.38,2.61,2.64,4,3.92,2.37,2.26,4.87,4.35,7.08,6.79a29.65,29.65,0,0,1,3.48,5.08,24.53,24.53,0,0,1,1.38,3.73c.15.74.27,1.48.37,2.24a19.58,19.58,0,0,1,.09,2.42c0,.93-.12,1.85-.23,2.78a26.57,26.57,0,0,1-.76,3.65,17.5,17.5,0,0,1-1.15,2.66,16,16,0,0,1-1.18,1.53,12.57,12.57,0,0,1-1.34,1.07,14.2,14.2,0,0,1-2.23.89,16.24,16.24,0,0,1-3.74.35,21.3,21.3,0,0,1-4.34-.81,25.5,25.5,0,0,1-4.76-2.38,34.86,34.86,0,0,1-6-5.4,50.11,50.11,0,0,1-3.82-5.18c-.59-.91-1.13-1.87-1.67-2.82-.41-.72-.84-1.44-1.21-2.19l.07.15-3.53-7v0l0,0-.18-.37c-.43-.85-.82-1.73-1.23-2.6l-2.3-4.85c-.31-.66-.59-1.34-.87-2q-1.12-2.64-2.23-5.29c-.95-2.24-1.82-4.51-2.71-6.78s-1.73-4.44-2.55-6.68c-.89-2.41-1.86-4.79-2.63-7.25q-1.38-4.41-2.77-8.83c-.86-2.76-1.66-5.54-2.49-8.31q-1-3.44-2-6.85c-.68-2.3-1.38-4.59-2-6.91-.7-2.69-1.44-5.38-2.11-8.08q-2.08-8.52-4.16-17c-1.21-5-2.57-10-3.93-14.9s-2.51-9.77-3.87-14.62L298,515.54c-.65-2.3-1.43-4.56-2.25-6.8a83.05,83.05,0,0,0-4.15-9.64,64.1,64.1,0,0,0-6.13-9.74,54.94,54.94,0,0,0-6.74-7.22,50.57,50.57,0,0,0-8.93-6.3,74.35,74.35,0,0,0-9.45-4.41c-2.15-.85-4.34-1.6-6.56-2.23l-4.49-1.28a61.17,61.17,0,0,0-8.78-1.75c-3.07-.4-6.16-.52-9.24-.82-2.58-.26-5.15-.5-7.72-.81l-3.84-.46a58.08,58.08,0,0,1-10.34-2.14,87,87,0,0,1-15.59-7.65L186,449.7c-2.87-1.7-5.75-3.41-8.7-5A103.29,103.29,0,0,0,166.87,440,101.7,101.7,0,0,0,145,434.16a81.81,81.81,0,0,0-10.61-.79,69.48,69.48,0,0,0-11,.72A93,93,0,0,0,113,436.24,54.21,54.21,0,0,0,102.62,440a49.38,49.38,0,0,0-16.41,13.26A38.35,38.35,0,0,0,81,461.91,23.8,23.8,0,0,0,79.41,467a16,16,0,0,0-.2,2.39,29.67,29.67,0,0,0,.08,3.53,24.14,24.14,0,0,0,1.13,5.12,32.3,32.3,0,0,0,2.06,4.75,42.23,42.23,0,0,0,6.14,9,81.76,81.76,0,0,0,7.17,7.13c1.33,1.18,2.71,2.27,4.11,3.36l3.55,2.78c.91.72,1.89,1.33,2.83,2s2.07,1.43,3.1,2.16c1.25.87,2.55,1.64,3.83,2.46.93.59,1.84,1.25,2.8,1.78l4,2.22c.84.47,1.68,1,2.55,1.41l4.31,2,2.08,1c.24.11.48.24.73.34l4.15,1.54,3.31,1.24c1.37.51,2.81.86,4.21,1.27s2.73.88,4.11,1.22l5.8,1.43c3.95,1,7.89,1.95,11.77,3.18a96.46,96.46,0,0,1,18.92,9.21c4.22,2.56,8.48,5.06,12.6,7.78,2,1.4,4,2.88,5.91,4.47a66.69,66.69,0,0,1,5.84,5.57c1.17,1.21,2.26,2.51,3.37,3.78l3.81,4.91c1.35,1.73,2.61,3.52,3.91,5.29,2.36,3.19,4.74,6.37,7.08,9.58,1.07,1.47,2.08,3,3.18,4.43,1.61,2.14,3.2,4.29,4.9,6.34A40.36,40.36,0,0,0,238,597a46.33,46.33,0,0,0,7,4.59c1.27.71,2.59,1.32,3.91,1.94s2.53,1.25,3.8,1.87a65.45,65.45,0,0,1,6.85,3.92,48.82,48.82,0,0,1,8.17,7.25,47.51,47.51,0,0,1,2.93,3.81,43.83,43.83,0,0,1,2.74,4.69c.47,1,.92,2,1.33,3a27,27,0,0,1,1.12,3.65c.26,1.27.47,2.55.64,3.84a33.45,33.45,0,0,1,.23,4.59,16.19,16.19,0,0,1-.23,1.95,12.7,12.7,0,0,1-.82,1.85,16.6,16.6,0,0,1-1.12,1.39,18,18,0,0,1-2,1.5,17.65,17.65,0,0,1-3.37,1.3,23.63,23.63,0,0,1-5.44.46,32.51,32.51,0,0,1-7.31-1.3,45.78,45.78,0,0,1-9.7-4.84,95.51,95.51,0,0,1-7.79-6c-2.13-1.79-4.17-3.7-6.24-5.56l-7.22-6.47a194.84,194.84,0,0,0-16-13.49,87.73,87.73,0,0,0-9-5.58,85.12,85.12,0,0,0-10.27-4.86,54.76,54.76,0,0,0-10-2.94,49.64,49.64,0,0,0-10.82-.61,75.63,75.63,0,0,0-10.49,1.35c-3.73.69-7.42,1.62-11.07,2.66-4.15,1.18-8.22,2.61-12.29,4l-5.08,1.8c-1.67.59-3.31,1.28-5,1.91s-3.55,1.36-5.31,2c-2.37.92-4.71,1.92-7.1,2.79a69.31,69.31,0,0,1-6.87,2c-1.6.39-3.2.74-4.81,1s-3.46.56-5.19.79l-5.6.71c-2.56.31-5.12.61-7.68,1l-4.81.66c-1,.14-2.06.38-3.09.58-2.56.5-5.1,1-7.64,1.59l-4,.9c-1.42.31-2.83.71-4.24,1.08a37.65,37.65,0,0,0-5.5,2,34.05,34.05,0,0,0-4.48,2.43,22.76,22.76,0,0,0-3.87,3.35,27.73,27.73,0,0,0-5.82,9.46,54,54,0,0,0-2.91,10.78,73,73,0,0,0-1,12A60.27,60.27,0,0,0,36.78,675a68.12,68.12,0,0,0,3.08,11.45A64.93,64.93,0,0,0,44,695a72.12,72.12,0,0,0,5.62,8.49A89.77,89.77,0,0,0,63.51,717.8c2.51,2.11,5.05,4.2,7.7,6.13a81.05,81.05,0,0,0,9.05,5.67,65.75,65.75,0,0,0,9,3.87,75.65,75.65,0,0,0,10.43,2.88,55,55,0,0,0,9.91,1,46.41,46.41,0,0,0,9.84-.84,62.43,62.43,0,0,0,9.7-2.89,61.59,61.59,0,0,0,6.52-2.85c2.53-1.28,5.11-2.5,7.58-3.91l5.71-3.26,2.39-1.32c.92-.51,1.84-1.07,2.79-1.54l3.34-1.67,1-.51c.78-.38,1.56-.75,2.35-1.1a12,12,0,0,1,1.66-.57,24.36,24.36,0,0,1,4.89-.49,36.56,36.56,0,0,1,8.08,1.51c3.25,1.13,6.38,2.53,9.55,3.9,2.24,1,4.44,2.07,6.66,3.11,4.59,2.14,9.1,4.45,13.63,6.74a88.55,88.55,0,0,0,20.58,7.41,57.53,57.53,0,0,0,7.81,1.28l4.93.42c1.17.1,2.34.11,3.52.14,1.77.06,3.54,0,5.31-.08,2.13-.12,4.24-.4,6.36-.67,2.35-.31,4.69-.68,7-1.18,3.27-.69,6.53-1.43,9.76-2.28l3-.78c1.23-.32,2.44-.71,3.65-1.12a58,58,0,0,0,8.17-3.76c1.56-.82,3.08-1.71,4.61-2.58,1.13-.64,2.25-1.3,3.36-2,1.41-.89,2.81-1.79,4.2-2.72s2.87-1.92,4.35-2.8a23,23,0,0,1,4.5-1.81,27.55,27.55,0,0,1,5.5-.73l3.14-.06c1.43.08,2.87.14,4.29.28l2.91.29c.87.09,1.73.2,2.6.32a36.2,36.2,0,0,1,4.45,1l-.67-.21c1.4.46,2.82.86,4.18,1.42q2.38,1,4.72,2c1.27.57,2.51,1.2,3.75,1.85a43.89,43.89,0,0,1,3.81,2.36c1.52,1,3,2,4.51,3.14a28.2,28.2,0,0,1,3.9,3.26,11.7,11.7,0,0,1,1.22,1.86c.27.49.53,1,.78,1.5.87,1.81,1.7,3.64,2.6,5.44,1,2,2,4.09,3.11,6.07,1,1.74,2,3.46,3,5.19.36.61.71,1.23,1.08,1.83a9.75,9.75,0,0,0,1.08,1.39,11.74,11.74,0,0,0,1.48,1.26c1.57,1.23,3.22,2.37,4.83,3.53s3.15,2.34,4.72,3.51,3.1,2.13,4.64,3.23,3,2.12,4.53,3.14a32.58,32.58,0,0,1,4.32,3.48,36.3,36.3,0,0,1,2.79,4.33,46.49,46.49,0,0,0,3.28,5.09,49.07,49.07,0,0,0,4.06,4.57c1.39,1.42,2.89,2.68,4.32,4Q410,798,415,802.08c1.44,1.17,2.93,2.29,4.41,3.4s2.93,2.24,4.45,3.27c.66.44,1.32.84,2,1.23a17.23,17.23,0,0,0,3.16,1.34c1.63.55,3.28,1.08,4.93,1.6,3.26,1.06,6.54,2,9.85,2.89,1.71.46,3.4,1,5.12,1.38l2.56.61c.8.19,1.57.45,2.35.7,1.17.43,2.34.86,3.49,1.36a25.28,25.28,0,0,1,3.25,1.9c1.21.82,2.41,1.65,3.58,2.53l4,3c1.24.91,2.41,2,3.57,3,1,.9,2,1.79,2.95,2.79a40.36,40.36,0,0,1,3.64,5.23,6.86,6.86,0,0,0,1.82,2.36,3.08,3.08,0,0,0,.84.4,3.71,3.71,0,0,0,.88.1,1.8,1.8,0,0,0,.8-.26,2.89,2.89,0,0,0,.92-.79l.17-.24a1.68,1.68,0,0,0,1.89-.55,1.94,1.94,0,0,0-.22-2.59Zm-3.68,1.73,0,0h0l0,0Zm-.14.12Zm0,0,0,0h0l0,0Zm0,0-.05.06h-.06l-.17-.09-.2-.17c-.22-.33-.42-.67-.62-1l.71.59q.17.24.33.51l.06.14Zm0,.08Zm0,0-.06.08.05-.08Zm-.09,0-.19.1.19-.1Zm-.25-.21-.09-.07.09.07Zm-.12-.13a1.68,1.68,0,0,1-.18-.21l.18.21Zm-82.73-79.72,5,5.83c1.68,2,3.34,4,5.09,5.92s3.5,3.93,5.33,5.81,3.65,3.72,5.46,5.61q5.63,5.89,11.2,11.84c.8.85,1.68,1.62,2.5,2.42l3.65,3.53c1.95,1.87,3.94,3.69,5.91,5.53,1.71,1.6,3.49,3.12,5.25,4.66l3.37,2.94c.56.49,1.16.93,1.75,1.38l1.15.89c-1.62-.51-3.27-.91-4.91-1.32-2.11-.54-4.2-1.2-6.3-1.81s-4.3-1.27-6.43-2l-4.88-1.69c-1-.35-2-.69-3-1.13a16.22,16.22,0,0,1-2.25-1.36c-2-1.42-3.78-3.12-5.62-4.73-2-1.77-4-3.53-6-5.36-2.16-2-4.33-4-6.43-6-.93-.9-1.93-1.72-2.84-2.64s-1.88-1.93-2.81-2.91c-.47-.55-.94-1.1-1.38-1.68-.69-.91-1.31-1.86-1.92-2.83-1.06-1.68-2-3.45-3-5.19-1.81-3.17-4.62-5.53-7.46-7.64-1.47-1.08-2.86-2.27-4.34-3.34s-3-2.19-4.52-3.35-3.07-2.34-4.62-3.49c-.88-.65-1.76-1.29-2.62-1.94a22.9,22.9,0,0,1-2.14-1.68c-.25-.37-.48-.75-.7-1.14-.33-.57-.68-1.13-1-1.68-.81-1.3-1.68-2.55-2.5-3.84-1.82-2.85-3.4-5.86-4.94-8.89-.57-1.14-1.13-2.28-1.75-3.4-.4-.72-.8-1.44-1.24-2.14a8.59,8.59,0,0,0-.93-1.07c-.19-.21-.38-.41-.59-.61a18.62,18.62,0,0,0-2.19-1.77c-1.12-.79-2.26-1.57-3.4-2.34-2.09-1.41-4.17-2.84-6.3-4.19a53.66,53.66,0,0,0-5.62-3.06c-1.1-.53-2.19-1.05-3.3-1.54l-1.7-.74c-.65-.28-1.33-.49-2-.73a56.11,56.11,0,0,0-6.66-2c-1.91-.43-3.87-.68-5.79-1-1.19-.19-2.39-.31-3.58-.45s-2.64-.19-4-.26a36.21,36.21,0,0,0-7.92.36,29.93,29.93,0,0,0-8.06,2.76l-4.95,2.35c-1.71.8-3.49,1.48-5.23,2.18-1.44.58-2.88,1.2-4.32,1.79L279,722.6a69.4,69.4,0,0,1-7.76,2.62c-1.43.34-2.86.71-4.29,1.07-3.36.79-6.7,1.71-10.09,2.37-1.82.36-3.63.67-5.46,1-1.38.21-2.75.38-4.14.52a57.89,57.89,0,0,1-6.84.21l-5.52-.43a57.58,57.58,0,0,1-6.53-1,78.09,78.09,0,0,1-8-2,90,90,0,0,1-8.44-3.38c-1.4-.64-2.78-1.31-4.16-2-2.06-1-4.11-2.06-6.19-3s-4.09-1.94-6.15-2.86-4.27-2-6.44-2.88c-2.71-1.12-5.4-2.26-8.16-3.24a49.33,49.33,0,0,0-9.38-2.41,35.85,35.85,0,0,0-5.58-.26,23,23,0,0,0-5.27.8,20.68,20.68,0,0,0-3.8,1.34c-.76.35-1.5.75-2.24,1.13l-3.68,1.86c-.94.47-1.86,1-2.79,1.53-1.26.69-2.53,1.38-3.79,2.09l.39-.22-4.45,2.5c-1.1.62-2.2,1.18-3.32,1.74l-5.22,2.6c-1.9.94-3.9,1.71-5.87,2.46a63.54,63.54,0,0,1-6.27,2,46.82,46.82,0,0,1-11.19,1.11,64.83,64.83,0,0,1-15.88-3,74.06,74.06,0,0,1-7.8-3.17A68.82,68.82,0,0,1,77,717.11c-3.47-2.39-6.77-5.08-10-7.79a83.1,83.1,0,0,1-8.68-8.42,74.09,74.09,0,0,1-9.08-13.42,57.8,57.8,0,0,1-2.44-5.72A58.66,58.66,0,0,1,45,675.51c-.48-2.29-.88-4.59-1.16-6.92a54,54,0,0,1-.33-7.53,63.31,63.31,0,0,1,2.07-13.77,36.5,36.5,0,0,1,2.8-6.88,28.3,28.3,0,0,1,3.1-3.94c.47-.43.95-.84,1.46-1.24a14.84,14.84,0,0,1,1.58-1,41.48,41.48,0,0,1,5-2.22c1.66-.61,3.4-1,5.11-1.46l7.19-1.66c1.2-.28,2.43-.5,3.64-.75s2.23-.5,3.35-.67c2.45-.37,4.89-.77,7.34-1.1,3.35-.46,6.69-.91,10-1.39,1.73-.24,3.47-.5,5.19-.81s3.41-.71,5.11-1.13a84.42,84.42,0,0,0,10.71-3.32c2.24-.87,4.43-1.85,6.66-2.74l4.54-1.82c2.09-.83,4.16-1.67,6.27-2.45,2.91-1.08,5.82-2.2,8.75-3.21,4-1.38,8.05-2.65,12.15-3.7,3.07-.73,6.16-1.33,9.28-1.82a54.92,54.92,0,0,1,9.75-.65,51.51,51.51,0,0,1,5.54.59,42.89,42.89,0,0,1,5.57,1.42,88.9,88.9,0,0,1,19.91,9.78,120.1,120.1,0,0,1,10.77,8.51q2.82,2.43,5.63,4.87l7.31,6.41c1.71,1.49,3.4,3,5.11,4.48a93.4,93.4,0,0,0,8.92,6.85,50.87,50.87,0,0,0,9,4.89,32.5,32.5,0,0,0,10.79,2.4,29.51,29.51,0,0,0,4.51-.1,22.35,22.35,0,0,0,4.27-1,15.91,15.91,0,0,0,3.87-1.93,12.92,12.92,0,0,0,3.58-3.6,10.82,10.82,0,0,0,1.69-3.83,23,23,0,0,0,.31-4.83,34,34,0,0,0-.45-4.84,39.73,39.73,0,0,0-1.23-5.5,31.19,31.19,0,0,0-2-4.78c-.7-1.45-1.48-2.86-2.31-4.24a45.69,45.69,0,0,0-6.88-8.58,50.34,50.34,0,0,0-11.52-8.47c-2.22-1.24-4.51-2.35-6.78-3.46a59.2,59.2,0,0,1-6.29-3.58,40.72,40.72,0,0,1-6.28-5.47c-1.21-1.42-2.33-2.91-3.44-4.42-.75-1-1.53-2.06-2.26-3.12-1.59-2.31-3.18-4.61-4.79-6.91s-3.16-4.43-4.75-6.64c-1.38-1.93-2.71-3.91-4.13-5.8s-3-4.14-4.65-6.06l-2.86-3.32a57.65,57.65,0,0,0-7.7-7.29A111.58,111.58,0,0,0,189.65,537c-3.18-1.87-6.35-3.75-9.58-5.52-2.86-1.55-5.78-3-8.75-4.27a80.48,80.48,0,0,0-9.49-3.37c-3-.88-6.11-1.62-9.17-2.39l-3.07-.78c-1.14-.28-2.3-.51-3.42-.85l-6.87-2.1-5.94-2.27c-.48-.19-1-.34-1.45-.57l-3-1.46c-1.58-.76-3.2-1.46-4.71-2.34l-5.67-3.31c-1.64-1.1-3.28-2.22-4.91-3.33-.53-.36-1-.75-1.53-1.13l-3.72-2.79c-1.59-1.19-3.07-2.53-4.58-3.81-.82-.69-1.63-1.37-2.42-2.1A89.75,89.75,0,0,1,95,488.18c-1-1.12-1.88-2.26-2.74-3.46a40.9,40.9,0,0,1-2.75-4.47,33,33,0,0,1-2.28-6,23.27,23.27,0,0,1-.33-3.91l.06-.61c.54,0,1.09,0,1.64,0,1.15,0,2.3-.23,3.46-.3,2.34-.16,4.69-.05,7-.1,2.62-.06,5.25-.25,7.87-.41,1.3-.08,2.6-.2,3.9-.29s2.6,0,3.89,0,2.56.11,3.84.19c1.57.11,3.12.28,4.68.45,1.29.14,2.57.37,3.85.56s2.74.47,4.09.75c2.8.59,5.61,1.16,8.37,1.92,1.42.39,2.85.74,4.25,1.19l4.39,1.4q5.25,1.94,10.47,4c3.41,1.31,6.87,2.49,10.33,3.66,1.87.63,3.79,1.13,5.69,1.69,1.74.52,3.51.94,5.27,1.4,3.5.93,7,1.93,10.46,3l4.66,1.57c1.68.56,3.33,1.23,5,1.85,1.43.53,2.83,1.14,4.24,1.72s3,1.21,4.53,1.81c2.91,1.15,5.86,2.24,8.75,3.46l5.24,2.21c1.81.76,3.58,1.65,5.33,2.56a66,66,0,0,1,6.27,3.69q2.37,1.62,4.6,3.43c1.84,1.48,3.56,3.14,5.26,4.8,1.34,1.3,2.62,2.66,3.93,4,2.05,2.11,4,4.29,6,6.48,1.48,1.83,3,3.62,4.39,5.54l3,4.2c.72,1,1.33,2.1,2,3.15s1.25,1.92,1.8,2.92l2.53,4.54c1.13,2,2.16,4.12,3.22,6.19.54,1.17,1.09,2.33,1.63,3.5.47,1,1,2,1.4,3,1,2.43,2.07,4.83,2.93,7.31,1.84,5.31,3.73,10.6,5.71,15.85,1,2.62,1.95,5.24,2.91,7.87s1.88,5,2.83,7.47c1.78,4.64,3.64,9.24,5.54,13.83l2.88,6.91c1,2.47,2,5,3.17,7.37s2.34,5,3.6,7.4,2.5,4.82,3.79,7.21,2.51,4.62,3.81,6.9,2.53,4.42,3.81,6.62c2.62,4.49,5.23,9,8,13.43l4.62,7.49c.54.87,1.15,1.7,1.72,2.56l3,4.46c1.46,2.18,3.05,4.27,4.58,6.4s3.16,4.12,4.75,6.17,3.39,4,5.11,6.06,3.4,3.81,5.12,5.7c3.27,3.62,6.44,7.35,9.7,11q3.63,4,7.3,8c2,2.15,3.89,4.37,5.86,6.53l4,4.4c1.17,1.29,2.4,2.53,3.61,3.8,2.11,2.21,4.11,4.53,6.14,6.82q4.88,5.85,9.8,11.64Zm37.89,51.24-.33-.11.33.11Zm-2.55,3.05-.14-.05.14.05Zm-18-161.64c0,1.18-.19,2.36-.29,3.53s-.21,2.65-.31,4c-.1,1.17-.32,2.35-.48,3.52s-.3,2.38-.48,3.56c-.37,2.38-.75,4.76-1.11,7.15-.76,5-1.55,10-2.16,15-.31,2.52-.62,5-.84,7.55s-.45,5.09-.65,7.63-.38,5.25-.52,7.88c-.06,1.25-.13,2.51-.19,3.76s-.05,2.78-.07,4.16c0,1.22,0,2.45-.05,3.67,0,.38,0,.77.05,1.15l.15,3c.05,1.08,0,2.18.16,3.25l.48,4.49c.28,2.53.61,5.06.94,7.59s.8,5,1.25,7.5c.15.87.34,1.73.54,2.6.32,1.46.59,2.94,1,4.38.61,2.3,1.16,4.62,1.92,6.87.44,1.27.87,2.54,1.3,3.8.55,1.63,1.27,3.21,2,4.78s1.68,3.36,2.58,5c.62,1.13,1.32,2.22,2,3.32.54.92,1.11,1.81,1.7,2.7.14.22.29.44.43.67-1.72-1.81-3.44-3.62-5.19-5.4-1.53-1.58-3.12-3.11-4.6-4.74l-4.68-5.15-9-10.56c-1.6-1.89-3.21-3.75-4.79-5.66s-3.13-3.83-4.77-5.69-3.24-3.72-4.93-5.51-3.46-3.66-5.16-5.54c-3.46-3.84-6.88-7.73-10.36-11.55-1.73-1.9-3.42-3.82-5.12-5.73-3.93-4.54-7.85-9.07-11.82-13.57l-2.25-2.71c-.77-.93-1.59-1.83-2.32-2.79L347.68,696c-.71-.92-1.45-1.83-2.12-2.79l-4.51-6.43c-.55-.78-1.06-1.61-1.59-2.41l-2.77-4.22c-.38-.57-.73-1.16-1.08-1.75q-1.39-2.29-2.77-4.59c-1.2-2-2.37-4-3.54-6q-3.56-6.06-7-12.19l-2.3-4.1c-.86-1.54-1.65-3.13-2.48-4.69-1.36-2.56-2.66-5.16-4-7.75-.5-1.08-1-2.17-1.51-3.26s-1-2-1.4-3c-.92-2.25-1.85-4.5-2.76-6.75-1.93-4.72-3.88-9.42-5.71-14.18s-3.71-9.75-5.48-14.67c-.86-2.38-1.76-4.75-2.65-7.12-.83-2.22-1.61-4.46-2.4-6.69-.39-1.07-.75-2.16-1.12-3.23s-.67-2.08-1.09-3.08c-.93-2.26-1.81-4.54-2.85-6.75s-2.2-4.72-3.39-7l-1.89-3.64c-.57-1.11-1.22-2.17-1.82-3.26-.45-.79-.87-1.61-1.36-2.38l-2.65-4.2c-1.21-1.92-2.61-3.72-3.93-5.56-.24-.34-.54-.65-.8-1l-1.61-2c-.65-.8-1.3-1.61-2-2.38-1.64-1.77-3.26-3.58-5-5.29A120.64,120.64,0,0,0,253,524.9a61.26,61.26,0,0,0-7.55-5.19,65.85,65.85,0,0,0-8.47-4.27c-2.1-.87-4.18-1.77-6.29-2.59L223.39,510c-2.32-.9-4.62-1.83-6.93-2.76-.88-.36-1.78-.67-2.67-1s-2.07-.79-3.12-1.14c-2.44-.81-4.88-1.62-7.35-2.35s-4.83-1.36-7.26-2L191,499.4c-1.63-.43-3.24-1-4.86-1.45-2.08-.7-4.15-1.4-6.2-2.17-2.43-.9-4.85-1.83-7.27-2.77l-2.51-.94c-1.24-.46-2.48-1-3.75-1.37l-4-1.28c-1.1-.35-2.22-.65-3.33-1-2.13-.6-4.27-1.15-6.43-1.61s-4.59-1-6.9-1.35-4.69-.67-7.06-.8a69.13,69.13,0,0,0-7-.16c-2.58.12-5.15.44-7.73.64-2.37.19-4.73.45-7.1.5-1.06,0-2.12,0-3.18.08s-2.16.16-3.25.3c-.54.07-1.08.09-1.63.11a28.72,28.72,0,0,1,1.67-3.44,38.86,38.86,0,0,1,5.21-6.47,45.94,45.94,0,0,1,7.87-6,44.75,44.75,0,0,1,5-2.33,56.78,56.78,0,0,1,6.39-2,75.7,75.7,0,0,1,18.9-2.12,81.35,81.35,0,0,1,10.54,1.2,94.5,94.5,0,0,1,11.81,3,103.37,103.37,0,0,1,13.91,5.89c3.09,1.58,6.07,3.38,9.08,5.11,5.86,3.37,11.7,6.8,18,9.21a49,49,0,0,0,14.22,3l5.55.37c1.83.12,3.67.15,5.5.23,2,.08,4.07.09,6.11.12,2.42.11,4.82.3,7.22.65,1.47.21,2.93.49,4.37.82l3.76.85c1.61.36,3.19.84,4.77,1.35A59.22,59.22,0,0,1,282,501.85a48.32,48.32,0,0,1,8.13,7.21,55.2,55.2,0,0,1,7.05,10.45A89.86,89.86,0,0,1,302.8,534c.69,2.37,1.42,4.73,2.06,7.11q2,7.62,4.15,15.21c2.67,9.57,4.81,19.28,7.31,28.9.59,2.26,1.13,4.55,1.8,6.79l2.52,8.49q2.1,7.08,4.26,14.13c.44,1.4.87,2.8,1.31,4.19.23.76.52,1.5.8,2.25.86,2.37,1.69,4.76,2.6,7.11l3.12,8.08c.93,2.4,2,4.76,3,7.14s2,4.41,3,6.61,2.06,4.25,3.11,6.37c.49,1,1,2,1.49,3,.74,1.36,1.48,2.72,2.26,4.05a46.57,46.57,0,0,0,3,4.45,36.09,36.09,0,0,0,6.15,6.26,27.14,27.14,0,0,0,3.61,2.34,20.65,20.65,0,0,0,4.77,1.84,16.21,16.21,0,0,0,4.22.52,14.66,14.66,0,0,0,4-.49,15.8,15.8,0,0,0,2-.7,11.93,11.93,0,0,0,1.66-1,8.32,8.32,0,0,0,1.48-1.31,12,12,0,0,0,1.64-2.17,18.14,18.14,0,0,0,1.05-2.06,13.94,13.94,0,0,0,.69-2.13,30.48,30.48,0,0,0,.89-4.53,28.17,28.17,0,0,0,.13-4.59,21.39,21.39,0,0,0-1.13-5.55,26,26,0,0,0-1.83-4,24.29,24.29,0,0,0-2.51-3.67,51.64,51.64,0,0,0-4.69-5c-2.23-2.15-4.46-4.31-6.55-6.62l-.12-.13c-1.75-2.06-3.35-4.22-4.9-6.44a66.6,66.6,0,0,1-4.57-7.22,70,70,0,0,1-3-7.34,84,84,0,0,1-2.39-8.16,53.48,53.48,0,0,1-.85-5.51,40,40,0,0,1-.15-5.25,86,86,0,0,1,1.23-10.73c.3-1.7.55-3.41.92-5.1l.81-3.67c.12-.52.22-1.06.37-1.57.53-1.85,1.05-3.69,1.57-5.54s1.26-3.83,1.89-5.75,1.1-3.77,1.58-5.68a52.27,52.27,0,0,0,1.16-5.83,19.76,19.76,0,0,0,.15-2.31,20.2,20.2,0,0,0-.28-3.11,90.58,90.58,0,0,0-2.71-11.64c-.82-2.81-1.63-5.62-2.41-8.43-.94-3.35-2-6.68-2.76-10.07a65.32,65.32,0,0,1-1.21-14c.06-1.1.15-2.18.28-3.27a25.76,25.76,0,0,1,.65-3.26,21.94,21.94,0,0,1,1.73-4,15.64,15.64,0,0,1,1.49-1.83,18.16,18.16,0,0,1,1.59-1.18,14,14,0,0,1,2.49-1,19.37,19.37,0,0,1,3.64-.37,20.88,20.88,0,0,1,4.43.84,31.55,31.55,0,0,1,6.32,3.14,50.35,50.35,0,0,1,8,7.08,28.9,28.9,0,0,1,3.25,4.7,34.6,34.6,0,0,1,1.75,4.39c.22.68.42,1.35.61,2,.35,1.2.7,2.4,1,3.61q1.08,3.78,2.24,7.54c.66,2.17,1.37,4.32,2,6.48.82,2.63,1.62,5.27,2.43,7.9.63,2.1,1.29,4.18,2,6.26.38,1.13.73,2.28,1.15,3.4.54,1.43,1.07,2.87,1.61,4.3.75,2,1.58,3.94,2.29,5.94.92,2.62,1.83,5.24,2.71,7.88q1.68,5,3.52,9.85c.71,1.88,1.42,3.76,2.15,5.63l1.41,3.59a55.53,55.53,0,0,1,2.25,7.3c.35,1.73.66,3.47,1,5.21.16,1,.34,1.92.48,2.89.34,2.52.66,5,.95,7.55.26,2.13.47,4.27.7,6.4.11,1,.18,2,.27,3s.21,2.07.27,3.11c.12,2.16.27,4.33.36,6.49s.26,4.54.31,6.81.14,4.63.12,7,0,4.72-.05,7.09-.2,4.76-.29,7.14Zm-78.35-9.37-.2-.41.18.37,0,0ZM144.73,715.31l.62-.35-.62.35Zm279.15,93.44-.13-.09.24.17-.11-.08Zm.11.08.17.11-.17-.11Z" transform="translate(531.21 166.72)"/><path class="cls-6" d="M99.75,87.2a174,174,0,0,0-39.09,4.86,273.65,273.65,0,0,0-41.2,13.47c-7.5,3.06-14.93,6.35-21.22,9.16-3.31,1.49-6.74,3-10.07,4.65-1.91.93-3.81,1.89-5.71,2.84-1.42.72-2.85,1.44-4.28,2.14a8,8,0,0,0-3.78,4.93,8.29,8.29,0,0,0,.82,6.35,8.34,8.34,0,0,0,4.93,3.78,7.77,7.77,0,0,0,2.07.29,9.65,9.65,0,0,0,4.28-1.12q2.09-1,4.17-2.07l.06,224.59-.17-.17c-1.06-.82-2.15-1.68-3.16-2.6C-14,357-15.45,355.64-17.09,354c-2.52-2.57-4.9-5.32-7.33-8.14A4.66,4.66,0,0,0-28,344.3a5.54,5.54,0,0,0-3.86,1.53,5.29,5.29,0,0,0-1.54,3.72,5.49,5.49,0,0,0,1.54,3.71,127.14,127.14,0,0,0,9.15,9.41,102.17,102.17,0,0,0,9.51,7.72l.29.21c3,2.33,5.89,4.79,8.72,7.16L-2.66,379c3.3,2.77,6.81,5.36,10.2,7.87l.94.69c2.28,1.79,4.53,3.61,6.77,5.43s4.34,3.52,6.53,5.24,4.59,3.52,7.72,5.78c1.52,1.11,3,2.22,4.6,3.29A26.68,26.68,0,0,0,38.74,410l2.1.88,1.48.61a36.61,36.61,0,0,0,9.82,2.92,23.56,23.56,0,0,0,2.71.15,51.79,51.79,0,0,0,7.37-.68c3.3-.48,6.66-1,10.26-1.71,2.16-.41,4.35-.87,6.53-1.38a123,123,0,0,0,12.73-3.86c2.33-.82,4.67-1.71,6.94-2.57l3.07-1.16c6.26-2.36,12.36-4.93,18.07-7.36,2.72-1.16,5.25-2.29,7.73-3.46l2-.93c2-.93,4-1.88,6-2.91l.12-.06,9.36-4.94c.75-.4,1.49-.88,2.2-1.34l1.11-.71,3.64-2.25,2.24-1.38c1.93-1.19,3.82-2.51,5.65-3.78l1.84-1.28c2.45-1.68,4.94-3.34,7.42-5,5.34-3.56,10.29-6.59,15.13-9.27,5.91-3.28,11.86-6.64,18.19-10.27,1.85-1.07,3.68-2.17,5.51-3.27l2.71-1.63c1.74-1,3.59-2.18,6-3.71a105,105,0,0,0,11.21-8.33,76,76,0,0,0,9-9.09,80.22,80.22,0,0,0,6.88-9.3l2.95-4.71c.25-.4.51-.79.77-1.18.52-.79,1.06-1.6,1.5-2.44,1.17-2.22,2.32-4.46,3.47-6.7l1.58-3.07c.46-.9.85-1.83,1.23-2.74l.21-.5.56-1.36,1.91-4.59,1-2.29.95-2.29a96,96,0,0,0,3.25-9.7l.18-.61a169.14,169.14,0,0,0,5.34-27.33c.58-4.55,1-9,1.16-13.34a84.76,84.76,0,0,0-.68-14.65,71.62,71.62,0,0,0-8.3-25.43,62.74,62.74,0,0,0-16.87-18.93c-2.28-1.76-4.59-3.49-6.9-5.21l-3.9-2.93-.6-.45-3.79-3.26L224.83,156c-.54-.47-1.06-1-1.56-1.52l-.72-.73-4.84-4.77-2.79-2.76c-3.07-3.07-6.25-6.23-9.52-9.21-4.58-4.15-9.51-8.52-15.53-13.73-5.81-5-11.36-9.44-16.94-13.43a120.75,120.75,0,0,0-24-13.28,117.84,117.84,0,0,0-19.71-6.23,138.19,138.19,0,0,0-23-2.94c-2.15-.1-4.33-.16-6.49-.16Z" transform="translate(531.21 166.72)"/><path class="cls-7" d="M42.81,207a9.61,9.61,0,1,0,9.61-9.61A9.7,9.7,0,0,0,42.81,207Z" transform="translate(531.21 166.72)"/><path class="cls-7" d="M116,152.7a9.61,9.61,0,1,0,9.61-9.61A9.71,9.71,0,0,0,116,152.7Z" transform="translate(531.21 166.72)"/><path class="cls-7" d="M165.47,280.53a11.87,11.87,0,1,0,11.86-11.86,12,12,0,0,0-11.86,11.86Z" transform="translate(531.21 166.72)"/><path class="cls-7" d="M95.21,378.77a9.61,9.61,0,1,0,9.61-9.62,9.7,9.7,0,0,0-9.61,9.62Z" transform="translate(531.21 166.72)"/><path class="cls-7" d="M37.38,329.49A9.61,9.61,0,1,0,47,319.88a9.7,9.7,0,0,0-9.61,9.61Z" transform="translate(531.21 166.72)"/><path class="cls-7" d="M84.35,266A9.61,9.61,0,1,0,94,256.39,9.71,9.71,0,0,0,84.35,266Z" transform="translate(531.21 166.72)"/><path class="cls-7" d="M144.52,210.52a9.61,9.61,0,1,0,9.61-9.61,9.7,9.7,0,0,0-9.61,9.61Z" transform="translate(531.21 166.72)"/><path class="cls-7" d="M203.53,192a9.61,9.61,0,1,0,9.61-9.61,9.7,9.7,0,0,0-9.61,9.61Z" transform="translate(531.21 166.72)"/><path class="cls-7" d="M136.65,338.47a9.61,9.61,0,1,0,9.61-9.61,9.71,9.71,0,0,0-9.61,9.61Z" transform="translate(531.21 166.72)"/><path class="cls-7" d="M36.16,135.33a9.61,9.61,0,1,0,9.61-9.61,9.71,9.71,0,0,0-9.61,9.61Z" transform="translate(531.21 166.72)"/><path class="cls-7" d="M-21.42,204a9.7,9.7,0,0,0,9.61,9.61A9.71,9.71,0,0,0-2.2,204a9.7,9.7,0,0,0-9.61-9.61A9.7,9.7,0,0,0-21.42,204Z" transform="translate(531.21 166.72)"/><path class="cls-7" d="M-20.21,296.26a9.7,9.7,0,0,0,9.61,9.61A9.7,9.7,0,0,0-1,296.26a9.7,9.7,0,0,0-9.61-9.61,9.71,9.71,0,0,0-9.61,9.61Z" transform="translate(531.21 166.72)"/><path class="cls-7" d="M88,183.06A5.11,5.11,0,1,0,93.1,178,5.16,5.16,0,0,0,88,183.06Z" transform="translate(531.21 166.72)"/><path class="cls-7" d="M76.82,137a5.11,5.11,0,1,0,5.11-5.11A5.16,5.16,0,0,0,76.82,137Z" transform="translate(531.21 166.72)"/><path class="cls-7" d="M-4.64,186.81a5.16,5.16,0,0,0,5.11,5.11,5.11,5.11,0,1,0,0-10.21,5.16,5.16,0,0,0-5.11,5.1Z" transform="translate(531.21 166.72)"/><path class="cls-7" d="M26.75,256.15A5.11,5.11,0,1,0,31.86,251a5.15,5.15,0,0,0-5.11,5.11Z" transform="translate(531.21 166.72)"/><path class="cls-7" d="M99.82,309.88a5.11,5.11,0,1,0,5.11-5.11,5.16,5.16,0,0,0-5.11,5.11Z" transform="translate(531.21 166.72)"/><path class="cls-7" d="M38.37,393.74a5.11,5.11,0,1,0,5.11-5.11,5.15,5.15,0,0,0-5.11,5.11Z" transform="translate(531.21 166.72)"/><path class="cls-7" d="M146.48,251.84a5.11,5.11,0,1,0,5.11-5.11,5.16,5.16,0,0,0-5.11,5.11Z" transform="translate(531.21 166.72)"/><path class="cls-7" d="M223.83,240.65a5.11,5.11,0,1,0,5.11-5.11,5.15,5.15,0,0,0-5.11,5.11Z" transform="translate(531.21 166.72)"/><path class="cls-7" d="M200.72,323.18a5.11,5.11,0,1,0,5.11-5.11,5.16,5.16,0,0,0-5.11,5.11Z" transform="translate(531.21 166.72)"/><path class="cls-7" d="M176.12,148.71a6.3,6.3,0,1,0,6.29-6.3,6.35,6.35,0,0,0-6.29,6.3Z" transform="translate(531.21 166.72)"/><text class="cls-8" transform="translate(0 94.8)">ffb5a7</text></g></g></g></svg>